<svg xmlns="http://www.w3.org/2000/svg" xmlns:xlink="http://www.w3.org/1999/xlink" width="195" height="53" viewBox="0 0 195 53">
  <defs>
    <linearGradient id="linear-gradient" x1="0.5" x2="0.5" y2="1" gradientUnits="objectBoundingBox">
      <stop offset="0" stop-color="#dedede"/>
      <stop offset="0.517" stop-color="#fff"/>
      <stop offset="1" stop-color="#dedede"/>
    </linearGradient>
    <filter id="Rectángulo_372434" x="29" y="0" width="166" height="53" filterUnits="userSpaceOnUse">
      <feOffset dy="3" input="SourceAlpha"/>
      <feGaussianBlur stdDeviation="3" result="blur"/>
      <feFlood flood-opacity="0.161"/>
      <feComposite operator="in" in2="blur"/>
      <feComposite in="SourceGraphic"/>
    </filter>
    <filter id="Rectángulo_372435" x="0" y="0" width="53" height="53" filterUnits="userSpaceOnUse">
      <feOffset dy="3" input="SourceAlpha"/>
      <feGaussianBlur stdDeviation="3" result="blur-2"/>
      <feFlood flood-opacity="0.161"/>
      <feComposite operator="in" in2="blur-2"/>
      <feComposite in="SourceGraphic"/>
    </filter>
    <clipPath id="clip-path">
      <rect id="Rectángulo_368380" data-name="Rectángulo 368380" width="20.439" height="20.429" fill="none"/>
    </clipPath>
  </defs>
  <g id="Grupo_1043412" data-name="Grupo 1043412" transform="translate(8529 6021)">
    <g transform="matrix(1, 0, 0, 1, -8529, -6021)" filter="url(#Rectángulo_372434)">
      <path id="Rectángulo_372434-2" data-name="Rectángulo 372434" d="M0,0H140a8,8,0,0,1,8,8V27a8,8,0,0,1-8,8H0a0,0,0,0,1,0,0V0A0,0,0,0,1,0,0Z" transform="translate(38 6)" fill="url(#linear-gradient)"/>
    </g>
    <g transform="matrix(1, 0, 0, 1, -8529, -6021)" filter="url(#Rectángulo_372435)">
      <rect id="Rectángulo_372435-2" data-name="Rectángulo 372435" width="35" height="35" rx="8" transform="translate(9 6)" fill="#5573c6"/>
    </g>
    <g id="Grupo_1043411" data-name="Grupo 1043411" transform="translate(-8512.894 -6007.889)">
      <g id="Grupo_1038925" data-name="Grupo 1038925" transform="translate(0)" clip-path="url(#clip-path)">
        <path id="Trazado_782654" data-name="Trazado 782654" d="M3.342,5.094c-.755.755-1.488,1.5-2.236,2.23-.225.22-.449.64-.792.436C.131,7.652.09,7.2.087,6.908.069,4.731.077,2.553.078.376c0-.1.01-.209.016-.34A2.914,2.914,0,0,1,.4,0Q3.789,0,7.174,0a.238.238,0,0,1,.079,0c.21.079.419.16.629.241A2.129,2.129,0,0,1,7.6.822c-.7.728-1.42,1.433-2.133,2.148-.092.093-.18.19-.335.353.368.342.734.666,1.081,1.009q1.359,1.345,2.7,2.705A1.275,1.275,0,0,1,7.441,9.075a1.968,1.968,0,0,1-.464-.368Q5.324,7.066,3.68,5.415c-.1-.1-.208-.2-.338-.321" transform="translate(-0.069 0)" fill="#1a1818"/>
        <path id="Trazado_782655" data-name="Trazado 782655" d="M144.749,3.255c-.789-.778-1.567-1.536-2.333-2.305-.2-.2-.548-.41-.355-.709.107-.166.485-.216.741-.218,2.19-.016,4.381-.009,6.572-.009h.449v.53c0,2.151.008,4.3-.009,6.453,0,.269-.053.672-.225.778-.312.192-.529-.18-.737-.386-.761-.755-1.511-1.521-2.3-2.316-.3.31-.568.586-.838.857q-1.421,1.424-2.846,2.844a1.282,1.282,0,1,1-1.8-1.813q1.671-1.681,3.35-3.353c.1-.1.2-.208.332-.352" transform="translate(-129.394 -0.011)" fill="#1a1818"/>
        <path id="Trazado_782656" data-name="Trazado 782656" d="M.009,149.7v-5.836c0-.412-.025-.825.01-1.234a3.244,3.244,0,0,1,.211-.684,2.4,2.4,0,0,1,.636.315c.731.695,1.436,1.417,2.148,2.132.075.075.136.163.232.281.134-.126.238-.22.337-.318,1.146-1.145,2.288-2.294,3.439-3.433a1.273,1.273,0,0,1,1.536-.221,1.2,1.2,0,0,1,.608,1.385,1.856,1.856,0,0,1-.466.76c-1.18,1.2-2.381,2.387-3.685,3.687.3.249.593.47.856.724.573.553,1.14,1.114,1.686,1.693a1.93,1.93,0,0,1,.255.548,1.652,1.652,0,0,1-.551.227c-2.363.015-4.726.01-7.089.009a1.043,1.043,0,0,1-.163-.035" transform="translate(0 -129.319)" fill="#1a1818"/>
        <path id="Trazado_782657" data-name="Trazado 782657" d="M149.846,149.744h-7.021a1.263,1.263,0,0,1-.356-.017c-.144-.044-.358-.1-.39-.2a.617.617,0,0,1,.123-.458,4.174,4.174,0,0,1,.492-.519c.682-.683,1.366-1.365,2.09-2.088-.968-.958-1.91-1.889-2.852-2.822-.3-.3-.607-.6-.9-.9a1.277,1.277,0,1,1,1.808-1.8c1.105,1.091,2.2,2.193,3.295,3.294.139.139.255.3.4.476.824-.824,1.573-1.593,2.347-2.334.2-.187.51-.44.708-.4.361.082.25.5.251.791.007,2.164,0,4.328,0,6.492v.489" transform="translate(-129.419 -129.318)" fill="#1a1818"/>
      </g>
    </g>
  </g>
</svg>
