<svg xmlns="http://www.w3.org/2000/svg" width="1134.727" height="388.174" viewBox="0 0 1134.727 388.174">
  <g id="Grupo_1043412" data-name="Grupo 1043412" transform="translate(393.125 -275.165)">
    <path id="Trazado_779307" data-name="Trazado 779307" d="M168.206,426.742,6.646,311.578l161.56-207.859h842.972V426.742Z" transform="translate(-379.073 171.447)" fill="#12263f"/>
    <g id="Grupo_1043410" data-name="Grupo 1043410" transform="translate(-393.125 -47.857)">
      <path id="Trazado_779308" data-name="Trazado 779308" d="M263.408,491.236V468.155H183.23c-88.48,0-165.5-62.92-180.471-150.124C-16.908,203.47,71.224,103.719,182.215,103.719H282.234c17.927,0,34.2,11.346,39.556,28.456,9.05,28.914-12.3,55.471-39.855,55.471H182.352c-43.919,0-83.367,28.8-94.784,71.208-17.709,65.779,31.642,125.37,94.647,125.37h81.193V361.144c0-.6,1.264-.884,1.956-.442l102.371,65.487-102.371,65.49c-.691.442-1.956.156-1.956-.442" transform="translate(0 219.304)" fill="#12263f"/>
      <rect id="Rectángulo_366068" data-name="Rectángulo 366068" width="3.114" height="188.739" transform="translate(1094.754 388.507)" fill="#12263f"/>
      <path id="Trazado_779314" data-name="Trazado 779314" d="M361.782,134.515a7.049,7.049,0,1,1,0-9.969,7.049,7.049,0,0,1,0,9.969" transform="translate(739.512 258.975)" fill="#12263f"/>
      <path id="Trazado_779315" data-name="Trazado 779315" d="M413.9,208.753a36.861,36.861,0,1,0-36.859,36.862A36.86,36.86,0,0,0,413.9,208.753" transform="translate(719.273 363.454)" fill="#fffef2"/>
      <path id="Trazado_779316" data-name="Trazado 779316" d="M378.1,248.23a38.418,38.418,0,1,1,38.416-38.419A38.463,38.463,0,0,1,378.1,248.23m0-73.721a35.3,35.3,0,1,0,35.3,35.3,35.343,35.343,0,0,0-35.3-35.3" transform="translate(718.216 362.397)" fill="#12263f"/>
      <path id="Trazado_779317" data-name="Trazado 779317" d="M377,193.264v-17.88H356.321v17.88H345.084l21.577,37.152,21.573-37.152Z" transform="translate(729.65 370.833)" fill="#12263f"/>
    </g>
  </g>
</svg>
