<svg xmlns="http://www.w3.org/2000/svg" xmlns:xlink="http://www.w3.org/1999/xlink" width="344.182" height="327.817" viewBox="0 0 344.182 327.817"><defs><clipPath id="a"><rect width="344.182" height="327.817" fill="none"/></clipPath></defs><g clip-path="url(#a)"><path d="M159.919,312.174l-.964,0,0-.949.963,0q2.361,0,4.714-.072l.028.949q-2.366.071-4.744.072m-6.671-.142c-1.893-.082-3.812-.2-5.7-.351l.074-.945c1.879.15,3.785.268,5.667.347Zm17.118-.209-.063-.947c1.876-.127,3.78-.29,5.655-.486l.1.944c-1.887.2-3.8.363-5.691.49m-28.5-.7c-1.887-.222-3.791-.482-5.659-.773l.144-.94c1.859.29,3.749.549,5.625.769Zm39.861-.488-.135-.94c1.859-.266,3.744-.569,5.6-.907l.169.934c-1.872.34-3.768.645-5.638.913m-51.144-1.268c-1.87-.364-3.749-.765-5.585-1.194l.215-.926c1.824.427,3.691.828,5.553,1.188Zm62.382-.769-.205-.926c1.851-.408,3.708-.854,5.519-1.325l.237.919c-1.821.475-3.689.923-5.551,1.333m-73.5-1.832c-1.819-.5-3.662-1.038-5.481-1.61l.287-.906c1.805.568,3.637,1.107,5.443,1.6Zm84.556-1.042-.275-.909c1.8-.541,3.626-1.126,5.424-1.741l.308.9c-1.811.619-3.647,1.207-5.456,1.752m-95.451-2.383c-1.788-.638-3.584-1.318-5.344-2.02l.353-.881c1.748.7,3.533,1.373,5.31,2.007Zm106.287-1.327-.342-.887c1.764-.68,3.539-1.4,5.272-2.145l.374.873c-1.745.748-3.531,1.475-5.3,2.159m-116.879-2.9c-1.737-.771-3.474-1.581-5.162-2.407l.416-.852c1.678.82,3.406,1.625,5.133,2.392Zm127.4-1.608-.408-.858c1.7-.8,3.408-1.655,5.093-2.533l.437.841c-1.693.885-3.419,1.741-5.122,2.55M87.739,294.1c-1.65-.883-3.324-1.823-4.972-2.787l.478-.82c1.64.961,3.3,1.893,4.942,2.772Zm147.78-1.889-.471-.824c1.633-.93,3.277-1.908,4.887-2.907l.5.807c-1.617,1-3.273,1.988-4.915,2.924M77.9,288.335c-1.581-1.006-3.182-2.065-4.754-3.151l.539-.782c1.564,1.08,3.153,2.134,4.723,3.132Zm167.335-2.155-.532-.79c1.553-1.044,3.119-2.141,4.653-3.26l.56.767c-1.545,1.124-3.119,2.229-4.682,3.282M68.513,281.856c-1.5-1.12-3.019-2.3-4.511-3.5l.6-.74c1.483,1.2,2.99,2.365,4.482,3.478Zm185.953-2.409-.587-.746c1.466-1.154,2.944-2.365,4.4-3.6l.615.723c-1.46,1.24-2.95,2.457-4.425,3.618M59.625,274.689c-1.428-1.242-2.855-2.529-4.237-3.823l.649-.695c1.374,1.289,2.791,2.569,4.211,3.8Zm203.55-2.643-.642-.7c1.386-1.268,2.77-2.584,4.114-3.911l.668.676c-1.354,1.337-2.749,2.66-4.14,3.935M51.3,266.885c-1.329-1.338-2.656-2.73-3.947-4.131l.7-.644c1.281,1.4,2.6,2.775,3.922,4.1ZM271.3,264.026l-.689-.651c1.262-1.342,2.546-2.757,3.812-4.2l.716.625c-1.274,1.454-2.565,2.878-3.839,4.23M43.56,258.477c-1.213-1.424-2.436-2.908-3.628-4.414l.746-.59c1.185,1.5,2.4,2.973,3.605,4.387Zm235.252-3.049-.737-.6c1.179-1.454,2.352-2.958,3.487-4.473l.759.57c-1.145,1.524-2.324,3.038-3.51,4.5m-242.34-5.912c-1.114-1.523-2.221-3.094-3.29-4.674l.786-.533c1.063,1.57,2.162,3.132,3.271,4.645ZM285.66,246.3l-.778-.541c1.067-1.542,2.124-3.127,3.142-4.718l.8.513c-1.025,1.6-2.09,3.2-3.165,4.746M30.07,240.047c-1-1.593-1.984-3.244-2.937-4.909l.824-.471c.947,1.654,1.927,3.3,2.918,4.879Zm261.737-3.353-.82-.482c.957-1.625,1.893-3.284,2.783-4.936l.835.45c-.894,1.661-1.836,3.332-2.8,4.968M24.382,230.122c-.879-1.678-1.741-3.4-2.561-5.12l.856-.406c.814,1.707,1.671,3.419,2.546,5.084Zm272.835-3.463-.854-.418c.845-1.712,1.652-3.438,2.4-5.126l.868.385c-.756,1.7-1.57,3.436-2.417,5.158M19.456,219.793c-.754-1.75-1.485-3.533-2.17-5.3l.887-.344c.68,1.756,1.4,3.527,2.155,5.266Zm282.4-3.535-.883-.355c.7-1.739,1.38-3.522,2.02-5.3l.892.319c-.646,1.792-1.327,3.59-2.029,5.338m-286.54-7.144c-.613-1.775-1.207-3.611-1.764-5.45l.907-.273c.552,1.828,1.145,3.651,1.754,5.414Zm290.4-3.605-.9-.287c.566-1.788,1.111-3.62,1.612-5.441l.917.253c-.507,1.832-1.054,3.675-1.625,5.475M12,198.168c-.477-1.811-.928-3.677-1.346-5.551l.928-.205c.412,1.859.864,3.715,1.338,5.515ZM308.752,194.5l-.925-.216c.427-1.813.832-3.679,1.2-5.549l.93.184c-.37,1.881-.776,3.759-1.206,5.581M9.523,187.022c-.342-1.857-.653-3.753-.926-5.638l.94-.135c.27,1.872.579,3.757.921,5.6ZM310.954,183.3l-.938-.148c.294-1.87.558-3.761.78-5.621l.942.112c-.224,1.874-.488,3.776-.784,5.657M7.883,175.719c-.2-1.876-.368-3.791-.5-5.69l.945-.065c.131,1.885.3,3.787.5,5.652Zm304.431-3.761-.945-.078c.152-1.855.273-3.759.361-5.665l.949.044c-.089,1.916-.211,3.833-.364,5.7M7.09,164.326c-.053-1.692-.082-3.394-.082-5.061l0-.645h.949l0,.649c0,1.654.028,3.347.082,5.027Zm305.739-3.78-.949-.008q.006-.635,0-1.272c0-1.893-.034-3.8-.1-5.676l.949-.036c.07,1.887.1,3.808.1,5.71q0,.641,0,1.281m-304.744-7.6-.949-.04c.08-1.9.194-3.818.342-5.7l.945.074c-.146,1.872-.26,3.778-.338,5.667m303.383-5.023c-.141-1.9-.317-3.8-.522-5.652l.942-.106c.207,1.86.385,3.774.526,5.688ZM8.967,141.63l-.942-.108c.216-1.874.473-3.776.761-5.659l.938.144c-.287,1.87-.543,3.763-.757,5.623m301.245-4.987c-.281-1.883-.6-3.766-.945-5.6l.934-.177c.347,1.843.666,3.738.949,5.633ZM10.691,130.414l-.93-.18c.363-1.883.761-3.763,1.185-5.585l.923.213c-.42,1.813-.814,3.681-1.177,5.553m297.425-4.925c-.421-1.86-.879-3.713-1.359-5.509l.915-.245c.484,1.807.945,3.672,1.371,5.545ZM13.252,119.358l-.915-.249c.5-1.823,1.033-3.666,1.6-5.483l.9.283c-.56,1.805-1.1,3.637-1.589,5.449m291.937-4.833c-.552-1.794-1.15-3.615-1.779-5.409l.9-.313c.63,1.805,1.232,3.635,1.788,5.443Zm-288.554-6-.894-.317c.628-1.777,1.3-3.575,2.007-5.346l.883.351c-.7,1.758-1.371,3.546-2,5.312m284.8-4.744c-.685-1.745-1.418-3.514-2.177-5.255l.871-.38c.763,1.752,1.5,3.531,2.189,5.289ZM20.817,97.991l-.868-.383c.759-1.722,1.566-3.459,2.4-5.168l.852.416c-.826,1.7-1.627,3.425-2.383,5.135m276.066-4.638c-.818-1.7-1.68-3.4-2.565-5.073l.839-.446c.888,1.684,1.758,3.4,2.582,5.107ZM25.77,87.81l-.837-.448c.894-1.673,1.83-3.349,2.779-4.978l.818.478c-.944,1.617-1.872,3.282-2.76,4.947m265.794-4.5c-.942-1.629-1.931-3.265-2.937-4.866l.8-.5c1.012,1.608,2.007,3.256,2.956,4.9ZM31.477,78.02l-.8-.507c1.027-1.619,2.084-3.222,3.144-4.761l.782.537c-1.054,1.532-2.1,3.123-3.125,4.731m254.039-4.33c-1.052-1.542-2.159-3.1-3.292-4.632l.763-.564c1.139,1.543,2.253,3.11,3.311,4.661ZM37.9,68.677l-.759-.568c1.124-1.513,2.3-3.032,3.487-4.514l.742.592c-1.183,1.475-2.35,2.984-3.47,4.49m240.867-4.125c-1.168-1.464-2.388-2.935-3.624-4.372l.72-.619c1.243,1.447,2.47,2.925,3.645,4.4ZM45,59.833l-.716-.621c1.249-1.443,2.534-2.87,3.818-4.245l.693.645C47.517,56.981,46.241,58.4,45,59.833m226.359-3.886c-1.287-1.39-2.612-2.764-3.939-4.089l.672-.672c1.333,1.333,2.667,2.717,3.964,4.116ZM52.743,51.536l-.67-.672c1.344-1.336,2.73-2.665,4.123-3.953l.645.7c-1.384,1.278-2.764,2.6-4.1,3.928m210.593-3.618c-1.373-1.274-2.8-2.548-4.23-3.784l.621-.72c1.443,1.243,2.874,2.525,4.254,3.806ZM61.079,43.833l-.615-.721c1.443-1.236,2.927-2.458,4.406-3.635l.589.742c-1.469,1.169-2.943,2.386-4.38,3.615M254.746,40.51c-1.467-1.173-2.981-2.337-4.5-3.459l.564-.763c1.526,1.13,3.047,2.3,4.524,3.48ZM69.971,36.77,69.409,36c1.53-1.124,3.1-2.234,4.668-3.3l.533.784c-1.559,1.059-3.119,2.162-4.64,3.282m175.658-3.009c-1.564-1.071-3.159-2.119-4.737-3.113l.5-.8c1.591,1,3.2,2.054,4.771,3.132ZM79.369,30.384l-.5-.8c1.616-1.01,3.265-2,4.9-2.944l.475.822c-1.629.938-3.271,1.923-4.873,2.927m156.678-2.669c-1.631-.945-3.3-1.872-4.953-2.751l.444-.839c1.667.885,3.343,1.817,4.983,2.768Zm-146.827-3-.44-.839c1.7-.894,3.417-1.76,5.111-2.57l.412.856c-1.684.807-3.393,1.665-5.082,2.553M226.04,22.4c-1.692-.82-3.421-1.617-5.143-2.371l.383-.869c1.73.759,3.47,1.561,5.175,2.386ZM99.473,19.8l-.38-.871c1.747-.759,3.529-1.492,5.295-2.181l.346.885c-1.756.683-3.525,1.414-5.261,2.168m116.2-1.944c-1.76-.695-3.55-1.363-5.318-1.984l.315-.9c1.777.626,3.579,1.3,5.352,2Zm-105.6-2.191-.313-.9c1.807-.625,3.639-1.223,5.449-1.775l.277.907c-1.8.549-3.618,1.143-5.412,1.766m94.893-1.576c-1.813-.562-3.649-1.092-5.45-1.578l.245-.917c1.815.488,3.66,1.023,5.486,1.589Zm-84.023-1.745-.241-.917c1.847-.488,3.713-.945,5.547-1.357l.207.926c-1.821.41-3.675.864-5.513,1.348m73.063-1.2c-1.83-.42-3.7-.813-5.555-1.166l.177-.932c1.868.355,3.749.75,5.591,1.171ZM132.02,9.855l-.175-.932c1.868-.347,3.765-.663,5.636-.938l.137.94c-1.86.273-3.744.587-5.6.93m50.842-.835c-1.864-.283-3.757-.533-5.629-.744l.108-.944c1.881.213,3.787.465,5.663.75ZM143.247,8.2l-.1-.944c1.866-.205,3.78-.378,5.69-.514l.066.947c-1.9.135-3.8.308-5.652.511m28.338-.463c-1.872-.142-3.78-.251-5.669-.325l.036-.949c1.9.074,3.822.184,5.7.327Zm-17.018-.349-.034-.949c1.8-.061,3.613-.093,5.386-.093l.323,0V7.3l-.327,0c-1.76,0-3.561.032-5.348.093" transform="translate(6.296 5.705)" fill="#a7a8aa"/><path d="M164.539,326.551c-89.7,0-162.671-72.972-162.671-162.667S74.842,1.211,164.539,1.211,327.208,74.185,327.208,163.884,254.234,326.551,164.539,326.551m0-323.442C75.89,3.109,3.766,75.233,3.766,163.884S75.89,324.652,164.539,324.652s160.771-72.121,160.771-160.769S253.186,3.109,164.539,3.109" transform="translate(1.678 1.088)" fill="#a7a8aa"/><path d="M154.981,296.8c-78.561,0-142.475-63.913-142.475-142.473S76.42,11.849,154.981,11.849,297.455,75.763,297.455,154.324,233.542,296.8,154.981,296.8m0-283.05C77.467,13.747,14.4,76.81,14.4,154.324S77.467,294.9,154.981,294.9s140.575-63.062,140.575-140.575S232.494,13.747,154.981,13.747" transform="translate(11.236 10.646)" fill="#a7a8aa"/><path d="M146.442,92.912l-3.26,32.759h19.542V92.912Z" transform="translate(128.64 83.475)" fill="#2a3444"/><path d="M169.771,92.912H153.477v32.759H173.03Z" transform="translate(137.888 83.475)" fill="#373f51"/><rect width="24.302" height="2.85" transform="translate(267.064 209.146)" fill="#373f51"/><rect width="24.308" height="2.85" transform="translate(291.364 209.146)" fill="#2a3444"/><path d="M201.543,67.785H153.477v70.369h48.066a4.76,4.76,0,0,0,4.75-4.748V72.535a4.76,4.76,0,0,0-4.75-4.75" transform="translate(137.889 60.9)" fill="#2a3444"/><path d="M130.4,67.785a4.76,4.76,0,0,0-4.748,4.75v60.871a4.76,4.76,0,0,0,4.748,4.748h48.064V67.785Z" transform="translate(112.894 60.9)" fill="#373f51"/><path d="M130.514,70.448a2.851,2.851,0,0,0-2.848,2.851v50.946a2.858,2.858,0,0,0,2.848,2.855h46.151V70.448Z" transform="translate(114.699 63.293)" fill="#6283cc"/><path d="M199.627,70.448H153.476V127.1h46.151a2.866,2.866,0,0,0,2.853-2.855V73.3a2.859,2.859,0,0,0-2.853-2.851" transform="translate(137.888 63.293)" fill="#5573c6"/><rect width="42.804" height="47.117" transform="translate(248.565 138.804)" fill="#fff"/><path d="M131.821,80.2l1.414-.4-1.414-.328v-1.3l2.863.995v1.295L131.821,81.5Z" transform="translate(118.432 70.23)" fill="#4adbd1"/><path d="M131.821,91.6l1.414-.406-1.414-.327v-1.3l2.863.993v1.3l-2.863,1.038Z" transform="translate(118.432 80.468)" fill="#4adbd1"/><path d="M131.821,95.394l1.414-.406-1.414-.325v-1.3l2.863.995v1.295l-2.863,1.04Z" transform="translate(118.432 83.88)" fill="#4adbd1"/><rect width="41.659" height="47.117" transform="translate(291.369 138.802)" fill="#e0e0e0"/><rect width="58.045" height="3.436" transform="translate(255.115 148.345)" fill="#373f51"/><rect width="56.571" height="3.438" transform="translate(255.115 177.19)" fill="#373f51"/><rect width="71.36" height="3.438" transform="translate(255.077 169.978)" fill="#373f51"/><rect width="42.804" height="5.168" transform="translate(248.565 138.804)" fill="#373f51"/><rect width="41.659" height="5.168" transform="translate(291.369 138.802)" fill="#2a3444"/><rect width="2.608" height="2.436" transform="translate(328.427 140.169)" fill="#fff"/><rect width="2.608" height="2.436" transform="translate(322.959 140.169)" fill="#fff"/><path d="M138.288,85.022,144.1,83v2.637l-2.869.668,2.869.82v2.639l-5.817-2.109Z" transform="translate(124.242 74.574)" fill="#4adbd1"/><path d="M146.029,81.338h3.087L144.759,94.4h-3.087Z" transform="translate(127.282 73.076)" fill="#4adbd1"/><path d="M148.627,83.251a10.273,10.273,0,0,1,4,.558v1.769s-.928-.093-2.308-.093c-1.056,0-1.4-.032-1.4,1.986,0,1.893.281,1.938,1.4,1.938a21.391,21.391,0,0,0,2.42-.125v1.767c-1.164.826-2.823.577-4.112.59-1.536,0-2.715-.976-2.715-4.2s1.131-4.188,2.715-4.188" transform="translate(131.092 74.793)" fill="#4adbd1"/><path d="M153.615,83.25c2.886,0,3.861,1.04,3.861,4.311,0,3.056-.9,4.08-3.861,4.08-2.9,0-3.863-1.131-3.863-4.08,0-3.366,1.01-4.311,3.863-4.311m0,6.159c.852,0,.852-.125.852-1.847,0-1.785.015-2.077-.852-2.077-.917,0-.854.309-.854,2.077,0,1.631.065,1.847.854,1.847" transform="translate(134.542 74.794)" fill="#4adbd1"/><path d="M156.945,85.031a4.675,4.675,0,0,1,2.048.465V81.215H162V93.392H159.43l-.452-.761a2.847,2.847,0,0,1-2.033.854c-1.843,0-2.665-1.056-2.665-4.173,0-3.056.433-4.281,2.665-4.281m1.025,6.018c.482,0,.852-.076,1.008-.34v-3.29a1.641,1.641,0,0,0-1.008-.234c-.435,0-.682.22-.682,1.971,0,1.692.232,1.893.682,1.893" transform="translate(138.61 72.966)" fill="#4adbd1"/><path d="M162.445,83.258c2.745,0,3.77.342,3.77,3.07,0,1.691-.947,2.2-2.438,2.2h-1.921c0,1.116.729.883,1.878.883a10.869,10.869,0,0,0,2.324-.171V91.2c-1.084.494-3.208.433-4.5.433-2.094,0-2.715-1.38-2.715-4.233,0-3.429.932-4.142,3.6-4.142m.309,3.366a.453.453,0,0,0,.45-.5c0-.556-.013-.79-.543-.79-.651,0-.837.106-.8,1.287Z" transform="translate(142.712 74.802)" fill="#4adbd1"/><path d="M163.137,87.131l2.868-.822-2.868-.666V83l5.815,2.02v2.635l-5.815,2.111Z" transform="translate(146.567 74.573)" fill="#4adbd1"/><rect width="40.144" height="87.292" transform="translate(190.73 2.43)" fill="#fff"/><rect width="40.144" height="87.292" transform="translate(230.876 2.43)" fill="#e1edf7"/><rect width="40.144" height="7.003" transform="translate(190.73 2.43)" fill="#373f51"/><rect width="40.144" height="7.003" transform="translate(230.876 2.43)" fill="#2a3444"/><rect width="3.567" height="3.567" transform="translate(258.246 4.148)" fill="#fff"/><rect width="3.565" height="3.567" transform="translate(264.043 4.148)" fill="#fff"/><path d="M103.291,6.814a.951.951,0,1,1-.951-.953.95.95,0,0,1,.951.953" transform="translate(91.091 5.266)" fill="#e1edf7"/><path d="M105.922,6.814a.952.952,0,1,1-.953-.953.952.952,0,0,1,.953.953" transform="translate(93.453 5.266)" fill="#e1edf7"/><path d="M108.549,6.814a.951.951,0,1,1-.949-.953.95.95,0,0,1,.949.953" transform="translate(95.815 5.266)" fill="#e1edf7"/><path d="M111.183,6.814a.953.953,0,1,1-.955-.953.954.954,0,0,1,.955.953" transform="translate(98.178 5.266)" fill="#e1edf7"/><path d="M113.81,6.814a.951.951,0,1,1-.953-.953.952.952,0,0,1,.953.953" transform="translate(100.542 5.266)" fill="#e1edf7"/><path d="M116.44,6.814a.951.951,0,1,1-.951-.953.95.95,0,0,1,.951.953" transform="translate(102.905 5.266)" fill="#e1edf7"/><path d="M119.071,6.814a.952.952,0,1,1-.953-.953.953.953,0,0,1,.953.953" transform="translate(105.267 5.266)" fill="#e1edf7"/><path d="M121.7,6.814a.952.952,0,1,1-.951-.953.952.952,0,0,1,.951.953" transform="translate(107.629 5.266)" fill="#e1edf7"/><path d="M124.329,6.814a.951.951,0,1,1-.951-.953.952.952,0,0,1,.951.953" transform="translate(109.992 5.266)" fill="#fff"/><path d="M126.959,6.814a.951.951,0,1,1-.951-.953.95.95,0,0,1,.951.953" transform="translate(112.355 5.266)" fill="#fff"/><path d="M129.589,6.814a.951.951,0,1,1-.949-.953.95.95,0,0,1,.949.953" transform="translate(114.718 5.266)" fill="#fff"/><path d="M132.22,6.814a.952.952,0,1,1-.953-.953.952.952,0,0,1,.953.953" transform="translate(117.08 5.266)" fill="#fff"/><path d="M134.85,6.814a.952.952,0,1,1-.951-.953.952.952,0,0,1,.951.953" transform="translate(119.443 5.266)" fill="#fff"/><path d="M137.478,6.814a.951.951,0,1,1-.951-.953.95.95,0,0,1,.951.953" transform="translate(121.806 5.266)" fill="#fff"/><path d="M140.108,6.814a.951.951,0,1,1-.949-.953.95.95,0,0,1,.949.953" transform="translate(124.169 5.266)" fill="#fff"/><path d="M142.74,6.814a.952.952,0,1,1-.953-.953.952.952,0,0,1,.953.953" transform="translate(126.532 5.266)" fill="#fff"/><path d="M103.291,9.444a.951.951,0,1,1-.951-.953.949.949,0,0,1,.951.953" transform="translate(91.091 7.629)" fill="#e1edf7"/><path d="M105.922,9.444a.952.952,0,1,1-.953-.953.95.95,0,0,1,.953.953" transform="translate(93.453 7.629)" fill="#e1edf7"/><path d="M108.549,9.444a.951.951,0,1,1-.949-.953.948.948,0,0,1,.949.953" transform="translate(95.815 7.629)" fill="#e1edf7"/><path d="M111.183,9.444a.953.953,0,1,1-.955-.953.952.952,0,0,1,.955.953" transform="translate(98.178 7.629)" fill="#e1edf7"/><path d="M113.81,9.444a.951.951,0,1,1-.953-.953.95.95,0,0,1,.953.953" transform="translate(100.542 7.629)" fill="#e1edf7"/><path d="M116.44,9.444a.951.951,0,1,1-.951-.953.949.949,0,0,1,.951.953" transform="translate(102.905 7.629)" fill="#e1edf7"/><path d="M119.071,9.444a.952.952,0,1,1-.953-.953.952.952,0,0,1,.953.953" transform="translate(105.267 7.629)" fill="#e1edf7"/><path d="M121.7,9.444a.952.952,0,1,1-.951-.953.95.95,0,0,1,.951.953" transform="translate(107.629 7.629)" fill="#e1edf7"/><path d="M124.329,9.444a.951.951,0,1,1-.951-.953.95.95,0,0,1,.951.953" transform="translate(109.992 7.629)" fill="#fff"/><path d="M126.959,9.444a.951.951,0,1,1-.951-.953.949.949,0,0,1,.951.953" transform="translate(112.355 7.629)" fill="#fff"/><path d="M129.589,9.444a.951.951,0,1,1-.949-.953.948.948,0,0,1,.949.953" transform="translate(114.718 7.629)" fill="#fff"/><path d="M132.22,9.444a.952.952,0,1,1-.953-.953.95.95,0,0,1,.953.953" transform="translate(117.08 7.629)" fill="#fff"/><path d="M134.85,9.444a.952.952,0,1,1-.951-.953.95.95,0,0,1,.951.953" transform="translate(119.443 7.629)" fill="#fff"/><path d="M137.478,9.444a.951.951,0,1,1-.951-.953.949.949,0,0,1,.951.953" transform="translate(121.806 7.629)" fill="#fff"/><path d="M140.108,9.444a.951.951,0,1,1-.949-.953.948.948,0,0,1,.949.953" transform="translate(124.169 7.629)" fill="#fff"/><path d="M142.74,9.444a.952.952,0,1,1-.953-.953.95.95,0,0,1,.953.953" transform="translate(126.532 7.629)" fill="#fff"/><path d="M103.291,12.073a.951.951,0,1,1-.951-.951.953.953,0,0,1,.951.951" transform="translate(91.091 9.992)" fill="#e1edf7"/><path d="M105.922,12.073a.952.952,0,1,1-.953-.951.955.955,0,0,1,.953.951" transform="translate(93.453 9.992)" fill="#e1edf7"/><path d="M108.549,12.073a.951.951,0,1,1-.949-.951.953.953,0,0,1,.949.951" transform="translate(95.815 9.992)" fill="#e1edf7"/><path d="M111.183,12.073a.953.953,0,1,1-.955-.951.956.956,0,0,1,.955.951" transform="translate(98.178 9.992)" fill="#e1edf7"/><path d="M113.81,12.073a.951.951,0,1,1-.953-.951.955.955,0,0,1,.953.951" transform="translate(100.542 9.992)" fill="#e1edf7"/><path d="M116.44,12.073a.951.951,0,1,1-.951-.951.953.953,0,0,1,.951.951" transform="translate(102.905 9.992)" fill="#e1edf7"/><path d="M119.071,12.073a.952.952,0,1,1-.953-.951.956.956,0,0,1,.953.951" transform="translate(105.267 9.992)" fill="#e1edf7"/><path d="M121.7,12.073a.952.952,0,1,1-.951-.951.954.954,0,0,1,.951.951" transform="translate(107.629 9.992)" fill="#e1edf7"/><path d="M124.329,12.073a.951.951,0,1,1-.951-.951.954.954,0,0,1,.951.951" transform="translate(109.992 9.992)" fill="#fff"/><path d="M126.959,12.073a.951.951,0,1,1-.951-.951.953.953,0,0,1,.951.951" transform="translate(112.355 9.992)" fill="#fff"/><path d="M129.589,12.073a.951.951,0,1,1-.949-.951.953.953,0,0,1,.949.951" transform="translate(114.718 9.992)" fill="#fff"/><path d="M132.22,12.073a.952.952,0,1,1-.953-.951.955.955,0,0,1,.953.951" transform="translate(117.08 9.992)" fill="#fff"/><path d="M134.85,12.073a.952.952,0,1,1-.951-.951.954.954,0,0,1,.951.951" transform="translate(119.443 9.992)" fill="#fff"/><path d="M137.478,12.073a.951.951,0,1,1-.951-.951.953.953,0,0,1,.951.951" transform="translate(121.806 9.992)" fill="#fff"/><path d="M140.108,12.073a.951.951,0,1,1-.949-.951.953.953,0,0,1,.949.951" transform="translate(124.169 9.992)" fill="#fff"/><path d="M142.74,12.073a.952.952,0,1,1-.953-.951.955.955,0,0,1,.953.951" transform="translate(126.532 9.992)" fill="#fff"/><path d="M103.291,14.7a.951.951,0,1,1-.951-.953.952.952,0,0,1,.951.953" transform="translate(91.091 12.354)" fill="#e1edf7"/><path d="M105.922,14.7a.952.952,0,1,1-.953-.953.953.953,0,0,1,.953.953" transform="translate(93.453 12.354)" fill="#e1edf7"/><path d="M108.549,14.7a.951.951,0,1,1-.949-.953.951.951,0,0,1,.949.953" transform="translate(95.815 12.354)" fill="#e1edf7"/><path d="M111.183,14.7a.953.953,0,1,1-.955-.953.955.955,0,0,1,.955.953" transform="translate(98.178 12.354)" fill="#e1edf7"/><path d="M113.81,14.7a.951.951,0,1,1-.953-.953.953.953,0,0,1,.953.953" transform="translate(100.542 12.354)" fill="#e1edf7"/><path d="M116.44,14.7a.951.951,0,1,1-.951-.953.952.952,0,0,1,.951.953" transform="translate(102.905 12.354)" fill="#e1edf7"/><path d="M119.071,14.7a.952.952,0,1,1-.953-.953.954.954,0,0,1,.953.953" transform="translate(105.267 12.354)" fill="#e1edf7"/><path d="M121.7,14.7a.952.952,0,1,1-.951-.953.953.953,0,0,1,.951.953" transform="translate(107.629 12.354)" fill="#e1edf7"/><path d="M124.329,14.7a.951.951,0,1,1-.951-.953.953.953,0,0,1,.951.953" transform="translate(109.992 12.354)" fill="#fff"/><path d="M126.959,14.7a.951.951,0,1,1-.951-.953.952.952,0,0,1,.951.953" transform="translate(112.355 12.354)" fill="#fff"/><path d="M129.589,14.7a.951.951,0,1,1-.949-.953.951.951,0,0,1,.949.953" transform="translate(114.718 12.354)" fill="#fff"/><path d="M132.22,14.7a.952.952,0,1,1-.953-.953.953.953,0,0,1,.953.953" transform="translate(117.08 12.354)" fill="#fff"/><path d="M134.85,14.7a.952.952,0,1,1-.951-.953.953.953,0,0,1,.951.953" transform="translate(119.443 12.354)" fill="#fff"/><path d="M137.478,14.7a.951.951,0,1,1-.951-.953.952.952,0,0,1,.951.953" transform="translate(121.806 12.354)" fill="#fff"/><path d="M140.108,14.7a.951.951,0,1,1-.949-.953.951.951,0,0,1,.949.953" transform="translate(124.169 12.354)" fill="#fff"/><path d="M142.74,14.7a.952.952,0,1,1-.953-.953.953.953,0,0,1,.953.953" transform="translate(126.532 12.354)" fill="#fff"/><path d="M103.291,17.332a.951.951,0,1,1-.951-.951.949.949,0,0,1,.951.951" transform="translate(91.091 14.717)" fill="#e1edf7"/><path d="M105.922,17.332a.952.952,0,1,1-.953-.951.951.951,0,0,1,.953.951" transform="translate(93.453 14.717)" fill="#e1edf7"/><path d="M108.549,17.332a.951.951,0,1,1-.949-.951.949.949,0,0,1,.949.951" transform="translate(95.815 14.717)" fill="#e1edf7"/><path d="M111.183,17.332a.953.953,0,1,1-.955-.951.952.952,0,0,1,.955.951" transform="translate(98.178 14.717)" fill="#e1edf7"/><path d="M113.81,17.332a.951.951,0,1,1-.953-.951.951.951,0,0,1,.953.951" transform="translate(100.542 14.717)" fill="#e1edf7"/><path d="M116.44,17.332a.951.951,0,1,1-.951-.951.949.949,0,0,1,.951.951" transform="translate(102.905 14.717)" fill="#e1edf7"/><path d="M119.071,17.332a.952.952,0,1,1-.953-.951.952.952,0,0,1,.953.951" transform="translate(105.267 14.717)" fill="#e1edf7"/><path d="M121.7,17.332a.952.952,0,1,1-.951-.951.95.95,0,0,1,.951.951" transform="translate(107.629 14.717)" fill="#e1edf7"/><path d="M124.329,17.332a.951.951,0,1,1-.951-.951.95.95,0,0,1,.951.951" transform="translate(109.992 14.717)" fill="#fff"/><path d="M126.959,17.332a.951.951,0,1,1-.951-.951.949.949,0,0,1,.951.951" transform="translate(112.355 14.717)" fill="#fff"/><path d="M129.589,17.332a.951.951,0,1,1-.949-.951.949.949,0,0,1,.949.951" transform="translate(114.718 14.717)" fill="#fff"/><path d="M132.22,17.332a.952.952,0,1,1-.953-.951.951.951,0,0,1,.953.951" transform="translate(117.08 14.717)" fill="#fff"/><path d="M134.85,17.332a.952.952,0,1,1-.951-.951.95.95,0,0,1,.951.951" transform="translate(119.443 14.717)" fill="#fff"/><path d="M137.478,17.332a.951.951,0,1,1-.951-.951.949.949,0,0,1,.951.951" transform="translate(121.806 14.717)" fill="#fff"/><path d="M140.108,17.332a.951.951,0,1,1-.949-.951.949.949,0,0,1,.949.951" transform="translate(124.169 14.717)" fill="#fff"/><path d="M142.74,17.332a.952.952,0,1,1-.953-.951.951.951,0,0,1,.953.951" transform="translate(126.532 14.717)" fill="#fff"/><path d="M103.291,19.963a.951.951,0,1,1-.951-.953.953.953,0,0,1,.951.953" transform="translate(91.091 17.079)" fill="#e1edf7"/><path d="M105.922,19.963a.952.952,0,1,1-.953-.953.955.955,0,0,1,.953.953" transform="translate(93.453 17.079)" fill="#e1edf7"/><path d="M108.549,19.963a.951.951,0,1,1-.949-.953.953.953,0,0,1,.949.953" transform="translate(95.815 17.079)" fill="#e1edf7"/><path d="M111.183,19.963a.953.953,0,1,1-.955-.953.956.956,0,0,1,.955.953" transform="translate(98.178 17.079)" fill="#e1edf7"/><path d="M113.81,19.963a.951.951,0,1,1-.953-.953.955.955,0,0,1,.953.953" transform="translate(100.542 17.079)" fill="#e1edf7"/><path d="M116.44,19.963a.951.951,0,1,1-.951-.953.953.953,0,0,1,.951.953" transform="translate(102.905 17.079)" fill="#e1edf7"/><path d="M119.071,19.963a.952.952,0,1,1-.953-.953.956.956,0,0,1,.953.953" transform="translate(105.267 17.079)" fill="#e1edf7"/><path d="M121.7,19.963a.952.952,0,1,1-.951-.953.954.954,0,0,1,.951.953" transform="translate(107.629 17.079)" fill="#e1edf7"/><path d="M124.329,19.963a.951.951,0,1,1-.951-.953.954.954,0,0,1,.951.953" transform="translate(109.992 17.079)" fill="#fff"/><path d="M126.959,19.963a.951.951,0,1,1-.951-.953.953.953,0,0,1,.951.953" transform="translate(112.355 17.079)" fill="#fff"/><path d="M129.589,19.963a.951.951,0,1,1-.949-.953.953.953,0,0,1,.949.953" transform="translate(114.718 17.079)" fill="#fff"/><path d="M132.22,19.963a.952.952,0,1,1-.953-.953.955.955,0,0,1,.953.953" transform="translate(117.08 17.079)" fill="#fff"/><path d="M134.85,19.963a.952.952,0,1,1-.951-.953.954.954,0,0,1,.951.953" transform="translate(119.443 17.079)" fill="#fff"/><path d="M137.478,19.963a.951.951,0,1,1-.951-.953.953.953,0,0,1,.951.953" transform="translate(121.806 17.079)" fill="#fff"/><path d="M140.108,19.963a.951.951,0,1,1-.949-.953.953.953,0,0,1,.949.953" transform="translate(124.169 17.079)" fill="#fff"/><path d="M142.74,19.963a.952.952,0,1,1-.953-.953.955.955,0,0,1,.953.953" transform="translate(126.532 17.079)" fill="#fff"/><path d="M103.291,22.592a.951.951,0,1,1-.951-.951.95.95,0,0,1,.951.951" transform="translate(91.091 19.443)" fill="#e1edf7"/><path d="M105.922,22.592a.952.952,0,1,1-.953-.951.952.952,0,0,1,.953.951" transform="translate(93.453 19.443)" fill="#e1edf7"/><path d="M108.549,22.592a.951.951,0,1,1-.949-.951.95.95,0,0,1,.949.951" transform="translate(95.815 19.443)" fill="#e1edf7"/><path d="M111.183,22.592a.953.953,0,1,1-.955-.951.954.954,0,0,1,.955.951" transform="translate(98.178 19.443)" fill="#e1edf7"/><path d="M113.81,22.592a.951.951,0,1,1-.953-.951.952.952,0,0,1,.953.951" transform="translate(100.542 19.443)" fill="#e1edf7"/><path d="M116.44,22.592a.951.951,0,1,1-.951-.951.95.95,0,0,1,.951.951" transform="translate(102.905 19.443)" fill="#e1edf7"/><path d="M119.071,22.592a.952.952,0,1,1-.953-.951.953.953,0,0,1,.953.951" transform="translate(105.267 19.443)" fill="#e1edf7"/><path d="M121.7,22.592a.952.952,0,1,1-.951-.951.952.952,0,0,1,.951.951" transform="translate(107.629 19.443)" fill="#e1edf7"/><path d="M124.329,22.592a.951.951,0,1,1-.951-.951.952.952,0,0,1,.951.951" transform="translate(109.992 19.443)" fill="#fff"/><path d="M126.959,22.592a.951.951,0,1,1-.951-.951.95.95,0,0,1,.951.951" transform="translate(112.355 19.443)" fill="#fff"/><path d="M129.589,22.592a.951.951,0,1,1-.949-.951.95.95,0,0,1,.949.951" transform="translate(114.718 19.443)" fill="#fff"/><path d="M132.22,22.592a.952.952,0,1,1-.953-.951.952.952,0,0,1,.953.951" transform="translate(117.08 19.443)" fill="#fff"/><path d="M134.85,22.592a.952.952,0,1,1-.951-.951.952.952,0,0,1,.951.951" transform="translate(119.443 19.443)" fill="#fff"/><path d="M137.478,22.592a.951.951,0,1,1-.951-.951.95.95,0,0,1,.951.951" transform="translate(121.806 19.443)" fill="#fff"/><path d="M140.108,22.592a.951.951,0,1,1-.949-.951.95.95,0,0,1,.949.951" transform="translate(124.169 19.443)" fill="#fff"/><path d="M142.74,22.592a.952.952,0,1,1-.953-.951.952.952,0,0,1,.953.951" transform="translate(126.532 19.443)" fill="#fff"/><path d="M103.291,25.222a.951.951,0,1,1-.951-.951.952.952,0,0,1,.951.951" transform="translate(91.091 21.806)" fill="#e1edf7"/><path d="M105.922,25.222a.952.952,0,1,1-.953-.951.954.954,0,0,1,.953.951" transform="translate(93.453 21.806)" fill="#e1edf7"/><path d="M108.549,25.222a.951.951,0,1,1-.949-.951.952.952,0,0,1,.949.951" transform="translate(95.815 21.806)" fill="#e1edf7"/><path d="M111.183,25.222a.953.953,0,1,1-.955-.951.955.955,0,0,1,.955.951" transform="translate(98.178 21.806)" fill="#e1edf7"/><path d="M113.81,25.222a.951.951,0,1,1-.953-.951.954.954,0,0,1,.953.951" transform="translate(100.542 21.806)" fill="#e1edf7"/><path d="M116.44,25.222a.951.951,0,1,1-.951-.951.952.952,0,0,1,.951.951" transform="translate(102.905 21.806)" fill="#e1edf7"/><path d="M119.071,25.222a.952.952,0,1,1-.953-.951.955.955,0,0,1,.953.951" transform="translate(105.267 21.806)" fill="#e1edf7"/><path d="M121.7,25.222a.952.952,0,1,1-.951-.951.953.953,0,0,1,.951.951" transform="translate(107.629 21.806)" fill="#e1edf7"/><path d="M124.329,25.222a.951.951,0,1,1-.951-.951.953.953,0,0,1,.951.951" transform="translate(109.992 21.806)" fill="#fff"/><path d="M126.959,25.222a.951.951,0,1,1-.951-.951.952.952,0,0,1,.951.951" transform="translate(112.355 21.806)" fill="#fff"/><path d="M129.589,25.222a.951.951,0,1,1-.949-.951.952.952,0,0,1,.949.951" transform="translate(114.718 21.806)" fill="#fff"/><path d="M132.22,25.222a.952.952,0,1,1-.953-.951.954.954,0,0,1,.953.951" transform="translate(117.08 21.806)" fill="#fff"/><path d="M134.85,25.222a.952.952,0,1,1-.951-.951.953.953,0,0,1,.951.951" transform="translate(119.443 21.806)" fill="#fff"/><path d="M137.478,25.222a.951.951,0,1,1-.951-.951.952.952,0,0,1,.951.951" transform="translate(121.806 21.806)" fill="#fff"/><path d="M140.108,25.222a.951.951,0,1,1-.949-.951.952.952,0,0,1,.949.951" transform="translate(124.169 21.806)" fill="#fff"/><path d="M142.74,25.222a.952.952,0,1,1-.953-.951.954.954,0,0,1,.953.951" transform="translate(126.532 21.806)" fill="#fff"/><path d="M103.291,27.851a.951.951,0,1,1-.951-.951.951.951,0,0,1,.951.951" transform="translate(91.091 24.168)" fill="#e1edf7"/><path d="M105.922,27.851a.952.952,0,1,1-.953-.951.952.952,0,0,1,.953.951" transform="translate(93.453 24.168)" fill="#e1edf7"/><path d="M108.549,27.851a.951.951,0,1,1-.949-.951.95.95,0,0,1,.949.951" transform="translate(95.815 24.168)" fill="#e1edf7"/><path d="M111.183,27.851a.953.953,0,1,1-.955-.951.954.954,0,0,1,.955.951" transform="translate(98.178 24.168)" fill="#e1edf7"/><path d="M113.81,27.851a.951.951,0,1,1-.953-.951.952.952,0,0,1,.953.951" transform="translate(100.542 24.168)" fill="#e1edf7"/><path d="M116.44,27.851a.951.951,0,1,1-.951-.951.951.951,0,0,1,.951.951" transform="translate(102.905 24.168)" fill="#e1edf7"/><path d="M119.071,27.851a.952.952,0,1,1-.953-.951.954.954,0,0,1,.953.951" transform="translate(105.267 24.168)" fill="#e1edf7"/><path d="M121.7,27.851a.952.952,0,1,1-.951-.951.952.952,0,0,1,.951.951" transform="translate(107.629 24.168)" fill="#e1edf7"/><path d="M124.329,27.851a.951.951,0,1,1-.951-.951.952.952,0,0,1,.951.951" transform="translate(109.992 24.168)" fill="#fff"/><path d="M126.959,27.851a.951.951,0,1,1-.951-.951.951.951,0,0,1,.951.951" transform="translate(112.355 24.168)" fill="#fff"/><path d="M129.589,27.851a.951.951,0,1,1-.949-.951.95.95,0,0,1,.949.951" transform="translate(114.718 24.168)" fill="#fff"/><path d="M132.22,27.851a.952.952,0,1,1-.953-.951.952.952,0,0,1,.953.951" transform="translate(117.08 24.168)" fill="#fff"/><path d="M134.85,27.851a.952.952,0,1,1-.951-.951.952.952,0,0,1,.951.951" transform="translate(119.443 24.168)" fill="#fff"/><path d="M137.478,27.851a.951.951,0,1,1-.951-.951.951.951,0,0,1,.951.951" transform="translate(121.806 24.168)" fill="#fff"/><path d="M140.108,27.851a.951.951,0,1,1-.949-.951.95.95,0,0,1,.949.951" transform="translate(124.169 24.168)" fill="#fff"/><path d="M142.74,27.851a.952.952,0,1,1-.953-.951.952.952,0,0,1,.953.951" transform="translate(126.532 24.168)" fill="#fff"/><path d="M103.291,30.484a.951.951,0,1,1-.951-.953.951.951,0,0,1,.951.953" transform="translate(91.091 26.532)" fill="#e1edf7"/><path d="M105.922,30.484a.952.952,0,1,1-.953-.953.953.953,0,0,1,.953.953" transform="translate(93.453 26.532)" fill="#e1edf7"/><path d="M108.549,30.484a.951.951,0,1,1-.949-.953.951.951,0,0,1,.949.953" transform="translate(95.815 26.532)" fill="#e1edf7"/><path d="M111.183,30.484a.953.953,0,1,1-.955-.953.954.954,0,0,1,.955.953" transform="translate(98.178 26.532)" fill="#e1edf7"/><path d="M113.81,30.484a.951.951,0,1,1-.953-.953.953.953,0,0,1,.953.953" transform="translate(100.542 26.532)" fill="#e1edf7"/><path d="M116.44,30.484a.951.951,0,1,1-.951-.953.951.951,0,0,1,.951.953" transform="translate(102.905 26.532)" fill="#e1edf7"/><path d="M119.071,30.484a.952.952,0,1,1-.953-.953.954.954,0,0,1,.953.953" transform="translate(105.267 26.532)" fill="#e1edf7"/><path d="M121.7,30.484a.952.952,0,1,1-.951-.953.952.952,0,0,1,.951.953" transform="translate(107.629 26.532)" fill="#e1edf7"/><path d="M124.329,30.484a.951.951,0,1,1-.951-.953.952.952,0,0,1,.951.953" transform="translate(109.992 26.532)" fill="#fff"/><path d="M126.959,30.484a.951.951,0,1,1-.951-.953.951.951,0,0,1,.951.953" transform="translate(112.355 26.532)" fill="#fff"/><path d="M129.589,30.484a.951.951,0,1,1-.949-.953.951.951,0,0,1,.949.953" transform="translate(114.718 26.532)" fill="#fff"/><path d="M132.22,30.484a.952.952,0,1,1-.953-.953.953.953,0,0,1,.953.953" transform="translate(117.08 26.532)" fill="#fff"/><path d="M134.85,30.484a.952.952,0,1,1-.951-.953.952.952,0,0,1,.951.953" transform="translate(119.443 26.532)" fill="#fff"/><path d="M137.478,30.484a.951.951,0,1,1-.951-.953.951.951,0,0,1,.951.953" transform="translate(121.806 26.532)" fill="#fff"/><path d="M140.108,30.484a.951.951,0,1,1-.949-.953.951.951,0,0,1,.949.953" transform="translate(124.169 26.532)" fill="#fff"/><path d="M142.74,30.484a.952.952,0,1,1-.953-.953.953.953,0,0,1,.953.953" transform="translate(126.532 26.532)" fill="#fff"/><path d="M103.291,33.111a.951.951,0,1,1-.951-.951.952.952,0,0,1,.951.951" transform="translate(91.091 28.894)" fill="#e1edf7"/><path d="M105.922,33.111a.952.952,0,1,1-.953-.951.954.954,0,0,1,.953.951" transform="translate(93.453 28.894)" fill="#e1edf7"/><path d="M108.549,33.111a.951.951,0,1,1-.949-.951.952.952,0,0,1,.949.951" transform="translate(95.815 28.894)" fill="#e1edf7"/><path d="M111.183,33.111a.953.953,0,1,1-.955-.951.955.955,0,0,1,.955.951" transform="translate(98.178 28.894)" fill="#e1edf7"/><path d="M113.81,33.111a.951.951,0,1,1-.953-.951.954.954,0,0,1,.953.951" transform="translate(100.542 28.894)" fill="#e1edf7"/><path d="M116.44,33.111a.951.951,0,1,1-.951-.951.952.952,0,0,1,.951.951" transform="translate(102.905 28.894)" fill="#e1edf7"/><path d="M119.071,33.111a.952.952,0,1,1-.953-.951.955.955,0,0,1,.953.951" transform="translate(105.267 28.894)" fill="#e1edf7"/><path d="M121.7,33.111a.952.952,0,1,1-.951-.951.953.953,0,0,1,.951.951" transform="translate(107.629 28.894)" fill="#e1edf7"/><path d="M124.329,33.111a.951.951,0,1,1-.951-.951.953.953,0,0,1,.951.951" transform="translate(109.992 28.894)" fill="#fff"/><path d="M126.959,33.111a.951.951,0,1,1-.951-.951.952.952,0,0,1,.951.951" transform="translate(112.355 28.894)" fill="#fff"/><path d="M129.589,33.111a.951.951,0,1,1-.949-.951.952.952,0,0,1,.949.951" transform="translate(114.718 28.894)" fill="#fff"/><path d="M132.22,33.111a.952.952,0,1,1-.953-.951.954.954,0,0,1,.953.951" transform="translate(117.08 28.894)" fill="#fff"/><path d="M134.85,33.111a.952.952,0,1,1-.951-.951.953.953,0,0,1,.951.951" transform="translate(119.443 28.894)" fill="#fff"/><path d="M137.478,33.111a.951.951,0,1,1-.951-.951.952.952,0,0,1,.951.951" transform="translate(121.806 28.894)" fill="#fff"/><path d="M140.108,33.111a.951.951,0,1,1-.949-.951.952.952,0,0,1,.949.951" transform="translate(124.169 28.894)" fill="#fff"/><path d="M142.74,33.111a.952.952,0,1,1-.953-.951.954.954,0,0,1,.953.951" transform="translate(126.532 28.894)" fill="#fff"/><path d="M103.291,35.744a.951.951,0,1,1-.951-.955.95.95,0,0,1,.951.955" transform="translate(91.091 31.256)" fill="#e1edf7"/><path d="M105.922,35.744a.952.952,0,1,1-.953-.955.952.952,0,0,1,.953.955" transform="translate(93.453 31.256)" fill="#e1edf7"/><path d="M108.549,35.744a.951.951,0,1,1-.949-.955.95.95,0,0,1,.949.955" transform="translate(95.815 31.256)" fill="#e1edf7"/><path d="M111.183,35.744a.953.953,0,1,1-.955-.955.954.954,0,0,1,.955.955" transform="translate(98.178 31.256)" fill="#e1edf7"/><path d="M113.81,35.744a.951.951,0,1,1-.953-.955.952.952,0,0,1,.953.955" transform="translate(100.542 31.256)" fill="#e1edf7"/><path d="M116.44,35.744a.951.951,0,1,1-.951-.955.95.95,0,0,1,.951.955" transform="translate(102.905 31.256)" fill="#e1edf7"/><path d="M119.071,35.744a.952.952,0,1,1-.953-.955.953.953,0,0,1,.953.955" transform="translate(105.267 31.256)" fill="#e1edf7"/><path d="M121.7,35.744a.952.952,0,1,1-.951-.955.952.952,0,0,1,.951.955" transform="translate(107.629 31.256)" fill="#e1edf7"/><path d="M124.329,35.744a.951.951,0,1,1-.951-.955.952.952,0,0,1,.951.955" transform="translate(109.992 31.256)" fill="#fff"/><path d="M126.959,35.744a.951.951,0,1,1-.951-.955.95.95,0,0,1,.951.955" transform="translate(112.355 31.256)" fill="#fff"/><path d="M129.589,35.744a.951.951,0,1,1-.949-.955.95.95,0,0,1,.949.955" transform="translate(114.718 31.256)" fill="#fff"/><path d="M132.22,35.744a.952.952,0,1,1-.953-.955.952.952,0,0,1,.953.955" transform="translate(117.08 31.256)" fill="#fff"/><path d="M134.85,35.744a.952.952,0,1,1-.951-.955.952.952,0,0,1,.951.955" transform="translate(119.443 31.256)" fill="#fff"/><path d="M137.478,35.744a.951.951,0,1,1-.951-.955.95.95,0,0,1,.951.955" transform="translate(121.806 31.256)" fill="#fff"/><path d="M140.108,35.744a.951.951,0,1,1-.949-.955.95.95,0,0,1,.949.955" transform="translate(124.169 31.256)" fill="#fff"/><path d="M142.74,35.744a.952.952,0,1,1-.953-.955.952.952,0,0,1,.953.955" transform="translate(126.532 31.256)" fill="#fff"/><path d="M103.291,38.37a.951.951,0,1,1-.951-.949.95.95,0,0,1,.951.949" transform="translate(91.091 33.62)" fill="#e1edf7"/><path d="M105.922,38.37a.952.952,0,1,1-.953-.949.952.952,0,0,1,.953.949" transform="translate(93.453 33.62)" fill="#e1edf7"/><path d="M108.549,38.37a.951.951,0,1,1-.949-.949.95.95,0,0,1,.949.949" transform="translate(95.815 33.62)" fill="#e1edf7"/><path d="M111.183,38.37a.953.953,0,1,1-.955-.949.954.954,0,0,1,.955.949" transform="translate(98.178 33.62)" fill="#e1edf7"/><path d="M113.81,38.37a.951.951,0,1,1-.953-.949.952.952,0,0,1,.953.949" transform="translate(100.542 33.62)" fill="#e1edf7"/><path d="M116.44,38.37a.951.951,0,1,1-.951-.949.95.95,0,0,1,.951.949" transform="translate(102.905 33.62)" fill="#e1edf7"/><path d="M119.071,38.37a.952.952,0,1,1-.953-.949.953.953,0,0,1,.953.949" transform="translate(105.267 33.62)" fill="#e1edf7"/><path d="M121.7,38.37a.952.952,0,1,1-.951-.949.952.952,0,0,1,.951.949" transform="translate(107.629 33.62)" fill="#e1edf7"/><path d="M124.329,38.37a.951.951,0,1,1-.951-.949.952.952,0,0,1,.951.949" transform="translate(109.992 33.62)" fill="#fff"/><path d="M126.959,38.37a.951.951,0,1,1-.951-.949.95.95,0,0,1,.951.949" transform="translate(112.355 33.62)" fill="#fff"/><path d="M129.589,38.37a.951.951,0,1,1-.949-.949.95.95,0,0,1,.949.949" transform="translate(114.718 33.62)" fill="#fff"/><path d="M132.22,38.37a.952.952,0,1,1-.953-.949.952.952,0,0,1,.953.949" transform="translate(117.08 33.62)" fill="#fff"/><path d="M134.85,38.37a.952.952,0,1,1-.951-.949.952.952,0,0,1,.951.949" transform="translate(119.443 33.62)" fill="#fff"/><path d="M137.478,38.37a.951.951,0,1,1-.951-.949.95.95,0,0,1,.951.949" transform="translate(121.806 33.62)" fill="#fff"/><path d="M140.108,38.37a.951.951,0,1,1-.949-.949.95.95,0,0,1,.949.949" transform="translate(124.169 33.62)" fill="#fff"/><path d="M142.74,38.37a.952.952,0,1,1-.953-.949.952.952,0,0,1,.953.949" transform="translate(126.532 33.62)" fill="#fff"/><path d="M103.291,41a.951.951,0,1,1-.951-.951.952.952,0,0,1,.951.951" transform="translate(91.091 35.983)" fill="#e1edf7"/><path d="M105.922,41a.952.952,0,1,1-.953-.951.953.953,0,0,1,.953.951" transform="translate(93.453 35.983)" fill="#e1edf7"/><path d="M108.549,41a.951.951,0,1,1-.949-.951.951.951,0,0,1,.949.951" transform="translate(95.815 35.983)" fill="#e1edf7"/><path d="M111.183,41a.953.953,0,1,1-.955-.951.955.955,0,0,1,.955.951" transform="translate(98.178 35.983)" fill="#e1edf7"/><path d="M113.81,41a.951.951,0,1,1-.953-.951.953.953,0,0,1,.953.951" transform="translate(100.542 35.983)" fill="#e1edf7"/><path d="M116.44,41a.951.951,0,1,1-.951-.951.952.952,0,0,1,.951.951" transform="translate(102.905 35.983)" fill="#e1edf7"/><path d="M119.071,41a.952.952,0,1,1-.953-.951.954.954,0,0,1,.953.951" transform="translate(105.267 35.983)" fill="#e1edf7"/><path d="M121.7,41a.952.952,0,1,1-.951-.951A.953.953,0,0,1,121.7,41" transform="translate(107.629 35.983)" fill="#e1edf7"/><path d="M124.329,41a.951.951,0,1,1-.951-.951.953.953,0,0,1,.951.951" transform="translate(109.992 35.983)" fill="#fff"/><path d="M126.959,41a.951.951,0,1,1-.951-.951.952.952,0,0,1,.951.951" transform="translate(112.355 35.983)" fill="#fff"/><path d="M129.589,41a.951.951,0,1,1-.949-.951.951.951,0,0,1,.949.951" transform="translate(114.718 35.983)" fill="#fff"/><path d="M132.22,41a.952.952,0,1,1-.953-.951.953.953,0,0,1,.953.951" transform="translate(117.08 35.983)" fill="#fff"/><path d="M134.85,41a.952.952,0,1,1-.951-.951.953.953,0,0,1,.951.951" transform="translate(119.443 35.983)" fill="#fff"/><path d="M137.478,41a.951.951,0,1,1-.951-.951.952.952,0,0,1,.951.951" transform="translate(121.806 35.983)" fill="#fff"/><path d="M140.108,41a.951.951,0,1,1-.949-.951.951.951,0,0,1,.949.951" transform="translate(124.169 35.983)" fill="#fff"/><path d="M142.74,41a.952.952,0,1,1-.953-.951.953.953,0,0,1,.953.951" transform="translate(126.532 35.983)" fill="#fff"/><path d="M103.291,43.632a.951.951,0,1,1-.951-.953.95.95,0,0,1,.951.953" transform="translate(91.091 38.344)" fill="#e1edf7"/><path d="M105.922,43.632a.952.952,0,1,1-.953-.953.952.952,0,0,1,.953.953" transform="translate(93.453 38.344)" fill="#e1edf7"/><path d="M108.549,43.632a.951.951,0,1,1-.949-.953.95.95,0,0,1,.949.953" transform="translate(95.815 38.344)" fill="#e1edf7"/><path d="M111.183,43.632a.953.953,0,1,1-.955-.953.954.954,0,0,1,.955.953" transform="translate(98.178 38.344)" fill="#e1edf7"/><path d="M113.81,43.632a.951.951,0,1,1-.953-.953.952.952,0,0,1,.953.953" transform="translate(100.542 38.344)" fill="#e1edf7"/><path d="M116.44,43.632a.951.951,0,1,1-.951-.953.95.95,0,0,1,.951.953" transform="translate(102.905 38.344)" fill="#e1edf7"/><path d="M119.071,43.632a.952.952,0,1,1-.953-.953.953.953,0,0,1,.953.953" transform="translate(105.267 38.344)" fill="#e1edf7"/><path d="M121.7,43.632a.952.952,0,1,1-.951-.953.952.952,0,0,1,.951.953" transform="translate(107.629 38.344)" fill="#e1edf7"/><path d="M124.329,43.632a.951.951,0,1,1-.951-.953.952.952,0,0,1,.951.953" transform="translate(109.992 38.344)" fill="#fff"/><path d="M126.959,43.632a.951.951,0,1,1-.951-.953.95.95,0,0,1,.951.953" transform="translate(112.355 38.344)" fill="#fff"/><path d="M129.589,43.632a.951.951,0,1,1-.949-.953.95.95,0,0,1,.949.953" transform="translate(114.718 38.344)" fill="#fff"/><path d="M132.22,43.632a.952.952,0,1,1-.953-.953.952.952,0,0,1,.953.953" transform="translate(117.08 38.344)" fill="#fff"/><path d="M134.85,43.632a.952.952,0,1,1-.951-.953.952.952,0,0,1,.951.953" transform="translate(119.443 38.344)" fill="#fff"/><path d="M137.478,43.632a.951.951,0,1,1-.951-.953.95.95,0,0,1,.951.953" transform="translate(121.806 38.344)" fill="#fff"/><path d="M140.108,43.632a.951.951,0,1,1-.949-.953.95.95,0,0,1,.949.953" transform="translate(124.169 38.344)" fill="#fff"/><path d="M142.74,43.632a.952.952,0,1,1-.953-.953.952.952,0,0,1,.953.953" transform="translate(126.532 38.344)" fill="#fff"/><path d="M103.291,46.261a.951.951,0,1,1-.951-.951.95.95,0,0,1,.951.951" transform="translate(91.091 40.708)" fill="#e1edf7"/><path d="M105.922,46.261a.952.952,0,1,1-.953-.951.952.952,0,0,1,.953.951" transform="translate(93.453 40.708)" fill="#e1edf7"/><path d="M108.549,46.261a.951.951,0,1,1-.949-.951.95.95,0,0,1,.949.951" transform="translate(95.815 40.708)" fill="#e1edf7"/><path d="M111.183,46.261a.953.953,0,1,1-.955-.951.954.954,0,0,1,.955.951" transform="translate(98.178 40.708)" fill="#e1edf7"/><path d="M113.81,46.261a.951.951,0,1,1-.953-.951.952.952,0,0,1,.953.951" transform="translate(100.542 40.708)" fill="#e1edf7"/><path d="M116.44,46.261a.951.951,0,1,1-.951-.951.95.95,0,0,1,.951.951" transform="translate(102.905 40.708)" fill="#e1edf7"/><path d="M119.071,46.261a.952.952,0,1,1-.953-.951.953.953,0,0,1,.953.951" transform="translate(105.267 40.708)" fill="#e1edf7"/><path d="M121.7,46.261a.952.952,0,1,1-.951-.951.952.952,0,0,1,.951.951" transform="translate(107.629 40.708)" fill="#e1edf7"/><path d="M124.329,46.261a.951.951,0,1,1-.951-.951.952.952,0,0,1,.951.951" transform="translate(109.992 40.708)" fill="#fff"/><path d="M126.959,46.261a.951.951,0,1,1-.951-.951.95.95,0,0,1,.951.951" transform="translate(112.355 40.708)" fill="#fff"/><path d="M129.589,46.261a.951.951,0,1,1-.949-.951.95.95,0,0,1,.949.951" transform="translate(114.718 40.708)" fill="#fff"/><path d="M132.22,46.261a.952.952,0,1,1-.953-.951.952.952,0,0,1,.953.951" transform="translate(117.08 40.708)" fill="#fff"/><path d="M134.85,46.261a.952.952,0,1,1-.951-.951.952.952,0,0,1,.951.951" transform="translate(119.443 40.708)" fill="#fff"/><path d="M137.478,46.261a.951.951,0,1,1-.951-.951.95.95,0,0,1,.951.951" transform="translate(121.806 40.708)" fill="#fff"/><path d="M140.108,46.261a.951.951,0,1,1-.949-.951.95.95,0,0,1,.949.951" transform="translate(124.169 40.708)" fill="#fff"/><path d="M142.74,46.261a.952.952,0,1,1-.953-.951.952.952,0,0,1,.953.951" transform="translate(126.532 40.708)" fill="#fff"/><path d="M101.89,6.363v9.986l74.887-9.986Z" transform="translate(91.541 5.716)" fill="#6283cc"/><path d="M101.89,16.349h74.887V6.363Z" transform="translate(91.541 5.717)" fill="#5573c6"/><path d="M101.89,14.253v9.984l9.986-9.984Z" transform="translate(91.541 12.806)" fill="#6283cc"/><path d="M101.89,24.237h9.986V14.254Z" transform="translate(91.541 12.806)" fill="#5573c6"/><path d="M101.89,22.142v9.984l9.986-9.984Z" transform="translate(91.541 19.893)" fill="#6283cc"/><path d="M101.89,32.126h9.986V22.142Z" transform="translate(91.541 19.893)" fill="#5573c6"/><path d="M109.778,14.253v9.984l9.988-9.984Z" transform="translate(98.628 12.806)" fill="#6283cc"/><path d="M109.778,24.237h9.988V14.254Z" transform="translate(98.628 12.806)" fill="#5573c6"/><path d="M109.778,32.126h9.988V22.142Z" transform="translate(98.628 19.893)" fill="#5573c6"/><path d="M109.778,22.142v9.984l9.988-9.984Z" transform="translate(98.628 19.893)" fill="#6283cc"/><path d="M117.668,14.253v9.984l9.986-9.984Z" transform="translate(105.717 12.806)" fill="#6283cc"/><path d="M117.668,24.237h9.986V14.254Z" transform="translate(105.717 12.806)" fill="#5573c6"/><path d="M117.668,32.126h9.986V22.142Z" transform="translate(105.717 19.893)" fill="#5573c6"/><path d="M127.654,22.142h-9.986v9.984Z" transform="translate(105.716 19.893)" fill="#6283cc"/><path d="M153.15,14.253,128.189,39.214H153.15Z" transform="translate(115.169 12.806)" fill="#5573c6"/><path d="M155.513,14.253H125.558V39.214h4.995Z" transform="translate(112.805 12.806)" fill="#6283cc"/><path d="M101.89,30.032V54.995l24.962-24.962Z" transform="translate(91.541 26.982)" fill="#6283cc"/><path d="M101.89,54.995h24.962V30.032Z" transform="translate(91.541 26.982)" fill="#5573c6"/><path d="M117.668,30.032v9.984l9.986-9.984Z" transform="translate(105.717 26.982)" fill="#6283cc"/><path d="M127.654,30.032l-9.986,9.984H162.6V30.032Z" transform="translate(105.716 26.982)" fill="#5573c6"/><rect width="44.934" height="9.986" transform="translate(223.385 71.99)" fill="#6283cc"/><path d="M126.26,21.634a5.012,5.012,0,0,0-5,5V79.882a5.01,5.01,0,0,0,5,4.995h21.576V21.634Z" transform="translate(108.947 19.437)" fill="#373f51"/><path d="M156.838,21.634H135.26V84.876h21.578c2.747,0,5-.492,5-3.241v-55a5.012,5.012,0,0,0-5-5" transform="translate(121.522 19.437)" fill="#2a3444"/><path d="M123.876,23.407a1.262,1.262,0,0,0-1.247,1.247V74.5a1.267,1.267,0,0,0,1.247,1.253h22.732V23.407Z" transform="translate(110.174 21.03)" fill="#6283cc"/><path d="M157.991,23.407H135.259V75.756h22.732a1.267,1.267,0,0,0,1.247-1.253V24.654a1.262,1.262,0,0,0-1.247-1.247" transform="translate(121.521 21.03)" fill="#5573c6"/><path d="M135.351,52.024a2.04,2.04,0,0,0-.756.142,1.9,1.9,0,0,0-1.243,1.766,1.958,1.958,0,0,0,2,1.9h1.623V52.024Z" transform="translate(119.808 46.74)" fill="#2a3444"/><path d="M138.294,52.58a2.047,2.047,0,0,0-1.412-.556H135.26v3.812h1.619a2.059,2.059,0,0,0,.759-.142,1.9,1.9,0,0,0,1.24-1.766,1.851,1.851,0,0,0-.585-1.348" transform="translate(121.522 46.74)" fill="#373f51"/><rect width="44.023" height="5.87" transform="translate(234.77 47.058)" fill="#fff"/><rect width="44.023" height="5.87" transform="translate(234.77 89.731)" fill="#fff"/><rect width="5.87" height="5.868" transform="translate(234.77 55.863)" fill="#fff"/><rect width="5.87" height="5.868" transform="translate(234.77 64.668)" fill="#fff"/><rect width="5.87" height="5.868" transform="translate(243.574 55.863)" fill="#fff"/><rect width="5.87" height="5.868" transform="translate(243.574 64.668)" fill="#fff"/><rect width="5.868" height="5.868" transform="translate(252.379 55.863)" fill="#fff"/><rect width="5.868" height="5.868" transform="translate(252.379 64.668)" fill="#fff"/><rect width="17.608" height="14.673" transform="translate(261.184 55.863)" fill="#fff"/><rect width="14.673" height="14.675" transform="translate(234.771 73.473)" fill="#fff"/><rect width="26.413" height="5.868" transform="translate(252.379 73.473)" fill="#fff"/><rect width="26.413" height="5.87" transform="translate(252.379 82.278)" fill="#fff"/><path d="M116.795,39.259a2.386,2.386,0,0,0-2.434,2.32l.006,32.657a2.381,2.381,0,0,0,2.43,2.316l7.884,0V39.259Z" transform="translate(102.746 35.272)" fill="#373f51"/><path d="M130.112,41.574a2.382,2.382,0,0,0-2.428-2.316H119.8V76.551h7.89a2.383,2.383,0,0,0,2.432-2.318Z" transform="translate(107.629 35.271)" fill="#2a3444"/><path d="M129.139,42.14a.951.951,0,0,0-.97-.928l-8.372,0V69.03l8.374,0a.955.955,0,0,0,.974-.926Z" transform="translate(107.629 37.026)" fill="#5573c6"/><path d="M115.846,41.212a.956.956,0,0,0-.972.928l0,25.961a.952.952,0,0,0,.97.926h8.372V41.212Z" transform="translate(103.206 37.026)" fill="#6283cc"/><path d="M119.861,56.706a1.4,1.4,0,0,0-.524.1,1.314,1.314,0,0,0-.856,1.217,1.352,1.352,0,0,0,1.38,1.316h1.118V56.706Z" transform="translate(106.447 50.946)" fill="#2a3444"/><path d="M121.89,57.09a1.4,1.4,0,0,0-.978-.385H119.8v2.633h1.116a1.526,1.526,0,0,0,.53-.1,1.305,1.305,0,0,0,.85-1.215,1.257,1.257,0,0,0-.4-.932" transform="translate(107.629 50.946)" fill="#373f51"/><path d="M118.843,40.08a.516.516,0,1,0,0,1.031h2.3V40.08Z" transform="translate(106.286 36.009)" fill="#2a3444"/><path d="M122.09,40.08H119.8v1.031l2.3,0a.515.515,0,1,0,0-1.029" transform="translate(107.629 36.009)" fill="#373f51"/><rect width="16.543" height="4.945" transform="translate(219.202 79.865)" fill="#fff"/><rect width="4.137" height="4.135" transform="translate(219.202 85.98)" fill="#fff"/><rect width="4.137" height="4.137" transform="translate(219.202 92.182)" fill="#fff"/><rect width="4.135" height="4.135" transform="translate(225.405 85.98)" fill="#fff"/><rect width="4.135" height="4.137" transform="translate(225.405 92.182)" fill="#fff"/><rect width="4.135" height="4.135" transform="translate(231.611 85.98)" fill="#fff"/><rect width="4.135" height="4.137" transform="translate(231.611 92.182)" fill="#fff"/><rect width="10.337" height="7.17" transform="translate(219.202 97.422)" fill="#fff"/><rect width="4.142" height="7.17" transform="translate(231.603 97.422)" fill="#fff"/><path d="M70.069,147.584a44.694,44.694,0,0,0,8.1,19.392V147.584Z" transform="translate(62.952 132.594)" fill="#af6d1e"/><path d="M74.338,147.584v19.392a44.658,44.658,0,0,0,8.106-19.392Z" transform="translate(66.788 132.594)" fill="#f4a338"/><path d="M71.1,147.486A37.773,37.773,0,0,0,77.249,160.6V147.486Z" transform="translate(63.877 132.506)" fill="#e6b046"/><path d="M74.338,147.486V160.6a37.74,37.74,0,0,0,6.155-13.114Z" transform="translate(66.788 132.506)" fill="#e6b046"/><path d="M80.516,150.853,93.491,167.6V144.59L80.516,134.563Z" transform="translate(72.338 120.895)" fill="#4adbd1"/><path d="M80.516,138.16v9.46L89.18,158.8V144.858Z" transform="translate(72.338 124.128)" fill="#32baad"/><path d="M74.318,150.853,61.339,167.6V144.59l12.98-10.027Z" transform="translate(55.109 120.895)" fill="#4adbd1"/><path d="M72.278,138.16v9.46L63.61,158.8V144.858Z" transform="translate(57.149 124.128)" fill="#32baad"/><path d="M69.918,114.331q.39-.692.786-1.352-.4.661-.786,1.352" transform="translate(62.817 101.504)" fill="#e6b046"/><path d="M67.909,119.66c.592-1.4,1.219-2.753,1.86-4.038-.642,1.285-1.268,2.633-1.86,4.038" transform="translate(61.012 103.879)" fill="#e6b046"/><path d="M70.539,113.509c.387-.64.775-1.259,1.156-1.845-.382.587-.769,1.206-1.156,1.845" transform="translate(63.374 100.323)" fill="#9b6524"/><path d="M67.2,121.221q.635-1.785,1.352-3.472-.715,1.683-1.352,3.472" transform="translate(60.372 105.789)" fill="#fff"/><path d="M75.293,108.52c1.107,1.392,2.624,3.419,4.271,5.969-1.648-2.55-3.165-4.577-4.271-5.969" transform="translate(67.646 97.498)" fill="#c48030"/><path d="M77.543,111.664c.376.587.765,1.206,1.156,1.845-.391-.64-.78-1.259-1.156-1.845" transform="translate(69.667 100.323)" fill="#c48030"/><path d="M83.273,134.676c-.22,1.936-.5,3.814-.831,5.623.328-1.809.611-3.687.831-5.623" transform="translate(74.069 120.997)" fill="#e6b046"/><path d="M66.872,121.387c.2-.611.4-1.215.617-1.809-.215.594-.418,1.2-.617,1.809" transform="translate(60.08 107.433)" fill="#e6b046"/><path d="M68.07,144.177c-.216-.579-.423-1.173-.626-1.783.2.609.41,1.2.626,1.783" transform="translate(60.594 127.931)" fill="#e6b046"/><path d="M79.8,115.622c.642,1.287,1.266,2.635,1.859,4.038-.592-1.4-1.217-2.751-1.859-4.038" transform="translate(71.698 103.879)" fill="#e6b046"/><path d="M81.83,141.409q-.282.954-.583,1.87.3-.914.583-1.87" transform="translate(72.995 127.046)" fill="#e6b046"/><path d="M66.641,140.3q-.5-2.714-.83-5.623.33,2.9.83,5.623" transform="translate(59.127 120.997)" fill="#e6b046"/><path d="M66.751,140.079c-.137-.615-.27-1.24-.395-1.874.125.634.258,1.259.395,1.874" transform="translate(59.616 124.168)" fill="#e6b046"/><path d="M67.721,143.279q-.3-.914-.585-1.87.285.957.585,1.87" transform="translate(60.317 127.046)" fill="#e6b046"/><path d="M71.148,114.489c1.648-2.55,3.165-4.577,4.271-5.969-1.107,1.392-2.624,3.419-4.271,5.969" transform="translate(63.922 97.498)" fill="#e6b046"/><path d="M70.264,113.691c-.247.429-.488.868-.731,1.314.243-.446.484-.885.731-1.314" transform="translate(62.471 102.144)" fill="#e6b046"/><path d="M77,109.535c-1.1-1.392-1.8-2.145-1.8-2.145s-.695.754-1.8,2.145c1.1-1.392,1.8-2.145,1.8-2.145s.693.754,1.8,2.145" transform="translate(65.943 96.483)" fill="#e6b046"/><path d="M80.781,117.749q.712,1.683,1.354,3.472-.641-1.785-1.354-3.472" transform="translate(72.576 105.789)" fill="#e6b046"/><path d="M70.112,114.384q-.621,1.139-1.224,2.35.6-1.213,1.224-2.35" transform="translate(61.891 102.766)" fill="#e6b046"/><path d="M68.115,120.531a52.009,52.009,0,0,0-2.627,15.9,96.193,96.193,0,0,0,.613,10.952,96.193,96.193,0,0,1-.613-10.952,52.009,52.009,0,0,1,2.627-15.9" transform="translate(58.836 108.289)" fill="#e6b046"/><path d="M81.494,119.578c.209.6.418,1.2.611,1.809-.194-.611-.4-1.213-.611-1.809" transform="translate(73.217 107.433)" fill="#e6b046"/><path d="M79.77,147.649H69.8c-.518-.93-1.018-1.931-1.488-3,.471,1.065.97,2.065,1.488,3H89.742q.777-1.4,1.483-3-.7,1.6-1.483,3Z" transform="translate(61.371 129.961)" fill="#e6b046"/><path d="M80.382,116.734q-.6-1.213-1.224-2.35.618,1.139,1.224,2.35" transform="translate(71.118 102.766)" fill="#e6b046"/><path d="M84.443,136.432a97.522,97.522,0,0,1-.607,10.952,97.522,97.522,0,0,0,.607-10.952,51.857,51.857,0,0,0-2.627-15.9,51.857,51.857,0,0,1,2.627,15.9" transform="translate(73.506 108.289)" fill="#e6b046"/><path d="M79.875,115.646q-.757-1.393-1.517-2.667.76,1.273,1.517,2.667" transform="translate(70.399 101.504)" fill="#e6b046"/><path d="M67.233,141.843c-.178-.651-.353-1.314-.514-1.991.161.678.336,1.34.514,1.991" transform="translate(59.942 125.648)" fill="#e6b046"/><path d="M66.857,140.445c-.1-.412-.2-.832-.292-1.253.095.421.192.841.292,1.253" transform="translate(59.804 125.055)" fill="#e6b046"/><path d="M82.3,174.843V114.384H73.168q-.621,1.139-1.224,2.35c-.642,1.287-1.268,2.635-1.86,4.04-.475,1.122-.928,2.28-1.35,3.472-.216.594-.418,1.2-.619,1.809a52.006,52.006,0,0,0-2.626,15.9,96.168,96.168,0,0,0,.613,10.952q.327,2.9.828,5.623c.066.363.137.721.207,1.078.125.632.256,1.259.395,1.872.1.421.192.841.292,1.253.163.678.338,1.342.516,1.991q.137.487.277.966c.19.636.383,1.261.585,1.868s.408,1.2.626,1.785q.487,1.3,1.014,2.5c.471,1.065.97,2.065,1.488,3Z" transform="translate(58.837 102.766)" fill="#fff"/><path d="M78.669,120.668V107.39s-.695.754-1.8,2.145-2.624,3.421-4.271,5.969c-.382.589-.771,1.206-1.158,1.845-.131.215-.264.433-.393.651-.262.44-.526.89-.786,1.354-.247.429-.486.868-.729,1.314Z" transform="translate(62.472 96.483)" fill="#4adbd1"/><path d="M82.215,139.852q-.248,1.017-.516,1.991.271-.974.516-1.991" transform="translate(73.401 125.648)" fill="#d8923d"/><path d="M82.66,138.2q-.319,1.6-.689,3.125.373-1.521.689-3.125" transform="translate(73.645 124.168)" fill="#d8923d"/><path d="M88.528,126.055c-.2-.611-.4-1.215-.611-1.809q-.641-1.788-1.354-3.472c-.592-1.4-1.217-2.753-1.859-4.04q-.6-1.21-1.224-2.35H74.345v60.459h9.972q.78-1.4,1.483-3c.592-1.331,1.141-2.764,1.648-4.287.2-.609.395-1.234.581-1.87.093-.319.186-.64.275-.964.182-.651.351-1.316.516-1.993.249-1.014.477-2.056.691-3.125.068-.357.135-.716.2-1.078.33-1.809.611-3.685.832-5.621a97.536,97.536,0,0,0,.609-10.952,51.837,51.837,0,0,0-2.627-15.9" transform="translate(66.794 102.765)" fill="#e0e0e0"/><path d="M74.346,120.668h9.135q-.757-1.393-1.517-2.667c-.133-.218-.264-.437-.391-.651-.391-.64-.78-1.257-1.158-1.845-1.648-2.548-3.165-4.577-4.271-5.969s-1.8-2.145-1.8-2.145Z" transform="translate(66.795 96.483)" fill="#32baad"/><path d="M68.479,145.027q.561,1.2,1.164,2.286h9.972v-2.286Z" transform="translate(61.524 130.297)" fill="#e6b046"/><path d="M85.482,145.027H74.346v2.286h9.972q.6-1.082,1.164-2.286" transform="translate(66.795 130.297)" fill="#e6b046"/><path d="M70.038,146.149l-2,5.074H80.01v-5.074Z" transform="translate(61.13 131.305)" fill="#4adbd1"/><path d="M84.318,146.149H74.346v5.074h11.97Z" transform="translate(66.795 131.305)" fill="#32baad"/><path d="M74.346,120.958v22.217a11.109,11.109,0,0,0,0-22.217" transform="translate(66.795 108.673)" fill="#fff"/><path d="M68.493,132.066A11.109,11.109,0,0,0,79.6,143.175V120.958a11.108,11.108,0,0,0-11.112,11.108" transform="translate(61.536 108.673)" fill="#e0e0e0"/><path d="M78.765,121.891a9.336,9.336,0,0,0-9.338,9.336h9.338Z" transform="translate(62.375 109.511)" fill="#2e3747"/><path d="M69.427,126.809h0a9.336,9.336,0,0,0,9.338,9.337v-9.337Z" transform="translate(62.375 113.929)" fill="#373f51"/><path d="M74.346,121.891v9.336h9.338a9.34,9.34,0,0,0-9.338-9.336" transform="translate(66.795 109.511)" fill="#373f51"/><path d="M74.346,126.809v9.337a9.34,9.34,0,0,0,9.338-9.337Z" transform="translate(66.795 113.929)" fill="#2e3747"/><path d="M73.206,127.1a1.217,1.217,0,1,1-2.434,0v-1.739a1.217,1.217,0,1,1,2.434,0Z" transform="translate(63.584 111.537)" fill="#fff"/><path d="M116.318,117.065a6.739,6.739,0,0,0-6.739,6.738v55.231a6.739,6.739,0,0,0,6.739,6.738h19.064V117.065Z" transform="translate(98.449 105.175)" fill="#fff"/><path d="M142.235,117.065H123.171v68.706h19.064a6.739,6.739,0,0,0,6.739-6.738V123.8a6.739,6.739,0,0,0-6.739-6.738" transform="translate(110.661 105.175)" fill="#f0f0f0"/><path d="M109.608,150.163a6.741,6.741,0,0,0,6.684,5.872h38.126a6.741,6.741,0,0,0,6.684-5.872Z" transform="translate(98.475 134.911)" fill="#fff"/><path d="M144.291,117.065H111.958a6.743,6.743,0,0,0-6.684,5.872h46.35a6.74,6.74,0,0,1,6.683-5.872Z" transform="translate(94.582 105.175)" fill="#e0e0e0"/><path d="M126.992,156.035H159.33a6.739,6.739,0,0,0,6.679-5.872H119.66a6.743,6.743,0,0,1-6.684,5.872Z" transform="translate(101.501 134.911)" fill="#e0e0e0"/><rect width="42.584" height="5.629" transform="translate(212.541 249.374)" fill="#373f51"/><rect width="42.584" height="5.629" transform="translate(212.541 239.599)" fill="#373f51"/><rect width="42.584" height="5.629" transform="translate(212.541 259.149)" fill="#373f51"/><path d="M175.473,189.151a4.651,4.651,0,0,1-4.64,4.632H77.024a4.646,4.646,0,0,1-4.64-4.632v-54.32a4.647,4.647,0,0,1,4.64-4.628h93.809a4.651,4.651,0,0,1,4.64,4.628Z" transform="translate(65.032 116.979)" fill="#373f51"/><path d="M77.022,130.2a4.645,4.645,0,0,0-4.638,4.628v54.32a4.645,4.645,0,0,0,4.638,4.632h47.408V130.2Z" transform="translate(65.032 116.979)" fill="#2a3444"/><path d="M146.2,130.2H99.8v63.58h46.4a4.65,4.65,0,0,0,4.64-4.632v-54.32a4.65,4.65,0,0,0-4.64-4.628" transform="translate(89.663 116.979)" fill="#373f51"/><path d="M77.127,132.383a2.8,2.8,0,0,0-2.781,2.789V184.9a2.782,2.782,0,0,0,2.781,2.779h45.54v-55.3Z" transform="translate(66.795 118.937)" fill="#6283cc"/><path d="M144.336,132.383H99.8v55.3h44.537a2.79,2.79,0,0,0,2.781-2.779V135.172a2.805,2.805,0,0,0-2.781-2.789" transform="translate(89.663 118.937)" fill="#5573c6"/><path d="M99.8,163.695v9.452h51.318a8.356,8.356,0,0,0,8.357-8.355v-1.1Z" transform="translate(89.663 147.069)" fill="#2a3444"/><path d="M67.835,163.695v1.1a8.355,8.355,0,0,0,8.353,8.355h52.328v-9.452Z" transform="translate(60.945 147.069)" fill="#373f51"/><rect width="8.245" height="1.188" transform="translate(181.217 245.993)" fill="#2a3444"/><rect width="8.243" height="1.188" transform="translate(189.462 245.995)" fill="#373f51"/><path d="M99.8,123.379v11.768h6.793Z" transform="translate(89.663 110.848)" fill="#2a3444"/><path d="M96.219,135.147h6.8V123.379Z" transform="translate(86.446 110.848)" fill="#373f51"/><path d="M108.437,128.8a8.638,8.638,0,0,0-8.638-8.638v17.276a8.638,8.638,0,0,0,8.638-8.638" transform="translate(89.663 107.962)" fill="#fff"/><path d="M103.888,137.443V120.167a8.638,8.638,0,1,0,0,17.276" transform="translate(85.574 107.962)" fill="#e1edf7"/><path d="M95.473,128.6a8.213,8.213,0,0,0,8.213,8.213V120.391a8.212,8.212,0,0,0-8.213,8.213" transform="translate(85.776 108.163)" fill="#fff"/><path d="M99.8,120.391v16.423a8.212,8.212,0,0,0,0-16.423" transform="translate(89.663 108.163)" fill="#e1edf7"/><path d="M105.868,127.589A6.071,6.071,0,0,0,99.8,121.52v12.139a6.071,6.071,0,0,0,6.069-6.069" transform="translate(89.663 109.177)" fill="#fff"/><path d="M102.671,133.659v-12.14a6.07,6.07,0,0,0,0,12.14" transform="translate(86.79 109.177)" fill="#e1edf7"/><path d="M97.058,127.18a5.2,5.2,0,0,0,5.2,5.2V121.976a5.2,5.2,0,0,0-5.2,5.2" transform="translate(87.2 109.587)" fill="#6283cc"/><path d="M99.8,121.976v10.405a5.2,5.2,0,0,0,0-10.405" transform="translate(89.663 109.587)" fill="#5573c6"/><rect width="147.95" height="7.601" transform="translate(114.982 320.216)" fill="#fff"/><rect width="147.95" height="3.801" transform="translate(114.982 324.017)" fill="#e0e0e0"/><rect width="38.386" height="47.897" transform="translate(151.075 254.891)" fill="#fff"/><rect width="38.382" height="47.897" transform="translate(189.462 254.889)" fill="#e0e0e0"/><rect width="38.386" height="6.696" transform="translate(151.075 254.889)" fill="#373f51"/><rect width="38.382" height="6.696" transform="translate(189.462 254.889)" fill="#2a3444"/><path d="M87.917,149.15l12.444-4.313v5.642l-6.14,1.426,6.14,1.76v5.64l-12.444-4.513Z" transform="translate(78.987 130.126)" fill="#4adbd1"/><path d="M104.478,141.271h6.6l-9.329,27.941h-6.6Z" transform="translate(85.49 126.923)" fill="#4adbd1"/><path d="M104.225,153.665l6.141-1.76-6.141-1.426v-5.642l12.446,4.313v5.642l-12.446,4.513Z" transform="translate(93.639 130.126)" fill="#4adbd1"/><path d="M140.343,158.256a8.239,8.239,0,1,0,8.241,8.239,8.24,8.24,0,0,0-8.241-8.239m0,13.99a5.751,5.751,0,1,1,5.752-5.75,5.747,5.747,0,0,1-5.752,5.75" transform="translate(118.686 142.182)" fill="#32baad"/><rect width="8.926" height="23.079" transform="translate(241.179 297.137)" fill="#4adbd1"/><rect width="8.925" height="23.079" transform="translate(250.105 297.137)" fill="#32baad"/><path d="M30.134,110.763c-.708-.055-1.418-.08-2.13-.08a28,28,0,0,0,0,56.008H59.753V89.9a31.7,31.7,0,0,0-29.619,20.858" transform="translate(0 80.774)" fill="#e1edf7"/><path d="M63.224,110.683c-.714,0-1.422.025-2.126.08A31.711,31.711,0,0,0,31.475,89.9v76.786H63.224a28,28,0,0,0,0-56.008" transform="translate(28.278 80.774)" fill="#fff"/><path d="M31.674,114.737a22.128,22.128,0,1,0-6.449,43.3H56.974V93a25.6,25.6,0,0,0-25.3,21.737" transform="translate(2.781 83.554)" fill="#fff"/><path d="M63.224,113.779a22.123,22.123,0,0,0-6.449.959A25.6,25.6,0,0,0,31.475,93v65.033H63.224a22.127,22.127,0,1,0,0-44.254" transform="translate(28.278 83.555)" fill="#e1edf7"/><path d="M17.8,90.887a2.983,2.983,0,0,0-2.973,2.975v31.67A2.981,2.981,0,0,0,17.8,128.5H30.628V90.887Z" transform="translate(13.318 81.656)" fill="#373f51"/><path d="M35.983,90.887H23.148V128.5H35.983c1.635,0,2.973-.292,2.973-1.927V93.862a2.983,2.983,0,0,0-2.973-2.975" transform="translate(20.797 81.656)" fill="#2a3444"/><path d="M16.378,91.943a.752.752,0,0,0-.742.742v29.652a.753.753,0,0,0,.742.742H29.9V91.943Z" transform="translate(14.048 82.605)" fill="#6283cc"/><path d="M36.672,91.943H23.148v31.136H36.672a.753.753,0,0,0,.742-.742V92.685a.752.752,0,0,0-.742-.742" transform="translate(20.797 82.605)" fill="#5573c6"/><path d="M23.2,108.964a1.276,1.276,0,0,0-.448.084,1.13,1.13,0,0,0-.738,1.052,1.159,1.159,0,0,0,1.187,1.131h.966v-2.267Z" transform="translate(19.78 97.897)" fill="#2a3444"/><path d="M24.954,109.3a1.213,1.213,0,0,0-.837-.332H23.15v2.269h.966a1.215,1.215,0,0,0,.45-.085,1.13,1.13,0,0,0,.737-1.05,1.1,1.1,0,0,0-.349-.8" transform="translate(20.799 97.896)" fill="#373f51"/><rect width="12.816" height="19.635" transform="translate(31.303 180.725)" fill="#fff"/><path d="M16.756,97.318l.423-.121-.423-.1v-.389l.856.3V97.4l-.856.311Z" transform="translate(15.054 86.888)" fill="#4adbd1"/><path d="M16.756,100.53l.423-.121-.423-.1v-.387l.856.3v.389l-.856.311Z" transform="translate(15.054 89.774)" fill="#4adbd1"/><path d="M16.756,101.6l.423-.12-.423-.1v-.387l.856.3v.389l-.856.311Z" transform="translate(15.054 90.736)" fill="#4adbd1"/><path d="M17.522,98.389l.421-.121-.421-.1v-.387l.856.3v.389l-.856.311Z" transform="translate(15.743 87.85)" fill="#4adbd1"/><path d="M17.522,99.46l.421-.121-.421-.1v-.389l.856.3v.389l-.856.311Z" transform="translate(15.743 88.812)" fill="#4adbd1"/><rect width="12.471" height="19.635" transform="translate(44.121 180.725)" fill="#e0e0e0"/><rect width="17.378" height="1.029" transform="translate(33.266 183.58)" fill="#373f51"/><path d="M16.756,102.672l.423-.12-.423-.1v-.387l.856.3v.389l-.856.311Z" transform="translate(15.054 91.698)" fill="#4adbd1"/><rect width="17.378" height="1.029" transform="translate(33.266 193.746)" fill="#373f51"/><rect width="7.265" height="1.029" transform="translate(34.798 185.615)" fill="#373f51"/><rect width="15.047" height="1.029" transform="translate(34.798 187.647)" fill="#373f51"/><path d="M17.522,103.743l.421-.12-.421-.1v-.387l.856.3v.389l-.856.311Z" transform="translate(15.743 92.66)" fill="#4adbd1"/><path d="M17.522,104.814l.421-.12-.421-.1v-.389l.856.3v.389l-.856.311Z" transform="translate(15.743 93.622)" fill="#4adbd1"/><rect width="7.265" height="1.029" transform="translate(34.798 195.78)" fill="#373f51"/><rect width="15.047" height="1.029" transform="translate(34.798 197.811)" fill="#373f51"/><rect width="16.938" height="1.029" transform="translate(33.264 191.713)" fill="#373f51"/><rect width="21.365" height="1.029" transform="translate(33.255 189.68)" fill="#373f51"/><rect width="12.816" height="1.547" transform="translate(31.303 180.725)" fill="#373f51"/><rect width="12.471" height="1.547" transform="translate(44.121 180.725)" fill="#2a3444"/><rect width="0.784" height="0.729" transform="translate(55.212 181.133)" fill="#fff"/><rect width="0.778" height="0.729" transform="translate(53.579 181.133)" fill="#fff"/><path d="M70.548,139.982a2.217,2.217,0,0,1-2.212,2.21H23.6a2.218,2.218,0,0,1-2.215-2.21V114.076a2.216,2.216,0,0,1,2.215-2.208H68.336a2.216,2.216,0,0,1,2.212,2.208Z" transform="translate(19.21 100.506)" fill="#373f51"/><path d="M23.6,111.868a2.218,2.218,0,0,0-2.215,2.208v25.906a2.22,2.22,0,0,0,2.215,2.212H46.206V111.868Z" transform="translate(19.21 100.506)" fill="#2a3444"/><path d="M56.588,111.868H34.458v30.326h22.13a2.219,2.219,0,0,0,2.212-2.212V114.076a2.217,2.217,0,0,0-2.212-2.208" transform="translate(30.958 100.506)" fill="#373f51"/><path d="M23.644,112.908a1.333,1.333,0,0,0-1.325,1.329v23.719a1.327,1.327,0,0,0,1.325,1.327H45.366V112.908Z" transform="translate(20.052 101.44)" fill="#6283cc"/><path d="M55.7,112.908H34.458v26.375H55.7a1.33,1.33,0,0,0,1.325-1.327V114.237a1.337,1.337,0,0,0-1.325-1.329" transform="translate(30.958 101.44)" fill="#5573c6"/><path d="M34.458,127.842v4.507H58.934a3.982,3.982,0,0,0,3.985-3.985v-.522Z" transform="translate(30.958 114.857)" fill="#2a3444"/><path d="M19.214,127.842v.522a3.983,3.983,0,0,0,3.983,3.985H48.154v-4.507Z" transform="translate(17.262 114.857)" fill="#373f51"/><rect width="15.797" height="24.211" transform="translate(49.83 215.428)" fill="#fff"/><path d="M26.576,116.093l.52-.15-.52-.121v-.478l1.057.366v.478l-1.057.385Z" transform="translate(23.877 103.628)" fill="#4adbd1"/><path d="M26.576,120.055l.52-.15-.52-.122v-.48l1.057.366v.478l-1.057.385Z" transform="translate(23.877 107.186)" fill="#4adbd1"/><path d="M26.576,121.374l.52-.15-.52-.12v-.48l1.057.368v.478l-1.057.382Z" transform="translate(23.877 108.372)" fill="#4adbd1"/><path d="M27.521,117.414l.52-.15-.52-.122v-.478l1.057.366v.478l-1.057.383Z" transform="translate(24.726 104.815)" fill="#4adbd1"/><path d="M27.521,118.735l.52-.15-.52-.122v-.48l1.057.368v.478l-1.057.383Z" transform="translate(24.726 106)" fill="#4adbd1"/><rect width="15.379" height="24.211" transform="translate(65.627 215.428)" fill="#e0e0e0"/><rect width="21.424" height="1.266" transform="translate(52.249 218.954)" fill="#373f51"/><path d="M26.576,122.694l.52-.15-.52-.121v-.478l1.057.366v.478l-1.057.383Z" transform="translate(23.877 109.559)" fill="#4adbd1"/><rect width="21.424" height="1.266" transform="translate(52.249 231.485)" fill="#373f51"/><rect width="8.955" height="1.268" transform="translate(54.136 221.46)" fill="#373f51"/><rect width="18.55" height="1.27" transform="translate(54.136 223.964)" fill="#373f51"/><path d="M27.521,124.014l.52-.15-.52-.121v-.478l1.057.366v.48l-1.057.382Z" transform="translate(24.726 110.745)" fill="#4adbd1"/><path d="M27.521,125.336l.52-.15-.52-.122v-.48l1.057.368v.478l-1.057.383Z" transform="translate(24.726 111.93)" fill="#4adbd1"/><rect width="8.955" height="1.268" transform="translate(54.136 233.989)" fill="#373f51"/><rect width="18.55" height="1.27" transform="translate(54.136 236.495)" fill="#373f51"/><rect width="20.879" height="1.266" transform="translate(52.249 228.979)" fill="#373f51"/><rect width="26.339" height="1.268" transform="translate(52.233 226.471)" fill="#373f51"/><rect width="15.797" height="1.908" transform="translate(49.83 215.43)" fill="#373f51"/><rect width="15.379" height="1.908" transform="translate(65.627 215.428)" fill="#2a3444"/><rect width="0.963" height="0.898" transform="translate(79.307 215.935)" fill="#fff"/><rect width="0.964" height="0.898" transform="translate(77.289 215.935)" fill="#fff"/><path d="M39.293,95.351A1.692,1.692,0,0,0,37.567,97l0,23.2A1.691,1.691,0,0,0,39.3,121.84l5.6,0V95.351Z" transform="translate(33.751 85.666)" fill="#373f51"/><path d="M48.754,97a1.7,1.7,0,0,0-1.728-1.646l-5.6,0v26.487h5.6a1.694,1.694,0,0,0,1.728-1.648Z" transform="translate(37.22 85.665)" fill="#2a3444"/><path d="M48.063,97.4a.675.675,0,0,0-.689-.657H41.428V116.5h5.948a.677.677,0,0,0,.689-.661Z" transform="translate(37.22 86.913)" fill="#5573c6"/><path d="M38.621,96.739a.679.679,0,0,0-.691.661l.006,18.438a.674.674,0,0,0,.687.659h5.948V96.739Z" transform="translate(34.078 86.913)" fill="#6283cc"/><path d="M41.473,107.743a.98.98,0,0,0-.37.07.93.93,0,0,0-.609.864.958.958,0,0,0,.98.932h.8v-1.866Z" transform="translate(36.38 96.8)" fill="#2a3444"/><path d="M42.913,108.016a.994.994,0,0,0-.691-.273h-.794v1.868h.794a1.043,1.043,0,0,0,.372-.07.933.933,0,0,0,.607-.864.906.906,0,0,0-.289-.661" transform="translate(37.22 96.8)" fill="#373f51"/><path d="M40.748,95.934a.367.367,0,1,0,0,.733H42.38v-.733Z" transform="translate(36.266 86.19)" fill="#2a3444"/><path d="M43.055,95.934H41.428v.733l1.627,0a.366.366,0,1,0,0-.731" transform="translate(37.22 86.19)" fill="#373f51"/><rect width="11.241" height="17.223" transform="translate(73.027 185.107)" fill="#fff"/><path d="M38.7,99.366l.372-.106-.372-.087v-.34l.756.26v.342l-.756.273Z" transform="translate(34.769 88.794)" fill="#4adbd1"/><path d="M38.7,102.184l.372-.106-.372-.087v-.34l.756.26v.342l-.756.271Z" transform="translate(34.769 91.326)" fill="#4adbd1"/><path d="M38.7,103.121l.372-.1-.372-.087v-.34l.756.26v.34l-.756.273Z" transform="translate(34.769 92.17)" fill="#4adbd1"/><path d="M39.374,100.3l.37-.106-.37-.085v-.342l.748.262v.34l-.748.273Z" transform="translate(35.375 89.638)" fill="#4adbd1"/><path d="M39.374,101.246l.37-.108-.37-.085v-.342l.748.26v.344l-.748.271Z" transform="translate(35.375 90.482)" fill="#4adbd1"/><rect width="7.087" height="0.902" transform="translate(74.741 187.614)" fill="#373f51"/><path d="M38.7,104.062l.372-.106-.372-.085v-.342l.756.26v.342l-.756.273Z" transform="translate(34.769 93.013)" fill="#4adbd1"/><rect width="7.087" height="0.902" transform="translate(74.741 196.528)" fill="#373f51"/><rect width="6.371" height="0.902" transform="translate(76.093 189.395)" fill="#373f51"/><rect width="6.136" height="0.904" transform="translate(75.368 191.178)" fill="#373f51"/><path d="M39.374,105l.37-.106-.37-.085v-.34l.748.26v.34l-.748.271Z" transform="translate(35.375 93.858)" fill="#4adbd1"/><path d="M39.374,105.94l.37-.106-.37-.087v-.34l.748.262v.34l-.748.273Z" transform="translate(35.375 94.701)" fill="#4adbd1"/><rect width="6.371" height="0.904" transform="translate(76.093 198.31)" fill="#373f51"/><rect width="6.136" height="0.904" transform="translate(75.368 200.093)" fill="#373f51"/><rect width="6.91" height="0.902" transform="translate(74.739 194.745)" fill="#373f51"/><rect width="8.71" height="0.902" transform="translate(74.737 192.962)" fill="#373f51"/><rect width="11.241" height="1.357" transform="translate(73.027 185.107)" fill="#373f51"/><rect width="0.685" height="0.64" transform="translate(83.261 185.465)" fill="#fff"/><rect width="0.685" height="0.64" transform="translate(81.828 185.465)" fill="#fff"/><path d="M14.059,101.647H155.71l-7.083-52.569H21.144Z" transform="translate(12.631 44.093)" fill="#fff"/><path d="M33.862,56a5.027,5.027,0,0,0-5.023,5.019V84.1a5.03,5.03,0,0,0,5.023,5.023H71.6V56Z" transform="translate(25.91 50.312)" fill="#2a3444"/><path d="M89.112,56H51.364V89.128H89.112A5.03,5.03,0,0,0,94.134,84.1V61.019A5.027,5.027,0,0,0,89.112,56" transform="translate(46.147 50.312)" fill="#373f51"/><path d="M89.112,56.843H51.364V86.768H89.112a3.422,3.422,0,0,0,3.419-3.421V60.262a3.419,3.419,0,0,0-3.419-3.419" transform="translate(46.147 51.07)" fill="#2a3444"/><path d="M33.1,56.843a3.417,3.417,0,0,0-3.417,3.419V83.347A3.419,3.419,0,0,0,33.1,86.768H70.841V56.843Z" transform="translate(26.67 51.07)" fill="#373f51"/><path d="M.2,0H5.879a.2.2,0,0,1,.2.2V5.877a.2.2,0,0,1-.2.2H.2a.2.2,0,0,1-.2-.2V.2A.2.2,0,0,1,.2,0Z" transform="translate(59.769 110.97)" fill="#f5f5f5"/><path d="M.2,0H5.879a.2.2,0,0,1,.2.2V5.874a.2.2,0,0,1-.2.2H.2a.2.2,0,0,1-.2-.2V.2A.2.2,0,0,1,.2,0Z" transform="translate(59.769 119.839)" fill="#f5f5f5"/><path d="M.2,0H5.879a.2.2,0,0,1,.2.2V5.876a.2.2,0,0,1-.2.2H.2a.2.2,0,0,1-.2-.2V.2A.2.2,0,0,1,.2,0Z" transform="translate(59.769 128.7)" fill="#f5f5f5"/><path d="M.2,0H5.878a.2.2,0,0,1,.2.2V5.877a.2.2,0,0,1-.2.2H.2a.2.2,0,0,1-.2-.2V.2A.2.2,0,0,1,.2,0Z" transform="translate(68.54 110.97)" fill="#f5f5f5"/><path d="M.2,0H5.878a.2.2,0,0,1,.2.2V5.874a.2.2,0,0,1-.2.2H.2a.2.2,0,0,1-.2-.2V.2A.2.2,0,0,1,.2,0Z" transform="translate(68.54 119.839)" fill="#f5f5f5"/><path d="M.2,0H5.874a.2.2,0,0,1,.2.2V5.877a.2.2,0,0,1-.2.2H.2a.2.2,0,0,1-.2-.2V.2A.2.2,0,0,1,.2,0Z" transform="translate(77.1 110.97)" fill="#f5f5f5"/><rect width="6.073" height="6.073" rx="0.199" transform="translate(77.1 119.839)" fill="#f5f5f5"/><path d="M.2,0H5.878a.2.2,0,0,1,.2.2V5.877a.2.2,0,0,1-.2.2H.2a.2.2,0,0,1-.2-.2V.2A.2.2,0,0,1,.2,0Z" transform="translate(85.864 110.97)" fill="#f5f5f5"/><path d="M.2,0H5.878a.2.2,0,0,1,.2.2V5.874a.2.2,0,0,1-.2.2H.2a.2.2,0,0,1-.2-.2V.2A.2.2,0,0,1,.2,0Z" transform="translate(85.864 119.839)" fill="#f5f5f5"/><path d="M.2,0H5.875a.2.2,0,0,1,.2.2V5.879a.2.2,0,0,1-.2.2H.2a.2.2,0,0,1-.2-.2V.2A.2.2,0,0,1,.2,0Z" transform="translate(94.425 110.97)" fill="#f5f5f5"/><path d="M.2,0H5.877a.2.2,0,0,1,.2.2V5.877a.2.2,0,0,1-.2.2H.2a.2.2,0,0,1-.2-.2V.2A.2.2,0,0,1,.2,0Z" transform="translate(103.192 110.97)" fill="#f5f5f5"/><path d="M.2,0H5.875a.2.2,0,0,1,.2.2V5.874a.2.2,0,0,1-.2.2H.2a.2.2,0,0,1-.2-.2V.2A.2.2,0,0,1,.2,0Z" transform="translate(94.425 119.839)" fill="#f5f5f5"/><path d="M67.687,67.792h-31.2a.381.381,0,0,0-.38.382v5.316a.378.378,0,0,0,.38.38h31.2a.378.378,0,0,0,.376-.38V68.174a.38.38,0,0,0-.376-.382" transform="translate(32.436 60.907)" fill="#f5f5f5"/><path d="M68.766,58.454H63.454a.384.384,0,0,0-.383.383v8.484H54.682a.38.38,0,0,0-.38.378v5.316a.382.382,0,0,0,.38.382H68.766a.38.38,0,0,0,.38-.382V58.837a.382.382,0,0,0-.38-.383" transform="translate(48.787 52.517)" fill="#f5f5f5"/><path d="M.2,0H5.877a.2.2,0,0,1,.2.2V5.877a.2.2,0,0,1-.2.2H.2a.2.2,0,0,1-.2-.2V.2A.2.2,0,0,1,.2,0Z" transform="translate(103.192 128.7)" fill="#f5f5f5"/><path d="M.2,0H5.875a.2.2,0,0,1,.2.2V5.876a.2.2,0,0,1-.2.2H.2a.2.2,0,0,1-.2-.2V.2A.2.2,0,0,1,.2,0Z" transform="translate(111.858 128.7)" fill="#f5f5f5"/><path d="M.2,0H5.879a.2.2,0,0,1,.2.2V5.874a.2.2,0,0,1-.2.2H.2a.2.2,0,0,1-.2-.2V.2A.2.2,0,0,1,.2,0Z" transform="translate(120.415 119.839)" fill="#f5f5f5"/><path d="M74.126,68.818a.381.381,0,0,1-.385.38H68.427a.381.381,0,0,1-.38-.38V63.5a.379.379,0,0,1,.38-.378H73.74a.379.379,0,0,1,.385.378Z" transform="translate(61.136 56.714)" fill="#f5f5f5"/><path d="M.2,0H5.88a.2.2,0,0,1,.2.2V5.877a.2.2,0,0,1-.2.2H.2a.2.2,0,0,1-.2-.2V.2A.2.2,0,0,1,.2,0Z" transform="translate(120.415 110.97)" fill="#f5f5f5"/><path d="M.2,0H5.879a.2.2,0,0,1,.2.2V5.877a.2.2,0,0,1-.2.2H.2a.2.2,0,0,1-.2-.2V.2A.2.2,0,0,1,.2,0Z" transform="translate(129.183 110.97)" fill="#f5f5f5"/><path d="M.2,0H5.88a.2.2,0,0,1,.2.2V5.876a.2.2,0,0,1-.2.2H.2a.2.2,0,0,1-.2-.2V.2A.2.2,0,0,1,.2,0Z" transform="translate(120.415 128.7)" fill="#f5f5f5"/><path d="M.2,0H5.879a.2.2,0,0,1,.2.2V5.876a.2.2,0,0,1-.2.2H.2a.2.2,0,0,1-.2-.2V.2A.2.2,0,0,1,.2,0Z" transform="translate(129.183 128.7)" fill="#f5f5f5"/><path d="M42.711,30.9,38.705,71.188H62.738V30.9Z" transform="translate(34.774 27.761)" fill="#2a3444"/><path d="M71.4,30.9H51.364V71.188H75.41Z" transform="translate(46.147 27.761)" fill="#373f51"/><rect width="29.887" height="3.506" transform="translate(67.624 98.948)" fill="#373f51"/><rect width="29.895" height="3.506" transform="translate(97.511 98.948)" fill="#2a3444"/><path d="M110.479,0H51.364V86.54h59.115a5.857,5.857,0,0,0,5.841-5.84V5.84A5.853,5.853,0,0,0,110.479,0" transform="translate(46.147)" fill="#2a3444"/><path d="M22.993,0a5.854,5.854,0,0,0-5.841,5.84V80.7a5.858,5.858,0,0,0,5.841,5.84H82.1V0Z" transform="translate(15.41)" fill="#373f51"/><path d="M23.128,3.275a3.5,3.5,0,0,0-3.5,3.5V69.437a3.515,3.515,0,0,0,3.5,3.508H79.883V3.275Z" transform="translate(17.63 2.942)" fill="#6283cc"/><path d="M108.119,3.275H51.365V72.946h56.754a3.525,3.525,0,0,0,3.512-3.508V6.78a3.513,3.513,0,0,0-3.512-3.5" transform="translate(46.148 2.942)" fill="#5573c6"/><rect width="54.58" height="60.085" transform="translate(43.664 11.772)" fill="#fff"/><path d="M24.138,15.235l1.8-.514-1.8-.42V12.648l3.651,1.264v1.654l-3.651,1.325Z" transform="translate(21.686 11.363)" fill="#4adbd1"/><path d="M24.138,29.768l1.8-.516-1.8-.42V27.179l3.651,1.266v1.65l-3.651,1.327Z" transform="translate(21.686 24.418)" fill="#4adbd1"/><path d="M24.138,34.611l1.8-.514-1.8-.42V32.022l3.651,1.266v1.654l-3.651,1.323Z" transform="translate(21.686 28.77)" fill="#4adbd1"/><path d="M27.4,20.08l1.8-.514-1.8-.42V17.492l3.651,1.264v1.655L27.4,21.733Z" transform="translate(24.617 15.716)" fill="#4adbd1"/><path d="M27.4,24.921l1.8-.514-1.8-.416V22.336L31.051,23.6v1.655L27.4,26.575Z" transform="translate(24.617 20.067)" fill="#4adbd1"/><rect width="53.12" height="60.085" transform="translate(98.246 11.772)" fill="#e0e0e0"/><rect width="74.01" height="4.38" transform="translate(52.019 23.945)" fill="#373f51"/><rect width="30.931" height="4.382" transform="translate(58.553 33.137)" fill="#373f51"/><rect width="64.074" height="4.383" transform="translate(58.553 42.331)" fill="#373f51"/><rect width="72.135" height="4.383" transform="translate(52.019 60.723)" fill="#373f51"/><rect width="90.988" height="4.38" transform="translate(51.971 51.527)" fill="#373f51"/><rect width="54.58" height="6.589" transform="translate(43.664 11.774)" fill="#373f51"/><rect width="53.12" height="6.589" transform="translate(98.246 11.772)" fill="#2a3444"/><rect width="3.33" height="3.104" transform="translate(145.496 13.519)" fill="#fff"/><rect width="3.328" height="3.104" transform="translate(138.527 13.519)" fill="#fff"/><path d="M73.613,45.187c0,3.776-1.6,6.838-3.579,6.838s-3.584-3.062-3.584-6.838,1.606-6.834,3.584-6.834,3.579,3.06,3.579,6.834" transform="translate(59.701 34.458)" fill="#eac3a4"/><path d="M95.4,45.187c0,3.776-1.6,6.838-3.579,6.838s-3.579-3.062-3.579-6.838,1.6-6.834,3.579-6.834,3.579,3.06,3.579,6.834" transform="translate(79.28 34.458)" fill="#eac3a4"/><rect width="12.385" height="25.53" transform="translate(138.035 99.098)" fill="#d49a6c"/><rect width="12.385" height="25.53" transform="translate(150.422 99.098)" fill="#eac3a4"/><path d="M67.362,47.887V61.035A22.36,22.36,0,0,0,89.9,83.211v-57.5A22.36,22.36,0,0,0,67.362,47.887" transform="translate(60.52 23.1)" fill="#212e44"/><path d="M79.234,25.712v57.5a22.361,22.361,0,0,0,22.538-22.177V47.888A22.36,22.36,0,0,0,79.234,25.712" transform="translate(71.186 23.1)" fill="#222a38"/><path d="M155.145,103.824,151.6,93.867l-5.673-16.03-.023-.046-2.6-7.305a9.825,9.825,0,0,0-10.43-6.4l-3.267-.909-3.449-.951-1.895-.514-8.251-2.255V71.205H91.227V59.456L83,61.711l-1.916.514-.4.114-6.318,1.747a9.867,9.867,0,0,0-10,5.4c-.14.327-.306.653-.423,1l-2.6,7.305-5.7,16.076-3.541,9.957Z" transform="translate(46.8 53.417)" fill="#32baad"/><path d="M133.432,103.824V80.1a1.519,1.519,0,0,0-1.536-1.513h-2.812a9.836,9.836,0,0,1-9.908-9.728V62.226l-1.895-.514-8.252-2.255H84.247l-8.232,2.255-1.916.514v6.629a9.817,9.817,0,0,1-9.885,9.728H61.373A1.505,1.505,0,0,0,59.86,80.1v23.728Z" transform="translate(53.78 53.417)" fill="#4adbd1"/><path d="M72.71,54.077l1.959,3.21,5.42,1.027,5,1.883V54.077Z" transform="translate(65.325 48.584)" fill="#212e44"/><path d="M79.232,54.077V60.2h0l4.613-2.47,4.98-.44,2.793-3.21Z" transform="translate(71.185 48.584)" fill="#222a38"/><path d="M172.738,40.262h-.049A12.777,12.777,0,0,0,159.5,52.3c-.311,3.5-.391,6.66,5.314,13.431,1.192,1.416,1.528,4.245,1.652,5.908.068.907,4.439,1.523,6.075,1.654h0Z" transform="translate(143.194 36.173)" fill="#e6b046"/><path d="M179.6,52.465a12.777,12.777,0,0,0-13.046-12.2l-.047,0-.2,33.033c1.627-.11,6.01-.674,6.088-1.579.142-1.661.516-4.484,1.728-5.885,5.785-6.705,5.743-9.87,5.473-13.365" transform="translate(149.421 36.173)" fill="#d8923d"/><path d="M169.362,66.4a1.107,1.107,0,0,1-1.037-.746l-5.354-15.62a1.1,1.1,0,0,1,1.046-1.46l10.9.068a1.1,1.1,0,0,1,1.033,1.471l-5.547,15.554a1.1,1.1,0,0,1-1.046.733m-3.8-15.613,3.831,11.176,3.968-11.129Z" transform="translate(146.364 43.637)" fill="#9b6524"/><path d="M162.678,55.27l-.053,8.953h0c.009.156.207.359.6.577l4.738,2.679a3.353,3.353,0,0,0,1.606.385l.078-12.554Z" transform="translate(146.107 49.656)" fill="#373f51"/><path d="M166.362,55.291l-.078,12.552a3.381,3.381,0,0,0,1.617-.364l4.769-2.62c.391-.216.592-.416.606-.571l.053-8.953Z" transform="translate(149.395 49.675)" fill="#2a3444"/><path d="M169.552,41.68a2.117,2.117,0,0,1-4.234-.027l.04-6.519a2.116,2.116,0,0,1,4.232.023Z" transform="translate(148.527 29.676)" fill="#e6b046"/><path d="M163.889,41.839a2.114,2.114,0,1,1-3.009,2.971L156.3,40.174a2.116,2.116,0,1,1,3.011-2.973Z" transform="translate(139.871 32.857)" fill="#e6b046"/><path d="M173.135,41.883a2.115,2.115,0,0,0,2.973,3.009l4.644-4.583a2.117,2.117,0,0,0-2.977-3.011Z" transform="translate(154.986 32.961)" fill="#e6b046"/><path d="M160.613,44.518a2.116,2.116,0,1,1-.027,4.232l-6.521-.042a2.114,2.114,0,1,1,.027-4.228Z" transform="translate(136.526 39.962)" fill="#e6b046"/><path d="M183.8,44.659a2.115,2.115,0,1,1-.03,4.23l-6.517-.04a2.114,2.114,0,1,1,.021-4.228Z" transform="translate(157.353 40.089)" fill="#e6b046"/><path d="M174.175,57.671a.9.9,0,0,0-.894-.9l-6.962-.044-.009,1.794,6.96.042a.9.9,0,0,0,.906-.89" transform="translate(149.418 50.964)" fill="#cccece"/><path d="M163.078,56.705a.9.9,0,1,0-.013,1.792l6.963.042.008-1.794Z" transform="translate(145.702 50.946)" fill="#fff"/><path d="M163.066,58.67a.9.9,0,0,0-.011,1.794l6.96.042.011-1.8Z" transform="translate(145.693 52.711)" fill="#fff"/><path d="M173.27,58.734l-6.96-.042-.011,1.794,6.96.042a.9.9,0,0,0,.011-1.794" transform="translate(149.408 52.731)" fill="#cccece"/><path d="M99.671,117.983a6.755,6.755,0,0,1,4.756-11.55V91.768l-1.8.008a.987.987,0,0,0-.983.987l-.816,4.592a1.189,1.189,0,0,1-.095.463,15.657,15.657,0,0,0-3.161,1.128,1.181,1.181,0,0,1-1.012-.321l-3.848-2.641a.981.981,0,0,0-1.388.006l-3.313,3.337a.977.977,0,0,0,.008,1.388l2.671,3.823a1.126,1.126,0,0,1,.254.4,16.034,16.034,0,0,0-1.437,3.034,1.168,1.168,0,0,1-.94.488l-4.587.852A.98.98,0,0,0,83,110.3l.019,4.7a.984.984,0,0,0,.985.978l4.592.814a1.223,1.223,0,0,1,.465.1,15.676,15.676,0,0,0,1.126,3.159,1.187,1.187,0,0,1-.321,1.014l-2.639,3.846a.981.981,0,0,0,0,1.388l3.337,3.311a.989.989,0,0,0,1.393-.006l3.822-2.671a1.121,1.121,0,0,1,.395-.258,15.757,15.757,0,0,0,3.034,1.439,1.2,1.2,0,0,1,.492.94l.847,4.589a.982.982,0,0,0,.989.976l2.888-.01V119.943a6.746,6.746,0,0,1-4.756-1.959" transform="translate(74.569 82.447)" fill="#e6b046"/><path d="M115.719,116.084l-.019-4.7a.984.984,0,0,0-.985-.98l-4.592-.813a1.173,1.173,0,0,1-.467-.1,15.71,15.71,0,0,0-1.124-3.159,1.17,1.17,0,0,1,.319-1.012l2.637-3.846a.976.976,0,0,0,0-1.388l-3.336-3.311a.983.983,0,0,0-1.39.006l-3.825,2.673a1.212,1.212,0,0,1-.395.254,15.8,15.8,0,0,0-3.034-1.437,1.176,1.176,0,0,1-.49-.942l-.849-4.587a.986.986,0,0,0-.991-.978l-2.891.011v14.663a6.756,6.756,0,1,1,0,13.511v14.662L96.1,134.6a.978.978,0,0,0,.976-.983l.818-4.6a1.174,1.174,0,0,1,.1-.461,16.092,16.092,0,0,0,3.161-1.126,1.187,1.187,0,0,1,1.014.319l3.846,2.643a.984.984,0,0,0,1.388-.008l3.311-3.337a.985.985,0,0,0-.008-1.39l-2.669-3.823a1.146,1.146,0,0,1-.258-.4,15.745,15.745,0,0,0,1.439-3.032,1.183,1.183,0,0,1,.94-.49l4.587-.851a.985.985,0,0,0,.98-.987" transform="translate(84.71 82.443)" fill="#e6b046"/><path d="M118.147,109.138a4.752,4.752,0,0,1,3.347-8.123V90.7l-1.27,0a.7.7,0,0,0-.691.695l-.573,3.229a.867.867,0,0,1-.066.328,10.882,10.882,0,0,0-2.227.79.834.834,0,0,1-.708-.224l-2.705-1.86a.69.69,0,0,0-.976.008l-2.327,2.345a.689.689,0,0,0,0,.978l1.879,2.688a.894.894,0,0,1,.178.281,10.882,10.882,0,0,0-1.014,2.13.83.83,0,0,1-.661.347l-3.222.6a.691.691,0,0,0-.691.691l.013,3.305a.694.694,0,0,0,.695.689l3.227.571a.741.741,0,0,1,.325.074,11.314,11.314,0,0,0,.8,2.219.828.828,0,0,1-.226.712l-1.857,2.7a.692.692,0,0,0,0,.978l2.346,2.328a.694.694,0,0,0,.98-.006l2.686-1.878a.83.83,0,0,1,.277-.18,11.036,11.036,0,0,0,2.132,1.01.837.837,0,0,1,.347.664l.6,3.224a.691.691,0,0,0,.695.687l2.033-.006V110.514a4.743,4.743,0,0,1-3.347-1.376" transform="translate(95.615 81.491)" fill="#4adbd1"/><path d="M129.428,107.8l-.015-3.305a.687.687,0,0,0-.689-.687l-3.229-.573a.835.835,0,0,1-.328-.07,10.871,10.871,0,0,0-.79-2.221.814.814,0,0,1,.224-.712l1.857-2.705a.693.693,0,0,0,0-.976L124.1,94.223a.687.687,0,0,0-.974,0L120.443,96.1a.819.819,0,0,1-.279.18,11.155,11.155,0,0,0-2.132-1.01.832.832,0,0,1-.346-.663l-.6-3.224a.687.687,0,0,0-.689-.689l-2.033.009v10.309a4.75,4.75,0,0,1,0,9.5V120.83l1.27-.006a.7.7,0,0,0,.691-.695l.573-3.229a.825.825,0,0,1,.068-.327,10.991,10.991,0,0,0,2.221-.792.838.838,0,0,1,.712.224l2.705,1.859a.688.688,0,0,0,.976-.006l2.329-2.346a.691.691,0,0,0,0-.974l-1.881-2.69a.906.906,0,0,1-.18-.277,11.128,11.128,0,0,0,1.014-2.134.82.82,0,0,1,.659-.344l3.225-.6a.686.686,0,0,0,.687-.693" transform="translate(102.746 81.488)" fill="#32baad"/></g></svg>