<svg xmlns="http://www.w3.org/2000/svg" xmlns:xlink="http://www.w3.org/1999/xlink" width="119.627" height="119.541" viewBox="0 0 119.627 119.541"><defs><clipPath id="a"><rect width="119.627" height="119.541" fill="none"/></clipPath><linearGradient id="b" x1="0.5" x2="0.5" y2="1" gradientUnits="objectBoundingBox"><stop offset="0" stop-color="#fff"/><stop offset="0.463" stop-color="#e9fffe"/><stop offset="1" stop-color="#fff"/></linearGradient></defs><g transform="translate(0 573)"><g transform="translate(0 -573)" clip-path="url(#a)"><path d="M4.91,143.692H4.428C1.947,142.64.133,141.065.1,138.117c-.016-1.362.036-2.727-.018-4.087a5.491,5.491,0,0,1,1.673-4.084l.263-.195a2.063,2.063,0,0,1,.46-.367c.974-.392,1.671-.894,1.495-2.151-.137-.976-.034-1.984-.082-2.976-.006-.117-.279-.254-.451-.322a6.253,6.253,0,0,1-1.422-1.008l-.262-.195a4.647,4.647,0,0,1-1.412-2.36,21.7,21.7,0,0,1-.113-7.01,3.706,3.706,0,0,1,1.95-3.065,2.624,2.624,0,0,0,1.773-3.214A3.3,3.3,0,0,1,3.958,106a1.445,1.445,0,0,0-1.044-1.734,4.6,4.6,0,0,1-2.559-3.16C-.25,99.3.153,97.392.1,95.529a5.625,5.625,0,0,1,5.835-5.818c2.81-.02,5.622-.049,8.431.02.947.023,1.17-.238,1.167-1.173C15.5,76.794,15.521,65.03,15.5,53.265a2.242,2.242,0,0,1,.726-1.765q9.436-9.385,18.815-18.828a2.511,2.511,0,0,1,1.968-.828q23.186.041,46.373.02c1.541,0,1.541,0,1.541,1.594q0,15.056.013,30.113c0,.35-.28.854.231,1.055,1.084.426,1.931,1.336,3.129,1.521.025.154.052.332.249.324s.211-.189.234-.342c.49-.027.888-.068.993-.735a11.742,11.742,0,0,1,.641-1.935c.274-.155.312-.325.03-.513a6.147,6.147,0,0,0,.26-1c.081-.883.455-1.218,1.409-1.187,2.445.08,4.894.027,7.342.027,2.5,0,2.544-.008,3.022,2.393a18.9,18.9,0,0,0,.492,1.914c.361,1.169,1.043,1.515,2.121.927,1.017-.554,2-1.165,2.994-1.767a1.111,1.111,0,0,1,1.625.2c2.054,2.143,4.159,4.239,6.293,6.3.526.509.438.853.111,1.388-.647,1.06-1.214,2.168-1.827,3.25-.452.8-.1,1.819.441,1.911,1.689.284,3.229,1.039,4.9,1.319V89.465c-1.43-.042-2.663.749-4.037.955a1.58,1.58,0,0,0-1.176,2.6c.6.956,1.218,1.9,1.812,2.859a.752.752,0,0,1-.113,1.11c-2.215,2.148-4.39,4.339-6.555,6.538a.84.84,0,0,1-1.222.176c-1.1-.649-2.26-1.2-3.374-1.826a1.275,1.275,0,0,0-1.973.753c-.362,1.265-.792,2.513-1.107,3.79-.132.533-.332.664-.858.657-2.325-.033-4.65-.008-6.975-.017-1,0-2.319.34-2.908-.161-.648-.55-.519-1.937-.921-2.877-.352-.821-.009-2.146-1.442-2.3l-.252-.2c-.979.21-1.643,1.037-2.526,1.357-1.019.37-1.091,1.014-1.09,1.908.02,11.317,0,22.635.034,33.952,0,.873-.167,1.128-1.093,1.123-8.147-.043-16.294-.025-24.44-.025q-6.26,0-12.521.006c-.446,0-1.013-.2-1.23.427-.685,1.976-2.363,2.741-4.117,3.424H5.633c-.241-.311-.482-.313-.723,0m40.962-22.92c-.131.038-.241.091-.186.26-.409.816-.8,1.838-1.625,2.113-1.881.624-1.561,2.045-1.555,3.414a11.144,11.144,0,0,1-.009,1.324,1.063,1.063,0,0,0,.776,1.272,3.753,3.753,0,0,1,1.7,1.356,7.657,7.657,0,0,1,1.356,4.515c.032.8.247.972,1.01.97q16.384-.037,32.768,0c.8,0,.978-.225.976-1q-.038-16.384,0-32.769a2.451,2.451,0,0,0-.8-1.882c-1.12-1.094-2.2-2.233-3.334-3.308a.89.89,0,0,1-.211-1.318c.618-.994,1.178-2.025,1.744-3.05a1.417,1.417,0,0,0-.95-2.261,26.677,26.677,0,0,0-3.376-.878c-.823-.1-.807-.472-.8-1.064.016-2.731.1-5.466-.033-8.19-.061-1.263.345-1.816,1.512-2.062.942-.2,1.853-.539,2.785-.792a1.441,1.441,0,0,0,.975-2.1c-.595-1.1-1.2-2.2-1.864-3.253a.819.819,0,0,1,.172-1.222c1.128-1.086,2.21-2.219,3.335-3.307a2.562,2.562,0,0,0,.853-1.983q-.034-14.4,0-28.793c0-.813-.154-1.071-1.027-1.069q-20.179.046-40.357-.006c-.983,0-1.072.332-1.068,1.153.032,5.662,0,11.324.037,16.987.006.9-.164,1.2-1.148,1.195-5.7-.054-11.4-.009-17.106-.046-.817-.005-1.07.158-1.067,1.03q.05,16.324-.007,32.648c0,.992.344,1.068,1.158,1.063,5.541-.031,11.083-.02,16.625-.014a29.9,29.9,0,0,1,4.638.22c1.8.283,4.114,2.453,4.355,4.267a18,18,0,0,1-.247,7.292c-.13.04-.242.094-.186.265-.406.818-.8,1.838-1.624,2.113-1.881.625-1.565,2.044-1.554,3.416,0,.482.029.966-.007,1.445a.916.916,0,0,0,.685,1.074,4.558,4.558,0,0,1,2.713,3.3,15.064,15.064,0,0,1-.025,7.667m65.782-48.658c.063-.432-.208-.584-.4-.777-.621-.628-1.3-1.205-1.86-1.885a1.364,1.364,0,0,0-2.213-.212c-1.528,1.2-3.14,1.8-4.93.461-.208-.154-.541-.131-.77-.267-.854-.506-1.859-.83-1.915-2.135a15.9,15.9,0,0,0-.582-2.016c-.1-.563-.356-.67-.872-.653-1.163.038-2.329.026-3.493.006-.493-.009-.7.038-.8.669-.373,2.309-1.262,4.267-3.948,4.68a1.968,1.968,0,0,0-.938.434.969.969,0,0,1-1.3.022c-.7-.425-1.463-.772-2.125-1.253a1.192,1.192,0,0,0-1.9.244A12.973,12.973,0,0,1,81.731,71.3c-.678.546-.646.974-.175,1.657,1.076,1.561,2.236,3.165.54,5.053a1.141,1.141,0,0,0-.181.656c-.081,1.74-1.393,2.026-2.678,2.366a2.918,2.918,0,0,1-.677.171c-1.229.011-1.529.7-1.356,1.776a4.582,4.582,0,0,1,.006.722c0,3.1,0,3.1,3.082,3.594.157.025.34-.039.476.019.382.162.718.273.833.843a8.208,8.208,0,0,0,.967,2.6,2.072,2.072,0,0,1-.117,2.6c-1.594,2.318-1.541,2.354.464,4.357a17.622,17.622,0,0,1,1.267,1.287c.276.34.514.258.791.088.7-.426,1.4-.845,2.078-1.3a1.842,1.842,0,0,1,2.327-.1,6.63,6.63,0,0,0,2.572,1.054c.874.185,1.083.571,1.2,1.413.434,3.06.482,3.053,3.572,3.053a5.093,5.093,0,0,1,1.082.013c.9.2,1.236-.311,1.31-1.035a4.431,4.431,0,0,1,3.551-4.224c1.467-.452,2.543-.731,3.831.19.55.393,1.08,1.222,1.736,1.017.616-.192,1.064-.932,1.576-1.442,2.027-2.022,2.043-2.035.442-4.469-.5-.756-.836-1.351-.134-2.251a6.646,6.646,0,0,0,1.037-2.465,1.493,1.493,0,0,1,1.4-1.276c3.235-.649,3.226-.693,3.226-4.035a2.438,2.438,0,0,1,0-.481c.191-.932-.232-1.335-1.129-1.481-1.888-.307-3.713-.721-3.946-3.151a2.171,2.171,0,0,0-.5-1.044c-.8-1.016-.468-1.862.219-2.781a17.626,17.626,0,0,0,1.221-2.173M23.047,139.835q8.606,0,17.213,0a1.972,1.972,0,0,0,2.239-2.171c.035-.921.008-1.846.007-2.768,0-2.059-.716-2.769-2.787-2.769H10.709c-1.605,0-3.211-.024-4.815.01-1.4.03-1.924.588-1.942,1.969-.015,1.2-.014,2.407,0,3.611.015,1.643.485,2.116,2.125,2.118q8.487.009,16.973,0m.012-19.28q8.547,0,17.093,0c1.619,0,2.315-.688,2.351-2.3.02-.883,0-1.766,0-2.648,0-2.05-.719-2.757-2.8-2.757H9.132c-1.124,0-2.249-.032-3.37.017a1.635,1.635,0,0,0-1.806,1.854c-.02,1.244-.017,2.488-.006,3.732.015,1.633.489,2.1,2.137,2.106q8.486.009,16.973,0m.017-19.28q8.546,0,17.093,0c1.6,0,2.3-.7,2.335-2.321.018-.842,0-1.685,0-2.528,0-2.163-.687-2.861-2.816-2.861H6.828c-.361,0-.724-.015-1.083.012a1.69,1.69,0,0,0-1.791,1.876c-.018,1.244-.017,2.488,0,3.732.016,1.62.494,2.088,2.153,2.09q8.487.009,16.973,0m.139,7.712H35.971c2.685,0,2.634,0,2.706-2.638.027-1-.234-1.248-1.239-1.243-8.985.043-17.97.025-26.956.025-2.7,0-2.655,0-2.7,2.759-.016.9.212,1.13,1.117,1.12,4.773-.05,9.547-.023,14.32-.023m-.123,19.28H35.968c2.688,0,2.637,0,2.708-2.635.027-1-.227-1.251-1.236-1.246-8.985.044-17.97.026-26.955.026-2.7,0-2.659,0-2.706,2.756-.015.893.2,1.133,1.113,1.124,4.733-.051,9.466-.024,14.2-.024M34.794,38.6,22.26,51.145c3.912,0,7.9,0,11.9.006.437,0,.648-.1.646-.593-.015-3.953-.008-7.906-.008-11.954" transform="translate(0 -24.151)"/><path d="M20.324,494.084c.241-.313.482-.311.723,0Z" transform="translate(-15.414 -374.543)" fill="#020202"/><path d="M106.589,113.57a18,18,0,0,0,.247-7.292c-.241-1.814-2.551-3.984-4.355-4.267a29.933,29.933,0,0,0-4.638-.221c-5.542-.006-11.083-.017-16.625.014-.814,0-1.162-.072-1.158-1.063q.068-16.324.007-32.648c0-.871.251-1.035,1.067-1.03,5.7.037,11.4-.008,17.106.046.984.009,1.155-.3,1.148-1.2-.04-5.662,0-11.324-.037-16.986,0-.822.085-1.156,1.068-1.153q20.178.062,40.357.006c.874,0,1.03.255,1.027,1.069q-.044,14.4,0,28.793a2.563,2.563,0,0,1-.853,1.983c-1.126,1.088-2.207,2.221-3.335,3.307a.819.819,0,0,0-.172,1.222c.668,1.055,1.27,2.154,1.864,3.253a1.441,1.441,0,0,1-.975,2.1c-.932.253-1.843.593-2.785.792-1.167.246-1.573.8-1.512,2.062.132,2.724.05,5.46.033,8.19,0,.592-.02.963.8,1.064a26.681,26.681,0,0,1,3.376.879,1.416,1.416,0,0,1,.95,2.261c-.566,1.025-1.126,2.056-1.744,3.05a.89.89,0,0,0,.211,1.318c1.138,1.075,2.214,2.214,3.334,3.308a2.452,2.452,0,0,1,.8,1.882q-.03,16.384,0,32.769c0,.77-.174,1-.976,1q-16.384-.043-32.768,0c-.762,0-.977-.169-1.01-.97a7.658,7.658,0,0,0-1.356-4.515,3.752,3.752,0,0,0-1.7-1.356,1.063,1.063,0,0,1-.776-1.272,11.2,11.2,0,0,0,.009-1.324c-.006-1.369-.327-2.79,1.555-3.414.829-.275,1.216-1.3,1.625-2.112l.186-.261a15.066,15.066,0,0,0,.025-7.667,4.557,4.557,0,0,0-2.713-3.3.916.916,0,0,1-.685-1.074c.036-.479.01-.963.007-1.445-.011-1.371-.328-2.791,1.554-3.416.829-.275,1.218-1.3,1.624-2.113l.186-.265m4.348,17.142c0,4.176.022,8.353-.019,12.529-.008.791.207.986.989.984q12.529-.043,25.057,0c.79,0,.986-.207.984-.988q-.044-12.529,0-25.058c0-.79-.207-.986-.988-.983q-12.529.044-25.057,0c-.79,0-.992.206-.984.989.04,4.176.019,8.352.019,12.529m9.64-79.053c-5.461,0-10.922.016-16.383-.019-.784-.005-.995.2-.988.985q.059,6.746,0,13.492c-.007.79.206.986.988.984q16.383-.04,32.766,0c.783,0,.995-.2.988-.984-.04-4.457-.048-8.915,0-13.372.011-.9-.216-1.117-1.114-1.11-5.42.047-10.842.023-16.263.023M109.132,86.364H86.6c-2.663,0-2.61,0-2.686,2.648-.029,1.008.237,1.235,1.237,1.233q23.069-.054,46.139-.025c2.794,0,2.75,0,2.8-2.769.018-.9-.216-1.115-1.114-1.11-7.951.039-15.9.023-23.852.023m0-7.712H86.6c-2.662,0-2.608,0-2.685,2.649-.029,1.011.242,1.234,1.238,1.231q23.069-.053,46.139-.025c2.792,0,2.748,0,2.8-2.77.018-.908-.221-1.113-1.116-1.108-7.951.039-15.9.023-23.852.023m5.658-7.712H94.309c-2.656,0-2.6,0-2.68,2.656-.03,1.021.259,1.228,1.245,1.225q21.141-.054,42.283-.024c2.787,0,2.741,0,2.8-2.776.019-.92-.239-1.106-1.122-1.1-7.348.038-14.7.022-22.045.022M99.248,97.932h12.768c2.792,0,2.748,0,2.8-2.77.018-.907-.219-1.113-1.115-1.109-8.953.037-17.907.023-26.86.023-2.935,0-2.9,0-2.919,2.891,0,.79.208.99.991.984,4.777-.037,9.555-.019,14.333-.019M122.5,109.5H113.71c-2.787,0-2.742,0-2.8,2.774-.019.915.232,1.11,1.12,1.1,6.383-.042,12.766-.022,19.149-.022,2.931,0,2.9,0,2.915-2.9,0-.8-.221-.988-1-.979-3.532.042-7.065.018-10.6.018m-1.837-11.569c1.841,0,1.841,0,1.841-1.9,0-1.961,0-1.961-2.015-1.961-1.841,0-1.841,0-1.841,1.9,0,1.961,0,1.961,2.015,1.961m5.7-2.024c0,2.024,0,2.024,1.953,2.024,1.9,0,1.9,0,1.9-1.953,0-1.9,0-1.9-1.953-1.9-1.9,0-1.9,0-1.9,1.832M87.8,72.871c0-1.932,0-1.932-1.924-1.932s-1.932,0-1.932,1.924,0,1.932,1.924,1.932,1.932,0,1.932-1.924" transform="translate(-60.719 -36.233)" fill="#e6e8ed"/><path d="M353.881,175.031a17.649,17.649,0,0,1-1.221,2.173c-.687.92-1.022,1.766-.219,2.781a2.172,2.172,0,0,1,.5,1.044c.233,2.43,2.058,2.844,3.946,3.151.9.146,1.319.549,1.128,1.481a2.458,2.458,0,0,0,0,.481c0,3.342.009,3.387-3.226,4.035a1.493,1.493,0,0,0-1.4,1.276,6.64,6.64,0,0,1-1.038,2.465c-.7.9-.363,1.5.134,2.251,1.6,2.434,1.586,2.447-.442,4.469-.511.51-.96,1.249-1.576,1.442-.656.205-1.186-.624-1.736-1.017-1.287-.921-2.364-.642-3.83-.19a4.431,4.431,0,0,0-3.551,4.224c-.073.725-.414,1.235-1.31,1.035a5.075,5.075,0,0,0-1.081-.013c-3.09,0-3.138.007-3.572-3.053-.119-.841-.329-1.228-1.2-1.413a6.627,6.627,0,0,1-2.572-1.053,1.842,1.842,0,0,0-2.327.1c-.679.453-1.382.872-2.078,1.3-.278.17-.515.251-.791-.088a17.575,17.575,0,0,0-1.267-1.287c-2-2-2.058-2.04-.464-4.357a2.072,2.072,0,0,0,.117-2.6,8.215,8.215,0,0,1-.968-2.6c-.115-.57-.451-.681-.833-.843-.137-.058-.32.007-.476-.019-3.082-.492-3.082-.493-3.082-3.594a4.587,4.587,0,0,0-.006-.722c-.174-1.077.127-1.765,1.356-1.775a2.9,2.9,0,0,0,.677-.171c1.284-.34,2.6-.625,2.677-2.365a1.142,1.142,0,0,1,.182-.656c1.695-1.887.536-3.492-.54-5.052-.471-.683-.5-1.111.175-1.657a13,13,0,0,0,1.874-1.868,1.192,1.192,0,0,1,1.9-.244c.662.481,1.421.828,2.125,1.253a.969.969,0,0,0,1.3-.022,1.968,1.968,0,0,1,.938-.435c2.686-.413,3.574-2.371,3.947-4.679.1-.631.312-.678.8-.669,1.164.021,2.33.033,3.493-.005.516-.017.767.09.872.653a15.965,15.965,0,0,1,.582,2.016c.056,1.306,1.062,1.629,1.915,2.136.23.136.563.113.77.267,1.791,1.335,3.4.735,4.93-.461a1.364,1.364,0,0,1,2.213.212c.557.68,1.239,1.256,1.86,1.885.191.193.462.345.4.777m-26.724,11.775c-.409,5.941,5.364,12.221,12.224,11.607,5.884-.527,10.865-4.928,10.8-11.58-.074-7.117-5.171-11.57-12.021-11.5a11.25,11.25,0,0,0-11,11.477" transform="translate(-242.227 -127.069)" fill="#f4a338"/><path d="M35.417,454.62q-8.486,0-16.973,0c-1.64,0-2.11-.476-2.125-2.119-.011-1.2-.013-2.408,0-3.611.018-1.382.546-1.939,1.942-1.969,1.6-.035,3.21-.011,4.815-.011h29.01c2.072,0,2.785.71,2.788,2.77,0,.923.028,1.847-.007,2.768a1.972,1.972,0,0,1-2.239,2.171q-8.607.013-17.213,0" transform="translate(-12.37 -338.935)" fill="#4adbd1"/><path d="M35.429,374.8q-8.486,0-16.973,0c-1.648,0-2.122-.474-2.137-2.106-.012-1.244-.014-2.488.006-3.732a1.635,1.635,0,0,1,1.806-1.854c1.121-.05,2.247-.017,3.37-.017H52.076c2.081,0,2.8.707,2.8,2.757,0,.883.016,1.766,0,2.648-.036,1.616-.732,2.3-2.351,2.3q-8.547.009-17.093,0" transform="translate(-12.37 -278.4)" fill="#4adbd1"/><path d="M35.446,295.015q-8.487,0-16.973,0c-1.659,0-2.137-.47-2.153-2.09-.012-1.244-.014-2.488,0-3.732a1.69,1.69,0,0,1,1.791-1.876c.359-.027.722-.012,1.083-.012H52.061c2.13,0,2.815.7,2.816,2.861,0,.843.014,1.686,0,2.528-.034,1.621-.73,2.319-2.334,2.321q-8.547.009-17.093,0" transform="translate(-12.371 -217.892)" fill="#4adbd1"/><path d="M47.631,338.976c-4.773,0-9.547-.026-14.32.023-.905.009-1.133-.222-1.117-1.12.048-2.758.007-2.759,2.7-2.759,8.985,0,17.971.018,26.955-.025,1.005,0,1.267.242,1.24,1.243-.072,2.637-.02,2.638-2.706,2.638Z" transform="translate(-24.416 -254.141)" fill="url(#b)"/><path d="M47.509,418.785c-4.733,0-9.467-.027-14.2.024-.911.01-1.129-.231-1.113-1.124.047-2.755.007-2.756,2.706-2.756,8.985,0,17.97.018,26.955-.025,1.01-.005,1.263.249,1.236,1.246-.071,2.634-.02,2.635-2.709,2.635H47.509" transform="translate(-24.417 -314.669)" fill="url(#b)"/><path d="M104.675,59.827c0,4.048-.007,8,.008,11.954,0,.5-.209.594-.646.593-3.992-.011-7.984-.006-11.9-.006l12.534-12.541" transform="translate(-69.881 -45.374)" fill="#5573c6"/><path d="M372.955,161.1c-.188-.019-.424.01-.412-.278s.273-.194.442-.235c.281.188.243.358-.03.513" transform="translate(-282.542 -121.789)" fill="#040404"/><path d="M365.485,173.778l.483-.018c-.023.153-.041.334-.234.343s-.224-.17-.249-.324" transform="translate(-277.189 -131.782)" fill="#020202"/><path d="M189.241,320.12l-.186.265c-.055-.171.056-.224.186-.265" transform="translate(-143.37 -242.784)" fill="#e3e5ea"/><path d="M366.684,320.449c-.172.049-.226-.054-.251-.2l.251.2" transform="translate(-277.907 -242.885)" fill="#020202"/><path d="M189.248,399.944l-.186.261c-.055-.17.055-.223.186-.261" transform="translate(-143.376 -303.323)" fill="#e3e5ea"/><path d="M7.52,408.257c-.171.048-.227-.059-.262-.195l.262.195" transform="translate(-5.505 -309.48)" fill="#020202"/><path d="M7.256,437.272c.036-.135.092-.242.263-.195l-.263.195" transform="translate(-5.503 -331.477)" fill="#020202"/><path d="M121.595,5.07c.456,1.406,1.462,2.715.76,4.324,1.125,4.818.044,9.709.578,14.632,1.168-1.714,2.4-3.374,3.455-5.143.426-.718.75-.5,1.182-.238,2.679,1.631,2.677,1.637.948,4.211-2.382,3.546-4.783,7.079-7.132,10.647-.45.684-.74.783-1.2.082-2.763-4.2-5.506-8.412-8.32-12.577-.437-.646-.37-.854.285-1.068a2.32,2.32,0,0,0,.3-.175c.811-.412,1.552-1.55,2.308-1.273.715.262,1.111,1.417,1.63,2.191.768,1.146,1.52,2.3,2.279,3.455.477-.248.289-.612.29-.889.014-4.135.064-8.27-.012-12.4-.041-2.211-.38-4.389-2.393-5.832l-.264-.182a9.709,9.709,0,0,0-4.759-.99q-34.626.036-69.253,0a6.054,6.054,0,0,0-6.1,4.321,3.638,3.638,0,0,0-.089.931c-.016,3.091-.042,6.183,0,9.274.009.73-.155.936-.915.935-2.959,0-2.959.028-2.959-2.968,0-2.369.1-4.742-.021-7.105-.2-3.868,3.733-8.7,7.995-9.037C41.324.1,42.467.008,43.612.007Q78-.007,112.383.008a11.046,11.046,0,0,1,6.781,2.157c.05.13.105.252.283.206l1.913,2.214c.044.178-.041.419.236.484" transform="translate(-24.404 0.001)"/><path d="M34.106,131.554c-1.811,0-1.811,0-1.811-1.8,0-2.053,0-2.053,2.045-2.053,1.812,0,1.812,0,1.812,1.8,0,2.052,0,2.052-2.045,2.052" transform="translate(-24.493 -96.848)"/><path d="M36.152,97.766c0,1.865,0,1.865-1.871,1.865-1.985,0-1.985,0-1.985-1.992,0-1.864,0-1.864,1.871-1.864,1.985,0,1.985,0,1.985,1.991" transform="translate(-24.494 -72.637)"/><path d="M401.564,19.469c-.277-.065-.192-.306-.236-.484.316.045.632.091.236.484" transform="translate(-304.373 -14.398)" fill="#fcfcfc"/><path d="M380.337,20l.264.181c-.173.064-.223-.052-.264-.181" transform="translate(-288.453 -15.167)" fill="#040404"/><path d="M392.523,9.174c-.178.046-.233-.076-.283-.206l.283.206" transform="translate(-297.48 -6.801)" fill="#fcfcfc"/><path d="M207.808,348.64c0-4.176.021-8.353-.019-12.529-.007-.783.194-.991.984-.989q12.529.045,25.057,0c.782,0,.991.194.988.984q-.045,12.529,0,25.058c0,.782-.194.991-.983.988q-12.529-.045-25.057,0c-.782,0-1-.193-.989-.983.041-4.176.019-8.353.019-12.529M221.3,339c-2.889,0-5.778.028-8.666-.019-.787-.013-1,.2-.993.992q.051,8.667,0,17.333c0,.785.2,1,.991.992q8.666-.051,17.333,0c.786,0,1-.2.993-.991q-.051-8.666,0-17.333c0-.786-.2-1.006-.991-.993-2.888.048-5.777.019-8.666.019" transform="translate(-157.589 -254.162)"/><path d="M193.238,63.778c5.421,0,10.842.023,16.263-.023.9-.008,1.124.2,1.114,1.11-.053,4.457-.044,8.915,0,13.371.007.789-.2.986-.988.984q-16.383-.04-32.766,0c-.783,0-1-.194-.988-.984q.059-6.746,0-13.492c-.007-.789.2-.99.988-.985,5.461.035,10.922.019,16.383.019m.014,11.568c4.17,0,8.341-.021,12.511.019.8.007,1.011-.222.99-1-.054-1.964-.049-3.93,0-5.894.017-.712-.244-.85-.894-.848q-12.631.028-25.262,0c-.691,0-.881.2-.867.877.042,1.964.058,3.931-.006,5.894-.027.827.269.978,1.019.972,4.17-.033,8.341-.016,12.511-.016" transform="translate(-133.38 -48.352)"/><path d="M121.235,207.435c7.951,0,15.9.016,23.852-.023.9,0,1.132.205,1.114,1.11-.054,2.768-.011,2.769-2.8,2.769q-23.069,0-46.139.025c-1,0-1.266-.225-1.237-1.233.076-2.647.023-2.648,2.686-2.648Z" transform="translate(-72.822 -157.304)"/><path d="M121.234,175.512c7.951,0,15.9.016,23.852-.022.9,0,1.134.2,1.116,1.108-.055,2.77-.011,2.771-2.8,2.771q-23.069,0-46.139.025c-1,0-1.268-.221-1.238-1.231.077-2.648.023-2.65,2.685-2.65Z" transform="translate(-72.822 -133.094)"/><path d="M151.1,143.591c7.348,0,14.7.017,22.045-.022.883,0,1.141.182,1.122,1.1-.057,2.775-.011,2.776-2.8,2.776q-21.142,0-42.283.024c-.986,0-1.275-.2-1.245-1.225.079-2.654.023-2.656,2.68-2.656Z" transform="translate(-97.031 -108.885)"/><path d="M111.378,243.215c-4.778,0-9.556-.019-14.333.019-.782.006-.995-.194-.991-.984.017-2.891-.015-2.891,2.919-2.891,8.953,0,17.907.015,26.86-.022.9,0,1.133.2,1.115,1.109-.055,2.769-.011,2.77-2.8,2.77Z" transform="translate(-72.849 -181.516)"/><path d="M219.351,303.218c3.533,0,7.066.023,10.6-.018.775-.009,1,.181,1,.979-.017,2.895.016,2.9-2.915,2.9-6.383,0-12.766-.019-19.149.022-.888.006-1.138-.188-1.12-1.1.056-2.773.011-2.774,2.8-2.774Z" transform="translate(-157.568 -229.951)"/><path d="M241.807,243.286c-2.015,0-2.015,0-2.015-1.961,0-1.9,0-1.9,1.841-1.9,2.015,0,2.015,0,2.015,1.961,0,1.895,0,1.895-1.841,1.895" transform="translate(-181.862 -181.587)"/><path d="M271.715,241.262c0-1.832,0-1.832,1.9-1.832,1.953,0,1.953,0,1.953,1.9,0,1.953,0,1.953-1.9,1.953-1.953,0-1.953,0-1.953-2.024" transform="translate(-206.073 -181.587)"/><path d="M100,145.592c0,1.924,0,1.924-1.932,1.924s-1.924,0-1.924-1.932,0-1.924,1.932-1.924,1.924,0,1.924,1.932" transform="translate(-72.915 -108.954)"/><path d="M351.49,211.241a11.25,11.25,0,0,1,11-11.477c6.85-.066,11.947,4.387,12.022,11.5.069,6.652-4.911,11.053-10.8,11.58-6.86.614-12.634-5.666-12.224-11.607m3.851-.023c-.352,3.943,3.589,8.105,7.9,7.792a7.749,7.749,0,0,0,7.436-7.721c-.051-4.721-3.378-7.708-8.037-7.675a7.374,7.374,0,0,0-7.3,7.605" transform="translate(-266.559 -151.503)" fill="#010101"/><path d="M233.414,351.1c2.889,0,5.778.029,8.666-.019.789-.013,1,.208.991.993q-.05,8.666,0,17.333c0,.788-.207,1-.993.991q-8.666-.05-17.333,0c-.787,0-1-.207-.991-.992q.05-8.667,0-17.333c0-.787.206-1,.993-.992,2.888.047,5.777.019,8.666.019" transform="translate(-169.699 -266.265)" fill="#d2e1f1"/><path d="M205.349,87.478c-4.17,0-8.341-.017-12.511.016-.75.006-1.046-.145-1.019-.972.064-1.963.048-3.93.006-5.894-.015-.678.176-.879.867-.877q12.631.034,25.262,0c.65,0,.911.136.894.848-.047,1.964-.052,3.93,0,5.894.021.78-.194,1.009-.99,1-4.17-.04-8.341-.019-12.511-.019" transform="translate(-145.477 -60.484)" fill="#f0dcc0"/></g></g></svg>