<svg xmlns="http://www.w3.org/2000/svg" xmlns:xlink="http://www.w3.org/1999/xlink" width="84.358" height="84.358" viewBox="0 0 84.358 84.358">
  <defs>
    <clipPath id="clip-path">
      <rect id="Rectángulo_371842" data-name="Rectángulo 371842" width="40.246" height="48.172" fill="#12263f"/>
    </clipPath>
  </defs>
  <g id="Grupo_1043443" data-name="Grupo 1043443" transform="translate(-339.406 -6048.717)">
    <g id="Grupo_1043012" data-name="Grupo 1043012" transform="translate(-204.867 10)">
      <circle id="Elipse_8744" data-name="Elipse 8744" cx="42.179" cy="42.179" r="42.179" transform="translate(544.273 6038.717)" fill="#f4a338"/>
      <circle id="Elipse_8745" data-name="Elipse 8745" cx="36.795" cy="36.795" r="36.795" transform="translate(549.658 6044.101)" fill="#fff"/>
    </g>
    <g id="Grupo_1043014" data-name="Grupo 1043014" transform="translate(361.463 6066.81)">
      <g id="Grupo_1043013" data-name="Grupo 1043013" clip-path="url(#clip-path)">
        <path id="Trazado_797555" data-name="Trazado 797555" d="M0,18.522q0-4.729,0-9.457A1.563,1.563,0,0,1,1.837,7.333,17.176,17.176,0,0,0,8.9,6.183,36.936,36.936,0,0,0,19.035.438a1.577,1.577,0,0,1,2.179,0,36.183,36.183,0,0,0,10.74,5.956,17.269,17.269,0,0,0,5.848.971c.273-.005.546-.035.82-.043A1.539,1.539,0,0,1,40.243,8.79c0,.05,0,.1,0,.152q0,8.986,0,17.972a15.6,15.6,0,0,1-3.071,9.216,31.49,31.49,0,0,1-11.532,9.813c-1.322.679-2.709,1.234-4.07,1.836a4.042,4.042,0,0,1-.941.335,2.177,2.177,0,0,1-1.037-.008A35.886,35.886,0,0,1,7.569,41.149,26.382,26.382,0,0,1,1.713,33.9,14.8,14.8,0,0,1,0,26.854Q0,22.688,0,18.522M1.564,8.9c-.005.079-.013.139-.013.2q0,9.078.012,18.156a12.706,12.706,0,0,0,1.085,5.019A19.85,19.85,0,0,0,6.079,37.45a32.9,32.9,0,0,0,13.913,9.161.418.418,0,0,0,.257,0,10.441,10.441,0,0,0,1.053-.385c1.489-.688,3.009-1.321,4.45-2.1a29.361,29.361,0,0,0,10.2-8.939,14.173,14.173,0,0,0,2.754-8.4c-.018-5.859-.005-11.719-.006-17.578,0-.107-.01-.214-.015-.309a.436.436,0,0,0-.093-.024A19.081,19.081,0,0,1,30.723,7.6,37.6,37.6,0,0,1,21.7,2.742c-.535-.381-1.054-.782-1.59-1.181l-.246.191A39.219,39.219,0,0,1,10.39,7.271a19.734,19.734,0,0,1-8.715,1.6.439.439,0,0,0-.11.03" transform="translate(0 0)" fill="#12263f"/>
        <path id="Trazado_797556" data-name="Trazado 797556" d="M119.582,234.675c1.031-1.037,2.036-2.051,3.046-3.062q4.846-4.85,9.7-9.7a1.532,1.532,0,0,1,2.273-.009c.707.7,1.407,1.4,2.107,2.107a1.53,1.53,0,0,1,0,2.273q-2.712,2.727-5.436,5.442l-10.407,10.4a1.55,1.55,0,0,1-2.341.034l-7.462-6.976a1.566,1.566,0,0,1-.092-2.488c.62-.669,1.247-1.332,1.868-2a1.557,1.557,0,0,1,2.4-.082q2.046,1.908,4.086,3.821c.073.068.149.134.258.232m-7.63-.763,7.666,7.166,15.944-15.933-2.15-2.186L119.584,236.8l-5.513-5.152-2.119,2.266" transform="translate(-103.682 -207.94)" fill="#12263f"/>
        <path id="Trazado_797557" data-name="Trazado 797557" d="M135.958,257.865l2.119-2.266,5.513,5.152,13.827-13.839,2.15,2.186-15.944,15.933-7.666-7.166" transform="translate(-127.688 -231.893)" fill="#f4a338"/>
      </g>
    </g>
  </g>
</svg>
