<svg xmlns="http://www.w3.org/2000/svg" xmlns:xlink="http://www.w3.org/1999/xlink" width="400" height="368.597" viewBox="0 0 400 368.597"><defs><clipPath id="a"><rect width="197.266" height="100.635" fill="#12263f"/></clipPath><clipPath id="b"><rect width="373" height="290.591" fill="none"/></clipPath><clipPath id="c"><rect width="535" height="422.591" fill="none"/></clipPath><clipPath id="d"><rect width="75.079" height="41.332" fill="none"/></clipPath><clipPath id="e"><rect width="259.212" height="149.655" fill="none"/></clipPath><linearGradient id="f" x1="0.5" x2="0.5" y2="1" gradientUnits="objectBoundingBox"><stop offset="0" stop-color="#dedede"/><stop offset="0.517" stop-color="#fff"/><stop offset="1" stop-color="#dedede"/></linearGradient><clipPath id="g"><rect width="54.698" height="30.111" fill="none"/></clipPath><clipPath id="h"><rect width="33.376" height="22.298" fill="none"/></clipPath><clipPath id="i"><rect width="7.159" height="10.027" fill="none"/></clipPath><clipPath id="j"><rect width="42.11" height="19.648" fill="none"/></clipPath><clipPath id="k"><rect width="19.758" height="19.915" fill="none"/></clipPath><linearGradient id="l" y1="0.5" x2="1.001" y2="0.5" gradientUnits="objectBoundingBox"><stop offset="0" stop-color="#f4a338"/><stop offset="1" stop-color="#ff928e"/></linearGradient><linearGradient id="m" x1="0.772" y1="-6.693" x2="0.499" y2="0.841" gradientUnits="objectBoundingBox"><stop offset="0" stop-color="#5573c6"/><stop offset="1" stop-color="#5573c6"/></linearGradient><linearGradient id="n" y1="0.498" x2="1" y2="0.498" gradientUnits="objectBoundingBox"><stop offset="0" stop-color="#ff928e"/><stop offset="1" stop-color="#feb3b1"/></linearGradient><linearGradient id="o" x1="0.168" y1="0.968" x2="-0.648" y2="2.277" xlink:href="#l"/><linearGradient id="p" x1="0" y1="0.499" x2="0.999" y2="0.499" xlink:href="#l"/><linearGradient id="q" x1="0.734" y1="-1.869" x2="0.424" y2="1.1" xlink:href="#m"/><linearGradient id="r" x1="0" y1="0.499" x2="1" y2="0.499" xlink:href="#n"/><linearGradient id="s" x1="42.733" y1="-30.875" x2="41.812" y2="-31.178" xlink:href="#n"/><linearGradient id="t" x1="0.058" y1="0.272" x2="1.224" y2="1.361" gradientUnits="objectBoundingBox"><stop offset="0" stop-color="#373f51"/><stop offset="1" stop-color="#373f51"/></linearGradient><linearGradient id="u" x1="0.001" y1="0.498" x2="1" y2="0.498" xlink:href="#n"/><linearGradient id="v" x1="1.985" y1="0.259" x2="-0.228" y2="0.601" xlink:href="#n"/><linearGradient id="w" x1="188.42" y1="-76.296" x2="186.375" y2="-75.053" xlink:href="#n"/><linearGradient id="x" x1="-107.327" y1="-1091.921" x2="-108.556" y2="-1077.599" xlink:href="#t"/><linearGradient id="y" x1="-529.302" y1="-82.507" x2="-531.927" y2="-81.208" xlink:href="#t"/><clipPath id="z"><rect width="154.055" height="105.631" transform="translate(0 0)" fill="none"/></clipPath></defs><g transform="translate(-180 -3684.409)"><g transform="translate(188.058 3684.409)"><g transform="translate(194.676 194.996)" clip-path="url(#a)"><path d="M93.925,148.3A54.378,54.378,0,1,1,148.3,93.925,54.439,54.439,0,0,1,93.925,148.3m0,39.547A93.925,93.925,0,1,0,0,93.925,93.925,93.925,0,0,0,93.925,187.85Z" transform="translate(4.075 6.711)" fill="#5573c6"/></g><g transform="translate(0 0)"><path d="M55.628,0A55.628,55.628,0,1,1,0,55.628,55.628,55.628,0,0,1,55.628,0Z" transform="translate(0 2.823)" fill="#ffca28" opacity="0.444" style="mix-blend-mode:multiply;isolation:isolate"/><rect width="391.942" height="165.087" transform="translate(0)" fill="none"/><path d="M6.349,0A6.349,6.349,0,1,1,0,6.349,6.349,6.349,0,0,1,6.349,0Z" transform="translate(25.082 139.808)" fill="#31313c" opacity="0.444" style="mix-blend-mode:multiply;isolation:isolate"/><g transform="translate(267.047 243.702)"><path d="M62.448,0A62.448,62.448,0,1,1,0,62.448,62.448,62.448,0,0,1,62.448,0Z" transform="translate(0)" fill="#31313c" opacity="0.444" style="mix-blend-mode:multiply;isolation:isolate"/><g transform="translate(24.382 25.816)"><path d="M415.91,51.035a.849.849,0,1,1-.849-.811A.83.83,0,0,1,415.91,51.035Z" transform="translate(-414.214 -50.224)" fill="#fff"/><path d="M424.356,51.035a.849.849,0,1,1-.848-.811A.83.83,0,0,1,424.356,51.035Z" transform="translate(-415.029 -50.224)" fill="#fff"/><path d="M432.8,51.035a.849.849,0,1,1-.847-.811A.83.83,0,0,1,432.8,51.035Z" transform="translate(-415.843 -50.224)" fill="#fff"/><path d="M441.249,51.035a.849.849,0,1,1-.848-.811A.83.83,0,0,1,441.249,51.035Z" transform="translate(-416.658 -50.224)" fill="#fff"/><path d="M449.7,51.035a.849.849,0,1,1-.848-.811A.83.83,0,0,1,449.7,51.035Z" transform="translate(-417.473 -50.224)" fill="#fff"/><path d="M458.141,51.035a.849.849,0,1,1-.848-.811A.83.83,0,0,1,458.141,51.035Z" transform="translate(-418.287 -50.224)" fill="#fff"/><path d="M466.588,51.035a.849.849,0,1,1-.848-.811A.831.831,0,0,1,466.588,51.035Z" transform="translate(-419.102 -50.224)" fill="#fff"/><path d="M475.034,51.035a.849.849,0,1,1-.847-.811A.83.83,0,0,1,475.034,51.035Z" transform="translate(-419.917 -50.224)" fill="#fff"/><path d="M483.48,51.035a.849.849,0,1,1-.848-.811A.83.83,0,0,1,483.48,51.035Z" transform="translate(-420.731 -50.224)" fill="#fff"/><path d="M491.927,51.035a.849.849,0,1,1-.848-.811A.831.831,0,0,1,491.927,51.035Z" transform="translate(-421.546 -50.224)" fill="#fff"/><path d="M500.373,51.035a.849.849,0,1,1-.849-.811A.83.83,0,0,1,500.373,51.035Z" transform="translate(-422.361 -50.224)" fill="#fff"/><g transform="translate(0 6.487)"><path d="M415.91,58.543a.849.849,0,1,1-.849-.811A.83.83,0,0,1,415.91,58.543Z" transform="translate(-414.214 -57.732)" fill="#fff"/><path d="M424.356,58.543a.849.849,0,1,1-.848-.811A.83.83,0,0,1,424.356,58.543Z" transform="translate(-415.029 -57.732)" fill="#fff"/><path d="M432.8,58.543a.849.849,0,1,1-.847-.811A.83.83,0,0,1,432.8,58.543Z" transform="translate(-415.843 -57.732)" fill="#fff"/><path d="M441.249,58.543a.849.849,0,1,1-.848-.811A.83.83,0,0,1,441.249,58.543Z" transform="translate(-416.658 -57.732)" fill="#fff"/><path d="M449.7,58.543a.849.849,0,1,1-.848-.811A.83.83,0,0,1,449.7,58.543Z" transform="translate(-417.473 -57.732)" fill="#fff"/><path d="M458.141,58.543a.849.849,0,1,1-.848-.811A.83.83,0,0,1,458.141,58.543Z" transform="translate(-418.287 -57.732)" fill="#fff"/><path d="M466.588,58.543a.849.849,0,1,1-.848-.811A.831.831,0,0,1,466.588,58.543Z" transform="translate(-419.102 -57.732)" fill="#fff"/><path d="M475.034,58.543a.849.849,0,1,1-.847-.811A.83.83,0,0,1,475.034,58.543Z" transform="translate(-419.917 -57.732)" fill="#fff"/><path d="M483.48,58.543a.849.849,0,1,1-.848-.811A.83.83,0,0,1,483.48,58.543Z" transform="translate(-420.731 -57.732)" fill="#fff"/><path d="M491.927,58.543a.849.849,0,1,1-.848-.811A.831.831,0,0,1,491.927,58.543Z" transform="translate(-421.546 -57.732)" fill="#fff"/><path d="M500.373,58.543a.849.849,0,1,1-.849-.811A.83.83,0,0,1,500.373,58.543Z" transform="translate(-422.361 -57.732)" fill="#fff"/></g><g transform="translate(0 12.975)"><ellipse cx="0.848" cy="0.811" rx="0.848" ry="0.811" fill="#fff"/><path d="M424.356,66.051a.849.849,0,1,1-.848-.811A.83.83,0,0,1,424.356,66.051Z" transform="translate(-415.029 -65.24)" fill="#fff"/><ellipse cx="0.848" cy="0.811" rx="0.848" ry="0.811" transform="translate(15.263)" fill="#fff"/><path d="M441.249,66.051a.849.849,0,1,1-.848-.811A.831.831,0,0,1,441.249,66.051Z" transform="translate(-416.658 -65.24)" fill="#fff"/><path d="M449.7,66.051a.849.849,0,1,1-.848-.811A.831.831,0,0,1,449.7,66.051Z" transform="translate(-417.473 -65.24)" fill="#fff"/><ellipse cx="0.848" cy="0.811" rx="0.848" ry="0.811" transform="translate(38.158)" fill="#fff"/><path d="M466.588,66.051a.849.849,0,1,1-.848-.811A.831.831,0,0,1,466.588,66.051Z" transform="translate(-419.102 -65.24)" fill="#fff"/><ellipse cx="0.848" cy="0.811" rx="0.848" ry="0.811" transform="translate(53.422)" fill="#fff"/><ellipse cx="0.848" cy="0.811" rx="0.848" ry="0.811" transform="translate(61.053)" fill="#fff"/><path d="M491.927,66.051a.849.849,0,1,1-.848-.811A.831.831,0,0,1,491.927,66.051Z" transform="translate(-421.546 -65.24)" fill="#fff"/><path d="M500.373,66.051a.849.849,0,1,1-.849-.811A.831.831,0,0,1,500.373,66.051Z" transform="translate(-422.36 -65.24)" fill="#fff"/></g><g transform="translate(0 19.462)"><ellipse cx="0.848" cy="0.811" rx="0.848" ry="0.811" transform="translate(0 0)" fill="#fff"/><path d="M424.356,73.558a.849.849,0,1,1-.848-.811A.83.83,0,0,1,424.356,73.558Z" transform="translate(-415.029 -72.747)" fill="#fff"/><ellipse cx="0.848" cy="0.811" rx="0.848" ry="0.811" transform="translate(15.263 0)" fill="#fff"/><path d="M441.249,73.558a.849.849,0,1,1-.848-.811A.83.83,0,0,1,441.249,73.558Z" transform="translate(-416.658 -72.747)" fill="#fff"/><path d="M449.7,73.558a.849.849,0,1,1-.848-.811A.83.83,0,0,1,449.7,73.558Z" transform="translate(-417.473 -72.747)" fill="#fff"/><ellipse cx="0.848" cy="0.811" rx="0.848" ry="0.811" transform="translate(38.158 0)" fill="#fff"/><path d="M466.588,73.558a.849.849,0,1,1-.848-.811A.831.831,0,0,1,466.588,73.558Z" transform="translate(-419.102 -72.747)" fill="#fff"/><ellipse cx="0.848" cy="0.811" rx="0.848" ry="0.811" transform="translate(53.422 0)" fill="#fff"/><ellipse cx="0.848" cy="0.811" rx="0.848" ry="0.811" transform="translate(61.053 0)" fill="#fff"/><path d="M491.927,73.558a.849.849,0,1,1-.848-.811A.83.83,0,0,1,491.927,73.558Z" transform="translate(-421.546 -72.747)" fill="#fff"/><path d="M500.373,73.558a.849.849,0,1,1-.849-.811A.83.83,0,0,1,500.373,73.558Z" transform="translate(-422.36 -72.747)" fill="#fff"/></g><g transform="translate(0 25.949)"><path d="M415.91,81.066a.849.849,0,1,1-.849-.811A.83.83,0,0,1,415.91,81.066Z" transform="translate(-414.214 -80.255)" fill="#fff"/><path d="M424.356,81.066a.849.849,0,1,1-.848-.811A.83.83,0,0,1,424.356,81.066Z" transform="translate(-415.029 -80.255)" fill="#fff"/><path d="M432.8,81.066a.849.849,0,1,1-.847-.811A.83.83,0,0,1,432.8,81.066Z" transform="translate(-415.843 -80.255)" fill="#fff"/><path d="M441.249,81.066a.849.849,0,1,1-.848-.811A.83.83,0,0,1,441.249,81.066Z" transform="translate(-416.658 -80.255)" fill="#fff"/><path d="M449.7,81.066a.849.849,0,1,1-.848-.811A.83.83,0,0,1,449.7,81.066Z" transform="translate(-417.473 -80.255)" fill="#fff"/><path d="M458.141,81.066a.849.849,0,1,1-.848-.811A.83.83,0,0,1,458.141,81.066Z" transform="translate(-418.287 -80.255)" fill="#fff"/><path d="M466.588,81.066a.849.849,0,1,1-.848-.811A.831.831,0,0,1,466.588,81.066Z" transform="translate(-419.102 -80.255)" fill="#fff"/><path d="M475.034,81.066a.849.849,0,1,1-.847-.811A.83.83,0,0,1,475.034,81.066Z" transform="translate(-419.917 -80.255)" fill="#fff"/><path d="M483.48,81.066a.849.849,0,1,1-.848-.811A.83.83,0,0,1,483.48,81.066Z" transform="translate(-420.731 -80.255)" fill="#fff"/><path d="M491.927,81.066a.849.849,0,1,1-.848-.811A.83.83,0,0,1,491.927,81.066Z" transform="translate(-421.546 -80.255)" fill="#fff"/><path d="M500.373,81.066a.849.849,0,1,1-.849-.811A.83.83,0,0,1,500.373,81.066Z" transform="translate(-422.361 -80.255)" fill="#fff"/></g><g transform="translate(0 32.437)"><ellipse cx="0.848" cy="0.811" rx="0.848" ry="0.811" transform="translate(0 0)" fill="#fff"/><path d="M424.356,88.574a.849.849,0,1,1-.848-.811A.83.83,0,0,1,424.356,88.574Z" transform="translate(-415.029 -87.763)" fill="#fff"/><ellipse cx="0.848" cy="0.811" rx="0.848" ry="0.811" transform="translate(15.263 0)" fill="#fff"/><path d="M441.249,88.574a.849.849,0,1,1-.848-.811A.83.83,0,0,1,441.249,88.574Z" transform="translate(-416.658 -87.763)" fill="#fff"/><path d="M449.7,88.574a.849.849,0,1,1-.848-.811A.83.83,0,0,1,449.7,88.574Z" transform="translate(-417.473 -87.763)" fill="#fff"/><ellipse cx="0.848" cy="0.811" rx="0.848" ry="0.811" transform="translate(38.158 0)" fill="#fff"/><path d="M466.588,88.574a.849.849,0,1,1-.848-.811A.831.831,0,0,1,466.588,88.574Z" transform="translate(-419.102 -87.763)" fill="#fff"/><ellipse cx="0.848" cy="0.811" rx="0.848" ry="0.811" transform="translate(53.422 0)" fill="#fff"/><ellipse cx="0.848" cy="0.811" rx="0.848" ry="0.811" transform="translate(61.053 0)" fill="#fff"/><path d="M491.927,88.574a.849.849,0,1,1-.848-.811A.83.83,0,0,1,491.927,88.574Z" transform="translate(-421.546 -87.763)" fill="#fff"/><path d="M500.373,88.574a.849.849,0,1,1-.849-.811A.83.83,0,0,1,500.373,88.574Z" transform="translate(-422.36 -87.763)" fill="#fff"/></g><g transform="translate(0 38.924)"><ellipse cx="0.848" cy="0.811" rx="0.848" ry="0.811" fill="#fff"/><path d="M424.356,96.082a.849.849,0,1,1-.848-.811A.83.83,0,0,1,424.356,96.082Z" transform="translate(-415.029 -95.271)" fill="#fff"/><ellipse cx="0.848" cy="0.811" rx="0.848" ry="0.811" transform="translate(15.263)" fill="#fff"/><path d="M441.249,96.082a.849.849,0,1,1-.848-.811A.83.83,0,0,1,441.249,96.082Z" transform="translate(-416.658 -95.271)" fill="#fff"/><path d="M449.7,96.082a.849.849,0,1,1-.848-.811A.83.83,0,0,1,449.7,96.082Z" transform="translate(-417.473 -95.271)" fill="#fff"/><ellipse cx="0.848" cy="0.811" rx="0.848" ry="0.811" transform="translate(38.158)" fill="#fff"/><path d="M466.588,96.082a.849.849,0,1,1-.848-.811A.831.831,0,0,1,466.588,96.082Z" transform="translate(-419.102 -95.271)" fill="#fff"/><ellipse cx="0.848" cy="0.811" rx="0.848" ry="0.811" transform="translate(53.422)" fill="#fff"/><ellipse cx="0.848" cy="0.811" rx="0.848" ry="0.811" transform="translate(61.053)" fill="#fff"/><path d="M491.927,96.082a.849.849,0,1,1-.848-.811A.831.831,0,0,1,491.927,96.082Z" transform="translate(-421.546 -95.271)" fill="#fff"/><path d="M500.373,96.082a.849.849,0,1,1-.849-.811A.83.83,0,0,1,500.373,96.082Z" transform="translate(-422.36 -95.271)" fill="#fff"/></g><g transform="translate(0 45.412)"><path d="M415.91,103.59a.849.849,0,1,1-.849-.81A.83.83,0,0,1,415.91,103.59Z" transform="translate(-414.214 -102.779)" fill="#fff"/><path d="M424.356,103.59a.849.849,0,1,1-.848-.81A.83.83,0,0,1,424.356,103.59Z" transform="translate(-415.029 -102.779)" fill="#fff"/><path d="M432.8,103.59a.849.849,0,1,1-.847-.81A.83.83,0,0,1,432.8,103.59Z" transform="translate(-415.843 -102.779)" fill="#fff"/><path d="M441.249,103.59a.849.849,0,1,1-.848-.81A.83.83,0,0,1,441.249,103.59Z" transform="translate(-416.658 -102.779)" fill="#fff"/><path d="M449.7,103.59a.849.849,0,1,1-.848-.81A.83.83,0,0,1,449.7,103.59Z" transform="translate(-417.473 -102.779)" fill="#fff"/><path d="M458.141,103.59a.849.849,0,1,1-.848-.81A.83.83,0,0,1,458.141,103.59Z" transform="translate(-418.287 -102.779)" fill="#fff"/><path d="M466.588,103.59a.849.849,0,1,1-.848-.81A.831.831,0,0,1,466.588,103.59Z" transform="translate(-419.102 -102.779)" fill="#fff"/><path d="M475.034,103.59a.849.849,0,1,1-.847-.81A.83.83,0,0,1,475.034,103.59Z" transform="translate(-419.917 -102.779)" fill="#fff"/><path d="M483.48,103.59a.849.849,0,1,1-.848-.81A.83.83,0,0,1,483.48,103.59Z" transform="translate(-420.731 -102.779)" fill="#fff"/><path d="M491.927,103.59a.849.849,0,1,1-.848-.81A.831.831,0,0,1,491.927,103.59Z" transform="translate(-421.546 -102.779)" fill="#fff"/><path d="M500.373,103.59a.849.849,0,1,1-.849-.81A.83.83,0,0,1,500.373,103.59Z" transform="translate(-422.361 -102.779)" fill="#fff"/></g><g transform="translate(0 51.899)"><ellipse cx="0.848" cy="0.811" rx="0.848" ry="0.811" fill="#fff"/><path d="M424.356,111.1a.849.849,0,1,1-.848-.811A.83.83,0,0,1,424.356,111.1Z" transform="translate(-415.029 -110.287)" fill="#fff"/><ellipse cx="0.848" cy="0.811" rx="0.848" ry="0.811" transform="translate(15.263)" fill="#fff"/><path d="M441.249,111.1a.849.849,0,1,1-.848-.811A.831.831,0,0,1,441.249,111.1Z" transform="translate(-416.658 -110.287)" fill="#fff"/><path d="M449.7,111.1a.849.849,0,1,1-.848-.811A.831.831,0,0,1,449.7,111.1Z" transform="translate(-417.473 -110.287)" fill="#fff"/><ellipse cx="0.848" cy="0.811" rx="0.848" ry="0.811" transform="translate(38.158)" fill="#fff"/><path d="M466.588,111.1a.849.849,0,1,1-.848-.811A.831.831,0,0,1,466.588,111.1Z" transform="translate(-419.102 -110.287)" fill="#fff"/><ellipse cx="0.848" cy="0.811" rx="0.848" ry="0.811" transform="translate(53.422)" fill="#fff"/><ellipse cx="0.848" cy="0.811" rx="0.848" ry="0.811" transform="translate(61.053)" fill="#fff"/><path d="M491.927,111.1a.849.849,0,1,1-.848-.811A.831.831,0,0,1,491.927,111.1Z" transform="translate(-421.546 -110.287)" fill="#fff"/><path d="M500.373,111.1a.849.849,0,1,1-.849-.811A.831.831,0,0,1,500.373,111.1Z" transform="translate(-422.36 -110.287)" fill="#fff"/></g><g transform="translate(0 58.386)"><path d="M415.91,118.605a.849.849,0,1,1-.849-.811A.831.831,0,0,1,415.91,118.605Z" transform="translate(-414.214 -117.794)" fill="#fff"/><path d="M424.356,118.605a.849.849,0,1,1-.848-.811A.83.83,0,0,1,424.356,118.605Z" transform="translate(-415.029 -117.794)" fill="#fff"/><path d="M432.8,118.605a.849.849,0,1,1-.847-.811A.83.83,0,0,1,432.8,118.605Z" transform="translate(-415.843 -117.794)" fill="#fff"/><path d="M441.249,118.605a.849.849,0,1,1-.848-.811A.831.831,0,0,1,441.249,118.605Z" transform="translate(-416.658 -117.794)" fill="#fff"/><path d="M449.7,118.605a.849.849,0,1,1-.848-.811A.831.831,0,0,1,449.7,118.605Z" transform="translate(-417.473 -117.794)" fill="#fff"/><path d="M458.141,118.605a.849.849,0,1,1-.848-.811A.83.83,0,0,1,458.141,118.605Z" transform="translate(-418.287 -117.794)" fill="#fff"/><path d="M466.588,118.605a.849.849,0,1,1-.848-.811A.831.831,0,0,1,466.588,118.605Z" transform="translate(-419.102 -117.794)" fill="#fff"/><path d="M475.034,118.605a.849.849,0,1,1-.847-.811A.83.83,0,0,1,475.034,118.605Z" transform="translate(-419.917 -117.794)" fill="#fff"/><path d="M483.48,118.605a.849.849,0,1,1-.848-.811A.83.83,0,0,1,483.48,118.605Z" transform="translate(-420.731 -117.794)" fill="#fff"/><path d="M491.927,118.605a.849.849,0,1,1-.848-.811A.831.831,0,0,1,491.927,118.605Z" transform="translate(-421.546 -117.794)" fill="#fff"/><path d="M500.373,118.605a.849.849,0,1,1-.849-.811A.831.831,0,0,1,500.373,118.605Z" transform="translate(-422.361 -117.794)" fill="#fff"/></g><g transform="translate(0 64.874)"><ellipse cx="0.848" cy="0.811" rx="0.848" ry="0.811" transform="translate(0 0)" fill="#fff"/><path d="M424.356,126.113a.849.849,0,1,1-.848-.811A.83.83,0,0,1,424.356,126.113Z" transform="translate(-415.029 -125.302)" fill="#fff"/><ellipse cx="0.848" cy="0.811" rx="0.848" ry="0.811" transform="translate(15.263 0)" fill="#fff"/><path d="M441.249,126.113a.849.849,0,1,1-.848-.811A.83.83,0,0,1,441.249,126.113Z" transform="translate(-416.658 -125.302)" fill="#fff"/><path d="M449.7,126.113a.849.849,0,1,1-.848-.811A.83.83,0,0,1,449.7,126.113Z" transform="translate(-417.473 -125.302)" fill="#fff"/><ellipse cx="0.848" cy="0.811" rx="0.848" ry="0.811" transform="translate(38.158 0)" fill="#fff"/><path d="M466.588,126.113a.849.849,0,1,1-.848-.811A.831.831,0,0,1,466.588,126.113Z" transform="translate(-419.102 -125.302)" fill="#fff"/><ellipse cx="0.848" cy="0.811" rx="0.848" ry="0.811" transform="translate(53.422 0)" fill="#fff"/><ellipse cx="0.848" cy="0.811" rx="0.848" ry="0.811" transform="translate(61.053 0)" fill="#fff"/><path d="M491.927,126.113a.849.849,0,1,1-.848-.811A.831.831,0,0,1,491.927,126.113Z" transform="translate(-421.546 -125.302)" fill="#fff"/><path d="M500.373,126.113a.849.849,0,1,1-.849-.811A.83.83,0,0,1,500.373,126.113Z" transform="translate(-422.36 -125.302)" fill="#fff"/></g><g transform="translate(0 71.362)"><ellipse cx="0.848" cy="0.811" rx="0.848" ry="0.811" transform="translate(0 0)" fill="#fff"/><path d="M424.356,133.621a.849.849,0,1,1-.848-.811A.83.83,0,0,1,424.356,133.621Z" transform="translate(-415.029 -132.81)" fill="#fff"/><ellipse cx="0.848" cy="0.811" rx="0.848" ry="0.811" transform="translate(15.263 0)" fill="#fff"/><path d="M441.249,133.621a.849.849,0,1,1-.848-.811A.83.83,0,0,1,441.249,133.621Z" transform="translate(-416.658 -132.81)" fill="#fff"/><path d="M449.7,133.621a.849.849,0,1,1-.848-.811A.83.83,0,0,1,449.7,133.621Z" transform="translate(-417.473 -132.81)" fill="#fff"/><ellipse cx="0.848" cy="0.811" rx="0.848" ry="0.811" transform="translate(38.158 0)" fill="#fff"/><path d="M466.588,133.621a.849.849,0,1,1-.848-.811A.831.831,0,0,1,466.588,133.621Z" transform="translate(-419.102 -132.81)" fill="#fff"/><ellipse cx="0.848" cy="0.811" rx="0.848" ry="0.811" transform="translate(53.422 0)" fill="#fff"/><ellipse cx="0.848" cy="0.811" rx="0.848" ry="0.811" transform="translate(61.053 0)" fill="#fff"/><path d="M491.927,133.621a.849.849,0,1,1-.848-.811A.83.83,0,0,1,491.927,133.621Z" transform="translate(-421.546 -132.81)" fill="#fff"/><path d="M500.373,133.621a.849.849,0,1,1-.849-.811A.83.83,0,0,1,500.373,133.621Z" transform="translate(-422.36 -132.81)" fill="#fff"/></g></g></g><line y2="118.553" transform="translate(13.619 28.536)" fill="none" stroke="#31313c" stroke-linecap="round" stroke-width="4" stroke-dasharray="8"/></g></g><g transform="translate(-867 1231.22)"><g transform="translate(1047 2506.863)" clip-path="url(#b)"><g clip-path="url(#c)"><g transform="translate(212.63 216.474)" opacity="0.4" style="mix-blend-mode:multiply;isolation:isolate"><g clip-path="url(#d)"><path d="M156.9,106.253,116.8,127.437c-6.831,3.607-17.907,3.1-24.738-1.132s-6.831-10.592,0-14.2l40.095-21.182c6.831-3.61,17.907-3.1,24.738,1.13s6.831,10.592,0,14.2" transform="translate(-86.941 -88.512)" fill="#5573c6"/></g></g><g transform="translate(0 93.592)" opacity="0.4" style="mix-blend-mode:multiply;isolation:isolate"><g clip-path="url(#e)"><path d="M259.211,96.228,100.391,187.922,0,129.962,158.821,38.268Z" transform="translate(0 -38.268)" fill="#5573c6"/></g></g></g><path d="M277.982,107.276l-158.821,91.7L18.77,141.01v-5.566L177.591,49.316l100.391,52.392Z" transform="translate(27.136 71.295)" fill="#12263f"/><path d="M277.982,105,119.161,196.693,18.77,138.733,177.591,47.039Z" transform="translate(27.136 68.004)" fill="#b0c0d2"/><path d="M28.385,125.48l126.21-72.867,57.9,33.43L86.289,158.908Z" transform="translate(41.036 76.063)" fill="#fff"/><path d="M29.613,85.735l9.751-5.63L46.8,84.4l-9.751,5.632Z" transform="translate(42.811 115.807)" fill="#4d4d4d"/><path d="M34.252,83.057,44,77.427l7.442,4.295-9.753,5.63Z" transform="translate(49.518 111.935)" fill="#4d4d4d"/><path d="M38.891,80.379l9.753-5.63,7.44,4.295-9.753,5.63Z" transform="translate(56.224 108.064)" fill="#4d4d4d"/><path d="M43.53,77.7l9.751-5.63,7.44,4.295L50.97,82Z" transform="translate(62.931 104.192)" fill="#4d4d4d"/><path d="M48.169,75.022l9.753-5.63,7.44,4.295-9.753,5.63Z" transform="translate(69.637 100.319)" fill="#4d4d4d"/><path d="M52.807,72.344l9.753-5.63L70,71.008l-9.753,5.63Z" transform="translate(76.343 96.447)" fill="#4d4d4d"/><path d="M57.446,69.665l9.751-5.63,7.44,4.295-9.751,5.63Z" transform="translate(83.05 92.575)" fill="#4d4d4d"/><path d="M62.086,66.987l9.751-5.63,7.442,4.295-9.753,5.63Z" transform="translate(89.757 88.703)" fill="#4d4d4d"/><path d="M66.725,64.309l9.751-5.63,7.442,4.295L74.164,68.6Z" transform="translate(96.463 84.832)" fill="#4d4d4d"/><path d="M71.364,61.63,81.114,56l7.44,4.295L78.8,65.928Z" transform="translate(103.17 80.959)" fill="#4d4d4d"/><path d="M76,58.952l9.751-5.63,7.44,4.295-9.751,5.632Z" transform="translate(109.876 77.087)" fill="#4d4d4d"/><path d="M35.067,88.884l9.751-5.63,7.44,4.295-9.751,5.63Z" transform="translate(50.697 120.36)" fill="#4d4d4d"/><path d="M39.706,86.206l9.751-5.63L56.9,84.871,47.146,90.5Z" transform="translate(57.403 116.488)" fill="#4d4d4d"/><path d="M44.345,83.528,54.1,77.9l7.44,4.295-9.753,5.632Z" transform="translate(64.109 112.616)" fill="#4d4d4d"/><path d="M48.984,80.849l9.751-5.63,7.442,4.295-9.753,5.632Z" transform="translate(70.816 108.744)" fill="#4d4d4d"/><path d="M53.623,78.171l9.751-5.63,7.44,4.295-9.751,5.63Z" transform="translate(77.523 104.872)" fill="#4d4d4d"/><path d="M58.262,75.493l9.751-5.63,7.442,4.295L65.7,79.788Z" transform="translate(84.229 101)" fill="#4d4d4d"/><path d="M62.9,72.814l9.751-5.63,7.44,4.295-9.751,5.632Z" transform="translate(90.936 97.128)" fill="#4d4d4d"/><path d="M67.54,70.136l9.751-5.63L84.733,68.8,74.98,74.433Z" transform="translate(97.642 93.256)" fill="#4d4d4d"/><path d="M72.179,67.458l9.753-5.63,7.437,4.295-9.751,5.63Z" transform="translate(104.348 89.384)" fill="#4d4d4d"/><path d="M76.818,64.78l9.751-5.63,7.44,4.295-9.751,5.632Z" transform="translate(111.055 85.512)" fill="#4d4d4d"/><path d="M81.457,62.1l9.751-5.63,7.44,4.295L88.9,66.4Z" transform="translate(117.761 81.64)" fill="#4d4d4d"/><path d="M38.555,90.9l9.751-5.63,7.442,4.295-9.753,5.632Z" transform="translate(55.739 123.271)" fill="#4d4d4d"/><path d="M43.194,88.22l9.753-5.63,7.44,4.295-9.753,5.632Z" transform="translate(62.445 119.399)" fill="#4d4d4d"/><path d="M47.833,85.541l9.751-5.63,7.44,4.295-9.751,5.63Z" transform="translate(69.152 115.527)" fill="#4d4d4d"/><path d="M52.472,82.863l9.751-5.63,7.442,4.295L59.912,87.16Z" transform="translate(75.858 111.655)" fill="#4d4d4d"/><path d="M57.111,80.185l9.753-5.63,7.44,4.295L64.55,84.482Z" transform="translate(82.564 107.783)" fill="#4d4d4d"/><path d="M61.75,77.506l9.751-5.63,7.442,4.295L69.19,81.8Z" transform="translate(89.271 103.911)" fill="#4d4d4d"/><path d="M66.389,74.828,76.14,69.2l7.44,4.295-9.751,5.63Z" transform="translate(95.978 100.039)" fill="#4d4d4d"/><path d="M71.028,72.15l9.753-5.63,7.44,4.295-9.753,5.632Z" transform="translate(102.684 96.167)" fill="#4d4d4d"/><path d="M75.667,69.471l9.751-5.63,7.44,4.295-9.751,5.632Z" transform="translate(109.391 92.295)" fill="#4d4d4d"/><path d="M80.306,66.793l9.751-5.63,7.44,4.295L87.745,71.09Z" transform="translate(116.097 88.423)" fill="#4d4d4d"/><path d="M42.043,92.911l9.751-5.63,7.442,4.295-9.753,5.632Z" transform="translate(60.781 126.182)" fill="#4d4d4d"/><path d="M46.682,90.233l9.751-5.63,7.44,4.295L54.122,94.53Z" transform="translate(67.488 122.31)" fill="#4d4d4d"/><path d="M51.321,87.555l9.751-5.63,7.44,4.295-9.751,5.63Z" transform="translate(74.194 118.438)" fill="#4d4d4d"/><path d="M55.96,84.877l9.753-5.63,7.437,4.295L63.4,89.171Z" transform="translate(80.9 114.566)" fill="#4d4d4d"/><path d="M60.6,82.2l9.753-5.63,7.44,4.295L68.038,86.5Z" transform="translate(87.607 110.694)" fill="#4d4d4d"/><path d="M65.238,79.52l9.751-5.63,7.44,4.295-9.751,5.63Z" transform="translate(94.313 106.822)" fill="#4d4d4d"/><path d="M69.877,76.842l9.751-5.63,7.442,4.295-9.753,5.63Z" transform="translate(101.02 102.95)" fill="#4d4d4d"/><path d="M74.516,74.164l9.751-5.63,7.442,4.295-9.753,5.63Z" transform="translate(107.726 99.078)" fill="#4d4d4d"/><path d="M79.155,71.485l9.751-5.63,7.442,4.295-9.753,5.63Z" transform="translate(114.433 95.207)" fill="#4d4d4d"/><path d="M86.608,64.115l8.531,4.923L83.793,75.59l7.44,4.295,11.346-6.55,2.847-1.644,6.9-3.987L106,64.049l-1.108-.641-8.531-4.923Z" transform="translate(121.139 84.552)" fill="#4d4d4d"/><path d="M59.846,90.532l-2.969,1.714L45.531,98.8l7.44,4.295,11.346-6.552,2.969-1.714,6.782-3.916-7.44-4.295Z" transform="translate(65.824 125.221)" fill="#4d4d4d"/><path d="M54.808,89.569l9.753-5.63L72,88.233l-9.753,5.632Z" transform="translate(79.236 121.349)" fill="#4d4d4d"/><path d="M59.447,86.89,69.2,81.26l7.44,4.295-9.751,5.63Z" transform="translate(85.943 117.478)" fill="#4d4d4d"/><path d="M64.086,84.212l9.751-5.63,7.44,4.295-9.751,5.63Z" transform="translate(92.649 113.606)" fill="#4d4d4d"/><path d="M68.725,81.534l9.753-5.63L85.916,80.2l-9.751,5.63Z" transform="translate(99.355 109.734)" fill="#4d4d4d"/><path d="M73.364,78.855l9.751-5.63,7.44,4.295L80.8,83.15Z" transform="translate(106.062 105.861)" fill="#4d4d4d"/><path d="M78,76.177l9.751-5.63L95.2,74.842l-9.753,5.632Z" transform="translate(112.769 101.989)" fill="#4d4d4d"/><path d="M82.642,73.5l9.751-5.63,7.442,4.295-9.753,5.63Z" transform="translate(119.475 98.118)" fill="#4d4d4d"/><path d="M97.032,69.062l-1.668.964-8.083,4.666,7.44,4.295L102.8,74.32l1.668-.961,11.346-6.552-7.44-4.295Z" transform="translate(126.182 90.374)" fill="#4d4d4d"/><path d="M49.018,96.939l9.751-5.63L66.212,95.6l-9.753,5.63Z" transform="translate(70.865 132.005)" fill="#4d4d4d"/><path d="M53.657,94.261l9.751-5.63,7.442,4.295L61.1,98.555Z" transform="translate(77.572 128.133)" fill="#4d4d4d"/><path d="M58.3,91.582l9.751-5.63,7.442,4.295-9.753,5.63Z" transform="translate(84.278 124.261)" fill="#4d4d4d"/><path d="M113.192,75.376l-4.877,2.815-1.592.92-9.751,5.63-1.595.92-9.751,5.632-1.595.92-9.751,5.63-11.346,6.55,7.44,4.295,11.346-6.547,9.751-5.632,1.595-.92,9.751-5.63,1.595-.92,9.751-5.63,1.595-.92,4.874-2.817,4.877-2.815-7.44-4.295Z" transform="translate(90.985 104.901)" fill="#4d4d4d"/><path d="M86.13,75.512l9.751-5.63,7.442,4.295L93.57,79.809Z" transform="translate(124.517 101.028)" fill="#4d4d4d"/><path d="M90.769,72.834l9.751-5.63,7.442,4.295-9.753,5.63Z" transform="translate(131.224 97.157)" fill="#4d4d4d"/><path d="M95.408,70.156l9.751-5.63,7.44,4.295-9.751,5.63Z" transform="translate(137.93 93.285)" fill="#4d4d4d"/><path d="M29.613,85.281l9.751-5.63,7.44,4.295-9.751,5.63Z" transform="translate(42.811 115.151)" fill="#ebf4fe"/><path d="M34.252,82.6,44,76.973l7.442,4.295L41.692,86.9Z" transform="translate(49.518 111.279)" fill="#b0c0d2"/><path d="M38.891,79.924l9.753-5.63,7.44,4.295-9.753,5.63Z" transform="translate(56.224 107.407)" fill="#b0c0d2"/><path d="M43.53,77.246l9.751-5.63,7.44,4.295-9.751,5.63Z" transform="translate(62.931 103.535)" fill="#b0c0d2"/><path d="M48.169,74.567l9.753-5.63,7.44,4.295-9.753,5.632Z" transform="translate(69.637 99.662)" fill="#b0c0d2"/><path d="M52.807,71.889l9.753-5.63L70,70.554l-9.753,5.63Z" transform="translate(76.343 95.791)" fill="#b0c0d2"/><path d="M57.446,69.211l9.751-5.63,7.44,4.295-9.751,5.63Z" transform="translate(83.05 91.919)" fill="#b0c0d2"/><path d="M62.086,66.533l9.751-5.63L79.279,65.2l-9.753,5.63Z" transform="translate(89.757 88.047)" fill="#b0c0d2"/><path d="M66.725,63.855l9.751-5.63,7.442,4.295-9.753,5.63Z" transform="translate(96.463 84.175)" fill="#b0c0d2"/><path d="M71.364,61.176l9.751-5.63,7.44,4.295L78.8,65.473Z" transform="translate(103.17 80.303)" fill="#b0c0d2"/><path d="M76,58.5l9.751-5.63,7.44,4.295-9.751,5.632Z" transform="translate(109.876 76.431)" fill="#b0c0d2"/><path d="M35.067,88.43l9.751-5.63,7.44,4.295-9.751,5.63Z" transform="translate(50.697 119.703)" fill="#b0c0d2"/><path d="M39.706,85.752l9.751-5.63L56.9,84.416l-9.753,5.63Z" transform="translate(57.403 115.831)" fill="#b0c0d2"/><path d="M44.345,83.073l9.753-5.63,7.44,4.295L51.785,87.37Z" transform="translate(64.109 111.959)" fill="#b0c0d2"/><path d="M48.984,80.395l9.751-5.63,7.442,4.295-9.753,5.632Z" transform="translate(70.816 108.087)" fill="#b0c0d2"/><path d="M53.623,77.717l9.751-5.63,7.44,4.295-9.751,5.63Z" transform="translate(77.523 104.215)" fill="#b0c0d2"/><path d="M58.262,75.038l9.751-5.63L75.455,73.7,65.7,79.333Z" transform="translate(84.229 100.343)" fill="#b0c0d2"/><path d="M62.9,72.36l9.751-5.63,7.44,4.295-9.751,5.632Z" transform="translate(90.936 96.471)" fill="#b0c0d2"/><path d="M67.54,69.682l9.751-5.63,7.442,4.295L74.98,73.979Z" transform="translate(97.642 92.599)" fill="#b0c0d2"/><path d="M72.179,67l9.753-5.63,7.437,4.295L79.619,71.3Z" transform="translate(104.348 88.727)" fill="#b0c0d2"/><path d="M76.818,64.325l9.751-5.63,7.44,4.295-9.751,5.63Z" transform="translate(111.055 84.855)" fill="#b0c0d2"/><path d="M81.457,61.647l9.751-5.63,7.44,4.295L88.9,65.944Z" transform="translate(117.761 80.983)" fill="#b0c0d2"/><path d="M38.555,90.443l9.751-5.63,7.442,4.295-9.753,5.632Z" transform="translate(55.739 122.614)" fill="#b0c0d2"/><path d="M43.194,87.765l9.753-5.63,7.44,4.295-9.753,5.63Z" transform="translate(62.445 118.742)" fill="#b0c0d2"/><path d="M47.833,85.087l9.751-5.63,7.44,4.295-9.751,5.63Z" transform="translate(69.152 114.87)" fill="#b0c0d2"/><path d="M52.472,82.408l9.751-5.63,7.442,4.295-9.753,5.632Z" transform="translate(75.858 110.998)" fill="#b0c0d2"/><path d="M57.111,79.73l9.753-5.63,7.44,4.295L64.55,84.027Z" transform="translate(82.564 107.126)" fill="#b0c0d2"/><path d="M61.75,77.052l9.751-5.63,7.442,4.295L69.19,81.349Z" transform="translate(89.271 103.254)" fill="#b0c0d2"/><path d="M66.389,74.374l9.751-5.63,7.44,4.295-9.751,5.632Z" transform="translate(95.978 99.382)" fill="#b0c0d2"/><path d="M71.028,71.7l9.753-5.63,7.44,4.295-9.753,5.632Z" transform="translate(102.684 95.51)" fill="#b0c0d2"/><path d="M75.667,69.017l9.751-5.63,7.44,4.295-9.751,5.632Z" transform="translate(109.391 91.638)" fill="#b0c0d2"/><path d="M80.306,66.339l9.751-5.63L97.5,65l-9.751,5.63Z" transform="translate(116.097 87.766)" fill="#b0c0d2"/><path d="M42.043,92.457l9.751-5.63,7.442,4.295-9.753,5.632Z" transform="translate(60.781 125.525)" fill="#b0c0d2"/><path d="M46.682,89.779l9.751-5.63,7.44,4.295-9.751,5.632Z" transform="translate(67.488 121.653)" fill="#b0c0d2"/><path d="M51.321,87.1l9.751-5.63,7.44,4.295L58.761,91.4Z" transform="translate(74.194 117.781)" fill="#b0c0d2"/><path d="M55.96,84.422l9.753-5.63,7.437,4.295L63.4,88.717Z" transform="translate(80.9 113.909)" fill="#b0c0d2"/><path d="M60.6,81.744l9.753-5.63,7.44,4.295-9.753,5.632Z" transform="translate(87.607 110.037)" fill="#b0c0d2"/><path d="M65.238,79.066l9.751-5.63,7.44,4.295-9.751,5.63Z" transform="translate(94.313 106.166)" fill="#b0c0d2"/><path d="M69.877,76.388l9.751-5.63,7.442,4.295-9.753,5.63Z" transform="translate(101.02 102.294)" fill="#b0c0d2"/><path d="M74.516,73.709l9.751-5.63,7.442,4.295L81.955,78Z" transform="translate(107.726 98.422)" fill="#b0c0d2"/><path d="M79.155,71.031l9.751-5.63L96.348,69.7l-9.753,5.63Z" transform="translate(114.433 94.55)" fill="#b0c0d2"/><path d="M86.608,63.661l8.531,4.926-11.346,6.55,7.44,4.295,11.346-6.55,2.847-1.643,6.9-3.986L106,63.595l-1.108-.641-8.531-4.923Z" transform="translate(121.139 83.895)" fill="#ebf4fe"/><path d="M59.846,90.078l-2.969,1.714L45.531,98.344l7.44,4.295,11.346-6.552,2.969-1.714,6.782-3.916-7.44-4.295Z" transform="translate(65.824 124.564)" fill="#ebf4fe"/><path d="M54.808,89.114l9.753-5.63L72,87.779l-9.753,5.63Z" transform="translate(79.236 120.693)" fill="#b0c0d2"/><path d="M59.447,86.436l9.751-5.63,7.44,4.295-9.751,5.63Z" transform="translate(85.943 116.821)" fill="#b0c0d2"/><path d="M64.086,83.758l9.751-5.63,7.44,4.295-9.751,5.63Z" transform="translate(92.649 112.949)" fill="#b0c0d2"/><path d="M68.725,81.08l9.753-5.63,7.437,4.295-9.751,5.63Z" transform="translate(99.355 109.077)" fill="#b0c0d2"/><path d="M73.364,78.4l9.751-5.63,7.44,4.295L80.8,82.7Z" transform="translate(106.062 105.205)" fill="#b0c0d2"/><path d="M78,75.723l9.751-5.63L95.2,74.387l-9.753,5.63Z" transform="translate(112.769 101.333)" fill="#b0c0d2"/><path d="M82.642,73.045l9.751-5.63,7.442,4.295-9.753,5.63Z" transform="translate(119.475 97.461)" fill="#b0c0d2"/><path d="M97.032,68.608l-1.668.964-8.083,4.666,7.44,4.295,8.083-4.666,1.668-.961,11.346-6.552-7.44-4.295Z" transform="translate(126.182 89.717)" fill="#ebf4fe"/><path d="M49.018,96.485l9.751-5.63,7.442,4.295-9.753,5.63Z" transform="translate(70.865 131.348)" fill="#ebf4fe"/><path d="M53.657,93.806l9.751-5.63,7.442,4.295L61.1,98.1Z" transform="translate(77.572 127.476)" fill="#b0c0d2"/><path d="M58.3,91.128l9.751-5.63,7.442,4.295-9.753,5.63Z" transform="translate(84.278 123.604)" fill="#b0c0d2"/><path d="M113.192,74.921l-4.877,2.815-1.592.92-9.751,5.63-1.595.92-9.751,5.632-1.595.92-9.751,5.63-11.346,6.55,7.44,4.295,11.346-6.547,9.751-5.632,1.595-.92,9.751-5.63,1.595-.92,9.751-5.63,1.595-.92,4.874-2.817,4.877-2.815-7.44-4.295Z" transform="translate(90.985 104.244)" fill="#ebf4fe"/><path d="M86.13,75.058l9.751-5.63,7.442,4.295L93.57,79.355Z" transform="translate(124.517 100.372)" fill="#b0c0d2"/><path d="M90.769,72.38l9.751-5.63,7.442,4.295-9.753,5.63Z" transform="translate(131.224 96.5)" fill="#b0c0d2"/><path d="M95.408,69.7l9.751-5.63,7.44,4.3L102.848,74Z" transform="translate(137.93 92.628)" fill="#ebf4fe"/><path d="M163.357,0,4.536,91.7l30.4,113.59,4.412,1.453,154.409-93.147L167.769,1.45Z" transform="translate(6.558 0)" fill="#373f51"/><path d="M6.34,92.287,36.74,205.88l158.818-91.694L165.161.593Z" transform="translate(9.166 0.858)" fill="url(#f)"/><path d="M186.709,107.591,36.458,194.339l-.467-1.727L8.617,90.307,157.143,4.566l1.727-1.008Z" transform="translate(12.457 5.144)" fill="#1b1b25"/><path d="M184.5,106.284l-.132.066L35.978,192.032,8.62,89.714l73.454-42.4,75.073-43.35Z" transform="translate(12.462 5.733)" fill="#373f51"/><path d="M124.412,89.863,93.1,107.942,73.446,96.6l31.312-18.081Z" transform="translate(106.181 113.509)" fill="#5573c6"/></g><g transform="translate(1220.373 2473.029)"><g transform="translate(0 0)"><g transform="translate(20.575 113.963)" opacity="0.4" style="mix-blend-mode:multiply;isolation:isolate"><g clip-path="url(#g)"><path d="M198.628,118.818l29.209,15.432c4.977,2.629,13.045,2.262,18.022-.824s4.977-7.716,0-10.345l-29.209-15.432c-4.977-2.629-13.045-2.262-18.022.824s-4.977,7.716,0,10.345" transform="translate(-194.894 -105.893)" fill="#5573c6"/></g></g><path d="M207.058,83.776c-.117-.073-3.522.068-3.522.068l-6.576-.951-3.928,2.157-3,1.67-3.314,3.649c-.6.788.029,1.382,1.035.7l3.294-2.671a1.56,1.56,0,0,0,1.012,1.678,2.054,2.054,0,0,0,1.541,1.541,2.412,2.412,0,0,0,1.6,1.044l2.827.682,1.184-.743.166-1.211,2.9-1.069,1.546-1.184,4.16-2.585Z" transform="translate(-186.482 -25.183)" fill="#fdd3bd"/><path d="M203.855,80.486l-.1.983a5.238,5.238,0,0,1,.127,4.742l-.553,2.595.335,1.57c-.154,1.039-.678,1.11-1.34.81l.592.834,1.5,1.868L206,94.7c.658.5.472.746-.027.888.3.553.042.839-.487,1l-1.384-.863c.029.677-.347,1.171-.956.675l-2.431-2.348a12.78,12.78,0,0,1-2.008-4.366,19.85,19.85,0,0,1,1.409-7.315l-.017-1.218c-.315-1.56,3.554-1.824,3.757-.668" transform="translate(-168.809 -29.697)" fill="#fdd3bd"/><path d="M211.9,106.623l-3.678-2.243-3.649-13.4S190.79,77.82,193.495,63.7l13.292,9.841,10.8,22.055Z" transform="translate(-176.852 -52.936)" fill="#5573c6"/><path d="M224.415,112.306c.653,1.306.149,3.952-.616,6.9-1.382,2.866-4.2,2.091-6.713,2.013-4.855-.154-7.87,2.949-14.143,1.756-3.727-.712-6.063-1.979-6.4-4.49.091-1.11.934-2.1,2.468-2.967,0,0,9.269-2.218,9.519-2.323a44.728,44.728,0,0,0,4.737-2.463c.13-.281,2.769-6.574,2.769-6.574l9.21,1.739Z" transform="translate(-171.94 5.566)"/><path d="M223.053,116.151c.731,2.805.866,3.617.406,5.65a29.967,29.967,0,0,0-1.418,3.008c-.619,1.827-.685,4.923-3.529,6.642-3.4,2.436-9.756,2.253-11.622-.607a14.561,14.561,0,0,1,2.879-6.613l3.507-5.838.061-5.623,9.352-1.592Z" transform="translate(-156.98 15.71)"/><path d="M221.612,79.642l-6.973,36.935c.946,11.267,4.769,22.4,3.659,33.274-.851,4.507-10.169,3.771-11.928.44.658-8.457-4.226-21.023-6.007-34.91-.325-13.728-.073-27.852,2.793-38.723Z" transform="translate(-166.572 -34.196)" fill="#30485c"/><path d="M221.612,79.642l-6.973,36.935c.946,11.267,4.769,22.4,3.659,33.274-.851,4.507-10.169,3.771-11.928.44.658-8.457-4.226-21.023-6.007-34.91-.325-13.728-.073-27.852,2.793-38.723Z" transform="translate(-166.572 -34.196)" fill="#d2e1f1"/><path d="M201.31,81.4c-.448,3.815,4.307,14.121,10.071,18.937-.125,8.166.259,22.351,1.2,31.628,3.693,13.5,7.026,26.436,7.54,34.9,1.47,2.037,6.09,3.023,9.064,2.074a3.165,3.165,0,0,0,.594-.223c.061-.027.132-.061.2-.088a3,3,0,0,0,1.842-2.614c.435-10.7-1.005-21.608-3.507-32.638l2.3-37.7c2.142-5.1,3.341-11.04.959-20.13l-2.536.494Z" transform="translate(-165.087 -35.801)" fill="#b0c0d2"/><path d="M193.985,74.8A33.793,33.793,0,0,0,207.4,95.832l2.316,4.41,3.047,5.8c25.489,10.424,30.331-7,30.331-7-1.9-18.382-14.121-24.012-14.121-24.012-4.669-7.79-13.537-12.275-13.537-12.275-28.05-12.277-21.451,12.04-21.451,12.04" transform="translate(-176.611 -59.296)" fill="#5573c6"/><g transform="translate(33.107 27.775)" opacity="0.2" style="mix-blend-mode:multiply;isolation:isolate"><g clip-path="url(#h)"><path d="M200.019,83.821l3.045,5.806c25.491,10.424,30.331-7,30.331-7S220.1,83.8,216.344,72.5l-6.951-1.844s-2.162,11.59-9.374,13.168" transform="translate(-200.019 -70.653)" fill="#373f51"/></g></g><path d="M231.316,74.391s-2.986,28.028-10.837,29.989c-6.508,5-22.576,4.762-25.237,4.823,0,0-4.317-4.823-1.01-7.127,1.8.594,20.26-6.858,20.26-6.858L216.8,81.5c-.12-15.393,14.838-13.86,14.515-7.1" transform="translate(-177.081 -44.54)" fill="#5573c6"/><path d="M199.213,63.43l6.207.736s3.522.7,2.487,7.371c-1,6.447-3.862,6.943-3.862,6.943L193.5,73.562Z" transform="translate(-176.344 -53.32)" fill="#fdd3bd"/><g transform="translate(20.59 20.868)" opacity="0.5" style="mix-blend-mode:multiply;isolation:isolate"><g clip-path="url(#i)"><path d="M198.636,67.829l3.378,4.292s.668,6.581-3.064,5.642c-1.832-.46-4.048-4.07-4.048-4.07Z" transform="translate(-194.901 -67.829)" fill="#f2a9a2"/></g></g><path d="M208.486,76.255s4.351-13.226-7.513-15.682c-3.36-.7-10.375,1.966-11.9,8.237-.959,3.93-2.194,8.369,4.857,12.554l.357,1.8c.066.949.536,1.433,1.291,1.25l.873-.342s2.989,2.1,5.54,1.524,7.029-4.583,6.5-9.338" transform="translate(-183.817 -57.607)" fill="#fdd3bd"/><path d="M206.778,77.245c-.051-.027-1.284,1.267-1.284,1.267-2.592-.435-4.395.526-6.767-2.2,0,0-1.91,3.412-7.33,2.974a6.74,6.74,0,0,1-1.788-1.184c-1.776-1.724-3.9-9.154,3.488-15.176,2.164-1.763,5.652-4.126,11.157-1.519A12.1,12.1,0,0,1,210.6,75.44a2.73,2.73,0,0,1-3.825,1.8" transform="translate(-184.437 -57.913)"/><path d="M194.928,67.526a1.925,1.925,0,0,1,2.323-1.066,2.652,2.652,0,0,1,1.722,2.059,1.95,1.95,0,0,1-.2,1.4,1.794,1.794,0,0,1-1.7.7,2.437,2.437,0,0,1-2.145-3.1" transform="translate(-174.453 -49.054)" fill="#fdd3bd"/></g></g><g transform="translate(1052.436 2661.891)"><path d="M99.934,127.62l4.052.448,6.038-.362,5.248.5,4.258,1.641,2.394,1.565a.8.8,0,0,1,.355.523.82.82,0,0,1-.125.621l-.291.426.232.159a.586.586,0,0,1,.122.851,1.094,1.094,0,0,1-1.164.36l-.58-.176-.328.345a1.489,1.489,0,0,1-1.829.264l-2.871-1.666-4.075.086,3.033.856.695.4a1.159,1.159,0,0,1,.377,1.648.465.465,0,0,1-.545.179l-1.621-.585-4.341-.761-2.962-.756-3.632-2.228-3.788-1.485Z" transform="translate(-14.84 -101.304)" fill="#fdd3bd"/><path d="M74.955,155.356c-2.3,2.267-2.742,6.943-2.336,9.22,2.5,1.773,4.774,2.59,6.682,1.91,5.332,1.061,8.085,2.534,10.986,2.475,3.089-.061,5.273-.411,7.5-2.9a3.211,3.211,0,0,0-1.492-4.708c-4.314-1.323-8.137-2.707-9.991-4.336l-1.939-7.785L76.2,152.793Z" transform="translate(-52.574 -70.053)"/><path d="M79.786,148.955l4.023,5.777s4.363,2.742,1.218,5.077c-1.465,1.086-5.178.812-5.178.812-3.426-.763-2.377-.279-8.222-7.207l-4.1-2.419c-2.284-1.348-3.588-3.2-3.069-5.8l.675-1.675,5.023-5.684,3.4.753,7.511,3.864Z" transform="translate(-64.344 -86.541)"/><path d="M68.373,148.059l4.459,7.442c3.02,2.5,6.263,1.719,8.858,3.424,2.764,1.815,8.863,1.692,11.165,2.764,14.278,6.591,16.19,4.923,16.19,4.923,1.291-2.328.487-5.848-1.352-9.758a57.627,57.627,0,0,0-4.263-7.3A130.631,130.631,0,0,0,94,137.389c-2.179-2.534-3.7-4.141-3.7-4.141l-1.279,1.108c-.523.462-4.226,2.935-8.357,5.664-1.035.682-2.118,1.389-3.179,2.081-2.02,1.34-3.982,2.619-5.566,3.656-2.106,1.377-3.544,2.3-3.544,2.3" transform="translate(-58.519 -93.167)" fill="#8d9096"/><path d="M72.839,159.487A40.743,40.743,0,0,0,84.8,161.119a91.826,91.826,0,0,0,16.589-1.509,1.662,1.662,0,0,1-.377.1c-2.289.536-5.591,2.7-8.624,5.689a28.364,28.364,0,0,0-7.212,11,11.285,11.285,0,0,0,10.964,3.326l13.911-11.133c6.163-3.6,6.188-8.795,6.188-8.88a11.054,11.054,0,0,0-1.328-3.326,24.419,24.419,0,0,0-7.941-7.479c-6.858-4.41-15.775-7.467-20.708-8.941-.8-.245-1.5-.45-2.059-.6-1.022-.291-1.622-.438-1.622-.438l-14.3-5.226s-7.626,21.828,4.556,25.787" transform="translate(-62.057 -92.515)" fill="#2f5171"/><g transform="translate(10.745 44.22)" opacity="0.5" style="mix-blend-mode:multiply;isolation:isolate"><g clip-path="url(#j)"><path d="M68.737,142.006l2.656,1.3,21.133,10.353,14.642.743,3.678.183a24.42,24.42,0,0,0-7.941-7.479,131.05,131.05,0,0,0-9.428-12.17L82.2,138.168l-5.239,1.487Z" transform="translate(-68.737 -134.941)" fill="#8d9096"/></g></g><path d="M90.953,124.061l4.569,3.111c7.2-.137,25.276,6.041,25.276,6.041l-1.614,3.894c-10.438.792-28.211-1.937-28.211-1.937-1.181-.35-2.544-.844-4.013-1.421,2.754-2.067,4.065-5.826,3.994-9.687" transform="translate(-31.649 -106.449)" fill="#4adbd1"/><path d="M90.711,122.029l7.11,4.842c.073,4.006-1.286,7.9-4.143,10.044-3.321-1.306-7.234-3.082-11.3-4.975Z" transform="translate(-38.268 -109.387)" fill="#4adbd1"/><path d="M98.18,120.79s3.157,6.608-3.845,11.531c-.269-3.309-1.455-6.329-3.148-7.283Z" transform="translate(-25.534 -111.177)"/><path d="M66.212,161.491a12.762,12.762,0,0,0,6.163,3.593c6.6,1.851,14.679-.156,18.1-1.206,1.061-.316,1.67-.548,1.67-.548l12.023-13.471c10.426-6.992,7.843-27.018,7.843-27.018-15.75-10.135-25.264,1.754-34.861,11.644s-10.94,27.005-10.94,27.005" transform="translate(-61.642 -113.8)" fill="#4adbd1"/><path d="M108.465,164.642l.609,4.872s-28.827,6.3-34.208,0c0,0-2.639-2.739-.812-13.7l2.233-19.693c1.724-13.094,17.477-9.34,13.916,2.685l-5.593,22.7Z" transform="translate(-51.238 -100.917)" fill="#fdd3bd"/><path d="M88.216,143.549l3.045-.633,4.644.633,6.329,1.93,2.35,2.309v1.746l.609,1.052v.907l-1.7,3.231a1.007,1.007,0,0,1-.893.541h-.369l-.247.514a.6.6,0,0,1-.638.335l-.208-.034a.362.362,0,0,1-.284-.474l.149-.445-.232-.254a1.163,1.163,0,0,1-.105-1.421l.565-.846-.533-1.145-4.522-.907-4.309-2.8-6.559-.861Z" transform="translate(-34.033 -79.19)" fill="#fdd3bd"/><path d="M95.314,134.961c-.227.227-8.765,3.759-8.765,3.759s-5.244-4.6-3.111-13.505c2.03-.531,4.395-2.986,7.689-5.251Z" transform="translate(-37.478 -112.372)" fill="#fdd3bd"/><path d="M84.671,126.991s1.93-9.829,11.776-9.829c0,0,11.04,1.979,10.431,11.8,0,0-1.142,6.166-4.644,7.765l-.487,2.164a1.376,1.376,0,0,1-1.083,1.052l-1.093.21-2.595,2.223a4.133,4.133,0,0,1-3.656.912,8.176,8.176,0,0,1-4.18-2.656c-3.2-3.6-4.468-13.642-4.468-13.642" transform="translate(-34.958 -116.423)" fill="#fdd3bd"/><path d="M106.176,133.352c-2.636,1.707-8.262-1.807-11.358,1.553,0,0-4.317,3.111-7.613-.778s-2.94-5.933-2.94-5.933,2.455-10.145,9.132-11.152c6.041-.915,9.8,1.766,12.434,4.994s4.395,8.7.345,11.316" transform="translate(-35.561 -116.86)"/><path d="M90.552,123.394a2.391,2.391,0,0,0-1.279.147,3.7,3.7,0,0,0-2.255,2.49,1.7,1.7,0,0,0,.259,1.609,1.382,1.382,0,0,0,1.137.364,2.778,2.778,0,0,0,1.147-.438,5.034,5.034,0,0,0,2.018-2.059,1.509,1.509,0,0,0-1.027-2.113" transform="translate(-31.686 -107.462)" fill="#fdd3bd"/><g transform="translate(10.745 32.124)" style="mix-blend-mode:multiply;isolation:isolate"><g clip-path="url(#k)"><path d="M68.737,149.156c6.591,1.851,14.667-.159,18.088-1.206l1.67-10.915-4.679-7.041s-5.407,15.958-15.08,19.162" transform="translate(-68.737 -129.996)" fill="#4adbd1"/></g></g><path d="M74.377,136.744c3.287,2.815,8.729,4.2,12.859,2.644l-1.69,9.438,22.887,3.016.609,4.872s-28.827,6.293-34.208,0c-2.548-2.646-.939-11.485-.457-19.969" transform="translate(-51.206 -88.114)" fill="#4adbd1"/><path d="M73.818,149.916l1.546-13.632c1.815-13.764,18.372-9.817,14.63,2.825L86.677,152.56c-4.341,1.641-9.4.316-12.859-2.644" transform="translate(-50.647 -101.286)" fill="#4adbd1"/></g><g transform="translate(1275.004 2601.522)"><g transform="translate(0 90.214)"><path d="M31.136,175.43c-1.063,1.578-5.314,37.378-5.975,50.584a1.563,1.563,0,0,0,1.562,1.643h0a1.56,1.56,0,0,0,1.546-1.321l7.762-49.763-4.9-1.143Z" transform="translate(-24.694 -167.57)" fill="#373f51"/><path d="M51.926,175.43c1.063,1.578,5.314,37.378,5.975,50.584a1.563,1.563,0,0,1-1.562,1.643h0a1.56,1.56,0,0,1-1.546-1.321L47.03,176.573Z" transform="translate(-11.343 -167.57)" fill="#373f51"/><path d="M24.886,175.607v.387a5.325,5.325,0,0,0,5.411,5.17l35.9.612a5.376,5.376,0,0,0,5.62-4.864v-.354a5.257,5.257,0,0,0-5.395-5.363l-35.913-.644a5.356,5.356,0,0,0-5.637,5.073Z" transform="translate(-24.87 -170.55)" fill="#373f51"/></g><g transform="translate(9.307 0)"><g transform="translate(0 73.079)"><g transform="translate(17.439 0.322)"><g transform="translate(37.554 65.158)"><path d="M75.411,205.063c-6.442,0-9.292-.548-10.581-1.063a2.442,2.442,0,0,0,2.383,1.9h22.8a1.1,1.1,0,0,0,1.063-1.4c-2.593.209-8.117.564-15.686.564Z" transform="translate(-64.777 -198.475)" fill="url(#l)"/><path d="M91.116,206.593a.972.972,0,0,0-.193-.386c-1.739-2.222-5.234-5.7-9.969-5.637-6.812.1-9.051.773-14.2.048a.425.425,0,0,0-.467.274L64.9,204.838a2.385,2.385,0,0,0-.032,1.256c1.272.5,4.123,1.063,10.581,1.063,7.569,0,13.093-.354,15.686-.564Z" transform="translate(-64.797 -200.569)" fill="url(#m)"/></g><path d="M67.388,197.78l-1.5,4.59s3.495,1.514,6.554.242l.692-3.881Z" transform="translate(-26.576 -137.115)" fill="url(#n)"/><path d="M48.342,160.271a.466.466,0,0,1,.37-.161c3.173.258,38.731,3.3,46.3,6.86,7.617,3.591-5.411,52.082-6.41,55.754a.427.427,0,0,1-.29.306c-.66.209-2.689.644-6.361-.435a.43.43,0,0,1-.306-.483c.483-3.929,4.59-38.023,1.3-46.316a.482.482,0,0,0-.338-.274l-40.76-6.667a.435.435,0,0,1-.258-.725l6.764-7.875Z" transform="translate(-41.478 -160.11)" fill="url(#o)"/></g><g transform="translate(93.906 57.785)"><path d="M99.356,206.469c-5.025,4.042-7.6,5.395-8.906,5.8a2.467,2.467,0,0,0,3.044-.016l17.779-14.285a1.112,1.112,0,0,0-.032-1.755c-1.9,1.788-5.975,5.524-11.869,10.259Z" transform="translate(-88.05 -195.536)" fill="url(#p)"/><path d="M112.134,196.45a1.062,1.062,0,0,0-.386-.177c-2.738-.628-7.634-1.143-11.289,1.868-5.363,4.429-6.78,6.538-11.5,9.292l1.643,4.074a2.266,2.266,0,0,0,.757,1c1.3-.4,3.881-1.772,8.906-5.8C106.16,201.973,110.25,198.237,112.134,196.45Z" transform="translate(-88.96 -195.791)" fill="url(#q)"/></g><path d="M86.58,199.331c.354.322,3.833,7.344,3.833,7.344s3.865-.837,4.654-3.285l-3.479-6.329-5.008,2.271Z" transform="translate(3.494 -137.232)" fill="url(#r)"/><path d="M31.858,159.91a19.626,19.626,0,0,0-1.208,7.054,10.58,10.58,0,0,0,10.1,10.355L86.372,179.4a2.181,2.181,0,0,1,2.013,1.643c1.079,4.155,6.313,16.877,31.935,42.306a2.067,2.067,0,0,0,2.561.274l3.64-2.3a.831.831,0,0,0,.274-1.127l-26.572-45.366a10.343,10.343,0,0,0-6.249-4.638l-38.892-9.936-23.255-.322Z" transform="translate(-30.649 -159.91)" fill="#e6b046"/></g><path d="M74.295,122.19s-13.93,5.411-19.535,8.729l9.228,7.36s6.538-5.427,12.223-7.2l-1.9-8.89Z" transform="translate(-15.931 -109.857)" fill="url(#s)"/><g transform="translate(0.823 17.203)"><path d="M31.482,181.509c2.383,6.249,16.185,3.189,29.536,1.643a.731.731,0,0,0,.6-.451c1.272-3.028,9.373-20.082,14.43-27.1a.728.728,0,0,1,1.143-.064,45.718,45.718,0,0,0,33.578,13.592.739.739,0,0,0,.709-.531l.531-1.739a.735.735,0,0,0-.467-.918c-3.43-1.224-18.971-7.215-25.2-17.844-7.022-12-.354-13.753-4.912-17.715-2.5-2.174-4.091-3.72-5.025-4.67a5.238,5.238,0,0,0-2.641-.483c-6.619-.225-12.932,3.656-12.932,3.656-16.008,9.824-26.363,40.068-29.149,48.185A6.511,6.511,0,0,0,31.482,181.509Z" transform="translate(-31.16 -125.214)" fill="url(#t)"/><path d="M80.31,150.374l1.482.58,7.569-.95a3.67,3.67,0,0,1,2.722.451l6.635,4.171-18.536-.644c-.193-.612.628-2.818.113-3.624Z" transform="translate(-1.253 -110.136)" fill="url(#u)"/></g><g transform="translate(52.454)"><path d="M80.738,121.343c0,.258-5.959,15.8-5.959,15.8L65.97,133.55l3.462-15.573S80.834,117.123,80.738,121.343Z" transform="translate(-61.541 -112.472)" fill="url(#v)"/><path d="M72.258,123.886l-2.464,8.052a1.039,1.039,0,0,0-.048.322c0,.66.1,2.931,2.416,2.673,2.11-.242,4.042-.419,5.25.177a1.187,1.187,0,0,1,.58,1.482,51.325,51.325,0,0,1-3.35,7.15,1.179,1.179,0,0,1-1.514.451,37.769,37.769,0,0,1-7.521-4.638,1.167,1.167,0,0,1-.387-1.143c.435-2.061,1.723-8.342,1.82-10.146.081-1.691-1.788-3.028-2.625-3.527a1.136,1.136,0,0,1-.531-.741c-.242-1.1-.4-3.575,2.754-4.042a1.173,1.173,0,0,0,.982-1.385A3.048,3.048,0,0,1,70,114.69a4.31,4.31,0,0,1,4.864,2.061,1.165,1.165,0,0,0,1.449.419.932.932,0,0,1,1.047.209,1.16,1.16,0,0,0,1.707-.225,3.524,3.524,0,0,1,4.364-1.337c3.978,1.385,3.688,6.007,2.174,8.487-1.53,2.48-5.749.741-7.746-.966-1.514-1.3-3.865-.6-4.912-.177a1.109,1.109,0,0,0-.676.741Z" transform="translate(-62.885 -114.532)" fill="#12263f"/><path d="M66.972,127.325s2-4.332.451-5.781-4.2-1.272-4.2,2.239c0,4.364,3.752,3.527,3.752,3.527Z" transform="translate(-63.22 -110.773)" fill="url(#w)"/></g><g transform="translate(69.927 25.718)"><path d="M75.729,156.253h.1l39.182-.032a1.755,1.755,0,1,0,0-3.511l-39.182.032A1.76,1.76,0,0,0,74.07,154.5a1.738,1.738,0,0,0,1.659,1.739Z" transform="translate(-74.07 -116.944)" fill="url(#x)"/><path d="M115.225,131.45a.2.2,0,0,0-.032.081L98.7,167.073a1.747,1.747,0,1,0,3.173,1.466L118.365,133a1.754,1.754,0,0,0-3.14-1.562Z" transform="translate(-59.133 -130.501)" fill="url(#y)"/></g><g transform="translate(61.016 63.03)"><path d="M93.8,156.136c-.177.709-16.523,62.018-20.662,77.559a2.8,2.8,0,0,0,2.689,3.543h0a2.8,2.8,0,0,0,2.706-2.142l18.15-73.581-2.883-5.4Z" transform="translate(-65.789 -152.174)" fill="#636363"/><path d="M92.583,156.136c.177.709,16.523,62.018,20.662,77.559a2.8,2.8,0,0,1-2.689,3.543h0a2.8,2.8,0,0,1-2.706-2.142L89.7,161.515l2.883-5.4Z" transform="translate(-55.618 -152.174)" fill="#636363"/><path d="M95.768,154.89H85.59v8.181A2.11,2.11,0,0,0,87.7,165.2h1.4v18.359a1.6,1.6,0,0,0,1.594,1.61h0a1.6,1.6,0,0,0,1.594-1.61V165.2H93a2.8,2.8,0,0,0,2.786-2.818v-7.472Z" transform="translate(-58.127 -152.925)" fill="#636363"/><path d="M70.957,153.67h56.849a1.769,1.769,0,0,1,1.691,1.321l.789,3.108a1.754,1.754,0,0,1-1.691,2.206l-58.33-.338a1.752,1.752,0,0,1-1.675-2.19l.692-2.77a1.738,1.738,0,0,1,1.691-1.337Z" transform="translate(-68.537 -153.67)" fill="#636363"/></g></g></g></g><g transform="translate(425.945 3705.192)"><g transform="translate(0 -0.003)" clip-path="url(#z)"><path d="M0,1043.553a3.417,3.417,0,0,0,3.417,3.417H150.638a3.417,3.417,0,0,0,3.417-3.417Z" transform="translate(0 -941.34)" fill="url(#f)"/><path d="M285.951,0H177.022a5.791,5.791,0,0,0-5.791,5.791v82.4H291.743V5.788A5.791,5.791,0,0,0,285.951,0" transform="translate(-154.459 0.003)" fill="#12263f"/><path d="M216.379,120.14v-75H328.046v75Z" transform="translate(-195.185 -40.722)" fill="#fff"/><path d="M154.055,898.661l-16.772-15.733H16.772L0,898.661H60.113v.224a1.014,1.014,0,0,0,1.014,1.014h31.8a1.014,1.014,0,0,0,1.014-1.014v-.224Z" transform="translate(0 -796.447)" fill="#12263f"/><path d="M258.5,899.366l-8.078-7.578a.518.518,0,0,0-.354-.14H138.7a.518.518,0,0,0-.354.14l-8.078,7.578a.518.518,0,0,0,.354.9H258.148a.518.518,0,0,0,.354-.9" transform="translate(-117.355 -804.313)" fill="#f2f2f2"/><path d="M598.048,992.659l-2.767-2.6a.41.41,0,0,0-.281-.111H555.5a.411.411,0,0,0-.281.111l-2.767,2.6a.411.411,0,0,0,.281.71h45.035a.411.411,0,0,0,.281-.71" transform="translate(-498.222 -892.989)" fill="#f2f2f2"/><path d="M566.946,953.6a.266.266,0,0,0-.242-.155H515.055a.266.266,0,0,0-.242.155l-.571,1.25a.266.266,0,0,0,.242.377h52.789a.266.266,0,0,0,.242-.377Z" transform="translate(-463.852 -860.054)" fill="#c1c1c1"/><path d="M538.515,901.587h3.9a.321.321,0,0,0,.3-.214l.476-1.339a.321.321,0,0,0-.3-.429h-3.761a.321.321,0,0,0-.292.188l-.612,1.339a.321.321,0,0,0,.292.455" transform="translate(-485.479 -811.492)" fill="#c1c1c1"/><path d="M585.186,928.4h4.262a.3.3,0,0,0,.286-.223l.328-1.291a.3.3,0,0,0-.286-.368h-4.131a.3.3,0,0,0-.278.2l-.459,1.291a.3.3,0,0,0,.278.394" transform="translate(-527.602 -835.771)" fill="#c1c1c1"/><path d="M526.833,926.695l-.59,1.291a.3.3,0,0,0,.269.418h4.213a.3.3,0,0,0,.278-.2l.459-1.291a.3.3,0,0,0-.278-.394H527.1a.3.3,0,0,0-.269.173" transform="translate(-474.675 -835.771)" fill="#c1c1c1"/><path d="M458.242,953.441h-4.351a.266.266,0,0,0-.232.136l-.7,1.249a.266.266,0,0,0,.233.4h4.478a.266.266,0,0,0,.242-.156l.571-1.249a.266.266,0,0,0-.242-.377" transform="translate(-408.564 -860.054)" fill="#c1c1c1"/><path d="M472.316,928.231l.59-1.291a.3.3,0,0,0-.269-.418h-4.021a.3.3,0,0,0-.258.151l-.721,1.291a.3.3,0,0,0,.258.44h4.152a.3.3,0,0,0,.269-.173" transform="translate(-421.799 -835.771)" fill="#c1c1c1"/><path d="M594.523,901.587h3.948a.321.321,0,0,0,.311-.242l.34-1.339a.321.321,0,0,0-.311-.4H595a.321.321,0,0,0-.3.214l-.476,1.339a.321.321,0,0,0,.3.429" transform="translate(-536.001 -811.492)" fill="#c1c1c1"/><path d="M702.727,928.4h4.32a.3.3,0,0,0,.3-.28l.065-1.291a.3.3,0,0,0-.3-.31h-4.189a.3.3,0,0,0-.292.251l-.2,1.291a.3.3,0,0,0,.292.34" transform="translate(-633.63 -835.771)" fill="#c1c1c1"/><path d="M706.74,901.587h4.008a.321.321,0,0,0,.321-.3l.068-1.339a.321.321,0,0,0-.321-.338h-3.872a.321.321,0,0,0-.318.273l-.2,1.339a.321.321,0,0,0,.318.37" transform="translate(-637.227 -811.492)" fill="#c1c1c1"/><path d="M643.921,928.4h4.3a.3.3,0,0,0,.292-.251l.2-1.291a.3.3,0,0,0-.292-.34h-4.167a.3.3,0,0,0-.286.223l-.328,1.291a.3.3,0,0,0,.286.368" transform="translate(-580.584 -835.771)" fill="#c1c1c1"/><path d="M650.6,901.587h3.985a.321.321,0,0,0,.318-.273l.2-1.339a.321.321,0,0,0-.318-.37h-3.849a.321.321,0,0,0-.311.242l-.34,1.339a.321.321,0,0,0,.311.4" transform="translate(-586.582 -811.492)" fill="#c1c1c1"/><path d="M397.061,953.441h-4.283a.266.266,0,0,0-.222.12l-.825,1.25a.266.266,0,0,0,.222.413h4.41a.266.266,0,0,0,.232-.136l.7-1.249a.266.266,0,0,0-.232-.4" transform="translate(-353.322 -860.054)" fill="#c1c1c1"/><path d="M482.566,901.587H486.4a.322.322,0,0,0,.292-.188l.612-1.339a.321.321,0,0,0-.292-.455h-3.7a.321.321,0,0,0-.281.165l-.748,1.339a.321.321,0,0,0,.28.478" transform="translate(-435.009 -811.492)" fill="#c1c1c1"/><path d="M426.671,901.587h3.76a.321.321,0,0,0,.28-.165l.748-1.339a.321.321,0,0,0-.28-.478h-3.625a.322.322,0,0,0-.268.144l-.883,1.339a.321.321,0,0,0,.268.5" transform="translate(-384.589 -811.492)" fill="#c1c1c1"/><path d="M203.492,901.587h3.381a.321.321,0,0,0,.231-.1l1.291-1.339a.321.321,0,0,0-.231-.544h-3.439l.032.034-1.484,1.392a.321.321,0,0,0,.22.555" transform="translate(-183.271 -811.492)" fill="#c1c1c1"/><path d="M315.013,901.587H318.6a.321.321,0,0,0,.256-.127l1.019-1.339a.321.321,0,0,0-.256-.516h-3.6l-1.25,1.449a.321.321,0,0,0,.243.531" transform="translate(-283.868 -811.492)" fill="#c1c1c1"/><path d="M259.237,901.587h3.486a.321.321,0,0,0,.243-.111l1.155-1.339a.321.321,0,0,0-.243-.531h-3.524l.019.019-1.368,1.418a.321.321,0,0,0,.231.544" transform="translate(-233.555 -811.492)" fill="#c1c1c1"/><path d="M410.181,926.522a.3.3,0,0,0-.247.133l-.852,1.291a.3.3,0,0,0,.247.458h4.081a.3.3,0,0,0,.258-.151l.721-1.291a.3.3,0,0,0-.258-.44Z" transform="translate(-368.97 -835.771)" fill="#c1c1c1"/><path d="M152.628,953.441H148.7a.266.266,0,0,0-.182.072l-1.332,1.249a.266.266,0,0,0,.182.461h4.058a.267.267,0,0,0,.192-.081l1.205-1.249a.266.266,0,0,0-.192-.451" transform="translate(-132.69 -860.054)" fill="#c1c1c1"/><path d="M213.7,953.441H209.67a.267.267,0,0,0-.192.081l-1.2,1.249a.266.266,0,0,0,.192.451h4.156a.266.266,0,0,0,.2-.092l1.078-1.25a.266.266,0,0,0-.2-.44" transform="translate(-187.806 -860.054)" fill="#c1c1c1"/><path d="M274.794,953.441h-4.121a.266.266,0,0,0-.2.092l-1.078,1.249a.266.266,0,0,0,.2.44h4.248a.266.266,0,0,0,.212-.1l.951-1.25a.266.266,0,0,0-.212-.428" transform="translate(-242.948 -860.054)" fill="#c1c1c1"/><path d="M351.791,926.522a.3.3,0,0,0-.235.117l-.983,1.291a.3.3,0,0,0,.235.474h4a.3.3,0,0,0,.246-.133l.852-1.291a.3.3,0,0,0-.247-.458Z" transform="translate(-316.18 -835.771)" fill="#c1c1c1"/><path d="M335.911,953.441H331.7a.266.266,0,0,0-.212.105l-.951,1.249a.266.266,0,0,0,.212.428h4.333a.266.266,0,0,0,.222-.12l.825-1.249a.266.266,0,0,0-.222-.413" transform="translate(-298.116 -860.054)" fill="#c1c1c1"/><path d="M370.82,901.587H374.5a.321.321,0,0,0,.268-.144l.883-1.339a.321.321,0,0,0-.268-.5h-3.541a.321.321,0,0,0-.256.127l-1.02,1.339a.321.321,0,0,0,.256.516" transform="translate(-334.209 -811.492)" fill="#c1c1c1"/><path d="M175.458,928.4h15.359a.3.3,0,0,0,.235-.117l.983-1.291a.3.3,0,0,0-.235-.474H176.834a.3.3,0,0,0-.2.08l-1.376,1.291a.3.3,0,0,0,.2.511" transform="translate(-158.005 -835.771)" fill="#c1c1c1"/><path d="M762.96,901.587h4.015a.321.321,0,0,0,.321-.338l-.068-1.339a.321.321,0,0,0-.321-.3h-3.88a.321.321,0,0,0-.321.3l-.068,1.339a.321.321,0,0,0,.321.338" transform="translate(-687.94 -811.492)" fill="#c1c1c1"/><path d="M761.6,928.4h4.327a.3.3,0,0,0,.295-.311l-.065-1.291a.3.3,0,0,0-.295-.28h-4.2a.3.3,0,0,0-.295.28l-.066,1.291a.3.3,0,0,0,.3.311" transform="translate(-686.741 -835.771)" fill="#c1c1c1"/><path d="M983.922,901.374a.321.321,0,0,0,.3.214h3.9a.321.321,0,0,0,.292-.455l-.612-1.339a.322.322,0,0,0-.292-.188h-3.761a.321.321,0,0,0-.3.429Z" transform="translate(-887.104 -811.492)" fill="#c1c1c1"/><path d="M935.058,926.89l.328,1.291a.3.3,0,0,0,.286.223h4.262a.3.3,0,0,0,.278-.394l-.459-1.291a.3.3,0,0,0-.278-.2h-4.131a.3.3,0,0,0-.286.368" transform="translate(-843.463 -835.771)" fill="#c1c1c1"/><path d="M992.9,926.915l.459,1.291a.3.3,0,0,0,.278.2h4.213a.3.3,0,0,0,.269-.418l-.59-1.291a.3.3,0,0,0-.269-.173h-4.082a.3.3,0,0,0-.278.394" transform="translate(-895.632 -835.771)" fill="#c1c1c1"/><path d="M1067.763,953.577a.266.266,0,0,0-.233-.136h-4.351a.266.266,0,0,0-.242.377l.571,1.249a.267.267,0,0,0,.242.156h4.479a.266.266,0,0,0,.232-.4Z" transform="translate(-958.803 -860.054)" fill="#c1c1c1"/><path d="M1056.075,927.964l-.721-1.291a.3.3,0,0,0-.258-.151h-4.021a.3.3,0,0,0-.269.418l.59,1.291a.3.3,0,0,0,.269.173h4.153a.3.3,0,0,0,.258-.44" transform="translate(-947.859 -835.771)" fill="#c1c1c1"/><path d="M928.642,901.346a.321.321,0,0,0,.311.242H932.9a.321.321,0,0,0,.3-.429l-.476-1.339a.321.321,0,0,0-.3-.214h-3.812a.321.321,0,0,0-.311.4Z" transform="translate(-837.368 -811.492)" fill="#c1c1c1"/><path d="M819.888,926.522a.3.3,0,0,0-.3.31l.066,1.291a.3.3,0,0,0,.295.28h4.32a.3.3,0,0,0,.292-.34l-.2-1.291a.3.3,0,0,0-.292-.251Z" transform="translate(-739.316 -835.771)" fill="#c1c1c1"/><path d="M818.63,901.587h4.008a.321.321,0,0,0,.318-.37l-.2-1.339a.321.321,0,0,0-.318-.273h-3.872a.321.321,0,0,0-.321.338l.068,1.339a.321.321,0,0,0,.321.3" transform="translate(-738.096 -811.492)" fill="#c1c1c1"/><path d="M877.289,926.862l.2,1.291a.3.3,0,0,0,.292.251h4.3a.3.3,0,0,0,.286-.368l-.328-1.291a.3.3,0,0,0-.286-.223h-4.167a.3.3,0,0,0-.292.34" transform="translate(-791.358 -835.771)" fill="#c1c1c1"/><path d="M873.756,901.587h3.985a.321.321,0,0,0,.311-.4l-.34-1.339a.321.321,0,0,0-.311-.242h-3.849a.321.321,0,0,0-.317.37l.2,1.339a.321.321,0,0,0,.318.273" transform="translate(-787.7 -811.492)" fill="#c1c1c1"/><path d="M1128.326,953.56a.266.266,0,0,0-.222-.12h-4.283a.266.266,0,0,0-.232.4l.7,1.25a.266.266,0,0,0,.232.136h4.41a.266.266,0,0,0,.222-.413Z" transform="translate(-1013.505 -860.054)" fill="#c1c1c1"/><path d="M1039.271,901.4a.321.321,0,0,0,.292.188h3.834a.321.321,0,0,0,.281-.478l-.748-1.339a.321.321,0,0,0-.281-.165h-3.7a.321.321,0,0,0-.292.455Z" transform="translate(-936.899 -811.492)" fill="#c1c1c1"/><path d="M1094.677,901.423a.321.321,0,0,0,.281.165h3.76a.321.321,0,0,0,.268-.5l-.884-1.339a.321.321,0,0,0-.268-.144h-3.625a.321.321,0,0,0-.281.478Z" transform="translate(-986.745 -811.492)" fill="#c1c1c1"/><path d="M1316.775,901.49a.321.321,0,0,0,.231.1h3.381a.321.321,0,0,0,.22-.556l-1.484-1.392.031-.034h-3.439a.321.321,0,0,0-.231.544Z" transform="translate(-1186.553 -811.492)" fill="#c1c1c1"/><path d="M1205.644,901.462a.321.321,0,0,0,.256.127h3.585a.321.321,0,0,0,.243-.531l-1.25-1.449h-3.6a.321.321,0,0,0-.256.516Z" transform="translate(-1086.575 -811.492)" fill="#c1c1c1"/><path d="M1261.192,901.476a.321.321,0,0,0,.243.111h3.486a.321.321,0,0,0,.231-.544l-1.368-1.418.02-.019h-3.524a.321.321,0,0,0-.243.531Z" transform="translate(-1136.548 -811.492)" fill="#c1c1c1"/><path d="M1112.979,926.522h-3.95a.3.3,0,0,0-.258.44l.721,1.291a.3.3,0,0,0,.258.151h4.081a.3.3,0,0,0,.247-.458l-.852-1.291a.3.3,0,0,0-.247-.133" transform="translate(-1000.135 -835.771)" fill="#c1c1c1"/><path d="M1372.267,954.762l-1.332-1.249a.267.267,0,0,0-.182-.072h-3.931a.266.266,0,0,0-.192.451l1.2,1.249a.268.268,0,0,0,.192.081h4.058a.266.266,0,0,0,.182-.461" transform="translate(-1232.705 -860.054)" fill="#c1c1c1"/><path d="M1310.238,953.522a.267.267,0,0,0-.192-.082h-4.029a.266.266,0,0,0-.2.44l1.078,1.25a.266.266,0,0,0,.2.092h4.156a.266.266,0,0,0,.192-.451Z" transform="translate(-1177.856 -860.053)" fill="#c1c1c1"/><path d="M1249.568,953.533a.267.267,0,0,0-.2-.092h-4.121a.266.266,0,0,0-.212.428l.952,1.25a.265.265,0,0,0,.212.1h4.248a.266.266,0,0,0,.2-.44Z" transform="translate(-1123.037 -860.054)" fill="#c1c1c1"/><path d="M1170.9,926.522h-3.87a.3.3,0,0,0-.247.458l.852,1.291a.3.3,0,0,0,.247.133h4a.3.3,0,0,0,.235-.474l-.983-1.291a.3.3,0,0,0-.235-.117" transform="translate(-1052.457 -835.771)" fill="#c1c1c1"/><path d="M1188.93,953.546a.265.265,0,0,0-.212-.105h-4.206a.266.266,0,0,0-.222.413l.825,1.249a.266.266,0,0,0,.222.12h4.333a.266.266,0,0,0,.212-.428Z" transform="translate(-1068.251 -860.054)" fill="#c1c1c1"/><path d="M1150.137,901.444a.321.321,0,0,0,.268.144h3.677a.321.321,0,0,0,.256-.516l-1.02-1.339a.322.322,0,0,0-.255-.127h-3.541a.321.321,0,0,0-.268.5Z" transform="translate(-1036.639 -811.492)" fill="#c1c1c1"/><path d="M1234.58,926.522h-9.5a.3.3,0,0,0-.235.474l.983,1.291a.3.3,0,0,0,.235.117h15.359a.3.3,0,0,0,.2-.511l-1.376-1.291a.3.3,0,0,0-.2-.08h-5.465Z" transform="translate(-1104.82 -835.771)" fill="#c1c1c1"/><rect width="107.919" height="71.25" transform="translate(23.068 6.296)" fill="#ededed"/><path d="M345.926,80.935h-89.5a1.3,1.3,0,0,0,0,2.6h89.5a1.3,1.3,0,0,0,0-2.6" transform="translate(-230.134 -73.007)" fill="#fff"/><path d="M1226.472,83.675a1.145,1.145,0,1,1-1.145-1.145,1.145,1.145,0,0,1,1.145,1.145" transform="translate(-1104.277 -74.446)" fill="#fff"/><path d="M1261.545,83.675a1.145,1.145,0,1,1-1.145-1.145,1.145,1.145,0,0,1,1.145,1.145" transform="translate(-1135.914 -74.446)" fill="#fff"/><path d="M1296.619,83.675a1.145,1.145,0,1,1-1.145-1.145,1.145,1.145,0,0,1,1.145,1.145" transform="translate(-1167.553 -74.446)" fill="#fff"/><rect width="40.149" height="0.151" transform="translate(30.995 47.674)" fill="#becff7"/><rect width="40.149" height="0.151" transform="translate(30.995 43.502)" fill="#becff7"/><rect width="40.149" height="0.151" transform="translate(30.995 39.332)" fill="#becff7"/><rect width="40.149" height="0.151" transform="translate(30.995 35.16)" fill="#becff7"/><rect width="1.915" height="7.285" transform="translate(34.676 40.54)" fill="#b3c6f7"/><rect width="1.915" height="10.442" transform="translate(37.522 37.383)" fill="#5573c6"/><rect width="1.915" height="4.568" transform="translate(41.939 43.257)" fill="#b3c6f7"/><rect width="1.915" height="7.725" transform="translate(44.785 40.1)" fill="#5573c6"/><rect width="1.915" height="8.254" transform="translate(49.203 39.571)" fill="#b3c6f7"/><rect width="1.915" height="6.872" transform="translate(52.049 40.953)" fill="#7a98f8"/><rect width="1.915" height="10.442" transform="translate(56.466 37.383)" fill="#b3c6f7"/><rect width="1.915" height="10.442" transform="translate(59.312 37.383)" fill="#7a98f8"/><rect width="1.915" height="11.133" transform="translate(63.73 36.692)" fill="#b3c6f7"/><rect width="1.915" height="13.153" transform="translate(66.575 34.672)" fill="#5573c6"/><path d="M354.787,357.856h-41.9v-16.54h.68v15.86h41.223Z" transform="translate(-282.237 -307.885)" fill="#7a98f8"/><rect width="41.903" height="22.164" transform="translate(30.646 53.389)" fill="#fff"/><path d="M426.866,576.458a4.478,4.478,0,0,0-.481-.991,1.324,1.324,0,0,1-1.8-1.6,4.479,4.479,0,0,0-1.042-.358,1.324,1.324,0,0,1-2.4.145,4.473,4.473,0,0,0-.991.481,1.324,1.324,0,0,1-1.6,1.8,4.477,4.477,0,0,0-.358,1.042,1.324,1.324,0,0,1,.145,2.4,4.488,4.488,0,0,0,.481.991,1.324,1.324,0,0,1,1.8,1.6,4.469,4.469,0,0,0,1.042.358,1.324,1.324,0,0,1,2.4-.145,4.467,4.467,0,0,0,.991-.481,1.324,1.324,0,0,1,1.6-1.8,4.477,4.477,0,0,0,.358-1.042,1.324,1.324,0,0,1-.145-2.4m-4.167,3.035a1.576,1.576,0,1,1,1.479-1.668,1.576,1.576,0,0,1-1.479,1.668" transform="translate(-377.238 -517.339)" fill="#f4a338"/><path d="M358.423,587v-.031l-.615-.245a2.344,2.344,0,0,0-.168-.707l.439-.5-.015-.027a2.989,2.989,0,0,0-.2-.323,2.936,2.936,0,0,0-.243-.294l-.021-.023-.608.261a2.344,2.344,0,0,0-.619-.381l-.04-.661-.03-.009a2.934,2.934,0,0,0-.371-.085,2.979,2.979,0,0,0-.379-.036h-.031l-.245.615a2.345,2.345,0,0,0-.707.168l-.5-.439-.027.015a2.885,2.885,0,0,0-.616.445l-.023.021.261.608a2.344,2.344,0,0,0-.381.619l-.66.04-.009.03a2.9,2.9,0,0,0-.121.751v.031l.615.245a2.344,2.344,0,0,0,.168.707l-.439.5.015.027a2.9,2.9,0,0,0,.445.617l.021.023.608-.261a2.344,2.344,0,0,0,.619.382l.04.66.03.009a2.913,2.913,0,0,0,.751.121h.031l.245-.615a2.345,2.345,0,0,0,.707-.168l.5.439.027-.015a2.949,2.949,0,0,0,.323-.2,2.917,2.917,0,0,0,.294-.243l.023-.021-.262-.608a2.345,2.345,0,0,0,.382-.619l.66-.04.009-.03a2.894,2.894,0,0,0,.121-.751m-3.2,1.353a1.463,1.463,0,1,1,1.677-1.212,1.463,1.463,0,0,1-1.677,1.212" transform="translate(-317.969 -526.745)" fill="#5573c6"/><path d="M359.666,653.269l.97-.359v-.049a4.535,4.535,0,0,0-.161-1.178l-.013-.047-1.031-.087a3.661,3.661,0,0,0-.573-.982l.432-.94-.035-.034a4.646,4.646,0,0,0-.45-.391,4.6,4.6,0,0,0-.5-.328l-.042-.024-.79.668a3.661,3.661,0,0,0-1.1-.289l-.36-.97h-.049a4.562,4.562,0,0,0-1.178.161l-.047.013-.087,1.031a3.664,3.664,0,0,0-.981.573l-.94-.431-.034.035a4.513,4.513,0,0,0-.72.947l-.024.042.667.791a3.666,3.666,0,0,0-.289,1.1l-.97.36v.049a4.522,4.522,0,0,0,.161,1.178l.013.047,1.031.087a3.661,3.661,0,0,0,.573.981l-.431.94.034.034a4.531,4.531,0,0,0,.947.72l.042.024.79-.667a3.663,3.663,0,0,0,1.1.289l.359.97h.049a4.553,4.553,0,0,0,1.178-.161l.047-.013.087-1.031a3.662,3.662,0,0,0,.982-.573l.94.432.034-.035a4.544,4.544,0,0,0,.72-.947l.024-.042-.668-.79a3.662,3.662,0,0,0,.289-1.1m-3.357,1.89a2.288,2.288,0,1,1,1.958-2.576,2.288,2.288,0,0,1-1.958,2.576" transform="translate(-316.95 -584.762)" fill="#4adbd1"/><path d="M385.572,681.264a1.4,1.4,0,1,0,1.58,1.2,1.4,1.4,0,0,0-1.58-1.2" transform="translate(-346.711 -614.524)" fill="#4adbd1"/><rect width="15.396" height="0.22" transform="translate(53.383 56.174)" fill="#cacddd"/><rect width="15.396" height="0.22" transform="translate(53.383 58.903)" fill="#cacddd"/><rect width="15.396" height="0.22" transform="translate(53.383 61.632)" fill="#cacddd"/><rect width="15.396" height="0.22" transform="translate(53.383 64.36)" fill="#cacddd"/><rect width="15.396" height="0.22" transform="translate(53.383 67.089)" fill="#cacddd"/><rect width="15.396" height="0.22" transform="translate(53.383 69.817)" fill="#cacddd"/><rect width="15.396" height="0.22" transform="translate(53.383 72.546)" fill="#cacddd"/><rect width="41.903" height="17.377" transform="translate(30.646 12.637)" fill="#fff"/><path d="M434.176,161.271H408.833a1.112,1.112,0,0,0,0,2.224h25.343a1.112,1.112,0,1,0,0-2.224" transform="translate(-367.786 -145.475)" fill="#cacddd"/><path d="M367.276,159.433A1.432,1.432,0,1,1,365.844,158a1.432,1.432,0,0,1,1.432,1.432" transform="translate(-328.719 -142.525)" fill="#7a98f8"/><path d="M371.062,168.27l-.584-.584a.146.146,0,0,1,.207-.207l.377.377.808-.808a.146.146,0,0,1,.207.207Z" transform="translate(-334.152 -150.648)" fill="#fff"/><path d="M434.176,206.369H408.833a1.112,1.112,0,0,0,0,2.224h25.343a1.112,1.112,0,1,0,0-2.224" transform="translate(-367.786 -186.155)" fill="#cacddd"/><path d="M367.276,204.531a1.432,1.432,0,1,1-1.432-1.432,1.432,1.432,0,0,1,1.432,1.432" transform="translate(-328.719 -183.206)" fill="#7a98f8"/><path d="M371.062,213.368l-.584-.584a.146.146,0,0,1,.207-.207l.377.377.808-.808a.146.146,0,0,1,.207.207Z" transform="translate(-334.152 -191.329)" fill="#fff"/><path d="M434.176,251.467H408.833a1.112,1.112,0,0,0,0,2.224h25.343a1.112,1.112,0,1,0,0-2.224" transform="translate(-367.786 -226.836)" fill="#cacddd"/><path d="M367.276,249.63a1.432,1.432,0,1,1-1.432-1.432,1.432,1.432,0,0,1,1.432,1.432" transform="translate(-328.719 -223.887)" fill="#7a98f8"/><path d="M373.087,256.667l.418-.418a.146.146,0,0,0-.207-.207l-.418.418-.418-.418a.146.146,0,0,0-.207.207l.418.418-.418.418a.146.146,0,1,0,.207.207l.418-.418.418.418a.146.146,0,1,0,.207-.207Z" transform="translate(-335.755 -230.924)" fill="#fff"/><rect width="14.972" height="14.972" transform="translate(77.396 60.58)" fill="#cacddd"/><path d="M827.584,652.61l.97-.359V652.2a4.541,4.541,0,0,0-.161-1.178l-.013-.047-1.031-.087a3.663,3.663,0,0,0-.573-.982l.432-.94-.035-.034a4.519,4.519,0,0,0-.947-.72l-.042-.024-.79.667a3.665,3.665,0,0,0-1.1-.289l-.36-.97h-.049a4.547,4.547,0,0,0-1.178.16l-.047.013-.087,1.031a3.67,3.67,0,0,0-.981.573l-.94-.431-.034.035a4.523,4.523,0,0,0-.72.947l-.024.042.667.791a3.659,3.659,0,0,0-.289,1.1l-.97.36v.049a4.514,4.514,0,0,0,.161,1.178l.013.047,1.031.087a3.666,3.666,0,0,0,.573.981l-.431.94.034.034a4.539,4.539,0,0,0,.947.72l.042.024.791-.667a3.657,3.657,0,0,0,1.1.289l.359.97h.049a4.56,4.56,0,0,0,1.178-.161l.047-.013.087-1.031a3.661,3.661,0,0,0,.982-.573l.94.432.034-.035a4.566,4.566,0,0,0,.391-.45,4.613,4.613,0,0,0,.329-.5l.024-.042-.668-.79a3.661,3.661,0,0,0,.289-1.1m-3.357,1.89a2.288,2.288,0,1,1,1.958-2.576,2.288,2.288,0,0,1-1.958,2.576" transform="translate(-739.037 -584.167)" fill="#fff"/><path d="M853.491,680.6a1.4,1.4,0,1,0,1.58,1.2,1.4,1.4,0,0,0-1.58-1.2" transform="translate(-768.798 -613.93)" fill="#fff"/><rect width="27.974" height="14.972" transform="translate(95.435 60.58)" fill="#cacddd"/><rect width="21.646" height="0.22" transform="translate(99.445 63.863)" fill="#fff"/><rect width="21.646" height="0.22" transform="translate(99.445 66.592)" fill="#fff"/><rect width="21.646" height="0.22" transform="translate(99.445 69.32)" fill="#fff"/><rect width="21.646" height="0.22" transform="translate(99.445 72.049)" fill="#fff"/><rect width="46.012" height="41.903" transform="translate(77.396 12.637)" fill="#fff"/><path d="M965.672,316.661a3.827,3.827,0,0,1,.428-1.758l-1.894-1.093a6.037,6.037,0,0,0,0,5.7l1.894-1.093a3.827,3.827,0,0,1-.428-1.758" transform="translate(-869.119 -283.073)" fill="#f0dcc0"/><path d="M1030.035,364.2a3.842,3.842,0,0,1-3.045,1.756v2.186a6.026,6.026,0,0,0,4.938-2.849Z" transform="translate(-926.399 -328.527)" fill="#e8c492"/><path d="M1026.99,283.58a3.842,3.842,0,0,1,3.045,1.755l1.893-1.093a6.026,6.026,0,0,0-4.938-2.849Z" transform="translate(-926.399 -253.831)" fill="#f4a338"/><path d="M1060.428,316.661a3.825,3.825,0,0,1-.428,1.758l1.894,1.093a6.039,6.039,0,0,0,0-5.7L1060,314.9a3.829,3.829,0,0,1,.428,1.758" transform="translate(-956.176 -283.073)" fill="#e6b046"/><path d="M974.623,285.335a3.842,3.842,0,0,1,3.045-1.755v-2.187a6.026,6.026,0,0,0-4.938,2.849Z" transform="translate(-877.454 -253.831)" fill="#ecc288"/><path d="M977.667,365.955a3.841,3.841,0,0,1-3.045-1.756l-1.893,1.093a6.026,6.026,0,0,0,4.938,2.849Z" transform="translate(-877.453 -328.526)" fill="#ecc985"/><path d="M1098.427,340.947c0,.065.006.129.006.193s0,.129-.006.193h5.233c0-.064-.01-.128-.01-.193s.006-.129.01-.193Z" transform="translate(-990.839 -307.552)" fill="#cacddd"/><path d="M1060.042,405.666l2.616,4.531c.054-.035.106-.072.162-.1s.116-.057.174-.086l-2.618-4.534q-.165.1-.335.193" transform="translate(-956.214 -365.758)" fill="#cacddd"/><path d="M1126.648,240.035a3.425,3.425,0,0,1,.335-.193l-4.476-7.752a3.525,3.525,0,0,1-.335.193Z" transform="translate(-1012.259 -209.358)" fill="#cacddd"/><path d="M903.507,341.334c0-.065-.006-.129-.006-.193s0-.129.006-.193h-5.233c0,.064.01.128.01.193s-.006.129-.01.193Z" transform="translate(-810.291 -307.552)" fill="#cacddd"/><path d="M881.527,269.576l-2.359,4.094a3.444,3.444,0,0,0-.339-.194l2.37-4.1c.108.07.215.135.328.2" transform="translate(-792.749 -242.992)" fill="#cacddd"/><path d="M1126.647,372.644l-4.475,7.751a3.506,3.506,0,0,1,.335.193l4.475-7.751a3.5,3.5,0,0,1-.335-.193" transform="translate(-1012.258 -336.144)" fill="#cacddd"/><path d="M879.182,372.644a3.47,3.47,0,0,1-.335.193l4.475,7.751a3.508,3.508,0,0,1,.335-.193Z" transform="translate(-792.766 -336.144)" fill="#cacddd"/><path d="M1026.022,200.462c-.005.13-.005.259,0,.382h-4.843c0-.129-.005-.259-.011-.382Z" transform="translate(-921.147 -180.827)" fill="#cacddd"/><path d="M962.563,405.474l-2.618,4.534c.058.029.117.053.173.086s.109.07.163.105l2.616-4.531q-.17-.092-.335-.193" transform="translate(-865.922 -365.759)" fill="#cacddd"/><path d="M988.362,481.833a3.48,3.48,0,0,1,0-.387h-8.94a3.465,3.465,0,0,1,0,.387Z" transform="translate(-883.488 -434.289)" fill="#cacddd"/><path d="M1060.377,236.856l2.617-4.534c-.057-.029-.117-.053-.173-.085s-.109-.07-.163-.105l-2.616,4.531q.17.092.335.193" transform="translate(-956.214 -209.395)" fill="#cacddd"/><path d="M982.007,269.653l.5.857c-.113.059-.226.124-.334.194l-.49-.851Z" transform="translate(-885.525 -243.241)" fill="#cacddd"/><path d="M1160.581,319.1a2.9,2.9,0,1,1,2.9-2.9,2.9,2.9,0,0,1-2.9,2.9m0-5.416a2.514,2.514,0,1,0,2.515,2.514,2.517,2.517,0,0,0-2.515-2.514" transform="translate(-1044.288 -282.614)" fill="#7a98f8"/><path d="M836.11,319.1a2.9,2.9,0,1,1,2.9-2.9,2.9,2.9,0,0,1-2.9,2.9m0-5.416a2.514,2.514,0,1,0,2.514,2.514,2.517,2.517,0,0,0-2.514-2.514" transform="translate(-751.598 -282.614)" fill="#7a98f8"/><path d="M1079.457,178.6a2.9,2.9,0,1,1,1.453-5.415h0a2.9,2.9,0,0,1-1.453,5.414m0-5.416a2.523,2.523,0,0,0-2.18,1.257,2.514,2.514,0,0,0,2.176,3.772,2.515,2.515,0,0,0,2.431-3.166,2.515,2.515,0,0,0-2.427-1.864" transform="translate(-971.111 -155.873)" fill="#7a98f8"/><path d="M917.221,459.6a2.9,2.9,0,1,1,2.515-1.451,2.9,2.9,0,0,1-2.515,1.451m0-5.417a2.525,2.525,0,0,0-2.18,1.258,2.515,2.515,0,0,0,2.176,3.772,2.525,2.525,0,0,0,2.18-1.258,2.515,2.515,0,0,0-2.176-3.772" transform="translate(-824.766 -409.348)" fill="#7a98f8"/><path d="M1079.46,459.6a2.911,2.911,0,0,1-2.514-1.451,2.9,2.9,0,0,1,2.511-4.352,2.913,2.913,0,0,1,2.514,1.451,2.9,2.9,0,0,1-2.511,4.352m0-5.417a2.513,2.513,0,1,0,2.18,1.258,2.52,2.52,0,0,0-2.18-1.258" transform="translate(-971.111 -409.348)" fill="#7a98f8"/><path d="M479.142,429.433l2.386-.545c-.33-1.443-1.086-6.209-1.359-8.357-.232-1.827-.5-3.425-.7-4.3l-3.746.855c.918,3.481,2.28,8.909,3.412,12.326Z" transform="translate(-429.127 -375.462)" fill="#ffc4b6"/><path d="M479.118,402.9a1.921,1.921,0,1,1-2.3-1.445,1.921,1.921,0,0,1,2.3,1.445" transform="translate(-428.767 -362.089)" fill="#ffc4b6"/><path d="M512.825,537.117a1.224,1.224,0,1,1-1.466-.921,1.224,1.224,0,0,1,1.466.921" transform="translate(-460.415 -483.649)" fill="#ffc4b6"/><path d="M523.627,289.944a2.691,2.691,0,0,1-3.392,1.467c-.047-.017-.095-.036-.142-.056a2.691,2.691,0,1,1,3.534-1.411" transform="translate(-467.681 -258.159)" fill="#ffc4b6"/><path d="M479.08,404.134a1.921,1.921,0,1,1-1.008-2.523,1.921,1.921,0,0,1,1.008,2.523" transform="translate(-428.829 -362.133)" fill="#ffc4b6"/><path d="M481.27,302.836h0A54.79,54.79,0,0,0,477,313.607l-.014.052,3.531,1.516a80.913,80.913,0,0,1,5.669-10.17l.028-.046Z" transform="translate(-430.268 -273.174)" fill="#ffc4b6"/><path d="M640.873,286.117a2.691,2.691,0,0,1,1.768,3.246q-.019.073-.043.146a2.691,2.691,0,1,1-1.725-3.392" transform="translate(-574.921 -257.972)" fill="#ffc4b6"/><path d="M745.2,325.267a1.921,1.921,0,1,1-2.422,1.232,1.921,1.921,0,0,1,2.422-1.232" transform="translate(-669.936 -293.322)" fill="#ffc4b6"/><path d="M656.323,292.45h0a45.83,45.83,0,0,0,9.732,2.328l.053.01,1.19-3.654h0a59.684,59.684,0,0,1-9.26-3.778l-.048-.023Z" transform="translate(-592.038 -259.189)" fill="#ffc4b6"/><path d="M757.293,257.029l-1.8-1.654c-1,1.091-3.056,3.023-4.669,4.469-1.371,1.23-2.533,2.358-3.141,3.02l2.833,2.6q3.513-4.1,6.768-8.414Z" transform="translate(-674.447 -230.361)" fill="#ffc4b6"/><path d="M743.327,325.768a1.921,1.921,0,1,1,.118,2.714,1.921,1.921,0,0,1-.118-2.714" transform="translate(-670.065 -293.298)" fill="#ffc4b6"/><path d="M824.742,251.395a1.224,1.224,0,1,1,.075,1.729,1.224,1.224,0,0,1-.075-1.729" transform="translate(-743.671 -226.413)" fill="#ffc4b6"/><rect width="3.277" height="6.077" transform="translate(64.274 93.272)" fill="#ffc4b6"/><path d="M587.237,184.228a2.835,2.835,0,0,1-1.312-.245,4.972,4.972,0,0,1-2.186-2.007q-.122-.194-.23-.4a4.663,4.663,0,0,1-.221-4.388q.055-.1.117-.206a2.986,2.986,0,0,1,4.12-.643,3.327,3.327,0,0,1,1.283,2.646,8.779,8.779,0,0,1-.339,4.314,1.354,1.354,0,0,1-1.232.923" transform="translate(-525.748 -158.589)" fill="#ffc4b6"/><path d="M581.483,234.972h3.709l-.063-1.249-.028-.572-.049-.971-.092-1.828-3.28.015L581.6,232.2l-.038.9Z" transform="translate(-524.529 -207.789)" fill="#ffc4b6"/><path d="M601.578,233.936c.093.02.234.048.236.025.027-.417-.213-.91-.679-.918a.513.513,0,0,0-.447.185,2.441,2.441,0,0,0-.27.4,11.6,11.6,0,0,0,1.16.3" transform="translate(-541.607 -210.214)" fill="#ea8883"/><path d="M561.383,172.647c.117.416.149.8.351.82a4.945,4.945,0,0,0,1.143.009c.125-.009.27.01.335-.121.159-.319.272-.669.45-.976a2.649,2.649,0,0,1,.64-.721,1.261,1.261,0,0,1,.992-.427c.354.067.46-.013.507-.394a2.713,2.713,0,0,1,.372-1.191c.45-.53.966-.474,1.542-.714a2.4,2.4,0,0,0,.983-3.288,1.149,1.149,0,0,0-1.615-.688,4.987,4.987,0,0,1-2.512.218,7.72,7.72,0,0,0-1.127-.252c-.945-.033-2.745.18-2.418,1.61a1.636,1.636,0,0,0-1.053.68,2.486,2.486,0,0,0-.281,1.969,6.145,6.145,0,0,0,.9,1.966,6.44,6.44,0,0,1,.8,1.5" transform="translate(-504.799 -148.704)" fill="#171d51"/><path d="M607.206,222.251a1.189,1.189,0,0,1-.219,1.416c-.352.216-.824-.068-1.055-.634a1.189,1.189,0,0,1,.219-1.416c.352-.216.824.068,1.055.634" transform="translate(-546.47 -199.845)" fill="#ffc4b6"/><path d="M611.64,225.02a.72.72,0,0,0-.686-.72.037.037,0,0,1,0-.074.794.794,0,0,1,.76.793c0,.047-.069.047-.074,0" transform="translate(-551.08 -202.264)" fill="#ea8883"/><path d="M660.183,1005.052l-4.2-2.38h-3.359l-.3,3.023c0,.235.134.426.3.426h7.4c.216,0,.391-.25.391-.558a.6.6,0,0,0-.236-.512" transform="translate(-588.436 -904.463)" fill="#5573c6"/><rect width="3.277" height="6.077" transform="translate(51.609 93.272)" fill="#ffc4b6"/><path d="M530.876,1005.052l-4.2-2.38h-3.359l-.3,3.023c0,.235.134.426.3.426h7.4c.216,0,.391-.25.391-.558a.6.6,0,0,0-.236-.512" transform="translate(-471.794 -904.463)" fill="#5573c6"/><path d="M590.868,519.184h-4.763q-.129-1.5-.261-3c-.34-3.808-.741-7.611-1.235-11.4a102.577,102.577,0,0,0-2.033-12.922c-.853-3.26-1.388-6.637-2.063-9.941-.639-3.131-1.491-6.012-1.133-9.244.181-1.634.568-3.441,1.928-4.365a3.941,3.941,0,0,1,1.479-.58,5.611,5.611,0,0,1,5.4,2.071,11.267,11.267,0,0,1,1.862,5.914c.539,6.555.731,10.821,1.246,17.386.6,7.691-.1,18.355-.431,26.081" transform="translate(-522.555 -421.837)" fill="#373f51"/><path d="M513.442,537.986c0-5.624-.707-11.23-.711-16.849,0-1.829-.293-3.878.955-5.382a5.322,5.322,0,0,1,4.367-1.8c2.782.151,4.909,2.258,4.75,4.707L521.136,538.4c0,.014-.006.027-.008.042L518.1,560.951h-4.821l.158-22.911c0-.009,0-.017,0-.026s0-.018,0-.028" transform="translate(-462.483 -463.603)" fill="#373f51"/><path d="M479.552,275.567c.955-2.731,2.49-5.274,4.971-6.6a11.684,11.684,0,0,1,5.5-1.291,14.839,14.839,0,0,1,5.228.638c2.961,1.082,5.737,2.644,8.713,3.684a1.989,1.989,0,0,1,.756.429,1.94,1.94,0,0,1,.46.954,6.251,6.251,0,0,1-.112,2.66,8.6,8.6,0,0,1-.361,1.291c-.138.364-.271.77-.723.827a1.47,1.47,0,0,1-.459-.039q-2.613-.5-5.177-1.234c-.076.981.056,3.674.109,4.336.13,1.626.23,3.254.324,4.883.18,3.124.368,7.783.368,9.567a29.328,29.328,0,0,1-8.063,1.284,46.211,46.211,0,0,1-9.538-.973c.035-1.552.233-2.755.3-4.3.02-.458.028-.916.039-1.374,0-2.2-.06-6.32.046-8.507a15.842,15.842,0,0,1-3.707-1.314,36.624,36.624,0,0,1,1.322-4.915" transform="translate(-431.389 -241.45)" fill="#f4a338"/><rect width="0.134" height="8.654" transform="matrix(0.955, -0.297, 0.297, 0.955, 56.676, 58.752)" fill="#183573"/><rect width="0.135" height="8.475" transform="translate(50.481 31.871)" fill="#3463b7"/><path d="M826.325,210.29a2.848,2.848,0,0,0,.411-1.221,2.426,2.426,0,0,1,.379-1.26,2.28,2.28,0,0,1,.414-.372,2.226,2.226,0,0,1,1.108-.575c.038,0,.115.007.115.007s.324-.411.362-.463a2.1,2.1,0,0,1,.36-.4,4.138,4.138,0,0,1,1.04-.689.555.555,0,0,1,.3-.043.31.31,0,0,1,.225.358.6.6,0,0,1-.223.3,6.869,6.869,0,0,0-.591.59,4.528,4.528,0,0,0-.331.484.632.632,0,0,1,.2-.157c.448-.223.538.612.374.864a.63.63,0,0,1,.121.789.492.492,0,0,1,.192.46,1.453,1.453,0,0,1-.169.493,3.249,3.249,0,0,1-.395.672,2.135,2.135,0,0,1-.685.523,3.823,3.823,0,0,0-1.173,1.029c-.18-.076-1.419-1.016-2.038-1.384" transform="translate(-745.389 -185.162)" fill="#ffc4b6"/><path d="M844.81,221.982l-.076-.069.585-.649.077.069Z" transform="translate(-761.994 -199.591)" fill="#ea8883"/><path d="M919.919,170.508h-1.2a2.7,2.7,0,0,1,.155-.944,1.963,1.963,0,0,1,.383-.664q.229-.246.5-.486t.5-.417a1.539,1.539,0,0,0,.384-.44,1.131,1.131,0,0,0,.155-.584,1.015,1.015,0,0,0-.366-.806,1.457,1.457,0,0,0-.984-.315,1.5,1.5,0,0,0-1.133.417,1.612,1.612,0,0,0-.4,1.161h-1.3a2.638,2.638,0,0,1,.773-1.991,3.289,3.289,0,0,1,3.993-.131,1.989,1.989,0,0,1,.715,1.585,2.329,2.329,0,0,1-.16.886,1.71,1.71,0,0,1-.406.624q-.246.229-.526.469c-.187.16-.36.306-.521.44a1.542,1.542,0,0,0-.395.509,1.5,1.5,0,0,0-.155.686m-1.35,1.647a.724.724,0,0,1,.217-.521.734.734,0,0,1,1.053,0,.725.725,0,0,1,.217.521.74.74,0,0,1-.217.533.734.734,0,0,1-1.053,0,.739.739,0,0,1-.217-.533" transform="translate(-826.823 -148.564)" fill="#4adbd1"/><path d="M878.474,146.129a7.081,7.081,0,0,1-1.445-.3l.31-.96a6,6,0,0,0,1.237.26Zm1.473,0-.1-1a5.95,5.95,0,0,0,1.236-.262l.313.959a7.027,7.027,0,0,1-1.445.307m-4.267-.9a7.172,7.172,0,0,1-1.194-.866l.674-.751a6.134,6.134,0,0,0,1.025.743Zm7.061-.007-.507-.872a6.1,6.1,0,0,0,1.023-.745l.675.75a7.162,7.162,0,0,1-1.191.868m-9.245-1.953a7.047,7.047,0,0,1-.741-1.275l.921-.412a6.06,6.06,0,0,0,.634,1.093Zm11.422-.012-.816-.594a5.965,5.965,0,0,0,.633-1.094l.922.41a7.045,7.045,0,0,1-.739,1.278M872.3,140.587a7.117,7.117,0,0,1-.156-1.467l1.009,0a6.1,6.1,0,0,0,.134,1.258Zm13.816-.015-.987-.209a6.1,6.1,0,0,0,.131-1.258l1.009-.028v.028a7.068,7.068,0,0,1-.153,1.467m-12.835-2.713-.988-.208a7.082,7.082,0,0,1,.453-1.4l.922.409a6.027,6.027,0,0,0-.388,1.2m11.843-.037a6.066,6.066,0,0,0-.395-1.2l.92-.414a7.033,7.033,0,0,1,.462,1.4ZM874.3,135.558l-.817-.591a7.076,7.076,0,0,1,.985-1.1l.676.747a6.118,6.118,0,0,0-.844.942m9.791-.03a6.04,6.04,0,0,0-.849-.937l.673-.753a7.1,7.1,0,0,1,.991,1.093Zm-7.926-1.66-.507-.872a7.052,7.052,0,0,1,1.346-.6l.314.959a6.039,6.039,0,0,0-1.153.518m6.05-.019a6.068,6.068,0,0,0-1.157-.511l.309-.96a7.028,7.028,0,0,1,1.351.6Zm-3.661-.764-.108-1a7.324,7.324,0,0,1,1.475,0l-.1,1a6.282,6.282,0,0,0-1.267,0" transform="translate(-786.716 -119.109)" fill="#4adbd1"/></g></g></g></svg>