<svg xmlns="http://www.w3.org/2000/svg" xmlns:xlink="http://www.w3.org/1999/xlink" width="113.565" height="95.333" viewBox="0 0 113.565 95.333">
  <defs>
    <clipPath id="clip-path">
      <rect id="Rectángulo_365032" data-name="Rectángulo 365032" width="106.209" height="78.603" fill="none"/>
    </clipPath>
    <clipPath id="clip-path-3">
      <rect id="Rectángulo_365027" data-name="Rectángulo 365027" width="32.691" height="34.746" fill="none"/>
    </clipPath>
  </defs>
  <g id="Grupo_1043416" data-name="Grupo 1043416" transform="translate(-1298.104 -5879.773)">
    <rect id="Rectángulo_364974" data-name="Rectángulo 364974" width="3.702" height="95.333" transform="translate(1298.104 5879.773)" fill="#4adbd1"/>
    <g id="Grupo_1031066" data-name="Grupo 1031066" transform="translate(1305.461 5887.129)">
      <g id="Grupo_1031065" data-name="Grupo 1031065" clip-path="url(#clip-path)">
        <g id="Grupo_1031064" data-name="Grupo 1031064" transform="translate(0 0)">
          <g id="Grupo_1031063" data-name="Grupo 1031063" clip-path="url(#clip-path)">
            <path id="Trazado_776820" data-name="Trazado 776820" d="M96.31,78.3c11.3-8.594,16.335-32.424-2.015-44.108-12.149-7.735-19.706-3.322-33.373-8.439C44.236,19.51,41.75.643,21.454,9.927,10.7,14.843,3.248,28.7,1.936,44.451.652,59.875,6.118,70.458,17.289,77.7c26.234,1.117,52.519.914,79.021.6" transform="translate(-0.242 -1.024)" fill="#f0f0f0"/>
            <path id="Trazado_776821" data-name="Trazado 776821" d="M57.563,9.5c-1.707,6.854,4.632,13.639,11.311,16.452s14.337,2.48,21.492,1.137c3.087-.578,6.261-1.392,8.659-3.36s3.789-5.385,2.475-8.146c-1.16-2.435-3.984-3.682-6.676-4.322s-5.552-.9-7.95-2.249C84.6,7.731,82.986,5.614,81.007,3.939A16.339,16.339,0,0,0,67.468.293c-4.755.978-8.454,3.378-9.905,9.2" transform="translate(-7.925 0)" fill="#f0f0f0"/>
            <g id="Grupo_1031062" data-name="Grupo 1031062" transform="translate(68.08 26.595)" opacity="0.2" style="isolation: isolate">
              <g id="Grupo_1031061" data-name="Grupo 1031061">
                <g id="Grupo_1031060" data-name="Grupo 1031060" clip-path="url(#clip-path-3)">
                  <path id="Trazado_776822" data-name="Trazado 776822" d="M113.153,45.291V40.106h-1.965a10.1,10.1,0,0,0-1.057-2.549l1.39-1.392L107.853,32.5l-1.392,1.39a10.054,10.054,0,0,0-2.549-1.057V30.865H98.727v1.966a10.06,10.06,0,0,0-2.55,1.057L94.785,32.5l-3.666,3.666,1.39,1.392a10.162,10.162,0,0,0-1.057,2.549H89.485v5.185h1.966a10.162,10.162,0,0,0,1.057,2.549l-1.39,1.392L94.785,52.9l1.392-1.391a10.123,10.123,0,0,0,2.55,1.057v1.966h5.185V52.566a10.117,10.117,0,0,0,2.549-1.057l1.392,1.391,3.667-3.667-1.39-1.392a10.1,10.1,0,0,0,1.057-2.549Zm-11.832,1.9a4.493,4.493,0,1,1,4.491-4.493,4.494,4.494,0,0,1-4.491,4.493" transform="translate(-80.461 -30.865)"/>
                  <path id="Trazado_776823" data-name="Trazado 776823" d="M96.725,61.82l-.987-2.572-.975.375a5.332,5.332,0,0,0-1.009-1.063l.425-.955-2.516-1.121-.427.954a5.334,5.334,0,0,0-1.465-.039l-.375-.975-2.571.987.374.975a5.351,5.351,0,0,0-1.062,1.009l-.956-.425L84.06,61.486l.955.427a5.4,5.4,0,0,0-.04,1.465L84,63.751l.987,2.572.975-.374a5.379,5.379,0,0,0,1.01,1.062l-.425.956,2.516,1.12.426-.954a5.443,5.443,0,0,0,1.466.04l.374.975,2.571-.987-.374-.975a5.408,5.408,0,0,0,1.063-1.01l.955.425,1.121-2.516-.955-.427a5.334,5.334,0,0,0,.04-1.465Zm-5.507,3.193a2.386,2.386,0,1,1,1.373-3.083,2.388,2.388,0,0,1-1.373,3.083" transform="translate(-79.702 -34.402)"/>
                  <path id="Trazado_776824" data-name="Trazado 776824" d="M87.609,51.632l-.666-1.738-.659.253a3.606,3.606,0,0,0-.682-.719l.287-.645-1.7-.757-.288.645a3.586,3.586,0,0,0-.99-.027l-.252-.659-1.738.667.253.658a3.632,3.632,0,0,0-.719.682l-.645-.287-.757,1.7.645.288a3.621,3.621,0,0,0-.027.99l-.659.252.667,1.738.658-.252a3.626,3.626,0,0,0,.682.718l-.287.645,1.7.757.288-.645a3.654,3.654,0,0,0,.99.026l.253.659,1.737-.667-.252-.658a3.626,3.626,0,0,0,.718-.682l.645.287.757-1.7-.645-.288a3.655,3.655,0,0,0,.027-.99ZM83.889,53.79a1.612,1.612,0,1,1,.927-2.083,1.613,1.613,0,0,1-.927,2.083" transform="translate(-79.012 -33.234)"/>
                </g>
              </g>
            </g>
            <path id="Trazado_776825" data-name="Trazado 776825" d="M85.657,15.6A8.193,8.193,0,1,1,77.464,7.4,8.184,8.184,0,0,1,85.657,15.6" transform="translate(-9.584 -1.024)" fill="#00dbd1"/>
            <path id="Trazado_776826" data-name="Trazado 776826" d="M78.349,10.67a2.682,2.682,0,1,1-2.681,2.681,2.681,2.681,0,0,1,2.681-2.681" transform="translate(-10.469 -1.476)" fill="#fff"/>
            <path id="Trazado_776827" data-name="Trazado 776827" d="M83.044,22.223a8.2,8.2,0,0,1-10.161,0c.524-2.3,1.006-4.3,1.509-4.8a6.306,6.306,0,0,1,3.57-1.122,7.715,7.715,0,0,1,3.314.866c.743.741,1.383,2.785,1.769,5.056" transform="translate(-10.084 -2.255)" fill="#fff"/>
            <path id="Trazado_776828" data-name="Trazado 776828" d="M65.115,39.381V35.336a2,2,0,0,1,2-2H79.86a2,2,0,0,1,2,2v4.045a2,2,0,0,1-2,2H67.117a2,2,0,0,1-2-2" transform="translate(-9.009 -4.612)" fill="#373f51"/>
            <path id="Trazado_776829" data-name="Trazado 776829" d="M70.372,40.106,64.2,46.115l10-5.053" transform="translate(-8.883 -5.549)" fill="#373f51"/>
            <path id="Trazado_776830" data-name="Trazado 776830" d="M66.91,35.489v-.022a.3.3,0,0,1,.3-.3h6.3a.3.3,0,0,1,.3.3v.022a.3.3,0,0,1-.3.3h-6.3a.3.3,0,0,1-.3-.3" transform="translate(-9.257 -4.866)" fill="#fff"/>
            <path id="Trazado_776831" data-name="Trazado 776831" d="M75.243,35.489v-.022a.3.3,0,0,1,.3-.3h5.5a.3.3,0,0,1,.3.3v.022a.3.3,0,0,1-.3.3h-5.5a.3.3,0,0,1-.3-.3" transform="translate(-10.41 -4.866)" fill="#fff"/>
            <path id="Trazado_776832" data-name="Trazado 776832" d="M72.456,37.061v-.022a.3.3,0,0,1,.3-.3h7.9a.3.3,0,0,1,.3.3v.022a.3.3,0,0,1-.3.3h-7.9a.3.3,0,0,1-.3-.3" transform="translate(-10.025 -5.084)" fill="#fff"/>
            <path id="Trazado_776833" data-name="Trazado 776833" d="M66.91,37.061v-.022a.3.3,0,0,1,.3-.3h3.529a.3.3,0,0,1,.3.3v.022a.3.3,0,0,1-.3.3H67.207a.3.3,0,0,1-.3-.3" transform="translate(-9.257 -5.084)" fill="#fff"/>
            <path id="Trazado_776834" data-name="Trazado 776834" d="M73.729,38.632V38.61a.3.3,0,0,1,.3-.3h6.8a.3.3,0,0,1,.3.3v.022a.3.3,0,0,1-.3.3h-6.8a.3.3,0,0,1-.3-.3" transform="translate(-10.201 -5.301)" fill="#fff"/>
            <path id="Trazado_776835" data-name="Trazado 776835" d="M66.91,38.632V38.61a.3.3,0,0,1,.3-.3h4.7a.3.3,0,0,1,.3.3v.022a.3.3,0,0,1-.3.3h-4.7a.3.3,0,0,1-.3-.3" transform="translate(-9.257 -5.301)" fill="#fff"/>
            <path id="Trazado_776836" data-name="Trazado 776836" d="M66.91,40.2v-.022a.3.3,0,0,1,.3-.3h1.745a.3.3,0,0,1,.3.3V40.2a.3.3,0,0,1-.3.3H67.207a.3.3,0,0,1-.3-.3" transform="translate(-9.257 -5.518)" fill="#fff"/>
            <path id="Trazado_776837" data-name="Trazado 776837" d="M70.34,40.2v-.022a.3.3,0,0,1,.3-.3h9.725a.3.3,0,0,1,.3.3V40.2a.3.3,0,0,1-.3.3H70.637a.3.3,0,0,1-.3-.3" transform="translate(-9.732 -5.518)" fill="#fff"/>
            <path id="Trazado_776838" data-name="Trazado 776838" d="M16.24,21.21a7.882,7.882,0,1,1-4.573,10.166A7.881,7.881,0,0,1,16.24,21.21" transform="translate(-1.543 -2.863)" fill="#00dbd1"/>
            <path id="Trazado_776839" data-name="Trazado 776839" d="M19.563,34.855a1.91,1.91,0,1,1-.9-2.549,1.91,1.91,0,0,1,.9,2.549" transform="translate(-2.204 -4.444)" fill="#fff"/>
            <path id="Trazado_776840" data-name="Trazado 776840" d="M16.968,34.826l-.092-1.211,1-.685,1.1.526.092,1.211-1,.685Z" transform="translate(-2.335 -4.556)" fill="#00dbd1"/>
            <path id="Trazado_776841" data-name="Trazado 776841" d="M23.874,25.875a1.91,1.91,0,1,1-.9-2.549,1.91,1.91,0,0,1,.9,2.549" transform="translate(-2.801 -3.201)" fill="#fff"/>
            <path id="Trazado_776842" data-name="Trazado 776842" d="M21.359,25.607l.065-1.541,1.161-1.014,1.1.526-.066,1.541-1.161,1.014Z" transform="translate(-2.955 -3.189)" fill="#00dbd1"/>
            <path id="Trazado_776843" data-name="Trazado 776843" d="M19.448,32.338l-1.461-.7,1.08-2.491c.069-.159.143-.314.224-.466l1.268-2.4,1.461.7-1.042,2.453c-.08.19-.17.376-.267.557Z" transform="translate(-2.489 -3.636)" fill="#fff"/>
            <path id="Trazado_776844" data-name="Trazado 776844" d="M26.657,34.3c.282-.131,4.8.076,4.8.076L28.2,31.381Z" transform="translate(-3.688 -4.342)" fill="#00dbd1"/>
            <path id="Trazado_776845" data-name="Trazado 776845" d="M40.278,1.817a7.747,7.747,0,1,1-7.7,7.794,7.747,7.747,0,0,1,7.7-7.794" transform="translate(-4.507 -0.251)" fill="#373f51"/>
            <rect id="Rectángulo_365028" data-name="Rectángulo 365028" width="0.518" height="6.506" transform="translate(35.558 2.711)" fill="#fff"/>
            <rect id="Rectángulo_365029" data-name="Rectángulo 365029" width="6.595" height="0.518" transform="matrix(0.822, -0.569, 0.569, 0.822, 30.101, 12.97)" fill="#fff"/>
            <path id="Trazado_776846" data-name="Trazado 776846" d="M42.168,10.693a.713.713,0,1,1-.713-.713.713.713,0,0,1,.713.713" transform="translate(-5.637 -1.381)" fill="#fff"/>
            <path id="Trazado_776847" data-name="Trazado 776847" d="M65.972,68.7A22.581,22.581,0,0,1,73.83,50.1c.162,7.118-2.905,14.321-7.858,18.605" transform="translate(-9.121 -6.931)" fill="#e6b046"/>
            <path id="Trazado_776848" data-name="Trazado 776848" d="M72.119,52.308a93.926,93.926,0,0,0-5.681,12.811C64.517,70.49,63.006,76.2,59.717,80.7" transform="translate(-8.262 -7.237)" fill="none" stroke="#93681c" stroke-linecap="round" stroke-miterlimit="10" stroke-width="0.276"/>
            <path id="Trazado_776849" data-name="Trazado 776849" d="M64.068,74.991c2.642-5.909,7.885-10.374,13.665-11.637-2.46,6.332-8,11.163-13.665,11.637" transform="translate(-8.864 -8.766)" fill="#e6b046"/>
            <path id="Trazado_776850" data-name="Trazado 776850" d="M76.347,64.864Q70.425,70.077,64.3,74.993" transform="translate(-8.897 -8.974)" fill="none" stroke="#93681c" stroke-linecap="round" stroke-miterlimit="10" stroke-width="0.276"/>
            <path id="Trazado_776851" data-name="Trazado 776851" d="M62.259,81.722C65.788,76.45,72.3,73.7,77.688,75.2c-3.963,5.2-10.488,7.963-15.429,6.518" transform="translate(-8.614 -10.348)" fill="#e6b046"/>
            <path id="Trazado_776852" data-name="Trazado 776852" d="M76.295,75.711a51.342,51.342,0,0,1-14.763,6.316" transform="translate(-8.513 -10.475)" fill="none" stroke="#93681c" stroke-linecap="round" stroke-miterlimit="10" stroke-width="0.276"/>
            <path id="Trazado_776853" data-name="Trazado 776853" d="M63.68,72.062a20.8,20.8,0,0,0-4.331-16.928C57.8,60.967,59.277,67.8,63.68,72.062" transform="translate(-8.129 -7.628)" fill="#e6b046"/>
            <path id="Trazado_776854" data-name="Trazado 776854" d="M59.894,56.891A64.266,64.266,0,0,0,64,72.638" transform="translate(-8.287 -7.871)" fill="none" stroke="#93681c" stroke-linecap="round" stroke-miterlimit="10" stroke-width="0.276"/>
            <path id="Trazado_776855" data-name="Trazado 776855" d="M60.909,78.239a20.372,20.372,0,0,0-8.182-15,26.083,26.083,0,0,0,2.488,9.179c1.568,3.253,3.871,5.316,5.695,5.816" transform="translate(-7.295 -8.75)" fill="#e6b046"/>
            <path id="Trazado_776856" data-name="Trazado 776856" d="M53.514,64.677a48.481,48.481,0,0,0,7.618,13.889" transform="translate(-7.404 -8.949)" fill="none" stroke="#93681c" stroke-linecap="round" stroke-miterlimit="10" stroke-width="0.276"/>
            <path id="Trazado_776857" data-name="Trazado 776857" d="M103.219,76.8c2.5-6.5,8.239-11.764,14.572-13.368-2.775,6.406-8.439,11.571-14.572,13.368" transform="translate(-14.281 -8.777)" fill="#e6b046"/>
            <path id="Trazado_776858" data-name="Trazado 776858" d="M114.721,65a92.236,92.236,0,0,0-10.273,9.094c-3.9,4-7.575,8.467-12.328,11.138" transform="translate(-12.746 -8.993)" fill="none" stroke="#93681c" stroke-linecap="round" stroke-miterlimit="10" stroke-width="0.276"/>
            <path id="Trazado_776859" data-name="Trazado 776859" d="M99.41,81.943c4.757-4.186,11.221-6.024,16.847-4.791-4.769,4.638-11.642,6.683-16.847,4.791" transform="translate(-13.754 -10.622)" fill="#e6b046"/>
            <path id="Trazado_776860" data-name="Trazado 776860" d="M114.512,77.89Q107.14,80.117,99.714,82" transform="translate(-13.796 -10.777)" fill="none" stroke="#93681c" stroke-linecap="round" stroke-miterlimit="10" stroke-width="0.276"/>
            <path id="Trazado_776861" data-name="Trazado 776861" d="M95.361,86.987c5.281-3.255,12.164-3.048,16.309.49-5.635,3.017-12.534,2.811-16.309-.49" transform="translate(-13.194 -11.716)" fill="#e6b046"/>
            <path id="Trazado_776862" data-name="Trazado 776862" d="M110.273,87.642a49.766,49.766,0,0,1-15.635-.4" transform="translate(-13.094 -12.071)" fill="none" stroke="#93681c" stroke-linecap="round" stroke-miterlimit="10" stroke-width="0.276"/>
            <path id="Trazado_776863" data-name="Trazado 776863" d="M100.462,78.381a20.53,20.53,0,0,0,3.111-16.847c-3.758,4.564-5.257,11.254-3.111,16.847" transform="translate(-13.763 -8.514)" fill="#e6b046"/>
            <path id="Trazado_776864" data-name="Trazado 776864" d="M103.454,63.279a63.29,63.29,0,0,0-2.82,15.707" transform="translate(-13.923 -8.755)" fill="none" stroke="#93681c" stroke-linecap="round" stroke-miterlimit="10" stroke-width="0.276"/>
            <path id="Trazado_776865" data-name="Trazado 776865" d="M95.8,82.713a20.057,20.057,0,0,0-1.086-16.7,25.735,25.735,0,0,0-1.564,9.191c.05,3.536,1.24,6.316,2.65,7.506" transform="translate(-12.888 -9.134)" fill="#e6b046"/>
            <path id="Trazado_776866" data-name="Trazado 776866" d="M95.039,67.613a47.714,47.714,0,0,0,1.04,15.481" transform="translate(-13.119 -9.355)" fill="none" stroke="#93681c" stroke-linecap="round" stroke-miterlimit="10" stroke-width="0.276"/>
            <path id="Trazado_776867" data-name="Trazado 776867" d="M18.228,63.222A24.586,24.586,0,0,0,.319,47.363C3.792,54.1,10.093,59.458,18.228,63.222" transform="translate(-0.044 -6.553)" fill="#e6b046"/>
            <path id="Trazado_776868" data-name="Trazado 776868" d="M18.615,66.693A23.544,23.544,0,0,0,0,64.838a26.287,26.287,0,0,0,18.615,1.855" transform="translate(0 -8.816)" fill="#e6b046"/>
            <path id="Trazado_776869" data-name="Trazado 776869" d="M20.627,69.093A24.628,24.628,0,0,0,3.4,73.148c5.548,2.016,12.205.708,17.228-4.055" transform="translate(-0.47 -9.528)" fill="#e6b046"/>
            <path id="Trazado_776870" data-name="Trazado 776870" d="M23.111,73.409a19.453,19.453,0,0,0-15.34,7.415,13.124,13.124,0,0,0,7.912-.889c2.436-1.1,4.477-2.986,7.428-6.526" transform="translate(-1.075 -10.157)" fill="#e6b046"/>
            <path id="Trazado_776871" data-name="Trazado 776871" d="M27.824,80.526A19.578,19.578,0,0,0,11.43,85.294a13.172,13.172,0,0,0,7.957.433c2.591-.683,4.923-2.2,8.436-5.2" transform="translate(-1.581 -11.104)" fill="#e6b046"/>
            <path id="Trazado_776872" data-name="Trazado 776872" d="M22.463,63.259a19.734,19.734,0,0,1-2.732-18.3,30.578,30.578,0,0,1,3.819,9.08c.679,3.207.547,6.628-1.087,9.216" transform="translate(-2.572 -6.221)" fill="#e6b046"/>
            <path id="Trazado_776873" data-name="Trazado 776873" d="M25.8,69.574a18.047,18.047,0,0,1,5-15.489c.463,5.756-1.3,11.619-5,15.489" transform="translate(-3.538 -7.483)" fill="#e6b046"/>
            <path id="Trazado_776874" data-name="Trazado 776874" d="M2.418,48.982A65.855,65.855,0,0,1,28.371,80.635" transform="translate(-0.335 -6.777)" fill="none" stroke="#93681c" stroke-linecap="round" stroke-miterlimit="10" stroke-width="0.276"/>
            <path id="Trazado_776875" data-name="Trazado 776875" d="M20.34,48.167a93.919,93.919,0,0,1,2.609,17.782" transform="translate(-2.814 -6.664)" fill="none" stroke="#93681c" stroke-linecap="round" stroke-miterlimit="10" stroke-width="0.276"/>
            <path id="Trazado_776876" data-name="Trazado 776876" d="M29.934,56.706a34.689,34.689,0,0,1-4.253,13.465" transform="translate(-3.553 -7.846)" fill="none" stroke="#93681c" stroke-linecap="round" stroke-miterlimit="10" stroke-width="0.276"/>
            <path id="Trazado_776877" data-name="Trazado 776877" d="M2.889,65.176a95.715,95.715,0,0,0,16.442,1.672" transform="translate(-0.4 -9.018)" fill="none" stroke="#93681c" stroke-linecap="round" stroke-miterlimit="10" stroke-width="0.276"/>
            <path id="Trazado_776878" data-name="Trazado 776878" d="M6.68,72.726a44.151,44.151,0,0,0,14.462-3.563" transform="translate(-0.924 -9.569)" fill="none" stroke="#93681c" stroke-linecap="round" stroke-miterlimit="10" stroke-width="0.276"/>
            <path id="Trazado_776879" data-name="Trazado 776879" d="M10.155,79.931l13.837-6.9" transform="translate(-1.405 -10.104)" fill="none" stroke="#93681c" stroke-linecap="round" stroke-miterlimit="10" stroke-width="0.276"/>
            <path id="Trazado_776880" data-name="Trazado 776880" d="M13.637,85.038c6.022-1.161,7.811-2.549,14.495-4.467" transform="translate(-1.887 -11.148)" fill="none" stroke="#93681c" stroke-linecap="round" stroke-miterlimit="10" stroke-width="0.276"/>
            <path id="Trazado_776881" data-name="Trazado 776881" d="M56.794,72.954s.521,4.776,1.1,5.16c1.042.688,13.108,2.277,13.108,2.277l-.4,3.139s-16.525,1.485-17.228.659c-1.218-1.432-3.36-8.343-3.36-8.343Z" transform="translate(-6.921 -10.094)" fill="#e06a58"/>
            <path id="Trazado_776882" data-name="Trazado 776882" d="M48.634,58.168l1.335-3.205s3.622,1.7,4.817,3.8c1.278,2.247,2.842,14.191,2.842,14.191s-6.4,1.473-7.57.847-1.423-15.635-1.423-15.635" transform="translate(-6.729 -7.605)" fill="#5573c6"/>
            <path id="Trazado_776883" data-name="Trazado 776883" d="M34.687,41.322a7.061,7.061,0,0,0-2.928-.566,2.71,2.71,0,0,0-2.366,1.487c-.241.624-.13,1.359-.513,1.921a2.3,2.3,0,0,1-1.777.806c-.682.047-1.37-.043-2.049.046a3.511,3.511,0,0,0-2.9,4.417c.273.743.836,1.452.707,2.225-.136.829-1.006,1.373-1.361,2.142a2.543,2.543,0,0,0,1.028,2.961A7.35,7.35,0,0,0,25.86,57.9a13.845,13.845,0,0,0,4.91.014A6.161,6.161,0,0,0,34.742,55.4a20.47,20.47,0,0,1,1.019-1.8c.886-1.135,2.454-1.575,3.69-2.38,1.349-.883,2.339-2.6,1.544-3.945-.766-1.292-2.76-1.58-3.56-2.854a8.957,8.957,0,0,1-.623-1.725c-.22-.576-.742-.867-2.125-1.373" transform="translate(-2.951 -5.637)" fill="#2f3642"/>
            <path id="Trazado_776884" data-name="Trazado 776884" d="M41.995,57.536a1.4,1.4,0,0,0,.9.595,1.344,1.344,0,0,0,1.008-.538,10.236,10.236,0,0,0,2.606-5c-.335-.19-.659-.374-.951-.545a1.443,1.443,0,0,1-.593-.652,1.252,1.252,0,0,1-.089-.614,17.563,17.563,0,0,1,.987-4.6c-2.985-.673-5.8-1.473-7.417-2.824-.2.833-.431,2.463-.929,4.079-.53,1.711-1.359,3.4-2.762,4.132a29.64,29.64,0,0,1,7.24,5.969" transform="translate(-4.809 -5.999)" fill="#f9a07b"/>
            <path id="Trazado_776885" data-name="Trazado 776885" d="M45.319,50.787a1.247,1.247,0,0,0,.088.614c-1.766,2.141-5.714-.657-7.446-3.963.5-1.616.731-3.247.928-4.079,1.616,1.352,4.434,2.153,7.418,2.824a17.541,17.541,0,0,0-.987,4.6" transform="translate(-5.252 -5.999)" fill="#e06a58"/>
            <path id="Trazado_776886" data-name="Trazado 776886" d="M48.643,77.854c-.39,2.585,2.4,5.366,2.468,6.747-5.923,0-18.332.362-24.651-.5-.288-1.595,2.832-5.181,2.832-8.722,0-.469-.019-.982-.057-1.535-.1-1.58-.333-3.46-.593-5.388-.7-5.172-1.642-10.7-.95-11.849,1.356-2.235,4.529-3.753,6.1-4.406.54-.224.893-.345.919-.359,1.973,3.365,5.988,6.235,7.5,6.106.42-.033,1.671-.469,2.5-4.626.321.184.643.352.962.516,1.568.817,3.039,1.49,3.463,2.539a39.459,39.459,0,0,1,1.972,12.207c-.245,2.5-1.249,4.407-1.953,6.916-.165.588-.314,1.211-.436,1.883-.031.15-.054.307-.078.469" transform="translate(-3.658 -7.173)" fill="#f4a338"/>
            <path id="Trazado_776887" data-name="Trazado 776887" d="M51.111,86.848c-5.924,0-18.332.362-24.651-.5-.288-1.595,2.832-5.181,2.832-8.722,0-.469-.019-.983-.057-1.535-.1-1.58-.333-3.459-.593-5.388,1.121,1.183,2.756-3.815,3.479-2.351,3.914,7.9,7,9.98,12.365,9.98a20.584,20.584,0,0,0,4.669-.583c-.164.588-.314,1.211-.435,1.883-.028.152-.055.309-.078.47-.39,2.58,2.4,5.362,2.468,6.745" transform="translate(-3.658 -9.42)" fill="#e29334"/>
            <path id="Trazado_776888" data-name="Trazado 776888" d="M46.855,53.841c-.255,1.849-1.009,4.341-3.2,5-2.965.887-7.256-4.653-8.677-6.635.54-.224.893-.346.919-.359,1.973,3.365,5.988,6.235,7.5,6.106.421-.034,1.671-.469,2.5-4.626.321.181.643.35.962.516" transform="translate(-4.839 -7.173)" fill="#e5bc89"/>
            <path id="Trazado_776889" data-name="Trazado 776889" d="M50.174,86.623l-.022,2.064,36.888.219.077-2.339Z" transform="translate(-6.939 -11.977)" fill="#2a4872"/>
            <path id="Trazado_776890" data-name="Trazado 776890" d="M104.908,65.106l-.821-.833L77.219,64.1,63.739,83.59l.7.566Z" transform="translate(-8.819 -8.868)" fill="#2a4872"/>
            <path id="Trazado_776891" data-name="Trazado 776891" d="M77.851,64.933,64.556,84.272,89.95,84.4l15.072-19.177Z" transform="translate(-8.932 -8.984)" fill="#373f51"/>
            <path id="Trazado_776892" data-name="Trazado 776892" d="M86.957,75.83c1.632,0,2.955.662,2.955,1.478s-1.323,1.478-2.955,1.478S84,78.124,84,77.308s1.322-1.478,2.955-1.478" transform="translate(-11.622 -10.492)" fill="#3c738c"/>
            <path id="Trazado_776893" data-name="Trazado 776893" d="M50.794,42.2c.419-2.247,1.959-3.845,3.441-3.569s2.345,2.322,1.926,4.569S54.2,47.044,52.72,46.767s-2.345-2.321-1.926-4.568" transform="translate(-7.013 -5.34)" fill="#5573c6"/>
            <path id="Trazado_776894" data-name="Trazado 776894" d="M56.08,34.442a20.4,20.4,0,0,1-2.423,6.5c-.447-1.952-.732-4.33-1.128-6.707a27.769,27.769,0,0,0-1.8-6.711,11.553,11.553,0,0,0-.652-1.223,4.343,4.343,0,0,1,1.566.14A5.234,5.234,0,0,1,53.784,27.6a7.511,7.511,0,0,1,2.087,3.41,7.65,7.65,0,0,1,.209,3.427" transform="translate(-6.928 -3.636)" fill="#373f51"/>
            <path id="Trazado_776895" data-name="Trazado 776895" d="M52.61,36.31c-.015.385-.04.778-.076,1.168-.543,6.33-3.2,10.674-7.269,10.674-5.742,0-9.464-6.44-9.464-12.749,0-6.224,3.813-10.728,8.274-10.208a9.819,9.819,0,0,1,5.789,2.4,7.891,7.891,0,0,1,1.956,2.985,13.052,13.052,0,0,1,.788,4.3c0,.005.005.009.005.015.019.461.014.932,0,1.416" transform="translate(-4.953 -3.48)" fill="#f9a07b"/>
            <path id="Trazado_776896" data-name="Trazado 776896" d="M53.032,37.049a6.354,6.354,0,0,0-.774-1.745,18.072,18.072,0,0,1-11.25,1.807c-.728.607-1.44,1.2-2.156,1.8.015-2.88.054-4.829,1.178-6.224a6.668,6.668,0,0,1,4.479-2.015,20.7,20.7,0,0,1,5.652.035,5.738,5.738,0,0,1,2.083.616,13.057,13.057,0,0,1,.788,4.3s.005.009.005.014c.016.457.011.928-.005,1.411" transform="translate(-5.376 -4.22)" fill="#e06a58"/>
            <path id="Trazado_776897" data-name="Trazado 776897" d="M53.166,32.243a10.6,10.6,0,0,1-2.885,1.666,26.476,26.476,0,0,1-10.452,1.54c-1.571,3.451-2.207,4.689-2.608,7.7A12.272,12.272,0,0,1,34.065,37a14.06,14.06,0,0,1,.246-6.263,9.363,9.363,0,0,1,4.779-5.747,8.82,8.82,0,0,1,1.028-.476,9.845,9.845,0,0,1,6.385-.076,7.6,7.6,0,0,1,2.889,1.68,14.259,14.259,0,0,1,3.27,4.931c.205.454.37.866.5,1.2" transform="translate(-4.68 -3.312)" fill="#373f51"/>
            <path id="Trazado_776898" data-name="Trazado 776898" d="M54.677,34.118a9.655,9.655,0,0,0-.6-2.011,6.906,6.906,0,0,0-.566-1.064,5.837,5.837,0,0,0-3.039-2.477A11.247,11.247,0,0,0,49.327,27.2,8.815,8.815,0,0,0,44.408,24.6a9.361,9.361,0,0,0-4.469.381,9.008,9.008,0,0,1,1.028-.476,9.842,9.842,0,0,1,6.386-.076,7.6,7.6,0,0,1,2.889,1.68,5.231,5.231,0,0,1,2.141,1.168,7.505,7.505,0,0,1,2.088,3.41,7.688,7.688,0,0,1,.207,3.427" transform="translate(-5.526 -3.312)" fill="#374256"/>
            <path id="Trazado_776899" data-name="Trazado 776899" d="M42.916,40.158a4.028,4.028,0,0,1,3.708-.316" transform="translate(-5.938 -5.47)" fill="none" stroke="#373f51" stroke-linecap="round" stroke-miterlimit="10" stroke-width="0.552"/>
            <path id="Trazado_776900" data-name="Trazado 776900" d="M51.351,40.122a2.309,2.309,0,0,1,2.958,0" transform="translate(-7.105 -5.477)" fill="none" stroke="#373f51" stroke-linecap="round" stroke-miterlimit="10" stroke-width="0.552"/>
            <path id="Trazado_776901" data-name="Trazado 776901" d="M50.048,44.224a4.355,4.355,0,0,1-.185,2.023" transform="translate(-6.899 -6.119)" fill="none" stroke="#cc454e" stroke-linecap="round" stroke-miterlimit="10" stroke-width="0.552"/>
            <path id="Trazado_776902" data-name="Trazado 776902" d="M45.846,43c.242,0,.438.309.438.69s-.2.69-.438.69-.438-.309-.438-.69.2-.69.438-.69" transform="translate(-6.283 -5.949)" fill="#262d40"/>
            <path id="Trazado_776903" data-name="Trazado 776903" d="M52.488,42.625c.242,0,.438.309.438.69s-.2.69-.438.69-.438-.309-.438-.69.2-.69.438-.69" transform="translate(-7.201 -5.898)" fill="#262d40"/>
            <path id="Trazado_776904" data-name="Trazado 776904" d="M48.877,47.512a3.343,3.343,0,0,1-.25.393,2.718,2.718,0,0,1-1.292,1.006h0a1.688,1.688,0,0,1-.83.055,1.557,1.557,0,0,1-1.174-1.621A3.361,3.361,0,0,1,45.322,47a3.222,3.222,0,0,1,.033-.428,10.2,10.2,0,0,0,3.522.937" transform="translate(-6.27 -6.444)" fill="#cc454e"/>
            <path id="Trazado_776905" data-name="Trazado 776905" d="M48.877,47.512a3.343,3.343,0,0,1-.25.393,9.831,9.831,0,0,1-3.305-.9,3.222,3.222,0,0,1,.033-.428,10.2,10.2,0,0,0,3.522.937" transform="translate(-6.271 -6.444)" fill="#fff"/>
            <path id="Trazado_776906" data-name="Trazado 776906" d="M47.334,49.033a1.692,1.692,0,0,1-.831.055,1.558,1.558,0,0,1-1.174-1.621,2.436,2.436,0,0,1,2,1.566" transform="translate(-6.272 -6.567)" fill="#e8729b"/>
            <path id="Trazado_776907" data-name="Trazado 776907" d="M37.631,37.066a16.455,16.455,0,0,1,1.185-5.916,8.5,8.5,0,0,1,7.77-5.39,8.346,8.346,0,0,1,6,2.346,6.293,6.293,0,0,0-3.572-2.73,9.954,9.954,0,0,0-5.79.3,10.425,10.425,0,0,0-5.238,5.285,31.192,31.192,0,0,0-1.3,5.909Z" transform="translate(-5.076 -3.471)" fill="#7b93c6"/>
            <path id="Trazado_776908" data-name="Trazado 776908" d="M36.271,37.89c1.58-.165,3.063,1.644,3.312,4.039s-.83,4.47-2.411,4.634-3.063-1.644-3.312-4.039.831-4.469,2.411-4.634" transform="translate(-4.68 -5.241)" fill="#5573c6"/>
            <path id="Trazado_776909" data-name="Trazado 776909" d="M35.5,39.518c1.02-.153,2.066,1.178,2.336,2.973s-.339,3.374-1.359,3.528-2.066-1.178-2.336-2.973.339-3.374,1.359-3.528" transform="translate(-4.715 -5.466)" fill="#7b93c6"/>
            <path id="Trazado_776910" data-name="Trazado 776910" d="M47.957,49.731c.846,0,1.533.427,1.533.955s-.687.954-1.533.954-1.533-.427-1.533-.954.687-.955,1.533-.955" transform="translate(-6.423 -6.881)" fill="#7992c9"/>
            <path id="Trazado_776911" data-name="Trazado 776911" d="M39.268,47.135a9.259,9.259,0,0,0,6.166,3.192" transform="translate(-5.433 -6.521)" fill="none" stroke="#7992c9" stroke-linecap="round" stroke-miterlimit="10" stroke-width="0.552"/>
            <path id="Trazado_776912" data-name="Trazado 776912" d="M46.873,78.692,46.725,82.5s-13.763,4.125-16.036,2.82c-1.109-.638-2.144-4.145-2.918-7.57-.809-3.6-1.328-7.1-1.328-7.1l8.068-1.58s.005,4.919.278,7.763a4.207,4.207,0,0,0,.427,1.957c.712.469,11.656-.093,11.656-.093" transform="translate(-3.659 -9.556)" fill="#f9a07b"/>
            <path id="Trazado_776913" data-name="Trazado 776913" d="M34.79,76.824a18,18,0,0,1-7.018.921c-.809-3.6-1.328-7.1-1.328-7.1l8.068-1.58s0,4.917.278,7.761" transform="translate(-3.659 -9.555)" fill="#e06a58"/>
            <path id="Trazado_776914" data-name="Trazado 776914" d="M49.584,79.98c2.046-.438,5.512-1.49,6.949-1.852,1.021-.257,3.679,1.118,4.381,2.416.307.566.6,3.774-.466,3.443-.533-.166-.445-1.542-.612-2.1a2.479,2.479,0,0,0-1.228-1.28,7.257,7.257,0,0,1,.376,3.239,1.674,1.674,0,0,1-.153.762.547.547,0,0,1-.643.288c-.242-.1-.326-.4-.38-.667a21.476,21.476,0,0,1-.455-2.861c.019,1.017,0,2.035-.066,3.049-.048.775-.433,1.2-.907,1.066-.212-.059-.3-.255-.388-.512-.143.5-.5,1.047-.962.838-.281-.126-.454-1.14-.4-2.182a6.112,6.112,0,0,1-3.037.835,3.359,3.359,0,0,1-2.711-.847,18.271,18.271,0,0,1,.7-3.632" transform="translate(-6.763 -10.805)" fill="#f9a07b"/>
            <path id="Trazado_776915" data-name="Trazado 776915" d="M57.126,85.495a7.282,7.282,0,0,0-.212-2.454" transform="translate(-7.874 -11.489)" fill="none" stroke="#cc454e" stroke-linecap="round" stroke-miterlimit="10" stroke-width="0.276"/>
            <path id="Trazado_776916" data-name="Trazado 776916" d="M33.409,59a37.892,37.892,0,0,0-2.73-5.024s-3.273,1.361-4.434,3.672c-1.965,3.913-.967,15.146-.967,15.146,2.65,1.109,7.965,1.125,10.229.807,0,0-.925-11.3-2.1-14.6" transform="translate(-3.462 -7.467)" fill="#5573c6"/>
            <path id="Trazado_776917" data-name="Trazado 776917" d="M35.238,60.6a72.762,72.762,0,0,1,1.523,12.159" transform="translate(-4.875 -8.385)" fill="none" stroke="#f2ae30" stroke-linecap="round" stroke-miterlimit="10" stroke-width="0.276"/>
            <rect id="Rectángulo_365030" data-name="Rectángulo 365030" width="93.834" height="2.354" transform="translate(6.568 76.249)" fill="#373f51"/>
          </g>
        </g>
      </g>
    </g>
  </g>
</svg>
