<svg xmlns="http://www.w3.org/2000/svg" xmlns:xlink="http://www.w3.org/1999/xlink" width="113.726" height="95.677" viewBox="0 0 113.726 95.677">
  <defs>
    <clipPath id="clip-path">
      <rect id="Rectángulo_365026" data-name="Rectángulo 365026" width="98.271" height="92.515" fill="none"/>
    </clipPath>
    <clipPath id="clip-path-2">
      <rect id="Rectángulo_364993" data-name="Rectángulo 364993" width="98.271" height="92.516" fill="none"/>
    </clipPath>
    <clipPath id="clip-path-3">
      <rect id="Rectángulo_364992" data-name="Rectángulo 364992" width="13.228" height="10.254" fill="none"/>
    </clipPath>
    <clipPath id="clip-path-8">
      <rect id="Rectángulo_364997" data-name="Rectángulo 364997" width="67.542" height="39.665" fill="none"/>
    </clipPath>
    <clipPath id="clip-path-9">
      <rect id="Rectángulo_364998" data-name="Rectángulo 364998" width="55.33" height="35.43" fill="none"/>
    </clipPath>
    <clipPath id="clip-path-10">
      <rect id="Rectángulo_364999" data-name="Rectángulo 364999" width="3.47" height="8.693" fill="none"/>
    </clipPath>
    <clipPath id="clip-path-11">
      <rect id="Rectángulo_365000" data-name="Rectángulo 365000" width="41.951" height="16.223" fill="none"/>
    </clipPath>
    <clipPath id="clip-path-12">
      <rect id="Rectángulo_365001" data-name="Rectángulo 365001" width="5.37" height="3.483" fill="none"/>
    </clipPath>
    <clipPath id="clip-path-13">
      <rect id="Rectángulo_365002" data-name="Rectángulo 365002" width="5.719" height="4.324" fill="none"/>
    </clipPath>
    <clipPath id="clip-path-14">
      <rect id="Rectángulo_365003" data-name="Rectángulo 365003" width="2.32" height="4.595" fill="none"/>
    </clipPath>
    <clipPath id="clip-path-15">
      <rect id="Rectángulo_365004" data-name="Rectángulo 365004" width="1.929" height="4.587" fill="none"/>
    </clipPath>
    <clipPath id="clip-path-16">
      <rect id="Rectángulo_365005" data-name="Rectángulo 365005" width="8.267" height="5.097" fill="none"/>
    </clipPath>
    <clipPath id="clip-path-17">
      <rect id="Rectángulo_365006" data-name="Rectángulo 365006" width="1.449" height="6.709" fill="none"/>
    </clipPath>
    <clipPath id="clip-path-18">
      <rect id="Rectángulo_365007" data-name="Rectángulo 365007" width="10.188" height="11.686" fill="none"/>
    </clipPath>
    <clipPath id="clip-path-19">
      <rect id="Rectángulo_365008" data-name="Rectángulo 365008" width="9.855" height="11.686" fill="none"/>
    </clipPath>
    <clipPath id="clip-path-20">
      <rect id="Rectángulo_365009" data-name="Rectángulo 365009" width="5.552" height="0.839" fill="none"/>
    </clipPath>
    <clipPath id="clip-path-21">
      <rect id="Rectángulo_365010" data-name="Rectángulo 365010" width="3.629" height="4.872" fill="none"/>
    </clipPath>
    <clipPath id="clip-path-23">
      <rect id="Rectángulo_365012" data-name="Rectángulo 365012" width="2.122" height="3.503" fill="none"/>
    </clipPath>
    <clipPath id="clip-path-24">
      <rect id="Rectángulo_365013" data-name="Rectángulo 365013" width="36.562" height="16.49" fill="none"/>
    </clipPath>
    <clipPath id="clip-path-25">
      <rect id="Rectángulo_365014" data-name="Rectángulo 365014" width="4.638" height="3.556" fill="none"/>
    </clipPath>
    <clipPath id="clip-path-26">
      <rect id="Rectángulo_365015" data-name="Rectángulo 365015" width="1.934" height="3.689" fill="none"/>
    </clipPath>
    <clipPath id="clip-path-27">
      <rect id="Rectángulo_365016" data-name="Rectángulo 365016" width="28.074" height="9.719" fill="none"/>
    </clipPath>
    <clipPath id="clip-path-28">
      <rect id="Rectángulo_365017" data-name="Rectángulo 365017" width="3.291" height="8.176" fill="none"/>
    </clipPath>
    <clipPath id="clip-path-29">
      <rect id="Rectángulo_365018" data-name="Rectángulo 365018" width="19.365" height="1.249" fill="none"/>
    </clipPath>
    <clipPath id="clip-path-30">
      <rect id="Rectángulo_365019" data-name="Rectángulo 365019" width="13.118" height="1.249" fill="none"/>
    </clipPath>
    <clipPath id="clip-path-31">
      <rect id="Rectángulo_365020" data-name="Rectángulo 365020" width="14.889" height="10.932" fill="none"/>
    </clipPath>
    <clipPath id="clip-path-32">
      <rect id="Rectángulo_365021" data-name="Rectángulo 365021" width="2.494" height="3.07" fill="none"/>
    </clipPath>
    <clipPath id="clip-path-33">
      <rect id="Rectángulo_365022" data-name="Rectángulo 365022" width="1.896" height="2.741" fill="none"/>
    </clipPath>
    <clipPath id="clip-path-34">
      <rect id="Rectángulo_365023" data-name="Rectángulo 365023" width="4.631" height="3.405" fill="none"/>
    </clipPath>
    <clipPath id="clip-path-35">
      <rect id="Rectángulo_365024" data-name="Rectángulo 365024" width="2.059" height="3.557" fill="none"/>
    </clipPath>
  </defs>
  <g id="Grupo_1043412" data-name="Grupo 1043412" transform="translate(-1296.254 -5569.348)">
    <rect id="Rectángulo_364982" data-name="Rectángulo 364982" width="3.702" height="95.333" transform="translate(1296.254 5569.348)" fill="#e6b046"/>
    <g id="Grupo_1031059" data-name="Grupo 1031059" transform="translate(1311.709 5572.51)">
      <g id="Grupo_1031058" data-name="Grupo 1031058" clip-path="url(#clip-path)">
        <rect id="Rectángulo_364984" data-name="Rectángulo 364984" width="1.747" height="36.753" transform="translate(26.486 0.001)" fill="#e0e0e0"/>
        <rect id="Rectángulo_364985" data-name="Rectángulo 364985" width="33.232" height="36.753" transform="translate(27.495 0.001)" fill="#e0e0e0"/>
        <rect id="Rectángulo_364986" data-name="Rectángulo 364986" width="34.467" height="36.753" transform="translate(27.321 0.001)" fill="#f0f0f0"/>
        <rect id="Rectángulo_364987" data-name="Rectángulo 364987" width="31.606" height="33.893" transform="translate(28.724 1.172)" fill="#fff"/>
        <rect id="Rectángulo_364988" data-name="Rectángulo 364988" width="0.915" height="33.892" transform="translate(59.416 1.173)" fill="#e0e0e0"/>
        <rect id="Rectángulo_364989" data-name="Rectángulo 364989" width="30.871" height="0.915" transform="translate(28.642 25.544)" fill="#e0e0e0"/>
        <rect id="Rectángulo_364990" data-name="Rectángulo 364990" width="32.097" height="1.534" transform="translate(28.233 24.011)" fill="#f0f0f0"/>
        <g id="Grupo_1030966" data-name="Grupo 1030966" transform="translate(0 0)">
          <g id="Grupo_1030965" data-name="Grupo 1030965" clip-path="url(#clip-path-2)">
            <path id="Trazado_776706" data-name="Trazado 776706" d="M45.891,30.241H12.942a6.471,6.471,0,0,0-6.471,6.471V62.441H52.362V36.712a6.471,6.471,0,0,0-6.471-6.471" transform="translate(-0.161 -0.751)" fill="#e6e6e6"/>
            <path id="Trazado_776707" data-name="Trazado 776707" d="M63.274,49.8h-5.9a3.845,3.845,0,0,0-3.845,3.845V74.921H67.119V53.642A3.845,3.845,0,0,0,63.274,49.8" transform="translate(-1.331 -1.237)" fill="#e0e0e0"/>
            <path id="Trazado_776708" data-name="Trazado 776708" d="M63.421,49.8H63.3a3.845,3.845,0,0,0-3.845,3.845V74.921h7.815V53.642A3.845,3.845,0,0,0,63.421,49.8" transform="translate(-1.478 -1.237)" fill="#ebebeb"/>
            <rect id="Rectángulo_364991" data-name="Rectángulo 364991" width="45.218" height="9.774" transform="translate(11.11 63.909)" fill="#e6e6e6"/>
            <path id="Trazado_776709" data-name="Trazado 776709" d="M56.619,56.37H13.01A3.909,3.909,0,0,0,9.1,60.279v2.436a3.909,3.909,0,0,0,3.909,3.909H56.619a3.909,3.909,0,0,0,3.909-3.909V60.279a3.909,3.909,0,0,0-3.909-3.909" transform="translate(-0.226 -1.401)" fill="#f5f5f5"/>
            <g id="Grupo_1030964" data-name="Grupo 1030964" transform="translate(8.945 54.97)" style="isolation: isolate">
              <g id="Grupo_1030963" data-name="Grupo 1030963">
                <g id="Grupo_1030962" data-name="Grupo 1030962" clip-path="url(#clip-path-3)">
                  <path id="Trazado_776710" data-name="Trazado 776710" d="M18.491,56.37H13.082a3.909,3.909,0,0,0-3.909,3.909v2.436a3.909,3.909,0,0,0,3.909,3.909h5.409A3.909,3.909,0,0,0,22.4,62.715V60.279a3.909,3.909,0,0,0-3.909-3.909" transform="translate(-9.173 -56.37)" fill="#e0e0e0"/>
                </g>
              </g>
            </g>
            <path id="Trazado_776711" data-name="Trazado 776711" d="M12.336,49.8h-5.9a3.845,3.845,0,0,0-3.845,3.845V74.921H16.181V53.642A3.845,3.845,0,0,0,12.336,49.8" transform="translate(-0.064 -1.237)" fill="#e0e0e0"/>
            <path id="Trazado_776712" data-name="Trazado 776712" d="M12.483,49.8h-.125a3.845,3.845,0,0,0-3.845,3.845V74.921h7.815V53.642A3.845,3.845,0,0,0,12.483,49.8" transform="translate(-0.212 -1.237)" fill="#f0f0f0"/>
          </g>
        </g>
        <g id="Grupo_1030968" data-name="Grupo 1030968" transform="translate(0 0)">
          <g id="Grupo_1030967" data-name="Grupo 1030967" clip-path="url(#clip-path-2)">
            <path id="Trazado_776713" data-name="Trazado 776713" d="M91.774,89.3c0,2.927-20.544,5.3-45.886,5.3S0,92.23,0,89.3,20.544,84,45.887,84s45.886,2.373,45.886,5.3" transform="translate(0 -2.088)" fill="#f5f5f5"/>
          </g>
        </g>
        <g id="Grupo_1030970" data-name="Grupo 1030970" transform="translate(0 0)">
          <g id="Grupo_1030969" data-name="Grupo 1030969" clip-path="url(#clip-path-2)">
            <path id="Trazado_776714" data-name="Trazado 776714" d="M79.24,6.2H68.862a3.569,3.569,0,0,0-3.569,3.569v4.306a3.569,3.569,0,0,0,3.569,3.569h4.444l1.2,3.768,1.2-3.768H79.24a3.569,3.569,0,0,0,3.569-3.569V9.768A3.569,3.569,0,0,0,79.24,6.2" transform="translate(-1.623 -0.154)" fill="#5573c6"/>
            <path id="Trazado_776715" data-name="Trazado 776715" d="M70.09,11.8a.721.721,0,1,1-.721-.721.721.721,0,0,1,.721.721m2.456-.721a.721.721,0,1,0,.721.721.721.721,0,0,0-.721-.721m3.176,0a.721.721,0,1,0,.722.721.721.721,0,0,0-.722-.721m3.177,0a.721.721,0,1,0,.721.721.721.721,0,0,0-.721-.721" transform="translate(-1.706 -0.275)" fill="#fff"/>
          </g>
        </g>
        <g id="Grupo_1030972" data-name="Grupo 1030972" transform="translate(0 0)">
          <g id="Grupo_1030971" data-name="Grupo 1030971" clip-path="url(#clip-path-2)">
            <path id="Trazado_776716" data-name="Trazado 776716" d="M20.91,19.594H10.532a3.569,3.569,0,0,0-3.569,3.57V27.47a3.569,3.569,0,0,0,3.569,3.568h4.444l1.2,3.768,1.2-3.768H20.91A3.569,3.569,0,0,0,24.48,27.47V23.164a3.569,3.569,0,0,0-3.569-3.57" transform="translate(-0.173 -0.487)" fill="#5573c6"/>
            <path id="Trazado_776717" data-name="Trazado 776717" d="M11.76,25.192a.721.721,0,1,1-.721-.721.721.721,0,0,1,.721.721m2.456-.721a.721.721,0,1,0,.721.721.721.721,0,0,0-.721-.721m3.176,0a.721.721,0,1,0,.722.721.721.721,0,0,0-.722-.721m3.177,0a.721.721,0,1,0,.721.721.721.721,0,0,0-.721-.721" transform="translate(-0.256 -0.608)" fill="#fff"/>
          </g>
        </g>
        <g id="Grupo_1031016" data-name="Grupo 1031016" transform="translate(0 0)">
          <g id="Grupo_1031015" data-name="Grupo 1031015" clip-path="url(#clip-path-2)">
            <path id="Trazado_776718" data-name="Trazado 776718" d="M87.766,87.868H38.9c-9.131,0-9.716-10.75-2.213-15.81a14.469,14.469,0,0,1,4.471-2C56.019,66.151,76.9,39.877,91.587,50.872a.347.347,0,0,1,.04.029c14.69,11.072,4.45,36.967-3.861,36.967" transform="translate(-0.783 -1.198)" fill="#263238"/>
            <g id="Grupo_1030975" data-name="Grupo 1030975" transform="translate(30.729 47.005)" opacity="0.5">
              <g id="Grupo_1030974" data-name="Grupo 1030974">
                <g id="Grupo_1030973" data-name="Grupo 1030973" clip-path="url(#clip-path-8)">
                  <path id="Trazado_776719" data-name="Trazado 776719" d="M87.766,87.868H38.9c-9.131,0-9.716-10.75-2.213-15.81a14.469,14.469,0,0,1,4.471-2C56.019,66.151,76.9,39.877,91.587,50.872a.347.347,0,0,1,.04.029c14.69,11.072,4.45,36.967-3.861,36.967" transform="translate(-31.512 -48.203)" fill="#fff"/>
                </g>
              </g>
            </g>
            <g id="Grupo_1030978" data-name="Grupo 1030978" transform="translate(35.474 47.005)" opacity="0.2" style="isolation: isolate">
              <g id="Grupo_1030977" data-name="Grupo 1030977">
                <g id="Grupo_1030976" data-name="Grupo 1030976" clip-path="url(#clip-path-9)">
                  <path id="Trazado_776720" data-name="Trazado 776720" d="M91.708,50.873a6.021,6.021,0,0,0-4.337,1.612c-4.178,3.507,2.177,20.374-7.817,27.391-5.575,3.914-29.63,5.642-37.659.84-5.929-3.547-6-5.769-5.085-8.657a14.514,14.514,0,0,1,4.471-2c14.86-3.907,35.742-30.182,50.428-19.186" transform="translate(-36.378 -48.203)"/>
                </g>
              </g>
            </g>
            <path id="Trazado_776721" data-name="Trazado 776721" d="M54.075,47.568l-2.913-2.054,2.178-2.227s2.238,1.15,2.024,3.213Z" transform="translate(-1.272 -1.076)" fill="#c19997"/>
            <path id="Trazado_776722" data-name="Trazado 776722" d="M49.989,43.217l2.021-1.272,1.3,1.309-2.178,2.227Z" transform="translate(-1.243 -1.042)" fill="#c19997"/>
            <path id="Trazado_776723" data-name="Trazado 776723" d="M68.471,42.239c-2.765.815-4.123,5.67-6.4,10.256L55.433,45.9l-2.108,1.872s6.078,9.653,8.946,9.656c3.579,0,7.3-9.948,7.3-9.948Z" transform="translate(-1.325 -1.05)" fill="#373f51"/>
            <g id="Grupo_1030981" data-name="Grupo 1030981" transform="translate(63.246 46.493)" opacity="0.2">
              <g id="Grupo_1030980" data-name="Grupo 1030980">
                <g id="Grupo_1030979" data-name="Grupo 1030979" clip-path="url(#clip-path-10)">
                  <path id="Trazado_776724" data-name="Trazado 776724" d="M68.328,51.09a20.391,20.391,0,0,1-3.47,5.281,24.059,24.059,0,0,1,2.3-8.693,9.577,9.577,0,0,1,1.167,3.412" transform="translate(-64.858 -47.678)"/>
                </g>
              </g>
            </g>
            <path id="Trazado_776725" data-name="Trazado 776725" d="M65.515,69.622S42.083,66.258,40.845,71.4c-1.308,5.436,17.507,9.1,28.752,9.486S84.068,78.592,82.261,64.7H66.867Z" transform="translate(-1.014 -1.608)" fill="#43b5a8"/>
            <g id="Grupo_1030984" data-name="Grupo 1030984" transform="translate(39.768 63.089)" opacity="0.6" style="isolation: isolate">
              <g id="Grupo_1030983" data-name="Grupo 1030983">
                <g id="Grupo_1030982" data-name="Grupo 1030982" clip-path="url(#clip-path-11)">
                  <path id="Trazado_776726" data-name="Trazado 776726" d="M65.515,69.622S42.083,66.258,40.845,71.4c-1.308,5.436,17.507,9.1,28.752,9.486S84.068,78.592,82.261,64.7H66.867Z" transform="translate(-40.781 -64.697)" fill="#43b5a8"/>
                </g>
              </g>
            </g>
            <path id="Trazado_776727" data-name="Trazado 776727" d="M52.573,80.654l-4.911,0-2.358,0-.281-2.482,2.18-.292,5.325-.712Z" transform="translate(-1.119 -1.918)" fill="#c19997"/>
            <path id="Trazado_776728" data-name="Trazado 776728" d="M45.416,77.778l.6,2.833a.286.286,0,0,1-.229.34l-1.412.254s-1.875.478-2.4.141c-1.538-.984-3.021-7.215-2.394-7.676.229-.169.627.087.825.29.631.646,1.978,2.444,2.51,2.976a3.074,3.074,0,0,0,2.213.615.284.284,0,0,1,.292.227" transform="translate(-0.98 -1.829)" fill="#263238"/>
            <g id="Grupo_1030987" data-name="Grupo 1030987" transform="translate(46.085 75.256)" opacity="0.2" style="isolation: isolate">
              <g id="Grupo_1030986" data-name="Grupo 1030986">
                <g id="Grupo_1030985" data-name="Grupo 1030985" clip-path="url(#clip-path-12)">
                  <path id="Trazado_776729" data-name="Trazado 776729" d="M52.629,80.654l-4.911,0-.458-2.771,5.325-.712Z" transform="translate(-47.259 -77.174)"/>
                </g>
              </g>
            </g>
            <path id="Trazado_776730" data-name="Trazado 776730" d="M60.1,76.249l4.66,1.55,2.238.744-.519,2.443-2.161-.412-5.277-1.008Z" transform="translate(-1.467 -1.895)" fill="#c19997"/>
            <path id="Trazado_776731" data-name="Trazado 776731" d="M66.046,81.157l.329-2.876a.287.287,0,0,1,.326-.252l1.42.206s1.929.14,2.322.626c1.149,1.419.585,7.8-.155,8.039-.271.088-.568-.28-.691-.535-.394-.812-1.1-2.944-1.44-3.617a3.078,3.078,0,0,0-1.9-1.284.283.283,0,0,1-.2-.307" transform="translate(-1.642 -1.939)" fill="#263238"/>
            <g id="Grupo_1030990" data-name="Grupo 1030990" transform="translate(57.569 74.354)" opacity="0.2" style="isolation: isolate">
              <g id="Grupo_1030989" data-name="Grupo 1030989">
                <g id="Grupo_1030988" data-name="Grupo 1030988" clip-path="url(#clip-path-13)">
                  <path id="Trazado_776732" data-name="Trazado 776732" d="M60.1,76.249l4.66,1.55-.442,2.774-5.277-1.008Z" transform="translate(-59.036 -76.249)"/>
                </g>
              </g>
            </g>
            <path id="Trazado_776733" data-name="Trazado 776733" d="M63.584,81.013l-1.328.124.793-4.6,1.527.8Z" transform="translate(-1.547 -1.902)" fill="#5573c6"/>
            <g id="Grupo_1030993" data-name="Grupo 1030993" transform="translate(60.708 74.639)" opacity="0.6" style="isolation: isolate">
              <g id="Grupo_1030992" data-name="Grupo 1030992">
                <g id="Grupo_1030991" data-name="Grupo 1030991" clip-path="url(#clip-path-14)">
                  <path id="Trazado_776734" data-name="Trazado 776734" d="M63.584,81.013l-1.328.124.793-4.6,1.527.8Z" transform="translate(-62.255 -76.541)" fill="#fff"/>
                </g>
              </g>
            </g>
            <path id="Trazado_776735" data-name="Trazado 776735" d="M68.162,82.811a1,1,0,0,1-.09.611.385.385,0,0,1-.345.175.236.236,0,0,1-.209-.106c-.2-.339.269-1.384.328-1.5a.056.056,0,0,1,.061-.038.073.073,0,0,1,.063.054,4.076,4.076,0,0,1,.191.8m-.554.5a.241.241,0,0,0,.029.1.08.08,0,0,0,.082.041.246.246,0,0,0,.239-.116,1.608,1.608,0,0,0-.059-1.111,3.136,3.136,0,0,0-.292,1.089" transform="translate(-1.677 -2.037)" fill="#5573c6"/>
            <path id="Trazado_776736" data-name="Trazado 776736" d="M67.964,82.017l-.016.03c-.13.334-.7,1-1.034.952a.243.243,0,0,1-.2-.225.422.422,0,0,1,.055-.321c.24-.381,1.067-.505,1.113-.5a.062.062,0,0,1,.065.032.065.065,0,0,1,.017.035m-1.11.7,0,.032c.02.1.061.1.08.105.192.028.633-.4.826-.734a1.519,1.519,0,0,0-.869.42.276.276,0,0,0-.042.177" transform="translate(-1.658 -2.037)" fill="#5573c6"/>
            <path id="Trazado_776737" data-name="Trazado 776737" d="M48.187,77.351s21.8-8.467,28.475-7.052,6.708,4.909,3.323,8.166-8.441,2-8.441,2,3.974-2.381,3.7-3.851-2.8,1.892-2.8,1.892S59.264,81.73,48.386,80.88Z" transform="translate(-1.198 -1.743)" fill="#4adbd1"/>
            <path id="Trazado_776738" data-name="Trazado 776738" d="M43.151,77.043a1,1,0,0,1-.2-.584.383.383,0,0,1,.226-.314.236.236,0,0,1,.234,0c.332.211.4,1.352.4,1.482a.06.06,0,0,1-.038.062.074.074,0,0,1-.081-.019,4.131,4.131,0,0,1-.54-.626m.26-.7a.26.26,0,0,0-.07-.072.081.081,0,0,0-.092,0,.247.247,0,0,0-.159.213,1.613,1.613,0,0,0,.564.96,3.124,3.124,0,0,0-.243-1.1" transform="translate(-1.068 -1.892)" fill="#5573c6"/>
            <path id="Trazado_776739" data-name="Trazado 776739" d="M43.695,77.67v-.034c-.038-.357.166-1.21.48-1.321a.241.241,0,0,1,.281.108.419.419,0,0,1,.1.309c-.037.449-.714.94-.756.96a.06.06,0,0,1-.072,0,.066.066,0,0,1-.031-.022m.661-1.135-.02-.026c-.062-.076-.1-.06-.12-.057-.183.063-.375.648-.394,1.033.19-.156.554-.49.577-.774a.273.273,0,0,0-.044-.176" transform="translate(-1.086 -1.896)" fill="#5573c6"/>
            <path id="Trazado_776740" data-name="Trazado 776740" d="M47.915,77.452l1.225-.561.7,4.587-1.7-.279Z" transform="translate(-1.191 -1.911)" fill="#5573c6"/>
            <g id="Grupo_1030996" data-name="Grupo 1030996" transform="translate(46.724 74.981)" opacity="0.6" style="isolation: isolate">
              <g id="Grupo_1030995" data-name="Grupo 1030995">
                <g id="Grupo_1030994" data-name="Grupo 1030994" clip-path="url(#clip-path-15)">
                  <path id="Trazado_776741" data-name="Trazado 776741" d="M47.915,77.452l1.225-.561.7,4.587-1.7-.279Z" transform="translate(-47.915 -76.892)" fill="#fff"/>
                </g>
              </g>
            </g>
            <path id="Trazado_776742" data-name="Trazado 776742" d="M84.455,42.968c-2.354,13.083-1.5,21.561-1.5,21.561s-10.948-.15-15.446-.406c-2.4-15.868,1.292-21.9,1.292-21.9a29.09,29.09,0,0,1,3.559-.489c.253-.019.509-.032.77-.041a55.273,55.273,0,0,1,6.35.358c.4.042.805.095,1.2.153,2,.3,3.773.762,3.773.762" transform="translate(-1.658 -1.036)" fill="#373f51"/>
            <g id="Grupo_1030999" data-name="Grupo 1030999" transform="translate(73.02 54.597)" opacity="0.2">
              <g id="Grupo_1030998" data-name="Grupo 1030998">
                <g id="Grupo_1030997" data-name="Grupo 1030997" clip-path="url(#clip-path-16)">
                  <path id="Trazado_776743" data-name="Trazado 776743" d="M74.881,57.771a45.311,45.311,0,0,0,8.266-1.782c-.112,1.951-.14,3.618-.137,4.966-5.226.482-7.357-.524-7.357-.524Z" transform="translate(-74.881 -55.989)"/>
                </g>
              </g>
            </g>
            <g id="Grupo_1031002" data-name="Grupo 1031002" transform="translate(80.611 46.226)" opacity="0.2">
              <g id="Grupo_1031001" data-name="Grupo 1031001">
                <g id="Grupo_1031000" data-name="Grupo 1031000" clip-path="url(#clip-path-17)">
                  <path id="Trazado_776744" data-name="Trazado 776744" d="M84.115,47.758c-.314,2.324-.528,4.453-.665,6.354a10.343,10.343,0,0,1-.39-6.708Z" transform="translate(-82.666 -47.404)"/>
                </g>
              </g>
            </g>
            <path id="Trazado_776745" data-name="Trazado 776745" d="M75.243,63.03H67.279a.62.62,0,0,1-.6-.558L65.567,51.9a.5.5,0,0,1,.507-.559h7.964a.619.619,0,0,1,.6.559l1.109,10.57a.5.5,0,0,1-.507.558" transform="translate(-1.63 -1.276)" fill="#263238"/>
            <g id="Grupo_1031005" data-name="Grupo 1031005" transform="translate(63.936 50.068)" opacity="0.6">
              <g id="Grupo_1031004" data-name="Grupo 1031004">
                <g id="Grupo_1031003" data-name="Grupo 1031003" clip-path="url(#clip-path-18)">
                  <path id="Trazado_776746" data-name="Trazado 776746" d="M75.243,63.03H67.279a.62.62,0,0,1-.6-.558L65.567,51.9a.5.5,0,0,1,.507-.559h7.964a.619.619,0,0,1,.6.559l1.109,10.57a.5.5,0,0,1-.507.558" transform="translate(-65.565 -51.344)" fill="#fff"/>
                </g>
              </g>
            </g>
            <g id="Grupo_1031008" data-name="Grupo 1031008" transform="translate(63.936 50.068)" opacity="0.2">
              <g id="Grupo_1031007" data-name="Grupo 1031007">
                <g id="Grupo_1031006" data-name="Grupo 1031006" clip-path="url(#clip-path-19)">
                  <path id="Trazado_776747" data-name="Trazado 776747" d="M74.911,63.03H67.28a.618.618,0,0,1-.6-.558L65.567,51.9a.5.5,0,0,1,.508-.559h7.631a.619.619,0,0,1,.6.559l1.109,10.57a.5.5,0,0,1-.507.558" transform="translate(-65.565 -51.344)" fill="#fff"/>
                </g>
              </g>
            </g>
            <path id="Trazado_776748" data-name="Trazado 776748" d="M70.367,56.45a.779.779,0,0,0-.786.864.959.959,0,0,0,.935.864.779.779,0,0,0,.786-.864.959.959,0,0,1-.935-.864" transform="translate(-1.729 -1.403)" fill="#263238"/>
            <g id="Grupo_1031011" data-name="Grupo 1031011" transform="translate(65.409 50.068)" opacity="0.3">
              <g id="Grupo_1031010" data-name="Grupo 1031010">
                <g id="Grupo_1031009" data-name="Grupo 1031009" clip-path="url(#clip-path-20)">
                  <path id="Trazado_776749" data-name="Trazado 776749" d="M72.029,52.184H67.823a.559.559,0,0,1-.494-.318l-.252-.522h5.552l-.162.522a.451.451,0,0,1-.439.318" transform="translate(-67.077 -51.344)"/>
                </g>
              </g>
            </g>
            <path id="Trazado_776750" data-name="Trazado 776750" d="M74.644,57.463,72.8,57.312l.076,2.45,1.55.81,3.549-.327.29-1.65c-1.176-1.709-3.625-1.132-3.625-1.132" transform="translate(-1.81 -1.424)" fill="#c19997"/>
            <path id="Trazado_776751" data-name="Trazado 776751" d="M84.733,43c1.889.571,4.571,11.548,4.141,13.979s-5.088,3.461-11.016,3.332V57.448l6.875-2.006L83.574,51.19a13.492,13.492,0,0,1-.528-5.294A5.338,5.338,0,0,1,84.733,43" transform="translate(-1.935 -1.068)" fill="#373f51"/>
            <path id="Trazado_776752" data-name="Trazado 776752" d="M78.7,41.76a6.066,6.066,0,0,1-4.88,1.749c-1.851-.072-2.107-1.236-1.785-1.872,1.124-.231,1.633-.723,1.789-1.345a3.753,3.753,0,0,0-.387-2.241l3.123-2.632.528-.445c-.011.148-.021.308-.029.474a16.253,16.253,0,0,0,.008,1.832c.1,1.721.509,3.6,1.633,4.479" transform="translate(-1.787 -0.869)" fill="#c19997"/>
            <g id="Grupo_1031014" data-name="Grupo 1031014" transform="translate(71.646 34.551)" opacity="0.2">
              <g id="Grupo_1031013" data-name="Grupo 1031013">
                <g id="Grupo_1031012" data-name="Grupo 1031012" clip-path="url(#clip-path-21)">
                  <path id="Trazado_776753" data-name="Trazado 776753" d="M77.1,37.294A5.226,5.226,0,0,1,73.859,40.3a3.751,3.751,0,0,0-.387-2.241L76.6,35.432c.167,0,.333.015.5.029a16.238,16.238,0,0,0,.007,1.832" transform="translate(-73.472 -35.432)"/>
                </g>
              </g>
            </g>
            <path id="Trazado_776754" data-name="Trazado 776754" d="M69.833,30.059c-.46,1.047-.516,3.3,1.079,2.737s-.288-4.536-1.079-2.737" transform="translate(-1.729 -0.735)" fill="#263238"/>
            <path id="Trazado_776755" data-name="Trazado 776755" d="M77.485,32.345c-.137,2.805-.075,4.456-1.477,5.9a3.761,3.761,0,0,1-6.3-1.9c-.635-2.519-.3-6.685,2.434-7.808a3.876,3.876,0,0,1,5.34,3.812" transform="translate(-1.726 -0.701)" fill="#c19997"/>
            <path id="Trazado_776756" data-name="Trazado 776756" d="M73.315,33.254c0,.228-.116.413-.265.414s-.273-.184-.276-.413.116-.413.265-.413.273.184.276.412" transform="translate(-1.809 -0.816)" fill="#263238"/>
            <path id="Trazado_776757" data-name="Trazado 776757" d="M70.663,33.26c0,.228-.116.413-.266.414s-.273-.184-.275-.413.116-.413.265-.414.273.185.276.413" transform="translate(-1.743 -0.816)" fill="#263238"/>
            <path id="Trazado_776758" data-name="Trazado 776758" d="M71.494,33.386a7.857,7.857,0,0,1-1.088,1.887,1.356,1.356,0,0,0,1.09.181Z" transform="translate(-1.75 -0.829)" fill="#d88484"/>
            <path id="Trazado_776759" data-name="Trazado 776759" d="M74.107,32.388a.134.134,0,0,1-.126-.052,1.08,1.08,0,0,0-.866-.446.137.137,0,0,1-.145-.124.134.134,0,0,1,.123-.144,1.349,1.349,0,0,1,1.1.552.134.134,0,0,1-.024.187.127.127,0,0,1-.062.026" transform="translate(-1.814 -0.786)" fill="#263238"/>
            <path id="Trazado_776760" data-name="Trazado 776760" d="M69.519,32.339a.134.134,0,0,1-.077-.012.137.137,0,0,1-.064-.179,1.321,1.321,0,0,1,.957-.758.136.136,0,0,1,.151.116.132.132,0,0,1-.113.15,1.028,1.028,0,0,0-.751.608.133.133,0,0,1-.1.075" transform="translate(-1.724 -0.78)" fill="#263238"/>
            <path id="Trazado_776761" data-name="Trazado 776761" d="M73.072,30.066s.774-.552,1.125.043a6.068,6.068,0,0,1,.331,2.186l.156-.281s.994,3.544,2.439,2.65,3.568-4.489.193-6.323c0,0-.359-.856-2.589-1.276s-4.925.954-5.387,2.428a2.553,2.553,0,0,0,.186,2.295,2.106,2.106,0,0,1,.428-.874.922.922,0,0,0,.556.678,1.587,1.587,0,0,1,.182-.869,1.826,1.826,0,0,0,.372.709c.162-1.518,1.194-1.827,1.52-1.816a.555.555,0,0,1,.487.45" transform="translate(-1.719 -0.67)" fill="#263238"/>
            <path id="Trazado_776762" data-name="Trazado 776762" d="M78.761,34.791a2.637,2.637,0,0,1-1.3,1.562c-.831.426-1.441-.276-1.373-1.16.062-.8.569-1.977,1.482-2.035a1.212,1.212,0,0,1,1.191,1.633" transform="translate(-1.891 -0.824)" fill="#c19997"/>
            <path id="Trazado_776763" data-name="Trazado 776763" d="M71.615,36.441a7.3,7.3,0,0,1,.665.8c.056-.026.11-.053.164-.082.745-.375.965-.8.985-1.148a1.074,1.074,0,0,0-.1-.5,1.027,1.027,0,0,0-.151-.249,3.942,3.942,0,0,1-1.308,1.039c-.152.085-.251.132-.251.132" transform="translate(-1.78 -0.876)" fill="#263238"/>
            <path id="Trazado_776764" data-name="Trazado 776764" d="M71.872,36.31l.2.232c.7-.356,1.145-.7,1.257-1.023a1.026,1.026,0,0,0-.152-.248,3.938,3.938,0,0,1-1.307,1.039" transform="translate(-1.786 -0.876)" fill="#fff"/>
            <path id="Trazado_776765" data-name="Trazado 776765" d="M72.466,37.183c.744-.375.964-.8.984-1.148a2.705,2.705,0,0,0-.743.581,1,1,0,0,0-.241.567" transform="translate(-1.801 -0.895)" fill="#a24e3f"/>
          </g>
        </g>
        <g id="Grupo_1031057" data-name="Grupo 1031057" transform="translate(0 0)">
          <g id="Grupo_1031056" data-name="Grupo 1031056" clip-path="url(#clip-path-2)">
            <path id="Trazado_776766" data-name="Trazado 776766" d="M20.485,59.229a37.124,37.124,0,0,0,5.958,5.427c.017.01.139.076.151.086a.558.558,0,0,0-.189-.032c-.059.01.033.015.135,0,2.557-.724,4.932-2.392,7.287-3.67a.867.867,0,0,1,1.05,1.363c-1.834,1.7-6.774,6.235-9.369,5.285a14.4,14.4,0,0,1-4.159-2.727,37.416,37.416,0,0,1-3.438-3.4,1.737,1.737,0,0,1,2.574-2.333" transform="translate(-0.434 -1.458)" fill="#e9b376"/>
            <path id="Trazado_776767" data-name="Trazado 776767" d="M23.7,61.879a11.516,11.516,0,0,1-2.317,4.85l-.409-.271-2.027-1.344s-.036-.116-.095-.319c-.058-.184-.13-.441-.22-.752a46.306,46.306,0,0,1-1.409-5.953C19.738,58,20.87,59.2,23.7,61.879" transform="translate(-0.428 -1.443)" fill="#f4a338"/>
            <g id="Grupo_1031019" data-name="Grupo 1031019" transform="translate(18.424 61.513)" opacity="0.2">
              <g id="Grupo_1031018" data-name="Grupo 1031018">
                <g id="Grupo_1031017" data-name="Grupo 1031017" clip-path="url(#clip-path-23)">
                  <path id="Trazado_776768" data-name="Trazado 776768" d="M21.016,66.584l-2.028-1.345s-.036-.116-.094-.318a14.92,14.92,0,0,1,.34-1.84,4.673,4.673,0,0,1,1.782,3.5" transform="translate(-18.894 -63.081)"/>
                </g>
              </g>
            </g>
            <path id="Trazado_776769" data-name="Trazado 776769" d="M18.2,74.357l1.728,3.028c4.631-1.079,19.477-3.343,21.3,1.75C43.5,85.465,27.122,90.511,18.06,90.82S1.095,88.97,6.823,75.759Z" transform="translate(-0.121 -1.848)" fill="#263238"/>
            <g id="Grupo_1031022" data-name="Grupo 1031022" transform="translate(4.76 72.509)" opacity="0.2" style="isolation: isolate">
              <g id="Grupo_1031021" data-name="Grupo 1031021">
                <g id="Grupo_1031020" data-name="Grupo 1031020" clip-path="url(#clip-path-24)">
                  <path id="Trazado_776770" data-name="Trazado 776770" d="M18.2,74.357l1.728,3.028c4.631-1.079,19.477-3.343,21.3,1.75C43.5,85.465,27.122,90.511,18.06,90.82S1.095,88.97,6.823,75.759Z" transform="translate(-4.881 -74.357)"/>
                </g>
              </g>
            </g>
            <path id="Trazado_776771" data-name="Trazado 776771" d="M39.463,88.4a.057.057,0,0,1-.066,0,.046.046,0,0,1-.016-.057c.029-.1.33-.971.633-1.063a.185.185,0,0,1,.18.053.308.308,0,0,1,.108.293.806.806,0,0,1-.284.41,3.345,3.345,0,0,1-.556.368m.078-.167a1.293,1.293,0,0,0,.646-.622.2.2,0,0,0-.077-.2.065.065,0,0,0-.071-.02.2.2,0,0,0-.069.041,2.515,2.515,0,0,0-.428.8" transform="translate(-0.979 -2.169)" fill="#263238"/>
            <path id="Trazado_776772" data-name="Trazado 776772" d="M39.438,88.414a.05.05,0,0,1-.057-.017c-.028-.024-.447-.553-.377-.909a.332.332,0,0,1,.144-.218.193.193,0,0,1,.241-.023c.219.155.193.861.085,1.129l-.008.027a.059.059,0,0,1-.028.011M39.2,87.379a.217.217,0,0,0-.072.127,1.221,1.221,0,0,0,.28.726c.069-.3.047-.8-.082-.887-.014-.007-.04-.027-.105.018Z" transform="translate(-0.969 -2.168)" fill="#263238"/>
            <path id="Trazado_776773" data-name="Trazado 776773" d="M23.119,89.955a.061.061,0,0,1,.059-.029.047.047,0,0,1,.041.042c.023.1.182,1.01-.039,1.237a.186.186,0,0,1-.183.041.309.309,0,0,1-.236-.2.8.8,0,0,1,.051-.5,3.308,3.308,0,0,1,.307-.592m.013.184a1.29,1.29,0,0,0-.263.857.2.2,0,0,0,.163.138.066.066,0,0,0,.073-.017.2.2,0,0,0,.041-.069,2.52,2.52,0,0,0-.014-.909" transform="translate(-0.565 -2.235)" fill="#263238"/>
            <path id="Trazado_776774" data-name="Trazado 776774" d="M29.07,85.254l-3.728,1.328-1.79.638.459,1.959,1.734-.37,4.235-.9Z" transform="translate(-0.585 -2.119)" fill="#ebb376"/>
            <path id="Trazado_776775" data-name="Trazado 776775" d="M24.421,89.31,24.107,87a.23.23,0,0,0-.266-.2l-1.141.19s-1.551.145-1.861.543c-.9,1.163-.337,6.295.263,6.475.219.066.451-.235.547-.444.3-.66.839-2.39,1.1-2.938a2.485,2.485,0,0,1,1.512-1.068.227.227,0,0,0,.16-.251" transform="translate(-0.506 -2.157)" fill="#5573c6"/>
            <path id="Trazado_776776" data-name="Trazado 776776" d="M23.137,89.938a.049.049,0,0,1,.058-.013c.036.008.658.267.77.612a.339.339,0,0,1-.021.261.194.194,0,0,1-.2.137c-.266-.029-.585-.66-.621-.947l-.006-.027a.06.06,0,0,1,.02-.023m.709.791a.221.221,0,0,0,0-.146c-.071-.218-.418-.412-.6-.5.085.3.344.721.5.736.016,0,.049,0,.083-.066Z" transform="translate(-0.575 -2.235)" fill="#263238"/>
            <g id="Grupo_1031025" data-name="Grupo 1031025" transform="translate(24.757 83.135)" opacity="0.2" style="isolation: isolate">
              <g id="Grupo_1031024" data-name="Grupo 1031024">
                <g id="Grupo_1031023" data-name="Grupo 1031023" clip-path="url(#clip-path-25)">
                  <path id="Trazado_776777" data-name="Trazado 776777" d="M29.116,85.254l-3.728,1.328.4,2.227,4.235-.9Z" transform="translate(-25.388 -85.254)"/>
                </g>
              </g>
            </g>
            <path id="Trazado_776778" data-name="Trazado 776778" d="M26.456,89.152l1.073.077-.718-3.689-1.217.673Z" transform="translate(-0.636 -2.126)" fill="#5573c6"/>
            <g id="Grupo_1031028" data-name="Grupo 1031028" transform="translate(24.958 83.414)" opacity="0.6" style="isolation: isolate">
              <g id="Grupo_1031027" data-name="Grupo 1031027">
                <g id="Grupo_1031026" data-name="Grupo 1031026" clip-path="url(#clip-path-26)">
                  <path id="Trazado_776779" data-name="Trazado 776779" d="M26.456,89.152l1.073.077-.718-3.689-1.217.673Z" transform="translate(-25.595 -85.54)" fill="#fff"/>
                </g>
              </g>
            </g>
            <g id="Grupo_1031031" data-name="Grupo 1031031" transform="translate(10.267 72.691)" opacity="0.2" style="isolation: isolate">
              <g id="Grupo_1031030" data-name="Grupo 1031030">
                <g id="Grupo_1031029" data-name="Grupo 1031029" clip-path="url(#clip-path-27)">
                  <path id="Trazado_776780" data-name="Trazado 776780" d="M10.529,74.544l5.585,6.192a32.636,32.636,0,0,1,13.671,3.527s8.045-3.323,8.784-6.084c.967-3.616-18.5-.789-18.5-.789Z" transform="translate(-10.529 -74.544)"/>
                </g>
              </g>
            </g>
            <path id="Trazado_776781" data-name="Trazado 776781" d="M18.176,76.614,6.788,75.3a23.644,23.644,0,0,0,.394-3.562,38.773,38.773,0,0,0-.2-5.1c-.157-1.622-.4-3.484-.761-5.672a2.677,2.677,0,0,1,2.672-3.191c.457.008.939.025,1.432.058a36.707,36.707,0,0,1,5.174.6c.554.115,1.127.255,1.678.394,1.978.514,3.2,3,3.032,5.014a34.567,34.567,0,0,1-.518,4.648c-.349,2.252-.762,4.459-1.516,8.133" transform="translate(-0.154 -1.436)" fill="#f4a338"/>
            <g id="Grupo_1031034" data-name="Grupo 1031034" transform="translate(6.829 62.123)" opacity="0.2">
              <g id="Grupo_1031033" data-name="Grupo 1031033">
                <g id="Grupo_1031032" data-name="Grupo 1031032" clip-path="url(#clip-path-28)">
                  <path id="Trazado_776782" data-name="Trazado 776782" d="M7.2,71.882a38.773,38.773,0,0,0-.2-5.1c1.424-1.683,2.773-3.076,2.773-3.076S12.01,69.45,7.2,71.882" transform="translate(-7.003 -63.706)"/>
                </g>
              </g>
            </g>
            <path id="Trazado_776783" data-name="Trazado 776783" d="M8.963,63.016a76.919,76.919,0,0,0,.553,8.562L9.4,71.292c-.078-.112-.031-.014.049.061a4.024,4.024,0,0,0,.333.292,39.681,39.681,0,0,0,5.125,2.962l2.192,1.13a.866.866,0,0,1-.591,1.616c-.833-.2-1.634-.44-2.447-.684a22.635,22.635,0,0,1-6.671-3.016,2.807,2.807,0,0,1-.874-1.167A36.471,36.471,0,0,1,5.49,63.061a1.738,1.738,0,0,1,3.473-.046" transform="translate(-0.136 -1.525)" fill="#e9b376"/>
            <path id="Trazado_776784" data-name="Trazado 776784" d="M20.433,75.942l-.693-.5a.994.994,0,0,0-.9-.137l-1.425.48a1.857,1.857,0,0,0-1.184,1.224l-.107.356a6.31,6.31,0,0,0,2.943,1.089l.523.109a.827.827,0,0,0,1-.62l.23-1.032a.954.954,0,0,0-.386-.967" transform="translate(-0.401 -1.87)" fill="#ebb376"/>
            <path id="Trazado_776785" data-name="Trazado 776785" d="M7.914,57.929c-2.228.8-2.865,2.739-2.911,6.788,1.157,1.048,4.662,1.108,4.662,1.108s.6-6.137-1.751-7.9" transform="translate(-0.124 -1.44)" fill="#f4a338"/>
            <path id="Trazado_776786" data-name="Trazado 776786" d="M35.142,78.246v.918c0,.235-.277.332-.51.332H16.3c-.235,0-.519-.1-.519-.332v-.918Z" transform="translate(-0.392 -1.945)" fill="#263238"/>
            <g id="Grupo_1031037" data-name="Grupo 1031037" transform="translate(15.385 76.301)" opacity="0.4" style="isolation: isolate">
              <g id="Grupo_1031036" data-name="Grupo 1031036">
                <g id="Grupo_1031035" data-name="Grupo 1031035" clip-path="url(#clip-path-29)">
                  <path id="Trazado_776787" data-name="Trazado 776787" d="M35.142,78.246v.918c0,.235-.277.332-.51.332H16.3c-.235,0-.519-.1-.519-.332v-.918Z" transform="translate(-15.777 -78.246)" fill="#fff"/>
                </g>
              </g>
            </g>
            <g id="Grupo_1031040" data-name="Grupo 1031040" transform="translate(21.632 76.301)" opacity="0.2" style="isolation: isolate">
              <g id="Grupo_1031039" data-name="Grupo 1031039">
                <g id="Grupo_1031038" data-name="Grupo 1031038" clip-path="url(#clip-path-30)">
                  <path id="Trazado_776788" data-name="Trazado 776788" d="M35.3,78.246v.918c0,.235-.277.332-.51.332H22.7c-.235,0-.515-.1-.515-.332v-.918Z" transform="translate(-22.183 -78.246)"/>
                </g>
              </g>
            </g>
            <path id="Trazado_776789" data-name="Trazado 776789" d="M38.393,68.464l-2.182,9.9a.742.742,0,0,1-.709.563H23.577a.48.48,0,0,1-.448-.622l2.179-9.825A.681.681,0,0,1,26.018,68H37.942c.32,0,.522.144.451.468" transform="translate(-0.575 -1.69)" fill="#263238"/>
            <g id="Grupo_1031043" data-name="Grupo 1031043" transform="translate(22.943 66.307)" opacity="0.4" style="isolation: isolate">
              <g id="Grupo_1031042" data-name="Grupo 1031042">
                <g id="Grupo_1031041" data-name="Grupo 1031041" clip-path="url(#clip-path-31)">
                  <path id="Trazado_776790" data-name="Trazado 776790" d="M38.4,68.464l-2.182,9.9a.742.742,0,0,1-.709.563H23.993a.483.483,0,0,1-.451-.622l2.183-9.825A.679.679,0,0,1,26.434,68H37.952c.32,0,.522.144.451.468" transform="translate(-23.528 -67.996)" fill="#fff"/>
                </g>
              </g>
            </g>
            <g id="Grupo_1031046" data-name="Grupo 1031046" transform="translate(29.445 70.276)" opacity="0.2" style="isolation: isolate">
              <g id="Grupo_1031045" data-name="Grupo 1031045">
                <g id="Grupo_1031044" data-name="Grupo 1031044" clip-path="url(#clip-path-32)">
                  <path id="Trazado_776791" data-name="Trazado 776791" d="M32.689,73.6v0a1.705,1.705,0,0,1-1.575,1.537c-.667,0-1.061-.689-.872-1.537a1.879,1.879,0,0,1,1.506-1.534c-.19.847.216,1.534.88,1.534a.339.339,0,0,0,.061,0" transform="translate(-30.195 -72.067)"/>
                </g>
              </g>
            </g>
            <path id="Trazado_776792" data-name="Trazado 776792" d="M34.674,62.757l2.562.064-1.161-2.595s-2.29.081-2.2,1.258Z" transform="translate(-0.842 -1.497)" fill="#ebb376"/>
            <path id="Trazado_776793" data-name="Trazado 776793" d="M39.492,61.542l-1.755-1.893-1.606.564,1.16,2.595Z" transform="translate(-0.898 -1.482)" fill="#ebb376"/>
            <path id="Trazado_776794" data-name="Trazado 776794" d="M9.834,57.8c-.263-.019.539,3.194,4.425,3.987S17.851,59,17.544,58.106c0,0-5.112-.126-7.71-.308" transform="translate(-0.243 -1.436)" fill="#ebb376"/>
            <path id="Trazado_776795" data-name="Trazado 776795" d="M10.858,44.863a6.048,6.048,0,0,1,6.306-1.2c4.078,1.274,3.9,8.556,1.834,11.195a37.988,37.988,0,0,0-9.658.9s-1.964-5.279-.99-8.381,2.507-2.517,2.507-2.517" transform="translate(-0.201 -1.076)" fill="#263238"/>
            <path id="Trazado_776796" data-name="Trazado 776796" d="M11.749,52.348c.258,1.716.459,4.829-.751,5.814,0,0,1.6-.055,4.711,2.4,1.129-1.278.46-1.8.46-1.8-1.837-.661-1.733-2.045-1.356-3.311Z" transform="translate(-0.273 -1.301)" fill="#ebb376"/>
            <g id="Grupo_1031049" data-name="Grupo 1031049" transform="translate(12.642 52.312)" opacity="0.2">
              <g id="Grupo_1031048" data-name="Grupo 1031048">
                <g id="Grupo_1031047" data-name="Grupo 1031047" clip-path="url(#clip-path-33)">
                  <path id="Trazado_776797" data-name="Trazado 776797" d="M13.047,53.645l1.814,1.834a5.079,5.079,0,0,0-.2.907,2.549,2.549,0,0,1-1.692-1.839,2.5,2.5,0,0,1,.075-.9" transform="translate(-12.964 -53.645)"/>
                </g>
              </g>
            </g>
            <path id="Trazado_776798" data-name="Trazado 776798" d="M10.707,48.657c.194,2.745.218,3.908,1.6,5.374,2.082,2.2,5.37,1.545,5.988-1.159.557-2.434.144-6.514-2.522-7.721a3.524,3.524,0,0,0-5.07,3.507" transform="translate(-0.266 -1.113)" fill="#ebb376"/>
            <path id="Trazado_776799" data-name="Trazado 776799" d="M14.172,49.61c.007.231.131.423.277.429s.261-.176.255-.407-.131-.424-.277-.43-.261.176-.255.408" transform="translate(-0.352 -1.223)" fill="#263238"/>
            <path id="Trazado_776800" data-name="Trazado 776800" d="M17.107,49.642c.007.231.131.423.277.429s.261-.176.255-.407-.131-.424-.277-.43-.261.177-.255.408" transform="translate(-0.425 -1.223)" fill="#263238"/>
            <path id="Trazado_776801" data-name="Trazado 776801" d="M17.3,49.24l.535-.137s-.265.422-.535.137" transform="translate(-0.43 -1.22)" fill="#263238"/>
            <path id="Trazado_776802" data-name="Trazado 776802" d="M16.227,50.135a6.779,6.779,0,0,0,.842,1.508.919.919,0,0,1-.8.122Z" transform="translate(-0.403 -1.246)" fill="#d58745"/>
            <path id="Trazado_776803" data-name="Trazado 776803" d="M13.7,48.1a.123.123,0,0,0,.1-.029.986.986,0,0,1,.908-.233.124.124,0,0,0,.16-.089.148.148,0,0,0-.1-.171,1.232,1.232,0,0,0-1.151.282.137.137,0,0,0-.007.191.141.141,0,0,0,.089.049" transform="translate(-0.337 -1.181)" fill="#263238"/>
            <path id="Trazado_776804" data-name="Trazado 776804" d="M18.24,48.118a.125.125,0,0,0,.1-.013.134.134,0,0,0,.039-.184,1.414,1.414,0,0,0-1.032-.711.123.123,0,0,0-.133.126.146.146,0,0,0,.131.145,1.13,1.13,0,0,1,.812.571.145.145,0,0,0,.086.065" transform="translate(-0.428 -1.173)" fill="#263238"/>
            <path id="Trazado_776805" data-name="Trazado 776805" d="M14.367,49.209l.535-.137s-.265.422-.535.137" transform="translate(-0.357 -1.219)" fill="#263238"/>
            <path id="Trazado_776806" data-name="Trazado 776806" d="M11.248,50.291a4.68,4.68,0,0,0,1.637-4.267s3.787-1.495,5.281,2.326a3.659,3.659,0,0,0-3.245-3.907C11.357,43.8,7.144,48.635,11.18,52.3Z" transform="translate(-0.237 -1.103)" fill="#263238"/>
            <path id="Trazado_776807" data-name="Trazado 776807" d="M9.8,50.987a2.2,2.2,0,0,0,1.311,1.063c.722.2,1.043-.513.811-1.244-.21-.659-.838-1.555-1.546-1.427A1.048,1.048,0,0,0,9.8,50.987" transform="translate(-0.24 -1.227)" fill="#ebb376"/>
            <path id="Trazado_776808" data-name="Trazado 776808" d="M18.659,49.992a.078.078,0,0,1-.075-.057,4.973,4.973,0,0,0-5.892-3.792.077.077,0,0,1-.095-.059.079.079,0,0,1,.059-.094,5.127,5.127,0,0,1,6.078,3.9.078.078,0,0,1-.054.1.081.081,0,0,1-.021,0" transform="translate(-0.313 -1.14)" fill="#263238"/>
            <path id="Trazado_776809" data-name="Trazado 776809" d="M16.36,52.61a7.064,7.064,0,0,0-.33.969c-.06,0-.12-.009-.179-.017-.814-.086-1.163-.394-1.3-.71a1.046,1.046,0,0,1-.078-.492,1.027,1.027,0,0,1,.053-.281,3.862,3.862,0,0,0,1.561.5c.17.025.277.033.277.033" transform="translate(-0.36 -1.294)" fill="#263238"/>
            <path id="Trazado_776810" data-name="Trazado 776810" d="M16.083,52.577l-.1.284a2.433,2.433,0,0,1-1.51-.5,1.048,1.048,0,0,1,.054-.281,3.842,3.842,0,0,0,1.561.5" transform="translate(-0.36 -1.294)" fill="#fff"/>
            <path id="Trazado_776811" data-name="Trazado 776811" d="M15.852,53.583c-.813-.085-1.162-.393-1.3-.709a2.621,2.621,0,0,1,.884.273.987.987,0,0,1,.418.436" transform="translate(-0.362 -1.314)" fill="#d88484"/>
            <path id="Trazado_776812" data-name="Trazado 776812" d="M15.633,65.583a.086.086,0,0,1-.066-.029,20.611,20.611,0,0,1-4.52-7.658.09.09,0,0,1,.064-.11.089.089,0,0,1,.11.063,20.374,20.374,0,0,0,4.373,7.466c.23-.775,1.192-4.428-.252-7.231A.09.09,0,1,1,15.5,58c1.651,3.205.231,7.478.216,7.52a.09.09,0,0,1-.067.059.06.06,0,0,1-.019,0" transform="translate(-0.275 -1.436)" fill="#263238"/>
            <path id="Trazado_776813" data-name="Trazado 776813" d="M15.854,65.613l.294.374a.187.187,0,0,1,0,.229l-.3.386a.187.187,0,0,1-.289.01l-.277-.316a.188.188,0,0,1-.018-.222l.28-.445a.186.186,0,0,1,.3-.017" transform="translate(-0.379 -1.629)" fill="#fff"/>
            <path id="Trazado_776814" data-name="Trazado 776814" d="M31.866,89.534l3.9.643,1.875.309.547-1.938-1.7-.516-4.143-1.26Z" transform="translate(-0.792 -2.156)" fill="#ebb376"/>
            <path id="Trazado_776815" data-name="Trazado 776815" d="M37.941,88.2,37.1,90.377a.231.231,0,0,0,.137.3l1.089.386s1.429.623,1.892.424c1.352-.581,3.343-5.344,2.9-5.792-.159-.165-.509-.013-.692.123-.587.431-1.892,1.686-2.384,2.039a2.478,2.478,0,0,1-1.841.2.229.229,0,0,0-.26.142" transform="translate(-0.922 -2.128)" fill="#5573c6"/>
            <g id="Grupo_1031052" data-name="Grupo 1031052" transform="translate(31.074 84.615)" opacity="0.2" style="isolation: isolate">
              <g id="Grupo_1031051" data-name="Grupo 1031051">
                <g id="Grupo_1031050" data-name="Grupo 1031050" clip-path="url(#clip-path-34)">
                  <path id="Trazado_776816" data-name="Trazado 776816" d="M31.866,89.534l3.9.643.726-2.144-4.143-1.26Z" transform="translate(-31.866 -86.772)"/>
                </g>
              </g>
            </g>
            <path id="Trazado_776817" data-name="Trazado 776817" d="M35.247,87.427s-15.921-8.95-21.415-8.7-6.286,5.1-4.02,8.129,6.453,3.77,6.453,3.77-2.85-4.027-2.438-5.16,2.024.449,2.024.449A99.888,99.888,0,0,0,34.629,89.9Z" transform="translate(-0.214 -1.956)" fill="#263238"/>
            <path id="Trazado_776818" data-name="Trazado 776818" d="M36.136,87.381l-.9-.606-1.157,3.556h1.39Z" transform="translate(-0.847 -2.157)" fill="#5573c6"/>
            <g id="Grupo_1031055" data-name="Grupo 1031055" transform="translate(33.231 84.619)" opacity="0.6" style="isolation: isolate">
              <g id="Grupo_1031054" data-name="Grupo 1031054">
                <g id="Grupo_1031053" data-name="Grupo 1031053" clip-path="url(#clip-path-35)">
                  <path id="Trazado_776819" data-name="Trazado 776819" d="M36.136,87.381l-.9-.606-1.157,3.556h1.39Z" transform="translate(-34.078 -86.776)" fill="#fff"/>
                </g>
              </g>
            </g>
          </g>
        </g>
      </g>
    </g>
  </g>
</svg>
