<svg xmlns="http://www.w3.org/2000/svg" xmlns:xlink="http://www.w3.org/1999/xlink" width="335" height="334" viewBox="0 0 335 334">
  <defs>
    <clipPath id="clip-path">
      <rect id="Rectángulo_35483" data-name="Rectángulo 35483" width="335" height="334" transform="translate(-0.26 -0.442)" fill="#fff" stroke="#707070" stroke-width="1"/>
    </clipPath>
    <clipPath id="clip-path-2">
      <rect id="Rectángulo_371577" data-name="Rectángulo 371577" width="328.297" height="296.872" fill="none"/>
    </clipPath>
    <clipPath id="clip-path-5">
      <rect id="Rectángulo_371550" data-name="Rectángulo 371550" width="3.253" height="2.058" fill="none"/>
    </clipPath>
    <clipPath id="clip-path-6">
      <rect id="Rectángulo_371551" data-name="Rectángulo 371551" width="0.047" height="1.766" fill="none"/>
    </clipPath>
    <clipPath id="clip-path-7">
      <rect id="Rectángulo_371552" data-name="Rectángulo 371552" width="0.018" height="1.089" fill="none"/>
    </clipPath>
    <clipPath id="clip-path-8">
      <rect id="Rectángulo_371553" data-name="Rectángulo 371553" width="0.999" height="2.856" fill="none"/>
    </clipPath>
    <clipPath id="clip-path-10">
      <rect id="Rectángulo_371561" data-name="Rectángulo 371561" width="37.227" height="48.611" fill="none"/>
    </clipPath>
    <clipPath id="clip-path-11">
      <rect id="Rectángulo_371562" data-name="Rectángulo 371562" width="3.991" height="6.76" fill="none"/>
    </clipPath>
    <clipPath id="clip-path-15">
      <rect id="Rectángulo_371574" data-name="Rectángulo 371574" width="49.612" height="35.802" fill="none"/>
    </clipPath>
  </defs>
  <g id="Grupo_1043418" data-name="Grupo 1043418" transform="translate(567.125 171.472)">
    <g id="Grupo_1043414" data-name="Grupo 1043414" transform="translate(-566.865 -171.029)">
      <g id="Grupo_137455" data-name="Grupo 137455" transform="translate(0 0)">
        <g id="Enmascarar_grupo_72" data-name="Enmascarar grupo 72" clip-path="url(#clip-path)">
          <g id="Grupo_133717" data-name="Grupo 133717" transform="translate(-0.428 6.367)">
            <g id="Grupo_133713" data-name="Grupo 133713" transform="translate(0 323.945) rotate(-90)">
              <path id="Sustracción_24" data-name="Sustracción 24" d="M0,0V329.692a166.059,166.059,0,0,0,33.222-3.349,164.012,164.012,0,0,0,30.943-9.605,164.856,164.856,0,0,0,28-15.2,166.028,166.028,0,0,0,24.4-20.129,166.03,166.03,0,0,0,20.129-24.4,164.861,164.861,0,0,0,15.2-28,164.013,164.013,0,0,0,9.605-30.943,166.063,166.063,0,0,0,3.349-33.222,166.064,166.064,0,0,0-3.349-33.222,164.013,164.013,0,0,0-9.605-30.943,164.86,164.86,0,0,0-15.2-28,166.03,166.03,0,0,0-20.129-24.4,166.031,166.031,0,0,0-24.4-20.129,164.864,164.864,0,0,0-28-15.2A164.017,164.017,0,0,0,33.222,3.349,166.067,166.067,0,0,0,0,0Z" transform="translate(164.846 329.692) rotate(180)" fill="#5573c6"/>
              <path id="Sustracción_25" data-name="Sustracción 25" d="M0,0V329.691a166.064,166.064,0,0,0,33.222-3.349,164.014,164.014,0,0,0,30.943-9.605,164.86,164.86,0,0,0,28-15.2,166.03,166.03,0,0,0,24.4-20.129,166.03,166.03,0,0,0,20.129-24.4,164.86,164.86,0,0,0,15.2-28,164.013,164.013,0,0,0,9.605-30.943,166.063,166.063,0,0,0,3.349-33.222,166.062,166.062,0,0,0-3.349-33.222,164.012,164.012,0,0,0-9.605-30.943,164.855,164.855,0,0,0-15.2-28,166.028,166.028,0,0,0-20.129-24.4,166.026,166.026,0,0,0-24.4-20.129,164.862,164.862,0,0,0-28-15.2A164.015,164.015,0,0,0,33.222,3.349,166.063,166.063,0,0,0,0,0Z" transform="translate(159.099 0.001)" fill="#e8e8e8"/>
            </g>
            <path id="Trazado_151972" data-name="Trazado 151972" d="M146.955,0C65.794,0,0,66.06,0,147.549S65.794,295.1,146.955,295.1s146.955-66.06,146.955-147.549S228.115,0,146.955,0Z" transform="translate(17.859 14.356)" fill="#12263f"/>
            <g id="Grupo_133716" data-name="Grupo 133716" transform="matrix(-0.966, -0.259, 0.259, -0.966, 84.565, 304.661)" style="isolation: isolate">
              <g id="Grupo_133714" data-name="Grupo 133714" transform="translate(0 24.225)">
                <path id="Trazado_150984" data-name="Trazado 150984" d="M.1,0C.033.835,0,1.687,0,2.531A31.844,31.844,0,0,0,12.044,27.54l.232-.29A31.473,31.473,0,0,1,.371,2.531C.371,1.7.4.855.469.029Z" transform="translate(0 0)" fill="#4adbd1"/>
              </g>
              <g id="Grupo_133715" data-name="Grupo 133715" transform="translate(15.626 53.926)">
                <path id="Trazado_150985" data-name="Trazado 150985" d="M.19,0,0,.319A31.76,31.76,0,0,0,9.361,4.044l.081-.362A31.376,31.376,0,0,1,.19,0Z" transform="translate(0 0)" fill="#4adbd1"/>
              </g>
              <path id="Trazado_150986" data-name="Trazado 150986" d="M26.757,53.513A26.757,26.757,0,1,1,53.513,26.756,26.757,26.757,0,0,1,26.757,53.513Zm0-45.676a18.92,18.92,0,1,0,18.92,18.92A18.92,18.92,0,0,0,26.757,7.837Z" transform="translate(5.225 0)" fill="#4adbd1" style="mix-blend-mode: multiply;isolation: isolate"/>
            </g>
            <path id="Trazado_150987" data-name="Trazado 150987" d="M7.542,15.084a7.542,7.542,0,1,1,7.542-7.542A7.542,7.542,0,0,1,7.542,15.084Zm0-12.875a5.333,5.333,0,1,0,5.333,5.333A5.333,5.333,0,0,0,7.542,2.209Z" transform="matrix(-0.966, -0.259, 0.259, -0.966, 274.753, 33.346)" fill="#0f0140" style="mix-blend-mode: multiply;isolation: isolate"/>
            <circle id="Elipse_5034" data-name="Elipse 5034" cx="7" cy="7" r="7" transform="translate(21.169 242.192)" fill="#dad6f7"/>
            <circle id="Elipse_5035" data-name="Elipse 5035" cx="19.5" cy="19.5" r="19.5" transform="translate(260.169 33.192)" fill="#5573c6"/>
          </g>
        </g>
      </g>
    </g>
    <g id="Grupo_1043416" data-name="Grupo 1043416" transform="translate(-567.125 -152.907)">
      <g id="Grupo_1042463" data-name="Grupo 1042463" clip-path="url(#clip-path-2)">
        <g id="Grupo_1042408" data-name="Grupo 1042408">
          <g id="Grupo_1042407" data-name="Grupo 1042407" clip-path="url(#clip-path-2)">
            <path id="Trazado_796281" data-name="Trazado 796281" d="M397.159,58.834a6.816,6.816,0,0,1,.34-1.5,12.6,12.6,0,0,0,.411-1.805,17.978,17.978,0,0,0,.357-2.5,23.159,23.159,0,0,0-.334-6.853,23.836,23.836,0,0,0-3.347-8.381,23.574,23.574,0,0,0-19.731-10.913,22.1,22.1,0,0,0-6.684.92,21.505,21.505,0,0,0-6.393,2.931,23.388,23.388,0,0,0-9.753,25.96,26.756,26.756,0,0,0,1.191,3.358,26.462,26.462,0,0,0,1.692,3.058,22.078,22.078,0,0,0,4.427,5.094,23.753,23.753,0,0,0,30.074.668,23.179,23.179,0,0,0,4.762-4.939,18.073,18.073,0,0,0,1.373-2.112,12.557,12.557,0,0,0,.879-1.63,6.8,6.8,0,0,1,.735-1.356,6.725,6.725,0,0,1-.491,1.466,10.828,10.828,0,0,1-.777,1.709,16.73,16.73,0,0,1-1.3,2.217,22.686,22.686,0,0,1-4.724,5.224,24.438,24.438,0,0,1-19.539,5.183,24.661,24.661,0,0,1-11.791-5.5,23.2,23.2,0,0,1-4.7-5.335,27.627,27.627,0,0,1-1.8-3.216,27.83,27.83,0,0,1-1.271-3.537,24.573,24.573,0,0,1,10.294-27.4,22.607,22.607,0,0,1,6.754-3.061,23.185,23.185,0,0,1,7.046-.923,24.654,24.654,0,0,1,12.5,3.62,24.437,24.437,0,0,1,11.3,16.763,22.693,22.693,0,0,1,.117,7.043,16.74,16.74,0,0,1-.485,2.522,10.735,10.735,0,0,1-.541,1.8,6.726,6.726,0,0,1-.595,1.427" transform="translate(-103.812 -7.612)" fill="#e0e0e0"/>
            <path id="Trazado_796282" data-name="Trazado 796282" d="M402.736,44.737c.025.088-.509.3-1.507.615l-1.832.542c-.359.1-.741.217-1.153.311l-1.325.2a27.212,27.212,0,0,1-14.559-1.29l-2-.8-1.838-.981c-.3-.165-.6-.317-.89-.488l-.824-.558c-.539-.373-1.081-.719-1.581-1.1a31.065,31.065,0,0,1-4.768-4.594c-2.409-2.907-3.31-5.1-3.157-5.17.172-.1,1.342,1.884,3.859,4.55a36.278,36.278,0,0,0,4.794,4.234c.489.347,1.018.666,1.541,1.013l.8.52.858.452,1.763.92,1.9.75a29.347,29.347,0,0,0,13.975,1.6l1.305-.1c.408-.06.79-.144,1.149-.206l1.852-.316c1.023-.156,1.606-.2,1.632-.115" transform="translate(-108.992 -9.326)" fill="#e0e0e0"/>
            <path id="Trazado_796283" data-name="Trazado 796283" d="M352.195,70.791c-.026-.088.509-.3,1.507-.615l1.831-.542c.36-.1.742-.217,1.154-.311l1.325-.2a27.213,27.213,0,0,1,14.559,1.29l2,.8,1.838.981c.3.165.6.317.89.487l.824.558c.539.373,1.081.719,1.581,1.1a31.1,31.1,0,0,1,4.768,4.594c2.409,2.907,3.31,5.1,3.157,5.17-.172.1-1.342-1.884-3.859-4.55a36.279,36.279,0,0,0-4.794-4.234c-.489-.348-1.018-.666-1.541-1.013l-.8-.52-.858-.452-1.763-.92-1.9-.75a29.347,29.347,0,0,0-13.975-1.6l-1.305.1c-.409.06-.79.145-1.149.206l-1.852.316c-1.023.156-1.606.2-1.632.115" transform="translate(-104.512 -20.378)" fill="#e0e0e0"/>
            <path id="Trazado_796284" data-name="Trazado 796284" d="M397.8,66.417c-.129.342-10.339-3.175-22.8-7.857s-22.466-8.756-22.338-9.1S363,52.636,375.464,57.319s22.465,8.755,22.336,9.1" transform="translate(-104.649 -14.671)" fill="#e0e0e0"/>
            <path id="Trazado_796285" data-name="Trazado 796285" d="M372.254,73.551c-.342-.129,3.174-10.336,7.854-22.795s8.753-22.46,9.1-22.331-3.174,10.334-7.855,22.8-8.753,22.458-9.1,22.329" transform="translate(-110.458 -8.435)" fill="#e0e0e0"/>
            <path id="Trazado_796286" data-name="Trazado 796286" d="M370.126,73.507c-.132.1-2.048-2.471-3.6-7.329a32.409,32.409,0,0,1-1.5-8.805,29.065,29.065,0,0,1,1.79-10.814,27.654,27.654,0,0,1,5.814-9.3,33.491,33.491,0,0,1,6.94-5.613c4.356-2.638,7.457-3.4,7.5-3.238.073.185-2.866,1.251-6.988,4.027a36.089,36.089,0,0,0-6.548,5.651,27.792,27.792,0,0,0-5.47,8.931,29.355,29.355,0,0,0-1.812,10.336,34.759,34.759,0,0,0,1.176,8.564c1.284,4.8,2.877,7.5,2.7,7.59" transform="translate(-108.317 -8.424)" fill="#e0e0e0"/>
            <path id="Trazado_796287" data-name="Trazado 796287" d="M389.94,28.686c.132-.1,2.048,2.471,3.6,7.329a32.409,32.409,0,0,1,1.5,8.805,29.086,29.086,0,0,1-1.79,10.815,27.658,27.658,0,0,1-5.814,9.3,33.491,33.491,0,0,1-6.94,5.613c-4.356,2.638-7.457,3.4-7.5,3.238-.073-.186,2.866-1.251,6.988-4.027a36.09,36.09,0,0,0,6.548-5.651,27.766,27.766,0,0,0,5.47-8.931,29.352,29.352,0,0,0,1.812-10.336,34.765,34.765,0,0,0-1.176-8.564c-1.284-4.8-2.877-7.5-2.7-7.59" transform="translate(-110.686 -8.511)" fill="#e0e0e0"/>
            <path id="Trazado_796288" data-name="Trazado 796288" d="M30.485,121.961l-.813-3.847a12.9,12.9,0,0,0-25.165,5.67l.828,3.919a7.213,7.213,0,0,0-4.43,8.312l5.115,22.617a7.217,7.217,0,0,0,8.631,5.447l23.481-5.31a7.218,7.218,0,0,0,5.448-8.631l-5.115-22.617a7.215,7.215,0,0,0-7.981-5.561M26.74,148.03,20.6,149.418l-.044-4.651a3.835,3.835,0,1,1,4.042-.988c.824,1.621,2.144,4.251,2.144,4.251m1.028-25.489L8.029,127l-.807-3.814a10.119,10.119,0,0,1,19.735-4.483Z" transform="translate(-0.216 -32.066)" fill="#ebebeb"/>
            <path id="Trazado_796289" data-name="Trazado 796289" d="M57.571,41.885,58.3,39.7a7.538,7.538,0,0,0-14.37-4.559l-.738,2.222A4.215,4.215,0,0,0,38.5,40.254l-4.089,12.92a4.218,4.218,0,0,0,2.749,5.294l13.413,4.245a4.218,4.218,0,0,0,5.294-2.749l4.089-12.92a4.216,4.216,0,0,0-2.388-5.159m-9.577,12.05-3.509-1.11,1.35-2.36a2.241,2.241,0,1,1,2.331.693c-.063,1.061-.172,2.777-.172,2.777m8.035-12.558L44.753,37.808l.718-2.163A5.914,5.914,0,0,1,56.75,39.2Z" transform="translate(-10.153 -8.87)" fill="#f5f5f5"/>
          </g>
        </g>
        <g id="Grupo_1042443" data-name="Grupo 1042443">
          <g id="Grupo_1042442" data-name="Grupo 1042442" clip-path="url(#clip-path-2)">
            <path id="Trazado_796290" data-name="Trazado 796290" d="M267.994,66.979s.1-.083.3-.229l.895-.638c.387-.288.9-.6,1.446-1.046l1.907-1.516c.678-.617,1.453-1.279,2.262-2.043.772-.8,1.676-1.615,2.513-2.612a47.334,47.334,0,0,0,5.29-7.059,48.448,48.448,0,0,0,7.172-21.6,36.078,36.078,0,0,0-1.355-13.4,24.394,24.394,0,0,0-7.637-12.072,19.185,19.185,0,0,0-6.435-3.433A24.123,24.123,0,0,0,267.3.38a47.8,47.8,0,0,0-13.32,2.3A94.9,94.9,0,0,0,232.9,11.784a97.612,97.612,0,0,0-12.735,8.853c-1.4,1.181-2.49,2.1-3.2,2.754l-.825.726c-.187.162-.29.238-.29.238s.084-.1.263-.267l.8-.755c.695-.672,1.768-1.611,3.158-2.812A94.745,94.745,0,0,1,253.874,2.337,47.993,47.993,0,0,1,267.294,0a24.465,24.465,0,0,1,7.168.969,19.566,19.566,0,0,1,6.568,3.5,24.732,24.732,0,0,1,7.756,12.263,36.317,36.317,0,0,1,1.347,13.533,48.456,48.456,0,0,1-7.294,21.714,46.994,46.994,0,0,1-5.362,7.06c-.85.994-1.764,1.8-2.547,2.6-.821.76-1.606,1.416-2.294,2.025L270.7,65.158c-.556.439-1.075.741-1.471,1.02l-.918.606c-.207.135-.319.2-.319.2" transform="translate(-64.051 0)" fill="#12263f"/>
            <path id="Trazado_796291" data-name="Trazado 796291" d="M130.157,145a39.078,39.078,0,0,1-5.86,1.34,45.508,45.508,0,0,1-16.33-.4,39.181,39.181,0,0,1-10.632-3.884,37.726,37.726,0,0,1-10.139-8.1,34.142,34.142,0,0,1-7.1-12.437,27.172,27.172,0,0,1-.888-3.678,31.1,31.1,0,0,1-.481-3.816c-.064-.643-.026-1.294-.044-1.944a16.394,16.394,0,0,1,.049-1.957q.074-.98.147-1.966.151-.978.3-1.961A37.217,37.217,0,0,1,81.3,98.642c.433-1.219,1.016-2.363,1.548-3.517.271-.575.6-1.117.9-1.673s.594-1.11.943-1.629a45.47,45.47,0,0,1,9.325-10.907,54.456,54.456,0,0,1,10.881-7.108,67.513,67.513,0,0,1,10.554-4.117,89.2,89.2,0,0,1,16.086-3.1c1.927-.184,3.426-.3,4.443-.345l1.158-.057c.261-.011.4-.006.4-.006s-.133.022-.393.045l-1.154.095c-1.016.069-2.511.212-4.433.418a92.159,92.159,0,0,0-16.023,3.216,67.76,67.76,0,0,0-10.49,4.141,54.4,54.4,0,0,0-10.793,7.092,45.261,45.261,0,0,0-9.233,10.834c-.347.515-.631,1.069-.934,1.615s-.62,1.09-.888,1.66c-.526,1.144-1.1,2.279-1.531,3.486a36.906,36.906,0,0,0-2.094,7.476l-.3,1.94q-.073.976-.146,1.945a16.023,16.023,0,0,0-.049,1.935c.018.643-.02,1.286.043,1.921a30.764,30.764,0,0,0,.473,3.77,26.987,26.987,0,0,0,.873,3.634,33.867,33.867,0,0,0,7.005,12.314,37.538,37.538,0,0,0,10.025,8.059,39.111,39.111,0,0,0,10.536,3.9,46.087,46.087,0,0,0,16.25.523c1.909-.295,3.38-.6,4.369-.837l1.125-.274c.255-.059.387-.08.387-.08" transform="translate(-23.347 -19.638)" fill="#fff"/>
            <path id="Trazado_796292" data-name="Trazado 796292" d="M257.456,99.385a37.12,37.12,0,0,1-1.377-5.2,3.444,3.444,0,0,0-1.565-2.331,14.066,14.066,0,0,0-1.871-.423c-2.2-.659-2.8-3.731-4.884-4.684a7.075,7.075,0,0,0-2.1-.435c-2.789-.33-5.672-1.295-7.426-3.484a13.657,13.657,0,0,0-1.718-2.118A2.058,2.058,0,0,0,234,80.471c.589,1.177,1.165,2.354,1.743,3.519a9.246,9.246,0,0,0,1.953,2.93,3.153,3.153,0,0,0,3.283.706,2.172,2.172,0,0,1,1.107-.388,1.2,1.2,0,0,1,.718.459c1.518,1.683,1.024,4.472-.459,6.191s-3.66,2.6-5.767,3.436a4.469,4.469,0,0,1-2.354.459c-1.46-.271-2.236-1.859-2.66-3.284-.953-3.154-1.412-6.579-3.366-9.239a11.572,11.572,0,0,1-1.777-2.577c-.4-1.06-.306-2.3-.942-3.225-.659-.977-2.06-1.542-2.153-2.719a2.147,2.147,0,0,1,1.377-1.907c.753-.365,1.6-.47,2.377-.788.306-.129.648-.353.659-.683,0-.494-.682-.694-.859-1.153-.188-.518.342-1,.565-1.506.482-1.153-.718-2.319-1.883-2.789s-2.554-.812-3.1-1.942a6.715,6.715,0,0,1-.377-1.683,3.681,3.681,0,0,0-2.754-3.037,2.427,2.427,0,0,0-2.813,2.484,10.235,10.235,0,0,0,1.048,2.13c.329.729.236,1.812-.518,2.048-1.236.376-2.425-1.883-3.461-1.107.424,1.448.835,2.9,1.26,4.355-1.625.824-3.566-.672-4.26-2.366s-.718-3.613-1.542-5.238-3.048-2.847-4.46-1.695c-.071,2.095,2.695,2.942,3.919,4.637a2.842,2.842,0,0,1-.553,3.99c-1.295.777-3.354-.576-2.86-2,.177-.494.589-.906.636-1.436.047-.659-.506-1.189-1.012-1.613-.789-.671-1.577-1.33-2.366-1.989a4.969,4.969,0,0,0-1.683-1.059c-1.625-.471-3.248.847-4.108,2.295s-1.342,3.166-2.53,4.378a4.628,4.628,0,0,1-6.544.023c-1.612-1.847-.788-5.308,1.577-5.978.895-.248,2.025-.224,2.5-1.013.824-1.4-1.53-3.189-.718-4.6.624-1.083,2.272-.589,3.472-.954s1.859-1.565,2.565-2.6,1.789-2.06,3.013-1.789a3.777,3.777,0,0,1,.129-2.142,1.311,1.311,0,0,1,1.8-.659,2.174,2.174,0,0,0,1.165,2.859,6.351,6.351,0,0,0,3.425.248c1.153-.141,2.6-.565,2.695-1.718.036-.377-.106-.777.036-1.13.506-1.377,3.048.518,4.025-.589.565-.577-.059-1.6-.847-1.789a8.623,8.623,0,0,0-2.389.118c-.8.035-1.778-.389-1.813-1.188s.847-1.354.942-2.13c.153-1.319-2.083-1.66-2.871-.589s-.506,2.542-.271,3.848.364,2.848-.6,3.767c-.411.624-1.482.294-1.835-.365a5.311,5.311,0,0,1-.342-2.2,1.9,1.9,0,0,0-1.118-1.8,3.98,3.98,0,0,0-1.565.177c-2.048.247-3.472-2.4-2.825-4.355s2.5-3.225,4.3-4.225c1.318-.73,2.954-1.413,4.26-.671.612.341,1.036.93,1.636,1.283,1.035.612,2.319.388,3.507.412a8.17,8.17,0,0,1,5.12,1.989c.53.482,1.024,1.283.612,1.859-.447.612-1.73.741-1.506,1.459a2.551,2.551,0,0,0,3.2-2.059,2.139,2.139,0,0,1,1.236,1.741,3.811,3.811,0,0,1,5.591.459,4.8,4.8,0,0,0,1.036,1.33c.47.306,1.294.153,1.353-.4a1.126,1.126,0,0,0-.094-.518c-.283-.8-.577-1.589-.859-2.378,1.094-.589,2.389.33,3.13,1.319,2.754,3.684,4.72,1.471,8.6,2.071,2.624.4,3.778,2.083,5.26,4.12,4.543,6.261,10.545,11.392,14.677,17.936.435.683.835,1.377,1.212,2.083-.07-.177-.129-.353-.2-.53a72.447,72.447,0,0,0-6-12.2q-.758-1.236-1.553-2.437c-.329-.494-.67-1-1.012-1.482-.435-.636-.895-1.248-1.353-1.859-.365-.5-.73-.977-1.107-1.448-.259-.329-.529-.659-.8-.989-.283-.376-.589-.741-.918-1.106l-.989-1.141a4.352,4.352,0,0,0-.317-.353c-.342-.4-.707-.788-1.071-1.177a.335.335,0,0,0-.106-.117c-.094-.106-.2-.212-.306-.318-.295-.33-.612-.648-.918-.965-.506-.518-1.024-1.036-1.553-1.53-.435-.435-.883-.847-1.341-1.26-.4-.364-.8-.729-1.212-1.082s-.8-.695-1.212-1.036c-.494-.423-1-.835-1.518-1.248H236.4q-2.136-1.712-4.4-3.236c-.376-.259-.741-.506-1.118-.753s-.764-.494-1.141-.73-.765-.482-1.153-.706c-.388-.247-.776-.47-1.165-.694-.318-.188-.624-.365-.942-.53a4.818,4.818,0,0,0-.482-.271c-.67-.377-1.353-.742-2.036-1.083-.341-.177-.683-.353-1.035-.518-.436-.224-.883-.436-1.331-.636a1.067,1.067,0,0,0-.2-.094c-.4-.188-.8-.376-1.212-.553-.577-.248-1.153-.494-1.73-.73-.659-.271-1.318-.542-1.989-.788-.742-.283-1.483-.553-2.236-.8s-1.518-.506-2.283-.742-1.53-.447-2.307-.659c-1.53-.412-3.083-.776-4.649-1.094-.024-.012-.059-.012-.082-.024-.6-.117-1.2-.235-1.8-.329a.511.511,0,0,0-.117-.024c-.259-.047-.53-.094-.8-.129-1.118-.188-2.248-.341-3.39-.47-.129-.024-.271-.035-.412-.047-.33-.047-.659-.071-1-.106-.753-.07-1.507-.129-2.272-.177-.788-.059-1.589-.094-2.389-.117-.836-.035-1.672-.047-2.507-.047q-3.319,0-6.568.294c-.518.036-1.023.082-1.53.141-.53.059-1.059.117-1.589.188s-1.06.141-1.577.224-1.047.165-1.577.259c-.447.07-.906.153-1.353.248q-1.659.318-3.283.706-.76.176-1.518.388c-.506.129-1.012.271-1.506.412-.835.235-1.648.494-2.46.753h-.012c-.659.224-1.33.447-1.977.671a.087.087,0,0,0-.047.023c-.671.236-1.318.482-1.978.741l-.105.036c-.6.235-1.2.482-1.789.729-.741.306-1.471.636-2.189.966-.612.282-1.212.565-1.8.859-.636.318-1.271.636-1.9.966l-.07.035c-.6.317-1.2.647-1.789.988-.612.342-1.212.695-1.812,1.072h-.012c-.565.341-1.118.682-1.671,1.035-.212.129-.412.271-.624.412-.589.376-1.153.764-1.73,1.165-.707.482-1.389.988-2.072,1.494-.6.447-1.189.906-1.765,1.365a74.042,74.042,0,0,0-9.251,8.768c-1,1.106-1.942,2.236-2.86,3.39-.777.989-1.53,1.989-2.248,3.025q-.972,1.35-1.873,2.751.9-1.4,1.873-2.751c.188-.023.376-.047.565-.059a8.707,8.707,0,0,0,3.131-.506,18.7,18.7,0,0,0,2.307-1.789c2.048-1.459,5.4-1.73,5.955-4.178a17.608,17.608,0,0,1,.271-2.507c.577-1.471,2.542-1.683,4.119-1.659.671,0,1.459.094,1.766.682a1.688,1.688,0,0,1-.071,1.366,12.791,12.791,0,0,1-5.4,6.637c-2.047,1.248-4.72,2.213-5.284,4.543.283.788,1.719.73,1.836,1.553.082.659-.765,1-1.071,1.589-.447.859.577,1.907,1.553,1.859a4.3,4.3,0,0,0,2.507-1.413c2.142-1.989,4.39-4.131,5.167-6.955.329-1.165.447-2.53,1.388-3.307a2.3,2.3,0,0,1,3.5,1.118c.93-.518,2.377-.906,2.86.059a4.958,4.958,0,0,1,.2,1.106c.306,1.506,2.366,2.189,2.577,3.707.248,1.754-2,2.66-3.755,2.931-1.589.247-3.177.494-4.766.753a4.408,4.408,0,0,0-1.978.635,1.545,1.545,0,0,0-.589,1.848,4.691,4.691,0,0,0,.824.847,2.534,2.534,0,0,1-1.625,4.1c-.635.023-1.26-.212-1.895-.236-1.883-.082-3.378,1.577-4.272,3.236s-1.565,3.554-3.072,4.684c-2.424,1.824-6.6,1.4-7.779,4.2a6.71,6.71,0,0,0-.035,3.613,4.82,4.82,0,0,1-.436,3.542c-.694.989-2.506,1.2-3.024.094a2.716,2.716,0,0,1-.071-1.565c.283-1.741.553-3.483.824-5.225.2-1.295.376-2.742-.389-3.8-1.071-1.482-3.472-1.341-4.86-.153a8.582,8.582,0,0,0-2.343,4.825,20.911,20.911,0,0,1-1.342,4.684c-.247,1.459-.447,2.942-.6,4.437-.153,1.53-.259,3.049-.318,4.6a6.482,6.482,0,0,0,.6-.565c.741-.765,2.236-4,3.577-2.413a1.2,1.2,0,0,1,.024,1.471c-.412.53-1.236.647-1.553,1.224-.389.683.153,1.53.788,1.978a6.841,6.841,0,0,1,1.859,1.389c.859,1.236.035,3.107.871,4.366.717,1.083,2.248,1.153,3.554,1.295l.447.071c.365-2.589,1.577-4.7,5.108-5.5,4.872-1.106,11.275,2.93,14.017,6.6,3.06,4.108,4.508,9.922,9.192,11.981,3.355,1.471,8.12.942,9.756,4.225,1.46,2.943-1.082,6.25-1.471,9.51-.248,2.153.459,4.3.623,6.45s-.482,4.684-2.447,5.59c-1.095.494-2.472.435-3.355,1.26-1.565,1.482-.283,4.543-1.847,6.025a8,8,0,0,1-1.99,1.047c-3.519,1.778-3.425,6.956-1.789,10.546.059.129.118.247.176.376a74.356,74.356,0,0,0,38.145,10.533,74.018,74.018,0,0,0,34.9-8.685h.012a74.594,74.594,0,0,0,6.579-3.966,73.343,73.343,0,0,0,9.239-7.344,72.132,72.132,0,0,0,5.649-5.9c1.248-1.435,2.425-2.93,3.555-4.46.576-.788,1.141-1.577,1.671-2.39a73.062,73.062,0,0,0,9.251-19.031,72.249,72.249,0,0,0,2.836-12.6c.224-1.672.4-3.366.518-5.073a4.283,4.283,0,0,1-2.99,1.33c-1.789-.024-3.26-1.518-3.978-3.166" transform="translate(-34.402 -6.515)" fill="#e8e8e8"/>
            <path id="Trazado_796294" data-name="Trazado 796294" d="M192.523,42.067c-1.474.88-2.257,2.544-3.394,3.83s-3.176,2.2-4.518,1.133a3.108,3.108,0,0,1-1.009-2.189,5.612,5.612,0,0,1,.8-3.407c.641-1.044,1.618-1.865,2.16-2.964s.432-2.706-.68-3.222c-.6-.278-1.357-.169-1.89-.562-.959-.707-.272-2.376.841-2.8s2.35-.095,3.538-.019c4.311.275,7.481-2.548,10.722-4.892,2.52-1.824,7.889-3.978,10.806-2.115,1.164.743,1.619,2.654.523,3.494-.491.376-1.167.459-1.625.876-.548.5-.625,1.319-.939,1.99-.816,1.745-3.17,2.378-3.927,4.149-.456,1.066-.25,2.392-.953,3.314a4.069,4.069,0,0,1-2.419,1.2l-5.622,1.337a8.414,8.414,0,0,0-2.416.841" transform="translate(-54.464 -7.166)" fill="#263238"/>
            <path id="Trazado_796295" data-name="Trazado 796295" d="M248.132,153.247c-1.865,2.81-2.2,6.322-2.721,9.655s-1.407,6.875-3.968,9.069-7.265,2.065-8.674-1c-.765-1.663-.373-3.625-.79-5.407-.544-2.322-2.392-4.115-3.269-6.332a17.668,17.668,0,0,1-.811-6.016c-.333-11.114-3.044-22.712-10.61-30.86a7.344,7.344,0,0,0-3.305-2.326,4.222,4.222,0,0,0-4.342,1.5,16.583,16.583,0,0,1-1.665,2.51c-1.617,1.476-4.44.418-5.521-1.487s-.93-4.239-.75-6.421q.337-4.058.672-8.116a6.836,6.836,0,0,1,1.2-4.009c1.321-1.527,3.69-1.6,5.306-2.81,2.119-1.587,2.4-4.615,3.737-6.9s5.518-3.252,6.136-.678c4.423-9.467,14.2,4.6,20.01,3.54,1.688-.307,3.337-1.117,5.036-.88,3,.419,4.549,3.725,5.57,6.578l5.084,14.2c.646,1.8,1.48,3.808,3.265,4.5,1.369.531,2.959.126,4.339.628,3.647,1.326,2.461,7.067-.474,9.606s-7.054,4.142-8.45,7.764c-1.051,2.729-.213,5.926-1.344,8.622-.809,1.93-2.512,3.324-3.669,5.067" transform="translate(-59.818 -26.803)" fill="#263238"/>
            <path id="Trazado_796296" data-name="Trazado 796296" d="M283.411,180c-1.2.168-2.613-.423-3.524.373a3.909,3.909,0,0,0-.861,1.9,4.054,4.054,0,0,1-1.7,2.32,2.551,2.551,0,0,1-2.771-.05,1.876,1.876,0,0,1-.381-2.6,13.11,13.11,0,0,1,1.034-.845c1.591-1.5.5-4.292,1.712-6.079.713-1.054,1.836-2.124,2.62-3.192.6-.821.824-1.472,1.931-1.69,4.848-.954,7.039,9.144,1.939,9.858" transform="translate(-81.251 -50.47)" fill="#263238"/>
            <path id="Trazado_796297" data-name="Trazado 796297" d="M125.555,148.157c-.236-2.13.471-4.26.506-6.414.023-1.482-.082-3.048-.106-4.543a20.41,20.41,0,0,1-3.778-.53,1.132,1.132,0,0,1-.694-.353,1.378,1.378,0,0,1-.153-.788c-.094-1.672-1.706-2.778-3.154-3.613a12.586,12.586,0,0,0-2.295-1.13c0,.177,0,.342.011.518a74.126,74.126,0,0,0,4.731,23.6,71.219,71.219,0,0,0,4.543,9.745c.73,1.354,1.53,2.684,2.366,3.99,1.035,1.613,2.118,3.19,3.283,4.708,1.082,1.459,2.236,2.883,3.449,4.248a73.61,73.61,0,0,0,5.26,5.414q2.454,2.3,5.12,4.355c-4.061-10.9-7.886-22.021-14.829-31.295-1.824-2.425-3.919-4.9-4.261-7.909" transform="translate(-34.387 -38.81)" fill="#727997"/>
            <path id="Trazado_796298" data-name="Trazado 796298" d="M115.854,125.782c-.008.449-.023.895-.023,1.342,0,.365.011.725.018,1.089-.006-.364-.018-.724-.018-1.089,0-.447.015-.893.023-1.342" transform="translate(-34.372 -37.325)" fill="#263238"/>
            <g id="Grupo_1042414" data-name="Grupo 1042414" transform="translate(114.42 151.565)" opacity="0.6">
              <g id="Grupo_1042413" data-name="Grupo 1042413">
                <g id="Grupo_1042412" data-name="Grupo 1042412" clip-path="url(#clip-path-5)">
                  <path id="Trazado_796299" data-name="Trazado 796299" d="M162.7,215.519q.938.634,1.9,1.234c.447.283.895.553,1.353.824-.458-.271-.906-.542-1.353-.824q-.962-.6-1.9-1.234" transform="translate(-162.7 -215.519)" fill="#263238"/>
                </g>
              </g>
            </g>
            <path id="Trazado_796300" data-name="Trazado 796300" d="M261.594,131.794c2.935-2.539,4.121-8.28.473-9.607-1.379-.5-2.97-.1-4.338-.627-1.786-.693-2.62-2.7-3.265-4.5q-2.542-7.1-5.084-14.2c-1.021-2.852-2.57-6.158-5.57-6.578-1.7-.237-3.349.573-5.036.88-5.812,1.058-15.588-13.007-20.01-3.54-.618-2.574-4.8-1.608-6.137.678s-1.617,5.313-3.736,6.9c-1.616,1.21-3.985,1.283-5.306,2.81a6.83,6.83,0,0,0-1.2,4.009q-.337,4.059-.672,8.117c-.181,2.182-.33,4.517.75,6.421s3.9,2.963,5.52,1.487a16.64,16.64,0,0,0,1.665-2.51,4.222,4.222,0,0,1,4.342-1.5,7.338,7.338,0,0,1,3.3,2.326c7.567,8.147,10.277,19.746,10.61,30.86a17.686,17.686,0,0,0,.812,6.016c.877,2.217,2.726,4.01,3.269,6.331.417,1.783.025,3.745.79,5.408,1.409,3.064,6.113,3.194,8.674,1s3.449-5.736,3.968-9.069.856-6.845,2.721-9.655c1.157-1.743,2.859-3.138,3.669-5.067,1.131-2.7.293-5.894,1.344-8.623,1.4-3.621,5.515-5.224,8.45-7.763" transform="translate(-59.818 -26.803)" fill="#727997"/>
            <g id="Grupo_1042417" data-name="Grupo 1042417" transform="translate(81.482 86.691)" opacity="0.6">
              <g id="Grupo_1042416" data-name="Grupo 1042416">
                <g id="Grupo_1042415" data-name="Grupo 1042415" clip-path="url(#clip-path-6)">
                  <path id="Trazado_796301" data-name="Trazado 796301" d="M115.911,123.283v0c-.012.141-.024.271-.024.412-.018.441-.016.892-.023,1.342.007-.449.006-.9.023-1.342,0-.141.012-.271.024-.412" transform="translate(-115.864 -123.271)" fill="#263238"/>
                </g>
              </g>
            </g>
            <g id="Grupo_1042420" data-name="Grupo 1042420" transform="translate(81.476 90.887)" opacity="0.6">
              <g id="Grupo_1042419" data-name="Grupo 1042419">
                <g id="Grupo_1042418" data-name="Grupo 1042418" clip-path="url(#clip-path-7)">
                  <path id="Trazado_796302" data-name="Trazado 796302" d="M115.856,129.237c.006.364.006.73.018,1.089-.012-.359-.012-.725-.018-1.089" transform="translate(-115.856 -129.237)" fill="#263238"/>
                </g>
              </g>
            </g>
            <path id="Trazado_796303" data-name="Trazado 796303" d="M126.069,130.647l-.447-.07c-1.307-.142-2.836-.212-3.554-1.295-.835-1.26-.012-3.131-.871-4.367a6.855,6.855,0,0,0-1.859-1.389c-.635-.447-1.177-1.295-.788-1.978.318-.577,1.142-.694,1.553-1.224a1.2,1.2,0,0,0-.023-1.471c-1.342-1.589-2.837,1.648-3.577,2.413a6.573,6.573,0,0,1-.6.565v.012c-.012.141-.024.271-.024.412-.018.441-.016.892-.023,1.341s-.024.895-.024,1.342c0,.365.012.726.018,1.089s.006.73.018,1.089a12.592,12.592,0,0,1,2.3,1.13c1.447.835,3.06,1.942,3.154,3.613a1.379,1.379,0,0,0,.153.788,1.132,1.132,0,0,0,.694.353,20.461,20.461,0,0,0,3.778.53" transform="translate(-34.372 -35.141)" fill="#727997"/>
            <path id="Trazado_796304" data-name="Trazado 796304" d="M130.017,136.292c.023,1.494.129,3.06.106,4.543-.036,2.153-.742,4.284-.506,6.414.341,3.013,2.436,5.484,4.26,7.909,6.944,9.274,10.769,20.4,14.83,31.294h.011c.754.6,1.518,1.165,2.3,1.719q.918.661,1.855,1.3t1.9,1.234c.447.283.895.553,1.353.824-.059-.129-.117-.247-.177-.376-1.636-3.59-1.73-8.768,1.789-10.545a8.037,8.037,0,0,0,1.989-1.048c1.565-1.482.283-4.543,1.848-6.025.883-.824,2.26-.765,3.354-1.26,1.966-.906,2.6-3.425,2.448-5.59s-.871-4.3-.624-6.45c.389-3.26,2.93-6.567,1.471-9.509-1.636-3.284-6.4-2.754-9.757-4.225-4.684-2.06-6.132-7.874-9.192-11.981-2.742-3.672-9.144-7.709-14.017-6.6-3.53.8-4.743,2.907-5.108,5.5" transform="translate(-38.449 -37.902)" fill="#727997"/>
            <path id="Trazado_796305" data-name="Trazado 796305" d="M120.92,83.373c1.389-1.188,3.79-1.33,4.861.153.765,1.06.589,2.507.388,3.8-.271,1.742-.542,3.484-.824,5.225a2.718,2.718,0,0,0,.07,1.566c.518,1.106,2.33.894,3.025-.094a4.826,4.826,0,0,0,.435-3.543,6.717,6.717,0,0,1,.035-3.613c1.177-2.8,5.355-2.378,7.779-4.2,1.507-1.13,2.178-3.025,3.072-4.684s2.39-3.319,4.272-3.236c.636.024,1.26.259,1.9.236a2.534,2.534,0,0,0,1.624-4.1,4.687,4.687,0,0,1-.824-.847,1.543,1.543,0,0,1,.589-1.848,4.405,4.405,0,0,1,1.977-.635c1.589-.259,3.178-.506,4.767-.753,1.754-.271,4-1.177,3.754-2.93-.212-1.518-2.271-2.2-2.577-3.708a4.958,4.958,0,0,0-.2-1.106c-.482-.966-1.93-.577-2.86-.059a2.3,2.3,0,0,0-3.5-1.118c-.942.777-1.059,2.142-1.389,3.307-.776,2.824-3.025,4.966-5.167,6.956a4.3,4.3,0,0,1-2.506,1.412c-.977.047-2-1-1.554-1.859.307-.589,1.154-.93,1.071-1.589-.117-.824-1.553-.765-1.835-1.553.565-2.33,3.236-3.3,5.284-4.543a12.8,12.8,0,0,0,5.4-6.637,1.685,1.685,0,0,0,.07-1.366c-.306-.589-1.095-.682-1.766-.682-1.577-.024-3.542.188-4.119,1.659a17.5,17.5,0,0,0-.27,2.507c-.553,2.448-3.908,2.719-5.956,4.178a18.633,18.633,0,0,1-2.307,1.789,8.687,8.687,0,0,1-3.131.506c-.188.012-.376.036-.565.059q-.97,1.35-1.873,2.751t-1.741,2.839A73.644,73.644,0,0,0,119.884,82q-.865,2.639-1.527,5.364t-1.121,5.523a20.985,20.985,0,0,0,1.342-4.684,8.578,8.578,0,0,1,2.342-4.825" transform="translate(-34.789 -15.23)" fill="#727997"/>
            <path id="Trazado_796306" data-name="Trazado 796306" d="M202.979,38.688c.7-.923.5-2.248.953-3.314.757-1.771,3.111-2.4,3.927-4.149.314-.672.391-1.492.939-1.991.457-.416,1.134-.5,1.625-.875,1.1-.84.641-2.75-.523-3.494-2.917-1.863-8.286.29-10.806,2.114-3.241,2.345-6.411,5.168-10.722,4.893-1.189-.076-2.424-.4-3.538.019s-1.8,2.091-.841,2.8c.533.393,1.29.284,1.891.563,1.111.515,1.222,2.123.679,3.222s-1.52,1.919-2.16,2.964a5.617,5.617,0,0,0-.8,3.407,3.108,3.108,0,0,0,1.009,2.189c1.342,1.07,3.381.153,4.518-1.133s1.92-2.949,3.394-3.83a8.437,8.437,0,0,1,2.416-.842l5.622-1.336a4.073,4.073,0,0,0,2.419-1.2" transform="translate(-54.464 -7.166)" fill="#727997"/>
            <g id="Grupo_1042423" data-name="Grupo 1042423" transform="translate(225.501 63.811)" opacity="0.6">
              <g id="Grupo_1042422" data-name="Grupo 1042422">
                <g id="Grupo_1042421" data-name="Grupo 1042421" clip-path="url(#clip-path-8)">
                  <path id="Trazado_796307" data-name="Trazado 796307" d="M320.655,90.749q.53,1.412,1,2.844-.47-1.433-1-2.844s.012-.012,0-.012Z" transform="translate(-320.654 -90.737)" fill="#263238"/>
                </g>
              </g>
            </g>
            <path id="Trazado_796308" data-name="Trazado 796308" d="M294.394,101.765q-.008-1.607-.1-3.189t-.245-3.155c-.082-.847-.177-1.683-.294-2.518q-.173-1.324-.393-2.634a72.258,72.258,0,0,0-1.738-7.722q-.415-1.457-.884-2.888t-1-2.843V76.8c-.376-.706-.776-1.4-1.212-2.083C284.4,68.175,278.4,63.044,273.857,56.782c-1.483-2.036-2.637-3.719-5.261-4.119-3.883-.6-5.85,1.613-8.6-2.072-.741-.988-2.036-1.907-3.13-1.318.283.789.577,1.577.859,2.378a1.125,1.125,0,0,1,.094.518c-.058.553-.883.706-1.353.4a4.812,4.812,0,0,1-1.036-1.33,3.81,3.81,0,0,0-5.59-.459,2.143,2.143,0,0,0-1.236-1.742,2.552,2.552,0,0,1-3.2,2.06c-.224-.718,1.059-.847,1.506-1.459.412-.577-.082-1.377-.613-1.859a8.169,8.169,0,0,0-5.119-1.99c-1.189-.023-2.472.2-3.508-.411-.6-.353-1.024-.942-1.636-1.283-1.307-.741-2.942-.058-4.26.672-1.8,1-3.66,2.26-4.3,4.225s.776,4.6,2.824,4.355a4,4,0,0,1,1.565-.177,1.9,1.9,0,0,1,1.118,1.8,5.3,5.3,0,0,0,.341,2.2c.353.659,1.424.988,1.836.364.965-.918.847-2.459.6-3.766s-.506-2.778.271-3.849,3.025-.729,2.872.589c-.094.777-.977,1.342-.942,2.13s1.012,1.224,1.812,1.189a8.624,8.624,0,0,1,2.389-.118c.789.188,1.413,1.212.847,1.789-.977,1.106-3.519-.788-4.025.589-.141.353,0,.753-.035,1.129-.094,1.154-1.542,1.577-2.7,1.719a6.351,6.351,0,0,1-3.425-.248,2.176,2.176,0,0,1-1.165-2.859,1.31,1.31,0,0,0-1.8.659,3.77,3.77,0,0,0-.129,2.142c-1.224-.271-2.319.764-3.013,1.789s-1.377,2.236-2.565,2.6-2.848-.129-3.472.953c-.812,1.413,1.542,3.2.718,4.6-.47.788-1.6.765-2.5,1.012-2.366.671-3.189,4.131-1.577,5.979a4.627,4.627,0,0,0,6.543-.023c1.189-1.212,1.672-2.919,2.531-4.378s2.483-2.766,4.107-2.3a4.976,4.976,0,0,1,1.684,1.059c.788.66,1.577,1.319,2.365,1.99.506.423,1.06.953,1.013,1.613-.048.53-.459.941-.636,1.435-.494,1.424,1.565,2.778,2.86,2a2.842,2.842,0,0,0,.553-3.99c-1.224-1.695-3.99-2.542-3.919-4.637,1.413-1.153,3.637.059,4.461,1.695s.847,3.554,1.542,5.237,2.637,3.19,4.261,2.366c-.424-1.459-.836-2.907-1.26-4.355,1.035-.776,2.224,1.483,3.46,1.106.753-.235.847-1.318.518-2.048a10.233,10.233,0,0,1-1.047-2.13,2.425,2.425,0,0,1,2.813-2.483,3.683,3.683,0,0,1,2.754,3.037,6.714,6.714,0,0,0,.376,1.683c.542,1.13,1.942,1.471,3.1,1.942s2.366,1.636,1.883,2.79c-.224.506-.753.988-.565,1.506.177.459.859.659.859,1.153-.012.329-.353.553-.659.683-.777.318-1.625.423-2.378.788a2.147,2.147,0,0,0-1.377,1.907c.094,1.177,1.494,1.742,2.153,2.719.636.93.541,2.165.942,3.224a11.578,11.578,0,0,0,1.776,2.577c1.954,2.66,2.413,6.085,3.366,9.239.423,1.424,1.2,3.013,2.66,3.283a4.475,4.475,0,0,0,2.354-.459c2.106-.835,4.3-1.73,5.767-3.437s1.978-4.507.459-6.19a1.194,1.194,0,0,0-.718-.459,2.167,2.167,0,0,0-1.106.388,3.153,3.153,0,0,1-3.284-.706,9.261,9.261,0,0,1-1.954-2.93c-.577-1.165-1.153-2.342-1.742-3.519a2.056,2.056,0,0,1,2.518.236,13.661,13.661,0,0,1,1.719,2.118c1.753,2.189,4.637,3.154,7.426,3.484a7.083,7.083,0,0,1,2.095.435c2.083.954,2.683,4.025,4.884,4.684a13.957,13.957,0,0,1,1.871.423,3.449,3.449,0,0,1,1.565,2.331,37.21,37.21,0,0,0,1.376,5.2c.719,1.648,2.19,3.142,3.978,3.166a4.283,4.283,0,0,0,2.99-1.33v-.012c.094-1.625.153-3.248.153-4.9,0-.342,0-.683-.023-1.024" transform="translate(-64.243 -12.99)" fill="#727997"/>
            <path id="Trazado_796309" data-name="Trazado 796309" d="M281.472,170.14c-1.108.218-1.329.869-1.931,1.691-.784,1.068-1.906,2.138-2.62,3.191-1.21,1.788-.12,4.575-1.712,6.079a13.107,13.107,0,0,0-1.034.845,1.876,1.876,0,0,0,.381,2.6,2.549,2.549,0,0,0,2.771.05,4.056,4.056,0,0,0,1.7-2.319,3.914,3.914,0,0,1,.86-1.9c.911-.8,2.326-.205,3.525-.373,5.1-.714,2.909-10.813-1.939-9.858" transform="translate(-81.251 -50.469)" fill="#727997"/>
            <path id="Trazado_796316" data-name="Trazado 796316" d="M150.988,45.911s.584-.43,1.77-1.136a39.862,39.862,0,0,1,5.4-2.677,44.839,44.839,0,0,1,9.18-2.59,49.3,49.3,0,0,1,5.926-.672c1.053-.084,2.139-.117,3.254-.134,1.115-.047,2.259.007,3.431.021a66.118,66.118,0,0,1,15.142,2.246A56.178,56.178,0,0,1,211.128,48.1a47.347,47.347,0,0,1,13.737,13.628,44.548,44.548,0,0,1,7.195,19.451,39.064,39.064,0,0,1-.155,10.037l-.312-.178a29.876,29.876,0,0,1,8.485-4.75,31.508,31.508,0,0,1,9.244-1.756,28.572,28.572,0,0,1,16.85,4.663,30.477,30.477,0,0,1,10.422,11.863,28.424,28.424,0,0,1,2.959,13.376,30.161,30.161,0,0,1-6.937,18.243,28.439,28.439,0,0,1-3.789,3.783l-1.108.84c-.25.187-.384.276-.384.276s.119-.109.361-.305l1.083-.866a29.785,29.785,0,0,0,3.727-3.817,30.63,30.63,0,0,0,4.374-7.227,30.294,30.294,0,0,0,2.413-10.932,28.212,28.212,0,0,0-2.975-13.232,30.2,30.2,0,0,0-10.336-11.712,28.246,28.246,0,0,0-16.647-4.58,31.18,31.18,0,0,0-9.13,1.743,29.517,29.517,0,0,0-8.369,4.691l-.383.307.071-.486a38.753,38.753,0,0,0,.152-9.936,44.237,44.237,0,0,0-7.127-19.285A47.062,47.062,0,0,0,210.933,48.4,56.019,56.019,0,0,0,195.01,41.28,66.154,66.154,0,0,0,179.943,39c-1.167-.018-2.307-.077-3.418-.034-1.111.012-2.193.039-3.242.119a49.73,49.73,0,0,0-5.9.639,45.352,45.352,0,0,0-9.161,2.518,42.064,42.064,0,0,0-5.42,2.6c-.6.334-1.045.617-1.347.8s-.462.269-.462.269" transform="translate(-44.805 -11.479)" fill="#12263f"/>
            <path id="Trazado_796317" data-name="Trazado 796317" d="M266.164,110.295a3.351,3.351,0,0,0-1.085-1.269,2.264,2.264,0,0,0-3.237-.133A3.141,3.141,0,0,0,261.6,112,3.434,3.434,0,0,0,263.694,114a2.377,2.377,0,0,0,2.635-.888,2.72,2.72,0,0,0-.165-2.814" transform="translate(-77.542 -32.132)" fill="#12263f"/>
          </g>
        </g>
        <g id="Grupo_1042451" data-name="Grupo 1042451">
          <g id="Grupo_1042450" data-name="Grupo 1042450" clip-path="url(#clip-path-2)">
            <path id="Trazado_796318" data-name="Trazado 796318" d="M232.8,95.281l-17.846-6.574-17.673,6.485c-2.256,1.093-4.235,1.748-4.235,3.9v10.734a41.353,41.353,0,0,0,5.822,21.363,36.571,36.571,0,0,0,16.26,14.73c7.224-2.407,12.616-8.824,15.913-14.311a41.351,41.351,0,0,0,5.822-21.362V100.6c0-3.074-1.588-4.575-4.061-5.314" transform="translate(-57.285 -26.323)" fill="#f4a338"/>
            <g id="Grupo_1042446" data-name="Grupo 1042446" transform="translate(139.053 66.235)" opacity="0.4">
              <g id="Grupo_1042445" data-name="Grupo 1042445">
                <g id="Grupo_1042444" data-name="Grupo 1042444" clip-path="url(#clip-path-10)">
                  <path id="Trazado_796319" data-name="Trazado 796319" d="M231.5,99.769l-15.163-5.585-15.015,5.51c-1.917.928-3.6,1.485-3.6,3.317v9.119a35.13,35.13,0,0,0,4.947,18.15A31.065,31.065,0,0,0,216.489,142.8c6.137-2.045,10.719-7.5,13.52-12.159a35.135,35.135,0,0,0,4.946-18.15v-8.2a4.28,4.28,0,0,0-3.451-4.516" transform="translate(-197.728 -94.184)"/>
                </g>
              </g>
            </g>
            <path id="Trazado_796320" data-name="Trazado 796320" d="M223.562,107.565a8.782,8.782,0,0,0-16.7,5.426l4.443,13.679,2.513-.816-4.443-13.678a6.139,6.139,0,1,1,11.678-3.793l.973,3.033,2.586-.588Z" transform="translate(-61.256 -30.118)" fill="#e8505b"/>
            <path id="Trazado_796321" data-name="Trazado 796321" d="M223.562,107.565a8.782,8.782,0,0,0-16.7,5.426l4.443,13.679,2.513-.816-4.443-13.678a6.139,6.139,0,1,1,11.678-3.793l.973,3.033,2.586-.588Z" transform="translate(-61.256 -30.118)" fill="#12263f"/>
            <path id="Trazado_796322" data-name="Trazado 796322" d="M223.509,107.527a1.238,1.238,0,0,1,.083.208l.214.622.8,2.414.02.06-.063.014-2.582.605-.068.016-.022-.067q-.37-1.136-.809-2.48a6.868,6.868,0,0,0-1.368-2.634,6.093,6.093,0,0,0-4.566-2.063,6.532,6.532,0,0,0-1.854.3l.021-.225-.021.226a6.012,6.012,0,0,0-4.114,6.255,13.321,13.321,0,0,0,.762,2.836c1.249,3.838,2.578,7.921,3.958,12.159l.046.143-.142.046-.8.258-1.718.558-.142.046-.046-.142-2.625-8.094-1.243-3.84-.6-1.864a9.118,9.118,0,0,1-.364-1.9,8.893,8.893,0,0,1,7.68-9.537,8.73,8.73,0,0,1,5.016.811,8.752,8.752,0,0,1,4.26,4.472c.089.251.16.448.212.6a1.122,1.122,0,0,1,.063.205,9.851,9.851,0,0,0-1.611-2.813A8.665,8.665,0,0,0,218.9,102.4a8.595,8.595,0,0,0-4.918-.753,8.671,8.671,0,0,0-7.437,9.309,16.079,16.079,0,0,0,.958,3.7l1.25,3.838c.85,2.609,1.729,5.315,2.633,8.091l-.188-.1,1.718-.558.795-.258-.1.188L209.675,113.7l-.462-1.428c-.073-.238-.136-.487-.2-.729-.034-.249-.094-.494-.106-.743a6.266,6.266,0,0,1,4.314-6.514l-.022.225.022-.225a6.757,6.757,0,0,1,1.93-.3,6.3,6.3,0,0,1,4.72,2.167,7.036,7.036,0,0,1,1.384,2.713l.783,2.489-.089-.051,2.59-.57-.042.074c-.323-1.046-.574-1.862-.75-2.43l-.187-.632a1.253,1.253,0,0,1-.053-.217" transform="translate(-61.203 -30.081)" fill="#263238"/>
            <path id="Trazado_796323" data-name="Trazado 796323" d="M231.4,135.131l-17.489,5.681a2.641,2.641,0,0,1-3.327-1.7l-3.06-9.419a2.641,2.641,0,0,1,1.7-3.327l17.488-5.681a2.642,2.642,0,0,1,3.328,1.7l3.059,9.419a2.641,2.641,0,0,1-1.7,3.327" transform="translate(-61.543 -35.775)" fill="#12263f"/>
            <path id="Trazado_796324" data-name="Trazado 796324" d="M231.35,135.089a4.258,4.258,0,0,0,.652-.347,2.645,2.645,0,0,0,1.089-1.732,2.782,2.782,0,0,0,.017-.717,3.887,3.887,0,0,0-.2-.77q-.266-.8-.576-1.74c-.411-1.251-.879-2.673-1.4-4.244l-.809-2.468a5.712,5.712,0,0,0-.5-1.261,2.533,2.533,0,0,0-2.393-1.179,8.292,8.292,0,0,0-1.449.408l-3.04.992-13.54,4.408a2.548,2.548,0,0,0-1.379,1.095,2.5,2.5,0,0,0-.331,1.705,6.041,6.041,0,0,0,.246.866l.281.868q.281.864.556,1.714c.736,2.262,1.446,4.445,2.122,6.524a2.536,2.536,0,0,0,2.411,1.582,5.35,5.35,0,0,0,1.452-.359l1.413-.456,5.154-1.659,7.469-2.386,2.034-.638.531-.16a1.145,1.145,0,0,1,.184-.047,1.158,1.158,0,0,1-.176.07l-.524.183-2.02.679-7.445,2.458-5.146,1.686-1.411.462-.722.236a2.989,2.989,0,0,1-.787.138,2.749,2.749,0,0,1-2.618-1.709c-.7-2.089-1.4-4.267-2.14-6.534q-.276-.849-.558-1.714c-.094-.288-.188-.577-.283-.867a6.268,6.268,0,0,1-.255-.9,2.73,2.73,0,0,1,.362-1.866,2.782,2.782,0,0,1,1.508-1.2l13.545-4.39,3.043-.984.735-.237a3.356,3.356,0,0,1,.76-.174,2.727,2.727,0,0,1,2.573,1.28,5.871,5.871,0,0,1,.508,1.305q.415,1.29.8,2.473l1.363,4.254q.3.939.557,1.746a3.961,3.961,0,0,1,.194.794,2.846,2.846,0,0,1-.028.743,2.665,2.665,0,0,1-1.153,1.756,2.132,2.132,0,0,1-.679.307" transform="translate(-61.494 -35.733)" fill="#263238"/>
            <g id="Grupo_1042449" data-name="Grupo 1042449" transform="translate(156.176 91.114)" opacity="0.5">
              <g id="Grupo_1042448" data-name="Grupo 1042448">
                <g id="Grupo_1042447" data-name="Grupo 1042447" clip-path="url(#clip-path-11)">
                  <path id="Trazado_796325" data-name="Trazado 796325" d="M225.937,130.929a1.978,1.978,0,1,0-1.809,2.58l.914,2.813,1.027-.333-.914-2.813a1.972,1.972,0,0,0,.783-2.246" transform="translate(-222.076 -129.561)"/>
                </g>
              </g>
            </g>
            <path id="Trazado_796326" data-name="Trazado 796326" d="M212.688,143.476c-.052.017-.876-2.378-1.841-5.348s-1.705-5.393-1.653-5.41.876,2.378,1.84,5.349,1.705,5.393,1.654,5.409" transform="translate(-62.077 -39.383)" fill="#fafafa"/>
            <path id="Trazado_796327" data-name="Trazado 796327" d="M223.026,134.3a.611.611,0,0,1-.262-.053,2.445,2.445,0,0,1-.646-.337,2.773,2.773,0,0,1-.348-4.261,2.429,2.429,0,0,1,.582-.437c.153-.078.244-.105.249-.095a6.273,6.273,0,0,0-.73.628,2.742,2.742,0,0,0,.331,4.055,6.169,6.169,0,0,0,.823.5" transform="translate(-65.561 -38.313)" fill="#fafafa"/>
          </g>
        </g>
        <rect id="Rectángulo_371564" data-name="Rectángulo 371564" width="24.811" height="35.46" transform="translate(66.507 261.272)" fill="#455a64"/>
        <g id="Grupo_1042453" data-name="Grupo 1042453">
          <g id="Grupo_1042452" data-name="Grupo 1042452" clip-path="url(#clip-path-2)">
            <path id="Trazado_796328" data-name="Trazado 796328" d="M149.352,233.186H14.7a4.2,4.2,0,0,0-4.2,4.2v95.105a4.2,4.2,0,0,0,4.2,4.2H149.353a4.2,4.2,0,0,0,4.2-4.2V237.389a4.2,4.2,0,0,0-4.2-4.2" transform="translate(-3.116 -69.197)" fill="#455a64"/>
            <path id="Trazado_796329" data-name="Trazado 796329" d="M112.886,365.813a2.594,2.594,0,0,1-3.653,3.653.927.927,0,0,1-.225-.226,2.594,2.594,0,0,1,3.653-3.653.913.913,0,0,1,.225.225" transform="translate(-32.176 -108.315)" fill="#263238"/>
            <path id="Trazado_796330" data-name="Trazado 796330" d="M152.215,320.033H13.8V237.371a1.707,1.707,0,0,1,1.707-1.708h135a1.707,1.707,0,0,1,1.708,1.708Z" transform="translate(-4.094 -69.932)" fill="#fff"/>
            <path id="Trazado_796331" data-name="Trazado 796331" d="M137.6,380.36c0,.045-19.161.081-42.791.081s-42.8-.036-42.8-.081,19.157-.081,42.8-.081,42.791.037,42.791.081" transform="translate(-15.434 -112.846)" fill="#263238"/>
            <rect id="Rectángulo_371565" data-name="Rectángulo 371565" width="130.819" height="77.346" transform="translate(13.924 169.996)" fill="#263238"/>
            <path id="Trazado_796332" data-name="Trazado 796332" d="M34.019,317.433c-.068,0-.122-16.473-.122-36.789s.055-36.793.122-36.793.122,16.47.122,36.793-.055,36.789-.122,36.789" transform="translate(-10.059 -72.362)" fill="#e0e0e0"/>
            <path id="Trazado_796333" data-name="Trazado 796333" d="M28.525,253.283a9.291,9.291,0,0,1-2.125.122,9.291,9.291,0,0,1-2.125-.122,9.34,9.34,0,0,1,2.125-.122,9.34,9.34,0,0,1,2.125.122" transform="translate(-7.203 -75.124)" fill="#e0e0e0"/>
            <path id="Trazado_796334" data-name="Trazado 796334" d="M28.758,247.346a9.338,9.338,0,0,1-2.125.122,9.329,9.329,0,0,1-2.125-.122,9.331,9.331,0,0,1,2.125-.122,9.34,9.34,0,0,1,2.125.122" transform="translate(-7.273 -73.363)" fill="#e0e0e0"/>
            <path id="Trazado_796335" data-name="Trazado 796335" d="M28.525,259.682a9.34,9.34,0,0,1-2.125.122,9.341,9.341,0,0,1-2.125-.122,9.339,9.339,0,0,1,2.125-.122,9.339,9.339,0,0,1,2.125.122" transform="translate(-7.203 -77.023)" fill="#e0e0e0"/>
            <path id="Trazado_796336" data-name="Trazado 796336" d="M28.525,266.082a9.312,9.312,0,0,1-2.125.123,9.312,9.312,0,0,1-2.125-.123,9.339,9.339,0,0,1,2.125-.122,9.339,9.339,0,0,1,2.125.122" transform="translate(-7.203 -78.922)" fill="#e0e0e0"/>
            <path id="Trazado_796337" data-name="Trazado 796337" d="M28.525,272.481a9.339,9.339,0,0,1-2.125.122,9.339,9.339,0,0,1-2.125-.122,9.339,9.339,0,0,1,2.125-.122,9.339,9.339,0,0,1,2.125.122" transform="translate(-7.203 -80.821)" fill="#e0e0e0"/>
            <path id="Trazado_796338" data-name="Trazado 796338" d="M28.525,278.881A9.314,9.314,0,0,1,26.4,279a9.314,9.314,0,0,1-2.125-.123,9.337,9.337,0,0,1,2.125-.122,9.337,9.337,0,0,1,2.125.122" transform="translate(-7.203 -82.72)" fill="#e0e0e0"/>
            <path id="Trazado_796339" data-name="Trazado 796339" d="M28.525,285.28a9.292,9.292,0,0,1-2.125.122,9.292,9.292,0,0,1-2.125-.122,9.339,9.339,0,0,1,2.125-.122,9.339,9.339,0,0,1,2.125.122" transform="translate(-7.203 -84.619)" fill="#e0e0e0"/>
            <path id="Trazado_796340" data-name="Trazado 796340" d="M28.525,291.68a9.31,9.31,0,0,1-2.125.123,9.31,9.31,0,0,1-2.125-.123,9.342,9.342,0,0,1,2.125-.122,9.342,9.342,0,0,1,2.125.122" transform="translate(-7.203 -86.519)" fill="#e0e0e0"/>
            <path id="Trazado_796341" data-name="Trazado 796341" d="M28.525,298.079a9.339,9.339,0,0,1-2.125.122,9.339,9.339,0,0,1-2.125-.122,9.314,9.314,0,0,1,2.125-.123,9.314,9.314,0,0,1,2.125.123" transform="translate(-7.203 -88.417)" fill="#e0e0e0"/>
            <path id="Trazado_796342" data-name="Trazado 796342" d="M28.525,304.479a9.315,9.315,0,0,1-2.125.123,9.315,9.315,0,0,1-2.125-.123,9.339,9.339,0,0,1,2.125-.122,9.339,9.339,0,0,1,2.125.122" transform="translate(-7.203 -90.317)" fill="#e0e0e0"/>
            <path id="Trazado_796343" data-name="Trazado 796343" d="M28.525,310.878A9.339,9.339,0,0,1,26.4,311a9.339,9.339,0,0,1-2.125-.122,9.314,9.314,0,0,1,2.125-.123,9.314,9.314,0,0,1,2.125.123" transform="translate(-7.203 -92.215)" fill="#e0e0e0"/>
            <path id="Trazado_796344" data-name="Trazado 796344" d="M28.525,317.277a9.34,9.34,0,0,1-2.125.122,9.341,9.341,0,0,1-2.125-.122,9.337,9.337,0,0,1,2.125-.122,9.337,9.337,0,0,1,2.125.122" transform="translate(-7.203 -94.114)" fill="#e0e0e0"/>
            <path id="Trazado_796345" data-name="Trazado 796345" d="M28.525,323.677a9.315,9.315,0,0,1-2.125.123,9.315,9.315,0,0,1-2.125-.123,9.339,9.339,0,0,1,2.125-.122,9.339,9.339,0,0,1,2.125.122" transform="translate(-7.203 -96.013)" fill="#e0e0e0"/>
            <path id="Trazado_796346" data-name="Trazado 796346" d="M28.525,330.076a9.337,9.337,0,0,1-2.125.122,9.337,9.337,0,0,1-2.125-.122,9.341,9.341,0,0,1,2.125-.122,9.34,9.34,0,0,1,2.125.122" transform="translate(-7.203 -97.912)" fill="#e0e0e0"/>
            <path id="Trazado_796347" data-name="Trazado 796347" d="M28.525,336.476a9.315,9.315,0,0,1-2.125.123,9.315,9.315,0,0,1-2.125-.123,9.339,9.339,0,0,1,2.125-.122,9.339,9.339,0,0,1,2.125.122" transform="translate(-7.203 -99.811)" fill="#e0e0e0"/>
            <path id="Trazado_796348" data-name="Trazado 796348" d="M28.525,342.875A9.339,9.339,0,0,1,26.4,343a9.339,9.339,0,0,1-2.125-.122,9.339,9.339,0,0,1,2.125-.122,9.339,9.339,0,0,1,2.125.122" transform="translate(-7.203 -101.71)" fill="#e0e0e0"/>
            <path id="Trazado_796349" data-name="Trazado 796349" d="M49.887,252.906c0,.068-2.469.122-5.515.122s-5.515-.055-5.515-.122,2.469-.123,5.515-.123,5.515.056,5.515.123" transform="translate(-11.531 -75.012)" fill="#e8505b"/>
            <path id="Trazado_796350" data-name="Trazado 796350" d="M49.887,342.875c0,.068-2.469.122-5.515.122s-5.515-.055-5.515-.122,2.469-.122,5.515-.122,5.515.055,5.515.122" transform="translate(-11.531 -101.71)" fill="#e8505b"/>
            <path id="Trazado_796351" data-name="Trazado 796351" d="M67.675,266.082c0,.068-4.62.123-10.318.123s-10.318-.056-10.318-.123,4.619-.122,10.318-.122,10.318.055,10.318.122" transform="translate(-13.959 -78.922)" fill="#e8505b"/>
            <path id="Trazado_796352" data-name="Trazado 796352" d="M101.606,266.082c0,.068-4.62.123-10.318.123s-10.319-.056-10.319-.123,4.62-.122,10.319-.122,10.318.055,10.318.122" transform="translate(-24.027 -78.922)" fill="#e0e0e0"/>
            <path id="Trazado_796353" data-name="Trazado 796353" d="M84.513,272.481c0,.068-6.809.122-15.206.122s-15.207-.055-15.207-.122,6.808-.122,15.207-.122,15.206.055,15.206.122" transform="translate(-16.054 -80.821)" fill="#e0e0e0"/>
            <path id="Trazado_796354" data-name="Trazado 796354" d="M84.513,278.881c0,.068-6.809.123-15.206.123s-15.207-.056-15.207-.123,6.808-.122,15.207-.122,15.206.055,15.206.122" transform="translate(-16.054 -82.72)" fill="#e0e0e0"/>
            <path id="Trazado_796355" data-name="Trazado 796355" d="M114.281,298.079c0,.068-6.809.122-15.206.122s-15.207-.055-15.207-.122,6.808-.123,15.207-.123,15.206.056,15.206.123" transform="translate(-24.887 -88.417)" fill="#e0e0e0"/>
            <path id="Trazado_796356" data-name="Trazado 796356" d="M101.436,285.28c0,.068-6.809.122-15.206.122s-15.207-.054-15.207-.122,6.808-.122,15.207-.122,15.206.055,15.206.122" transform="translate(-21.076 -84.619)" fill="#e0e0e0"/>
            <path id="Trazado_796357" data-name="Trazado 796357" d="M154.283,285.28c0,.068-6.809.122-15.206.122s-15.207-.054-15.207-.122,6.808-.122,15.207-.122,15.206.055,15.206.122" transform="translate(-36.758 -84.619)" fill="#e0e0e0"/>
            <path id="Trazado_796358" data-name="Trazado 796358" d="M135.9,272.481c0,.068-6.809.122-15.206.122s-15.207-.055-15.207-.122,6.808-.122,15.207-.122,15.206.055,15.206.122" transform="translate(-31.304 -80.821)" fill="#fafafa"/>
            <path id="Trazado_796359" data-name="Trazado 796359" d="M165.777,298.079c0,.068-6.809.122-15.206.122s-15.207-.055-15.207-.122,6.808-.123,15.207-.123,15.206.056,15.206.123" transform="translate(-40.169 -88.417)" fill="#fafafa"/>
            <path id="Trazado_796360" data-name="Trazado 796360" d="M152.717,278.881c0,.068-10.573.123-23.612.123s-23.614-.056-23.614-.123,10.571-.122,23.614-.122,23.612.055,23.612.122" transform="translate(-31.304 -82.72)" fill="#455a64"/>
            <path id="Trazado_796361" data-name="Trazado 796361" d="M49.887,259.682c0,.068-2.469.122-5.515.122s-5.515-.055-5.515-.122,2.469-.122,5.515-.122,5.515.055,5.515.122" transform="translate(-11.531 -77.023)" fill="#fafafa"/>
            <path id="Trazado_796362" data-name="Trazado 796362" d="M49.887,336.476c0,.068-2.469.123-5.515.123s-5.515-.056-5.515-.123,2.469-.122,5.515-.122,5.515.055,5.515.122" transform="translate(-11.531 -99.811)" fill="#fafafa"/>
            <path id="Trazado_796363" data-name="Trazado 796363" d="M57.657,285.28c0,.068-2.469.122-5.515.122s-5.515-.054-5.515-.122,2.469-.122,5.515-.122,5.515.055,5.515.122" transform="translate(-13.836 -84.619)" fill="#fafafa"/>
            <path id="Trazado_796364" data-name="Trazado 796364" d="M183.357,285.28c0,.068-2.469.122-5.515.122s-5.515-.054-5.515-.122,2.468-.122,5.515-.122,5.515.055,5.515.122" transform="translate(-51.137 -84.619)" fill="#e8505b"/>
            <path id="Trazado_796365" data-name="Trazado 796365" d="M67.675,310.84c0,.068-4.62.123-10.318.123s-10.318-.056-10.318-.123,4.619-.122,10.318-.122,10.318.055,10.318.122" transform="translate(-13.959 -92.204)" fill="#e8505b"/>
            <path id="Trazado_796366" data-name="Trazado 796366" d="M101.606,310.84c0,.068-4.62.123-10.318.123s-10.319-.056-10.319-.123,4.62-.122,10.319-.122,10.318.055,10.318.122" transform="translate(-24.027 -92.204)" fill="#e0e0e0"/>
            <path id="Trazado_796367" data-name="Trazado 796367" d="M84.513,317.24c0,.068-6.809.123-15.206.123S54.1,317.308,54.1,317.24s6.808-.123,15.207-.123,15.206.056,15.206.123" transform="translate(-16.054 -94.103)" fill="#e0e0e0"/>
            <path id="Trazado_796368" data-name="Trazado 796368" d="M84.513,323.639c0,.068-6.809.122-15.206.122s-15.207-.055-15.207-.122,6.808-.122,15.207-.122,15.206.055,15.206.122" transform="translate(-16.054 -96.002)" fill="#e0e0e0"/>
            <path id="Trazado_796369" data-name="Trazado 796369" d="M101.436,330.039c0,.068-6.809.122-15.206.122s-15.207-.055-15.207-.122,6.808-.122,15.207-.122,15.206.055,15.206.122" transform="translate(-21.076 -97.901)" fill="#e0e0e0"/>
            <path id="Trazado_796370" data-name="Trazado 796370" d="M154.283,330.039c0,.068-6.809.122-15.206.122s-15.207-.055-15.207-.122,6.808-.122,15.207-.122,15.206.055,15.206.122" transform="translate(-36.758 -97.901)" fill="#e0e0e0"/>
            <path id="Trazado_796371" data-name="Trazado 796371" d="M135.9,317.24c0,.068-6.809.123-15.206.123s-15.207-.056-15.207-.123,6.808-.123,15.207-.123,15.206.056,15.206.123" transform="translate(-31.304 -94.103)" fill="#fafafa"/>
            <path id="Trazado_796372" data-name="Trazado 796372" d="M152.717,323.639c0,.068-10.573.122-23.612.122s-23.614-.055-23.614-.122,10.571-.122,23.614-.122,23.612.055,23.612.122" transform="translate(-31.304 -96.002)" fill="#455a64"/>
            <path id="Trazado_796373" data-name="Trazado 796373" d="M57.657,330.039c0,.068-2.469.122-5.515.122s-5.515-.055-5.515-.122,2.469-.122,5.515-.122,5.515.055,5.515.122" transform="translate(-13.836 -97.901)" fill="#fafafa"/>
            <path id="Trazado_796374" data-name="Trazado 796374" d="M183.357,330.039c0,.068-2.469.122-5.515.122s-5.515-.055-5.515-.122,2.468-.122,5.515-.122,5.515.055,5.515.122" transform="translate(-51.137 -97.901)" fill="#e8505b"/>
            <path id="Trazado_796375" data-name="Trazado 796375" d="M129.683,419.588H68.2a.7.7,0,0,0-.7.7v.251a.7.7,0,0,0,.7.7h61.478a.7.7,0,0,0,.7-.7v-.251a.7.7,0,0,0-.7-.7" transform="translate(-20.031 -124.511)" fill="#455a64"/>
          </g>
        </g>
        <rect id="Rectángulo_371567" data-name="Rectángulo 371567" width="85.102" height="90.219" transform="translate(225.933 206.379)" fill="#263238"/>
        <rect id="Rectángulo_371568" data-name="Rectángulo 371568" width="4.179" height="4.179" transform="translate(311.035 219.562)" fill="#455a64"/>
        <rect id="Rectángulo_371569" data-name="Rectángulo 371569" width="4.179" height="4.179" transform="translate(311.035 232.83)" fill="#455a64"/>
        <rect id="Rectángulo_371570" data-name="Rectángulo 371570" width="4.179" height="4.179" transform="translate(311.035 246.098)" fill="#455a64"/>
        <rect id="Rectángulo_371571" data-name="Rectángulo 371571" width="4.179" height="4.179" transform="translate(311.035 259.365)" fill="#455a64"/>
        <g id="Grupo_1042455" data-name="Grupo 1042455">
          <g id="Grupo_1042454" data-name="Grupo 1042454" clip-path="url(#clip-path-2)">
            <path id="Trazado_796376" data-name="Trazado 796376" d="M448.332,351.415a6.354,6.354,0,0,1,1.286-.281,21.357,21.357,0,0,1,3.58-.34,9.663,9.663,0,0,1,5.172,1.362,5.982,5.982,0,0,1,2.873,5.727,7.189,7.189,0,0,1-1.086,3.272,8.593,8.593,0,0,1-2.2,2.327,11.248,11.248,0,0,1-4.976,1.966,16.331,16.331,0,0,1-3.6.122,5.39,5.39,0,0,1-1.3-.181,8.727,8.727,0,0,1,1.312-.011,19.359,19.359,0,0,0,3.532-.276,11.238,11.238,0,0,0,4.762-1.987,7.323,7.323,0,0,0,3.063-5.27,5.561,5.561,0,0,0-2.625-5.3,9.535,9.535,0,0,0-4.931-1.4,27.1,27.1,0,0,0-3.548.179,7.071,7.071,0,0,1-1.311.09" transform="translate(-132.965 -104.096)" fill="#263238"/>
            <path id="Trazado_796377" data-name="Trazado 796377" d="M446.96,332.417a1.538,1.538,0,0,1,.4-.242,8.422,8.422,0,0,1,1.238-.5,9.79,9.79,0,0,1,4.888-.272,4.429,4.429,0,0,1,1.557.62,2.712,2.712,0,0,1,1.1,1.485,4.29,4.29,0,0,1-.956,3.8,4.225,4.225,0,0,1-1.762,1.3,2.751,2.751,0,0,1-2.3-.124,2.35,2.35,0,0,1-1.324-2,2.4,2.4,0,0,1,1.352-2.068,3.7,3.7,0,0,1,2.434-.255,5.011,5.011,0,0,1,2.123,1.012,5.737,5.737,0,0,1,2.122,3.791,5.356,5.356,0,0,1-1.089,3.778,7.71,7.71,0,0,1-2.616,2.21,12.561,12.561,0,0,1-4.742,1.236c-.576.047-1.025.062-1.328.065a1.6,1.6,0,0,1-.464-.024c0-.039.634-.085,1.772-.233a13.241,13.241,0,0,0,4.6-1.354,7.448,7.448,0,0,0,2.449-2.141,4.957,4.957,0,0,0,.968-3.484,5.3,5.3,0,0,0-1.969-3.462,4.55,4.55,0,0,0-1.92-.91,3.223,3.223,0,0,0-2.106.212,1.923,1.923,0,0,0-1.087,1.627,1.87,1.87,0,0,0,1.06,1.575,2.268,2.268,0,0,0,1.912.107,3.783,3.783,0,0,0,1.572-1.145,3.888,3.888,0,0,0,.912-3.4,2.876,2.876,0,0,0-2.34-1.877,10.07,10.07,0,0,0-4.758.115c-1.1.3-1.671.6-1.69.557" transform="translate(-132.633 -98.286)" fill="#263238"/>
            <path id="Trazado_796378" data-name="Trazado 796378" d="M447.021,314.434a2.41,2.41,0,0,1,.928-.171,6.825,6.825,0,0,1,2.554.358,7.293,7.293,0,0,1,3.179,2.142,7.255,7.255,0,0,1,.272,8.87,7.289,7.289,0,0,1-3.043,2.333,6.815,6.815,0,0,1-2.527.514,2.413,2.413,0,0,1-.936-.114,9.534,9.534,0,0,0,3.324-.722,7.214,7.214,0,0,0,2.814-2.282,6.951,6.951,0,0,0-.255-8.305,7.217,7.217,0,0,0-2.948-2.1,9.542,9.542,0,0,0-3.362-.518" transform="translate(-132.651 -93.253)" fill="#263238"/>
            <path id="Trazado_796379" data-name="Trazado 796379" d="M402.829,381.3s-.008-.139-.012-.4-.007-.654-.013-1.153c-.006-1.026-.015-2.524-.025-4.473-.013-3.916-.033-9.634-.057-16.9-.027-14.522-.065-35.218-.11-59.977l.217.217-76.926.031H325.9l.248-.248c-.013,30.476-.026,58.957-.037,82.9l-.212-.212,55.746.108,15.628.055,4.127.025c.937.008,1.432.024,1.432.024s-.463.015-1.385.024l-4.087.025-15.581.055-55.881.109h-.212V381.3c-.011-23.944-.023-52.424-.036-82.9v-.248h.256l76.926.031h.218v.217c-.045,24.816-.084,45.56-.11,60.116-.025,7.244-.044,12.944-.057,16.85-.011,1.93-.02,3.414-.025,4.43-.006.489-.009.864-.012,1.13s-.013.374-.013.374" transform="translate(-96.635 -88.475)" fill="#455a64"/>
            <path id="Trazado_796380" data-name="Trazado 796380" d="M404.255,312.836a.4.4,0,1,1-.4-.4.4.4,0,0,1,.4.4" transform="translate(-119.725 -92.715)" fill="#455a64"/>
            <path id="Trazado_796381" data-name="Trazado 796381" d="M407.345,312.836a.4.4,0,1,1-.4-.4.4.4,0,0,1,.4.4" transform="translate(-120.643 -92.715)" fill="#455a64"/>
            <path id="Trazado_796382" data-name="Trazado 796382" d="M410.436,312.836a.4.4,0,1,1-.4-.4.4.4,0,0,1,.4.4" transform="translate(-121.56 -92.715)" fill="#455a64"/>
            <path id="Trazado_796383" data-name="Trazado 796383" d="M413.527,312.836a.4.4,0,1,1-.4-.4.4.4,0,0,1,.4.4" transform="translate(-122.477 -92.715)" fill="#455a64"/>
            <path id="Trazado_796384" data-name="Trazado 796384" d="M416.618,312.836a.4.4,0,1,1-.4-.4.4.4,0,0,1,.4.4" transform="translate(-123.394 -92.715)" fill="#455a64"/>
            <path id="Trazado_796385" data-name="Trazado 796385" d="M419.709,312.836a.4.4,0,1,1-.4-.4.4.4,0,0,1,.4.4" transform="translate(-124.312 -92.715)" fill="#455a64"/>
            <path id="Trazado_796386" data-name="Trazado 796386" d="M422.8,312.836a.4.4,0,1,1-.4-.4.4.4,0,0,1,.4.4" transform="translate(-125.229 -92.715)" fill="#455a64"/>
            <path id="Trazado_796387" data-name="Trazado 796387" d="M421.374,314.913a.4.4,0,1,1-.4-.4.4.4,0,0,1,.4.4" transform="translate(-124.806 -93.331)" fill="#455a64"/>
            <path id="Trazado_796388" data-name="Trazado 796388" d="M418.212,314.913a.4.4,0,1,1-.4-.4.4.4,0,0,1,.4.4" transform="translate(-123.868 -93.331)" fill="#455a64"/>
            <path id="Trazado_796389" data-name="Trazado 796389" d="M415.05,314.913a.4.4,0,1,1-.4-.4.4.4,0,0,1,.4.4" transform="translate(-122.929 -93.331)" fill="#455a64"/>
            <path id="Trazado_796390" data-name="Trazado 796390" d="M411.887,314.913a.4.4,0,1,1-.4-.4.4.4,0,0,1,.4.4" transform="translate(-121.991 -93.331)" fill="#455a64"/>
            <path id="Trazado_796391" data-name="Trazado 796391" d="M408.725,314.913a.4.4,0,1,1-.4-.4.4.4,0,0,1,.4.4" transform="translate(-121.053 -93.331)" fill="#455a64"/>
            <path id="Trazado_796392" data-name="Trazado 796392" d="M405.563,314.913a.4.4,0,1,1-.4-.4.4.4,0,0,1,.4.4" transform="translate(-120.114 -93.331)" fill="#455a64"/>
            <path id="Trazado_796393" data-name="Trazado 796393" d="M404.255,317.264a.4.4,0,1,1-.4-.4.4.4,0,0,1,.4.4" transform="translate(-119.725 -94.029)" fill="#455a64"/>
            <path id="Trazado_796394" data-name="Trazado 796394" d="M407.345,317.264a.4.4,0,1,1-.4-.4.4.4,0,0,1,.4.4" transform="translate(-120.643 -94.029)" fill="#455a64"/>
            <path id="Trazado_796395" data-name="Trazado 796395" d="M410.436,317.264a.4.4,0,1,1-.4-.4.4.4,0,0,1,.4.4" transform="translate(-121.56 -94.029)" fill="#455a64"/>
            <path id="Trazado_796396" data-name="Trazado 796396" d="M413.527,317.264a.4.4,0,1,1-.4-.4.4.4,0,0,1,.4.4" transform="translate(-122.477 -94.029)" fill="#455a64"/>
            <path id="Trazado_796397" data-name="Trazado 796397" d="M416.618,317.264a.4.4,0,1,1-.4-.4.4.4,0,0,1,.4.4" transform="translate(-123.394 -94.029)" fill="#455a64"/>
            <path id="Trazado_796398" data-name="Trazado 796398" d="M419.709,317.264a.4.4,0,1,1-.4-.4.4.4,0,0,1,.4.4" transform="translate(-124.312 -94.029)" fill="#455a64"/>
            <path id="Trazado_796399" data-name="Trazado 796399" d="M422.8,317.264a.4.4,0,1,1-.4-.4.4.4,0,0,1,.4.4" transform="translate(-125.229 -94.029)" fill="#455a64"/>
            <path id="Trazado_796400" data-name="Trazado 796400" d="M421.374,319.341a.4.4,0,1,1-.4-.4.4.4,0,0,1,.4.4" transform="translate(-124.806 -94.645)" fill="#455a64"/>
            <path id="Trazado_796401" data-name="Trazado 796401" d="M418.212,319.341a.4.4,0,1,1-.4-.4.4.4,0,0,1,.4.4" transform="translate(-123.868 -94.645)" fill="#455a64"/>
            <path id="Trazado_796402" data-name="Trazado 796402" d="M415.05,319.341a.4.4,0,1,1-.4-.4.4.4,0,0,1,.4.4" transform="translate(-122.929 -94.645)" fill="#455a64"/>
            <path id="Trazado_796403" data-name="Trazado 796403" d="M411.887,319.341a.4.4,0,1,1-.4-.4.4.4,0,0,1,.4.4" transform="translate(-121.991 -94.645)" fill="#455a64"/>
            <path id="Trazado_796404" data-name="Trazado 796404" d="M408.725,319.341a.4.4,0,1,1-.4-.4.4.4,0,0,1,.4.4" transform="translate(-121.053 -94.645)" fill="#455a64"/>
            <path id="Trazado_796405" data-name="Trazado 796405" d="M405.563,319.341a.4.4,0,1,1-.4-.4.4.4,0,0,1,.4.4" transform="translate(-120.114 -94.645)" fill="#455a64"/>
            <path id="Trazado_796406" data-name="Trazado 796406" d="M404.255,321.691a.4.4,0,1,1-.4-.4.4.4,0,0,1,.4.4" transform="translate(-119.725 -95.343)" fill="#455a64"/>
            <path id="Trazado_796407" data-name="Trazado 796407" d="M407.345,321.691a.4.4,0,1,1-.4-.4.4.4,0,0,1,.4.4" transform="translate(-120.643 -95.343)" fill="#455a64"/>
            <path id="Trazado_796408" data-name="Trazado 796408" d="M410.436,321.691a.4.4,0,1,1-.4-.4.4.4,0,0,1,.4.4" transform="translate(-121.56 -95.343)" fill="#455a64"/>
            <path id="Trazado_796409" data-name="Trazado 796409" d="M413.527,321.691a.4.4,0,1,1-.4-.4.4.4,0,0,1,.4.4" transform="translate(-122.477 -95.343)" fill="#455a64"/>
            <path id="Trazado_796410" data-name="Trazado 796410" d="M416.618,321.691a.4.4,0,1,1-.4-.4.4.4,0,0,1,.4.4" transform="translate(-123.394 -95.343)" fill="#455a64"/>
            <path id="Trazado_796411" data-name="Trazado 796411" d="M419.709,321.691a.4.4,0,1,1-.4-.4.4.4,0,0,1,.4.4" transform="translate(-124.312 -95.343)" fill="#455a64"/>
            <path id="Trazado_796412" data-name="Trazado 796412" d="M422.8,321.691a.4.4,0,1,1-.4-.4.4.4,0,0,1,.4.4" transform="translate(-125.229 -95.343)" fill="#455a64"/>
            <path id="Trazado_796413" data-name="Trazado 796413" d="M421.374,323.768a.4.4,0,1,1-.4-.4.4.4,0,0,1,.4.4" transform="translate(-124.806 -95.959)" fill="#455a64"/>
            <path id="Trazado_796414" data-name="Trazado 796414" d="M418.212,323.768a.4.4,0,1,1-.4-.4.4.4,0,0,1,.4.4" transform="translate(-123.868 -95.959)" fill="#455a64"/>
            <path id="Trazado_796415" data-name="Trazado 796415" d="M415.05,323.768a.4.4,0,1,1-.4-.4.4.4,0,0,1,.4.4" transform="translate(-122.929 -95.959)" fill="#455a64"/>
            <path id="Trazado_796416" data-name="Trazado 796416" d="M411.887,323.768a.4.4,0,1,1-.4-.4.4.4,0,0,1,.4.4" transform="translate(-121.991 -95.959)" fill="#455a64"/>
            <path id="Trazado_796417" data-name="Trazado 796417" d="M408.725,323.768a.4.4,0,1,1-.4-.4.4.4,0,0,1,.4.4" transform="translate(-121.053 -95.959)" fill="#455a64"/>
            <path id="Trazado_796418" data-name="Trazado 796418" d="M405.563,323.768a.4.4,0,1,1-.4-.4.4.4,0,0,1,.4.4" transform="translate(-120.114 -95.959)" fill="#455a64"/>
            <rect id="Rectángulo_371572" data-name="Rectángulo 371572" width="24.811" height="35.461" transform="translate(209.529 261.3)" fill="#455a64"/>
            <path id="Trazado_796419" data-name="Trazado 796419" d="M348.686,247.893H226.536a3.813,3.813,0,0,0-3.813,3.813v86.277a3.813,3.813,0,0,0,3.813,3.813h122.15a3.812,3.812,0,0,0,3.812-3.812V251.706a3.813,3.813,0,0,0-3.813-3.813" transform="translate(-66.092 -73.561)" fill="#455a64"/>
            <path id="Trazado_796420" data-name="Trazado 796420" d="M315.6,368.21a2.353,2.353,0,0,1-3.314,3.314.868.868,0,0,1-.2-.2,2.353,2.353,0,0,1,3.314-3.314.829.829,0,0,1,.2.2" transform="translate(-92.455 -109.048)" fill="#263238"/>
            <path id="Trazado_796421" data-name="Trazado 796421" d="M351.283,326.68H225.713V251.849a1.707,1.707,0,0,1,1.708-1.707H349.576a1.707,1.707,0,0,1,1.707,1.707Z" transform="translate(-66.979 -74.228)" fill="#fff"/>
            <path id="Trazado_796422" data-name="Trazado 796422" d="M351.283,256.5H225.713v-4.531a1.829,1.829,0,0,1,1.829-1.828H350.1a1.178,1.178,0,0,1,1.178,1.178Z" transform="translate(-66.979 -74.228)" fill="#ebebeb"/>
            <path id="Trazado_796423" data-name="Trazado 796423" d="M231.909,254.48a.882.882,0,1,1-.882-.882.882.882,0,0,1,.882.882" transform="translate(-68.294 -75.254)" fill="#e0e0e0"/>
            <path id="Trazado_796424" data-name="Trazado 796424" d="M235.648,254.48a.882.882,0,1,1-.882-.882.882.882,0,0,1,.882.882" transform="translate(-69.404 -75.254)" fill="#e0e0e0"/>
            <path id="Trazado_796425" data-name="Trazado 796425" d="M239.2,254.48a.882.882,0,1,1-.882-.882.882.882,0,0,1,.882.882" transform="translate(-70.46 -75.254)" fill="#e0e0e0"/>
            <path id="Trazado_796426" data-name="Trazado 796426" d="M338.022,381.406c0,.041-17.382.073-38.819.073s-38.822-.032-38.822-.073,17.378-.073,38.822-.073,38.819.032,38.819.073" transform="translate(-77.267 -113.159)" fill="#263238"/>
            <path id="Trazado_796427" data-name="Trazado 796427" d="M290.709,306.037h-2.946l-.547,1.354H285.2l3.075-6.967h1.941l3.085,6.967h-2.051Zm-.577-1.453-.9-2.23-.9,2.23Z" transform="translate(-84.633 -89.149)" fill="#263238"/>
            <path id="Trazado_796428" data-name="Trazado 796428" d="M298.225,301.986h-2.14v-1.563h6.241v1.563H300.2v5.4h-1.971Z" transform="translate(-87.862 -89.149)" fill="#263238"/>
            <path id="Trazado_796429" data-name="Trazado 796429" d="M307.351,301.986h-2.14v-1.563h6.241v1.563h-2.13v5.4h-1.971Z" transform="translate(-90.57 -89.149)" fill="#263238"/>
            <path id="Trazado_796430" data-name="Trazado 796430" d="M318.949,306.037H316l-.547,1.354h-2.011l3.075-6.967h1.941l3.084,6.967H319.5Zm-.577-1.453-.9-2.23-.9,2.23Z" transform="translate(-93.013 -89.149)" fill="#263238"/>
            <path id="Trazado_796431" data-name="Trazado 796431" d="M325.1,303.848a3.6,3.6,0,0,1,3.832-3.623,3.686,3.686,0,0,1,3,1.314l-1.255,1.135a2.057,2.057,0,0,0-1.641-.816,1.991,1.991,0,0,0,0,3.981,2.06,2.06,0,0,0,1.641-.816l1.255,1.134a3.685,3.685,0,0,1-3,1.314,3.6,3.6,0,0,1-3.832-3.623" transform="translate(-96.473 -89.09)" fill="#263238"/>
            <path id="Trazado_796432" data-name="Trazado 796432" d="M338.742,304.863l-.736.786v1.741h-1.951v-6.967h1.951v2.9l2.7-2.9h2.17l-2.847,3.086,3,3.881h-2.289Z" transform="translate(-99.723 -89.149)" fill="#263238"/>
            <path id="Trazado_796433" data-name="Trazado 796433" d="M322.879,314.089s.141-.018.416-.038a8.676,8.676,0,0,0,1.211-.133,10.574,10.574,0,0,0,8.524-7.6,10.2,10.2,0,0,0,.368-2.193c.055-.762.023-1.568.029-2.388-.02-1.641.027-3.391-.048-5.2a10.467,10.467,0,0,0-1.849-5.277,11.2,11.2,0,0,0-2.045-2.195,10.939,10.939,0,0,0-2.686-1.57,10.419,10.419,0,0,0-3.134-.719c-.544-.037-1.1-.046-1.665-.038l-1.7,0-7.052.007-31.4.013a10.478,10.478,0,0,0-10.47,10.024c-.048,1.3-.015,2.611-.026,3.9.015,1.284-.04,2.578.051,3.812a10.515,10.515,0,0,0,9.275,9.378c1.117.1,2.253.063,3.361.072l3.274,0,11.942.02,17.291.053,4.7.032,1.223.017c.275.006.416.017.416.017s-.141.011-.416.017l-1.223.017-4.7.032-17.291.053-11.942.02-3.274,0c-1.11-.007-2.231.036-3.393-.065a10.816,10.816,0,0,1-9.56-9.638c-.1-1.289-.041-2.551-.057-3.844.01-1.293-.025-2.584.022-3.911a10.806,10.806,0,0,1,10.8-10.345l31.4.013,7.052.007,1.7,0c.561-.007,1.122,0,1.686.043a10.7,10.7,0,0,1,3.217.747,11.225,11.225,0,0,1,2.75,1.619,11.438,11.438,0,0,1,2.089,2.257,10.694,10.694,0,0,1,1.872,5.409c.07,1.839.013,3.567.025,5.215-.01.824.019,1.617-.042,2.4a10.4,10.4,0,0,1-.387,2.231,10.828,10.828,0,0,1-4.32,5.938,10.7,10.7,0,0,1-4.374,1.675,7.815,7.815,0,0,1-1.219.1c-.276.008-.417,0-.417,0" transform="translate(-80.423 -84.996)" fill="#263238"/>
            <path id="Trazado_796434" data-name="Trazado 796434" d="M352.494,327.133l-2.584-3.921,2.379-1.568-3.827-1.918-3.828-1.918.252,4.274.253,4.274,2.379-1.568,2.584,3.921Z" transform="translate(-102.269 -94.308)" fill="#263238"/>
          </g>
        </g>
        <g id="Grupo_1042460" data-name="Grupo 1042460">
          <g id="Grupo_1042459" data-name="Grupo 1042459" clip-path="url(#clip-path-2)">
            <path id="Trazado_796435" data-name="Trazado 796435" d="M222.911,262.263l-.1.145-7.073-9.953-17.5-6.232c3.062-7.108,11.748-34.717,11.748-34.717s-6.831-21.1-9.443-26.923-15.27-13.059-15.27-13.059a54.458,54.458,0,0,0-18.283,1.608c-10.448,2.612-17.882,21.9-18.685,27.727s-1.808,24.311-1.808,24.311l-6.545,15.592-27.791,13.057a12.325,12.325,0,0,0-6.418,6.45l-2.947,6.876-.01-.037L74.311,333.826s-.544,11.05,6.03,12.3,18.045,2.808,20.843-3.455c.425-.95,8.379-15.307,12.249-22.279l7.1,27.148,83.276.026,2.17-27.4,6.39,14.221a17.187,17.187,0,0,0,8.083,8.371c3.818,1.881,8.433,4.057,9.86,4.317a5.167,5.167,0,0,0,2.145-.307,14.865,14.865,0,0,0,10.434-13.09l.48-5.959Z" transform="translate(-22.048 -50.842)" fill="#d2e1f1"/>
            <path id="Trazado_796436" data-name="Trazado 796436" d="M199.079,327.919a24.773,24.773,0,0,0,.307-7.985c-1.113-5.618-3.847-9.93-9.621-12.012a17.32,17.32,0,0,0-5.109-.987v0c-.07,0-.139,0-.207,0-.433-.015-.866-.027-1.3-.012v.013a16.559,16.559,0,0,0-5.038.944c-5.62,2.033-8.036,6.323-8.733,11.933a25.129,25.129,0,0,0,.9,7.991c.338,1.023.98,2.1.87,2.33-.166.351-1.053.7-.754,3.6.231,2.236,4.118,2.9,5.879,3.094a.989.989,0,0,1,.888.929l.174,4.258a1,1,0,0,0,1,.936h.521a.9.9,0,0,0,.924-.906l-.009-1a.9.9,0,0,1,.924-.906,1,1,0,0,1,1,.937l.056,1.375a1,1,0,0,0,1,.936h.511a.9.9,0,0,0,.923-.935l-.053-1.288a.9.9,0,0,1,.923-.935h.151v0h.008a1,1,0,0,1,.993.944l.042,1.287a1,1,0,0,0,.993.943l.512,0a.9.9,0,0,0,.93-.928l-.045-1.375a.9.9,0,0,1,.93-.928,1,1,0,0,1,.992.914l.065,1a1,1,0,0,0,.992.914l.521,0a.9.9,0,0,0,.931-.928l-.141-4.258a.893.893,0,0,1,.819-.922c1.747-.173,5.586-.809,5.651-3.043.084-2.894-.829-3.252-1.021-3.6-.128-.235.435-1.3.7-2.324" transform="translate(-50.255 -91.075)" fill="#e0e0e0"/>
            <path id="Trazado_796437" data-name="Trazado 796437" d="M199.01,327.861a4.666,4.666,0,0,1-.16.608c-.063.2-.148.44-.252.726l-.162.464a.98.98,0,0,0-.078.511c.1.151.274.3.4.484a2.7,2.7,0,0,1,.333.632,5.412,5.412,0,0,1,.3,1.59c.017.291.019.593.015.905a2,2,0,0,1-.281.949,3.511,3.511,0,0,1-1.671,1.314,10.542,10.542,0,0,1-2.267.671c-.405.08-.824.14-1.253.191a1.307,1.307,0,0,0-.584.141.78.78,0,0,0-.35.453,2.334,2.334,0,0,0-.017.641c.008.229.017.459.025.691q.024.7.051,1.422t.053,1.473a1.389,1.389,0,0,1-.112.8,1.031,1.031,0,0,1-.674.507,4.672,4.672,0,0,1-.811.024,1.143,1.143,0,0,1-.788-.361,1.173,1.173,0,0,1-.3-.815q-.027-.4-.055-.814a.873.873,0,0,0-1-.812.784.784,0,0,0-.575.4.767.767,0,0,0-.085.351l.013.427q.016.434.031.872a1.063,1.063,0,0,1-.338.906,1.22,1.22,0,0,1-.93.271,1.512,1.512,0,0,1-.948-.2,1.122,1.122,0,0,1-.5-.88q-.016-.46-.032-.925c-.007-.148-.006-.327-.02-.449a.837.837,0,0,0-.152-.363.874.874,0,0,0-.7-.351l.148-.149v0l0,.169-.15-.02a.783.783,0,0,0-.922.835q.018.423.036.85l.016.435a1.033,1.033,0,0,1-.122.484,1.067,1.067,0,0,1-.8.548c-.177.019-.306.007-.456.011a1.934,1.934,0,0,1-.471-.032,1.166,1.166,0,0,1-.774-.61,1.133,1.133,0,0,1-.117-.49l-.018-.445q-.019-.445-.039-.893a.819.819,0,0,0-.371-.629.842.842,0,0,0-.733-.1.736.736,0,0,0-.485.534,2,2,0,0,0-.015.423l0,.463a2.729,2.729,0,0,1-.018.5,1.049,1.049,0,0,1-.245.487,1.163,1.163,0,0,1-.969.361c-.164,0-.3.006-.487-.006a1.206,1.206,0,0,1-.513-.179,1.146,1.146,0,0,1-.534-.919l-.039-.955q-.04-.957-.08-1.926l-.04-.972c-.008-.155-.01-.342-.024-.47a.81.81,0,0,0-.157-.369.927.927,0,0,0-.745-.344c-.33-.037-.658-.086-.987-.141a9.14,9.14,0,0,1-3.8-1.379,2.471,2.471,0,0,1-1.077-1.8,7.812,7.812,0,0,1,.035-2.083,2.792,2.792,0,0,1,.44-1.114c.059-.082.122-.161.183-.233a.825.825,0,0,0,.115-.155,1.624,1.624,0,0,0-.139-.448,16.2,16.2,0,0,1-.835-2.1,20.65,20.65,0,0,1-.752-4.39q-.078-1.1-.077-2.188c0-.363.007-.724.024-1.087.044-.373.1-.721.153-1.081a17.724,17.724,0,0,1,1.166-4.087,12.6,12.6,0,0,1,2.212-3.493,12.02,12.02,0,0,1,3.148-2.474,15.748,15.748,0,0,1,3.589-1.416,17.374,17.374,0,0,1,3.665-.513l-.137.152v-.012l-.009-.153h.148l1.516.014h.139l0,.143h0l-.134-.143a15.735,15.735,0,0,1,10.9,4.732,14.365,14.365,0,0,1,2.687,4.26,20.8,20.8,0,0,1,1.212,4.1,26.212,26.212,0,0,1,.03,5.968,11.749,11.749,0,0,1-.409,2.067s.027-.182.1-.529.152-.866.227-1.547a27.351,27.351,0,0,0-.106-5.931A20.862,20.862,0,0,0,198,315.8a14.238,14.238,0,0,0-2.674-4.181,15.524,15.524,0,0,0-10.742-4.606l-.138,0,0-.139h0l.134.144-1.494-.009.138-.153v.013l.009.146-.147.006a17.068,17.068,0,0,0-3.6.515,15.47,15.47,0,0,0-3.514,1.4,11.743,11.743,0,0,0-3.062,2.416,12.307,12.307,0,0,0-2.151,3.409,17.418,17.418,0,0,0-1.138,4.014q-.074.52-.148,1.043c-.016.354-.022.712-.023,1.071q0,1.076.079,2.163a20.323,20.323,0,0,0,.742,4.317,15.92,15.92,0,0,0,.824,2.068,1.485,1.485,0,0,1,.16.631.752.752,0,0,1-.187.315c-.061.072-.116.141-.167.212a2.448,2.448,0,0,0-.384.982,7.5,7.5,0,0,0-.032,1.99,2.133,2.133,0,0,0,.947,1.562,8.859,8.859,0,0,0,3.656,1.318c.323.053.646.1.969.139a1.26,1.26,0,0,1,.97.473,1.129,1.129,0,0,1,.221.523c.02.2.017.335.026.5l.039.972q.039.968.078,1.926l.039.955a.819.819,0,0,0,.383.66.889.889,0,0,0,.371.129c.124.008.3,0,.454,0a.84.84,0,0,0,.729-.252.729.729,0,0,0,.17-.336,2.673,2.673,0,0,0,.013-.43l0-.463a2.23,2.23,0,0,1,.025-.5,1.054,1.054,0,0,1,.693-.766,1.159,1.159,0,0,1,1.01.136,1.137,1.137,0,0,1,.51.875q.018.45.037.9l.018.445a.814.814,0,0,0,.084.366.856.856,0,0,0,.567.448,4.475,4.475,0,0,0,.816.017.758.758,0,0,0,.576-.388.723.723,0,0,0,.087-.342l-.015-.421q-.017-.427-.034-.85a1.051,1.051,0,0,1,.347-.873,1.179,1.179,0,0,1,.875-.27l-.148.149v-.154h.149a1.172,1.172,0,0,1,.931.473,1.132,1.132,0,0,1,.2.494c.02.187.014.32.023.482q.015.465.029.925a.835.835,0,0,0,.371.655,1.233,1.233,0,0,0,.79.155.932.932,0,0,0,.742-.2.778.778,0,0,0,.248-.69q-.013-.439-.027-.872l-.012-.437a1.023,1.023,0,0,1,.89-1.011,1.136,1.136,0,0,1,1.3,1.056q.025.41.051.815a.913.913,0,0,0,.233.66.9.9,0,0,0,.615.285,4.793,4.793,0,0,0,.747-.015.791.791,0,0,0,.519-.385,1.166,1.166,0,0,0,.086-.677q-.022-.749-.045-1.473t-.043-1.422q-.011-.348-.02-.691a2.433,2.433,0,0,1,.03-.707.991.991,0,0,1,.447-.571,1.5,1.5,0,0,1,.667-.164c.424-.048.839-.1,1.24-.18a10.416,10.416,0,0,0,2.232-.641,3.356,3.356,0,0,0,1.608-1.234,2.992,2.992,0,0,0,.264-1.767,5.338,5.338,0,0,0-.269-1.558,2.584,2.584,0,0,0-.311-.611c-.122-.184-.278-.315-.4-.5a.948.948,0,0,1,.081-.582c.061-.165.12-.32.173-.463.107-.281.2-.52.274-.717l.15-.442a.82.82,0,0,1,.053-.15" transform="translate(-50.186 -91.017)" fill="#263238"/>
            <path id="Trazado_796438" data-name="Trazado 796438" d="M184.056,331.161a4.216,4.216,0,0,1-4.311,4.367,4.661,4.661,0,0,1-4.67-4.372,4.215,4.215,0,0,1,4.311-4.366,4.661,4.661,0,0,1,4.67,4.371" transform="translate(-51.952 -96.973)" fill="#d2e1f1"/>
            <path id="Trazado_796439" data-name="Trazado 796439" d="M183.986,331.1c-.037,0-.037-.394-.249-1.056a4.6,4.6,0,0,0-1.712-2.305,4.781,4.781,0,0,0-1.826-.786,4.578,4.578,0,0,0-2.258.152,4.087,4.087,0,0,0-2,1.456,4,4,0,0,0-.769,2.526,4.326,4.326,0,0,0,.938,2.485,4.556,4.556,0,0,0,2.017,1.462,4.407,4.407,0,0,0,4.088-.506,4.112,4.112,0,0,0,1.606-2.357c.162-.676.127-1.072.165-1.072a.921.921,0,0,1,.031.283,3.311,3.311,0,0,1-.068.816,4.13,4.13,0,0,1-1.593,2.519,4.622,4.622,0,0,1-4.333.6,4.828,4.828,0,0,1-2.168-1.548,4.629,4.629,0,0,1-1.016-2.675,4.3,4.3,0,0,1,.84-2.734,4.367,4.367,0,0,1,2.166-1.553,4.812,4.812,0,0,1,2.409-.132,4.939,4.939,0,0,1,1.911.866,4.581,4.581,0,0,1,1.7,2.459,3.339,3.339,0,0,1,.132.809.906.906,0,0,1-.007.285" transform="translate(-51.882 -96.914)" fill="#263238"/>
            <path id="Trazado_796440" data-name="Trazado 796440" d="M204.262,331.173a4.216,4.216,0,0,1-4.311,4.366,4.661,4.661,0,0,1-4.67-4.372,4.216,4.216,0,0,1,4.311-4.367,4.662,4.662,0,0,1,4.67,4.372" transform="translate(-57.948 -96.977)" fill="#d2e1f1"/>
            <path id="Trazado_796441" data-name="Trazado 796441" d="M204.192,331.114c-.037,0-.037-.394-.249-1.056a4.6,4.6,0,0,0-1.712-2.305,4.781,4.781,0,0,0-1.826-.786,4.577,4.577,0,0,0-2.258.152,4.089,4.089,0,0,0-2,1.455,4,4,0,0,0-.769,2.527,4.323,4.323,0,0,0,.938,2.484,4.547,4.547,0,0,0,2.017,1.463,4.407,4.407,0,0,0,4.088-.506,4.112,4.112,0,0,0,1.606-2.357c.162-.676.127-1.072.165-1.072a.922.922,0,0,1,.031.283,3.277,3.277,0,0,1-.068.816,4.129,4.129,0,0,1-1.593,2.519,4.622,4.622,0,0,1-4.333.6,4.828,4.828,0,0,1-2.168-1.548,4.629,4.629,0,0,1-1.016-2.675,4.3,4.3,0,0,1,.84-2.734,4.37,4.37,0,0,1,2.166-1.554,4.82,4.82,0,0,1,2.409-.131,4.949,4.949,0,0,1,1.911.866,4.586,4.586,0,0,1,1.7,2.459,3.4,3.4,0,0,1,.131.808.91.91,0,0,1-.007.286" transform="translate(-57.878 -96.917)" fill="#263238"/>
            <path id="Trazado_796442" data-name="Trazado 796442" d="M190.373,337.554c-.133.032-2.7,2.722-2.544,5.151a1.987,1.987,0,0,0,2.091,1.859.693.693,0,0,0,.716-.591,1.2,1.2,0,0,0,1.945.162c1.968-1.681-2.208-6.581-2.208-6.581" transform="translate(-55.735 -100.168)" fill="#d2e1f1"/>
            <path id="Trazado_796443" data-name="Trazado 796443" d="M190.313,337.554a2.8,2.8,0,0,1,.527.558,15.633,15.633,0,0,1,1.22,1.7,10.411,10.411,0,0,1,.686,1.286,4.879,4.879,0,0,1,.449,1.638,2.037,2.037,0,0,1-.148.948,1.781,1.781,0,0,1-.669.76,1.419,1.419,0,0,1-1.039.253,1.476,1.476,0,0,1-.906-.638l.308-.064a1.118,1.118,0,0,1-.039.164.769.769,0,0,1-.419.466,1.332,1.332,0,0,1-.557.109,1.957,1.957,0,0,1-1.021-.271,2.2,2.2,0,0,1-1.074-1.606,5.375,5.375,0,0,1,.831-3.07,6.419,6.419,0,0,1,1.85-2.234,1.484,1.484,0,0,1-.129.154c-.084.1-.21.247-.363.443a11.812,11.812,0,0,0-1.151,1.752,5.3,5.3,0,0,0-.732,2.915,1.9,1.9,0,0,0,.931,1.363,1.635,1.635,0,0,0,.852.222c.306,0,.594-.1.665-.346a.966.966,0,0,0,.025-.106l.07-.414.238.349a1.162,1.162,0,0,0,.684.487,1.1,1.1,0,0,0,.8-.2,1.47,1.47,0,0,0,.689-1.419,4.7,4.7,0,0,0-.4-1.545,11.015,11.015,0,0,0-.634-1.274c-.435-.758-.841-1.342-1.121-1.745a4.4,4.4,0,0,1-.424-.636" transform="translate(-55.676 -100.167)" fill="#263238"/>
            <path id="Trazado_796444" data-name="Trazado 796444" d="M133.609,395.473c-.09.022-3.572-13.979-7.776-31.267s-7.541-31.328-7.451-31.35,3.57,13.976,7.777,31.271,7.54,31.325,7.45,31.347" transform="translate(-35.129 -98.773)" fill="#263238"/>
            <path id="Trazado_796445" data-name="Trazado 796445" d="M263.059,337.554a.538.538,0,0,1,0,.152c0,.12-.011.266-.018.444q-.038.627-.1,1.7c-.106,1.509-.257,3.641-.442,6.263-.406,5.312-.965,12.6-1.582,20.653-.655,8.052-1.248,15.339-1.679,20.649-.229,2.618-.416,4.747-.547,6.254q-.1,1.074-.166,1.7c-.02.177-.037.322-.051.441a.534.534,0,0,1-.029.15.515.515,0,0,1,0-.153c0-.12.011-.266.018-.444q.038-.627.1-1.7c.106-1.509.257-3.641.442-6.263.406-5.312.965-12.6,1.582-20.655.655-8.049,1.248-15.335,1.679-20.645.229-2.618.415-4.748.547-6.255q.1-1.074.165-1.7c.021-.177.038-.322.052-.441a.529.529,0,0,1,.029-.15" transform="translate(-76.691 -100.168)" fill="#263238"/>
            <path id="Trazado_796446" data-name="Trazado 796446" d="M273.47,304.037c.046.035-.566.839-1.424,2.22a31.791,31.791,0,0,0-4.409,11.808c-.257,1.6-.322,2.613-.379,2.61a2.88,2.88,0,0,1-.015-.712c.008-.458.06-1.119.16-1.932a27.842,27.842,0,0,1,4.445-11.9c.457-.679.852-1.213,1.146-1.564a2.916,2.916,0,0,1,.478-.528" transform="translate(-79.301 -90.221)" fill="#263238"/>
            <path id="Trazado_796447" data-name="Trazado 796447" d="M192.612,257.947a2.1,2.1,0,0,1-.6-.037,15.315,15.315,0,0,1-1.6-.289,22.087,22.087,0,0,1-9.509-4.841,15.322,15.322,0,0,1-1.177-1.127,2.067,2.067,0,0,1-.381-.461c.04-.04.647.553,1.71,1.407a25.632,25.632,0,0,0,9.414,4.794c1.316.357,2.152.5,2.144.555" transform="translate(-53.219 -74.539)" fill="#263238"/>
            <path id="Trazado_796448" data-name="Trazado 796448" d="M246.726,254.746a1.456,1.456,0,0,1,.093-.343l.327-.963,1.254-3.519,4.148-11.605,4.078-11.633,1.241-3.524c.141-.385.257-.7.351-.954a1.445,1.445,0,0,1,.143-.325,1.414,1.414,0,0,1-.079.346c-.077.259-.174.581-.292.974-.283.885-.669,2.09-1.139,3.558-.982,3-2.38,7.128-3.987,11.668s-3.118,8.628-4.242,11.576l-1.353,3.483-.386.94a1.453,1.453,0,0,1-.156.32" transform="translate(-73.214 -65.842)" fill="#263238"/>
            <path id="Trazado_796449" data-name="Trazado 796449" d="M259.362,282.353a1.84,1.84,0,0,1-.387-.11l-1.087-.379-3.993-1.4c-3.377-1.167-8.066-2.714-13.315-4.184s-10.064-2.57-13.577-3.214c-.876-.169-1.672-.309-2.373-.42s-1.3-.221-1.8-.288l-1.137-.177a1.882,1.882,0,0,1-.395-.084,1.848,1.848,0,0,1,.4.018l1.146.115c.5.048,1.1.132,1.808.233s1.5.217,2.386.372a134.214,134.214,0,0,1,13.626,3.125c5.258,1.472,9.943,3.058,13.3,4.283,1.68.613,3.032,1.129,3.959,1.5l1.065.437a1.82,1.82,0,0,1,.364.174" transform="translate(-65.67 -80.741)" fill="#263238"/>
            <path id="Trazado_796450" data-name="Trazado 796450" d="M177.787,368.363l-3.34-2.563a29.4,29.4,0,0,1-.665-3.947c-.289-1.306-1.192-2.672-2.527-2.744a2.621,2.621,0,0,0-2.419,1.815,5.858,5.858,0,0,0-.044,3.2,7.839,7.839,0,0,0-3.937.409,2.7,2.7,0,0,0-1.542,3.271,3.038,3.038,0,0,0,2.713,1.488c1.085.056,2.175-.172,3.255-.056l3.131,2.4Z" transform="translate(-48.413 -106.563)" fill="#e0e0e0"/>
            <path id="Trazado_796451" data-name="Trazado 796451" d="M177.718,368.3a3.072,3.072,0,0,1-.338.23l-1.038.665-3.938,2.477-.068.043-.065-.05-3.145-2.383.071.029a18.754,18.754,0,0,0-2.567.071,4.388,4.388,0,0,1-2.768-.662,2.186,2.186,0,0,1-.885-1.267,2.355,2.355,0,0,1,.19-1.572,3.313,3.313,0,0,1,1.017-1.241,3.939,3.939,0,0,1,1.489-.655,10.672,10.672,0,0,1,3.059-.094l-.174.2a7.616,7.616,0,0,1-.178-2.228,3.53,3.53,0,0,1,.8-2.018,2.556,2.556,0,0,1,1.847-.951,2.391,2.391,0,0,1,1.785.818,4.244,4.244,0,0,1,.9,1.587,8.216,8.216,0,0,1,.3,1.641,11.6,11.6,0,0,0,.454,2.764l-.032-.044,2.455,1.959.628.511a1.547,1.547,0,0,1,.2.172,2.781,2.781,0,0,1-.252-.172l-.677-.491-2.472-1.821-.021-.016-.011-.028a11.448,11.448,0,0,1-.514-2.805,8.158,8.158,0,0,0-.309-1.584,4.005,4.005,0,0,0-.854-1.474,2.1,2.1,0,0,0-1.569-.712,2.254,2.254,0,0,0-1.615.853,3.214,3.214,0,0,0-.719,1.843,7.337,7.337,0,0,0,.179,2.13l.044.213-.217-.014a10.464,10.464,0,0,0-2.962.089,3.6,3.6,0,0,0-1.364.6,2.994,2.994,0,0,0-.918,1.113,2.029,2.029,0,0,0-.172,1.354,1.862,1.862,0,0,0,.755,1.084,4.1,4.1,0,0,0,2.57.617,18.439,18.439,0,0,1,2.607-.048l.04,0,.031.024,3.116,2.422-.133-.007,3.937-2.315,1.095-.634c.254-.146.393-.223.4-.222" transform="translate(-48.345 -106.5)" fill="#263238"/>
            <path id="Trazado_796452" data-name="Trazado 796452" d="M198.544,369.068c1.08-.12,2.171.105,3.255.047a3.038,3.038,0,0,0,2.71-1.5,2.7,2.7,0,0,0-1.551-3.267,7.832,7.832,0,0,0-3.938-.4,5.854,5.854,0,0,0-.053-3.2,2.621,2.621,0,0,0-2.424-1.809c-1.335.075-2.234,1.445-2.52,2.751a29.429,29.429,0,0,1-.653,3.949l-18.524,14.3c-1.08.119-2.171-.105-3.255-.048a3.04,3.04,0,0,0-2.71,1.5,2.7,2.7,0,0,0,1.551,3.267,7.843,7.843,0,0,0,3.938.4,5.854,5.854,0,0,0,.053,3.2,2.621,2.621,0,0,0,2.424,1.809c1.335-.075,2.234-1.444,2.52-2.751a29.411,29.411,0,0,1,.653-3.95Z" transform="translate(-50.066 -106.516)" fill="#e0e0e0"/>
            <path id="Trazado_796453" data-name="Trazado 796453" d="M198.473,369.012s-.109.1-.328.28l-.975.778-3.726,2.923-13.409,10.425.046-.063a16.06,16.06,0,0,0-.529,3.293,4.34,4.34,0,0,1-1.675,3.144,2.182,2.182,0,0,1-1.884.26,2.9,2.9,0,0,1-1.5-1.226,5.3,5.3,0,0,1-.347-3.856l.169.193a9.3,9.3,0,0,1-3.5-.2,3.233,3.233,0,0,1-2.325-2.7,2.122,2.122,0,0,1,.745-1.757,3.517,3.517,0,0,1,1.758-.769c1.285-.2,2.541.127,3.763-.009.02-.008-.155.063-.078.031l0,0,.009-.008.02-.015.039-.03.078-.06.156-.12.312-.241.622-.48,1.238-.955,2.447-1.887,4.758-3.667,8.848-6.812-.049.067a29.548,29.548,0,0,0,.65-3.905,4.636,4.636,0,0,1,.8-1.782,2.621,2.621,0,0,1,1.579-1.061,2.262,2.262,0,0,1,1.78.453,3.126,3.126,0,0,1,1.051,1.419,6.011,6.011,0,0,1,.046,3.255l-.121-.138a9.93,9.93,0,0,1,3.226.143,3.39,3.39,0,0,1,2.245,1.749,2.153,2.153,0,0,1-.217,2.414,3.178,3.178,0,0,1-1.854.959,6.962,6.962,0,0,1-1.666.047l-1.208-.082c-.326-.015-.575-.013-.741-.007a1.87,1.87,0,0,1-.253,0,2.052,2.052,0,0,1,.251-.038,6.636,6.636,0,0,1,.745-.025c.328,0,.733.03,1.211.051a7.018,7.018,0,0,0,1.638-.075,3.06,3.06,0,0,0,1.759-.934,1.986,1.986,0,0,0,.172-2.234,3.2,3.2,0,0,0-2.135-1.631,9.776,9.776,0,0,0-3.157-.113l-.15.011.03-.15a5.8,5.8,0,0,0-.056-3.122,2.872,2.872,0,0,0-.972-1.3,2,2,0,0,0-1.575-.4,2.354,2.354,0,0,0-1.407.963,4.357,4.357,0,0,0-.741,1.675,28.9,28.9,0,0,1-.648,3.949l-.014.04-.035.027-8.831,6.832-4.754,3.673-2.445,1.888-1.237.956-.622.48-.312.24-.156.121-.078.06-.039.03-.02.015-.01.008,0,0c.074-.029-.1.044-.089.037-1.3.138-2.559-.186-3.745.006a3.19,3.19,0,0,0-1.593.689,1.785,1.785,0,0,0-.634,1.487,2.912,2.912,0,0,0,2.1,2.409,9.042,9.042,0,0,0,3.374.195l.212-.015-.043.207a5.005,5.005,0,0,0,.3,3.625,2.6,2.6,0,0,0,1.335,1.1,1.875,1.875,0,0,0,1.623-.223,3.179,3.179,0,0,0,1.085-1.3,5.168,5.168,0,0,0,.466-1.634,16.137,16.137,0,0,1,.556-3.347l.014-.038.032-.025,13.508-10.348,3.764-2.857.992-.741c.225-.165.345-.24.345-.24" transform="translate(-49.996 -106.46)" fill="#263238"/>
            <path id="Trazado_796454" data-name="Trazado 796454" d="M205.607,382.545c-.5-1.243-2.079-1.66-3.409-1.516a29.582,29.582,0,0,1-3.952.634L182.936,371.2l-5.527,3.555,19.238,12.9c.456.986.59,2.091.989,3.1a3.036,3.036,0,0,0,2.279,2.094,2.7,2.7,0,0,0,2.606-2.508,7.826,7.826,0,0,0-.873-3.86,5.867,5.867,0,0,0,3.015-1.065,2.624,2.624,0,0,0,.945-2.873" transform="translate(-52.645 -110.153)" fill="#e0e0e0"/>
            <path id="Trazado_796455" data-name="Trazado 796455" d="M205.479,382.464a1.385,1.385,0,0,1,.138.413,2.34,2.34,0,0,1-.136,1.256,3.11,3.11,0,0,1-1.317,1.548,6.514,6.514,0,0,1-2.633.813l.073-.127a10.919,10.919,0,0,1,.892,2.83,3.884,3.884,0,0,1-.129,1.688,3.218,3.218,0,0,1-1.019,1.5,2.152,2.152,0,0,1-1.869.462,2.836,2.836,0,0,1-1.625-1.224c-.823-1.176-.87-2.689-1.471-3.989l.052.06-14.682-9.817-4.567-3.064-.21-.141.212-.136,5.531-3.549.088-.057.087.059L198.174,381.5l-.053-.018a17.13,17.13,0,0,0,3.318-.519,4.813,4.813,0,0,1,2.516.12,2.566,2.566,0,0,1,1.281.9,1.5,1.5,0,0,1,.243.484c-.016.008-.074-.172-.288-.45a2.585,2.585,0,0,0-1.271-.828,4.759,4.759,0,0,0-2.452-.068,16.753,16.753,0,0,1-3.352.566h-.029l-.026-.018-15.343-10.411.176,0-5.523,3.561,0-.277,4.568,3.061L196.6,387.45l.036.024.015.037c.621,1.383.664,2.871,1.429,3.959a2.581,2.581,0,0,0,1.459,1.124,1.892,1.892,0,0,0,1.651-.4,2.985,2.985,0,0,0,.953-1.382,3.657,3.657,0,0,0,.132-1.589,10.824,10.824,0,0,0-.845-2.784l-.045-.114.12-.013a6.441,6.441,0,0,0,2.582-.752,3.026,3.026,0,0,0,1.3-1.461,2.376,2.376,0,0,0,.179-1.212c-.041-.279-.1-.416-.088-.421" transform="translate(-52.518 -110.073)" fill="#263238"/>
            <path id="Trazado_796456" data-name="Trazado 796456" d="M206.868,338.518a.615.615,0,0,1-.115.12l-.36.325-1.405,1.224c-1.222,1.063-3.02,2.564-5.269,4.386-4.5,3.646-10.855,8.507-18.152,13.488s-14.153,9.12-19.19,11.973c-2.518,1.428-4.573,2.553-6.007,3.3l-1.653.862-.434.216a.084.084,0,1,1-.016-.03l.418-.245,1.622-.916c1.415-.784,3.45-1.94,5.951-3.393,5-2.9,11.823-7.075,19.119-12.045s13.663-9.8,18.193-13.4c2.266-1.8,4.086-3.269,5.333-4.3l1.445-1.175.382-.3a.639.639,0,0,1,.137-.094" transform="translate(-45.737 -100.453)" fill="#263238"/>
            <g id="Grupo_1042458" data-name="Grupo 1042458" transform="translate(108.328 237.516)" opacity="0.3">
              <g id="Grupo_1042457" data-name="Grupo 1042457">
                <g id="Grupo_1042456" data-name="Grupo 1042456" clip-path="url(#clip-path-15)">
                  <path id="Trazado_796457" data-name="Trazado 796457" d="M154.169,373.541c8.071-8.993,18.225-15.813,28.266-22.535l19.06-12.761c.508-.34,1.158-.69,1.693-.394.742.411.465,1.536.049,2.274a15,15,0,0,1-3.26,3.853,81.68,81.68,0,0,1-8.848,6.895c-8.45,5.543-16.32,11.131-24.77,16.675-3.831,2.513-7.805,5.085-12.321,5.861" transform="translate(-154.038 -337.739)"/>
                </g>
              </g>
            </g>
          </g>
        </g>
        <g id="Grupo_1042462" data-name="Grupo 1042462">
          <g id="Grupo_1042461" data-name="Grupo 1042461" clip-path="url(#clip-path-2)">
            <path id="Trazado_796458" data-name="Trazado 796458" d="M317.164,421.869c0,.081-71,.147-158.574.147-87.6,0-158.59-.066-158.59-.147s70.99-.147,158.59-.147c87.569,0,158.574.066,158.574.147" transform="translate(0 -125.144)" fill="#263238"/>
          </g>
        </g>
      </g>
    </g>
  </g>
</svg>
