<svg xmlns="http://www.w3.org/2000/svg" xmlns:xlink="http://www.w3.org/1999/xlink" width="373.059" height="333" viewBox="0 0 373.059 333">
  <defs>
    <clipPath id="clip-path">
      <rect id="Rectángulo_35483" data-name="Rectángulo 35483" width="335" height="333" transform="translate(0.196 -0.345)" fill="#fff" stroke="#707070" stroke-width="1"/>
    </clipPath>
    <clipPath id="clip-path-2">
      <rect id="Rectángulo_371601" data-name="Rectángulo 371601" width="373.059" height="229.311" fill="none"/>
    </clipPath>
    <clipPath id="clip-path-4">
      <rect id="Rectángulo_371579" data-name="Rectángulo 371579" width="1.298" height="1.298" fill="none"/>
    </clipPath>
    <clipPath id="clip-path-7">
      <rect id="Rectángulo_371588" data-name="Rectángulo 371588" width="1.013" height="1.012" fill="none"/>
    </clipPath>
    <clipPath id="clip-path-8">
      <rect id="Rectángulo_371589" data-name="Rectángulo 371589" width="1.012" height="1.012" fill="none"/>
    </clipPath>
    <clipPath id="clip-path-14">
      <rect id="Rectángulo_371598" data-name="Rectángulo 371598" width="22.971" height="26.331" fill="none"/>
    </clipPath>
    <clipPath id="clip-path-15">
      <rect id="Rectángulo_371599" data-name="Rectángulo 371599" width="2.254" height="13.906" fill="none"/>
    </clipPath>
  </defs>
  <g id="Grupo_1043419" data-name="Grupo 1043419" transform="translate(1425 -149.528)">
    <g id="Grupo_1043415" data-name="Grupo 1043415" transform="translate(-1395.321 149.873)">
      <g id="Grupo_137455" data-name="Grupo 137455" transform="translate(0 0)">
        <g id="Enmascarar_grupo_72" data-name="Enmascarar grupo 72" clip-path="url(#clip-path)">
          <g id="Grupo_133717" data-name="Grupo 133717" transform="translate(-0.154 5.551)">
            <g id="Grupo_133713" data-name="Grupo 133713" transform="translate(0 323.945) rotate(-90)">
              <path id="Sustracción_24" data-name="Sustracción 24" d="M0,0V329.692a166.059,166.059,0,0,0,33.222-3.349,164.012,164.012,0,0,0,30.943-9.605,164.856,164.856,0,0,0,28-15.2,166.028,166.028,0,0,0,24.4-20.129,166.03,166.03,0,0,0,20.129-24.4,164.861,164.861,0,0,0,15.2-28,164.013,164.013,0,0,0,9.605-30.943,166.063,166.063,0,0,0,3.349-33.222,166.064,166.064,0,0,0-3.349-33.222,164.013,164.013,0,0,0-9.605-30.943,164.86,164.86,0,0,0-15.2-28,166.03,166.03,0,0,0-20.129-24.4,166.031,166.031,0,0,0-24.4-20.129,164.864,164.864,0,0,0-28-15.2A164.017,164.017,0,0,0,33.222,3.349,166.067,166.067,0,0,0,0,0Z" transform="translate(164.846 329.692) rotate(180)" fill="#5573c6"/>
              <path id="Sustracción_25" data-name="Sustracción 25" d="M0,0V329.691a166.064,166.064,0,0,0,33.222-3.349,164.014,164.014,0,0,0,30.943-9.605,164.86,164.86,0,0,0,28-15.2,166.03,166.03,0,0,0,24.4-20.129,166.03,166.03,0,0,0,20.129-24.4,164.86,164.86,0,0,0,15.2-28,164.013,164.013,0,0,0,9.605-30.943,166.063,166.063,0,0,0,3.349-33.222,166.062,166.062,0,0,0-3.349-33.222,164.012,164.012,0,0,0-9.605-30.943,164.855,164.855,0,0,0-15.2-28,166.028,166.028,0,0,0-20.129-24.4,166.026,166.026,0,0,0-24.4-20.129,164.862,164.862,0,0,0-28-15.2A164.015,164.015,0,0,0,33.222,3.349,166.063,166.063,0,0,0,0,0Z" transform="translate(159.099 0.001)" fill="#e8e8e8"/>
            </g>
            <path id="Trazado_151972" data-name="Trazado 151972" d="M146.955,0C65.794,0,0,66.06,0,147.549S65.794,295.1,146.955,295.1s146.955-66.06,146.955-147.549S228.115,0,146.955,0Z" transform="translate(17.859 14.356)" fill="#12263f"/>
            <g id="Grupo_133716" data-name="Grupo 133716" transform="matrix(-0.966, -0.259, 0.259, -0.966, 84.565, 304.661)" style="isolation: isolate">
              <g id="Grupo_133714" data-name="Grupo 133714" transform="translate(0 24.225)">
                <path id="Trazado_150984" data-name="Trazado 150984" d="M.1,0C.033.835,0,1.687,0,2.531A31.844,31.844,0,0,0,12.044,27.54l.232-.29A31.473,31.473,0,0,1,.371,2.531C.371,1.7.4.855.469.029Z" transform="translate(0 0)" fill="#4adbd1"/>
              </g>
              <g id="Grupo_133715" data-name="Grupo 133715" transform="translate(15.626 53.926)">
                <path id="Trazado_150985" data-name="Trazado 150985" d="M.19,0,0,.319A31.76,31.76,0,0,0,9.361,4.044l.081-.362A31.376,31.376,0,0,1,.19,0Z" transform="translate(0 0)" fill="#4adbd1"/>
              </g>
              <path id="Trazado_150986" data-name="Trazado 150986" d="M26.757,53.513A26.757,26.757,0,1,1,53.513,26.756,26.757,26.757,0,0,1,26.757,53.513Zm0-45.676a18.92,18.92,0,1,0,18.92,18.92A18.92,18.92,0,0,0,26.757,7.837Z" transform="translate(5.225 0)" fill="#4adbd1" style="mix-blend-mode: multiply;isolation: isolate"/>
            </g>
            <path id="Trazado_150987" data-name="Trazado 150987" d="M7.542,15.084a7.542,7.542,0,1,1,7.542-7.542A7.542,7.542,0,0,1,7.542,15.084Zm0-12.875a5.333,5.333,0,1,0,5.333,5.333A5.333,5.333,0,0,0,7.542,2.209Z" transform="matrix(-0.966, -0.259, 0.259, -0.966, 274.753, 33.346)" fill="#0f0140" style="mix-blend-mode: multiply;isolation: isolate"/>
            <ellipse id="Elipse_5034" data-name="Elipse 5034" cx="7.5" cy="7" rx="7.5" ry="7" transform="translate(21.35 243.106)" fill="#dad6f7"/>
            <circle id="Elipse_5035" data-name="Elipse 5035" cx="19.5" cy="19.5" r="19.5" transform="translate(261.35 34.106)" fill="#5573c6"/>
          </g>
        </g>
      </g>
    </g>
    <g id="Grupo_1043417" data-name="Grupo 1043417" transform="translate(-1425 214.103)">
      <g id="Grupo_1042499" data-name="Grupo 1042499" clip-path="url(#clip-path-2)">
        <rect id="Rectángulo_371578" data-name="Rectángulo 371578" width="80.969" height="54.214" transform="translate(0.145 26.454)" fill="#fff"/>
        <g id="Grupo_1042484" data-name="Grupo 1042484">
          <g id="Grupo_1042483" data-name="Grupo 1042483" clip-path="url(#clip-path-2)">
            <path id="Trazado_796459" data-name="Trazado 796459" d="M81.114,103.846s-.009-.339-.013-.986-.007-1.609-.013-2.86c-.007-2.509-.017-6.19-.03-10.9-.014-9.419-.035-22.958-.061-39.464l.116.116L.152,49.777H.145l.145-.145c0,19.314-.009,37.68-.012,54.214l-.133-.133,58.333.065,16.666.036,4.433.016,1.145.007c.258,0,.393.008.393.008s-.124.005-.377.008l-1.13.008-4.406.016-16.635.036-58.42.065H.012v-.133C.009,87.312,0,68.946,0,49.632v-.145H.152l80.963.029h.116v.116c-.026,16.536-.046,30.1-.061,39.536-.013,4.7-.023,8.374-.03,10.878-.006,1.241-.01,2.192-.013,2.838s-.013.962-.013.962" transform="translate(0 -23.177)" fill="#e0e0e0"/>
            <path id="Trazado_796460" data-name="Trazado 796460" d="M.273,58.732c0-.08,18.112-.145,40.449-.145s40.453.065,40.453.145-18.108.145-40.453.145S.273,58.812.273,58.732" transform="translate(-0.128 -27.439)" fill="#e0e0e0"/>
            <g id="Grupo_1042467" data-name="Grupo 1042467" transform="translate(2.042 28.203)" opacity="0.3">
              <g id="Grupo_1042466" data-name="Grupo 1042466">
                <g id="Grupo_1042465" data-name="Grupo 1042465" clip-path="url(#clip-path-4)">
                  <path id="Trazado_796461" data-name="Trazado 796461" d="M5.138,53.7a.649.649,0,1,1-.649-.649.649.649,0,0,1,.649.649" transform="translate(-3.84 -53.048)" fill="#e0e0e0"/>
                </g>
              </g>
            </g>
            <g id="Grupo_1042470" data-name="Grupo 1042470" transform="translate(4.265 28.203)" opacity="0.3">
              <g id="Grupo_1042469" data-name="Grupo 1042469">
                <g id="Grupo_1042468" data-name="Grupo 1042468" clip-path="url(#clip-path-4)">
                  <path id="Trazado_796462" data-name="Trazado 796462" d="M9.321,53.7a.649.649,0,1,1-.649-.649.649.649,0,0,1,.649.649" transform="translate(-8.023 -53.048)" fill="#e0e0e0"/>
                </g>
              </g>
            </g>
            <g id="Grupo_1042473" data-name="Grupo 1042473" transform="translate(6.457 28.203)" opacity="0.3">
              <g id="Grupo_1042472" data-name="Grupo 1042472">
                <g id="Grupo_1042471" data-name="Grupo 1042471" clip-path="url(#clip-path-4)">
                  <path id="Trazado_796463" data-name="Trazado 796463" d="M13.444,53.7a.649.649,0,1,1-.649-.649.649.649,0,0,1,.649.649" transform="translate(-12.146 -53.048)" fill="#e0e0e0"/>
                </g>
              </g>
            </g>
            <rect id="Rectángulo_371582" data-name="Rectángulo 371582" width="21.598" height="21.598" transform="translate(7.106 36.947)" fill="#e0e0e0"/>
            <path id="Trazado_796464" data-name="Trazado 796464" d="M98.539,80.848c0,.08-8.423.145-18.813.145s-18.814-.065-18.814-.145,8.422-.145,18.814-.145,18.813.065,18.813.145" transform="translate(-28.528 -37.797)" fill="#e0e0e0"/>
            <path id="Trazado_796465" data-name="Trazado 796465" d="M98.539,88.4c0,.08-8.423.145-18.813.145s-18.814-.065-18.814-.145,8.422-.145,18.814-.145,18.813.065,18.813.145" transform="translate(-28.528 -41.333)" fill="#e0e0e0"/>
            <path id="Trazado_796466" data-name="Trazado 796466" d="M98.539,95.947c0,.08-8.423.145-18.813.145s-18.814-.065-18.814-.145,8.422-.145,18.814-.145,18.813.065,18.813.145" transform="translate(-28.528 -44.869)" fill="#e0e0e0"/>
            <path id="Trazado_796467" data-name="Trazado 796467" d="M83.15,103.5a5,5,0,0,1-.874.056l-2.383.046c-2.012.027-4.792.043-7.862.043s-5.851-.016-7.863-.043l-2.383-.046a5,5,0,0,1-.874-.056,5.062,5.062,0,0,1,.874-.056l2.383-.046c2.012-.026,4.792-.043,7.863-.043s5.85.016,7.862.043l2.383.046a5.066,5.066,0,0,1,.874.056" transform="translate(-28.528 -48.404)" fill="#e0e0e0"/>
            <rect id="Rectángulo_371583" data-name="Rectángulo 371583" width="10.15" height="10.15" transform="translate(8.458 65.826)" fill="#e0e0e0"/>
            <rect id="Rectángulo_371584" data-name="Rectángulo 371584" width="10.15" height="10.15" transform="translate(26.865 65.826)" fill="#e0e0e0"/>
            <rect id="Rectángulo_371585" data-name="Rectángulo 371585" width="10.15" height="10.15" transform="translate(45.273 65.826)" fill="#e0e0e0"/>
            <rect id="Rectángulo_371586" data-name="Rectángulo 371586" width="10.15" height="10.15" transform="translate(63.681 65.826)" fill="#e0e0e0"/>
            <rect id="Rectángulo_371587" data-name="Rectángulo 371587" width="69.747" height="28.33" transform="translate(93.062 0.111)" fill="#fff"/>
            <path id="Trazado_796468" data-name="Trazado 796468" d="M244.693,28.441s-.005-.174-.008-.506,0-.827-.008-1.469c0-1.293-.011-3.192-.019-5.638-.01-4.89-.024-11.963-.042-20.716l.078.078L174.951.221h0l.111-.111c0,9.921,0,19.5,0,28.33l-.106-.106,50.007.05,14.507.029,3.883.013,1,.007c.227,0,.346.006.346.006s-.11,0-.332.006l-.993.007-3.861.013-14.482.029-50.079.05h-.106v-.106c0-8.833,0-18.409,0-28.33V0h.115l69.742.033h.078V.111c-.018,8.773-.032,15.862-.043,20.763-.008,2.439-.014,4.332-.019,5.621,0,.637-.006,1.124-.009,1.456s-.008.49-.008.49" transform="translate(-81.884)" fill="#e0e0e0"/>
            <path id="Trazado_796469" data-name="Trazado 796469" d="M175.174,7.3c0-.061,15.59-.111,34.816-.111s34.82.049,34.82.111-15.586.111-34.82.111-34.816-.049-34.816-.111" transform="translate(-82.042 -3.366)" fill="#e0e0e0"/>
            <g id="Grupo_1042476" data-name="Grupo 1042476" transform="translate(95.039 1.716)" opacity="0.3">
              <g id="Grupo_1042475" data-name="Grupo 1042475">
                <g id="Grupo_1042474" data-name="Grupo 1042474" clip-path="url(#clip-path-7)">
                  <path id="Trazado_796470" data-name="Trazado 796470" d="M179.775,3.734a.506.506,0,1,1-.506-.506.506.506,0,0,1,.506.506" transform="translate(-178.762 -3.228)" fill="#ebebeb"/>
                </g>
              </g>
            </g>
            <g id="Grupo_1042479" data-name="Grupo 1042479" transform="translate(96.774 1.716)" opacity="0.3">
              <g id="Grupo_1042478" data-name="Grupo 1042478">
                <g id="Grupo_1042477" data-name="Grupo 1042477" clip-path="url(#clip-path-8)">
                  <path id="Trazado_796471" data-name="Trazado 796471" d="M183.037,3.734a.506.506,0,1,1-.506-.506.506.506,0,0,1,.506.506" transform="translate(-182.025 -3.228)" fill="#ebebeb"/>
                </g>
              </g>
            </g>
            <g id="Grupo_1042482" data-name="Grupo 1042482" transform="translate(98.483 1.716)" opacity="0.3">
              <g id="Grupo_1042481" data-name="Grupo 1042481">
                <g id="Grupo_1042480" data-name="Grupo 1042480" clip-path="url(#clip-path-7)">
                  <path id="Trazado_796472" data-name="Trazado 796472" d="M186.253,3.734a.506.506,0,1,1-.506-.506.506.506,0,0,1,.506.506" transform="translate(-185.24 -3.228)" fill="#ebebeb"/>
                </g>
              </g>
            </g>
            <rect id="Rectángulo_371591" data-name="Rectángulo 371591" width="16.846" height="16.846" transform="translate(98.99 8.536)" fill="#e0e0e0"/>
            <path id="Trazado_796473" data-name="Trazado 796473" d="M263.044,24.45c0,.061-8.669.111-19.361.111s-19.362-.049-19.362-.111,8.667-.111,19.362-.111,19.361.049,19.361.111" transform="translate(-105.06 -11.399)" fill="#e0e0e0"/>
            <path id="Trazado_796474" data-name="Trazado 796474" d="M263.044,30.9c0,.061-8.669.111-19.361.111s-19.362-.049-19.362-.111,8.667-.111,19.362-.111,19.361.049,19.361.111" transform="translate(-105.06 -14.422)" fill="#e0e0e0"/>
            <path id="Trazado_796475" data-name="Trazado 796475" d="M249.248,37.36a1.129,1.129,0,0,1-.253.022l-.726.021-2.672.035-8.812.032-8.814-.032L225.3,37.4l-.726-.021a1.129,1.129,0,0,1-.253-.022,1.129,1.129,0,0,1,.253-.022l.726-.021,2.671-.035,8.814-.032,8.812.032,2.672.035.726.021a1.13,1.13,0,0,1,.253.022" transform="translate(-105.06 -17.445)" fill="#e0e0e0"/>
            <path id="Trazado_796476" data-name="Trazado 796476" d="M660.2,62.171a2.583,2.583,0,0,1,.4-.449l1.146-1.152c.976-.964,2.337-2.282,3.851-3.726l.034-.033,0,.195c-1.526-1.417-2.9-2.709-3.877-3.654l-1.153-1.128a2.55,2.55,0,0,1-.4-.441,2.552,2.552,0,0,1,.468.365l1.211,1.066c1.014.909,2.4,2.179,3.93,3.6l.1.1-.1.1-.035.033c-1.514,1.444-2.9,2.741-3.9,3.67l-1.2,1.09a2.576,2.576,0,0,1-.467.373" transform="translate(-309.201 -24.252)" fill="#e0e0e0"/>
            <path id="Trazado_796477" data-name="Trazado 796477" d="M633.015,51.782a2.576,2.576,0,0,1-.4.449l-1.146,1.152c-.976.964-2.337,2.282-3.851,3.726l-.034.033,0-.195c1.526,1.417,2.9,2.709,3.877,3.654l1.153,1.129a2.533,2.533,0,0,1,.4.44,2.561,2.561,0,0,1-.468-.364l-1.21-1.066c-1.015-.909-2.4-2.179-3.93-3.6l-.1-.1.1-.1.035-.033c1.515-1.444,2.9-2.741,3.9-3.67l1.2-1.09a2.576,2.576,0,0,1,.467-.373" transform="translate(-293.796 -24.252)" fill="#e0e0e0"/>
            <path id="Trazado_796478" data-name="Trazado 796478" d="M643.731,62.336c-.069-.026,1.167-3.5,2.76-7.759s2.941-7.692,3.01-7.666-1.167,3.5-2.76,7.761-2.941,7.691-3.01,7.665" transform="translate(-301.489 -21.97)" fill="#e0e0e0"/>
            <path id="Trazado_796479" data-name="Trazado 796479" d="M651.506,62.3s-.008-.2-.012-.581-.007-.945-.013-1.672c-.006-1.467-.016-3.606-.029-6.33-.014-5.45-.034-13.239-.057-22.629l.111.111-38.3.022h0l.133-.133c-.005,11.283-.01,21.938-.014,31.211l-.119-.119,27.66.06,7.84.031,2.081.014.538.007c.122,0,.187.007.187.007s-.055,0-.173.007l-.525.007-2.057.014-7.814.032-27.736.06h-.119V62.3c0-9.273-.009-19.928-.014-31.211V30.95h.136l38.3.022h.111v.112c-.024,9.419-.043,17.232-.057,22.7-.013,2.714-.022,4.843-.029,6.305q-.008,1.076-.012,1.65c0,.372-.013.557-.013.557" transform="translate(-287.129 -14.495)" fill="#e0e0e0"/>
            <path id="Trazado_796480" data-name="Trazado 796480" d="M651.908,39.8c0,.074-8.647.133-19.31.133s-19.312-.06-19.312-.133,8.645-.133,19.312-.133,19.31.06,19.31.133" transform="translate(-287.231 -18.576)" fill="#e0e0e0"/>
            <path id="Trazado_796481" data-name="Trazado 796481" d="M618.289,35.172a.516.516,0,1,1-.516-.518.517.517,0,0,1,.516.518" transform="translate(-289.092 -16.23)" fill="#e0e0e0"/>
            <path id="Trazado_796482" data-name="Trazado 796482" d="M621.826,35.172a.516.516,0,1,1-.516-.518.517.517,0,0,1,.516.518" transform="translate(-290.748 -16.23)" fill="#e0e0e0"/>
            <path id="Trazado_796483" data-name="Trazado 796483" d="M625.361,35.172a.516.516,0,1,1-.516-.518.517.517,0,0,1,.516.518" transform="translate(-292.404 -16.23)" fill="#e0e0e0"/>
          </g>
        </g>
        <g id="Grupo_1042486" data-name="Grupo 1042486">
          <g id="Grupo_1042485" data-name="Grupo 1042485" clip-path="url(#clip-path-2)">
            <path id="Trazado_796484" data-name="Trazado 796484" d="M349.142,258.969H85.314a7.745,7.745,0,0,1-7.745-7.745V78.38a4.121,4.121,0,0,1,4.121-4.121H353.3a3.583,3.583,0,0,1,3.583,3.583V251.225a7.745,7.745,0,0,1-7.745,7.745" transform="translate(-36.329 -34.779)" fill="#455a64"/>
            <path id="Trazado_796485" data-name="Trazado 796485" d="M350.924,412.153H62.894a7.3,7.3,0,0,1-7.295-7.295v-8.867h302.62v8.866a7.3,7.3,0,0,1-7.3,7.3" transform="translate(-26.04 -185.462)" fill="#455a64"/>
            <rect id="Rectángulo_371593" data-name="Rectángulo 371593" width="263.541" height="155.985" transform="translate(48.737 46.819)" fill="#e0e0e0"/>
            <path id="Trazado_796486" data-name="Trazado 796486" d="M288.467,395.991l3.755,5.973h52.841l3.488-5.973Z" transform="translate(-135.103 -185.462)" fill="#263238"/>
            <rect id="Rectángulo_371594" data-name="Rectángulo 371594" width="248.539" height="146.947" transform="translate(56.557 55.856)" fill="#263238"/>
            <path id="Trazado_796487" data-name="Trazado 796487" d="M142.04,250.2c-.129,0-.233-31.3-.233-69.9s.1-69.9.233-69.9.233,31.29.233,69.9-.1,69.9-.233,69.9" transform="translate(-66.415 -51.706)" fill="#e0e0e0"/>
            <path id="Trazado_796488" data-name="Trazado 796488" d="M125.7,134.029a17.678,17.678,0,0,1-4.037.233,17.678,17.678,0,0,1-4.037-.233,17.7,17.7,0,0,1,4.037-.233,17.7,17.7,0,0,1,4.037.233" transform="translate(-55.091 -62.663)" fill="#e0e0e0"/>
            <path id="Trazado_796489" data-name="Trazado 796489" d="M126.288,119.109a17.68,17.68,0,0,1-4.037.233,17.68,17.68,0,0,1-4.037-.233,17.7,17.7,0,0,1,4.037-.233,17.7,17.7,0,0,1,4.037.233" transform="translate(-55.365 -55.675)" fill="#e0e0e0"/>
            <path id="Trazado_796490" data-name="Trazado 796490" d="M125.7,150.111a17.679,17.679,0,0,1-4.037.233,17.679,17.679,0,0,1-4.037-.233,17.68,17.68,0,0,1,4.037-.233,17.68,17.68,0,0,1,4.037.233" transform="translate(-55.091 -70.195)" fill="#e0e0e0"/>
            <path id="Trazado_796491" data-name="Trazado 796491" d="M125.7,166.194a17.682,17.682,0,0,1-4.037.233,17.682,17.682,0,0,1-4.037-.233,17.7,17.7,0,0,1,4.037-.233,17.7,17.7,0,0,1,4.037.233" transform="translate(-55.091 -77.728)" fill="#e0e0e0"/>
            <path id="Trazado_796492" data-name="Trazado 796492" d="M125.7,182.275a17.68,17.68,0,0,1-4.037.233,17.68,17.68,0,0,1-4.037-.233,17.68,17.68,0,0,1,4.037-.233,17.681,17.681,0,0,1,4.037.233" transform="translate(-55.091 -85.259)" fill="#e0e0e0"/>
            <path id="Trazado_796493" data-name="Trazado 796493" d="M125.7,198.359a17.68,17.68,0,0,1-4.037.233,17.68,17.68,0,0,1-4.037-.233,17.7,17.7,0,0,1,4.037-.233,17.7,17.7,0,0,1,4.037.233" transform="translate(-55.091 -92.792)" fill="#e0e0e0"/>
            <path id="Trazado_796494" data-name="Trazado 796494" d="M125.7,214.441a17.68,17.68,0,0,1-4.037.233,17.68,17.68,0,0,1-4.037-.233,17.7,17.7,0,0,1,4.037-.233,17.7,17.7,0,0,1,4.037.233" transform="translate(-55.091 -100.324)" fill="#e0e0e0"/>
            <path id="Trazado_796495" data-name="Trazado 796495" d="M125.7,230.523a17.68,17.68,0,0,1-4.037.233,17.68,17.68,0,0,1-4.037-.233,17.681,17.681,0,0,1,4.037-.233,17.681,17.681,0,0,1,4.037.233" transform="translate(-55.091 -107.856)" fill="#e0e0e0"/>
            <path id="Trazado_796496" data-name="Trazado 796496" d="M125.7,246.606a17.68,17.68,0,0,1-4.037.233,17.68,17.68,0,0,1-4.037-.233,17.7,17.7,0,0,1,4.037-.233,17.7,17.7,0,0,1,4.037.233" transform="translate(-55.091 -115.388)" fill="#e0e0e0"/>
            <path id="Trazado_796497" data-name="Trazado 796497" d="M125.7,262.688a17.679,17.679,0,0,1-4.037.233,17.679,17.679,0,0,1-4.037-.233,17.682,17.682,0,0,1,4.037-.233,17.682,17.682,0,0,1,4.037.233" transform="translate(-55.091 -122.92)" fill="#e0e0e0"/>
            <path id="Trazado_796498" data-name="Trazado 796498" d="M125.7,278.77a17.7,17.7,0,0,1-4.037.233,17.7,17.7,0,0,1-4.037-.233,17.677,17.677,0,0,1,4.037-.233,17.677,17.677,0,0,1,4.037.233" transform="translate(-55.091 -130.452)" fill="#e0e0e0"/>
            <path id="Trazado_796499" data-name="Trazado 796499" d="M125.7,294.853a17.7,17.7,0,0,1-4.037.233,17.7,17.7,0,0,1-4.037-.233,17.7,17.7,0,0,1,4.037-.233,17.7,17.7,0,0,1,4.037.233" transform="translate(-55.091 -137.985)" fill="#e0e0e0"/>
            <path id="Trazado_796500" data-name="Trazado 796500" d="M125.7,310.936a17.679,17.679,0,0,1-4.037.233,17.679,17.679,0,0,1-4.037-.233,17.7,17.7,0,0,1,4.037-.233,17.7,17.7,0,0,1,4.037.233" transform="translate(-55.091 -145.517)" fill="#e0e0e0"/>
            <path id="Trazado_796501" data-name="Trazado 796501" d="M125.7,327.018a17.678,17.678,0,0,1-4.037.233,17.678,17.678,0,0,1-4.037-.233,17.7,17.7,0,0,1,4.037-.233,17.7,17.7,0,0,1,4.037.233" transform="translate(-55.091 -153.049)" fill="#e0e0e0"/>
            <path id="Trazado_796502" data-name="Trazado 796502" d="M125.7,343.1a17.68,17.68,0,0,1-4.037.233,17.68,17.68,0,0,1-4.037-.233,17.681,17.681,0,0,1,4.037-.233,17.681,17.681,0,0,1,4.037.233" transform="translate(-55.091 -160.581)" fill="#e0e0e0"/>
            <path id="Trazado_796503" data-name="Trazado 796503" d="M125.7,359.183a17.685,17.685,0,0,1-4.037.233,17.685,17.685,0,0,1-4.037-.233,17.694,17.694,0,0,1,4.037-.233,17.694,17.694,0,0,1,4.037.233" transform="translate(-55.091 -168.114)" fill="#e0e0e0"/>
            <path id="Trazado_796504" data-name="Trazado 796504" d="M175.231,133.08c0,.129-4.691.233-10.477.233s-10.478-.1-10.478-.233,4.69-.233,10.478-.233,10.477.1,10.477.233" transform="translate(-72.255 -62.219)" fill="#f4a338"/>
            <path id="Trazado_796505" data-name="Trazado 796505" d="M175.231,359.183c0,.129-4.691.233-10.477.233s-10.478-.1-10.478-.233,4.69-.233,10.478-.233,10.477.1,10.477.233" transform="translate(-72.255 -168.114)" fill="#f4a338"/>
            <path id="Trazado_796506" data-name="Trazado 796506" d="M214.042,166.194c0,.129-8.778.233-19.6.233s-19.6-.1-19.6-.233,8.776-.233,19.6-.233,19.6.1,19.6.233" transform="translate(-81.884 -77.728)" fill="#f4a338"/>
            <path id="Trazado_796507" data-name="Trazado 796507" d="M299.314,166.194c0,.129-8.778.233-19.6.233s-19.6-.1-19.6-.233,8.776-.233,19.6-.233,19.6.1,19.6.233" transform="translate(-121.821 -77.728)" fill="#e0e0e0"/>
            <path id="Trazado_796508" data-name="Trazado 796508" d="M250.362,182.275c0,.129-12.936.233-28.889.233s-28.892-.1-28.892-.233,12.933-.233,28.892-.233,28.889.1,28.889.233" transform="translate(-90.195 -85.259)" fill="#e0e0e0"/>
            <path id="Trazado_796509" data-name="Trazado 796509" d="M250.362,198.359c0,.129-12.936.233-28.889.233s-28.892-.1-28.892-.233,12.933-.233,28.892-.233,28.889.1,28.889.233" transform="translate(-90.195 -92.792)" fill="#e0e0e0"/>
            <path id="Trazado_796510" data-name="Trazado 796510" d="M325.172,246.606c0,.129-12.936.233-28.889.233s-28.892-.1-28.892-.233,12.933-.233,28.892-.233,28.889.1,28.889.233" transform="translate(-125.233 -115.388)" fill="#e0e0e0"/>
            <path id="Trazado_796511" data-name="Trazado 796511" d="M292.89,214.441c0,.129-12.936.233-28.889.233s-28.891-.1-28.891-.233,12.933-.233,28.891-.233,28.889.1,28.889.233" transform="translate(-110.113 -100.324)" fill="#e0e0e0"/>
            <path id="Trazado_796512" data-name="Trazado 796512" d="M425.7,214.441c0,.129-12.936.233-28.889.233s-28.892-.1-28.892-.233,12.933-.233,28.892-.233,28.889.1,28.889.233" transform="translate(-172.315 -100.324)" fill="#e0e0e0"/>
            <path id="Trazado_796513" data-name="Trazado 796513" d="M379.512,182.275c0,.129-12.936.233-28.889.233s-28.892-.1-28.892-.233,12.933-.233,28.892-.233,28.889.1,28.889.233" transform="translate(-150.683 -85.259)" fill="#fafafa"/>
            <path id="Trazado_796514" data-name="Trazado 796514" d="M454.584,246.606c0,.129-12.936.233-28.889.233s-28.892-.1-28.892-.233,12.933-.233,28.892-.233,28.889.1,28.889.233" transform="translate(-185.842 -115.388)" fill="#fafafa"/>
            <path id="Trazado_796515" data-name="Trazado 796515" d="M411.455,198.359c0,.129-20.087.233-44.859.233s-44.863-.1-44.863-.233,20.083-.233,44.863-.233,44.859.1,44.859.233" transform="translate(-150.683 -92.792)" fill="#455a64"/>
            <path id="Trazado_796516" data-name="Trazado 796516" d="M175.231,150.111c0,.129-4.691.233-10.477.233s-10.478-.1-10.478-.233,4.69-.233,10.478-.233,10.477.1,10.477.233" transform="translate(-72.255 -70.195)" fill="#fafafa"/>
            <path id="Trazado_796517" data-name="Trazado 796517" d="M175.231,343.1c0,.129-4.691.233-10.477.233s-10.478-.1-10.478-.233,4.69-.233,10.478-.233,10.477.1,10.477.233" transform="translate(-72.255 -160.581)" fill="#fafafa"/>
            <path id="Trazado_796518" data-name="Trazado 796518" d="M194.757,214.441c0,.129-4.691.233-10.477.233s-10.478-.1-10.478-.233,4.69-.233,10.478-.233,10.477.1,10.477.233" transform="translate(-81.4 -100.324)" fill="#fafafa"/>
            <path id="Trazado_796519" data-name="Trazado 796519" d="M510.651,214.441c0,.129-4.691.233-10.477.233s-10.478-.1-10.478-.233,4.69-.233,10.478-.233,10.477.1,10.477.233" transform="translate(-229.348 -100.324)" fill="#ff725e"/>
            <path id="Trazado_796520" data-name="Trazado 796520" d="M214.042,278.675c0,.129-8.778.233-19.6.233s-19.6-.1-19.6-.233,8.776-.233,19.6-.233,19.6.1,19.6.233" transform="translate(-81.884 -130.408)" fill="#f4a338"/>
            <path id="Trazado_796521" data-name="Trazado 796521" d="M299.314,278.675c0,.129-8.778.233-19.6.233s-19.6-.1-19.6-.233,8.776-.233,19.6-.233,19.6.1,19.6.233" transform="translate(-121.821 -130.408)" fill="#e0e0e0"/>
            <path id="Trazado_796522" data-name="Trazado 796522" d="M250.362,294.758c0,.129-12.936.233-28.889.233s-28.892-.1-28.892-.233,12.933-.233,28.892-.233,28.889.1,28.889.233" transform="translate(-90.195 -137.94)" fill="#e0e0e0"/>
            <path id="Trazado_796523" data-name="Trazado 796523" d="M250.362,310.84c0,.129-12.936.233-28.889.233s-28.892-.1-28.892-.233,12.933-.233,28.892-.233,28.889.1,28.889.233" transform="translate(-90.195 -145.472)" fill="#e0e0e0"/>
            <path id="Trazado_796524" data-name="Trazado 796524" d="M292.89,326.924c0,.129-12.936.233-28.889.233s-28.891-.1-28.891-.233,12.933-.233,28.891-.233,28.889.1,28.889.233" transform="translate(-110.113 -153.005)" fill="#e0e0e0"/>
            <path id="Trazado_796525" data-name="Trazado 796525" d="M425.7,326.924c0,.129-12.936.233-28.889.233s-28.892-.1-28.892-.233,12.933-.233,28.892-.233,28.889.1,28.889.233" transform="translate(-172.315 -153.005)" fill="#e0e0e0"/>
            <path id="Trazado_796526" data-name="Trazado 796526" d="M379.512,294.758c0,.129-12.936.233-28.889.233s-28.892-.1-28.892-.233,12.933-.233,28.892-.233,28.889.1,28.889.233" transform="translate(-150.683 -137.94)" fill="#fafafa"/>
            <path id="Trazado_796527" data-name="Trazado 796527" d="M411.455,310.84c0,.129-20.087.233-44.859.233s-44.863-.1-44.863-.233,20.083-.233,44.863-.233,44.859.1,44.859.233" transform="translate(-150.683 -145.472)" fill="#455a64"/>
            <path id="Trazado_796528" data-name="Trazado 796528" d="M194.757,326.924c0,.129-4.691.233-10.477.233s-10.478-.1-10.478-.233,4.69-.233,10.478-.233,10.477.1,10.477.233" transform="translate(-81.4 -153.005)" fill="#fafafa"/>
            <path id="Trazado_796529" data-name="Trazado 796529" d="M510.651,326.924c0,.129-4.691.233-10.477.233s-10.478-.1-10.478-.233,4.69-.233,10.478-.233,10.477.1,10.477.233" transform="translate(-229.348 -153.005)" fill="#ff725e"/>
            <path id="Trazado_796530" data-name="Trazado 796530" d="M329.076,406.022c0,.077-53.506.138-119.493.138-66.009,0-119.5-.062-119.5-.138s53.494-.138,119.5-.138c65.987,0,119.493.062,119.493.138" transform="translate(-42.188 -190.095)" fill="#263238"/>
          </g>
        </g>
        <g id="Grupo_1042488" data-name="Grupo 1042488">
          <g id="Grupo_1042487" data-name="Grupo 1042487" clip-path="url(#clip-path-2)">
            <path id="Trazado_796531" data-name="Trazado 796531" d="M366.729,426.528c0,.077-81.045.139-181,.139-99.986,0-181.013-.062-181.013-.139s81.027-.138,181.013-.138c99.951,0,181,.062,181,.138" transform="translate(-2.211 -199.699)" fill="#263238"/>
          </g>
        </g>
        <path id="Trazado_796532" data-name="Trazado 796532" d="M466.7,46.29H324.228v88.236H444.168l7.426,17.084,6.583-17.084H466.7Z" transform="translate(-151.851 -21.68)" fill="#fafafa"/>
        <g id="Grupo_1042490" data-name="Grupo 1042490">
          <g id="Grupo_1042489" data-name="Grupo 1042489" clip-path="url(#clip-path-2)">
            <path id="Trazado_796533" data-name="Trazado 796533" d="M466.582,46.179c0,.855.041,34,.106,88.236v.107h-.106l-8.526,0,.1-.071-6.577,17.086-.1.268-.114-.264c-2.329-5.352-4.846-11.139-7.431-17.081l.113.074-108.465.015H323.968v-.139c0-31.446.008-61.29.012-88.236v-.126h.127l142.475.126-142.475.126.126-.126c0,26.946.007,56.79.012,88.236l-.138-.138h11.475l108.465.015h.081l.032.074c2.581,5.943,5.1,11.732,7.42,17.086l-.217,0,6.59-17.081.027-.071h.076l8.526,0-.106.106c.065-54.232.105-87.381.106-88.236" transform="translate(-151.73 -21.569)" fill="#263238"/>
            <path id="Trazado_796534" data-name="Trazado 796534" d="M466.819,62.314c0,.107-31.832.195-71.09.195s-71.1-.087-71.1-.195,31.825-.195,71.1-.195,71.09.087,71.09.195" transform="translate(-152.041 -29.093)" fill="#263238"/>
            <path id="Trazado_796535" data-name="Trazado 796535" d="M336.414,54.126a1.168,1.168,0,1,1-1.167-1.168,1.167,1.167,0,0,1,1.167,1.168" transform="translate(-156.465 -24.803)" fill="#263238"/>
            <path id="Trazado_796536" data-name="Trazado 796536" d="M344.363,54.126a1.168,1.168,0,1,1-1.168-1.168,1.167,1.167,0,0,1,1.168,1.168" transform="translate(-160.188 -24.803)" fill="#263238"/>
            <path id="Trazado_796537" data-name="Trazado 796537" d="M352.311,54.126a1.168,1.168,0,1,1-1.168-1.168,1.167,1.167,0,0,1,1.168,1.168" transform="translate(-163.91 -24.803)" fill="#263238"/>
            <path id="Trazado_796538" data-name="Trazado 796538" d="M349.7,91.478l-3.384,1.306L349.7,94.09v.791l-4.271-1.687v-.819l4.271-1.687Z" transform="translate(-161.779 -42.473)" fill="#263238"/>
            <path id="Trazado_796539" data-name="Trazado 796539" d="M357.308,85.81h.829l-3.145,8.979h-.829Z" transform="translate(-165.871 -40.189)" fill="#263238"/>
            <path id="Trazado_796540" data-name="Trazado 796540" d="M366.449,92.374v.819l-4.27,1.687V94.09l3.393-1.306-3.393-1.306v-.791Z" transform="translate(-169.626 -42.473)" fill="#263238"/>
            <path id="Trazado_796541" data-name="Trazado 796541" d="M372.241,99.205a.637.637,0,0,1,.648-.648.627.627,0,0,1,.629.648.636.636,0,0,1-.629.658.645.645,0,0,1-.648-.658" transform="translate(-174.338 -46.159)" fill="#263238"/>
            <path id="Trazado_796542" data-name="Trazado 796542" d="M376.314,99.205a.637.637,0,0,1,.648-.648.627.627,0,0,1,.629.648.635.635,0,0,1-.629.658.645.645,0,0,1-.648-.658" transform="translate(-176.246 -46.159)" fill="#263238"/>
            <path id="Trazado_796543" data-name="Trazado 796543" d="M380.385,99.205a.637.637,0,0,1,.648-.648.627.627,0,0,1,.629.648.635.635,0,0,1-.629.658.645.645,0,0,1-.648-.658" transform="translate(-178.153 -46.159)" fill="#263238"/>
            <path id="Trazado_796544" data-name="Trazado 796544" d="M439.806,115.7c0,.107-21.062.195-47.036.195s-47.041-.087-47.041-.195,21.057-.195,47.041-.195,47.036.087,47.036.195" transform="translate(-161.922 -54.097)" fill="#455a64"/>
            <path id="Trazado_796545" data-name="Trazado 796545" d="M543.617,116.224a52.584,52.584,0,0,1-9.039,0,52.586,52.586,0,0,1,9.039,0" transform="translate(-250.369 -54.342)" fill="#263238"/>
            <path id="Trazado_796546" data-name="Trazado 796546" d="M567.731,116.224a62.72,62.72,0,0,1-9.873,0,62.722,62.722,0,0,1,9.873,0" transform="translate(-261.272 -54.342)" fill="#263238"/>
            <path id="Trazado_796547" data-name="Trazado 796547" d="M405.729,130.61c0,.107-13.387.195-29.9.195s-29.9-.087-29.9-.195,13.384-.195,29.9-.195,29.9.087,29.9.195" transform="translate(-162.017 -61.08)" fill="#455a64"/>
            <path id="Trazado_796548" data-name="Trazado 796548" d="M404.925,186.243c0,.107-13.387.195-29.9.195s-29.9-.087-29.9-.195,13.383-.195,29.9-.195,29.9.087,29.9.195" transform="translate(-161.64 -87.135)" fill="#455a64"/>
            <path id="Trazado_796549" data-name="Trazado 796549" d="M484.934,130.61c0,.107-3.642.195-8.135.195s-8.135-.087-8.135-.195,3.642-.195,8.135-.195,8.135.087,8.135.195" transform="translate(-219.498 -61.08)" fill="#263238"/>
            <path id="Trazado_796550" data-name="Trazado 796550" d="M484.614,186.243c0,.107-3.642.195-8.135.195s-8.135-.087-8.135-.195,3.642-.195,8.135-.195,8.135.087,8.135.195" transform="translate(-219.348 -87.135)" fill="#263238"/>
            <path id="Trazado_796551" data-name="Trazado 796551" d="M349.762,138.2a10.544,10.544,0,0,1-4.033,0,10.543,10.543,0,0,1,4.033,0" transform="translate(-161.922 -64.633)" fill="#ff725e"/>
            <path id="Trazado_796552" data-name="Trazado 796552" d="M371.752,138.353a49.407,49.407,0,0,1-8.761,0,49.407,49.407,0,0,1,8.761,0" transform="translate(-170.006 -64.706)" fill="#263238"/>
            <path id="Trazado_796553" data-name="Trazado 796553" d="M389.595,138.353a36.325,36.325,0,0,1-7.51,0,36.325,36.325,0,0,1,7.51,0" transform="translate(-178.949 -64.706)" fill="#263238"/>
            <path id="Trazado_796554" data-name="Trazado 796554" d="M410.659,138.353a37.677,37.677,0,0,1-7.648,0,37.677,37.677,0,0,1,7.648,0" transform="translate(-188.749 -64.706)" fill="#263238"/>
            <path id="Trazado_796555" data-name="Trazado 796555" d="M429.843,138.353a31.154,31.154,0,0,1-6.953,0,31.154,31.154,0,0,1,6.953,0" transform="translate(-198.06 -64.706)" fill="#263238"/>
            <path id="Trazado_796556" data-name="Trazado 796556" d="M470.485,138.353c0,.107-6.849.195-15.3.195s-15.3-.087-15.3-.195,6.848-.195,15.3-.195,15.3.087,15.3.195" transform="translate(-206.023 -64.706)" fill="#263238"/>
            <path id="Trazado_796557" data-name="Trazado 796557" d="M349.2,147.874a7.861,7.861,0,0,1-3.476,0,7.862,7.862,0,0,1,3.476,0" transform="translate(-161.921 -69.165)" fill="#ff725e"/>
            <path id="Trazado_796558" data-name="Trazado 796558" d="M349.344,157.813a8.5,8.5,0,0,1-3.616,0,8.5,8.5,0,0,1,3.616,0" transform="translate(-161.921 -73.82)" fill="#ff725e"/>
            <path id="Trazado_796559" data-name="Trazado 796559" d="M349.344,169.06a8.5,8.5,0,0,1-3.616,0,8.5,8.5,0,0,1,3.616,0" transform="translate(-161.921 -79.088)" fill="#ff725e"/>
            <path id="Trazado_796560" data-name="Trazado 796560" d="M390.754,168.537c0,.107-6.04.195-13.489.195s-13.49-.087-13.49-.195,6.039-.195,13.49-.195,13.489.087,13.489.195" transform="translate(-170.374 -78.843)" fill="#263238"/>
            <path id="Trazado_796561" data-name="Trazado 796561" d="M387.41,157.813c0,.107-5.759.195-12.863.195s-12.863-.087-12.863-.195,5.758-.195,12.863-.195,12.863.087,12.863.195" transform="translate(-169.394 -73.82)" fill="#263238"/>
            <path id="Trazado_796562" data-name="Trazado 796562" d="M449.816,147.351c0,.107-19.613.195-43.8.195s-43.807-.087-43.807-.195,19.609-.195,43.807-.195,43.8.087,43.8.195" transform="translate(-169.639 -68.92)" fill="#263238"/>
            <path id="Trazado_796563" data-name="Trazado 796563" d="M598.41,114.161v74.985l-11.659,9.728h60.973V114.161Z" transform="translate(-274.804 -53.467)" fill="#fafafa"/>
            <path id="Trazado_796564" data-name="Trazado 796564" d="M598.1,114.069s.288-.007.862-.011l2.55-.011,9.818-.027,36.085-.055h.1v.1c.009,22.633.021,52.194.034,84.712v.138H638.86l-52.422-.01h-.356l.273-.228,11.663-9.722-.044.094c.025-22.419.047-41.176.062-54.335.014-6.563.024-11.729.032-15.26.006-1.756.011-3.1.014-4.019q0-.675.007-1.028c0-.23.007-.343.007-.343s0,.122.007.357,0,.585.007,1.041c0,.92.008,2.276.014,4.043.008,3.537.018,8.712.032,15.287.015,13.14.036,31.871.062,54.257v.057l-.044.037L586.52,198.88l-.082-.228,52.422-.01h8.551l-.138.138c.013-32.518.025-62.079.034-84.712l.1.1-36.021-.055-9.841-.027-2.569-.011c-.58,0-.883-.011-.883-.011" transform="translate(-274.49 -53.375)" fill="#263238"/>
            <path id="Trazado_796565" data-name="Trazado 796565" d="M615.344,120.3a1,1,0,1,1-1-1,1,1,0,0,1,1,1" transform="translate(-287.259 -55.874)" fill="#263238"/>
            <path id="Trazado_796566" data-name="Trazado 796566" d="M622.146,120.3a1,1,0,1,1-1-1,1,1,0,0,1,1,1" transform="translate(-290.445 -55.874)" fill="#263238"/>
            <path id="Trazado_796567" data-name="Trazado 796567" d="M628.948,120.3a1,1,0,1,1-1-1,1,1,0,0,1,1,1" transform="translate(-293.63 -55.874)" fill="#263238"/>
            <path id="Trazado_796568" data-name="Trazado 796568" d="M651.34,164.494c0,.088-6.252.16-13.962.16s-13.964-.072-13.964-.16,6.251-.16,13.964-.16,13.962.072,13.962.16" transform="translate(-291.975 -76.966)" fill="#ff725e"/>
            <path id="Trazado_796569" data-name="Trazado 796569" d="M656.955,177.252c0,.088-7.608.16-16.992.16s-16.994-.072-16.994-.16,7.607-.16,16.994-.16,16.992.072,16.992.16" transform="translate(-291.767 -82.941)" fill="#ff725e"/>
            <path id="Trazado_796570" data-name="Trazado 796570" d="M657.574,224.856c0,.088-8.112.16-18.118.16s-18.119-.072-18.119-.16,8.111-.16,18.119-.16,18.118.072,18.118.16" transform="translate(-291.002 -105.236)" fill="#ff725e"/>
            <path id="Trazado_796571" data-name="Trazado 796571" d="M625.3,183.743a9.383,9.383,0,0,1-3.451,0,9.382,9.382,0,0,1,3.451,0" transform="translate(-291.243 -85.981)" fill="#ff725e"/>
            <path id="Trazado_796572" data-name="Trazado 796572" d="M644.12,183.877a43.987,43.987,0,0,1-7.5,0,43.979,43.979,0,0,1,7.5,0" transform="translate(-298.161 -86.044)" fill="#ff725e"/>
            <path id="Trazado_796573" data-name="Trazado 796573" d="M659.388,183.877a32.335,32.335,0,0,1-6.426,0,32.329,32.329,0,0,1,6.426,0" transform="translate(-305.813 -86.044)" fill="#ff725e"/>
            <path id="Trazado_796574" data-name="Trazado 796574" d="M624.826,192.024a6.993,6.993,0,0,1-2.975,0,7.017,7.017,0,0,1,2.975,0" transform="translate(-291.243 -89.86)" fill="#ff725e"/>
            <path id="Trazado_796575" data-name="Trazado 796575" d="M624.945,200.529a7.557,7.557,0,0,1-3.094,0,7.554,7.554,0,0,1,3.094,0" transform="translate(-291.243 -93.842)" fill="#ff725e"/>
            <path id="Trazado_796576" data-name="Trazado 796576" d="M624.945,210.154a7.556,7.556,0,0,1-3.094,0,7.557,7.557,0,0,1,3.094,0" transform="translate(-291.243 -98.35)" fill="#ff725e"/>
            <path id="Trazado_796577" data-name="Trazado 796577" d="M660.38,209.706c0,.088-5.168.16-11.542.16s-11.543-.072-11.543-.16,5.167-.16,11.543-.16,11.542.072,11.542.16" transform="translate(-298.476 -98.14)" fill="#ff725e"/>
            <path id="Trazado_796578" data-name="Trazado 796578" d="M657.518,200.529c0,.088-4.929.16-11.007.16s-11.007-.072-11.007-.16,4.927-.16,11.007-.16,11.007.072,11.007.16" transform="translate(-297.637 -93.842)" fill="#ff725e"/>
            <path id="Trazado_796579" data-name="Trazado 796579" d="M629.183,237.565a7.556,7.556,0,0,1-3.094,0,7.556,7.556,0,0,1,3.094,0" transform="translate(-293.228 -111.188)" fill="#ff725e"/>
            <path id="Trazado_796580" data-name="Trazado 796580" d="M629.183,247.189a7.555,7.555,0,0,1-3.094,0,7.557,7.557,0,0,1,3.094,0" transform="translate(-293.228 -115.696)" fill="#ff725e"/>
            <path id="Trazado_796581" data-name="Trazado 796581" d="M664.618,246.742c0,.088-5.168.16-11.542.16s-11.543-.072-11.543-.16,5.167-.16,11.543-.16,11.542.072,11.542.16" transform="translate(-300.461 -115.486)" fill="#ff725e"/>
            <path id="Trazado_796582" data-name="Trazado 796582" d="M661.756,237.565c0,.088-4.928.16-11.006.16s-11.008-.072-11.008-.16,4.927-.16,11.008-.16,11.006.072,11.006.16" transform="translate(-299.622 -111.188)" fill="#ff725e"/>
            <path id="Trazado_796583" data-name="Trazado 796583" d="M665.913,191.576c0,.088-6.707.16-14.98.16s-14.981-.072-14.981-.16,6.706-.16,14.981-.16,14.98.072,14.98.16" transform="translate(-297.847 -89.649)" fill="#ff725e"/>
            <path id="Trazado_796584" data-name="Trazado 796584" d="M657.956,128.4c0,.088-10.829.16-24.183.16s-24.185-.072-24.185-.16,10.826-.16,24.185-.16,24.183.072,24.183.16" transform="translate(-285.499 -60.061)" fill="#263238"/>
            <path id="Trazado_796585" data-name="Trazado 796585" d="M633.6,156.8a81.594,81.594,0,0,1-10.215,0,81.586,81.586,0,0,1,10.215,0" transform="translate(-291.963 -73.362)" fill="#ff725e"/>
            <path id="Trazado_796586" data-name="Trazado 796586" d="M627.482,139.4a18.222,18.222,0,0,1-4.819,0,18.22,18.22,0,0,1,4.819,0" transform="translate(-291.623 -65.212)" fill="#ff725e"/>
          </g>
        </g>
        <g id="Grupo_1042498" data-name="Grupo 1042498">
          <g id="Grupo_1042497" data-name="Grupo 1042497" clip-path="url(#clip-path-2)">
            <path id="Trazado_796587" data-name="Trazado 796587" d="M502.533,297.348l10.708-10.587-19.1-32.7a18.434,18.434,0,0,0-7.329-5.1l-6.725-2.556-16.718-3.067-11.87,4.674a7.1,7.1,0,0,0-4.447,7.44l3.1,26.137,1.829,34.033,43.133-7.482-4.34-12.587.146-19.625Z" transform="translate(-209.354 -113.967)" fill="#4adbd1"/>
            <path id="Trazado_796588" data-name="Trazado 796588" d="M529.786,313.231c.1,0,.127-6.8.058-15.183s-.206-15.183-.307-15.182-.127,6.8-.058,15.185.206,15.182.307,15.181" transform="translate(-247.963 -132.479)" fill="#263238"/>
            <path id="Trazado_796589" data-name="Trazado 796589" d="M485.306,303.825l-26.062-10.492a5.955,5.955,0,0,1-3.714-5.071l-1.907-24.987s.225-10.627-6.412-11.145l-3.776,1.487c-4.881,2.592-6.09,9.7-5.426,15.184.944,7.8,1.338,18.827,2.394,25.592a14.482,14.482,0,0,0,9.451,11.828l32.1,6.949Z" transform="translate(-205.062 -118.085)" fill="#4adbd1"/>
            <path id="Trazado_796590" data-name="Trazado 796590" d="M468.221,280.262a3.543,3.543,0,0,1,.082.573l.167,1.646c.133,1.465.321,3.526.551,6.06.221,2.57.482,5.614.772,8.99l.218,2.6a19.583,19.583,0,0,0,.333,2.674,4.438,4.438,0,0,0,1.3,2.342,8.79,8.79,0,0,0,2.4,1.5c7.186,3.11,13.81,5.678,18.617,7.478l5.708,2.1,1.552.573a3.56,3.56,0,0,1,.534.221,3.672,3.672,0,0,1-.557-.155l-1.574-.511c-1.364-.452-3.33-1.129-5.749-2-4.836-1.744-11.469-4.273-18.677-7.392a9.107,9.107,0,0,1-2.5-1.561,4.783,4.783,0,0,1-1.39-2.516,19.607,19.607,0,0,1-.332-2.721q-.105-1.329-.207-2.6c-.262-3.38-.5-6.427-.7-9-.184-2.538-.334-4.6-.441-6.069q-.065-1.039-.1-1.652a3.623,3.623,0,0,1-.012-.577" transform="translate(-219.288 -131.26)" fill="#263238"/>
            <path id="Trazado_796591" data-name="Trazado 796591" d="M440.125,305.812a1.275,1.275,0,0,1,.052.335l.087.964c.077.891.182,2.089.309,3.546.142,1.495.324,3.275.584,5.242a49.992,49.992,0,0,0,1.177,6.33,9.438,9.438,0,0,0,1.272,3.018,17.338,17.338,0,0,0,1.947,2.392,16.659,16.659,0,0,0,4.17,3.129,15.686,15.686,0,0,0,4.578,1.5,1.218,1.218,0,0,1-.339-.008,7.106,7.106,0,0,1-.964-.124,12.724,12.724,0,0,1-3.386-1.147,16.322,16.322,0,0,1-4.288-3.123,17.206,17.206,0,0,1-2-2.426A9.686,9.686,0,0,1,442,322.323a47.215,47.215,0,0,1-1.159-6.381c-.243-1.976-.4-3.762-.511-5.263s-.168-2.717-.2-3.558c-.008-.388-.015-.707-.021-.969a1.217,1.217,0,0,1,.019-.339" transform="translate(-206.123 -143.227)" fill="#263238"/>
            <path id="Trazado_796592" data-name="Trazado 796592" d="M461.1,333.265a3.834,3.834,0,0,1,.474-1.389,8.968,8.968,0,0,1,5.288-4.516,3.827,3.827,0,0,1,1.446-.251c.011.058-.536.167-1.365.484a10.14,10.14,0,0,0-5.152,4.4c-.443.768-.636,1.292-.692,1.272" transform="translate(-215.951 -153.194)" fill="#263238"/>
            <g id="Grupo_1042493" data-name="Grupo 1042493" transform="translate(249.783 156.431)" opacity="0.3">
              <g id="Grupo_1042492" data-name="Grupo 1042492">
                <g id="Grupo_1042491" data-name="Grupo 1042491" clip-path="url(#clip-path-14)">
                  <path id="Trazado_796593" data-name="Trazado 796593" d="M492.8,320.567c-2.787-1.574-5.514-2.784-8.427-4.108a19.094,19.094,0,0,1-7.675-5.595c-3.6-4.848-3.187-11.844-6.868-16.628l.721,9.651c.221,2.948-.231,5.863,1.668,7.867,1.6,1.688,4.718,2.982,6.927,3.71,4.437,1.464,9.217,3.639,13.654,5.1" transform="translate(-469.824 -294.236)"/>
                </g>
              </g>
            </g>
            <g id="Grupo_1042496" data-name="Grupo 1042496" transform="translate(281.579 152.226)" opacity="0.3">
              <g id="Grupo_1042495" data-name="Grupo 1042495">
                <g id="Grupo_1042494" data-name="Grupo 1042494" clip-path="url(#clip-path-15)">
                  <path id="Trazado_796594" data-name="Trazado 796594" d="M529.631,286.327l2.254,13.906-2.134-3.939Z" transform="translate(-529.631 -286.327)"/>
                </g>
              </g>
            </g>
            <path id="Trazado_796595" data-name="Trazado 796595" d="M453.276,270.091a2.551,2.551,0,0,1-.6.046l-1.644.041c-1.387.035-3.3.105-5.413.256s-4.017.356-5.4.519l-1.633.193a2.588,2.588,0,0,1-.6.04,2.525,2.525,0,0,1,.587-.147c.381-.078.936-.174,1.623-.281,1.374-.214,3.283-.449,5.4-.6s4.041-.19,5.431-.175c.7.007,1.258.024,1.646.047a2.55,2.55,0,0,1,.6.061" transform="translate(-205.128 -126.445)" fill="#455a64"/>
            <path id="Trazado_796596" data-name="Trazado 796596" d="M454.68,295.208c.006.076-3.41.421-7.629.77s-7.647.57-7.653.494,3.409-.421,7.63-.77,7.646-.57,7.652-.494" transform="translate(-205.791 -138.253)" fill="#455a64"/>
            <path id="Trazado_796597" data-name="Trazado 796597" d="M457.053,321.534a2.678,2.678,0,0,1-.541.309c-.355.186-.88.43-1.54.708a32.014,32.014,0,0,1-10.874,2.434c-.716.029-1.3.033-1.695.016a2.7,2.7,0,0,1-.621-.049,2.709,2.709,0,0,1,.619-.058c.4-.016.975-.05,1.685-.1a38.08,38.08,0,0,0,10.813-2.421c.665-.254,1.2-.469,1.568-.624a2.715,2.715,0,0,1,.585-.211" transform="translate(-206.908 -150.589)" fill="#455a64"/>
            <path id="Trazado_796598" data-name="Trazado 796598" d="M484.068,335.027a10.405,10.405,0,0,0-4.383,4.856,2.577,2.577,0,0,1,.287-.952,7.6,7.6,0,0,1,3.179-3.522,2.581,2.581,0,0,1,.918-.383" transform="translate(-224.656 -156.907)" fill="#455a64"/>
            <path id="Trazado_796599" data-name="Trazado 796599" d="M505.657,347.879a10.2,10.2,0,0,1,2.784-5.084c.064.053-.755,1.069-1.518,2.473s-1.187,2.636-1.266,2.611" transform="translate(-236.819 -160.546)" fill="#455a64"/>
            <path id="Trazado_796600" data-name="Trazado 796600" d="M471.188,255.456a51.362,51.362,0,0,1-7.42,1.341,51.347,51.347,0,0,1,7.42-1.341" transform="translate(-217.205 -119.636)" fill="#455a64"/>
            <path id="Trazado_796601" data-name="Trazado 796601" d="M515.678,256.525a95.354,95.354,0,0,1-10.189-1.209,94.956,94.956,0,0,1,10.189,1.209" transform="translate(-236.745 -119.57)" fill="#455a64"/>
            <path id="Trazado_796602" data-name="Trazado 796602" d="M500.409,279.246a1.459,1.459,0,0,1-.327.021l-.936.007-3.438,0c-2.9,0-6.914.022-11.341.134s-8.436.3-11.335.448l-3.433.181-.934.041a1.433,1.433,0,0,1-.327,0,1.468,1.468,0,0,1,.323-.051l.931-.092c.809-.076,1.98-.169,3.429-.269,2.9-.2,6.907-.414,11.339-.529s8.445-.107,11.35-.054c1.452.026,2.627.058,3.439.093l.935.045a1.456,1.456,0,0,1,.325.035" transform="translate(-219.345 -130.687)" fill="#455a64"/>
            <path id="Trazado_796603" data-name="Trazado 796603" d="M502.315,307.062c0,.076-6.832.589-15.27,1.144s-15.284.944-15.29.868,6.831-.589,15.272-1.144,15.283-.944,15.288-.868" transform="translate(-220.946 -143.807)" fill="#455a64"/>
            <path id="Trazado_796604" data-name="Trazado 796604" d="M514.3,331.417a2.72,2.72,0,0,1-.575.246c-.376.142-.925.333-1.608.556-1.365.447-3.272,1.006-5.4,1.519s-4.085.88-5.5,1.1c-.71.112-1.286.192-1.685.236a2.746,2.746,0,0,1-.624.043,2.707,2.707,0,0,1,.608-.149l1.667-.322c1.408-.272,3.348-.669,5.474-1.179s4.034-1.04,5.411-1.438l1.632-.471a2.727,2.727,0,0,1,.609-.144" transform="translate(-233.659 -155.217)" fill="#455a64"/>
            <path id="Trazado_796605" data-name="Trazado 796605" d="M539.63,287.275a96.228,96.228,0,0,1-10,2.585,96.271,96.271,0,0,1,10-2.585" transform="translate(-248.052 -134.541)" fill="#455a64"/>
            <path id="Trazado_796606" data-name="Trazado 796606" d="M534.71,268.577a18.533,18.533,0,0,1-4.449.8,18.549,18.549,0,0,1,4.449-.8" transform="translate(-248.347 -125.777)" fill="#455a64"/>
            <path id="Trazado_796607" data-name="Trazado 796607" d="M458.864,265.828c-.054.01-.136-.883-.622-2.22a11.185,11.185,0,0,0-7.9-7.1c-1.381-.341-2.277-.327-2.273-.382a2.351,2.351,0,0,1,.624-.023,9.575,9.575,0,0,1,1.693.214,10.823,10.823,0,0,1,8.041,7.226,9.577,9.577,0,0,1,.394,1.66,2.4,2.4,0,0,1,.043.624" transform="translate(-209.852 -119.944)" fill="#263238"/>
            <path id="Trazado_796608" data-name="Trazado 796608" d="M526.77,261.063a88.248,88.248,0,0,1,1.563,9.766,88.256,88.256,0,0,1-1.563-9.766" transform="translate(-246.706 -122.268)" fill="#263238"/>
            <path id="Trazado_796609" data-name="Trazado 796609" d="M577.352,408.451s20.032,5.544,20.836,5.827c1.206.425,1,4.846-.874,4.777-.888-.032-15.387.54-17.219.425s-7.359-2.292-7.359-2.292Z" transform="translate(-268.24 -191.297)" fill="#f4a338"/>
            <path id="Trazado_796610" data-name="Trazado 796610" d="M597.079,419.3a8.776,8.776,0,0,1,2.3-3.995,4.452,4.452,0,0,0-2.3,3.995" transform="translate(-279.622 -194.506)" fill="#263238"/>
            <path id="Trazado_796611" data-name="Trazado 796611" d="M593.158,417.675c.1.017.3-.93.834-1.976s1.163-1.779,1.091-1.847a5.023,5.023,0,0,0-1.925,3.824" transform="translate(-277.79 -193.824)" fill="#263238"/>
            <path id="Trazado_796612" data-name="Trazado 796612" d="M589.384,416.54a7.029,7.029,0,0,1,1.559-3.99,3.762,3.762,0,0,0-1.559,3.99" transform="translate(-275.975 -193.214)" fill="#263238"/>
            <path id="Trazado_796613" data-name="Trazado 796613" d="M588.769,411.092a3.551,3.551,0,0,0,.215-1.491,7.029,7.029,0,0,0-.2-1.633,6.952,6.952,0,0,0-.3-.93,1.119,1.119,0,0,0-.321-.491.534.534,0,0,0-.688.034.888.888,0,0,0-.267.567,3.928,3.928,0,0,0-.026.529,4.41,4.41,0,0,0,.124.981,5.95,5.95,0,0,0,.616,1.531,4.031,4.031,0,0,0,.9,1.206c.046-.032-.29-.5-.69-1.315a6.56,6.56,0,0,1-.525-1.489,4.4,4.4,0,0,1-.1-.915c.009-.308,0-.693.184-.841a.2.2,0,0,1,.265-.022.849.849,0,0,1,.219.35,7.358,7.358,0,0,1,.3.884,8.041,8.041,0,0,1,.265,1.564c.058.908-.033,1.474.022,1.482" transform="translate(-275.005 -190.354)" fill="#263238"/>
            <path id="Trazado_796614" data-name="Trazado 796614" d="M586.591,414.626a2.794,2.794,0,0,0-1.291-.208,5.82,5.82,0,0,0-1.422.174,3.14,3.14,0,0,0-.818.3.845.845,0,0,0-.452.916,1,1,0,0,0,.721.715,1.837,1.837,0,0,0,.9,0,3.447,3.447,0,0,0,1.3-.64,3.523,3.523,0,0,0,.931-.917,8.819,8.819,0,0,0-1.067.723,3.554,3.554,0,0,1-1.228.532,1.582,1.582,0,0,1-.743-.01.679.679,0,0,1-.487-.476.516.516,0,0,1,.3-.559,3.027,3.027,0,0,1,.727-.283,6.713,6.713,0,0,1,1.35-.236c.784-.055,1.275.026,1.283-.028" transform="translate(-272.852 -194.092)" fill="#263238"/>
            <path id="Trazado_796615" data-name="Trazado 796615" d="M602.767,420.251a5.409,5.409,0,0,1,1.376-3.375,2.875,2.875,0,0,0-1.376,3.375" transform="translate(-282.232 -195.239)" fill="#263238"/>
            <path id="Trazado_796616" data-name="Trazado 796616" d="M576.613,424.966a4.155,4.155,0,0,0,.775.365,17.269,17.269,0,0,0,2.229.691,31.8,31.8,0,0,0,7.648.725c3-.033,5.707-.17,7.669-.248l2.322-.123a4.2,4.2,0,0,0,.85-.09,4.1,4.1,0,0,0-.854-.04l-2.324.016-7.664.15a35.81,35.81,0,0,1-7.594-.621c-1.915-.393-3.033-.886-3.056-.824" transform="translate(-270.055 -199.03)" fill="#263238"/>
            <path id="Trazado_796617" data-name="Trazado 796617" d="M575.5,424.329c.027.046.575-.274,1.5-.68a6.973,6.973,0,0,1,3.791-.63,6.006,6.006,0,0,1,3.277,1.949,11.853,11.853,0,0,0,1.154,1.179,6.216,6.216,0,0,0-.98-1.34,7.937,7.937,0,0,0-1.328-1.242,4.759,4.759,0,0,0-2.07-.877,6.624,6.624,0,0,0-3.943.746,5.3,5.3,0,0,0-1.4.895" transform="translate(-269.533 -197.936)" fill="#263238"/>
            <path id="Trazado_796618" data-name="Trazado 796618" d="M519.191,399.7s-18.956,12.411-19.636,12.925c-1.02.771.15,4.444,1.919,3.808.836-.3,16.743-4.726,18.454-5.392s6.315-4.419,6.315-4.419Z" transform="translate(-233.788 -187.201)" fill="#f4a338"/>
            <path id="Trazado_796619" data-name="Trazado 796619" d="M523.236,415.418a4.451,4.451,0,0,0-3.4-3.108,18.994,18.994,0,0,1,1.909,1.327,18.736,18.736,0,0,1,1.494,1.781" transform="translate(-243.462 -193.097)" fill="#263238"/>
            <path id="Trazado_796620" data-name="Trazado 796620" d="M526.8,412.576a5.024,5.024,0,0,0-3-3.059c-.048.087.782.585,1.6,1.429s1.307,1.675,1.4,1.629" transform="translate(-245.32 -191.792)" fill="#263238"/>
            <path id="Trazado_796621" data-name="Trazado 796621" d="M530.27,410.277a3.762,3.762,0,0,0-2.7-3.328,7.034,7.034,0,0,1,2.7,3.328" transform="translate(-247.087 -190.588)" fill="#263238"/>
            <path id="Trazado_796622" data-name="Trazado 796622" d="M529.673,404.608c.05-.025-.209-.537-.429-1.419a8.078,8.078,0,0,1-.223-1.57,7.4,7.4,0,0,1,.021-.934.841.841,0,0,1,.1-.4.194.194,0,0,1,.259-.06c.216.087.329.455.431.745a4.38,4.38,0,0,1,.186.9,6.561,6.561,0,0,1-.048,1.578c-.133.9-.311,1.447-.257,1.463a4.043,4.043,0,0,0,.491-1.422,5.975,5.975,0,0,0,.122-1.647,4.451,4.451,0,0,0-.18-.971,3.958,3.958,0,0,0-.186-.5.885.885,0,0,0-.426-.459.534.534,0,0,0-.666.176,1.121,1.121,0,0,0-.157.566,6.959,6.959,0,0,0,0,.976,7.059,7.059,0,0,0,.3,1.618,3.562,3.562,0,0,0,.658,1.355" transform="translate(-247.614 -187.276)" fill="#263238"/>
            <path id="Trazado_796623" data-name="Trazado 796623" d="M530.46,407.641c.024.049.468-.176,1.232-.363a6.726,6.726,0,0,1,1.358-.186,3.06,3.06,0,0,1,.778.049.516.516,0,0,1,.454.442.678.678,0,0,1-.32.6,1.573,1.573,0,0,1-.7.236,3.548,3.548,0,0,1-1.332-.133,8.753,8.753,0,0,0-1.236-.364,3.538,3.538,0,0,0,1.166.591,3.451,3.451,0,0,0,1.434.214,1.829,1.829,0,0,0,.857-.271,1,1,0,0,0,.47-.9.844.844,0,0,0-.709-.735,3.117,3.117,0,0,0-.872-.039,5.786,5.786,0,0,0-1.407.266,2.808,2.808,0,0,0-1.168.591" transform="translate(-248.44 -190.511)" fill="#263238"/>
            <path id="Trazado_796624" data-name="Trazado 796624" d="M506.269,425.751c.021.03.319-.192.464-.735a2.8,2.8,0,0,0-.355-2.057,7.468,7.468,0,0,0-.635-.946,3.479,3.479,0,0,0-.644-.691,1.122,1.122,0,0,0-.606-.254c-.158-.006-.24.032-.237.052a1.8,1.8,0,0,1,.689.383,4.328,4.328,0,0,1,.547.692,10.9,10.9,0,0,1,.591.926,2.935,2.935,0,0,1,.416,1.848c-.069.491-.276.75-.231.783" transform="translate(-236.168 -197.206)" fill="#263238"/>
            <path id="Trazado_796625" data-name="Trazado 796625" d="M518.782,417.831a2.874,2.874,0,0,0-2.336-2.8,5.409,5.409,0,0,1,2.336,2.8" transform="translate(-241.876 -194.371)" fill="#263238"/>
            <path id="Trazado_796626" data-name="Trazado 796626" d="M525.327,413.984a6.762,6.762,0,0,0-.833.572,23.694,23.694,0,0,1-2.337,1.432,30.834,30.834,0,0,1-3.712,1.652c-1.435.535-3.045,1.04-4.748,1.534-3.411.982-6.5,1.879-8.725,2.549l-2.634.809a5.8,5.8,0,0,0-.953.34,5.832,5.832,0,0,0,.989-.215l2.663-.707c2.245-.612,5.34-1.473,8.754-2.456,1.706-.494,3.323-1.011,4.764-1.567a27.913,27.913,0,0,0,3.717-1.734,18.58,18.58,0,0,0,2.3-1.535,5.158,5.158,0,0,0,.755-.676" transform="translate(-234.822 -193.888)" fill="#263238"/>
            <path id="Trazado_796627" data-name="Trazado 796627" d="M540.063,413.995a5.3,5.3,0,0,0-1.606-.427,6.623,6.623,0,0,0-3.984.487,4.754,4.754,0,0,0-1.706,1.464,7.924,7.924,0,0,0-.888,1.587,6.183,6.183,0,0,0-.527,1.574,11.764,11.764,0,0,0,.742-1.474,6,6,0,0,1,2.53-2.852,6.978,6.978,0,0,1,3.8-.551c1.005.106,1.625.245,1.636.192" transform="translate(-248.856 -193.643)" fill="#263238"/>
            <path id="Trazado_796628" data-name="Trazado 796628" d="M563.433,340.427a9.078,9.078,0,0,1,5.71,8.407c.046,12.214-24.679,25.678-24.679,25.678l-32.9-21.8-2.062-.834s44.415-16.684,53.933-11.45" transform="translate(-238.623 -158.962)" fill="#263238"/>
            <path id="Trazado_796629" data-name="Trazado 796629" d="M544.728,370.052a6.085,6.085,0,0,0,.857-.581c.539-.391,1.308-.971,2.251-1.7,1.884-1.456,4.447-3.52,7.2-5.886s5.185-4.59,6.909-6.232c.862-.821,1.552-1.493,2.02-1.967a6.164,6.164,0,0,0,.7-.759,6.077,6.077,0,0,0-.794.665l-2.091,1.888c-1.764,1.6-4.213,3.786-6.967,6.152s-5.288,4.453-7.133,5.955l-2.183,1.782a6.106,6.106,0,0,0-.777.684" transform="translate(-255.122 -165.292)" fill="#455a64"/>
            <path id="Trazado_796630" data-name="Trazado 796630" d="M588.195,349.837a8.155,8.155,0,0,0-5.99,1.768c.055.087,1.254-.677,2.914-1.159,1.655-.5,3.077-.507,3.076-.609" transform="translate(-272.674 -163.807)" fill="#455a64"/>
            <path id="Trazado_796631" data-name="Trazado 796631" d="M585.508,346.281a5,5,0,0,0-2.975,3.683c.1.033.456-.992,1.285-2.005s1.742-1.591,1.69-1.678" transform="translate(-272.821 -162.176)" fill="#455a64"/>
            <path id="Trazado_796632" data-name="Trazado 796632" d="M612.727,419c.017-.038-.392-.117-.848.257a3.074,3.074,0,0,0-.951,1.91,3.754,3.754,0,0,0,.3,2.106c.233.5.489.734.518.711.045-.031-.135-.309-.3-.8a4.272,4.272,0,0,1-.188-1.97,3.307,3.307,0,0,1,.778-1.781c.349-.365.7-.38.689-.433" transform="translate(-286.108 -196.223)" fill="#263238"/>
            <path id="Trazado_796633" data-name="Trazado 796633" d="M549.841,306.132l-9.36,25.215a3.634,3.634,0,0,1-3.455,2.369l-51.525-.678v-3.915l19.119.7,8.118-25.169a2.054,2.054,0,0,1,1.961-1.424l33.237.1a2.054,2.054,0,0,1,1.9,2.808" transform="translate(-227.383 -142.016)" fill="#e0e0e0"/>
            <path id="Trazado_796634" data-name="Trazado 796634" d="M549.767,306.068s.006-.027.022-.079a2.159,2.159,0,0,0,.064-.235,2.021,2.021,0,0,0-.021-.946,2.057,2.057,0,0,0-.9-1.219,2.005,2.005,0,0,0-.936-.3c-.355-.016-.74,0-1.144-.009l-13.867-.016-9.715-.018-5.459-.012-2.868-.006a2.255,2.255,0,0,0-1.371.3,2,2,0,0,0-.853,1.121l-8.092,25.126-.019.059-.061,0-19.119-.7.086-.083v3.915l-.082-.083,32.4.434,14.084.194,3.246.045,1.578.022a3.766,3.766,0,0,0,1.5-.219,3.567,3.567,0,0,0,2.064-1.988l1.006-2.687,6.179-16.571c.729-1.947,1.3-3.458,1.684-4.492s.6-1.56.6-1.56-.19.543-.566,1.572l-1.655,4.5-6.13,16.589-1,2.693a3.689,3.689,0,0,1-2.132,2.061,3.9,3.9,0,0,1-1.543.229l-1.578-.019-3.246-.04-14.085-.178-32.4-.419h-.082v-4.083l.086,0,19.119.7-.08.056c2.922-9.046,5.655-17.51,8.113-25.119a2.142,2.142,0,0,1,.913-1.2,2.4,2.4,0,0,1,1.445-.321l2.868.01,5.458.02,9.715.038,13.866.064c.406.006.786,0,1.147.015a2.045,2.045,0,0,1,.955.309,2.079,2.079,0,0,1,.91,1.247,1.989,1.989,0,0,1,.007.957,2.139,2.139,0,0,1-.1.311" transform="translate(-227.31 -141.952)" fill="#263238"/>
            <path id="Trazado_796635" data-name="Trazado 796635" d="M562.7,326.4a2.315,2.315,0,0,1,2.5.267,2.024,2.024,0,0,1,.49,2.219,2.193,2.193,0,0,1-1.881,1.315,1.979,1.979,0,0,1-1.989-1.314,2.221,2.221,0,0,1,.876-2.487" transform="translate(-263.089 -152.748)" fill="#fff"/>
            <path id="Trazado_796636" data-name="Trazado 796636" d="M522,378.219s-46.435-29.743-48.485-30.91c-1.743-.993-6.409-3.865-11.009-2.6s-8.724,5.394-10.787,11.421c-1.178,3.444-1.735,9.32-2,13.726a20.364,20.364,0,0,0,4.766,14.519,12.988,12.988,0,0,0,5.8,4.115c.484.151.986.281,1.5.393a21.863,21.863,0,0,0,22.759-9.556l1.085-1.651s30.41,11.172,30.886,11.014Z" transform="translate(-210.608 -161.297)" fill="#263238"/>
            <path id="Trazado_796637" data-name="Trazado 796637" d="M475.722,348.868a.5.5,0,0,1-.116-.068l-.325-.222c-.284-.2-.7-.487-1.255-.841a24.544,24.544,0,0,0-4.932-2.506,13.259,13.259,0,0,0-3.714-.783,10.692,10.692,0,0,0-4.272.7,13.8,13.8,0,0,0-4.1,2.49,18.783,18.783,0,0,0-1.822,1.79,13.318,13.318,0,0,0-1.508,2.145,22.017,22.017,0,0,0-2,4.784c-.437,1.62-.788,3.221-1.121,4.732a43.272,43.272,0,0,0-1.069,8.147,29.463,29.463,0,0,0,.422,5.522c.1.648.217,1.144.287,1.483l.076.386a.485.485,0,0,1,.016.134.532.532,0,0,1-.044-.127c-.027-.1-.061-.226-.1-.38-.087-.335-.22-.828-.339-1.476a27.7,27.7,0,0,1-.512-5.545,42.14,42.14,0,0,1,1.015-8.2c.329-1.523.67-3.11,1.11-4.754a22.075,22.075,0,0,1,2.024-4.847,13.538,13.538,0,0,1,1.541-2.188,18.914,18.914,0,0,1,1.854-1.815,13.954,13.954,0,0,1,4.192-2.523,10.857,10.857,0,0,1,4.373-.687,13.3,13.3,0,0,1,3.769.828,23.308,23.308,0,0,1,4.925,2.6c.544.369.954.675,1.228.886l.309.244a.5.5,0,0,1,.1.091" transform="translate(-210.421 -161.208)" fill="#455a64"/>
            <path id="Trazado_796638" data-name="Trazado 796638" d="M477.525,371.623s.085.043.255.113l.761.3,2.947,1.135,10.953,4.126c4.653,1.736,10.225,3.8,16.478,6.075s13.183,4.768,20.583,7.274l.134.046.066-.126,3.632-6.936,1.851-3.537.072-.137-.129-.082-35.46-22.51-10.651-6.719-2.893-1.806-.755-.461c-.171-.1-.263-.148-.263-.148s.08.064.246.175l.738.489,2.861,1.857,10.6,6.807,35.4,22.6-.057-.218-1.852,3.537-3.63,6.937.2-.08c-7.4-2.5-14.329-4.982-20.588-7.237l-16.5-6.006-10.987-4.03-2.968-1.08-.771-.273c-.174-.06-.266-.083-.266-.083" transform="translate(-223.648 -163.094)" fill="#455a64"/>
            <path id="Trazado_796639" data-name="Trazado 796639" d="M479.958,186.792a23.92,23.92,0,0,1-2.063-4.936,8.043,8.043,0,0,1,.275-5.254c.432-.951,1.112-1.785,1.451-2.774.467-1.36.276-2.965,1.119-4.131,1.316-1.822,4.133-1.4,6.168-2.351,1.585-.743,2.692-2.346,4.36-2.881a6.5,6.5,0,0,1,4.451.583,16.758,16.758,0,0,0,4.294,1.567,30.036,30.036,0,0,0,3.268.009,4.3,4.3,0,0,1,3.015,1.039,2.07,2.07,0,0,1,.1,2.91c1.907-.323,3.7,1.581,3.679,3.515a5.262,5.262,0,0,1-3.241,4.441,11.521,11.521,0,0,1-5.7.707c-5.46-.425-10.946-2.5-14.663-6.522" transform="translate(-223.677 -76.935)" fill="#12263f"/>
            <path id="Trazado_796640" data-name="Trazado 796640" d="M480.915,183.432l-3.72,27.034a8.118,8.118,0,1,0,16.086,2.2c.278-2.035.514-3.732.556-3.94,0,0,6.971.3,8.405-6.443.693-3.259,1.574-10.087,2.3-16.273A12.84,12.84,0,0,0,494.3,171.929l-.652-.13c-7.115-.995-11.934,4.492-12.731,11.633" transform="translate(-223.458 -80.407)" fill="#ffbe9d"/>
            <path id="Trazado_796641" data-name="Trazado 796641" d="M501.3,237.423a16.031,16.031,0,0,1-8.312-4.265s1.111,5.281,7.978,6.02Z" transform="translate(-230.89 -109.199)" fill="#eb996e"/>
            <path id="Trazado_796642" data-name="Trazado 796642" d="M521.273,208.49a.984.984,0,0,1-1.125.788.941.941,0,0,1-.821-1.069.985.985,0,0,1,1.125-.789.942.942,0,0,1,.822,1.07" transform="translate(-243.22 -97.14)" fill="#263238"/>
            <path id="Trazado_796643" data-name="Trazado 796643" d="M521.368,203.054c-.145.1-.768-.585-1.808-.79s-1.9.162-1.992.013c-.044-.068.123-.271.5-.446a2.7,2.7,0,0,1,1.626-.166,2.593,2.593,0,0,1,1.407.786c.271.309.333.558.263.6" transform="translate(-242.399 -94.424)" fill="#263238"/>
            <path id="Trazado_796644" data-name="Trazado 796644" d="M503.049,205.344a.984.984,0,0,1-1.125.788.941.941,0,0,1-.821-1.069.985.985,0,0,1,1.125-.789.943.943,0,0,1,.822,1.07" transform="translate(-234.685 -95.666)" fill="#263238"/>
            <path id="Trazado_796645" data-name="Trazado 796645" d="M502.09,199.581c-.146.1-.769-.585-1.808-.79s-1.9.162-1.992.013c-.044-.068.122-.271.5-.446a2.7,2.7,0,0,1,1.626-.166,2.6,2.6,0,0,1,1.407.786c.269.309.333.558.263.6" transform="translate(-233.37 -92.797)" fill="#263238"/>
            <path id="Trazado_796646" data-name="Trazado 796646" d="M509.638,209.053a7.018,7.018,0,0,1,1.748.032c.271.026.532.023.613-.149a1.373,1.373,0,0,0-.02-.821q-.182-1.038-.381-2.177a35.434,35.434,0,0,1-.706-5.635,35.438,35.438,0,0,1,1.158,5.565q.181,1.142.346,2.182a1.568,1.568,0,0,1-.07,1.069.679.679,0,0,1-.513.3,1.839,1.839,0,0,1-.463-.028,6.91,6.91,0,0,1-1.711-.339" transform="translate(-238.688 -93.811)" fill="#263238"/>
            <path id="Trazado_796647" data-name="Trazado 796647" d="M503.336,216.963c.171.024-.052,1.152.753,2.145s2.03,1.109,2.008,1.268c0,.074-.311.166-.821.078a2.864,2.864,0,0,1-1.688-1,2.494,2.494,0,0,1-.559-1.784c.052-.48.233-.734.309-.712" transform="translate(-235.586 -101.614)" fill="#263238"/>
            <path id="Trazado_796648" data-name="Trazado 796648" d="M503.217,192.184c-.159.262-1.17-.079-2.417-.175-1.246-.122-2.3.038-2.412-.247-.048-.136.177-.367.629-.561a4.213,4.213,0,0,1,3.678.322c.411.27.592.536.522.662" transform="translate(-233.416 -89.417)" fill="#12263f"/>
            <path id="Trazado_796649" data-name="Trazado 796649" d="M522.047,197.216c-.23.2-.9-.189-1.755-.372-.851-.213-1.62-.159-1.739-.439-.05-.135.112-.348.475-.508a2.6,2.6,0,0,1,2.816.654c.255.3.307.566.2.665" transform="translate(-242.859 -91.668)" fill="#12263f"/>
            <path id="Trazado_796650" data-name="Trazado 796650" d="M478.81,202.878c-.105-.073-4.37-2.3-5.146,2.349s4.053,4.47,4.084,4.338,1.062-6.688,1.062-6.688" transform="translate(-221.8 -94.738)" fill="#ffbe9d"/>
            <path id="Trazado_796651" data-name="Trazado 796651" d="M477.692,208.843c-.018-.018-.091.043-.238.083a.821.821,0,0,1-.608-.088,2.033,2.033,0,0,1-.627-1.953,2.713,2.713,0,0,1,.42-1.122.949.949,0,0,1,.713-.52.417.417,0,0,1,.441.3c.041.14,0,.228.019.24s.113-.061.107-.259a.523.523,0,0,0-.134-.322.62.62,0,0,0-.428-.193,1.155,1.155,0,0,0-.967.58,2.786,2.786,0,0,0-.5,1.249,2.133,2.133,0,0,0,.847,2.206.88.88,0,0,0,.761,0c.163-.091.2-.191.19-.2" transform="translate(-222.871 -96.014)" fill="#eb996e"/>
            <path id="Trazado_796652" data-name="Trazado 796652" d="M508.357,178.9c-.8,1.719-4.9,2.382-7.91,1.475-2.774-.837-3.779-2.6-5.544-4.132-1.116-.971-1.116-.971-2.938-1.16-1.472-.152-2.654,1.314-3.767,2.29.619,3.7-1.024,7.356-2.626,10.744a1.873,1.873,0,0,1-.751.959c-.631.311-1.383-.181-1.76-.775a5.82,5.82,0,0,1-.652-3.264,19.388,19.388,0,0,1,1.542-7.487,13.2,13.2,0,0,1,4.862-5.822,12.505,12.505,0,0,1,9.25-1.532,15.358,15.358,0,0,1,8.109,4.868,9,9,0,0,1,2.185,3.836" transform="translate(-225.934 -79.572)" fill="#12263f"/>
            <path id="Trazado_796653" data-name="Trazado 796653" d="M513.4,203.865c.04,0,.026-.4.212-1.081a4.489,4.489,0,0,1,1.647-2.39,4.375,4.375,0,0,1,4.116-.593,4.289,4.289,0,0,1,2,1.513,4.307,4.307,0,0,1,0,5.1,4.284,4.284,0,0,1-2,1.514,4.376,4.376,0,0,1-4.117-.593,4.489,4.489,0,0,1-1.646-2.39c-.186-.68-.172-1.083-.212-1.081a.85.85,0,0,0-.023.289,3.478,3.478,0,0,0,.093.827,4.48,4.48,0,0,0,1.627,2.566,4.635,4.635,0,0,0,6.577-.914,4.644,4.644,0,0,0,0-5.538,4.634,4.634,0,0,0-6.575-.914,4.481,4.481,0,0,0-1.627,2.566,3.478,3.478,0,0,0-.093.827.85.85,0,0,0,.023.289" transform="translate(-240.438 -93.297)" fill="#263238"/>
            <path id="Trazado_796654" data-name="Trazado 796654" d="M492.651,200.241c.04,0,.026-.4.212-1.081a4.488,4.488,0,0,1,1.646-2.391,4.376,4.376,0,0,1,4.116-.592,4.288,4.288,0,0,1,2,1.513,4.308,4.308,0,0,1,0,5.1,4.281,4.281,0,0,1-2,1.514,4.377,4.377,0,0,1-4.117-.593,4.49,4.49,0,0,1-1.645-2.39c-.186-.68-.172-1.083-.212-1.081a.846.846,0,0,0-.023.289,3.451,3.451,0,0,0,.093.827,4.484,4.484,0,0,0,1.627,2.566,4.636,4.636,0,0,0,6.577-.914,4.647,4.647,0,0,0,0-5.538,4.635,4.635,0,0,0-6.576-.913,4.483,4.483,0,0,0-1.627,2.566,3.451,3.451,0,0,0-.093.827.846.846,0,0,0,.023.289" transform="translate(-230.72 -91.6)" fill="#263238"/>
            <path id="Trazado_796655" data-name="Trazado 796655" d="M509.763,204.285c.047.094.638-.183,1.326.028s1.03.761,1.121.708c.044-.02.022-.2-.133-.431a1.653,1.653,0,0,0-1.964-.591c-.259.11-.374.245-.349.286" transform="translate(-238.745 -95.488)" fill="#263238"/>
            <path id="Trazado_796656" data-name="Trazado 796656" d="M480.915,201.893a29.246,29.246,0,0,0,6.62-.093,29.244,29.244,0,0,0-6.62.093" transform="translate(-225.236 -94.444)" fill="#263238"/>
            <path id="Trazado_796657" data-name="Trazado 796657" d="M526.313,178.473a1.321,1.321,0,0,1-.072.443,2.18,2.18,0,0,1-.7,1,3.084,3.084,0,0,1-1.673.685,8.394,8.394,0,0,1-2.218-.116,37.973,37.973,0,0,1-3.947-.8c-.5-.13-.9-.245-1.175-.329l-.316-.1a.466.466,0,0,1-.108-.043.46.46,0,0,1,.114.021l.322.081,1.182.295c1,.24,2.391.535,3.944.763a8.562,8.562,0,0,0,2.19.124,3.05,3.05,0,0,0,1.635-.644,2.21,2.21,0,0,0,.706-.955,4.345,4.345,0,0,0,.113-.429" transform="translate(-241.718 -83.587)" fill="#fff"/>
            <path id="Trazado_796658" data-name="Trazado 796658" d="M531.118,180.458a4.271,4.271,0,0,1-.4,1.272,5.44,5.44,0,0,1-5.245,3.136,4.25,4.25,0,0,1-1.309-.251,3.01,3.01,0,0,1,.35.066,5.832,5.832,0,0,0,.962.107,5.523,5.523,0,0,0,5.171-3.092,5.851,5.851,0,0,0,.362-.9,2.917,2.917,0,0,1,.107-.341" transform="translate(-245.492 -84.517)" fill="#fff"/>
          </g>
        </g>
      </g>
    </g>
  </g>
</svg>
