<svg xmlns="http://www.w3.org/2000/svg" xmlns:xlink="http://www.w3.org/1999/xlink" width="116.406" height="116.416" viewBox="0 0 116.406 116.416"><defs><clipPath id="a"><rect width="116.406" height="116.416" fill="none"/></clipPath></defs><g clip-path="url(#a)"><path d="M155.527,334.787c-1.016-.551-2.158-.276-3.227-.414a38.193,38.193,0,0,1-12.512-3.393,7.155,7.155,0,0,1-4.038-4.1,7.035,7.035,0,0,1-.191-2.172q-.016-14.311-.007-28.623a6.925,6.925,0,0,1,5.083-7.037,48.88,48.88,0,0,1,6.428-2.027,6.528,6.528,0,0,0,2.347-.762c.515-.319,1.249.092,1.958.012a63.754,63.754,0,0,1,13.777-.54,70.537,70.537,0,0,1,11.183,1.654,23.529,23.529,0,0,1,7.145,3.021A6.3,6.3,0,0,1,186.421,296q0,14.311,0,28.623c0,2.82-1.512,4.632-3.891,5.979a27.824,27.824,0,0,1-9.025,3.129,43.468,43.468,0,0,1-6.252.838c-.382.01-.856-.258-1.163.219ZM180.421,293c-.034-.131-.091-.23-.254-.184-2.125-1.508-4.894-1.361-7.065-2.75-.2-.127-.26.083-.39.119a3.2,3.2,0,0,1-1.66-.023,26.549,26.549,0,0,0-5.711-.613,55.364,55.364,0,0,0-7.915-.109,75.436,75.436,0,0,0-9.682,1.224,23.151,23.151,0,0,0-7.575,2.875c-1.241.808-1.254,1.861-.038,2.7a16.97,16.97,0,0,0,3.827,1.956c5.411,1.974,11.076,2.379,16.733,2.487a60.163,60.163,0,0,0,8.869-.569,73.8,73.8,0,0,0,7.591-1.644,10.542,10.542,0,0,0,3.681-1.7l.267-.181c.324-.259.661-.5.968-.782.351-.319.665-.823.392-1.184-.527-.7-1-1.556-2.047-1.631Zm2.178,17.3.075-.038-.029-.077q.01-4.861.021-9.722l.019-.078-.077-.031c-.706-.085-1.185.392-1.731.7a37.261,37.261,0,0,1-3.814,1.272,34.981,34.981,0,0,1-7.669,1.4c-1.57.057-3.225.525-4.855.53-4.347.014-8.706.244-13.028-.451a43.346,43.346,0,0,1-7.026-1.489,34.478,34.478,0,0,1-5.18-2.024c0,3.249.008,6.338-.006,9.427a2.033,2.033,0,0,0,.872,1.809,18.528,18.528,0,0,0,3.865,1.929,40.326,40.326,0,0,0,12.174,2.254,65.268,65.268,0,0,0,12.138-.218c1.017-.126,2.053-.156,3.079-.358,1.495-.294,2.975-.672,4.434-1.06a13.465,13.465,0,0,0,5.028-2.123A3.257,3.257,0,0,0,182.6,310.3m-2.436,17.4c.5.18.54-.4.881-.543a2.66,2.66,0,0,0,1.639-2.765c-.052-2.375,0-4.752-.027-7.128-.007-.556.321-1.36-.192-1.616s-1.084.354-1.6.659a58.776,58.776,0,0,1-7.367,2.133,50.285,50.285,0,0,1-9.129,1.052,78.129,78.129,0,0,1-9.8-.17c-2.584-.294-5.146-.627-7.692-1.176a30.8,30.8,0,0,1-7.576-2.708c0,2.982.113,5.829-.042,8.663a3.273,3.273,0,0,0,2.131,3.421c4.769,2.438,9.947,3.222,15.171,3.439a64.536,64.536,0,0,0,12.668-.366c3.764-.586,7.478-1.2,10.931-2.894" transform="translate(-103.665 -218.371)"/><path d="M0,54.787a26.708,26.708,0,0,1,2.109-5.875A18.938,18.938,0,0,1,9.62,41.373,17.762,17.762,0,0,1,18.207,39.1a18.462,18.462,0,0,1,16.057,8.6A16.822,16.822,0,0,1,37.1,56.914a16.476,16.476,0,0,1-1,6.971c-1.209,2.726-2.525,5.42-4.871,7.473a21.78,21.78,0,0,1-8.014,4.364,15.887,15.887,0,0,1-10.994-.391C5.827,72.673,1.4,68.032.226,60.865c-.013-.08-.148-.141-.226-.21V57.369a.568.568,0,0,0,0-.939Zm23.275,4.736c-.719.106-1.957-.421-2.573.193s-.155,1.854-.191,2.818a3.689,3.689,0,0,0,.136,1.929c.311.483,1.156.1,1.759.184a10.663,10.663,0,0,1,1.1.261c1.262.326,1.782-.316,2.058-1.377.248-.952.434-1.922.73-2.858.326-1.032-.055-1.287-1.026-1.164a17.5,17.5,0,0,1-1.993.013m-9.35,0c-.917,0-1.658.036-2.395-.011-.585-.037-.731.179-.7.735a17.132,17.132,0,0,0,1.16,4.45c.141.413.461.45.936.309a6.3,6.3,0,0,1,2.353-.328c1.3.134,1.646-.408,1.472-1.561-.029-.19.007-.389-.006-.583-.063-.962.412-2.2-.191-2.815s-1.851-.1-2.633-.2m-.207-3.752c.781,0,1.563-.019,2.343.007.478.016.714-.1.7-.644-.032-1.21-.007-2.421-.012-3.631,0-.269.022-.6-.383-.583a13.534,13.534,0,0,1-3.9-.56c-.234-.062-.383.007-.507.3a21.728,21.728,0,0,0-1.145,3.9c-.164.766-.043,1.388,1.037,1.227a12.93,12.93,0,0,1,1.872-.017m9.725.04c0-.013,0-.027,0-.04.74,0,1.482-.029,2.221.01.528.028.65-.176.628-.672a16.044,16.044,0,0,0-.956-3.852c-.2-.668-.412-1.129-1.334-.749a5.621,5.621,0,0,1-1.558.29c-1.944.162-1.971.164-1.933,2.011.02.959-.436,2.227.219,2.787.557.477,1.782.174,2.712.215m8.071.148c.58,0,.971,0,1.362,0,.253,0,.5-.039.436-.37A14.539,14.539,0,0,0,30.557,48.9c-.4-.495-.987-.168-1.483.027-.519.2-.362.5-.238.924a21.206,21.206,0,0,1,1.136,4.6c.08,1.374.5,1.747,1.542,1.511M3.8,59.8c.062.371.115.743.187,1.111a16.231,16.231,0,0,0,2.385,5.463c.5.8,1.132.207,1.661.075s.526-.634.3-1.057A27.126,27.126,0,0,1,7.3,62.147c-.307-.781.159-2-.619-2.345s-1.834-.056-2.769-.043A.358.358,0,0,0,3.8,59.8m1.821-4.028c.278-.44,1.326.657,1.4-.552a24.7,24.7,0,0,1,1.213-5.2c.089-.319.714-.739-.021-.933-.542-.144-1.019-.876-1.767-.021a13.311,13.311,0,0,0-2.4,4.957c-.477,1.478-.187,1.744,1.578,1.744m27.639,3.943c-.917,0-1.773.018-2.628-.008-.442-.013-.559.13-.618.585a19.3,19.3,0,0,1-1.1,4.741c-.163.409-.74,1.067.148,1.48a1.28,1.28,0,0,0,1.886-.546,15.254,15.254,0,0,0,2.311-6.252M22.984,46.988c-.741-.864-1.305-1.523-1.872-2.181-.335-.388-.642-.328-.674.167a4.672,4.672,0,0,0,.113,2.168c.249.526.937-.222,1.469-.109a4.814,4.814,0,0,0,.964-.045m-6.323-2.634a4.358,4.358,0,0,0-1.727,1.726c-.136.266-.792.382-.414.754.438.429,1.081.282,1.677.229.459-.041.472-.261.467-.6-.01-.641,0-1.283,0-2.112m3.823,23.807v2.794c.9-.875,1.8-1.441,2.207-2.518a6.086,6.086,0,0,1-2.207-.276m-3.96,2.634c.244-2.678.552-2.581-2.08-2.236a6.46,6.46,0,0,0,2.08,2.236M26.77,45.347c-.056-.085-.108-.256-.209-.294-.2-.073-.256.122-.236.258a.49.49,0,0,0,.2.347c.234.1.175-.139.244-.312" transform="translate(0 -29.898)"/><path d="M0,112.786a.568.568,0,0,1,0,.939Z" transform="translate(0 -86.254)" fill="#010101"/><path d="M371.15,51.522c0,6.92-.017,13.839.009,20.759a5.347,5.347,0,0,1-3.441,5.483,2.708,2.708,0,0,1-1.092.22q-14.483-.028-28.966-.01a4.939,4.939,0,0,1-4.521-4.937,11.245,11.245,0,0,0,.1-1.51q.007-20.583-.011-41.166c0-2.04.384-3.817,2.225-4.991a5.5,5.5,0,0,1,3.086-.682q9.265.007,18.53,0c2.854,0,5.709.053,8.561-.014a5.109,5.109,0,0,1,5.526,5.5q0,10.673,0,21.345m-3.989-22.078c-.052-1-.745-1-1.494-1q-12.789.014-25.579.006c-3.129,0-3.129,0-3.129,3.2q0,20.065,0,40.13c0,2.429,0,2.429,2.49,2.429,4.38,0,8.761.007,13.141,0,3.988-.009,7.976-.035,11.964-.054,1.972.259,2.884.286,2.872-2.413-.064-13.662-.027-27.324-.04-40.986,0-.435.212-.936-.223-1.309" transform="translate(-254.752 -18.871)"/><path d="M203.662,28.175c0,5.865-.013,11.731.018,17.6a5.261,5.261,0,0,1-.28,1.8,1.7,1.7,0,0,1-1.7,1.259c-10.44-.029-20.88-.02-31.319-.024-1.654,0-2.3-.707-2.2-2.343.024-.387-.044-.778-.045-1.167q0-21.174,0-42.348V2.833c0-2.5.32-2.82,2.783-2.82,7.39,0,14.78.011,22.17-.013a3.526,3.526,0,0,1,2.664,1.113q3.385,3.416,6.8,6.8a3.512,3.512,0,0,1,1.121,2.665c-.025,5.865-.012,11.731-.012,17.6M173.176,3.8c-.963-.2-1.319.054-1.315,1.169q.071,19.451,0,38.9c0,1.114.34,1.378,1.316,1.146q12.9.017,25.79.045c.717,0,.95-.248.949-.957q-.04-16.061-.044-32.123c.042-.161,0-.255-.186-.221-1.873-.016-3.746-.021-5.619-.053-1.554-.026-2.09-.562-2.107-2.116-.019-1.679-.027-3.359.008-5.038.012-.579-.1-.809-.753-.805-6.013.037-12.026.038-18.04.049m22.56,2.719c-.04,1.544-.04,1.544,1.161,1.317a5.076,5.076,0,0,0-1.161-1.317" transform="translate(-128.583 0)"/><path d="M45.52,264.752c.377-.558,1.177-.471,1.606-.986-.27-.361-.607-.208-.887-.21-2.735-.014-5.471,0-8.206-.009-2.086,0-2.441-.35-2.441-2.386q0-16.53,0-33.06c0-.312.029-.626.017-.937a1.456,1.456,0,0,1,1.518-1.645,1.832,1.832,0,0,1,2.052,1.427,10.609,10.609,0,0,1,.16,1.728c.009,10,.021,20.008-.017,30.011,0,.946.269,1.163,1.159,1.126,1.833-.076,3.671-.039,5.507-.049.338.367.694.272,1.114.1a1.04,1.04,0,0,0-1.059-.565c-.291-.5-.823-.783-1.066-1.351a1.806,1.806,0,0,1,.3-2.013,1.587,1.587,0,0,1,1.863-.516c1.469.511,2.484,1.715,3.788,2.484,1.142.674,2.254,1.4,3.355,2.142a1.957,1.957,0,0,1,.055,3.229c-2.146,1.472-4.293,2.944-6.481,4.351-.8.515-1.7.813-2.505-.133a1.79,1.79,0,0,1-.019-2.557l.182-.181" transform="translate(-27.218 -172.46)"/><path d="M376.428,295.848c.122.327.465.363.7.539a1.844,1.844,0,0,1,.707,2.5,2.015,2.015,0,0,1-2.467.824c-2.325-1.607-4.88-2.9-6.968-4.825a1.867,1.867,0,0,1,.345-3.187c2.056-1.154,3.848-2.669,5.8-3.962,1.611-1.069,2.889-.718,3.354.917a1.9,1.9,0,0,1-1.042,2.195,2.343,2.343,0,0,0-.978.749c2.559,0,4.943,0,7.327,0,.666,0,.479-.483.482-.829.012-1.954.005-3.908.006-5.862,0-5.393.014-10.786-.007-16.179a1.36,1.36,0,0,1,.988-1.5c.827-.146,1.867-.36,2.4.641a3.8,3.8,0,0,1,.379,1.772q0,11.724-.008,23.448a2.068,2.068,0,0,1-2.308,2.265q-4.337.023-8.674.031c-.221-.054-.595-.13-.615.046-.034.3.29.4.584.413" transform="translate(-281.172 -204.271)"/><path d="M224.887,219.49c.512-.206.575-.783.94-1.131a1.85,1.85,0,0,1,2.4-.275,1.555,1.555,0,0,1,.53,2.359c-1.289,2.156-2.714,4.219-4.2,6.238-.268.363-.585.713-.872,1.058-.558.671-1.336.539-2.006-.056a9.005,9.005,0,0,1-1.461-1.905c-1.065-1.62-2.2-3.2-3.325-4.774a2.239,2.239,0,0,1-.449-1.025c-.107-.817-.01-1.739.754-2.02a2.117,2.117,0,0,1,2.551.476c.334.4.487.964,1.162,1.306,0-2.133-.005-4.174,0-6.215.006-1.679.49-2.128,2.151-2.022.894.057,1.584,1,1.6,2.226.023,1.913.024,3.827.035,5.741,0,.06.007.119.011.178l.176-.158" transform="translate(-165.502 -161.738)" fill="#010101"/><path d="M79.845,369.142a1.04,1.04,0,0,1,1.059.564c-.42.175-.776.269-1.114-.1l.055-.467" transform="translate(-61.02 -282.304)" fill="#222"/><path d="M403.022,387.588c-.294-.008-.619-.117-.584-.413.021-.176.395-.1.615-.046l-.031.459" transform="translate(-307.766 -296.011)" fill="#d0d0d5"/><path d="M251.837,245.391l-.176.158c0-.06-.007-.119-.011-.178a.2.2,0,0,1,.187.02" transform="translate(-192.451 -187.638)" fill="#d0d0d5"/><path d="M77.169,392.294l-.182.181q-.056-.239.182-.181" transform="translate(-58.868 -300.001)" fill="#010101"/><path d="M193.066,359.908a13.467,13.467,0,0,1-5.029,2.124c-1.458.388-2.938.767-4.434,1.06-1.026.2-2.062.231-3.079.358a65.268,65.268,0,0,1-12.138.217,40.308,40.308,0,0,1-12.174-2.254,18.515,18.515,0,0,1-3.865-1.929,2.033,2.033,0,0,1-.872-1.81c.014-3.089.006-6.178.006-9.427a34.459,34.459,0,0,0,5.18,2.024,43.352,43.352,0,0,0,7.027,1.489c4.322.7,8.681.465,13.028.451,1.63-.005,3.285-.473,4.855-.53a34.994,34.994,0,0,0,7.669-1.4,37.224,37.224,0,0,0,3.814-1.272q.006,5.449.012,10.9m-20.185-.076c0,.021,0,.042,0,.063.742,0,1.486.021,2.227,0a1.876,1.876,0,1,0,.168-3.713c-1.6-.062-3.206-.063-4.8.032a1.561,1.561,0,0,0-1.6,1.713c0,1.114.505,1.8,1.552,1.9.813.072,1.637.014,2.456.014" transform="translate(-115.842 -266.324)" fill="#f0dcc0"/><path d="M192.2,424.913c-3.453,1.691-7.168,2.309-10.931,2.895a64.55,64.55,0,0,1-12.668.366c-5.224-.217-10.4-1-15.171-3.439a3.273,3.273,0,0,1-2.131-3.421c.155-2.833.041-5.681.041-8.663a30.809,30.809,0,0,0,7.576,2.709c2.546.549,5.108.883,7.692,1.176a78.086,78.086,0,0,0,9.8.169,50.29,50.29,0,0,0,9.129-1.052,58.8,58.8,0,0,0,7.367-2.133c-.321,3.793.747,7.671-.7,11.394m-19.32-.6a12.541,12.541,0,0,0,2.916-.044,1.728,1.728,0,0,0,1.317-1.8,1.5,1.5,0,0,0-1.2-1.558,20.08,20.08,0,0,0-5.55-.219,1.746,1.746,0,0,0-1.621,1.9,1.64,1.64,0,0,0,1.568,1.691,18.713,18.713,0,0,0,2.572.025" transform="translate(-115.701 -315.578)" fill="#f0dcc0"/><path d="M192.788,309.088a10.543,10.543,0,0,1-3.681,1.7,73.8,73.8,0,0,1-7.591,1.644,60.192,60.192,0,0,1-8.869.569c-5.657-.108-11.322-.512-16.733-2.487a16.965,16.965,0,0,1-3.826-1.956c-1.216-.836-1.2-1.89.038-2.7a23.152,23.152,0,0,1,7.575-2.875,75.47,75.47,0,0,1,9.682-1.224,55.4,55.4,0,0,1,7.915.109,26.582,26.582,0,0,1,5.711.613,3.2,3.2,0,0,0,1.659.023c.13-.036.192-.246.39-.119,2.17,1.389,4.939,1.242,7.065,2.75l.254.184-.009-.009a7.943,7.943,0,0,1,.474,3.569,1.182,1.182,0,0,1-.054.21" transform="translate(-115.62 -230.686)" fill="#f4a338"/><path d="M325.194,425.4c1.451-3.723.383-7.6.7-11.394.513-.3,1.1-.909,1.6-.659s.185,1.06.192,1.616c.03,2.376-.024,4.753.027,7.128a2.66,2.66,0,0,1-1.639,2.765c-.341.147-.383.723-.881.543" transform="translate(-248.695 -316.068)" fill="#e3bf8d"/><path d="M328.237,360.077q-.006-5.449-.012-10.9c.547-.309,1.025-.786,1.73-.7,0,0-.009.082-.009.082l.068.029q-.011,4.861-.021,9.721l-.066.039.019.078a3.258,3.258,0,0,1-1.711,1.652" transform="translate(-251.013 -266.493)" fill="#e3bf8d"/><path d="M326.726,320.791a7.94,7.94,0,0,0-.474-3.569c1.049.076,1.52.936,2.047,1.631.273.361-.041.866-.392,1.184-.306.278-.644.523-.968.782a.21.21,0,0,0-.214-.029" transform="translate(-249.504 -242.598)" fill="#de9533"/><path d="M325.464,316.626l-.254-.184c.163-.047.22.052.254.184" transform="translate(-248.707 -241.993)" fill="#f9cc57"/><path d="M335.612,348.619l-.068-.029s.007-.082.008-.082l.079.032Z" transform="translate(-256.61 -266.525)" fill="#675e68"/><path d="M335.485,390.418l-.019-.078.066-.039.029.078Z" transform="translate(-256.55 -298.487)" fill="#675e68"/><path d="M328.092,332.337a.21.21,0,0,1,.214.029l-.267.181a1.192,1.192,0,0,0,.054-.21" transform="translate(-250.87 -254.144)" fill="#010101"/><path d="M89.525,125.577a17.5,17.5,0,0,0,1.993-.013c.972-.124,1.352.132,1.026,1.164-.3.936-.482,1.906-.73,2.858-.276,1.06-.8,1.7-2.058,1.377a10.655,10.655,0,0,0-1.1-.261c-.6-.089-1.449.3-1.759-.184a3.684,3.684,0,0,1-.136-1.929c.036-.964-.427-2.2.191-2.818s1.854-.087,2.573-.193" transform="translate(-66.249 -95.952)" fill="#4adbd1"/><path d="M49.133,125.57c.782.1,2.024-.425,2.633.2s.128,1.853.191,2.815c.013.194-.023.393.006.583.174,1.153-.169,1.7-1.472,1.561a6.3,6.3,0,0,0-2.353.328c-.476.14-.8.1-.936-.309a17.132,17.132,0,0,1-1.16-4.45c-.035-.556.112-.773.7-.735.736.047,1.478.011,2.395.011" transform="translate(-35.207 -95.945)" fill="#4adbd1"/><path d="M48.665,92.328a12.866,12.866,0,0,0-1.872.016c-1.08.16-1.2-.462-1.037-1.227a21.727,21.727,0,0,1,1.144-3.9c.124-.294.273-.363.507-.3a13.532,13.532,0,0,0,3.9.56c.4-.013.381.314.382.583.005,1.211-.02,2.422.012,3.631.014.542-.222.661-.7.644-.78-.026-1.562-.007-2.343-.007" transform="translate(-34.946 -66.454)" fill="#4adbd1"/><path d="M89.687,92.473c-.929-.042-2.155.261-2.712-.216-.655-.561-.2-1.829-.219-2.787-.038-1.847-.011-1.849,1.933-2.011a5.62,5.62,0,0,0,1.558-.29c.923-.379,1.135.081,1.334.749a16.046,16.046,0,0,1,.956,3.852c.022.5-.1.7-.628.672-.738-.039-1.48-.01-2.221-.01,0,.013,0,.027,0,.04" transform="translate(-66.244 -66.558)" fill="#4adbd1"/><path d="M124.861,86.988c-1.04.237-1.463-.137-1.542-1.511a21.214,21.214,0,0,0-1.136-4.6c-.124-.422-.281-.72.237-.924.5-.2,1.078-.522,1.483-.027a14.536,14.536,0,0,1,2.756,6.692c.064.331-.183.37-.436.369-.391,0-.782,0-1.362,0" transform="translate(-93.346 -60.926)" fill="#4adbd1"/><path d="M16.173,126.565a.355.355,0,0,1,.109-.042c.935-.013,1.995-.3,2.769.043s.312,1.564.619,2.345a27.135,27.135,0,0,0,1.033,3.246c.229.422.226.926-.3,1.057s-1.161.721-1.66-.075a16.231,16.231,0,0,1-2.386-5.463c-.072-.368-.125-.741-.187-1.111" transform="translate(-12.368 -96.663)" fill="#4adbd1"/><path d="M18.117,86.877c-1.766,0-2.055-.266-1.578-1.744a13.311,13.311,0,0,1,2.4-4.957c.748-.855,1.225-.123,1.767.021.734.195.109.615.021.933a24.681,24.681,0,0,0-1.213,5.2c-.07,1.21-1.118.112-1.4.552" transform="translate(-12.492 -61.003)" fill="#4adbd1"/><path d="M126.19,126.726a15.257,15.257,0,0,1-2.311,6.252,1.28,1.28,0,0,1-1.886.546c-.888-.413-.311-1.071-.148-1.48a19.3,19.3,0,0,0,1.1-4.741c.059-.455.176-.6.618-.585.855.026,1.711.008,2.629.008" transform="translate(-92.925 -96.908)" fill="#4adbd1"/><path d="M89.2,64.733a4.838,4.838,0,0,1-.964.046c-.531-.114-1.219.635-1.469.109a4.669,4.669,0,0,1-.113-2.168c.032-.5.339-.555.674-.167.567.657,1.131,1.317,1.872,2.181" transform="translate(-66.22 -47.644)" fill="#4adbd1"/><path d="M63.492,61.449c0,.829-.007,1.471,0,2.112.005.336-.008.556-.467.6-.6.054-1.239.2-1.676-.229-.379-.372.277-.488.414-.754a4.358,4.358,0,0,1,1.727-1.726" transform="translate(-46.83 -46.994)" fill="#4adbd1"/><path d="M87.08,162.651a6.086,6.086,0,0,0,2.207.276c-.41,1.078-1.3,1.644-2.207,2.519Z" transform="translate(-66.595 -124.389)" fill="#4adbd1"/><path d="M63.487,166.006a6.458,6.458,0,0,1-2.08-2.236c2.632-.345,2.324-.443,2.08,2.236" transform="translate(-46.962 -125.11)" fill="#4adbd1"/><path d="M112.339,64.663c-.069.173-.01.41-.244.312a.49.49,0,0,1-.2-.347c-.02-.136.037-.331.236-.258.1.037.153.209.209.294" transform="translate(-85.569 -49.215)" fill="#010101"/><path d="M377.049,86.409c-3.988.019-7.976.045-11.964.054-4.38.009-8.761,0-13.141,0-2.494,0-2.49,0-2.489-2.429q0-20.065,0-40.13c0-3.2,0-3.2,3.129-3.2q12.789,0,25.578-.006c.749,0,1.442,0,1.494,1-.411.385-.226.886-.227,1.331q-.016,19.824,0,39.648a2.973,2.973,0,0,1-1.842,3.086c-.331.138-.549.267-.539.642M364.636,64.62c2.579,0,5.159.017,7.738-.005,2.118-.018,2.9-.943,2.579-3.035a10.447,10.447,0,0,0-4.785-7.593c-.5-.318-.513-.407-.22-.906a6.126,6.126,0,0,0-4.553-9.2,6.1,6.1,0,0,0-6.042,9.1c.263.435.335.663-.19,1a10.294,10.294,0,0,0-4.779,7.108c-.365,2.039-.077,3.6,2.747,3.544,2.5-.053,5-.011,7.5-.012m-.072,16.507c3.128,0,6.257.011,9.385,0a1.739,1.739,0,0,0,1.96-2.018c-.034-1.157-.794-1.725-2.4-1.727q-8.8-.013-17.6-.006a3.726,3.726,0,0,0-1.128.2c-1.215.377-1.641.889-1.393,2.1a1.717,1.717,0,0,0,1.9,1.461c3.089-.032,6.178-.011,9.268-.009m.116-6.861c3.084,0,6.169.026,9.252-.012a1.756,1.756,0,0,0,1.97-2.033c-.04-1.158-.65-1.69-2.032-1.694-3.9-.012-7.808,0-11.712,0-2.3,0-4.607-.025-6.91.012a1.82,1.82,0,0,0-1.631,2.853,2.231,2.231,0,0,0,2.161.876c2.967.011,5.934,0,8.9,0" transform="translate(-267.249 -31.128)" fill="#e8e8e8"/><path d="M466.757,89.654c-.01-.376.208-.5.539-.642a2.973,2.973,0,0,0,1.842-3.086q-.021-19.824,0-39.648c0-.446-.185-.947.227-1.332.435.372.223.874.223,1.309.013,13.662-.024,27.324.04,40.986.012,2.7-.9,2.671-2.872,2.413" transform="translate(-356.956 -34.373)" fill="#675e68"/><path d="M216.26,24.184q.017,16.062.044,32.123c0,.708-.231.959-.949.957q-12.895-.043-25.79-.045,0-20.609,0-41.217c6.013-.011,12.026-.012,18.039-.049.653,0,.765.226.753.805-.034,1.679-.026,3.359-.008,5.038.017,1.554.553,2.09,2.107,2.116,1.873.031,3.746.036,5.619.052l.186.221M202.128,54.205V54.16c2.812,0,5.624.014,8.436-.006,1.382-.01,2.069-.72,1.99-1.966-.07-1.114-.887-1.777-2.247-1.779q-8.027-.01-16.053,0a4.822,4.822,0,0,0-1.243.186,1.65,1.65,0,0,0-1.263,1.873,1.989,1.989,0,0,0,1.946,1.737q4.217,0,8.433,0m-.039-7.626v-.026c2.851,0,5.7.019,8.554-.008A1.925,1.925,0,0,0,212.53,44.1c-.341-1.111-1.3-1.3-2.3-1.3q-7.734-.005-15.468,0a10.085,10.085,0,0,0-1.5.153,2.194,2.194,0,0,0-1.591,1.8,2.166,2.166,0,0,0,1.982,1.817q4.217,0,8.434,0m.023-15.146c2.814,0,5.629.011,8.443-.005a1.8,1.8,0,0,0,2-1.747c.064-1.261-.683-1.992-2.11-2-4.769-.011-9.538,0-14.307,0-.7,0-1.411-.046-2.11.011-1.345.11-2.5,1.012-2.336,1.866a2.247,2.247,0,0,0,2.564,1.909c2.613-.123,5.236-.034,7.855-.035m.117,7.55q4.221,0,8.443,0a1.461,1.461,0,0,0,1.177-.336,1.964,1.964,0,0,0,.653-2.089,2.043,2.043,0,0,0-2.063-1.323c-2.58-.009-5.159,0-7.739,0-2.931,0-5.863-.016-8.794.008a2.132,2.132,0,0,0-2.235,1.986,2.358,2.358,0,0,0,2.232,1.756c2.775.007,5.55,0,8.325,0m-3.168-15.141c0,.02,0,.04,0,.06,1.754,0,3.509-.01,5.264.005a1.558,1.558,0,0,0,1.4-.837c.871-1.418-.062-2.942-1.889-2.969-3.279-.049-6.559-.031-9.839,0-1.36.011-2.354.86-2.327,1.88.029,1.065.976,1.839,2.354,1.86,1.678.025,3.357.006,5.036.006" transform="translate(-144.97 -12.199)" fill="#eceff1"/><path d="M185.29,15.961q0,20.609,0,41.217c-.975.232-1.319-.032-1.316-1.145q.068-19.451,0-38.9c0-1.115.351-1.367,1.314-1.169" transform="translate(-140.697 -12.159)" fill="#d0d0d5"/><path d="M285.426,27.718a5.077,5.077,0,0,1,1.161,1.317c-1.2.227-1.2.227-1.161-1.317" transform="translate(-218.274 -21.198)" fill="#d0d0d5"/><path d="M302.447,50.206l-.186-.221c.19-.034.228.059.186.221" transform="translate(-231.157 -38.221)" fill="#d0d0d5"/><path d="M229.44,385.474c-.819,0-1.643.058-2.456-.014-1.047-.093-1.548-.782-1.552-1.9a1.561,1.561,0,0,1,1.6-1.713c1.6-.1,3.2-.093,4.8-.032a1.876,1.876,0,1,1-.168,3.713c-.742.025-1.485,0-2.227,0,0-.021,0-.042,0-.063" transform="translate(-172.401 -291.966)" fill="#010101"/><path d="M229.6,450.2a18.713,18.713,0,0,1-2.572-.025,1.64,1.64,0,0,1-1.568-1.691,1.746,1.746,0,0,1,1.621-1.9,20.079,20.079,0,0,1,5.55.219,1.5,1.5,0,0,1,1.2,1.558,1.728,1.728,0,0,1-1.317,1.8,12.541,12.541,0,0,1-2.916.044" transform="translate(-172.425 -341.461)"/><path d="M380.253,74.67c-2.5,0-5-.042-7.5.011-2.824.059-3.112-1.505-2.747-3.544a10.293,10.293,0,0,1,4.779-7.108c.525-.333.453-.561.19-1a6.1,6.1,0,0,1,6.042-9.1,6.126,6.126,0,0,1,4.553,9.2c-.293.5-.277.588.22.906a10.449,10.449,0,0,1,4.785,7.593c.318,2.092-.462,3.016-2.579,3.035-2.579.022-5.159.005-7.738.006m6.286-3.783a6.531,6.531,0,0,0-6.466-4.626,6.154,6.154,0,0,0-5.744,3.654c-.323.659-.328.986.549.981,3.854-.021,7.707-.009,11.66-.009m-6.46-8.573a2.179,2.179,0,0,0,2.524-2.2,2.417,2.417,0,0,0-2.251-2.511,2.219,2.219,0,0,0-2.436,2.171,2.162,2.162,0,0,0,2.163,2.541" transform="translate(-282.866 -41.176)" fill="#010101"/><path d="M377.14,200.332c-3.089,0-6.179-.02-9.268.011a1.717,1.717,0,0,1-1.9-1.462c-.248-1.215.178-1.727,1.393-2.1a3.734,3.734,0,0,1,1.128-.2q8.8,0,17.6.006c1.606,0,2.365.57,2.4,1.728a1.739,1.739,0,0,1-1.96,2.018c-3.128.016-6.257,0-9.385,0" transform="translate(-279.825 -150.334)"/><path d="M377.19,171.184c-2.967,0-5.934.007-8.9,0a2.231,2.231,0,0,1-2.161-.876,1.82,1.82,0,0,1,1.631-2.854c2.3-.037,4.607-.012,6.91-.012,3.9,0,7.808-.008,11.712,0,1.382,0,1.992.535,2.032,1.694a1.756,1.756,0,0,1-1.97,2.033c-3.084.038-6.168.012-9.252.014" transform="translate(-279.759 -128.043)"/><path d="M209.222,166.209q-4.217,0-8.433,0a1.989,1.989,0,0,1-1.946-1.737,1.65,1.65,0,0,1,1.263-1.873,4.833,4.833,0,0,1,1.243-.186q8.027-.009,16.053,0c1.359,0,2.177.665,2.247,1.779.078,1.246-.609,1.956-1.99,1.966-2.812.02-5.624.006-8.437.006v.045" transform="translate(-152.063 -124.203)"/><path d="M208.945,133.853q-4.217,0-8.434,0a2.165,2.165,0,0,1-1.982-1.817,2.194,2.194,0,0,1,1.591-1.8,10.116,10.116,0,0,1,1.5-.153q7.734-.017,15.468-.005c1.008,0,1.962.189,2.3,1.3a1.925,1.925,0,0,1-1.886,2.445c-2.851.027-5.7.008-8.554.008v.026" transform="translate(-151.825 -99.473)"/><path d="M208.988,69.513c-2.619,0-5.242-.089-7.855.034a2.247,2.247,0,0,1-2.564-1.909c-.164-.853.991-1.756,2.335-1.866.7-.057,1.406-.011,2.11-.011,4.769,0,9.538-.007,14.306,0,1.427,0,2.174.734,2.11,1.995a1.8,1.8,0,0,1-2,1.747c-2.814.017-5.629.005-8.443.006" transform="translate(-151.845 -50.277)"/><path d="M209.08,101.646c-2.775,0-5.55,0-8.325,0a2.357,2.357,0,0,1-2.232-1.756,2.132,2.132,0,0,1,2.235-1.986c2.931-.023,5.863-.007,8.794-.007,2.58,0,5.16-.006,7.739,0a2.043,2.043,0,0,1,2.063,1.323,1.964,1.964,0,0,1-.653,2.089,1.461,1.461,0,0,1-1.177.336q-4.221,0-8.443,0" transform="translate(-151.82 -74.862)"/><path d="M205.916,37.236c-1.679,0-3.358.019-5.036-.006-1.378-.021-2.325-.8-2.354-1.86-.028-1.02.966-1.869,2.327-1.88,3.279-.026,6.56-.044,9.839,0,1.827.027,2.759,1.551,1.889,2.969a1.558,1.558,0,0,1-1.4.837c-1.754-.016-3.509-.005-5.264-.005,0-.02,0-.04,0-.06" transform="translate(-151.824 -25.592)"/><path d="M400.366,111.237c-3.953,0-7.807-.012-11.66.009-.877,0-.872-.322-.549-.981a6.155,6.155,0,0,1,5.744-3.654,6.531,6.531,0,0,1,6.466,4.626" transform="translate(-296.694 -81.527)" fill="#5573c6"/><path d="M406.2,74.523a2.162,2.162,0,0,1-2.163-2.541,2.219,2.219,0,0,1,2.436-2.171,2.417,2.417,0,0,1,2.251,2.511,2.179,2.179,0,0,1-2.524,2.2" transform="translate(-308.991 -53.386)" fill="#f4a338"/></g></svg>