<svg xmlns="http://www.w3.org/2000/svg" xmlns:xlink="http://www.w3.org/1999/xlink" width="383" height="280" viewBox="0 0 383 280">
  <defs>
    <clipPath id="clip-path">
      <rect id="Rectángulo_35483" data-name="Rectángulo 35483" width="282" height="280" transform="translate(0 0)" fill="#fff" stroke="#707070" stroke-width="1"/>
    </clipPath>
    <clipPath id="clip-path-2">
      <rect id="Rectángulo_366254" data-name="Rectángulo 366254" width="170.451" height="98.398" fill="#afafaf"/>
    </clipPath>
    <linearGradient id="linear-gradient" x1="0.5" x2="0.5" y2="1" gradientUnits="objectBoundingBox">
      <stop offset="0" stop-color="#dedede"/>
      <stop offset="0.517" stop-color="#fff"/>
      <stop offset="1" stop-color="#dedede"/>
    </linearGradient>
    <clipPath id="clip-path-3">
      <rect id="Rectángulo_366257" data-name="Rectángulo 366257" width="35.285" height="20.372" fill="#afafaf"/>
    </clipPath>
  </defs>
  <g id="Grupo_1043413" data-name="Grupo 1043413" transform="translate(-283 -1628)">
    <g id="Grupo_137455" data-name="Grupo 137455" transform="translate(283 1628)">
      <path id="Trazado_766622" data-name="Trazado 766622" d="M79.5,0h224a79.5,79.5,0,0,1,0,159H79.5a79.5,79.5,0,0,1,0-159Z" transform="translate(0 65)" fill="#4adbd1"/>
      <g id="Enmascarar_grupo_72" data-name="Enmascarar grupo 72" transform="translate(48 0)" clip-path="url(#clip-path)">
        <g id="Grupo_133717" data-name="Grupo 133717" transform="translate(4.937 4.936)">
          <g id="Grupo_133713" data-name="Grupo 133713" transform="translate(0 272.242) rotate(-90)">
            <path id="Sustracción_24" data-name="Sustracción 24" d="M0,277.072V0A139.558,139.558,0,0,1,27.92,2.815a137.837,137.837,0,0,1,26,8.072A138.547,138.547,0,0,1,77.457,23.66a139.531,139.531,0,0,1,20.5,16.916,139.531,139.531,0,0,1,16.917,20.5,138.548,138.548,0,0,1,12.773,23.532,137.836,137.836,0,0,1,8.072,26,139.559,139.559,0,0,1,2.815,27.92,139.56,139.56,0,0,1-2.815,27.92,137.835,137.835,0,0,1-8.072,26,138.547,138.547,0,0,1-12.773,23.532A139.531,139.531,0,0,1,97.96,236.5a139.533,139.533,0,0,1-20.5,16.916,138.551,138.551,0,0,1-23.532,12.773,137.839,137.839,0,0,1-26,8.072A139.563,139.563,0,0,1,0,277.072Z" transform="translate(138.536 277.072) rotate(180)" fill="#5573c6"/>
            <path id="Sustracción_25" data-name="Sustracción 25" d="M0,277.071V0A139.558,139.558,0,0,1,27.92,2.815a137.839,137.839,0,0,1,26,8.072A138.549,138.549,0,0,1,77.457,23.66a139.53,139.53,0,0,1,20.5,16.916,139.532,139.532,0,0,1,16.917,20.5,138.547,138.547,0,0,1,12.773,23.532,137.836,137.836,0,0,1,8.072,26,139.559,139.559,0,0,1,2.815,27.92,139.559,139.559,0,0,1-2.815,27.92,137.834,137.834,0,0,1-8.072,26,138.542,138.542,0,0,1-12.773,23.532A139.529,139.529,0,0,1,97.96,236.5a139.528,139.528,0,0,1-20.5,16.916,138.549,138.549,0,0,1-23.532,12.773,137.838,137.838,0,0,1-26,8.072A139.559,139.559,0,0,1,0,277.071Z" transform="translate(133.706 0)" fill="#e8e8e8"/>
          </g>
          <path id="Trazado_151972" data-name="Trazado 151972" d="M123.5,0C191.707,0,247,55.517,247,124S191.707,248,123.5,248,0,192.483,0,124,55.293,0,123.5,0Z" transform="translate(15.063 12.064)" fill="#12263f"/>
          <g id="Grupo_133716" data-name="Grupo 133716" transform="matrix(0.966, -0.259, 0.259, 0.966, 193.394, 208.978)" style="isolation: isolate">
            <g id="Grupo_133714" data-name="Grupo 133714" transform="translate(0 5.215)">
              <path id="Trazado_150984" data-name="Trazado 150984" d="M.083,23.144C.028,22.443,0,21.727,0,21.017A26.761,26.761,0,0,1,10.122,0l.195.244a26.45,26.45,0,0,0-10,20.773c0,.7.028,1.409.082,2.1Z" transform="translate(0 0)" fill="#4adbd1"/>
            </g>
            <g id="Grupo_133715" data-name="Grupo 133715" transform="translate(13.132 0)">
              <path id="Trazado_150985" data-name="Trazado 150985" d="M.16,3.4,0,3.131A26.691,26.691,0,0,1,7.867,0l.068.3A26.368,26.368,0,0,0,.16,3.4Z" transform="translate(0)" fill="#4adbd1"/>
            </g>
            <path id="Trazado_150986" data-name="Trazado 150986" d="M22.486,0A22.486,22.486,0,1,0,44.972,22.486,22.486,22.486,0,0,0,22.486,0Zm0,38.386a15.9,15.9,0,1,1,15.9-15.9A15.9,15.9,0,0,1,22.486,38.386Z" transform="translate(4.391 3.746)" fill="#4adbd1" style="mix-blend-mode: multiply;isolation: isolate"/>
          </g>
          <path id="Trazado_150987" data-name="Trazado 150987" d="M6.338,0a6.338,6.338,0,1,0,6.338,6.338A6.338,6.338,0,0,0,6.338,0Zm0,10.82A4.482,4.482,0,1,1,10.82,6.338,4.482,4.482,0,0,1,6.338,10.82Z" transform="matrix(0.966, -0.259, 0.259, 0.966, 42.89, 15.779)" fill="#0f0140" style="mix-blend-mode: multiply;isolation: isolate"/>
          <circle id="Elipse_5034" data-name="Elipse 5034" cx="6" cy="6" r="6" transform="translate(247.063 204.064)" fill="#dad6f7"/>
          <circle id="Elipse_5035" data-name="Elipse 5035" cx="16.5" cy="16.5" r="16.5" transform="translate(25.063 28.064)" fill="#5573c6"/>
        </g>
      </g>
    </g>
    <g id="Grupo_1037073" data-name="Grupo 1037073" transform="translate(7376 11544)">
      <g id="Grupo_1037072" data-name="Grupo 1037072" transform="translate(606 215.775)">
        <g id="Grupo_1037071" data-name="Grupo 1037071" transform="translate(-7607.438 -10107.108)">
          <path id="Trazado_780802" data-name="Trazado 780802" d="M274.185,153.182l-1.651-.953c-.1-.059-.089-.161.028-.228l1.594-.921a.442.442,0,0,1,.4-.016l1.651.954c.1.058.089.16-.028.228l-1.594.92a.442.442,0,0,1-.4.016" transform="translate(-87.918 -151.024)" fill="#d2e1f1"/>
          <path id="Trazado_780875" data-name="Trazado 780875" d="M263.653,271.259c0,.55-.386.772-.862.5a1.905,1.905,0,0,1-.862-1.492c0-.55.386-.772.862-.5a1.9,1.9,0,0,1,.862,1.492" transform="translate(-86.031 -172.27)" fill="#d2e1f1"/>
          <path id="Trazado_780879" data-name="Trazado 780879" d="M207.731,274.983a3.507,3.507,0,0,0-1.579-2.753c-.875-.508-1.587-.1-1.589.912a3.5,3.5,0,0,0,1.579,2.752c.874.509,1.586.1,1.589-.911" transform="translate(-174.206 -97.489)" fill="#5793ce"/>
          <path id="Trazado_780882" data-name="Trazado 780882" d="M204.8,274.137a.454.454,0,0,0,0-.86,1.644,1.644,0,0,0-1.489,0,.454.454,0,0,0,0,.859,1.647,1.647,0,0,0,1.489,0" transform="translate(-75.478 -172.888)" fill="#d4ecff"/>
          <g id="Grupo_1033261" data-name="Grupo 1033261" transform="translate(0 94.405)" opacity="0.5">
            <g id="Grupo_1033260" data-name="Grupo 1033260">
              <g id="Grupo_1033259" data-name="Grupo 1033259" clip-path="url(#clip-path-2)">
                <path id="Trazado_780883" data-name="Trazado 780883" d="M142.193,363.4,49.426,309.842c-2.624-1.515-2.294-4.162.736-5.911l63.167-36.458c3.03-1.749,7.614-1.939,10.238-.424l92.767,53.559c2.624,1.515,2.3,4.162-.736,5.911l-63.167,36.458c-3.03,1.749-7.614,1.94-10.238.424" transform="translate(-47.655 -266.026)" fill="#afafaf"/>
              </g>
            </g>
          </g>
          <path id="Trazado_780884" data-name="Trazado 780884" d="M186.11,379.017a.538.538,0,0,1-.276-.076L168.08,368.429a.544.544,0,0,1,.555-.937l17.753,10.513a.543.543,0,0,1-.277,1.011" transform="translate(-69.175 -189.78)" fill="#708ac4"/>
          <path id="Trazado_780885" data-name="Trazado 780885" d="M218.1,309.434l-12.68-1.675L123.568,260.5c-2.624-1.515-7.208-1.325-10.238.424l-58,33.475-7.667-1.012v4.351h.007a2.986,2.986,0,0,0,1.76,2.688l92.767,53.559c2.624,1.515,7.208,1.325,10.238-.424L215.6,317.1c1.7-.984,2.555-2.252,2.5-3.443Z" transform="translate(-47.655 -170.448)" fill="url(#linear-gradient)"/>
          <path id="Trazado_780886" data-name="Trazado 780886" d="M156.6,283.223l-5.815-3.357H86.847l-31.52,18.186-7.668-1.012v4.35h.007a2.986,2.986,0,0,0,1.761,2.688l92.767,53.56a9.606,9.606,0,0,0,5.284.99Z" transform="translate(-47.655 -174.1)" fill="url(#linear-gradient)"/>
          <path id="Trazado_780887" data-name="Trazado 780887" d="M51.062,301.235l-3.4-.449v4.35l.007,0a2.984,2.984,0,0,0,1.761,2.687l1.634.944Z" transform="translate(-47.655 -177.847)" fill="url(#linear-gradient)"/>
          <path id="Trazado_780888" data-name="Trazado 780888" d="M163.957,372.9a11.881,11.881,0,0,0,8.7-.54v-9.7h-8.7Z" transform="translate(-68.484 -188.927)" fill="url(#linear-gradient)"/>
          <path id="Trazado_780889" data-name="Trazado 780889" d="M142.193,348.066,49.426,294.507c-2.624-1.515-2.294-4.162.736-5.911l63.167-36.458c3.03-1.749,7.614-1.939,10.238-.424l92.767,53.559c2.624,1.515,2.3,4.162-.736,5.911l-63.167,36.458c-3.03,1.749-7.614,1.94-10.238.424" transform="translate(-47.654 -169.492)" fill="#d2e1f1"/>
          <path id="Trazado_780890" data-name="Trazado 780890" d="M215.6,318.418l-63.167,36.458c-3.03,1.749-7.614,1.939-10.238.424l-92.767-53.56a3.448,3.448,0,0,1-1.631-1.784c-.41,1.241.112,2.5,1.631,3.373l92.767,53.56c2.624,1.515,7.208,1.325,10.238-.424L215.6,320.007c2.037-1.176,2.847-2.757,2.367-4.127a4.936,4.936,0,0,1-2.367,2.537" transform="translate(-47.656 -177.698)" fill="#fff"/>
          <path id="Trazado_780891" data-name="Trazado 780891" d="M96.911,281.108l-4.2-2.423c-.337-.195-.295-.534.094-.759l4.954-2.86a1.461,1.461,0,0,1,1.315-.055l4.2,2.424c.337.195.295.534-.094.759l-4.954,2.861a1.464,1.464,0,0,1-1.315.054" transform="translate(-55.684 -173.207)" fill="#373f51"/>
          <path id="Trazado_780892" data-name="Trazado 780892" d="M104.807,285.667l-4.2-2.423c-.337-.195-.295-.534.094-.759l4.954-2.86a1.461,1.461,0,0,1,1.315-.055l4.2,2.423c.337.195.295.535-.094.759l-4.954,2.861a1.464,1.464,0,0,1-1.315.054" transform="translate(-57.098 -174.023)" fill="#373f51"/>
          <path id="Trazado_780893" data-name="Trazado 780893" d="M112.7,290.225l-4.2-2.423c-.337-.194-.295-.534.094-.759l4.954-2.86a1.464,1.464,0,0,1,1.315-.054l4.2,2.423c.337.195.295.534-.094.759l-4.954,2.861a1.464,1.464,0,0,1-1.315.053" transform="translate(-58.512 -174.84)" fill="#373f51"/>
          <path id="Trazado_780894" data-name="Trazado 780894" d="M123.624,286.561l-4.2-2.423c-.337-.195-.295-.534.094-.759l4.159-2.4a1.464,1.464,0,0,1,1.315-.054l4.2,2.423c.337.195.295.534-.094.759l-4.159,2.4a1.464,1.464,0,0,1-1.315.054" transform="translate(-60.468 -174.266)" fill="#373f51"/>
          <path id="Trazado_780895" data-name="Trazado 780895" d="M131.52,291.119l-4.2-2.423c-.337-.195-.295-.534.094-.759l4.159-2.4a1.461,1.461,0,0,1,1.315-.054l4.2,2.424c.337.195.295.534-.094.759l-4.159,2.4a1.463,1.463,0,0,1-1.315.053" transform="translate(-61.882 -175.082)" fill="#373f51"/>
          <path id="Trazado_780896" data-name="Trazado 780896" d="M139.416,295.678l-4.2-2.423c-.337-.195-.295-.534.094-.759l4.159-2.4a1.464,1.464,0,0,1,1.315-.054l4.2,2.423c.337.195.295.534-.094.759l-4.159,2.4a1.464,1.464,0,0,1-1.315.054" transform="translate(-63.296 -175.899)" fill="#373f51"/>
          <path id="Trazado_780897" data-name="Trazado 780897" d="M147.312,300.237l-4.2-2.423c-.337-.195-.295-.534.094-.759l4.159-2.4a1.461,1.461,0,0,1,1.315-.054l4.2,2.423c.337.195.295.534-.094.759l-4.159,2.4a1.464,1.464,0,0,1-1.315.054" transform="translate(-64.71 -176.715)" fill="#373f51"/>
          <path id="Trazado_780898" data-name="Trazado 780898" d="M155.209,304.8l-4.2-2.423c-.337-.195-.295-.534.094-.759l4.159-2.4a1.464,1.464,0,0,1,1.315-.054l4.2,2.423c.337.195.295.534-.094.759l-4.159,2.4a1.464,1.464,0,0,1-1.315.054" transform="translate(-66.125 -177.532)" fill="#373f51"/>
          <path id="Trazado_780899" data-name="Trazado 780899" d="M163.1,309.355l-4.2-2.423c-.337-.195-.295-.534.094-.759l4.159-2.4a1.461,1.461,0,0,1,1.315-.054l4.2,2.423c.337.195.295.534-.094.759l-4.159,2.4a1.464,1.464,0,0,1-1.315.054" transform="translate(-67.539 -178.348)" fill="#373f51"/>
          <path id="Trazado_780900" data-name="Trazado 780900" d="M171,313.914l-4.2-2.423c-.337-.195-.295-.534.094-.759l4.159-2.4a1.464,1.464,0,0,1,1.315-.054l4.2,2.423c.337.195.295.534-.094.759l-4.159,2.4a1.463,1.463,0,0,1-1.315.054" transform="translate(-68.953 -179.165)" fill="#373f51"/>
          <path id="Trazado_780901" data-name="Trazado 780901" d="M178.9,318.473l-4.2-2.423c-.337-.195-.295-.534.094-.759l4.159-2.4a1.461,1.461,0,0,1,1.315-.054l4.2,2.423c.337.195.295.534-.094.759l-4.159,2.4a1.464,1.464,0,0,1-1.315.054" transform="translate(-70.367 -179.981)" fill="#373f51"/>
          <path id="Trazado_780902" data-name="Trazado 780902" d="M186.793,323.031l-4.2-2.423c-.337-.195-.295-.534.094-.759l4.159-2.4a1.464,1.464,0,0,1,1.315-.054l4.2,2.423c.337.195.295.534-.094.759l-4.159,2.4a1.464,1.464,0,0,1-1.315.054" transform="translate(-71.782 -180.798)" fill="#373f51"/>
          <path id="Trazado_780903" data-name="Trazado 780903" d="M194.689,327.59l-4.2-2.423c-.337-.195-.295-.534.094-.759l4.159-2.4a1.461,1.461,0,0,1,1.315-.054l4.2,2.423c.337.195.295.534-.094.759l-4.159,2.4a1.464,1.464,0,0,1-1.315.054" transform="translate(-73.196 -181.614)" fill="#373f51"/>
          <path id="Trazado_780904" data-name="Trazado 780904" d="M135.258,284.4l-4.2-2.423c-.337-.195-.295-.534.094-.759l4.159-2.4a1.464,1.464,0,0,1,1.315-.054l4.2,2.423c.337.195.295.534-.094.759l-4.159,2.4a1.464,1.464,0,0,1-1.315.054" transform="translate(-62.552 -173.879)" fill="#5573c6"/>
          <path id="Trazado_780905" data-name="Trazado 780905" d="M127.245,279.775l-4.2-2.423c-.337-.195-.294-.534.1-.759l4.158-2.4a1.465,1.465,0,0,1,1.316-.054l4.2,2.423c.337.195.3.534-.094.759l-4.159,2.4a1.462,1.462,0,0,1-1.314.054" transform="translate(-61.116 -173.051)" fill="#5573c6"/>
          <path id="Trazado_780906" data-name="Trazado 780906" d="M118.16,274.531l-9.04-5.219c-.337-.195-.295-.534.094-.759l4.159-2.4a1.464,1.464,0,0,1,1.315-.054l9.04,5.219c.337.195.295.534-.094.759l-4.159,2.4a1.464,1.464,0,0,1-1.315.054" transform="translate(-58.622 -171.611)" fill="#373f51"/>
          <path id="Trazado_780907" data-name="Trazado 780907" d="M124.143,269.11l-7.336-4.236c-.337-.195-.295-.534.094-.759l4.159-2.4a1.461,1.461,0,0,1,1.315-.055l7.336,4.236c.337.195.295.534-.094.759l-4.159,2.4a1.464,1.464,0,0,1-1.315.054" transform="translate(-59.999 -170.815)" fill="#373f51"/>
          <path id="Trazado_780908" data-name="Trazado 780908" d="M143.155,288.961l-4.2-2.423c-.337-.195-.295-.534.094-.759l4.159-2.4a1.461,1.461,0,0,1,1.315-.054l4.2,2.423c.337.195.295.534-.094.759l-4.159,2.4a1.464,1.464,0,0,1-1.315.054" transform="translate(-63.966 -174.696)" fill="#5573c6"/>
          <path id="Trazado_780909" data-name="Trazado 780909" d="M151.051,293.52l-4.2-2.423c-.337-.195-.295-.534.094-.759l4.159-2.4a1.464,1.464,0,0,1,1.315-.054l4.2,2.423c.337.195.295.534-.094.759l-4.159,2.4a1.464,1.464,0,0,1-1.315.054" transform="translate(-65.38 -175.512)" fill="#373f51"/>
          <path id="Trazado_780910" data-name="Trazado 780910" d="M158.947,298.079l-4.2-2.423c-.337-.195-.295-.534.094-.759L159,292.5a1.461,1.461,0,0,1,1.315-.054l4.2,2.423c.337.195.295.534-.094.759l-4.159,2.4a1.464,1.464,0,0,1-1.315.054" transform="translate(-66.794 -176.329)" fill="#373f51"/>
          <path id="Trazado_780911" data-name="Trazado 780911" d="M166.843,302.638l-4.2-2.423c-.337-.195-.295-.534.094-.759l4.159-2.4a1.461,1.461,0,0,1,1.315-.054l4.2,2.423c.337.195.295.534-.094.759l-4.159,2.4a1.464,1.464,0,0,1-1.315.054" transform="translate(-68.208 -177.145)" fill="#373f51"/>
          <path id="Trazado_780912" data-name="Trazado 780912" d="M174.739,307.2l-4.2-2.422c-.337-.195-.295-.534.094-.76l4.159-2.4a1.464,1.464,0,0,1,1.315-.054l4.2,2.423c.337.195.295.534-.094.759l-4.159,2.4a1.463,1.463,0,0,1-1.315.053" transform="translate(-69.623 -177.962)" fill="#373f51"/>
          <path id="Trazado_780913" data-name="Trazado 780913" d="M182.635,311.755l-4.2-2.423c-.337-.195-.295-.534.094-.759l4.159-2.4a1.461,1.461,0,0,1,1.315-.054l4.2,2.423c.337.195.295.534-.094.759l-4.159,2.4a1.464,1.464,0,0,1-1.315.054" transform="translate(-71.037 -178.778)" fill="#373f51"/>
          <path id="Trazado_780914" data-name="Trazado 780914" d="M190.532,316.314l-4.2-2.423c-.337-.195-.295-.534.094-.759l4.159-2.4a1.464,1.464,0,0,1,1.315-.054l4.2,2.423c.337.195.295.534-.094.759l-4.159,2.4a1.463,1.463,0,0,1-1.315.054" transform="translate(-72.451 -179.595)" fill="#373f51"/>
          <path id="Trazado_780915" data-name="Trazado 780915" d="M198.428,320.873l-4.2-2.423c-.337-.195-.295-.534.094-.759l4.159-2.4a1.464,1.464,0,0,1,1.315-.054l4.2,2.423c.337.195.295.534-.094.759l-4.159,2.4a1.464,1.464,0,0,1-1.315.054" transform="translate(-73.865 -180.411)" fill="#373f51"/>
          <path id="Trazado_780916" data-name="Trazado 780916" d="M206.324,325.432l-4.2-2.423c-.337-.195-.295-.534.094-.759l4.159-2.4a1.464,1.464,0,0,1,1.315-.054l4.2,2.423c.337.195.295.534-.094.759l-4.159,2.4a1.464,1.464,0,0,1-1.315.054" transform="translate(-75.279 -181.228)" fill="#373f51"/>
          <path id="Trazado_780917" data-name="Trazado 780917" d="M219.279,332.911l-9.158-5.287c-.337-.194-.3-.534.094-.758l4.159-2.4a1.458,1.458,0,0,1,1.313-.055l9.159,5.288c.337.195.3.534-.094.759l-4.159,2.4a1.459,1.459,0,0,1-1.314.054" transform="translate(-76.711 -182.054)" fill="#373f51"/>
          <path id="Trazado_780918" data-name="Trazado 780918" d="M234.963,324.216l-7.73-4.462c-.337-.195-.295-.534.094-.759l4.159-2.4a1.461,1.461,0,0,1,1.315-.055l7.73,4.463c.337.195.295.534-.094.759l-4.159,2.4a1.464,1.464,0,0,1-1.315.054" transform="translate(-79.776 -180.645)" fill="#373f51"/>
          <path id="Trazado_780919" data-name="Trazado 780919" d="M156.982,288.069l-4.2-2.423c-.337-.195-.295-.534.094-.759l4.159-2.4a1.461,1.461,0,0,1,1.315-.054l4.2,2.423c.337.195.295.534-.094.759l-4.159,2.4a1.464,1.464,0,0,1-1.315.054" transform="translate(-66.442 -174.536)" fill="#373f51"/>
          <path id="Trazado_780920" data-name="Trazado 780920" d="M148.89,283.4l-4.2-2.423c-.337-.195-.295-.534.094-.759l4.159-2.4a1.464,1.464,0,0,1,1.315-.054l4.2,2.423c.337.195.295.534-.094.759l-4.159,2.4a1.464,1.464,0,0,1-1.315.054" transform="translate(-64.993 -173.699)" fill="#373f51"/>
          <path id="Trazado_780921" data-name="Trazado 780921" d="M140.8,278.725l-4.2-2.423c-.337-.195-.295-.534.094-.759l4.159-2.4a1.461,1.461,0,0,1,1.315-.054l4.2,2.423c.337.195.295.534-.094.759l-4.159,2.4a1.464,1.464,0,0,1-1.315.054" transform="translate(-63.544 -172.862)" fill="#5573c6"/>
          <path id="Trazado_780922" data-name="Trazado 780922" d="M132.7,274.052l-4.2-2.423c-.337-.195-.295-.534.094-.759l4.159-2.4a1.463,1.463,0,0,1,1.315-.054l4.2,2.423c.337.195.295.534-.094.759L134.02,274a1.464,1.464,0,0,1-1.315.054" transform="translate(-62.094 -172.025)" fill="#373f51"/>
          <path id="Trazado_780923" data-name="Trazado 780923" d="M164.879,292.628l-4.2-2.423c-.337-.195-.295-.534.094-.759l4.159-2.4a1.464,1.464,0,0,1,1.315-.054l4.2,2.423c.337.195.295.534-.094.759l-4.159,2.4a1.464,1.464,0,0,1-1.315.054" transform="translate(-67.857 -175.353)" fill="#373f51"/>
          <path id="Trazado_780924" data-name="Trazado 780924" d="M172.775,297.187l-4.2-2.423c-.337-.195-.295-.534.094-.759l4.159-2.4a1.461,1.461,0,0,1,1.315-.054l4.2,2.423c.337.195.295.534-.094.759l-4.159,2.4a1.463,1.463,0,0,1-1.315.054" transform="translate(-69.271 -176.169)" fill="#373f51"/>
          <path id="Trazado_780925" data-name="Trazado 780925" d="M180.671,301.746l-4.2-2.423c-.337-.195-.295-.534.094-.759l4.159-2.4a1.464,1.464,0,0,1,1.315-.054l4.2,2.423c.337.195.295.534-.094.759l-4.159,2.4a1.464,1.464,0,0,1-1.315.054" transform="translate(-70.685 -176.985)" fill="#373f51"/>
          <path id="Trazado_780926" data-name="Trazado 780926" d="M188.567,306.305l-4.2-2.423c-.337-.195-.295-.534.094-.759l4.159-2.4a1.461,1.461,0,0,1,1.315-.054l4.2,2.423c.337.195.295.534-.094.759l-4.159,2.4a1.464,1.464,0,0,1-1.315.054" transform="translate(-72.099 -177.802)" fill="#373f51"/>
          <path id="Trazado_780927" data-name="Trazado 780927" d="M196.463,310.863l-4.2-2.423c-.337-.195-.295-.534.094-.759l4.159-2.4a1.464,1.464,0,0,1,1.315-.054l4.2,2.423c.337.195.295.534-.094.759l-4.159,2.4a1.463,1.463,0,0,1-1.315.054" transform="translate(-73.513 -178.618)" fill="#373f51"/>
          <path id="Trazado_780928" data-name="Trazado 780928" d="M204.359,315.422l-4.2-2.423c-.337-.195-.295-.534.094-.759l4.159-2.4a1.461,1.461,0,0,1,1.315-.054l4.2,2.423c.337.195.295.534-.094.759l-4.159,2.4a1.464,1.464,0,0,1-1.315.054" transform="translate(-74.928 -179.435)" fill="#373f51"/>
          <path id="Trazado_780929" data-name="Trazado 780929" d="M212.256,319.981l-4.2-2.423c-.337-.195-.295-.534.094-.759l4.159-2.4a1.461,1.461,0,0,1,1.315-.054l4.2,2.423c.337.195.295.534-.094.759l-4.159,2.4a1.464,1.464,0,0,1-1.315.054" transform="translate(-76.342 -180.251)" fill="#373f51"/>
          <path id="Trazado_780930" data-name="Trazado 780930" d="M220.152,324.54l-4.2-2.423c-.337-.195-.295-.534.094-.759l4.159-2.4a1.464,1.464,0,0,1,1.315-.054l4.2,2.423c.337.195.295.534-.094.759l-4.159,2.4a1.464,1.464,0,0,1-1.315.054" transform="translate(-77.756 -181.068)" fill="#373f51"/>
          <path id="Trazado_780931" data-name="Trazado 780931" d="M228.048,329.1l-4.2-2.423c-.337-.195-.295-.534.094-.759l4.159-2.4a1.461,1.461,0,0,1,1.315-.054l4.2,2.423c.337.195.295.534-.094.759l-4.159,2.4a1.464,1.464,0,0,1-1.315.054" transform="translate(-79.17 -181.884)" fill="#373f51"/>
          <path id="Trazado_780932" data-name="Trazado 780932" d="M152.825,276.793l-4.2-2.423c-.337-.195-.295-.534.094-.759l4.159-2.4a1.461,1.461,0,0,1,1.315-.054l4.2,2.423c.337.195.295.534-.094.759l-4.159,2.4a1.464,1.464,0,0,1-1.315.054" transform="translate(-65.698 -172.517)" fill="#373f51"/>
          <path id="Trazado_780933" data-name="Trazado 780933" d="M144.968,272.257l-4.2-2.423c-.337-.195-.295-.534.094-.759l4.159-2.4a1.461,1.461,0,0,1,1.315-.054l4.2,2.423c.337.195.295.534-.094.759l-4.159,2.4a1.464,1.464,0,0,1-1.315.054" transform="translate(-64.291 -171.704)" fill="#373f51"/>
          <path id="Trazado_780934" data-name="Trazado 780934" d="M137.111,267.721l-4.2-2.423c-.337-.195-.295-.534.094-.759l4.159-2.4a1.464,1.464,0,0,1,1.315-.054l4.2,2.423c.337.195.295.534-.094.759l-4.159,2.4a1.464,1.464,0,0,1-1.315.054" transform="translate(-62.883 -170.892)" fill="#373f51"/>
          <path id="Trazado_780935" data-name="Trazado 780935" d="M129.254,263.185l-4.2-2.423c-.337-.195-.295-.534.094-.759l4.159-2.4a1.461,1.461,0,0,1,1.315-.054l4.2,2.423c.337.195.295.534-.094.759l-4.159,2.4a1.464,1.464,0,0,1-1.315.054" transform="translate(-61.476 -170.079)" fill="#373f51"/>
          <path id="Trazado_780936" data-name="Trazado 780936" d="M137.333,258.871l-4.2-2.423c-.337-.195-.295-.534.094-.759l1.375-.794a1.462,1.462,0,0,1,1.314-.054l4.2,2.423c.337.195.295.534-.094.759l-1.375.794a1.464,1.464,0,0,1-1.315.054" transform="translate(-62.923 -169.594)" fill="#373f51"/>
          <path id="Trazado_780937" data-name="Trazado 780937" d="M147.586,264.791l-4.2-2.423c-.337-.195-.295-.534.094-.759l1.375-.794a1.462,1.462,0,0,1,1.314-.054l4.2,2.423c.337.195.295.534-.094.759l-1.375.794a1.464,1.464,0,0,1-1.315.054" transform="translate(-64.76 -170.654)" fill="#373f51"/>
          <path id="Trazado_780938" data-name="Trazado 780938" d="M155.411,269.308l-4.2-2.423c-.337-.195-.295-.534.094-.759l1.375-.794a1.462,1.462,0,0,1,1.314-.054l4.2,2.423c.337.195.3.534-.094.759l-1.374.794a1.464,1.464,0,0,1-1.315.054" transform="translate(-66.161 -171.464)" fill="#373f51"/>
          <path id="Trazado_780939" data-name="Trazado 780939" d="M163.235,273.825l-4.2-2.423c-.337-.195-.295-.534.094-.759l1.375-.794a1.462,1.462,0,0,1,1.314-.054l4.2,2.423c.337.195.295.534-.094.759l-1.375.794a1.464,1.464,0,0,1-1.315.054" transform="translate(-67.562 -172.273)" fill="#373f51"/>
          <path id="Trazado_780940" data-name="Trazado 780940" d="M171.059,278.343l-4.2-2.423c-.337-.195-.295-.534.094-.759l1.375-.794a1.462,1.462,0,0,1,1.314-.054l4.2,2.423c.337.195.295.534-.094.759l-1.375.794a1.464,1.464,0,0,1-1.315.054" transform="translate(-68.963 -173.082)" fill="#373f51"/>
          <path id="Trazado_780941" data-name="Trazado 780941" d="M214.74,303.562l-4.2-2.423c-.337-.195-.295-.534.094-.759l1.375-.794a1.462,1.462,0,0,1,1.314-.054l4.2,2.423c.337.195.295.534-.094.759l-1.374.794a1.464,1.464,0,0,1-1.315.054" transform="translate(-76.787 -177.599)" fill="#373f51"/>
          <path id="Trazado_780942" data-name="Trazado 780942" d="M222.564,308.079l-4.2-2.423c-.337-.195-.295-.534.094-.759l1.375-.794a1.462,1.462,0,0,1,1.314-.054l4.2,2.423c.337.195.295.534-.094.759l-1.374.794a1.464,1.464,0,0,1-1.315.054" transform="translate(-78.188 -178.407)" fill="#373f51"/>
          <path id="Trazado_780943" data-name="Trazado 780943" d="M230.388,312.6l-4.2-2.423c-.337-.195-.295-.534.094-.759l1.375-.794a1.462,1.462,0,0,1,1.314-.054l4.2,2.423c.337.195.3.534-.094.759l-1.375.794a1.464,1.464,0,0,1-1.315.054" transform="translate(-79.589 -179.217)" fill="#373f51"/>
          <path id="Trazado_780944" data-name="Trazado 780944" d="M238.212,317.114l-4.2-2.423c-.337-.195-.295-.534.094-.759l1.375-.794a1.462,1.462,0,0,1,1.314-.054l4.2,2.423c.337.195.3.534-.094.759l-1.375.794a1.464,1.464,0,0,1-1.315.054" transform="translate(-80.991 -180.026)" fill="#373f51"/>
          <path id="Trazado_780945" data-name="Trazado 780945" d="M160.721,281.352l-4.2-2.423c-.337-.195-.295-.534.094-.759l4.159-2.4a1.464,1.464,0,0,1,1.315-.054l4.2,2.423c.337.195.295.534-.094.759l-4.159,2.4a1.464,1.464,0,0,1-1.315.054" transform="translate(-67.112 -173.333)" fill="#373f51"/>
          <path id="Trazado_780946" data-name="Trazado 780946" d="M168.617,285.911l-4.2-2.423c-.337-.195-.295-.534.094-.759l4.159-2.4a1.464,1.464,0,0,1,1.315-.054l4.2,2.423c.337.195.295.534-.094.759l-4.159,2.4a1.464,1.464,0,0,1-1.315.054" transform="translate(-68.526 -174.149)" fill="#373f51"/>
          <path id="Trazado_780947" data-name="Trazado 780947" d="M176.513,290.47l-4.2-2.423c-.337-.195-.295-.534.094-.759l4.159-2.4a1.461,1.461,0,0,1,1.315-.054l4.2,2.423c.337.195.295.534-.094.759l-4.159,2.4a1.464,1.464,0,0,1-1.315.054" transform="translate(-69.94 -174.966)" fill="#373f51"/>
          <path id="Trazado_780948" data-name="Trazado 780948" d="M184.409,295.028l-4.2-2.422c-.337-.195-.295-.534.094-.76l4.159-2.4a1.464,1.464,0,0,1,1.315-.054l4.2,2.423c.337.195.295.534-.094.759l-4.159,2.4a1.463,1.463,0,0,1-1.315.053" transform="translate(-71.355 -175.783)" fill="#373f51"/>
          <path id="Trazado_780949" data-name="Trazado 780949" d="M192.3,299.587l-4.2-2.423c-.337-.195-.295-.534.094-.759l4.159-2.4a1.461,1.461,0,0,1,1.315-.054l4.2,2.423c.337.195.295.534-.094.759l-4.159,2.4a1.464,1.464,0,0,1-1.315.054" transform="translate(-72.769 -176.599)" fill="#373f51"/>
          <path id="Trazado_780950" data-name="Trazado 780950" d="M200.2,304.146l-4.2-2.423c-.337-.195-.295-.534.094-.759l4.159-2.4a1.464,1.464,0,0,1,1.315-.054l4.2,2.423c.337.195.295.534-.094.759l-4.159,2.4a1.464,1.464,0,0,1-1.315.054" transform="translate(-74.183 -177.415)" fill="#373f51"/>
          <path id="Trazado_780951" data-name="Trazado 780951" d="M208.1,308.705l-4.2-2.423c-.337-.195-.295-.534.094-.759l4.159-2.4a1.461,1.461,0,0,1,1.315-.054l4.2,2.423c.337.195.295.534-.094.759l-4.159,2.4a1.464,1.464,0,0,1-1.315.054" transform="translate(-75.597 -178.232)" fill="#373f51"/>
          <path id="Trazado_780952" data-name="Trazado 780952" d="M215.994,313.264l-4.2-2.423c-.337-.195-.295-.534.094-.759l4.159-2.4a1.464,1.464,0,0,1,1.315-.054l4.2,2.423c.337.195.295.534-.094.759l-4.159,2.4a1.464,1.464,0,0,1-1.315.054" transform="translate(-77.012 -179.048)" fill="#373f51"/>
          <path id="Trazado_780953" data-name="Trazado 780953" d="M223.89,317.823l-4.2-2.423c-.337-.195-.295-.534.094-.759l4.159-2.4a1.461,1.461,0,0,1,1.315-.054l4.2,2.423c.337.195.295.534-.094.759l-4.159,2.4a1.464,1.464,0,0,1-1.315.054" transform="translate(-78.426 -179.865)" fill="#373f51"/>
          <path id="Trazado_780954" data-name="Trazado 780954" d="M113.8,280.887l-12.362-7.137c-.337-.195-.295-.534.094-.759l4.16-2.4a1.459,1.459,0,0,1,1.314-.054l12.362,7.137c.337.195.295.534-.094.759l-4.159,2.4a1.464,1.464,0,0,1-1.315.054" transform="translate(-57.246 -172.405)" fill="#373f51"/>
          <path id="Trazado_780955" data-name="Trazado 780955" d="M210.8,336.893l-12.362-7.137c-.337-.195-.295-.534.094-.759l4.159-2.4a1.459,1.459,0,0,1,1.314-.054l12.362,7.137c.337.195.295.534-.094.759l-4.159,2.4a1.463,1.463,0,0,1-1.315.054" transform="translate(-74.619 -182.436)" fill="#373f51"/>
          <path id="Trazado_780956" data-name="Trazado 780956" d="M181.006,329.66l-4.2-2.423c-.337-.195-.295-.534.094-.759l4.954-2.86a1.461,1.461,0,0,1,1.315-.055l4.2,2.423c.337.195.295.534-.094.759l-4.954,2.861a1.463,1.463,0,0,1-1.315.054" transform="translate(-70.745 -181.903)" fill="#373f51"/>
          <path id="Trazado_780957" data-name="Trazado 780957" d="M123.115,296.236l-6.712-3.875c-.337-.2-.295-.534.094-.759l4.954-2.86a1.462,1.462,0,0,1,1.315-.056l6.712,3.876c.337.195.295.534-.094.759l-4.954,2.861a1.464,1.464,0,0,1-1.315.053" transform="translate(-59.926 -175.656)" fill="#373f51"/>
          <path id="Trazado_780958" data-name="Trazado 780958" d="M172.849,324.95l-6.712-3.875c-.338-.195-.3-.534.094-.759l4.954-2.86a1.463,1.463,0,0,1,1.316-.055l6.713,3.875c.336.2.294.534-.1.759l-4.954,2.861a1.462,1.462,0,0,1-1.314.054" transform="translate(-68.834 -180.799)" fill="#373f51"/>
          <path id="Trazado_780959" data-name="Trazado 780959" d="M134.507,302.814l-6.712-3.875c-.337-.195-.295-.534.094-.759l4.954-2.86a1.461,1.461,0,0,1,1.315-.055l6.713,3.875c.337.2.295.535-.094.759l-4.954,2.861a1.464,1.464,0,0,1-1.315.054" transform="translate(-61.967 -176.835)" fill="#373f51"/>
          <path id="Trazado_780960" data-name="Trazado 780960" d="M134.263,295.325l29.185,16.85a.4.4,0,0,1,0,.758l-5.052,2.917a1.453,1.453,0,0,1-1.312,0L127.9,299Z" transform="translate(-62.026 -176.869)" fill="#373f51"/>
          <path id="Trazado_780961" data-name="Trazado 780961" d="M203.3,339.262l4.675,2.7c.277.159.242.438-.077.622l-2.027,1.171a1.2,1.2,0,0,1-1.078.044l-4.675-2.7c-.277-.159-.241-.438.077-.622l2.027-1.171a1.2,1.2,0,0,1,1.078-.044" transform="translate(-74.928 -184.719)" fill="#373f51"/>
          <path id="Trazado_780962" data-name="Trazado 780962" d="M195.342,334.665l4.675,2.7c.277.16.242.438-.077.622l-2.027,1.171a1.2,1.2,0,0,1-1.078.044l-4.675-2.7c-.276-.16-.241-.438.077-.622l2.027-1.171a1.2,1.2,0,0,1,1.078-.044" transform="translate(-73.502 -183.895)" fill="#373f51"/>
          <path id="Trazado_780963" data-name="Trazado 780963" d="M187.446,330.106l4.675,2.7c.277.159.242.438-.077.622l-2.027,1.171a1.2,1.2,0,0,1-1.077.044l-4.676-2.7c-.277-.159-.241-.438.077-.622l2.027-1.171a1.2,1.2,0,0,1,1.078-.044" transform="translate(-72.088 -183.078)" fill="#373f51"/>
          <path id="Trazado_780964" data-name="Trazado 780964" d="M199.7,332.147l4.675,2.7c.277.16.242.438-.077.622l-2.027,1.171a1.2,1.2,0,0,1-1.077.044l-4.676-2.7c-.276-.16-.241-.438.077-.622l2.027-1.171a1.2,1.2,0,0,1,1.078-.044" transform="translate(-74.283 -183.444)" fill="#373f51"/>
          <path id="Trazado_780965" data-name="Trazado 780965" d="M125.735,337.057a3.974,3.974,0,0,1-1.955-.459l-32.4-18.705a1.652,1.652,0,0,1-.928-1.419,2.1,2.1,0,0,1,1.209-1.715l21.448-12.382a4.835,4.835,0,0,1,4.415-.163l32.4,18.706a1.652,1.652,0,0,1,.929,1.419,2.094,2.094,0,0,1-1.21,1.715L128.2,336.436a5.037,5.037,0,0,1-2.46.621M115.58,302.768a4.056,4.056,0,0,0-1.963.485L92.17,315.637c-.441.254-.7.567-.7.837s.265.451.424.543l32.4,18.705a3.852,3.852,0,0,0,3.4-.163l21.448-12.383c.441-.254.7-.567.7-.837s-.264-.451-.423-.541l-32.4-18.706a2.943,2.943,0,0,0-1.439-.323" transform="translate(-55.32 -178.021)" fill="#708ac4"/>
          <path id="Trazado_780966" data-name="Trazado 780966" d="M124.274,319.52l3.175-1.779a1.3,1.3,0,0,1,1.151.054c.341.2.378.488.084.653l-3.175,1.779a1.3,1.3,0,0,1-1.151-.054c-.341-.2-.378-.488-.084-.653" transform="translate(-61.341 -180.864)" fill="#fff"/>
          <path id="Trazado_780967" data-name="Trazado 780967" d="M116.06,323.938l4.682-2.624a1.3,1.3,0,0,1,1.151.055c.341.2.378.488.084.653l-4.682,2.623a1.3,1.3,0,0,1-1.151-.054c-.341-.2-.378-.488-.084-.653" transform="translate(-59.87 -181.504)" fill="#fff"/>
          <path id="Trazado_780968" data-name="Trazado 780968" d="M137.075,326.274l6.062-3.4a1.3,1.3,0,0,1,1.15.055c.341.2.378.488.084.653l-6.062,3.4a1.3,1.3,0,0,1-1.15-.055c-.341-.2-.378-.488-.084-.653" transform="translate(-63.634 -181.784)" fill="#fff"/>
          <path id="Trazado_780969" data-name="Trazado 780969" d="M135.742,320.38l1.984-1.111a1.3,1.3,0,0,1,1.15.055c.341.2.378.488.084.653l-1.984,1.111a1.3,1.3,0,0,1-1.15-.054c-.341-.2-.378-.488-.084-.653" transform="translate(-63.395 -181.137)" fill="#fff"/>
          <path id="Trazado_780970" data-name="Trazado 780970" d="M130.307,316.371l1.273-.713a1.3,1.3,0,0,1,1.151.055c.341.2.378.487.084.652l-1.274.713a1.3,1.3,0,0,1-1.15-.054c-.341-.2-.378-.488-.084-.653" transform="translate(-62.422 -180.491)" fill="#fff"/>
          <path id="Trazado_780971" data-name="Trazado 780971" d="M123.632,312.935l1.581-.886a1.3,1.3,0,0,1,1.151.054c.341.2.378.488.084.653l-1.582.886a1.3,1.3,0,0,1-1.15-.054c-.341-.2-.378-.488-.084-.653" transform="translate(-61.226 -179.844)" fill="#fff"/>
          <path id="Trazado_780972" data-name="Trazado 780972" d="M116.138,316.817l4.169-2.335a1.3,1.3,0,0,1,1.15.054c.341.2.378.488.084.653l-4.169,2.336a1.3,1.3,0,0,1-1.151-.055c-.341-.2-.378-.488-.084-.653" transform="translate(-59.884 -180.28)" fill="#fff"/>
          <path id="Trazado_780973" data-name="Trazado 780973" d="M118.757,311.923l3-1.679a1.3,1.3,0,0,1,1.15.055c.341.2.378.488.084.653l-3,1.678a1.3,1.3,0,0,1-1.15-.053c-.341-.2-.378-.488-.084-.653" transform="translate(-60.353 -179.521)" fill="#fff"/>
          <path id="Trazado_780974" data-name="Trazado 780974" d="M126.753,325.011l5.3-2.968a1.3,1.3,0,0,1,1.15.055c.341.195.378.487.084.652l-5.3,2.969a1.3,1.3,0,0,1-1.15-.055c-.341-.2-.378-.488-.084-.653" transform="translate(-61.785 -181.634)" fill="#fff"/>
          <path id="Trazado_780975" data-name="Trazado 780975" d="M130.059,326.247l9.235-5.173a1.3,1.3,0,0,1,1.15.054c.341.2.378.488.084.653l-9.235,5.174a1.3,1.3,0,0,1-1.15-.055c-.341-.2-.378-.488-.084-.653" transform="translate(-62.377 -181.461)" fill="#fff"/>
          <path id="Trazado_780976" data-name="Trazado 780976" d="M128.554,320.432l5.3-2.968a1.3,1.3,0,0,1,1.151.055c.341.195.378.487.084.652l-5.3,2.968a1.3,1.3,0,0,1-1.15-.054c-.341-.2-.378-.488-.084-.653" transform="translate(-62.108 -180.814)" fill="#fff"/>
          <path id="Trazado_780977" data-name="Trazado 780977" d="M121.857,328.166l1.925-1.079a1.3,1.3,0,0,1,1.151.055c.341.2.378.487.084.653l-1.926,1.078a1.3,1.3,0,0,1-1.15-.054c-.341-.2-.378-.488-.084-.653" transform="translate(-60.908 -182.538)" fill="#fff"/>
          <path id="Trazado_780978" data-name="Trazado 780978" d="M120.95,317.422l6.369-3.568a1.3,1.3,0,0,1,1.15.055c.341.2.378.488.084.653l-6.369,3.568a1.3,1.3,0,0,1-1.15-.054c-.341-.2-.378-.488-.084-.653" transform="translate(-60.746 -180.167)" fill="#fff"/>
          <g id="Grupo_1037069" data-name="Grupo 1037069" transform="translate(9.987 146.096)">
            <path id="Trazado_780790" data-name="Trazado 780790" d="M210.151,240.6c0,1.038-.729,1.459-1.628.94a3.6,3.6,0,0,1-1.628-2.82c0-1.038.729-1.459,1.628-.939a3.6,3.6,0,0,1,1.628,2.819" transform="translate(-184.644 -237.557)" fill="#fff"/>
            <path id="Trazado_780873" data-name="Trazado 780873" d="M251.944,264.32c0,1.038-.729,1.459-1.628.94a3.6,3.6,0,0,1-1.628-2.82c0-1.038.729-1.459,1.628-.94a3.6,3.6,0,0,1,1.628,2.82" transform="translate(-192.129 -241.806)" fill="#fff"/>
            <path id="Trazado_780878" data-name="Trazado 780878" d="M205.453,273.083a.544.544,0,0,1-.273-1.014l7.372-4.265a2.723,2.723,0,0,0,1.356-2.35v-3.9a.543.543,0,0,1,1.087,0v3.9a3.815,3.815,0,0,1-1.9,3.292l-7.372,4.264a.536.536,0,0,1-.272.073" transform="translate(-184.288 -241.757)" fill="#5793ce"/>
            <rect id="Rectángulo_366252" data-name="Rectángulo 366252" width="9.685" height="4.488" transform="translate(12.402 33.205) rotate(-29.833)" fill="#5793ce"/>
            <rect id="Rectángulo_366253" data-name="Rectángulo 366253" width="15.191" height="7.273" transform="translate(0 38.712) rotate(-29.829)" fill="#5793ce"/>
            <path id="Trazado_780880" data-name="Trazado 780880" d="M196.581,276.685l2.844-1.63a5.807,5.807,0,0,1,2.233,3.894l-2.844,1.63a5.808,5.808,0,0,1-2.233-3.894" transform="translate(-182.796 -244.273)" fill="#396caa"/>
            <path id="Trazado_780881" data-name="Trazado 780881" d="M200.052,280.119a5.683,5.683,0,0,0-2.558-4.462c-1.418-.824-2.571-.163-2.576,1.478a5.683,5.683,0,0,0,2.558,4.461c1.418.824,2.571.163,2.576-1.477" transform="translate(-182.498 -244.317)" fill="#5793ce"/>
            <path id="Trazado_780979" data-name="Trazado 780979" d="M229.18,266.959a4.109,4.109,0,0,1-2.058-.552L198.544,249.86a2.882,2.882,0,0,1-.048-4.96l7.907-4.787a.543.543,0,0,1,.562.93l-7.906,4.787a1.8,1.8,0,0,0,.03,3.089l28.577,16.546a3.024,3.024,0,0,0,3.092-.039l9.84-6.013a.544.544,0,0,1,.568.928l-9.841,6.013a4.116,4.116,0,0,1-2.146.6" transform="translate(-182.89 -238)" fill="#5793ce"/>
          </g>
          <path id="Trazado_781081" data-name="Trazado 781081" d="M68.416,340.437s-1.975-1-3.188.487-2.947,4.984-3,7.35,1.872,2.206,3.018,1.646,4.489-5.411,4.691-6.361a3.3,3.3,0,0,0-.56-2.487c-.322-.252-.96-.635-.96-.635" transform="translate(-50.264 -184.89)" fill="#4adbd1"/>
          <path id="Trazado_781082" data-name="Trazado 781082" d="M69.475,339.825l.091,2.047a1.16,1.16,0,0,1-.578,1.064,2.277,2.277,0,0,1-1.524.237c-1.487-.24-1.62-.664-1.727-2.71s3.738-.638,3.738-.638" transform="translate(-50.893 -184.754)" fill="#d4ecff"/>
          <path id="Trazado_781083" data-name="Trazado 781083" d="M59.609,335.644s-1.975-1-3.188.487-2.947,4.984-3,7.35,1.872,2.206,3.017,1.646,4.489-5.411,4.691-6.362a3.3,3.3,0,0,0-.561-2.486c-.322-.252-.96-.635-.96-.635" transform="translate(-48.687 -184.031)" fill="#4adbd1"/>
          <path id="Trazado_781084" data-name="Trazado 781084" d="M60.668,335.032l.091,2.046a1.159,1.159,0,0,1-.578,1.064,2.278,2.278,0,0,1-1.524.237c-1.487-.239-1.62-.664-1.727-2.71s3.738-.638,3.738-.638" transform="translate(-49.315 -183.896)" fill="#d4ecff"/>
          <path id="Trazado_781085" data-name="Trazado 781085" d="M77.612,288.524c-.584-9.511-10.3,1.4-10.3,1.4l-6.649,6.517-5.988,6.579a5.9,5.9,0,0,0-1.487,4.742L55.609,326.2a1.813,1.813,0,0,0,1.817,1.576,6.3,6.3,0,0,0,.9-.079,2.254,2.254,0,0,0,2-2.391l-.442-17.251,12.575-7.58s5.739-2.445,5.154-11.956" transform="translate(-48.636 -174.953)" fill="#5573c6"/>
          <path id="Trazado_781086" data-name="Trazado 781086" d="M86.419,292.938c-.584-9.511-10.3,1.4-10.3,1.4l-6.65,6.517-5.988,6.579a5.9,5.9,0,0,0-1.487,4.742l2.422,18.444a1.813,1.813,0,0,0,1.817,1.576,6.3,6.3,0,0,0,.9-.079,2.254,2.254,0,0,0,2-2.391l-.442-17.251,12.575-7.58s5.739-2.445,5.154-11.956" transform="translate(-50.213 -175.744)" fill="#5573c6"/>
          <path id="Trazado_781087" data-name="Trazado 781087" d="M81.657,256.364c7.366,3.054,7.218,7.408,7.218,7.408s-1.443,15.963-.951,26.623c.206,4.457-23.678,4.8-20.116-7.093,4.2-14.019,2.626-25.368,4.592-27.08s7.351-.648,9.256.141" transform="translate(-51.199 -169.701)" fill="#e6b046"/>
          <path id="Trazado_781088" data-name="Trazado 781088" d="M86.024,260.466c-.385,1.5-2.344,2.284-4.376,1.76s-3.367-2.16-2.982-3.655,2.345-2.284,4.377-1.76,3.367,2.16,2.981,3.655" transform="translate(-53.197 -169.942)" fill="#ffc2b0"/>
          <path id="Trazado_781089" data-name="Trazado 781089" d="M82.828,262.664a5.371,5.371,0,0,1-1.345-.174,4.895,4.895,0,0,1-2.583-1.581,2.664,2.664,0,0,1,1.128-4.38,5.166,5.166,0,0,1,5.608,1.445,2.663,2.663,0,0,1-1.128,4.379,4.5,4.5,0,0,1-1.68.311m-1.12-5.741a3.8,3.8,0,0,0-1.417.26,1.964,1.964,0,0,0-.845,3.28,4.463,4.463,0,0,0,4.8,1.236,2.131,2.131,0,0,0,1.361-1.4h0a2.134,2.134,0,0,0-.516-1.882,4.208,4.208,0,0,0-2.212-1.345,4.751,4.751,0,0,0-1.17-.151" transform="translate(-53.12 -169.865)" fill="#fff"/>
          <path id="Trazado_781090" data-name="Trazado 781090" d="M81.146,255.871a18.447,18.447,0,0,1-.065,2.629c-.04.734,2.529,1.419,3.193.755s.4-1.355.558-3.853-3.687.468-3.687.468" transform="translate(-53.641 -169.539)" fill="#ffc2b0"/>
          <path id="Trazado_781091" data-name="Trazado 781091" d="M84.833,255.621a5.175,5.175,0,0,1-3.752,3.2l.047-2.1Z" transform="translate(-53.641 -169.758)" fill="#ea9c92"/>
          <path id="Trazado_781092" data-name="Trazado 781092" d="M85.624,247.527a5.67,5.67,0,1,1-6.909-4.069,5.669,5.669,0,0,1,6.909,4.069" transform="translate(-52.456 -167.547)" fill="#ffc2b0"/>
          <path id="Trazado_781093" data-name="Trazado 781093" d="M81.428,250.138a17.56,17.56,0,0,1-5.283,1.353c-2.161.015-1.685-1.8-1.685-1.8l6.417-.927Z" transform="translate(-52.447 -168.531)" fill="#ea9c92"/>
          <path id="Trazado_781094" data-name="Trazado 781094" d="M74.962,248.993a10.13,10.13,0,0,1,5.105-.673,2.5,2.5,0,0,1,1.441.857.851.851,0,0,0,.436.315c.424.1,1.116-1.659,1.938-1.7s1.371.543.7,1.621-.447,2.288-.136,2.461,3.6-2.347.7-8.1-10.274-2.652-11.421-1.487c0,0-1.208,1.052-2.19.116,0,0-1.1,8.249,3.432,6.586" transform="translate(-51.909 -167.033)" fill="#afafaf"/>
          <path id="Trazado_781095" data-name="Trazado 781095" d="M86.459,279.29V283.6a1.758,1.758,0,0,1-.573,1.3l-8.862,8.078,1.007,1.54,11.7-7.662a2.378,2.378,0,0,0,.969-1.676l.791-8.347Z" transform="translate(-52.915 -173.557)" fill="#ffc2b0"/>
          <path id="Trazado_781096" data-name="Trazado 781096" d="M91.884,262.992s2.688,4.043,3.69,14.684c0,0-4.592,1.485-7.2.642s3.509-15.326,3.509-15.326" transform="translate(-54.832 -171.078)" fill="#e6b046"/>
          <path id="Trazado_781097" data-name="Trazado 781097" d="M87.676,269.219a75,75,0,0,0-1.112,8.28,1.69,1.69,0,0,0,1.112,1.632Z" transform="translate(-54.623 -172.193)" fill="#f4a338"/>
          <path id="Trazado_781098" data-name="Trazado 781098" d="M79.375,301.653l-1.959-.259-12.642-7.3a1.755,1.755,0,0,0-1.581.066l-8.958,5.17-1.185-.157v1.179h0a.462.462,0,0,0,.273.415l14.327,8.272a1.758,1.758,0,0,0,1.581-.066l9.756-5.631a.639.639,0,0,0,.387-.532Z" transform="translate(-48.621 -176.62)" fill="#173d7a"/>
          <path id="Trazado_781099" data-name="Trazado 781099" d="M69.876,297.6l-.9-.519H59.1L54.236,299.9l-1.185-.157v1.179h0a.459.459,0,0,0,.272.415L67.652,309.6a1.49,1.49,0,0,0,.816.153Z" transform="translate(-48.621 -177.184)" fill="#396caa"/>
          <path id="Trazado_781100" data-name="Trazado 781100" d="M53.576,300.387l-.525-.07v1.18h0a.461.461,0,0,0,.272.415l.253.146Z" transform="translate(-48.621 -177.763)" fill="#5793ce"/>
          <path id="Trazado_781101" data-name="Trazado 781101" d="M71.012,311.961a1.832,1.832,0,0,0,1.344-.084v-2.005H71.012Z" transform="translate(-51.838 -179.474)" fill="#274f89"/>
          <path id="Trazado_781102" data-name="Trazado 781102" d="M67.651,307.619l-14.327-8.271c-.406-.234-.355-.643.113-.914l9.756-5.631a1.759,1.759,0,0,1,1.582-.065L79.1,301.01c.4.234.354.643-.114.913l-9.756,5.631a1.758,1.758,0,0,1-1.581.066" transform="translate(-48.621 -176.377)" fill="#fff"/>
          <path id="Trazado_781103" data-name="Trazado 781103" d="M67.892,307.025l-11.913-6.878c-.337-.195-.295-.534.094-.759l5.227-2.94a1.461,1.461,0,0,1,1.315-.055l11.913,6.878c.337.195.295.534-.094.759l-5.228,2.94a1.464,1.464,0,0,1-1.315.054" transform="translate(-49.105 -177.036)" fill="#d4ecff"/>
          <path id="Trazado_781104" data-name="Trazado 781104" d="M66.031,292.414l-.149.988a7.306,7.306,0,0,0,.065,2.535l.176.871a1.224,1.224,0,0,0,.982.962.675.675,0,0,0,.792-.589l.236-2.113s.541.708.8.708-.292-2.116-.882-3.314-2.023-.048-2.023-.048" transform="translate(-50.905 -176.258)" fill="#ffc2b0"/>
          <path id="Trazado_781105" data-name="Trazado 781105" d="M70.734,272.732,69.2,275.774a5.972,5.972,0,0,0-.629,2.31L67.9,288.492l-2.023-.048-.918-11.687a4.253,4.253,0,0,1,.052-1.08l1.049-5.927Z" transform="translate(-50.751 -172.288)" fill="#ffc2b0"/>
          <path id="Trazado_781106" data-name="Trazado 781106" d="M66.911,307.062l-1.2-1.568-12.634-7.314a1.758,1.758,0,0,1-.731-1.4l.011-10.343-.726-.948.682-.4v0a.461.461,0,0,1,.5.028l14.316,8.289a1.756,1.756,0,0,1,.732,1.4l-.011,11.264a.639.639,0,0,1-.268.6Z" transform="translate(-48.366 -175.025)" fill="#173d7a"/>
          <path id="Trazado_781107" data-name="Trazado 781107" d="M58.175,301.13l-.9-.52-4.927-8.558,0-5.62-.726-.948.683-.4h0a.461.461,0,0,1,.495.029l14.317,8.289a1.486,1.486,0,0,1,.539.63Z" transform="translate(-48.366 -175.025)" fill="#396caa"/>
          <path id="Trazado_781108" data-name="Trazado 781108" d="M51.952,285.905l-.323-.42.683-.395h0a.46.46,0,0,1,.495.029l.252.145Z" transform="translate(-48.366 -175.025)" fill="#5793ce"/>
          <path id="Trazado_781109" data-name="Trazado 781109" d="M70.343,295.348a1.837,1.837,0,0,1,.6,1.206l-1.4.808-.67-1.164Z" transform="translate(-51.454 -176.873)" fill="#274f89"/>
          <path id="Trazado_781110" data-name="Trazado 781110" d="M66.389,293.889,52.071,285.6c-.4-.234-.734.014-.734.554l-.012,11.264a1.757,1.757,0,0,0,.732,1.4l14.316,8.289c.406.235.734-.013.735-.553l.012-11.264a1.758,1.758,0,0,0-.732-1.4" transform="translate(-48.312 -175.111)" fill="#fff"/>
          <path id="Trazado_781111" data-name="Trazado 781111" d="M77.221,298.043l-.229.475a3.188,3.188,0,0,1-1.2,1.327l-1.423.877a1.417,1.417,0,0,1-1.451.034l-.048-.03a.855.855,0,0,1-.121-1.314l1.486-1.528s-.835.639-1.069.382c-.172-.189.809-1.11,1.563-1.14a2.97,2.97,0,0,0,1.482-.622Z" transform="translate(-52.104 -177.08)" fill="#ffc2b0"/>
          <path id="Trazado_781112" data-name="Trazado 781112" d="M71.992,256.4s-5.448,5.928-7.646,11.365a11.123,11.123,0,0,0,6.424,4.673c4.56,1.318,1.222-16.039,1.222-16.039" transform="translate(-50.644 -169.897)" fill="#e6b046"/>
          <path id="Trazado_781113" data-name="Trazado 781113" d="M70.661,273.645l.882-8.53-2.081,7.991a11.8,11.8,0,0,0,1.2.539" transform="translate(-51.56 -171.458)" fill="#f4a338"/>
          <path id="Trazado_781114" data-name="Trazado 781114" d="M78.312,254.851l-1.464-.4a3.534,3.534,0,0,0,1.719,1.38c1.02.28,1.179-.584,1.179-.584Z" transform="translate(-52.883 -169.548)" fill="#fff"/>
          <g id="Grupo_1037070" data-name="Grupo 1037070" transform="translate(71.34 6.856)">
            <path id="Trazado_781115" data-name="Trazado 781115" d="M150.006,157.894,137.8,232.2,233.493,289l2.608-1.076,14.812-75.383-98.3-55.724Z" transform="translate(-135.195 -156.819)" fill="url(#linear-gradient)"/>
            <path id="Trazado_781116" data-name="Trazado 781116" d="M149.436,158.128l-14.811,75.386,98.3,55.724,14.811-75.386Z" transform="translate(-134.626 -157.054)" fill="url(#linear-gradient)"/>
            <path id="Trazado_781117" data-name="Trazado 781117" d="M153.525,164.562l46.465,26.344,45.461,25.766-13.326,67.9L140.279,232.5l-.081-.039Z" transform="translate(-135.624 -158.206)" fill="#5573c6"/>
          </g>
          <g id="Grupo_1033267" data-name="Grupo 1033267" transform="translate(143.904 181.326)" opacity="0.5">
            <g id="Grupo_1033266" data-name="Grupo 1033266">
              <g id="Grupo_1033265" data-name="Grupo 1033265" clip-path="url(#clip-path-3)">
                <path id="Trazado_781118" data-name="Trazado 781118" d="M253.073,389.3c-6.89,3.978-18.061,3.978-24.95,0s-6.89-10.427,0-14.405,18.06-3.978,24.95,0,6.89,10.427,0,14.405" transform="translate(-222.955 -371.912)" fill="#afafaf"/>
              </g>
            </g>
          </g>
          <path id="Trazado_781119" data-name="Trazado 781119" d="M253.135,378.315a2.726,2.726,0,0,1,1.537,2.723,4.616,4.616,0,0,1-.224,1.331,2.24,2.24,0,0,1-3.007.921c-1.654-.653-5.328-4.105-5.465-6.364-.256-4.2,4.543.273,7.159,1.39" transform="translate(-83.172 -191.168)" fill="#12263f"/>
          <path id="Trazado_781120" data-name="Trazado 781120" d="M240.527,386.761a12.164,12.164,0,0,1,.2,2.863,3.115,3.115,0,0,1-3.044,1.185c-1.7-.2-6.594-1.892-7.684-5.117-1.689-5,9.445.375,9.445.375Z" transform="translate(-80.282 -192.672)" fill="#12263f"/>
          <path id="Trazado_781121" data-name="Trazado 781121" d="M236.953,339.85l-.378,37.773a2.644,2.644,0,0,0,2.057,2.619q.214.037.461.058a2.35,2.35,0,0,0,2.244-.928,2.769,2.769,0,0,0,.5-1.525l.483-16.124,2.407-14.417,3.331,25.517a2.2,2.2,0,0,0,.915,1.68,2.549,2.549,0,0,0,1.518.412,2.79,2.79,0,0,0,2.019-.994,2.029,2.029,0,0,0,.483-1.367L251.676,357.2l-.491-19.583Z" transform="translate(-81.49 -184.443)" fill="#e6b046"/>
          <path id="Trazado_781122" data-name="Trazado 781122" d="M242.34,299.149l.6,3.442a1.576,1.576,0,0,1-1.289,1.5c-1.311.325-1.716-.521-1.716-.521l-.593-3.876Z" transform="translate(-81.985 -177.554)" fill="#ffc2b0"/>
          <path id="Trazado_781123" data-name="Trazado 781123" d="M234.079,297.344c2.191,2.182,5.536,2.364,7.473.407s1.73-5.313-.461-7.495-5.536-2.364-7.473-.407-1.73,5.313.461,7.495" transform="translate(-80.723 -175.645)" fill="#ffc2b0"/>
          <path id="Trazado_781124" data-name="Trazado 781124" d="M241.411,303.08c.091-.037,5.563-3.56,7.586.127,3.3,6.012,3.1,25.367,2.063,27.874-.964,2.32-3.371,4.031-5.058,4.994a10.1,10.1,0,0,1-4.908,1.4c-1.71.014-4.989-1.506-4.87-3.742.548-10.282-.361-18.949-1.2-27.358,0,0,1.049-1.13,6.388-3.291" transform="translate(-81.212 -177.979)" fill="#4adbd1"/>
          <path id="Trazado_781125" data-name="Trazado 781125" d="M246.51,349.418l3.33,25.517a2.207,2.207,0,0,0,.915,1.68,2.471,2.471,0,0,0,.285.16c-.692-.518-2.711-21.936-3.084-24.318s-1.446-3.039-1.446-3.039" transform="translate(-83.269 -186.557)" fill="#b26919"/>
          <path id="Trazado_781126" data-name="Trazado 781126" d="M220.839,302.534l-2.973-9.739,1.57-.651,3.505,7.632Z" transform="translate(-78.139 -176.299)" fill="#ffc2b0"/>
          <path id="Trazado_781127" data-name="Trazado 781127" d="M257.129,293.238,254.9,283.1l-1.775.02.667,8.409Z" transform="translate(-84.454 -174.679)" fill="#ffc2b0"/>
          <path id="Trazado_781128" data-name="Trazado 781128" d="M232.591,306.2s-5.342,1.066-8.74-5.154a.845.845,0,0,0-1.41-.149,4.366,4.366,0,0,0-.892,3.476c1.654,6.08,10.636,7.423,12.249,10.95s-1.207-9.123-1.207-9.123" transform="translate(-78.78 -177.81)" fill="#4adbd1"/>
          <path id="Trazado_781129" data-name="Trazado 781129" d="M247.033,300.2s4.231.325,4.84-3.337a27.906,27.906,0,0,0,.425-3.661.739.739,0,0,1,.83-.717c1.013.126,2.582.428,2.8,1.107.318,1.015.915,5.988-3.264,13.618-2.738,5-5.626-7.009-5.626-7.009" transform="translate(-83.363 -176.358)" fill="#4adbd1"/>
          <path id="Trazado_781130" data-name="Trazado 781130" d="M254.359,282.047l-.04-1.156a2.392,2.392,0,0,0-.346-1.155l-1.172-1.925-.305-.385a.891.891,0,0,0-1.171-.2l-.269.169a1.107,1.107,0,0,0-.516,1.009l.606,1.645-.767-.149a.272.272,0,0,0-.154.52l1.252.5,1.137,1.609Z" transform="translate(-83.904 -173.603)" fill="#ffc2b0"/>
          <path id="Trazado_781131" data-name="Trazado 781131" d="M217.711,291.781l-.355-1.1a2.377,2.377,0,0,1-.067-1.2l.449-2.209.157-.466a.89.89,0,0,1,1.033-.586l.311.068a1.109,1.109,0,0,1,.827.773l-.011,1.753.67-.4a.272.272,0,0,1,.321.436l-1.006.9-.588,2.135Z" transform="translate(-78.027 -175.234)" fill="#ffc2b0"/>
          <path id="Trazado_781132" data-name="Trazado 781132" d="M235.615,315.2c.488,2.221-.879,19.465,3.569,23.733-1.711.014-4.989-1.506-4.87-3.742a136.685,136.685,0,0,0-.408-18.909c-1.744-2.26-6.543-3.7-9.546-6.6.219.067,10.773,3.316,11.255,5.515" transform="translate(-79.302 -179.44)" fill="#31baad"/>
          <path id="Trazado_781133" data-name="Trazado 781133" d="M244.045,302.064l-.76-.781a6.189,6.189,0,0,1-2.253,1.5,11.747,11.747,0,0,1-1.8.372l-.489,1.349s3.98-.285,5.3-2.439" transform="translate(-81.878 -177.936)" fill="#fff"/>
          <path id="Trazado_781134" data-name="Trazado 781134" d="M236.744,295.518a.643.643,0,0,1-.59,0c-.323-.17-.847-1.456-1.52-1.362-1.052.147-2.576,2.357-4.473-.726-.987-1.6-.408-2.466-.888-3.376,0,0,.169.493,4.3-2.028s7.507.552,8.555,2.308,1.726,5.191-.984,7.127c-.449.321-3.342-.252-3.4-.494s.715-.632.277-1.2a.907.907,0,0,0-1.273-.254" transform="translate(-80.182 -175.391)" fill="#173d7a"/>
          <path id="Trazado_781135" data-name="Trazado 781135" d="M198,366.8a6.866,6.866,0,0,1-3.55-1l-4.815-2.85a.544.544,0,1,1,.553-.937L195,364.862a5.8,5.8,0,0,0,8.773-5.378l-.1-1.456c-1.69-23.772-4.837-68.021,13.812-72.793a145.073,145.073,0,0,0,14.033-4.368c9.573-3.426,10.228-3.235,23.422,6.729a.544.544,0,1,1-.656.867c-13.1-9.9-13.277-9.836-22.4-6.572a145.779,145.779,0,0,1-14.13,4.4c-17.769,4.548-14.665,48.207-13,71.664l.1,1.455a6.775,6.775,0,0,1-3.269,6.358A6.857,6.857,0,0,1,198,366.8" transform="translate(-73.035 -173.92)" fill="#5793ce"/>
          <rect id="Rectángulo_366258" data-name="Rectángulo 366258" width="4.488" height="9.685" transform="matrix(0.632, -0.775, 0.775, 0.632, 186.686, 121.102)" fill="#5793ce"/>
          <path id="Trazado_781136" data-name="Trazado 781136" d="M285.269,305.276a3.508,3.508,0,0,0,2.005-2.459c.163-1-.474-1.518-1.419-1.158a3.507,3.507,0,0,0-2.006,2.459c-.162,1,.474,1.518,1.42,1.158" transform="translate(-89.952 -177.982)" fill="#5793ce"/>
          <rect id="Rectángulo_366259" data-name="Rectángulo 366259" width="7.273" height="9.893" transform="matrix(0.632, -0.775, 0.775, 0.632, 179.45, 116.999)" fill="#5793ce"/>
          <path id="Trazado_781137" data-name="Trazado 781137" d="M279.411,295.538l2.54,2.071a5.808,5.808,0,0,1-2.836,3.479l-2.541-2.072a5.81,5.81,0,0,1,2.837-3.478" transform="translate(-88.654 -176.907)" fill="#396caa"/>
          <path id="Trazado_781138" data-name="Trazado 781138" d="M277.306,299.984a5.682,5.682,0,0,0,3.25-3.985c.263-1.619-.768-2.459-2.3-1.877a5.684,5.684,0,0,0-3.25,3.985c-.262,1.619.768,2.459,2.3,1.877" transform="translate(-88.366 -176.62)" fill="#5793ce"/>
          <path id="Trazado_781139" data-name="Trazado 781139" d="M267.963,292.364a5.683,5.683,0,0,0,3.25-3.985c.263-1.619-.768-2.459-2.3-1.877a5.685,5.685,0,0,0-3.25,3.986c-.262,1.619.768,2.459,2.3,1.877" transform="translate(-86.692 -175.255)" fill="#5793ce"/>
          <path id="Trazado_781140" data-name="Trazado 781140" d="M268.437,291.387a3.217,3.217,0,0,0,1.839-2.254c.148-.916-.434-1.391-1.3-1.061a3.215,3.215,0,0,0-1.839,2.254c-.148.915.435,1.391,1.3,1.061" transform="translate(-86.959 -175.551)" fill="#d4ecff"/>
          <path id="Trazado_781141" data-name="Trazado 781141" d="M285.493,302.217c.368.3.727.163.8-.305a1.645,1.645,0,0,0-.528-1.391c-.368-.3-.728-.163-.8.3a1.644,1.644,0,0,0,.529,1.392" transform="translate(-90.154 -177.77)" fill="#d4ecff"/>
        </g>
      </g>
    </g>
  </g>
</svg>
