<svg xmlns="http://www.w3.org/2000/svg" xmlns:xlink="http://www.w3.org/1999/xlink" width="141" height="141" viewBox="0 0 141 141">
  <defs>
    <clipPath id="clip-path">
      <rect id="Rectángulo_363844" data-name="Rectángulo 363844" width="83.509" height="83.516" fill="none"/>
    </clipPath>
  </defs>
  <g id="Grupo_1043416" data-name="Grupo 1043416" transform="translate(-3943 10908.802)">
    <circle id="Elipse_8725" data-name="Elipse 8725" cx="70.5" cy="70.5" r="70.5" transform="translate(3943 -10908.802)" fill="#5573c6" opacity="0.58"/>
    <circle id="Elipse_8726" data-name="Elipse 8726" cx="61.5" cy="61.5" r="61.5" transform="translate(3952 -10899.802)" fill="#fff"/>
    <g id="Grupo_1042536" data-name="Grupo 1042536" transform="translate(3970.246 -10880.06)">
      <g id="Grupo_1030480" data-name="Grupo 1030480" clip-path="url(#clip-path)">
        <path id="Trazado_771316" data-name="Trazado 771316" d="M149.882,320.87a6.129,6.129,0,0,0-2.315-.3,27.4,27.4,0,0,1-8.976-2.434,5.133,5.133,0,0,1-2.9-2.938,5.047,5.047,0,0,1-.137-1.559q-.011-10.267-.005-20.534a4.968,4.968,0,0,1,3.647-5.048,35.068,35.068,0,0,1,4.611-1.454,4.682,4.682,0,0,0,1.684-.547c.37-.228.9.066,1.4.009a45.741,45.741,0,0,1,9.884-.387,50.606,50.606,0,0,1,8.023,1.187,16.878,16.878,0,0,1,5.126,2.167,4.523,4.523,0,0,1,2.114,4.01q0,10.267,0,20.534a4.73,4.73,0,0,1-2.791,4.29,19.96,19.96,0,0,1-6.474,2.245,31.183,31.183,0,0,1-4.485.6c-.274.007-.614-.185-.834.157ZM167.741,290.9c-.024-.094-.065-.165-.182-.132-1.525-1.082-3.511-.976-5.068-1.973-.142-.091-.186.06-.28.086a2.292,2.292,0,0,1-1.191-.017,19.048,19.048,0,0,0-4.1-.439,39.72,39.72,0,0,0-5.678-.078,54.128,54.128,0,0,0-6.946.878,16.61,16.61,0,0,0-5.434,2.062c-.89.579-.9,1.335-.027,1.935a12.175,12.175,0,0,0,2.745,1.4,36.61,36.61,0,0,0,12,1.784A43.16,43.16,0,0,0,159.95,296a52.937,52.937,0,0,0,5.446-1.179,7.562,7.562,0,0,0,2.641-1.218l.192-.13c.232-.186.474-.361.694-.561.252-.229.477-.59.281-.849-.378-.5-.716-1.116-1.468-1.17Zm1.563,12.41.054-.028-.021-.055q.007-3.488.015-6.975l.013-.056-.055-.022c-.507-.061-.85.281-1.242.5a26.741,26.741,0,0,1-2.736.912,25.1,25.1,0,0,1-5.5,1c-1.126.041-2.314.377-3.483.38a57.315,57.315,0,0,1-9.346-.324,31.1,31.1,0,0,1-5.041-1.068,24.737,24.737,0,0,1-3.716-1.452c0,2.331.006,4.547,0,6.763a1.458,1.458,0,0,0,.625,1.3,13.293,13.293,0,0,0,2.773,1.384,28.93,28.93,0,0,0,8.734,1.617,46.824,46.824,0,0,0,8.708-.156c.73-.091,1.473-.112,2.209-.257,1.072-.211,2.134-.482,3.181-.761a9.661,9.661,0,0,0,3.607-1.523,2.337,2.337,0,0,0,1.228-1.185m-1.747,12.485c.357.129.387-.285.632-.39a1.908,1.908,0,0,0,1.176-1.984c-.037-1.7,0-3.409-.02-5.114,0-.4.23-.976-.138-1.159s-.777.254-1.145.473a42.161,42.161,0,0,1-5.285,1.53,36.075,36.075,0,0,1-6.549.755,56.047,56.047,0,0,1-7.031-.122c-1.854-.211-3.692-.45-5.518-.844a22.093,22.093,0,0,1-5.435-1.943c0,2.139.081,4.182-.03,6.215a2.348,2.348,0,0,0,1.528,2.454,25.836,25.836,0,0,0,10.884,2.467,46.3,46.3,0,0,0,9.088-.263,26.789,26.789,0,0,0,7.842-2.076" transform="translate(-112.676 -237.354)"/>
        <path id="Trazado_771317" data-name="Trazado 771317" d="M0,50.353a19.16,19.16,0,0,1,1.513-4.215A13.586,13.586,0,0,1,6.9,40.729a12.742,12.742,0,0,1,6.16-1.634,13.244,13.244,0,0,1,11.519,6.167,12.068,12.068,0,0,1,2.035,6.616,11.82,11.82,0,0,1-.72,5A14.6,14.6,0,0,1,22.4,62.241a15.625,15.625,0,0,1-5.749,3.131,11.4,11.4,0,0,1-7.887-.28C4.18,63.184,1,59.854.162,54.713c-.009-.058-.106-.1-.162-.151V52.2a.407.407,0,0,0,0-.673Zm16.7,3.4c-.516.076-1.4-.3-1.846.139s-.111,1.33-.137,2.022a2.646,2.646,0,0,0,.1,1.384c.223.347.829.069,1.262.132a7.651,7.651,0,0,1,.789.187c.906.234,1.278-.227,1.476-.988.178-.683.312-1.379.524-2.05.234-.74-.039-.923-.736-.835a12.552,12.552,0,0,1-1.43.01m-6.708,0c-.658,0-1.19.025-1.718-.008-.419-.027-.525.129-.5.528A12.29,12.29,0,0,0,8.6,57.463c.1.3.33.323.672.222a4.518,4.518,0,0,1,1.688-.235c.934.1,1.181-.293,1.056-1.12-.021-.137,0-.279,0-.418-.045-.69.3-1.578-.137-2.019s-1.328-.069-1.889-.141m-.149-2.691c.56,0,1.121-.014,1.681.005.343.012.512-.074.5-.462-.023-.868,0-1.737-.009-2.605,0-.193.016-.428-.274-.418a9.709,9.709,0,0,1-2.8-.4c-.168-.044-.275,0-.364.216a15.588,15.588,0,0,0-.821,2.8c-.118.549-.031,1,.744.881a9.276,9.276,0,0,1,1.343-.012m6.977.029c0-.01,0-.019,0-.029.531,0,1.063-.021,1.593.007.379.02.466-.126.451-.482a11.51,11.51,0,0,0-.686-2.763c-.143-.479-.3-.81-.957-.538a4.032,4.032,0,0,1-1.117.208c-1.395.116-1.414.118-1.387,1.443.014.688-.313,1.6.157,2,.4.342,1.278.125,1.945.155m5.79.106c.416,0,.7,0,.977,0,.182,0,.358-.028.313-.265a10.43,10.43,0,0,0-1.977-4.8c-.29-.355-.708-.12-1.064.019-.372.146-.259.36-.17.663a15.213,15.213,0,0,1,.815,3.3c.057.986.36,1.253,1.106,1.084M2.729,53.949c.044.266.082.533.134.8a11.644,11.644,0,0,0,1.711,3.919c.358.57.812.148,1.191.053s.377-.455.213-.758a19.46,19.46,0,0,1-.741-2.329c-.22-.56.114-1.432-.444-1.682a5.087,5.087,0,0,0-1.986-.031.257.257,0,0,0-.078.03m1.307-2.89c.2-.316.951.472,1-.4a17.718,17.718,0,0,1,.87-3.727c.064-.229.512-.53-.015-.67-.388-.1-.731-.629-1.268-.015A9.549,9.549,0,0,0,2.9,49.808c-.342,1.06-.134,1.251,1.132,1.251m19.828,2.829c-.658,0-1.272.013-1.886-.005-.317-.01-.4.093-.443.419a13.846,13.846,0,0,1-.789,3.4c-.117.293-.531.765.106,1.062a.918.918,0,0,0,1.353-.392,10.943,10.943,0,0,0,1.658-4.485m-7.375-9.131c-.532-.62-.936-1.093-1.343-1.565-.24-.279-.461-.235-.483.12a3.351,3.351,0,0,0,.081,1.555c.179.378.673-.159,1.054-.078a3.454,3.454,0,0,0,.692-.033m-4.536-1.89a3.127,3.127,0,0,0-1.239,1.238c-.1.191-.568.274-.3.541.314.308.776.2,1.2.164.33-.03.339-.187.335-.428-.007-.46,0-.92,0-1.515M14.7,59.947v2c.649-.628,1.289-1.033,1.583-1.807a4.366,4.366,0,0,1-1.583-.2m-2.841,1.889c.175-1.921.4-1.851-1.492-1.6a4.635,4.635,0,0,0,1.492,1.6M19.2,43.58c-.041-.061-.077-.184-.15-.211-.142-.053-.184.088-.169.185a.352.352,0,0,0,.144.249c.168.07.126-.1.175-.224" transform="translate(0 -32.498)"/>
        <path id="Trazado_771318" data-name="Trazado 771318" d="M0,112.786a.407.407,0,0,1,0,.674Z" transform="translate(0 -93.752)" fill="#010101"/>
        <path id="Trazado_771319" data-name="Trazado 771319" d="M360.4,43.935c0,4.964-.012,9.928.006,14.892a3.836,3.836,0,0,1-2.469,3.934,1.943,1.943,0,0,1-.784.158q-10.39-.02-20.78-.007a3.543,3.543,0,0,1-3.243-3.542,8.065,8.065,0,0,0,.069-1.083q.005-14.766-.008-29.532a3.777,3.777,0,0,1,1.6-3.58A3.943,3.943,0,0,1,337,24.685q6.646.005,13.293,0c2.047,0,4.1.038,6.141-.01a3.665,3.665,0,0,1,3.964,3.945q0,7.656,0,15.313M357.539,28.1c-.037-.719-.534-.717-1.071-.716q-9.175.01-18.35,0c-2.245,0-2.245,0-2.245,2.294q0,14.394,0,28.789c0,1.743,0,1.743,1.786,1.743,3.142,0,6.285.005,9.427,0,2.861-.006,5.722-.025,8.583-.038,1.415.185,2.069.205,2.06-1.731-.046-9.8-.02-19.6-.029-29.4,0-.312.152-.672-.16-.939" transform="translate(-276.898 -20.511)"/>
        <path id="Trazado_771320" data-name="Trazado 771320" d="M193.622,20.212c0,4.208-.009,8.416.013,12.623a3.775,3.775,0,0,1-.2,1.293,1.218,1.218,0,0,1-1.223.9c-7.489-.021-14.979-.014-22.468-.017-1.187,0-1.649-.507-1.575-1.681.018-.277-.032-.558-.032-.837q0-15.19,0-30.38V2.032c0-1.793.229-2.023,2-2.023,5.3,0,10.6.008,15.9-.009a2.53,2.53,0,0,1,1.911.8q2.428,2.451,4.88,4.879a2.519,2.519,0,0,1,.8,1.912c-.018,4.208-.009,8.415-.009,12.623M171.751,2.727c-.691-.142-.946.039-.943.839q.051,13.954,0,27.908c0,.8.244.988.944.822q9.251.012,18.5.032c.515,0,.682-.178.681-.687Q190.907,20.12,190.9,8.6c.03-.116,0-.183-.133-.158-1.344-.012-2.687-.015-4.031-.038-1.115-.019-1.5-.4-1.512-1.518-.013-1.2-.019-2.41.006-3.614.008-.416-.072-.581-.541-.578-4.314.027-8.628.027-12.941.035m16.184,1.95c-.029,1.107-.029,1.107.833.945a3.642,3.642,0,0,0-.833-.945" transform="translate(-139.76 0)"/>
        <path id="Trazado_771321" data-name="Trazado 771321" d="M42.714,253.661c.271-.4.844-.338,1.152-.707-.194-.259-.436-.15-.636-.151-1.962-.01-3.925,0-5.887-.007-1.5,0-1.751-.251-1.751-1.711q0-11.858,0-23.717c0-.224.021-.449.012-.672a1.045,1.045,0,0,1,1.089-1.18,1.314,1.314,0,0,1,1.472,1.024,7.611,7.611,0,0,1,.115,1.24c.007,7.177.015,14.353-.012,21.53,0,.678.193.834.832.808,1.315-.054,2.634-.028,3.951-.035.242.263.5.2.8.07a.746.746,0,0,0-.76-.405c-.209-.357-.59-.561-.764-.969a1.3,1.3,0,0,1,.218-1.444,1.138,1.138,0,0,1,1.337-.37,16.032,16.032,0,0,1,2.717,1.782c.819.484,1.617,1.006,2.407,1.537a1.4,1.4,0,0,1,.04,2.317c-1.539,1.056-3.08,2.112-4.65,3.121-.575.37-1.219.583-1.8-.1a1.284,1.284,0,0,1-.014-1.835l.131-.13" transform="translate(-29.585 -187.452)"/>
        <path id="Trazado_771322" data-name="Trazado 771322" d="M373.95,287.725c.088.234.333.26.5.387a1.323,1.323,0,0,1,.507,1.8,1.446,1.446,0,0,1-1.77.591,43.608,43.608,0,0,1-5-3.461,1.339,1.339,0,0,1,.247-2.286c1.475-.828,2.76-1.915,4.159-2.843,1.156-.767,2.072-.515,2.406.658a1.364,1.364,0,0,1-.748,1.575,1.682,1.682,0,0,0-.7.538c1.836,0,3.546,0,5.256,0,.478,0,.344-.347.346-.6.009-1.4,0-2.8,0-4.205,0-3.869.01-7.738-.005-11.607a.976.976,0,0,1,.708-1.079c.593-.1,1.339-.259,1.72.46a2.726,2.726,0,0,1,.272,1.271q0,8.411-.006,16.822a1.484,1.484,0,0,1-1.656,1.625q-3.111.017-6.223.022c-.158-.039-.427-.093-.441.033-.025.212.208.29.419.3" transform="translate(-305.614 -222.028)"/>
        <path id="Trazado_771323" data-name="Trazado 771323" d="M222.492,217.229c.367-.148.412-.562.674-.812a1.327,1.327,0,0,1,1.725-.2,1.116,1.116,0,0,1,.38,1.692c-.924,1.547-1.947,3.027-3.014,4.475-.192.261-.419.511-.626.759-.4.481-.958.386-1.439-.04a6.46,6.46,0,0,1-1.048-1.367c-.764-1.162-1.577-2.293-2.385-3.425a1.606,1.606,0,0,1-.322-.736c-.076-.586-.007-1.248.541-1.449a1.519,1.519,0,0,1,1.83.342c.24.289.35.692.834.937,0-1.53,0-2.994,0-4.458,0-1.2.352-1.526,1.543-1.45.641.041,1.136.715,1.146,1.6.016,1.373.017,2.746.025,4.118l.008.128.126-.113" transform="translate(-179.89 -175.798)" fill="#010101"/>
        <path id="Trazado_771324" data-name="Trazado 771324" d="M79.829,369.142a.746.746,0,0,1,.76.4c-.3.125-.557.193-.8-.07l.039-.335" transform="translate(-66.325 -306.845)" fill="#222"/>
        <path id="Trazado_771325" data-name="Trazado 771325" d="M402.856,387.44c-.211-.006-.444-.084-.419-.3.015-.126.283-.072.441-.033l-.022.329" transform="translate(-334.52 -321.744)" fill="#d0d0d5"/>
        <path id="Trazado_771326" data-name="Trazado 771326" d="M251.784,245.381l-.126.113-.008-.128a.145.145,0,0,1,.134.015" transform="translate(-209.181 -203.95)" fill="#d0d0d5"/>
        <path id="Trazado_771327" data-name="Trazado 771327" d="M77.115,392.291l-.131.13q-.041-.171.131-.13" transform="translate(-63.986 -326.081)" fill="#010101"/>
        <path id="Trazado_771328" data-name="Trazado 771328" d="M181.313,356.612a9.661,9.661,0,0,1-3.607,1.523c-1.046.279-2.108.55-3.181.761-.736.145-1.479.166-2.209.257a46.824,46.824,0,0,1-8.708.156,28.916,28.916,0,0,1-8.734-1.617,13.284,13.284,0,0,1-2.773-1.384,1.459,1.459,0,0,1-.625-1.3c.01-2.216,0-4.432,0-6.763A24.728,24.728,0,0,0,155.2,349.7a31.1,31.1,0,0,0,5.041,1.068,57.317,57.317,0,0,0,9.346.324c1.169,0,2.357-.339,3.483-.38a25.106,25.106,0,0,0,5.5-1,26.7,26.7,0,0,0,2.736-.912q0,3.909.008,7.818m-14.48-.054c0,.015,0,.03,0,.045.533,0,1.066.015,1.6,0a1.346,1.346,0,1,0,.121-2.664c-1.147-.044-2.3-.045-3.445.023a1.12,1.12,0,0,0-1.149,1.229c0,.8.362,1.293,1.113,1.36.583.052,1.174.01,1.762.01" transform="translate(-125.913 -289.476)" fill="#f0dcc0"/>
        <path id="Trazado_771329" data-name="Trazado 771329" d="M180.639,421.448a26.8,26.8,0,0,1-7.842,2.077,46.31,46.31,0,0,1-9.088.263,25.838,25.838,0,0,1-10.884-2.467,2.348,2.348,0,0,1-1.528-2.454c.111-2.033.03-4.076.03-6.215a22.1,22.1,0,0,0,5.435,1.943c1.826.394,3.665.633,5.518.844a56.026,56.026,0,0,0,7.031.122,36.083,36.083,0,0,0,6.549-.755,42.185,42.185,0,0,0,5.285-1.53c-.231,2.721.536,5.5-.505,8.174m-13.86-.431a9,9,0,0,0,2.092-.031,1.24,1.24,0,0,0,.945-1.288,1.074,1.074,0,0,0-.863-1.118,14.4,14.4,0,0,0-3.981-.157,1.253,1.253,0,0,0-1.163,1.363A1.177,1.177,0,0,0,164.933,421a13.427,13.427,0,0,0,1.845.018" transform="translate(-125.759 -343.012)" fill="#f0dcc0"/>
        <path id="Trazado_771330" data-name="Trazado 771330" d="M181.03,306.985a7.563,7.563,0,0,1-2.641,1.218,52.943,52.943,0,0,1-5.446,1.179,43.181,43.181,0,0,1-6.363.408,36.612,36.612,0,0,1-12-1.784,12.168,12.168,0,0,1-2.745-1.4c-.872-.6-.863-1.356.027-1.935a16.609,16.609,0,0,1,5.434-2.062,54.146,54.146,0,0,1,6.946-.878,39.747,39.747,0,0,1,5.678.078,19.072,19.072,0,0,1,4.1.439,2.294,2.294,0,0,0,1.19.017c.093-.026.138-.177.28-.086,1.557,1,3.543.891,5.068,1.973l.182.132-.006-.006a5.7,5.7,0,0,1,.34,2.56.849.849,0,0,1-.039.151" transform="translate(-125.671 -250.739)" fill="#f4a338"/>
        <path id="Trazado_771331" data-name="Trazado 771331" d="M325.194,421.98c1.041-2.671.275-5.453.505-8.174.368-.219.787-.652,1.145-.473s.133.76.138,1.159c.021,1.7-.017,3.41.02,5.114a1.908,1.908,0,0,1-1.176,1.984c-.245.105-.275.519-.632.39" transform="translate(-270.314 -343.544)" fill="#e3bf8d"/>
        <path id="Trazado_771332" data-name="Trazado 771332" d="M328.233,356.8q0-3.909-.008-7.818c.392-.222.735-.564,1.241-.5,0,0-.006.059-.006.059l.049.021q-.008,3.487-.015,6.974l-.047.028.014.056a2.337,2.337,0,0,1-1.228,1.185" transform="translate(-272.834 -289.66)" fill="#e3bf8d"/>
        <path id="Trazado_771333" data-name="Trazado 771333" d="M326.592,319.782a5.7,5.7,0,0,0-.34-2.56c.753.054,1.091.671,1.468,1.17.2.259-.029.621-.281.85-.22.2-.462.375-.694.561a.15.15,0,0,0-.153-.021" transform="translate(-271.194 -263.687)" fill="#de9533"/>
        <path id="Trazado_771334" data-name="Trazado 771334" d="M325.392,316.57l-.182-.132c.117-.033.158.037.182.132" transform="translate(-270.327 -263.029)" fill="#f9cc57"/>
        <path id="Trazado_771335" data-name="Trazado 771335" d="M335.593,348.588l-.049-.021s.005-.059.006-.059l.056.023Z" transform="translate(-278.917 -289.694)" fill="#675e68"/>
        <path id="Trazado_771336" data-name="Trazado 771336" d="M335.48,390.385l-.014-.056.047-.028.021.056Z" transform="translate(-278.853 -324.434)" fill="#675e68"/>
        <path id="Trazado_771337" data-name="Trazado 771337" d="M328.077,332.332a.15.15,0,0,1,.153.021l-.192.13a.856.856,0,0,0,.039-.151" transform="translate(-272.678 -276.237)" fill="#010101"/>
        <path id="Trazado_771338" data-name="Trazado 771338" d="M88.706,125.546a12.55,12.55,0,0,0,1.43-.01c.7-.089.97.095.736.835-.212.671-.346,1.368-.524,2.05-.2.761-.571,1.222-1.476.988a7.636,7.636,0,0,0-.789-.187c-.433-.064-1.039.214-1.262-.132a2.643,2.643,0,0,1-.1-1.384c.026-.692-.307-1.579.137-2.022s1.33-.063,1.846-.139" transform="translate(-72.008 -104.293)" fill="#4adbd1"/>
        <path id="Trazado_771339" data-name="Trazado 771339" d="M48.258,125.538c.561.072,1.452-.3,1.889.141s.092,1.329.137,2.019c.009.139-.016.282,0,.418.125.827-.121,1.216-1.056,1.12a4.518,4.518,0,0,0-1.688.235c-.341.1-.57.074-.672-.222a12.29,12.29,0,0,1-.832-3.193c-.025-.4.08-.554.5-.528.528.034,1.06.008,1.718.008" transform="translate(-38.268 -104.285)" fill="#4adbd1"/>
        <path id="Trazado_771340" data-name="Trazado 771340" d="M47.826,90.793a9.231,9.231,0,0,0-1.343.012c-.775.115-.862-.331-.744-.881a15.587,15.587,0,0,1,.821-2.8c.089-.211.2-.26.364-.216a9.708,9.708,0,0,0,2.8.4c.29-.009.274.225.274.418,0,.868-.014,1.737.009,2.605.01.388-.159.474-.5.462-.56-.019-1.12-.005-1.681,0" transform="translate(-37.984 -72.231)" fill="#4adbd1"/>
        <path id="Trazado_771341" data-name="Trazado 771341" d="M88.821,90.935c-.667-.03-1.546.187-1.945-.155-.47-.4-.143-1.312-.157-2-.027-1.325-.008-1.327,1.387-1.443a4.032,4.032,0,0,0,1.117-.208c.662-.272.814.058.957.538a11.512,11.512,0,0,1,.686,2.763c.016.356-.072.5-.451.482-.53-.028-1.062-.007-1.593-.007,0,.01,0,.019,0,.029" transform="translate(-72.002 -72.344)" fill="#4adbd1"/>
        <path id="Trazado_771342" data-name="Trazado 771342" d="M124.069,84.919c-.746.17-1.049-.1-1.106-1.084a15.218,15.218,0,0,0-.815-3.3c-.089-.3-.2-.517.17-.663.356-.14.774-.375,1.064-.02a10.428,10.428,0,0,1,1.977,4.8c.046.237-.131.266-.313.265-.28,0-.561,0-.977,0" transform="translate(-101.461 -66.222)" fill="#4adbd1"/>
        <path id="Trazado_771343" data-name="Trazado 771343" d="M16.173,126.518a.255.255,0,0,1,.078-.03,5.09,5.09,0,0,1,1.986.031c.558.25.224,1.122.444,1.682a19.465,19.465,0,0,0,.741,2.329c.165.3.162.664-.213.758s-.833.517-1.191-.053a11.644,11.644,0,0,1-1.711-3.919c-.052-.264-.09-.531-.134-.8" transform="translate(-13.444 -105.066)" fill="#4adbd1"/>
        <path id="Trazado_771344" data-name="Trazado 771344" d="M17.613,84.868c-1.267,0-1.474-.191-1.132-1.251A9.549,9.549,0,0,1,18.2,80.06c.537-.613.879-.088,1.268.015.527.14.078.441.015.67a17.706,17.706,0,0,0-.87,3.727c-.05.868-.8.08-1,.4" transform="translate(-13.578 -66.306)" fill="#4adbd1"/>
        <path id="Trazado_771345" data-name="Trazado 771345" d="M124.867,126.723a10.945,10.945,0,0,1-1.658,4.485.918.918,0,0,1-1.353.392c-.637-.3-.223-.768-.106-1.062a13.846,13.846,0,0,0,.789-3.4c.042-.326.126-.429.443-.419.613.018,1.228.005,1.886.005" transform="translate(-101.003 -105.332)" fill="#4adbd1"/>
        <path id="Trazado_771346" data-name="Trazado 771346" d="M88.465,64.045a3.471,3.471,0,0,1-.692.033c-.381-.082-.875.455-1.054.078a3.349,3.349,0,0,1-.081-1.555c.023-.355.243-.4.483-.12.407.472.811.945,1.343,1.565" transform="translate(-71.976 -51.785)" fill="#4adbd1"/>
        <path id="Trazado_771347" data-name="Trazado 771347" d="M62.854,61.449c0,.595-.005,1.055,0,1.515,0,.241-.005.4-.335.428-.427.038-.889.144-1.2-.164-.272-.267.2-.35.3-.541a3.127,3.127,0,0,1,1.239-1.239" transform="translate(-50.901 -51.079)" fill="#4adbd1"/>
        <path id="Trazado_771348" data-name="Trazado 771348" d="M87.08,162.651a4.366,4.366,0,0,0,1.583.2c-.294.773-.934,1.179-1.583,1.807Z" transform="translate(-72.384 -135.202)" fill="#4adbd1"/>
        <path id="Trazado_771349" data-name="Trazado 771349" d="M62.9,165.325a4.633,4.633,0,0,1-1.492-1.6c1.888-.247,1.668-.317,1.492,1.6" transform="translate(-51.044 -135.986)" fill="#4adbd1"/>
        <path id="Trazado_771350" data-name="Trazado 771350" d="M112.213,64.575c-.049.124-.007.294-.175.224a.352.352,0,0,1-.144-.249c-.015-.1.027-.238.169-.185.073.027.11.15.15.211" transform="translate(-93.008 -53.493)" fill="#010101"/>
        <path id="Trazado_771351" data-name="Trazado 771351" d="M369.251,73.492c-2.861.013-5.722.032-8.583.038-3.143.007-6.285,0-9.427,0-1.789,0-1.786,0-1.786-1.743q0-14.394,0-28.789c0-2.294,0-2.294,2.245-2.294q9.175,0,18.35,0c.537,0,1.034,0,1.072.716-.3.276-.162.635-.163.955q-.011,14.222,0,28.443a2.133,2.133,0,0,1-1.321,2.214c-.238.1-.394.191-.387.461m-8.905-15.631c1.85,0,3.7.012,5.552,0,1.519-.013,2.078-.676,1.85-2.177a7.5,7.5,0,0,0-3.433-5.447c-.357-.228-.368-.292-.158-.65a4.4,4.4,0,0,0-3.266-6.6,4.373,4.373,0,0,0-4.335,6.531c.189.312.24.476-.136.715a7.384,7.384,0,0,0-3.428,5.1c-.262,1.463-.055,2.585,1.97,2.542,1.794-.038,3.589-.008,5.383-.008M360.294,69.7c2.244,0,4.489.008,6.733,0a1.248,1.248,0,0,0,1.406-1.448c-.025-.83-.569-1.238-1.722-1.239q-6.312-.01-12.624,0a2.673,2.673,0,0,0-.809.144c-.872.271-1.177.638-1,1.51a1.231,1.231,0,0,0,1.366,1.048c2.216-.023,4.432-.008,6.649-.007m.083-4.922c2.213,0,4.425.019,6.638-.009a1.26,1.26,0,0,0,1.413-1.459c-.028-.831-.466-1.212-1.458-1.215-2.8-.008-5.6,0-8.4,0-1.652,0-3.305-.018-4.957.009a1.306,1.306,0,0,0-1.17,2.047,1.6,1.6,0,0,0,1.55.628c2.129.008,4.257,0,6.386,0" transform="translate(-290.481 -33.834)" fill="#e8e8e8"/>
        <path id="Trazado_771352" data-name="Trazado 771352" d="M466.757,77.019c-.007-.27.149-.362.387-.461a2.133,2.133,0,0,0,1.322-2.214q-.015-14.221,0-28.443c0-.32-.133-.679.163-.955.312.267.16.627.16.939.009,9.8-.017,19.6.029,29.4.009,1.936-.646,1.916-2.06,1.731" transform="translate(-387.986 -37.361)" fill="#675e68"/>
        <path id="Trazado_771353" data-name="Trazado 771353" d="M208.715,21.857q.012,11.522.032,23.045c0,.508-.166.688-.681.687q-9.251-.031-18.5-.033,0-14.784,0-29.569c4.314-.008,8.628-.009,12.941-.035.468,0,.549.162.541.578-.024,1.2-.019,2.409-.006,3.614.012,1.114.4,1.5,1.512,1.518,1.344.022,2.687.026,4.031.038l.133.158M198.577,43.395v-.032c2.017,0,4.035.01,6.052,0,.991-.007,1.484-.516,1.428-1.41-.05-.8-.637-1.275-1.612-1.276q-5.758-.007-11.516,0a3.459,3.459,0,0,0-.892.133,1.184,1.184,0,0,0-.906,1.344,1.427,1.427,0,0,0,1.4,1.246q3.025,0,6.05,0m-.028-5.471v-.019c2.046,0,4.091.013,6.137-.006a1.381,1.381,0,0,0,1.353-1.754c-.245-.8-.929-.932-1.652-.933q-5.548,0-11.1,0a7.235,7.235,0,0,0-1.073.11,1.574,1.574,0,0,0-1.141,1.295,1.554,1.554,0,0,0,1.422,1.3q3.025,0,6.051,0m.017-10.865c2.019,0,4.038.008,6.057,0a1.291,1.291,0,0,0,1.435-1.253c.046-.9-.49-1.429-1.514-1.431-3.421-.008-6.842,0-10.263,0-.5,0-1.012-.033-1.514.008-.965.079-1.794.726-1.675,1.339a1.612,1.612,0,0,0,1.839,1.37c1.875-.088,3.756-.024,5.635-.025m.084,5.416h6.057a1.048,1.048,0,0,0,.845-.241,1.409,1.409,0,0,0,.468-1.5,1.466,1.466,0,0,0-1.48-.949c-1.851-.006-3.7,0-5.552,0-2.1,0-4.206-.011-6.309.005a1.529,1.529,0,0,0-1.6,1.425,1.691,1.691,0,0,0,1.6,1.26c1.991.005,3.982,0,5.973,0m-2.272-10.862c0,.014,0,.029,0,.043,1.259,0,2.517-.007,3.776,0a1.118,1.118,0,0,0,1-.6c.625-1.017-.044-2.111-1.355-2.13-2.352-.035-4.705-.022-7.058,0-.976.008-1.689.617-1.669,1.349.021.764.7,1.32,1.689,1.334,1.2.018,2.409,0,3.613,0" transform="translate(-157.572 -13.26)" fill="#eceff1"/>
        <path id="Trazado_771354" data-name="Trazado 771354" d="M184.919,15.944q0,14.784,0,29.569c-.7.167-.947-.023-.944-.822q.049-13.954,0-27.908c0-.8.252-.981.943-.839" transform="translate(-152.928 -13.216)" fill="#d0d0d5"/>
        <path id="Trazado_771355" data-name="Trazado 771355" d="M285.423,27.718a3.643,3.643,0,0,1,.833.945c-.861.163-.861.163-.833-.945" transform="translate(-237.248 -23.04)" fill="#d0d0d5"/>
        <path id="Trazado_771356" data-name="Trazado 771356" d="M302.394,50.141l-.133-.158c.136-.024.164.043.133.158" transform="translate(-251.251 -41.544)" fill="#d0d0d5"/>
        <path id="Trazado_771357" data-name="Trazado 771357" d="M228.307,384.429c-.588,0-1.179.041-1.762-.01-.751-.067-1.111-.561-1.113-1.36a1.12,1.12,0,0,1,1.149-1.229c1.145-.068,2.3-.067,3.445-.023a1.346,1.346,0,1,1-.121,2.664c-.532.018-1.065,0-1.6,0,0-.015,0-.03,0-.045" transform="translate(-187.388 -317.347)" fill="#010101"/>
        <path id="Trazado_771358" data-name="Trazado 771358" d="M228.433,449.15a13.427,13.427,0,0,1-1.845-.018,1.177,1.177,0,0,1-1.125-1.213,1.253,1.253,0,0,1,1.163-1.363,14.406,14.406,0,0,1,3.981.157,1.074,1.074,0,0,1,.863,1.118,1.24,1.24,0,0,1-.945,1.288,9,9,0,0,1-2.092.031" transform="translate(-187.414 -371.144)"/>
        <path id="Trazado_771359" data-name="Trazado 771359" d="M377.321,68.784c-1.794,0-3.59-.03-5.383.008-2.026.043-2.232-1.08-1.97-2.542a7.384,7.384,0,0,1,3.428-5.1c.376-.239.325-.4.136-.715a4.373,4.373,0,0,1,4.335-6.531,4.395,4.395,0,0,1,3.266,6.6c-.21.358-.2.422.158.65a7.5,7.5,0,0,1,3.433,5.447c.228,1.5-.331,2.164-1.85,2.177-1.85.016-3.7,0-5.552,0m4.509-2.714a4.685,4.685,0,0,0-4.639-3.319,4.415,4.415,0,0,0-4.12,2.622c-.232.473-.235.707.394.7,2.764-.015,5.529-.007,8.365-.007M377.2,59.92a1.563,1.563,0,0,0,1.811-1.579,1.734,1.734,0,0,0-1.615-1.8,1.592,1.592,0,0,0-1.747,1.557A1.551,1.551,0,0,0,377.2,59.92" transform="translate(-307.456 -44.756)" fill="#010101"/>
        <path id="Trazado_771360" data-name="Trazado 771360" d="M373.964,199.271c-2.216,0-4.433-.015-6.649.008a1.232,1.232,0,0,1-1.366-1.049c-.178-.872.127-1.239,1-1.509a2.679,2.679,0,0,1,.809-.144q6.312,0,12.624,0c1.152,0,1.7.409,1.721,1.239a1.247,1.247,0,0,1-1.406,1.448c-2.244.011-4.489,0-6.733,0" transform="translate(-304.151 -163.403)"/>
        <path id="Trazado_771361" data-name="Trazado 771361" d="M373.975,170.123c-2.129,0-4.257,0-6.386,0a1.6,1.6,0,0,1-1.55-.628,1.306,1.306,0,0,1,1.17-2.047c1.652-.027,3.3-.008,4.957-.008,2.8,0,5.6-.005,8.4,0,.992,0,1.429.384,1.458,1.215a1.26,1.26,0,0,1-1.413,1.459c-2.212.027-4.425.009-6.638.01" transform="translate(-304.079 -139.174)"/>
        <path id="Trazado_771362" data-name="Trazado 771362" d="M206.287,165.135h-6.05a1.427,1.427,0,0,1-1.4-1.246,1.184,1.184,0,0,1,.906-1.344,3.467,3.467,0,0,1,.892-.133q5.758-.006,11.516,0c.975,0,1.562.477,1.612,1.277.056.894-.437,1.4-1.428,1.41-2.017.015-4.035,0-6.052,0v.032" transform="translate(-165.282 -135)"/>
        <path id="Trazado_771363" data-name="Trazado 771363" d="M206,132.784q-3.025,0-6.051,0a1.553,1.553,0,0,1-1.422-1.3,1.574,1.574,0,0,1,1.141-1.295,7.255,7.255,0,0,1,1.073-.11q5.548-.012,11.1,0c.723,0,1.407.135,1.652.933a1.381,1.381,0,0,1-1.353,1.754c-2.045.019-4.091.006-6.137.006v.019" transform="translate(-165.024 -108.12)"/>
        <path id="Trazado_771364" data-name="Trazado 771364" d="M206.039,68.447c-1.879,0-3.761-.064-5.635.024a1.612,1.612,0,0,1-1.839-1.37c-.118-.612.711-1.26,1.675-1.339.5-.041,1.009-.008,1.514-.008,3.421,0,6.842,0,10.263,0,1.024,0,1.56.527,1.514,1.431a1.291,1.291,0,0,1-1.435,1.253c-2.019.012-4.038,0-6.057,0" transform="translate(-165.045 -54.648)"/>
        <path id="Trazado_771365" data-name="Trazado 771365" d="M206.1,100.585c-1.991,0-3.982,0-5.973,0a1.691,1.691,0,0,1-1.6-1.26,1.529,1.529,0,0,1,1.6-1.425c2.1-.017,4.206-.005,6.309-.005,1.851,0,3.7,0,5.552,0a1.466,1.466,0,0,1,1.48.949,1.409,1.409,0,0,1-.468,1.5,1.048,1.048,0,0,1-.845.241H206.1" transform="translate(-165.018 -81.369)"/>
        <path id="Trazado_771366" data-name="Trazado 771366" d="M203.828,36.17c-1.2,0-2.409.014-3.613,0-.989-.015-1.668-.571-1.689-1.334-.02-.732.693-1.341,1.669-1.349,2.353-.019,4.706-.031,7.058,0,1.31.019,1.98,1.113,1.355,2.13a1.118,1.118,0,0,1-1,.6c-1.259-.011-2.517,0-3.776,0,0-.014,0-.029,0-.043" transform="translate(-165.022 -27.817)"/>
        <path id="Trazado_771367" data-name="Trazado 771367" d="M396.86,109.928c-2.836,0-5.6-.009-8.365.007-.629,0-.626-.231-.394-.7a4.416,4.416,0,0,1,4.121-2.622,4.685,4.685,0,0,1,4.638,3.319" transform="translate(-322.486 -88.614)" fill="#5573c6"/>
        <path id="Trazado_771368" data-name="Trazado 771368" d="M405.591,73.191a1.551,1.551,0,0,1-1.552-1.823,1.592,1.592,0,0,1,1.748-1.557,1.734,1.734,0,0,1,1.615,1.8,1.563,1.563,0,0,1-1.811,1.579" transform="translate(-335.852 -58.027)" fill="#f4a338"/>
      </g>
    </g>
  </g>
</svg>
