<svg xmlns="http://www.w3.org/2000/svg" xmlns:xlink="http://www.w3.org/1999/xlink" width="400" height="438.617" viewBox="0 0 400 438.617">
  <defs>
    <clipPath id="clip-path">
      <rect id="Rectángulo_358781" data-name="Rectángulo 358781" width="400" height="356.774" fill="none"/>
    </clipPath>
    <clipPath id="clip-path-3">
      <rect id="Rectángulo_358647" data-name="Rectángulo 358647" width="10.88" height="26.856" fill="none"/>
    </clipPath>
    <clipPath id="clip-path-5">
      <rect id="Rectángulo_358670" data-name="Rectángulo 358670" width="10.95" height="27.026" fill="none"/>
    </clipPath>
    <clipPath id="clip-path-8">
      <rect id="Rectángulo_358695" data-name="Rectángulo 358695" width="10.877" height="26.856" fill="none"/>
    </clipPath>
    <clipPath id="clip-path-9">
      <rect id="Rectángulo_358716" data-name="Rectángulo 358716" width="7.626" height="18.822" fill="none"/>
    </clipPath>
    <clipPath id="clip-path-10">
      <rect id="Rectángulo_358718" data-name="Rectángulo 358718" width="7.627" height="18.822" fill="none"/>
    </clipPath>
    <clipPath id="clip-path-11">
      <rect id="Rectángulo_372312" data-name="Rectángulo 372312" width="122.54" height="63.832" fill="#4adbd1"/>
    </clipPath>
  </defs>
  <g id="Grupo_1043414" data-name="Grupo 1043414" transform="translate(-180 -2741.773)">
    <g id="Grupo_1022803" data-name="Grupo 1022803" transform="translate(180 2753.787)">
      <g id="Grupo_1022802" data-name="Grupo 1022802" clip-path="url(#clip-path)">
        <path id="Trazado_752497" data-name="Trazado 752497" d="M142.585,162.1H3.164V102.516H20.675v2.42H5.587V159.68H140.162V129.9h67.294v2.423H142.585Z" transform="translate(5.877 190.424)" fill="#d5e5e6"/>
        <g id="Grupo_1022801" data-name="Grupo 1022801" transform="translate(0 0)">
          <g id="Grupo_1022800" data-name="Grupo 1022800" clip-path="url(#clip-path)">
            <path id="Trazado_752498" data-name="Trazado 752498" d="M117.023,12.711a5.648,5.648,0,1,1-5.649-5.649,5.649,5.649,0,0,1,5.649,5.649" transform="translate(196.389 13.118)" fill="#95a5a6"/>
            <path id="Trazado_752499" data-name="Trazado 752499" d="M56.815,58.586H19.228v59.462h53.1V58.586H56.815Z" transform="translate(35.716 108.825)" fill="#213f47"/>
            <path id="Trazado_752500" data-name="Trazado 752500" d="M75.952,63.02H38.362v46.792h53.1V63.02H75.952Z" transform="translate(71.257 117.06)" fill="#213f47"/>
            <path id="Trazado_752501" data-name="Trazado 752501" d="M81.787,45.984H38.362V92.776h53.1V45.984Z" transform="translate(71.257 85.416)" fill="#213f47"/>
            <path id="Trazado_752502" data-name="Trazado 752502" d="M37.591,48.735H0v87.611H53.1V48.735H37.591Z" transform="translate(0.001 90.525)" fill="#12263f"/>
            <path id="Trazado_752503" data-name="Trazado 752503" d="M56.847,46.722H19.256V79.438h53.1V46.722H56.847Z" transform="translate(35.768 86.787)" fill="#12263f"/>
            <path id="Trazado_752504" data-name="Trazado 752504" d="M131.59,73.869H94v59.462h53.107V73.869H131.59Z" transform="translate(174.605 137.212)" fill="#12263f"/>
            <path id="Trazado_752505" data-name="Trazado 752505" d="M150.724,78.3H113.133v46.792H166.24V78.3H150.724Z" transform="translate(210.146 145.447)" fill="#213f47"/>
            <path id="Trazado_752506" data-name="Trazado 752506" d="M156.559,61.266H113.133v46.792H166.24V61.266Z" transform="translate(210.146 113.802)" fill="#12263f"/>
            <path id="Trazado_752507" data-name="Trazado 752507" d="M112.362,64.017H74.772v87.611h53.107V64.017H112.362Z" transform="translate(138.889 118.912)" fill="#213f47"/>
            <path id="Trazado_752508" data-name="Trazado 752508" d="M131.618,62H94.028V94.72h53.107V62H131.618Z" transform="translate(174.657 115.174)" fill="#12263f"/>
            <path id="Trazado_752509" data-name="Trazado 752509" d="M75.975,24.855H38.384V84.317H91.491V24.855H75.975Z" transform="translate(71.299 46.168)" fill="#12263f"/>
            <path id="Trazado_752510" data-name="Trazado 752510" d="M95.106,29.289H57.519V76.08h53.1V29.289H95.106Z" transform="translate(106.842 54.404)" fill="#12263f"/>
            <path id="Trazado_752511" data-name="Trazado 752511" d="M100.942,12.252H57.519V59.044h53.1V12.252Z" transform="translate(106.842 22.759)" fill="#12263f"/>
            <path id="Trazado_752512" data-name="Trazado 752512" d="M56.747,15H19.157v87.611H72.263V15H56.747Z" transform="translate(35.583 27.869)" fill="#12263f"/>
            <path id="Trazado_752513" data-name="Trazado 752513" d="M76,12.991H38.413V45.706h53.1V12.991H76Z" transform="translate(71.353 24.13)" fill="#12263f"/>
            <rect id="Rectángulo_358627" data-name="Rectángulo 358627" width="99.021" height="163.367" transform="translate(192.17 105.954)" fill="#d7ba76"/>
            <rect id="Rectángulo_358628" data-name="Rectángulo 358628" width="42.511" height="19.128" transform="translate(196.545 245.929)" fill="#fcf7ea"/>
            <rect id="Rectángulo_358629" data-name="Rectángulo 358629" width="2.515" height="16.299" transform="translate(198.843 247.343)" fill="#354546"/>
            <rect id="Rectángulo_358630" data-name="Rectángulo 358630" width="0.846" height="16.299" transform="translate(202.886 247.343)" fill="#354546"/>
            <rect id="Rectángulo_358631" data-name="Rectángulo 358631" width="0.846" height="16.299" transform="translate(230.447 247.343)" fill="#354546"/>
            <rect id="Rectángulo_358632" data-name="Rectángulo 358632" width="2.517" height="16.299" transform="translate(206.932 247.343)" fill="#354546"/>
            <rect id="Rectángulo_358633" data-name="Rectángulo 358633" width="1.257" height="16.299" transform="translate(210.979 247.343)" fill="#354546"/>
            <rect id="Rectángulo_358634" data-name="Rectángulo 358634" width="1.257" height="16.299" transform="translate(204.798 247.343)" fill="#354546"/>
            <rect id="Rectángulo_358635" data-name="Rectángulo 358635" width="4.206" height="16.299" transform="translate(213.333 247.343)" fill="#354546"/>
            <rect id="Rectángulo_358636" data-name="Rectángulo 358636" width="2.515" height="16.299" transform="translate(227.098 247.343)" fill="#354546"/>
            <rect id="Rectángulo_358637" data-name="Rectángulo 358637" width="2.517" height="16.299" transform="translate(221.351 247.343)" fill="#354546"/>
            <rect id="Rectángulo_358638" data-name="Rectángulo 358638" width="1.257" height="16.299" transform="translate(219.071 247.343)" fill="#354546"/>
            <rect id="Rectángulo_358639" data-name="Rectángulo 358639" width="1.257" height="16.299" transform="translate(224.669 247.343)" fill="#354546"/>
            <rect id="Rectángulo_358640" data-name="Rectángulo 358640" width="4.146" height="16.299" transform="translate(231.91 247.343)" fill="#354546"/>
            <rect id="Rectángulo_358641" data-name="Rectángulo 358641" width="3.092" height="163.367" transform="translate(241.683 105.954)" fill="#b59d63"/>
            <rect id="Rectángulo_358642" data-name="Rectángulo 358642" width="99.021" height="13.996" transform="translate(192.17 105.956)" fill="#b59d63"/>
            <rect id="Rectángulo_358643" data-name="Rectángulo 358643" width="2.632" height="10.556" transform="translate(255.564 250.266)" fill="#b59d63"/>
            <path id="Trazado_752514" data-name="Trazado 752514" d="M88.519,92.417,92.456,85.6l3.938,6.818Z" transform="translate(164.424 159.001)" fill="#b59d63"/>
            <rect id="Rectángulo_358644" data-name="Rectángulo 358644" width="2.632" height="10.556" transform="translate(264.271 250.266)" fill="#b59d63"/>
            <path id="Trazado_752515" data-name="Trazado 752515" d="M91.566,92.417,95.5,85.6l3.935,6.818Z" transform="translate(170.086 159.001)" fill="#b59d63"/>
            <rect id="Rectángulo_358645" data-name="Rectángulo 358645" width="16.582" height="1.652" transform="translate(252.941 261.991)" fill="#b59d63"/>
            <g id="Grupo_1022778" data-name="Grupo 1022778" transform="translate(208.191 105.955)" style="mix-blend-mode: multiply;isolation: isolate">
              <g id="Grupo_1022777" data-name="Grupo 1022777">
                <g id="Grupo_1022776" data-name="Grupo 1022776" clip-path="url(#clip-path-3)">
                  <rect id="Rectángulo_358646" data-name="Rectángulo 358646" width="10.881" height="26.855" transform="translate(-0.001 0.001)" fill="#b59d63"/>
                </g>
              </g>
            </g>
            <g id="Grupo_1022781" data-name="Grupo 1022781" transform="translate(262.263 105.955)" style="mix-blend-mode: multiply;isolation: isolate">
              <g id="Grupo_1022780" data-name="Grupo 1022780">
                <g id="Grupo_1022779" data-name="Grupo 1022779" clip-path="url(#clip-path-3)">
                  <rect id="Rectángulo_358648" data-name="Rectángulo 358648" width="10.881" height="26.855" transform="translate(-0.001 0.001)" fill="#b59d63"/>
                </g>
              </g>
            </g>
            <rect id="Rectángulo_358650" data-name="Rectángulo 358650" width="99.65" height="52.524" transform="translate(71.798 105.919)" fill="#d7ba76"/>
            <rect id="Rectángulo_358651" data-name="Rectángulo 358651" width="42.783" height="19.251" transform="translate(76.198 134.9)" fill="#fcf7ea"/>
            <rect id="Rectángulo_358652" data-name="Rectángulo 358652" width="2.532" height="16.402" transform="translate(78.507 136.326)" fill="#354546"/>
            <rect id="Rectángulo_358653" data-name="Rectángulo 358653" width="0.852" height="16.402" transform="translate(82.579 136.326)" fill="#354546"/>
            <rect id="Rectángulo_358654" data-name="Rectángulo 358654" width="0.852" height="16.402" transform="translate(110.317 136.326)" fill="#354546"/>
            <rect id="Rectángulo_358655" data-name="Rectángulo 358655" width="2.532" height="16.402" transform="translate(86.651 136.326)" fill="#354546"/>
            <rect id="Rectángulo_358656" data-name="Rectángulo 358656" width="1.266" height="16.402" transform="translate(90.723 136.326)" fill="#354546"/>
            <rect id="Rectángulo_358657" data-name="Rectángulo 358657" width="1.266" height="16.402" transform="translate(84.505 136.326)" fill="#354546"/>
            <rect id="Rectángulo_358658" data-name="Rectángulo 358658" width="4.229" height="16.402" transform="translate(93.098 136.326)" fill="#354546"/>
            <rect id="Rectángulo_358659" data-name="Rectángulo 358659" width="2.532" height="16.402" transform="translate(106.945 136.326)" fill="#354546"/>
            <rect id="Rectángulo_358660" data-name="Rectángulo 358660" width="2.532" height="16.402" transform="translate(101.162 136.326)" fill="#354546"/>
            <rect id="Rectángulo_358661" data-name="Rectángulo 358661" width="1.263" height="16.402" transform="translate(98.87 136.326)" fill="#354546"/>
            <rect id="Rectángulo_358662" data-name="Rectángulo 358662" width="1.266" height="16.402" transform="translate(104.505 136.326)" fill="#354546"/>
            <rect id="Rectángulo_358663" data-name="Rectángulo 358663" width="4.172" height="16.402" transform="translate(111.789 136.326)" fill="#354546"/>
            <rect id="Rectángulo_358664" data-name="Rectángulo 358664" width="3.115" height="52.524" transform="translate(121.621 105.919)" fill="#b59d63"/>
            <rect id="Rectángulo_358665" data-name="Rectángulo 358665" width="99.65" height="14.088" transform="translate(71.798 105.919)" fill="#b59d63"/>
            <rect id="Rectángulo_358666" data-name="Rectángulo 358666" width="2.649" height="10.621" transform="translate(135.595 139.266)" fill="#b59d63"/>
            <path id="Trazado_752516" data-name="Trazado 752516" d="M46.529,53.6l3.961-6.861L54.45,53.6Z" transform="translate(86.429 86.822)" fill="#b59d63"/>
            <rect id="Rectángulo_358667" data-name="Rectángulo 358667" width="2.649" height="10.621" transform="translate(144.356 139.266)" fill="#b59d63"/>
            <path id="Trazado_752517" data-name="Trazado 752517" d="M49.6,53.6l3.963-6.861L57.52,53.6Z" transform="translate(92.125 86.822)" fill="#b59d63"/>
            <rect id="Rectángulo_358668" data-name="Rectángulo 358668" width="16.685" height="1.663" transform="translate(132.957 151.065)" fill="#b59d63"/>
            <g id="Grupo_1022784" data-name="Grupo 1022784" transform="translate(87.919 105.919)" style="mix-blend-mode: multiply;isolation: isolate">
              <g id="Grupo_1022783" data-name="Grupo 1022783">
                <g id="Grupo_1022782" data-name="Grupo 1022782" clip-path="url(#clip-path-5)">
                  <rect id="Rectángulo_358669" data-name="Rectángulo 358669" width="10.95" height="27.026" transform="translate(0.001 0)" fill="#b59d63"/>
                </g>
              </g>
            </g>
            <g id="Grupo_1022787" data-name="Grupo 1022787" transform="translate(142.334 105.919)" style="mix-blend-mode: multiply;isolation: isolate">
              <g id="Grupo_1022786" data-name="Grupo 1022786">
                <g id="Grupo_1022785" data-name="Grupo 1022785" clip-path="url(#clip-path-5)">
                  <rect id="Rectángulo_358671" data-name="Rectángulo 358671" width="10.95" height="27.026" transform="translate(0.001 0)" fill="#b59d63"/>
                </g>
              </g>
            </g>
            <rect id="Rectángulo_358673" data-name="Rectángulo 358673" width="99.018" height="110.874" transform="translate(56.913 160.098)" fill="#d7ba76"/>
            <rect id="Rectángulo_358674" data-name="Rectángulo 358674" width="42.514" height="19.128" transform="translate(61.285 247.578)" fill="#fcf7ea"/>
            <rect id="Rectángulo_358675" data-name="Rectángulo 358675" width="2.517" height="16.299" transform="translate(63.582 248.992)" fill="#354546"/>
            <rect id="Rectángulo_358676" data-name="Rectángulo 358676" width="0.846" height="16.299" transform="translate(67.629 248.992)" fill="#354546"/>
            <rect id="Rectángulo_358677" data-name="Rectángulo 358677" width="0.843" height="16.299" transform="translate(95.192 248.992)" fill="#354546"/>
            <rect id="Rectángulo_358678" data-name="Rectángulo 358678" width="2.515" height="16.299" transform="translate(71.675 248.992)" fill="#354546"/>
            <rect id="Rectángulo_358679" data-name="Rectángulo 358679" width="1.257" height="16.299" transform="translate(75.721 248.992)" fill="#354546"/>
            <rect id="Rectángulo_358680" data-name="Rectángulo 358680" width="1.254" height="16.299" transform="translate(69.54 248.992)" fill="#354546"/>
            <rect id="Rectángulo_358681" data-name="Rectángulo 358681" width="4.206" height="16.299" transform="translate(78.076 248.992)" fill="#354546"/>
            <rect id="Rectángulo_358682" data-name="Rectángulo 358682" width="2.515" height="16.299" transform="translate(91.84 248.992)" fill="#354546"/>
            <rect id="Rectángulo_358683" data-name="Rectángulo 358683" width="2.515" height="16.299" transform="translate(86.094 248.992)" fill="#354546"/>
            <rect id="Rectángulo_358684" data-name="Rectángulo 358684" width="1.254" height="16.299" transform="translate(83.816 248.992)" fill="#354546"/>
            <rect id="Rectángulo_358685" data-name="Rectángulo 358685" width="1.26" height="16.299" transform="translate(89.409 248.992)" fill="#354546"/>
            <rect id="Rectángulo_358686" data-name="Rectángulo 358686" width="4.146" height="16.299" transform="translate(96.65 248.992)" fill="#354546"/>
            <rect id="Rectángulo_358687" data-name="Rectángulo 358687" width="3.095" height="110.874" transform="translate(106.422 160.098)" fill="#b59d63"/>
            <rect id="Rectángulo_358688" data-name="Rectángulo 358688" width="99.018" height="13.996" transform="translate(56.913 160.098)" fill="#b59d63"/>
            <rect id="Rectángulo_358689" data-name="Rectángulo 358689" width="2.632" height="10.556" transform="translate(120.307 251.915)" fill="#b59d63"/>
            <path id="Trazado_752518" data-name="Trazado 752518" d="M41.185,92.994l3.938-6.818,3.938,6.818Z" transform="translate(76.501 160.073)" fill="#b59d63"/>
            <rect id="Rectángulo_358690" data-name="Rectángulo 358690" width="2.632" height="10.556" transform="translate(129.014 251.915)" fill="#b59d63"/>
            <path id="Trazado_752519" data-name="Trazado 752519" d="M44.232,92.994l3.935-6.818L52.1,92.994Z" transform="translate(82.162 160.073)" fill="#b59d63"/>
            <rect id="Rectángulo_358691" data-name="Rectángulo 358691" width="16.582" height="1.652" transform="translate(117.684 263.64)" fill="#b59d63"/>
            <g id="Grupo_1022790" data-name="Grupo 1022790" transform="translate(72.933 160.097)" style="mix-blend-mode: multiply;isolation: isolate">
              <g id="Grupo_1022789" data-name="Grupo 1022789">
                <g id="Grupo_1022788" data-name="Grupo 1022788" clip-path="url(#clip-path-3)">
                  <rect id="Rectángulo_358692" data-name="Rectángulo 358692" width="10.881" height="26.855" transform="translate(-0.001 0.001)" fill="#b59d63"/>
                </g>
              </g>
            </g>
            <g id="Grupo_1022793" data-name="Grupo 1022793" transform="translate(127.006 160.097)" style="mix-blend-mode: multiply;isolation: isolate">
              <g id="Grupo_1022792" data-name="Grupo 1022792">
                <g id="Grupo_1022791" data-name="Grupo 1022791" clip-path="url(#clip-path-8)">
                  <rect id="Rectángulo_358694" data-name="Rectángulo 358694" width="10.879" height="26.855" transform="translate(-0.001 0.001)" fill="#b59d63"/>
                </g>
              </g>
            </g>
            <path id="Trazado_752520" data-name="Trazado 752520" d="M32.337,94.512c.049,0,.094.043.14.043,27.586,7.078,51.924,13.685,70.941,18.76,3.306.84,6.478,1.686,9.461,2.446l.277,11.059c-3.06-.2-6.215-.491-9.418-.829-20.657-2.209-43.611-7.321-67.714-13.933Z" transform="translate(60.066 175.557)" fill="#eab99a"/>
            <path id="Trazado_752521" data-name="Trazado 752521" d="M143.077,94.512c-.046,0-.091.043-.14.043C115.351,101.633,91.016,108.24,72,113.314c-3.309.84-6.481,1.686-9.461,2.446l-.277,11.059c3.058-.2,6.215-.491,9.418-.829,20.657-2.209,43.608-7.321,67.714-13.933Z" transform="translate(115.65 175.557)" fill="#eab99a"/>
            <path id="Trazado_752522" data-name="Trazado 752522" d="M138.4,83.438C138.4,114.216,91,189.463,91,189.463S45.258,114.216,45.258,83.438,66.112,27.7,91.83,27.7,138.4,52.66,138.4,83.438" transform="translate(84.067 51.462)" fill="#7d4c2e"/>
            <path id="Trazado_752523" data-name="Trazado 752523" d="M77.711,81.46c-.326.98-3.869,11.013-8.721,24.04-.383.983-.763,2.017-1.143,3.052-1.42,3.763-2.892,7.69-4.418,11.724.054,0,0,.051,0,.051-.383,1.037-.817,2.072-1.2,3.163-1.2,3.052-2.4,6.161-3.6,9.267l-.326.874c-3.109,7.958-2.783,15.753-3.383,22.406a9.607,9.607,0,0,1-9.647,8.667h-.054c-8.015-5.232-9.976-4.961-11.993-15.482-.437-2.235-1.254-4.415-.709-6.6,7.029-28.4,12.756-42.9,24.152-68.689a3.985,3.985,0,0,1,.269-.763,11,11,0,0,1,12.542-5.561,5.114,5.114,0,0,1,.872.217,10.13,10.13,0,0,1,2.78,1.309A10.8,10.8,0,0,1,77.711,81.46" transform="translate(60.067 124.938)" fill="#eab99a"/>
            <path id="Trazado_752524" data-name="Trazado 752524" d="M119.5,149.223c-2.017,10.524-3.926,10.25-11.993,15.482h-.057a9.612,9.612,0,0,1-9.65-8.667c-.6-6.649-.274-14.448-3.378-22.406l-.274-.874c-1.2-3.106-2.455-6.269-3.652-9.375-2.4-6.215-4.689-12.322-6.707-17.882-4.849-13.027-8.4-23.06-8.721-24.04A10.843,10.843,0,0,1,79.59,69.141a10.681,10.681,0,0,1,2.783-1.309,5.376,5.376,0,0,1,.926-.22A10.917,10.917,0,0,1,95.78,73.173c.109.271.22.491.329.763,11.339,25.786,17.062,40.288,24.095,68.689.546,2.183-.271,4.363-.706,6.6" transform="translate(138.49 124.938)" fill="#eab99a"/>
            <path id="Trazado_752525" data-name="Trazado 752525" d="M150.56,119.333a14.782,14.782,0,0,1,4.581,10.25,13.439,13.439,0,0,1-2.183,7.25c-2.235,3.652-6.106,6.707-11.121,8.884a1.432,1.432,0,0,1-.383.223,22.683,22.683,0,0,1-2.886,1.086,4.908,4.908,0,0,1-.817.274,2.177,2.177,0,0,0-.166.546v.054c-4.906,12.213-8.067,23.223-9,34.073H70.639c-.926-10.684-3.978-21.534-8.775-33.527a10.67,10.67,0,0,0-.437-1.146,26.179,26.179,0,0,1-3.438-1.252,35.344,35.344,0,0,1-5.832-3.166,21.026,21.026,0,0,1-5.886-5.941,13.85,13.85,0,0,1-2.235-7.358,14.778,14.778,0,0,1,4.578-10.25L40.929,90.984c0-5.286,4.849-9.593,10.959-9.921H65.406A32.365,32.365,0,0,0,77.454,78.5a18.972,18.972,0,0,0,5.724-3.923,14.848,14.848,0,0,0,1.909-2.235c2.4-3.326,3.709-7.524,4.306-12.322h20.388c.6,4.8,1.909,9,4.306,12.322a14.474,14.474,0,0,0,1.855,2.235,19.279,19.279,0,0,0,5.778,3.923,32.368,32.368,0,0,0,12.05,2.563h12.81c6.432,0,11.664,4.472,11.664,9.921Z" transform="translate(76.026 111.488)" fill="#eab99a"/>
            <path id="Trazado_752526" data-name="Trazado 752526" d="M109.126,96.638c0,5.452-3.326,10.3-8.4,13.465a1.429,1.429,0,0,1-.383.22,23.656,23.656,0,0,1-2.835,1.472,8.238,8.238,0,0,1-1.037.434v.057a30.177,30.177,0,0,1-10.358,1.8c-12.756,0-23.057-7.8-23.057-17.445,0-9.593,10.3-17.445,23.057-17.445a28.553,28.553,0,0,1,10.033,1.8c7.684,2.783,12.976,8.778,12.976,15.648" transform="translate(117.135 147.102)" fill="#f5c4a5"/>
            <path id="Trazado_752527" data-name="Trazado 752527" d="M89.262,96.638c0,9.65-10.356,17.445-23.057,17.445a28.994,28.994,0,0,1-8.558-1.254,20.22,20.22,0,0,1-3.875-1.472,22.344,22.344,0,0,1-5.832-4.089,15.561,15.561,0,0,1-4.689-9.1s.057-.051,0-.051a14.127,14.127,0,0,1-.051-1.475,14.592,14.592,0,0,1,4.469-10.25,21.089,21.089,0,0,1,7.415-5.069A30.205,30.205,0,0,1,66.2,79.193c12.7,0,23.057,7.852,23.057,17.445" transform="translate(80.243 147.102)" fill="#f5c4a5"/>
            <path id="Trazado_752528" data-name="Trazado 752528" d="M108.514,70.046c0,20.577-12.627,45.457-28.341,45.457a10.654,10.654,0,0,1-2.152-.186C63.291,113.214,51.6,89.688,51.6,70.046c0-19.691,11.553-35.776,26.283-37.225.7-.049,1.4-.1,2.152-.1,15.713,0,28.481,16.7,28.481,37.322" transform="translate(95.844 60.785)" fill="#eab99a"/>
            <path id="Trazado_752529" data-name="Trazado 752529" d="M104.213,69.983c0,19.643-11.5,43.168-26.192,45.272C63.291,113.151,51.6,89.625,51.6,69.983a12.41,12.41,0,0,1,.094-1.869c.466-13.7,6.6-25.489,15.388-31.335a23.45,23.45,0,0,1,7.9-3.509l.186-.046a.273.273,0,0,1,.186-.049,23.5,23.5,0,0,1,2.526-.417,23.032,23.032,0,0,1,5.329,1.214c10.713,3.832,18.9,15.573,20.626,30.164a48.365,48.365,0,0,1,.377,5.846" transform="translate(95.844 60.848)" fill="#f5c4a5"/>
            <path id="Trazado_752530" data-name="Trazado 752530" d="M50.531,45.5s5.435,12.862,28.632,16.371S107.041,75.9,109.381,82.92c0,0,12.862-30.4-6.629-42.094S59.1,26.018,50.531,45.5" transform="translate(93.862 58.447)" fill="#7d4c2e"/>
            <path id="Trazado_752531" data-name="Trazado 752531" d="M73.094,69.525c-20.888,0-22.3-19.705-22.311-19.908l2.72-.16c.046.709,1.3,17.342,19.591,17.342Z" transform="translate(94.33 91.867)" fill="#606060"/>
            <path id="Trazado_752532" data-name="Trazado 752532" d="M52.713,60.162h0a2.242,2.242,0,0,1-2.235-2.235V50.072a2.233,2.233,0,0,1,4.466,0v7.855a2.241,2.241,0,0,1-2.232,2.235" transform="translate(93.763 88.863)" fill="#606060"/>
            <path id="Trazado_752533" data-name="Trazado 752533" d="M66.177,57.058v.8a1.84,1.84,0,0,1-1.835,1.835H59.7a1.84,1.84,0,0,1-1.832-1.835v-.8A1.84,1.84,0,0,1,59.7,55.221h4.646a1.841,1.841,0,0,1,1.835,1.837" transform="translate(107.485 102.574)" fill="#404040"/>
            <path id="Trazado_752534" data-name="Trazado 752534" d="M167.025,124.82c1.2,3.106,2.455,6.269,3.652,9.375l.274.874a38.61,38.61,0,0,1,2.017,7.392,49.621,49.621,0,0,0,11.516-4.383c3.2-1.815,6.069-4.092,9.1-6.132-5.758-20.957-11.333-34.73-20.937-56.573-.109-.274-.22-.491-.329-.763a10.923,10.923,0,0,0-12.484-5.561H147.836a32.368,32.368,0,0,1-12.05-2.563L113.655,86.824,91.521,66.487A32.352,32.352,0,0,1,79.473,69.05H67.589a11,11,0,0,0-12.542,5.561,3.985,3.985,0,0,0-.269.763c-9.893,22.386-15.511,36.279-21.423,58.133,5.812,5.424,13.262,7.95,20.771,10.464a40.472,40.472,0,0,1,2.286-8.9l.326-.874c1.2-3.106,2.4-6.215,3.6-9.267a21,21,0,0,0,5.889,5.941,22.3,22.3,0,0,0,5.832,4.092,20.07,20.07,0,0,0,3.872,1.469c4.8,12,7.85,22.846,8.775,33.53h57.953c.926-10.85,4.086-21.863,8.993-34.073v-.054a8.053,8.053,0,0,0,1.034-.437,22.7,22.7,0,0,0,2.837-1.472,1.374,1.374,0,0,0,.38-.22c5.015-2.177,8.887-5.232,11.121-8.884" transform="translate(61.959 123.5)" fill="#91b3fa"/>
            <path id="Trazado_752535" data-name="Trazado 752535" d="M180.222,109.65H38.372a2.522,2.522,0,0,1,0-5.044h141.85a2.522,2.522,0,1,1,0,5.044" transform="translate(66.601 194.307)" fill="#12263f"/>
            <path id="Trazado_752536" data-name="Trazado 752536" d="M166.464,85.357v64.757a5.068,5.068,0,0,1-5.052,5.052H44.005a5.07,5.07,0,0,1-5.052-5.052V85.357A5.07,5.07,0,0,1,44.005,80.3H161.412a5.068,5.068,0,0,1,5.052,5.052" transform="translate(72.356 149.167)" fill="#12263f"/>
            <path id="Trazado_752537" data-name="Trazado 752537" d="M73.624,96.771A7.77,7.77,0,1,1,65.852,89a7.771,7.771,0,0,1,7.772,7.77" transform="translate(107.893 165.32)" fill="#909090"/>
            <path id="Trazado_752538" data-name="Trazado 752538" d="M120.495,153.909,78.1,80.488,120.495,7.062h84.782l42.391,73.427-42.391,73.421Z" transform="translate(145.072 13.117)" fill="#f6f6f6"/>
            <path id="Trazado_752539" data-name="Trazado 752539" d="M97.713,47.315l15.116,1.906a2.055,2.055,0,0,0,.517-4.078L98.227,43.237a2.055,2.055,0,1,0-.514,4.078" transform="translate(178.16 80.284)" fill="#dead8e"/>
            <path id="Trazado_752540" data-name="Trazado 752540" d="M130.452,47.315l-15.119,1.906a2.055,2.055,0,0,1-.514-4.078l15.119-1.906a2.055,2.055,0,1,1,.514,4.078" transform="translate(209.94 80.284)" fill="#dead8e"/>
            <path id="Trazado_752541" data-name="Trazado 752541" d="M150.3,37.545l-4.932,19.677a3.056,3.056,0,0,0-.06.323L143.866,70.4c.117,2.026-2.572,3.232-2.832,3.349L126.418,80.5a2.419,2.419,0,0,1-.912.226l-5.812.3a2.471,2.471,0,0,1-2.449-1.629l-1.9-5.272a2.427,2.427,0,0,1-.146-.712l-.109-2.186-.04-.714a1.7,1.7,0,0,0-.329-.92,1.708,1.708,0,0,1-.331-.92,2.476,2.476,0,0,1,.832-1.98l11.319-10.007a2.456,2.456,0,0,0,.823-1.637l.054-3.446a10.807,10.807,0,0,1,1.246-2.8l2.958-1.632a26.508,26.508,0,0,0,1.58-4.723l.589-10.156a2.467,2.467,0,0,1,3.355-2.163L148.8,34.639a2.472,2.472,0,0,1,1.5,2.906" transform="translate(212.477 55.653)" fill="#dead8e"/>
            <path id="Trazado_752542" data-name="Trazado 752542" d="M88.757,37.545l4.935,19.677c.023.106.043.214.057.323L95.193,70.4c-.117,2.026,2.572,3.232,2.829,3.349L112.641,80.5a2.406,2.406,0,0,0,.912.226l5.812.3a2.471,2.471,0,0,0,2.449-1.629l1.9-5.272a2.334,2.334,0,0,0,.143-.712l.111-2.186.037-.714a1.7,1.7,0,0,1,.331-.92,1.685,1.685,0,0,0,.331-.92,2.476,2.476,0,0,0-.832-1.98L112.518,56.685a2.456,2.456,0,0,1-.823-1.637L111.64,51.6a10.807,10.807,0,0,0-1.246-2.8l-2.957-1.632a26.28,26.28,0,0,1-1.58-4.723l-.589-10.156a2.468,2.468,0,0,0-3.355-2.163L90.261,34.639a2.472,2.472,0,0,0-1.5,2.906" transform="translate(164.729 55.653)" fill="#dead8e"/>
            <rect id="Rectángulo_358696" data-name="Rectángulo 358696" width="69.4" height="77.707" transform="translate(272.809 50.224)" fill="#d7ba76"/>
            <rect id="Rectángulo_358697" data-name="Rectángulo 358697" width="29.798" height="13.407" transform="translate(275.873 111.534)" fill="#fcf7ea"/>
            <rect id="Rectángulo_358698" data-name="Rectángulo 358698" width="1.763" height="11.421" transform="translate(277.484 112.526)" fill="#354546"/>
            <rect id="Rectángulo_358699" data-name="Rectángulo 358699" width="0.592" height="11.421" transform="translate(280.319 112.526)" fill="#354546"/>
            <rect id="Rectángulo_358700" data-name="Rectángulo 358700" width="0.592" height="11.421" transform="translate(299.636 112.526)" fill="#354546"/>
            <rect id="Rectángulo_358701" data-name="Rectángulo 358701" width="1.763" height="11.421" transform="translate(283.154 112.526)" fill="#354546"/>
            <rect id="Rectángulo_358702" data-name="Rectángulo 358702" width="0.88" height="11.421" transform="translate(285.991 112.526)" fill="#354546"/>
            <rect id="Rectángulo_358703" data-name="Rectángulo 358703" width="0.883" height="11.421" transform="translate(281.656 112.526)" fill="#354546"/>
            <rect id="Rectángulo_358704" data-name="Rectángulo 358704" width="2.946" height="11.421" transform="translate(287.64 112.526)" fill="#354546"/>
            <rect id="Rectángulo_358705" data-name="Rectángulo 358705" width="1.76" height="11.421" transform="translate(297.287 112.526)" fill="#354546"/>
            <rect id="Rectángulo_358706" data-name="Rectángulo 358706" width="1.76" height="11.421" transform="translate(293.261 112.526)" fill="#354546"/>
            <rect id="Rectángulo_358707" data-name="Rectángulo 358707" width="0.883" height="11.421" transform="translate(291.66 112.526)" fill="#354546"/>
            <rect id="Rectángulo_358708" data-name="Rectángulo 358708" width="0.883" height="11.421" transform="translate(295.584 112.526)" fill="#354546"/>
            <rect id="Rectángulo_358709" data-name="Rectángulo 358709" width="2.909" height="11.421" transform="translate(300.656 112.526)" fill="#354546"/>
            <rect id="Rectángulo_358710" data-name="Rectángulo 358710" width="2.169" height="77.707" transform="translate(307.508 50.224)" fill="#b59d63"/>
            <rect id="Rectángulo_358711" data-name="Rectángulo 358711" width="69.4" height="9.81" transform="translate(272.809 50.221)" fill="#b59d63"/>
            <rect id="Rectángulo_358712" data-name="Rectángulo 358712" width="1.843" height="7.398" transform="translate(317.241 114.575)" fill="#b59d63"/>
            <path id="Trazado_752543" data-name="Trazado 752543" d="M110.377,43.484l2.757-4.778,2.76,4.778Z" transform="translate(205.026 71.898)" fill="#b59d63"/>
            <rect id="Rectángulo_358713" data-name="Rectángulo 358713" width="1.843" height="7.398" transform="translate(323.344 114.575)" fill="#b59d63"/>
            <path id="Trazado_752544" data-name="Trazado 752544" d="M112.513,43.484l2.757-4.778,2.76,4.778Z" transform="translate(208.993 71.898)" fill="#b59d63"/>
            <rect id="Rectángulo_358714" data-name="Rectángulo 358714" width="11.619" height="1.154" transform="translate(315.403 122.793)" fill="#b59d63"/>
            <g id="Grupo_1022796" data-name="Grupo 1022796" transform="translate(284.035 50.224)" style="mix-blend-mode: multiply;isolation: isolate">
              <g id="Grupo_1022795" data-name="Grupo 1022795">
                <g id="Grupo_1022794" data-name="Grupo 1022794" clip-path="url(#clip-path-9)">
                  <rect id="Rectángulo_358715" data-name="Rectángulo 358715" width="7.627" height="18.822" transform="translate(-0.001)" fill="#b59d63"/>
                </g>
              </g>
            </g>
            <g id="Grupo_1022799" data-name="Grupo 1022799" transform="translate(321.933 50.224)" style="mix-blend-mode: multiply;isolation: isolate">
              <g id="Grupo_1022798" data-name="Grupo 1022798">
                <g id="Grupo_1022797" data-name="Grupo 1022797" clip-path="url(#clip-path-10)">
                  <rect id="Rectángulo_358717" data-name="Rectángulo 358717" width="7.627" height="18.822" fill="#b59d63"/>
                </g>
              </g>
            </g>
            <path id="Trazado_752545" data-name="Trazado 752545" d="M100.449,49.143l10.51-.151a1.9,1.9,0,0,0-.054-3.8l-10.51.151a1.9,1.9,0,1,0,.054,3.8" transform="translate(183.002 83.937)" fill="#dead8e"/>
            <path id="Trazado_752546" data-name="Trazado 752546" d="M99.742,50.272l10.5.391a1.9,1.9,0,0,0,.143-3.8l-10.5-.391a1.9,1.9,0,1,0-.14,3.8" transform="translate(181.868 86.319)" fill="#dead8e"/>
            <path id="Trazado_752547" data-name="Trazado 752547" d="M88.448,35.364l4.769,18.062a6.425,6.425,0,0,0,.983,1.726l9.636,11.29c.057.063,1.22,1.066,1.283,1.126l8.641,6.775L115.651,76a2.622,2.622,0,0,0,3.235.174c1.26-.88,1.2-2.317.214-3.5l-4.406-4.538c-.083-.1-3.729-5.886-3.729-5.886l-.589-7.57a3.641,3.641,0,0,0,.034-.952l-.82-7.435a3.447,3.447,0,0,0-3.1-3.049v0l-.623-10.727c.037-2.615-1.2-3.1-3.006-2.743l-12.35,2.315a2.624,2.624,0,0,0-2.06,3.278" transform="translate(164.116 55.111)" fill="#eab99a"/>
            <path id="Trazado_752548" data-name="Trazado 752548" d="M90.547,28.462l17.174.877a2.6,2.6,0,0,1,2.457,2.72l-.271,5.309a2.6,2.6,0,0,1-2.72,2.457l-17.174-.877a2.6,2.6,0,0,1-2.457-2.72l.271-5.312a2.6,2.6,0,0,1,2.72-2.455" transform="translate(162.628 52.862)" fill="#505050"/>
            <path id="Trazado_752549" data-name="Trazado 752549" d="M124.521,49.143l-10.51-.151a1.9,1.9,0,0,1,.054-3.8l10.51.151a1.9,1.9,0,0,1-.054,3.8" transform="translate(208.294 83.937)" fill="#dead8e"/>
            <path id="Trazado_752550" data-name="Trazado 752550" d="M125.223,50.272l-10.5.391a1.9,1.9,0,0,1-.14-3.8l10.5-.391a1.9,1.9,0,1,1,.143,3.8" transform="translate(209.432 86.319)" fill="#dead8e"/>
            <path id="Trazado_752551" data-name="Trazado 752551" d="M147.683,35.364l-4.769,18.062a6.425,6.425,0,0,1-.983,1.726L132.3,66.442c-.057.063-1.217,1.066-1.286,1.126l-8.635,6.775L120.479,76a2.626,2.626,0,0,1-3.238.174c-1.257-.88-1.194-2.317-.214-3.5l4.409-4.538c.083-.1,3.726-5.886,3.726-5.886l.591-7.57a3.64,3.64,0,0,1-.034-.952l.82-7.435a3.444,3.444,0,0,1,3.106-3.049v0l.617-10.727c-.037-2.615,1.2-3.1,3.009-2.743l12.35,2.315a2.622,2.622,0,0,1,2.06,3.278" transform="translate(216.018 55.111)" fill="#eab99a"/>
            <path id="Trazado_752552" data-name="Trazado 752552" d="M139.828,28.462l-17.177.877a2.6,2.6,0,0,0-2.455,2.72l.271,5.309a2.6,2.6,0,0,0,2.72,2.457l17.174-.877a2.6,2.6,0,0,0,2.457-2.72l-.271-5.312a2.6,2.6,0,0,0-2.72-2.455" transform="translate(223.261 52.862)" fill="#505050"/>
            <path id="Trazado_752553" data-name="Trazado 752553" d="M20.641,102.15l13.042,2.1a2.391,2.391,0,0,1-.763,4.721l-13.042-2.1a2.391,2.391,0,0,1,.763-4.721" transform="translate(33.194 189.688)" fill="#dead8e"/>
            <path id="Trazado_752554" data-name="Trazado 752554" d="M17.388,105.9l19.1-1.42a2.583,2.583,0,0,1,.383,5.152l-19.1,1.42a2.583,2.583,0,0,1-.386-5.152" transform="translate(27.858 194.061)" fill="#dead8e"/>
            <path id="Trazado_752555" data-name="Trazado 752555" d="M20.132,101.152l13.207.183a2.389,2.389,0,0,1-.066,4.778l-13.207-.18a2.391,2.391,0,1,1,.066-4.781" transform="translate(32.895 187.891)" fill="#dead8e"/>
            <path id="Trazado_752556" data-name="Trazado 752556" d="M45.107,90.441H15.243a4.2,4.2,0,0,0-4.192,4.192v39.294a4.206,4.206,0,0,0,4.192,4.192h.3l1.277,8.458H43.535l1.274-8.458h.3a4.206,4.206,0,0,0,4.192-4.192V94.633a4.2,4.2,0,0,0-4.192-4.192" transform="translate(20.527 167.995)" fill="#303030"/>
            <path id="Trazado_752557" data-name="Trazado 752557" d="M38.622,141.537H16.354a3.742,3.742,0,0,1-3.732-3.729V110.1a3.742,3.742,0,0,1,3.732-3.729H38.622a3.739,3.739,0,0,1,3.729,3.729v27.709a3.739,3.739,0,0,1-3.729,3.729" transform="translate(23.445 197.583)" fill="#303030"/>
            <path id="Trazado_752558" data-name="Trazado 752558" d="M40.908,90.441H15.622c-1.952,0-3.549,1.886-3.549,4.192v39.294c0,2.3,1.6,4.192,3.549,4.192h.251l1.08,8.458H39.577l1.08-8.458h.251c1.955,0,3.549-1.889,3.549-4.192V94.633c0-2.306-1.594-4.192-3.549-4.192" transform="translate(22.426 167.995)" fill="#404040"/>
            <rect id="Rectángulo_358719" data-name="Rectángulo 358719" width="23.18" height="36.105" transform="translate(38.591 263.837)" fill="#469da7"/>
            <path id="Trazado_752559" data-name="Trazado 752559" d="M37.02,136.653H14.657A1.258,1.258,0,0,1,13.4,135.4V108.378a1.257,1.257,0,0,1,1.254-1.252H37.02a1.255,1.255,0,0,1,1.252,1.252V135.4a1.256,1.256,0,0,1-1.252,1.254" transform="translate(24.896 198.988)" fill="#404040"/>
            <path id="Trazado_752560" data-name="Trazado 752560" d="M19.84,110.708H14.617a.868.868,0,0,1-.866-.863v-1.726a.868.868,0,0,1,.866-.863H19.84a.866.866,0,0,1,.866.863v1.726a.866.866,0,0,1-.866.863" transform="translate(25.543 199.229)" fill="#a5b5b6"/>
            <path id="Trazado_752561" data-name="Trazado 752561" d="M22.606,110.708H17.377a.866.866,0,0,1-.863-.863v-1.726a.866.866,0,0,1,.863-.863h5.229a.866.866,0,0,1,.863.863v1.726a.866.866,0,0,1-.863.863" transform="translate(30.675 199.229)" fill="#a5b5b6"/>
            <path id="Trazado_752562" data-name="Trazado 752562" d="M25.366,110.708H20.14a.866.866,0,0,1-.863-.863v-1.726a.866.866,0,0,1,.863-.863h5.226a.868.868,0,0,1,.866.863v1.726a.868.868,0,0,1-.866.863" transform="translate(35.807 199.229)" fill="#a5b5b6"/>
            <path id="Trazado_752563" data-name="Trazado 752563" d="M19.84,112.412H14.617a.869.869,0,0,1-.866-.866v-1.723a.868.868,0,0,1,.866-.863H19.84a.866.866,0,0,1,.866.863v1.723a.867.867,0,0,1-.866.866" transform="translate(25.543 202.394)" fill="#a5b5b6"/>
            <path id="Trazado_752564" data-name="Trazado 752564" d="M22.606,112.412H17.377a.866.866,0,0,1-.863-.866v-1.723a.866.866,0,0,1,.863-.863h5.229a.866.866,0,0,1,.863.863v1.723a.866.866,0,0,1-.863.866" transform="translate(30.675 202.394)" fill="#a5b5b6"/>
            <path id="Trazado_752565" data-name="Trazado 752565" d="M25.366,112.412H20.14a.866.866,0,0,1-.863-.866v-1.723a.866.866,0,0,1,.863-.863h5.226a.868.868,0,0,1,.866.863v1.723a.869.869,0,0,1-.866.866" transform="translate(35.807 202.394)" fill="#a5b5b6"/>
            <path id="Trazado_752566" data-name="Trazado 752566" d="M19.84,114.114H14.617a.868.868,0,0,1-.866-.863v-1.726a.868.868,0,0,1,.866-.863H19.84a.866.866,0,0,1,.866.863v1.726a.866.866,0,0,1-.866.863" transform="translate(25.543 205.556)" fill="#a5b5b6"/>
            <path id="Trazado_752567" data-name="Trazado 752567" d="M22.606,114.114H17.377a.866.866,0,0,1-.863-.863v-1.726a.866.866,0,0,1,.863-.863h5.229a.866.866,0,0,1,.863.863v1.726a.866.866,0,0,1-.863.863" transform="translate(30.675 205.556)" fill="#a5b5b6"/>
            <path id="Trazado_752568" data-name="Trazado 752568" d="M25.366,114.114H20.14a.866.866,0,0,1-.863-.863v-1.726a.866.866,0,0,1,.863-.863h5.226a.868.868,0,0,1,.866.863v1.726a.868.868,0,0,1-.866.863" transform="translate(35.807 205.556)" fill="#a5b5b6"/>
            <path id="Trazado_752569" data-name="Trazado 752569" d="M19.84,115.817H14.617a.871.871,0,0,1-.866-.866v-1.723a.868.868,0,0,1,.866-.863H19.84a.866.866,0,0,1,.866.863v1.723a.869.869,0,0,1-.866.866" transform="translate(25.543 208.719)" fill="#a5b5b6"/>
            <path id="Trazado_752570" data-name="Trazado 752570" d="M22.606,115.817H17.377a.868.868,0,0,1-.863-.866v-1.723a.866.866,0,0,1,.863-.863h5.229a.866.866,0,0,1,.863.863v1.723a.868.868,0,0,1-.863.866" transform="translate(30.675 208.719)" fill="#a5b5b6"/>
            <path id="Trazado_752571" data-name="Trazado 752571" d="M25.366,115.817H20.14a.868.868,0,0,1-.863-.866v-1.723a.866.866,0,0,1,.863-.863h5.226a.868.868,0,0,1,.866.863v1.723a.871.871,0,0,1-.866.866" transform="translate(35.807 208.719)" fill="#a5b5b6"/>
            <path id="Trazado_752572" data-name="Trazado 752572" d="M19.84,117.519H14.617a.868.868,0,0,1-.866-.863V114.93a.868.868,0,0,1,.866-.863H19.84a.866.866,0,0,1,.866.863v1.726a.866.866,0,0,1-.866.863" transform="translate(25.543 211.881)" fill="#a5b5b6"/>
            <path id="Trazado_752573" data-name="Trazado 752573" d="M22.606,117.519H17.377a.866.866,0,0,1-.863-.863V114.93a.866.866,0,0,1,.863-.863h5.229a.866.866,0,0,1,.863.863v1.726a.866.866,0,0,1-.863.863" transform="translate(30.675 211.881)" fill="#a5b5b6"/>
            <path id="Trazado_752574" data-name="Trazado 752574" d="M25.366,117.519H20.14a.866.866,0,0,1-.863-.863V114.93a.866.866,0,0,1,.863-.863h5.226a.868.868,0,0,1,.866.863v1.726a.868.868,0,0,1-.866.863" transform="translate(35.807 211.881)" fill="#a5b5b6"/>
            <path id="Trazado_752575" data-name="Trazado 752575" d="M19.84,119.224H14.617a.871.871,0,0,1-.866-.866v-1.723a.871.871,0,0,1,.866-.866H19.84a.869.869,0,0,1,.866.866v1.723a.869.869,0,0,1-.866.866" transform="translate(25.543 215.042)" fill="#ef893a"/>
            <path id="Trazado_752576" data-name="Trazado 752576" d="M22.606,119.224H17.377a.868.868,0,0,1-.863-.866v-1.723a.868.868,0,0,1,.863-.866h5.229a.868.868,0,0,1,.863.866v1.723a.868.868,0,0,1-.863.866" transform="translate(30.675 215.042)" fill="#a5b5b6"/>
            <path id="Trazado_752577" data-name="Trazado 752577" d="M25.366,119.224H20.14a.868.868,0,0,1-.863-.866v-1.723a.868.868,0,0,1,.863-.866h5.226a.871.871,0,0,1,.866.866v1.723a.871.871,0,0,1-.866.866" transform="translate(35.807 215.042)" fill="#469da7"/>
            <path id="Trazado_752578" data-name="Trazado 752578" d="M19.8,95.136V95.13a.159.159,0,0,0-.014-.066l-.017-.023-.029-.031L19.736,95l-2.309-1.737a.163.163,0,0,0-.191,0l-2.4,1.677a.169.169,0,0,0-.071.137l.006.023-.006.029-.077,3.255a.153.153,0,0,0,.077.14l2.395,1.42.006,0a.169.169,0,0,0,.071.02h0a.172.172,0,0,0,.077-.02l.009,0,2.395-1.42a.155.155,0,0,0,.08-.134V95.136ZM17.328,93.59l2.032,1.529L17.33,96.427l-2.115-1.363Zm-2.24,1.775,2.077,1.343-.074,2.815L15.013,98.29Zm2.326,4.149.074-2.8,1.992-1.286V98.29Z" transform="translate(27.287 173.173)" fill="#64e1f0"/>
            <rect id="Rectángulo_358720" data-name="Rectángulo 358720" width="16.228" height="1.372" transform="translate(41.974 275.455)" fill="#64e1f0"/>
            <rect id="Rectángulo_358721" data-name="Rectángulo 358721" width="16.228" height="1.369" transform="translate(41.974 279.222)" fill="#64e1f0"/>
            <rect id="Rectángulo_358722" data-name="Rectángulo 358722" width="16.228" height="1.369" transform="translate(41.974 282.982)" fill="#64e1f0"/>
            <path id="Trazado_752579" data-name="Trazado 752579" d="M17.185,103.83l-.257-.849H15.622l-.257.849h-.82l1.263-3.592h.929L18,103.83Zm-.44-1.486c-.24-.774-.374-1.209-.406-1.312s-.049-.177-.063-.24q-.081.313-.463,1.552Z" transform="translate(27.017 186.193)" fill="#64e1f0"/>
            <path id="Trazado_752580" data-name="Trazado 752580" d="M18.335,103.855h-2.5v-.526l.9-.909c.269-.274.443-.46.523-.566a1.338,1.338,0,0,0,.177-.294.758.758,0,0,0,.051-.277.411.411,0,0,0-.117-.323.465.465,0,0,0-.317-.1.976.976,0,0,0-.406.091,2.207,2.207,0,0,0-.406.274l-.411-.486a2.326,2.326,0,0,1,.437-.317,1.478,1.478,0,0,1,.38-.146,1.912,1.912,0,0,1,.46-.049,1.384,1.384,0,0,1,.591.12.949.949,0,0,1,.4.346.9.9,0,0,1,.143.5,1.31,1.31,0,0,1-.086.466,1.848,1.848,0,0,1-.271.446,5.965,5.965,0,0,1-.643.646l-.46.437v.031h1.56Z" transform="translate(29.391 186.171)" fill="#64e1f0"/>
            <path id="Trazado_752581" data-name="Trazado 752581" d="M19.2,101.077a.829.829,0,0,1-.2.572,1.018,1.018,0,0,1-.569.32v.017a1.149,1.149,0,0,1,.654.263.74.74,0,0,1,.223.566.963.963,0,0,1-.374.806,1.739,1.739,0,0,1-1.072.286,2.6,2.6,0,0,1-1.032-.194v-.646a2.23,2.23,0,0,0,.457.174,1.863,1.863,0,0,0,.494.063.936.936,0,0,0,.554-.126.467.467,0,0,0,.18-.406.376.376,0,0,0-.206-.36,1.551,1.551,0,0,0-.657-.1h-.274v-.58h.28a1.306,1.306,0,0,0,.609-.109.4.4,0,0,0,.191-.374c0-.271-.169-.406-.509-.406a1.244,1.244,0,0,0-.36.057,1.911,1.911,0,0,0-.406.2l-.349-.52A1.926,1.926,0,0,1,18,100.225a1.525,1.525,0,0,1,.88.226.72.72,0,0,1,.32.626" transform="translate(31.251 186.169)" fill="#64e1f0"/>
            <path id="Trazado_752582" data-name="Trazado 752582" d="M15.23,106.739l1.855-4H14.647v-.469h2.978v.406l-1.832,4.066Z" transform="translate(27.206 189.961)" fill="#64e1f0"/>
            <path id="Trazado_752583" data-name="Trazado 752583" d="M17.239,104.007a1.645,1.645,0,0,1,1.112.349,1.212,1.212,0,0,1,.406.963,1.38,1.38,0,0,1-.443,1.089,1.765,1.765,0,0,1-1.22.394,2.214,2.214,0,0,1-1.152-.243v-.489a1.794,1.794,0,0,0,.531.217,2.793,2.793,0,0,0,.626.074,1.252,1.252,0,0,0,.837-.251.91.91,0,0,0,.3-.734c0-.623-.386-.937-1.149-.937a4.488,4.488,0,0,0-.78.089l-.263-.169.169-2.092h2.226v.469H16.654l-.117,1.343a3.472,3.472,0,0,1,.7-.071" transform="translate(29.612 189.962)" fill="#64e1f0"/>
            <path id="Trazado_752584" data-name="Trazado 752584" d="M183.424,173.768h-64.7a4.607,4.607,0,0,1-4.606-4.606V78.713a4.61,4.61,0,0,1,4.606-4.609h64.7a4.608,4.608,0,0,1,4.606,4.609v90.449a4.606,4.606,0,0,1-4.606,4.606" transform="translate(211.97 137.649)" fill="#705412"/>
            <rect id="Rectángulo_358723" data-name="Rectángulo 358723" width="59.485" height="92.343" transform="translate(332.826 215.159)" fill="#fff"/>
            <path id="Trazado_752585" data-name="Trazado 752585" d="M141.075,81.5H126.013a1.989,1.989,0,0,1-1.983-1.98V75.555a1.99,1.99,0,0,1,1.983-1.983h15.062a1.985,1.985,0,0,1,1.98,1.983v3.961a1.985,1.985,0,0,1-1.98,1.98" transform="translate(230.387 136.661)" fill="#505050"/>
            <path id="Trazado_752586" data-name="Trazado 752586" d="M126.445,86.252h-8.553V77.7h8.553ZM119.2,84.938h5.929V79.011H119.2Z" transform="translate(218.986 144.323)" fill="silver"/>
            <path id="Trazado_752587" data-name="Trazado 752587" d="M126.445,90.357h-8.553V81.8h8.553ZM119.2,89.043h5.929V83.114H119.2Z" transform="translate(218.986 151.948)" fill="silver"/>
            <path id="Trazado_752588" data-name="Trazado 752588" d="M126.445,94.461h-8.553V85.906h8.553ZM119.2,93.147h5.929V87.22H119.2Z" transform="translate(218.986 159.571)" fill="silver"/>
            <path id="Trazado_752589" data-name="Trazado 752589" d="M126.445,98.564h-8.553V90.011h8.553ZM119.2,97.249h5.929V91.323H119.2Z" transform="translate(218.986 167.196)" fill="silver"/>
            <path id="Trazado_752590" data-name="Trazado 752590" d="M126.445,102.67h-8.553V94.115h8.553Zm-7.241-1.312h5.929V95.429H119.2Z" transform="translate(218.986 174.82)" fill="silver"/>
            <path id="Trazado_752591" data-name="Trazado 752591" d="M126.445,106.774h-8.553V98.219h8.553ZM119.2,105.46h5.929V99.531H119.2Z" transform="translate(218.986 182.443)" fill="silver"/>
            <path id="Trazado_752592" data-name="Trazado 752592" d="M126.445,110.879h-8.553v-8.555h8.553Zm-7.241-1.312h5.929v-5.929H119.2Z" transform="translate(218.986 190.068)" fill="silver"/>
            <rect id="Rectángulo_358724" data-name="Rectángulo 358724" width="33.67" height="3.623" transform="translate(347.516 226.295)" fill="silver"/>
            <rect id="Rectángulo_358725" data-name="Rectángulo 358725" width="33.67" height="3.623" transform="translate(347.516 238.025)" fill="silver"/>
            <rect id="Rectángulo_358726" data-name="Rectángulo 358726" width="33.67" height="3.623" transform="translate(347.516 249.752)" fill="silver"/>
            <rect id="Rectángulo_358727" data-name="Rectángulo 358727" width="33.67" height="3.623" transform="translate(347.516 261.482)" fill="silver"/>
            <rect id="Rectángulo_358728" data-name="Rectángulo 358728" width="33.67" height="3.623" transform="translate(347.516 273.209)" fill="silver"/>
            <rect id="Rectángulo_358729" data-name="Rectángulo 358729" width="33.67" height="3.623" transform="translate(347.516 284.94)" fill="silver"/>
            <rect id="Rectángulo_358730" data-name="Rectángulo 358730" width="33.67" height="3.623" transform="translate(347.516 296.667)" fill="silver"/>
            <path id="Trazado_752593" data-name="Trazado 752593" d="M123.1,84.741h-4.646v-.692l1.857-1.869a14.47,14.47,0,0,0,1.126-1.229,3.355,3.355,0,0,0,.406-.717,2.078,2.078,0,0,0,.134-.752,1.192,1.192,0,0,0-.343-.894,1.316,1.316,0,0,0-.952-.331,2.382,2.382,0,0,0-.834.143,3.26,3.26,0,0,0-.877.531l-.429-.549a3.263,3.263,0,0,1,2.129-.812,2.248,2.248,0,0,1,1.563.509,1.753,1.753,0,0,1,.566,1.369,2.666,2.666,0,0,1-.374,1.332A8.254,8.254,0,0,1,121,82.443l-1.546,1.517V84H123.1Z" transform="translate(220.02 144.089)" fill="#213f47"/>
            <path id="Trazado_752594" data-name="Trazado 752594" d="M121.146,88.836h-.78V83.8c0-.417.011-.814.037-1.192-.069.071-.146.143-.229.217s-.466.386-1.152.943l-.426-.554,1.875-1.446h.674Z" transform="translate(220.295 151.877)" fill="#213f47"/>
            <path id="Trazado_752595" data-name="Trazado 752595" d="M120.554,88.674a2.6,2.6,0,0,1,1.76.551,1.913,1.913,0,0,1,.64,1.52,2.182,2.182,0,0,1-.7,1.717,2.776,2.776,0,0,1-1.926.626,3.561,3.561,0,0,1-1.826-.383v-.772a2.762,2.762,0,0,0,.843.34,4.107,4.107,0,0,0,.989.123,1.988,1.988,0,0,0,1.323-.4,1.44,1.44,0,0,0,.474-1.163q0-1.479-1.815-1.48a7.187,7.187,0,0,0-1.229.143l-.414-.269.263-3.306h3.515v.74h-2.826l-.183,2.123a5.906,5.906,0,0,1,1.109-.111" transform="translate(220.124 159.601)" fill="#213f47"/>
            <path id="Trazado_752596" data-name="Trazado 752596" d="M118.479,94.192a5.016,5.016,0,0,1,.806-3.115,2.865,2.865,0,0,1,2.4-1.032,3.083,3.083,0,0,1,.86.094v.689a2.677,2.677,0,0,0-.852-.12,2.132,2.132,0,0,0-1.732.706,3.608,3.608,0,0,0-.66,2.229h.06a1.85,1.85,0,0,1,1.68-.834,1.959,1.959,0,0,1,1.5.577,2.16,2.16,0,0,1,.549,1.563,2.425,2.425,0,0,1-.6,1.734,2.142,2.142,0,0,1-1.629.629,2.082,2.082,0,0,1-1.74-.826,3.64,3.64,0,0,1-.64-2.295m2.372,2.44a1.346,1.346,0,0,0,1.066-.434,1.828,1.828,0,0,0,.38-1.249,1.607,1.607,0,0,0-.352-1.1,1.331,1.331,0,0,0-1.057-.4,1.775,1.775,0,0,0-.8.18,1.5,1.5,0,0,0-.577.491,1.125,1.125,0,0,0-.214.654,2.3,2.3,0,0,0,.191.929,1.654,1.654,0,0,0,.552.683,1.378,1.378,0,0,0,.809.251" transform="translate(220.076 167.261)" fill="#213f47"/>
            <path id="Trazado_752597" data-name="Trazado 752597" d="M121.146,101.311h-.78V96.271c0-.417.011-.814.037-1.192-.069.071-.146.143-.229.217s-.466.386-1.152.943l-.426-.554,1.875-1.446h.674Z" transform="translate(220.295 175.05)" fill="#213f47"/>
            <path id="Trazado_752598" data-name="Trazado 752598" d="M122.85,100.127a1.627,1.627,0,0,1-.38,1.109,1.921,1.921,0,0,1-1.077.574v.04a2.018,2.018,0,0,1,1.263.54,1.613,1.613,0,0,1,.411,1.14,1.858,1.858,0,0,1-.7,1.557,3.2,3.2,0,0,1-1.992.543,5.76,5.76,0,0,1-1.029-.086,3.436,3.436,0,0,1-.906-.3v-.763a4.478,4.478,0,0,0,.98.346,4.537,4.537,0,0,0,.986.117q1.83,0,1.829-1.434c0-.857-.672-1.289-2.02-1.289h-.694v-.689h.706a2.106,2.106,0,0,0,1.309-.369,1.192,1.192,0,0,0,.486-1.012.991.991,0,0,0-.357-.809,1.438,1.438,0,0,0-.963-.3,3.028,3.028,0,0,0-.877.126,3.935,3.935,0,0,0-.937.466l-.406-.543a3.378,3.378,0,0,1,1-.54,3.622,3.622,0,0,1,1.194-.194,2.448,2.448,0,0,1,1.6.471,1.573,1.573,0,0,1,.572,1.292" transform="translate(220 182.712)" fill="#213f47"/>
            <path id="Trazado_752599" data-name="Trazado 752599" d="M121.146,109.629h-.78v-5.041c0-.417.011-.814.037-1.189-.069.071-.146.14-.229.214s-.466.389-1.152.943l-.426-.552,1.875-1.449h.674Z" transform="translate(220.295 190.501)" fill="#213f47"/>
            <path id="Trazado_752600" data-name="Trazado 752600" d="M134.908,84.388h-.049a.994.994,0,0,1-.817-.514l-1.675-3.066a.985.985,0,0,1,1.729-.946l.9,1.652,2.023-2.986a.985.985,0,1,1,1.632,1.1l-2.929,4.323a.983.983,0,0,1-.814.434" transform="translate(245.652 145.056)" fill="#469da7"/>
            <path id="Trazado_752601" data-name="Trazado 752601" d="M134.908,92.743h-.049a.988.988,0,0,1-.817-.514l-1.675-3.069a.985.985,0,1,1,1.729-.943l.9,1.652,2.023-2.989a.985.985,0,1,1,1.632,1.1l-2.929,4.329a.988.988,0,0,1-.814.431" transform="translate(245.652 160.567)" fill="#469da7"/>
            <path id="Trazado_752602" data-name="Trazado 752602" d="M134.908,100.806h-.049a.994.994,0,0,1-.817-.514l-1.675-3.069a.985.985,0,1,1,1.729-.943l.9,1.652,2.023-2.986a.985.985,0,1,1,1.632,1.1l-2.929,4.323a.983.983,0,0,1-.814.434" transform="translate(245.652 175.552)" fill="#469da7"/>
            <path id="Trazado_752603" data-name="Trazado 752603" d="M134.908,104.908h-.049a.985.985,0,0,1-.817-.512l-1.675-3.069a.985.985,0,0,1,1.729-.943l.9,1.649,2.023-2.986a.986.986,0,0,1,1.632,1.106l-2.929,4.323a.988.988,0,0,1-.814.431" transform="translate(245.652 183.178)" fill="#469da7"/>
            <path id="Trazado_752604" data-name="Trazado 752604" d="M135.54,111.708c-1.849,0-3.295-2.1-3.295-4.781s1.446-4.781,3.295-4.781,3.295,2.1,3.295,4.781-1.443,4.781-3.295,4.781m0-7.592c-.54,0-1.326,1.094-1.326,2.812s.786,2.812,1.326,2.812,1.326-1.094,1.326-2.812-.786-2.812-1.326-2.812" transform="translate(245.646 189.739)" fill="#fe7062"/>
            <path id="Trazado_752605" data-name="Trazado 752605" d="M222.356,97.156v76.81a1.753,1.753,0,0,1-.131.683,2.011,2.011,0,0,1-1.937,1.366H79.172a2,2,0,0,1-1.915-1.366,1.656,1.656,0,0,1-.134-.683V97.156a2.057,2.057,0,0,1,2.049-2.046H220.287a2.06,2.06,0,0,1,2.069,2.046" transform="translate(143.257 176.668)" fill="#303030"/>
            <path id="Trazado_752606" data-name="Trazado 752606" d="M237.282,124.837a3.58,3.58,0,0,1-3.566,3.566H77.521a3.563,3.563,0,0,1-3.563-3.566,3.468,3.468,0,0,1,.549-1.892H236.73a3.447,3.447,0,0,1,.551,1.892" transform="translate(137.378 228.372)" fill="silver"/>
            <path id="Trazado_752607" data-name="Trazado 752607" d="M99.233,122.947a4.764,4.764,0,0,0,4.3,2.726H113.8a4.753,4.753,0,0,0,4.306-2.726Z" transform="translate(184.326 228.375)" fill="#909090"/>
            <rect id="Rectángulo_358731" data-name="Rectángulo 358731" width="135.309" height="70.906" transform="translate(225.169 274.944)" fill="#57dbd8"/>
            <rect id="Rectángulo_358732" data-name="Rectángulo 358732" width="70.646" height="37.233" transform="translate(238.531 225.255)" fill="#e3d6b6"/>
            <rect id="Rectángulo_358733" data-name="Rectángulo 358733" width="30.33" height="13.647" transform="translate(241.654 245.797)" fill="#fcf7ea"/>
            <rect id="Rectángulo_358734" data-name="Rectángulo 358734" width="1.795" height="11.627" transform="translate(243.291 246.809)" fill="#354546"/>
            <rect id="Rectángulo_358735" data-name="Rectángulo 358735" width="0.603" height="11.627" transform="translate(246.177 246.809)" fill="#354546"/>
            <rect id="Rectángulo_358736" data-name="Rectángulo 358736" width="0.603" height="11.627" transform="translate(265.84 246.809)" fill="#354546"/>
            <rect id="Rectángulo_358737" data-name="Rectángulo 358737" width="1.795" height="11.627" transform="translate(249.063 246.809)" fill="#354546"/>
            <rect id="Rectángulo_358738" data-name="Rectángulo 358738" width="0.897" height="11.627" transform="translate(251.95 246.809)" fill="#354546"/>
            <rect id="Rectángulo_358739" data-name="Rectángulo 358739" width="0.897" height="11.627" transform="translate(247.54 246.809)" fill="#354546"/>
            <rect id="Rectángulo_358740" data-name="Rectángulo 358740" width="3.003" height="11.627" transform="translate(253.63 246.809)" fill="#354546"/>
            <rect id="Rectángulo_358741" data-name="Rectángulo 358741" width="1.795" height="11.627" transform="translate(263.448 246.809)" fill="#354546"/>
            <rect id="Rectángulo_358742" data-name="Rectángulo 358742" width="1.795" height="11.627" transform="translate(259.35 246.809)" fill="#354546"/>
            <rect id="Rectángulo_358743" data-name="Rectángulo 358743" width="0.897" height="11.627" transform="translate(257.725 246.809)" fill="#354546"/>
            <rect id="Rectángulo_358744" data-name="Rectángulo 358744" width="0.894" height="11.627" transform="translate(261.719 246.809)" fill="#354546"/>
            <rect id="Rectángulo_358745" data-name="Rectángulo 358745" width="2.958" height="11.627" transform="translate(266.886 246.809)" fill="#354546"/>
            <rect id="Rectángulo_358746" data-name="Rectángulo 358746" width="2.206" height="37.233" transform="translate(273.855 225.255)" fill="#b59d63"/>
            <rect id="Rectángulo_358747" data-name="Rectángulo 358747" width="1.875" height="7.532" transform="translate(283.762 248.892)" fill="#b59d63"/>
            <path id="Trazado_752608" data-name="Trazado 752608" d="M98.648,90.551l2.809-4.863,2.809,4.863Z" transform="translate(183.24 159.165)" fill="#b59d63"/>
            <rect id="Rectángulo_358748" data-name="Rectángulo 358748" width="1.877" height="7.532" transform="translate(289.974 248.892)" fill="#b59d63"/>
            <path id="Trazado_752609" data-name="Trazado 752609" d="M100.823,90.551l2.806-4.863,2.812,4.863Z" transform="translate(187.28 159.165)" fill="#b59d63"/>
            <rect id="Rectángulo_358749" data-name="Rectángulo 358749" width="11.833" height="1.177" transform="translate(281.888 257.259)" fill="#b59d63"/>
            <rect id="Rectángulo_358750" data-name="Rectángulo 358750" width="7.761" height="19.16" transform="translate(249.961 225.255)" fill="#b59d63"/>
            <rect id="Rectángulo_358751" data-name="Rectángulo 358751" width="7.764" height="19.16" transform="translate(288.537 225.255)" fill="#b59d63"/>
            <rect id="Rectángulo_358752" data-name="Rectángulo 358752" width="82.811" height="2.603" transform="translate(241.091 289.372)" fill="#fff"/>
            <rect id="Rectángulo_358753" data-name="Rectángulo 358753" width="82.811" height="2.606" transform="translate(241.091 307.717)" fill="#fff"/>
            <rect id="Rectángulo_358754" data-name="Rectángulo 358754" width="82.811" height="2.606" transform="translate(241.091 325.668)" fill="#fff"/>
            <rect id="Rectángulo_358755" data-name="Rectángulo 358755" width="2.606" height="49.343" transform="translate(240.774 290.675)" fill="#fff"/>
            <rect id="Rectángulo_358756" data-name="Rectángulo 358756" width="2.606" height="49.343" transform="translate(266.871 290.675)" fill="#fff"/>
            <rect id="Rectángulo_358757" data-name="Rectángulo 358757" width="2.606" height="49.343" transform="translate(291.523 290.675)" fill="#fff"/>
            <rect id="Rectángulo_358758" data-name="Rectángulo 358758" width="2.606" height="49.343" transform="translate(314.009 290.675)" fill="#fff"/>
            <path id="Trazado_752610" data-name="Trazado 752610" d="M103.378,110.682l-2.989-2.989,2.989-2.986-.78-.78-2.989,2.986-2.989-2.986-.783.78,2.989,2.986-2.989,2.989.783.78,2.989-2.983,2.989,2.983Z" transform="translate(178.018 193.045)" fill="#fe7062"/>
            <rect id="Rectángulo_358759" data-name="Rectángulo 358759" width="28.021" height="55.244" transform="translate(327.931 283.791)" fill="#fff"/>
            <rect id="Rectángulo_358760" data-name="Rectángulo 358760" width="24.675" height="11.104" transform="translate(329.554 325.668)" fill="#fcf7ea"/>
            <rect id="Rectángulo_358761" data-name="Rectángulo 358761" width="1.46" height="9.461" transform="translate(330.885 326.491)" fill="#354546"/>
            <rect id="Rectángulo_358762" data-name="Rectángulo 358762" width="0.491" height="9.461" transform="translate(333.234 326.491)" fill="#354546"/>
            <rect id="Rectángulo_358763" data-name="Rectángulo 358763" width="0.491" height="9.461" transform="translate(349.233 326.491)" fill="#354546"/>
            <rect id="Rectángulo_358764" data-name="Rectángulo 358764" width="1.463" height="9.461" transform="translate(335.58 326.491)" fill="#354546"/>
            <rect id="Rectángulo_358765" data-name="Rectángulo 358765" width="0.732" height="9.461" transform="translate(337.932 326.491)" fill="#354546"/>
            <rect id="Rectángulo_358766" data-name="Rectángulo 358766" width="0.732" height="9.461" transform="translate(334.343 326.491)" fill="#354546"/>
            <rect id="Rectángulo_358767" data-name="Rectángulo 358767" width="2.44" height="9.461" transform="translate(339.301 326.491)" fill="#354546"/>
            <rect id="Rectángulo_358768" data-name="Rectángulo 358768" width="1.46" height="9.461" transform="translate(347.288 326.491)" fill="#354546"/>
            <rect id="Rectángulo_358769" data-name="Rectángulo 358769" width="1.46" height="9.461" transform="translate(343.953 326.491)" fill="#354546"/>
            <rect id="Rectángulo_358770" data-name="Rectángulo 358770" width="0.732" height="9.461" transform="translate(342.627 326.491)" fill="#354546"/>
            <rect id="Rectángulo_358771" data-name="Rectángulo 358771" width="0.729" height="9.461" transform="translate(345.879 326.491)" fill="#354546"/>
            <rect id="Rectángulo_358772" data-name="Rectángulo 358772" width="2.406" height="9.461" transform="translate(350.082 326.491)" fill="#354546"/>
            <rect id="Rectángulo_358773" data-name="Rectángulo 358773" width="24.675" height="1.835" transform="translate(329.554 298.904)" fill="#909090"/>
            <rect id="Rectángulo_358774" data-name="Rectángulo 358774" width="21.728" height="1.837" transform="translate(329.557 305.114)" fill="#909090"/>
            <rect id="Rectángulo_358775" data-name="Rectángulo 358775" width="24.675" height="1.835" transform="translate(329.554 308.223)" fill="#909090"/>
            <rect id="Rectángulo_358776" data-name="Rectángulo 358776" width="17.054" height="1.837" transform="translate(329.554 311.329)" fill="#909090"/>
            <rect id="Rectángulo_358777" data-name="Rectángulo 358777" width="24.675" height="1.837" transform="translate(329.554 317.544)" fill="#909090"/>
            <rect id="Rectángulo_358778" data-name="Rectángulo 358778" width="17.248" height="1.837" transform="translate(329.554 320.65)" fill="#909090"/>
            <path id="Trazado_752611" data-name="Trazado 752611" d="M116.663,106.922h-1.2V101.2h3.28v1h-2.083v1.472h1.94v.992h-1.94Z" transform="translate(214.479 187.977)" fill="#354546"/>
            <path id="Trazado_752612" data-name="Trazado 752612" d="M121.119,105.737h-.692v1.186h-1.18v-1.186H116.8v-.843l2.512-3.695h1.114v3.6h.692Zm-1.872-.94v-.972c0-.16.006-.4.02-.706s.023-.483.031-.534h-.031a4.064,4.064,0,0,1-.349.623L117.87,104.8Z" transform="translate(216.959 187.978)" fill="#354546"/>
            <path id="Trazado_752613" data-name="Trazado 752613" d="M120.5,103.267a1.846,1.846,0,0,1,1.323.466,1.677,1.677,0,0,1,.489,1.274,1.866,1.866,0,0,1-.589,1.477,2.508,2.508,0,0,1-1.695.517,3.313,3.313,0,0,1-1.54-.311v-1.043a3.353,3.353,0,0,0,.72.269,3.216,3.216,0,0,0,.777.1c.74,0,1.109-.306,1.109-.909q0-.866-1.146-.866a3.067,3.067,0,0,0-.46.04,3.446,3.446,0,0,0-.406.091l-.48-.26.214-2.918h3.106v1.026h-2.046l-.106,1.123.137-.026a2.674,2.674,0,0,1,.592-.054" transform="translate(220.102 187.976)" fill="#354546"/>
            <rect id="Rectángulo_358779" data-name="Rectángulo 358779" width="129.894" height="3.1" transform="translate(228.918 277.093)" fill="#707070"/>
            <path id="Trazado_752614" data-name="Trazado 752614" d="M83.393,88.89H81.424V77.1H91.957v1.969H83.393Z" transform="translate(151.246 143.214)" fill="#fe7062"/>
            <path id="Trazado_752615" data-name="Trazado 752615" d="M93.008,101.2H81.423V89.737H83.4v9.493h9.613Z" transform="translate(151.245 166.686)" fill="#fe7062"/>
            <path id="Trazado_752616" data-name="Trazado 752616" d="M117.517,101.2H106.033V99.229h9.516V89.737h1.969Z" transform="translate(196.957 166.686)" fill="#fe7062"/>
            <path id="Trazado_752617" data-name="Trazado 752617" d="M117.224,87.032h-1.969V79.071h-9.064V77.1h11.033Z" transform="translate(197.25 143.213)" fill="#fe7062"/>
            <path id="Trazado_752618" data-name="Trazado 752618" d="M63.138,69.837h-2.42V0h136.3V25.417H194.6v-23H63.138Z" transform="translate(112.783 0)" fill="#d5e5e6"/>
            <path id="Trazado_752619" data-name="Trazado 752619" d="M70.46,27.835a5.648,5.648,0,1,1-5.649-5.649,5.649,5.649,0,0,1,5.649,5.649" transform="translate(109.898 41.211)" fill="#d5e5e6"/>
            <path id="Trazado_752620" data-name="Trazado 752620" d="M17.426,106.37a5.648,5.648,0,1,1-5.649-5.649,5.649,5.649,0,0,1,5.649,5.649" transform="translate(11.387 187.09)" fill="#d5e5e6"/>
          </g>
        </g>
      </g>
    </g>
    <g id="Enmascarar_grupo_1018873" data-name="Enmascarar grupo 1018873" transform="translate(200.566 2744.621)" clip-path="url(#clip-path-11)">
      <path id="Trazado_151731" data-name="Trazado 151731" d="M59.576,94.067A34.491,34.491,0,1,1,94.067,59.576,34.53,34.53,0,0,1,59.576,94.067m0,25.085A59.576,59.576,0,1,0,0,59.576,59.576,59.576,0,0,0,59.576,119.152Z" transform="translate(0 4.257)" fill="#4adbd1"/>
    </g>
    <g id="Grupo_1043201" data-name="Grupo 1043201" transform="translate(179.698 2939.773)">
      <path id="Trazado_145969" data-name="Trazado 145969" d="M45.936,0A45.936,45.936,0,1,0,91.872,45.936,45.936,45.936,0,0,0,45.936,0Z" transform="translate(295.302 -198)" fill="#ffca28" opacity="0.444" style="mix-blend-mode: multiply;isolation: isolate"/>
      <g id="Grupo_80270" data-name="Grupo 80270" transform="translate(0.302 110.022)">
        <path id="Trazado_145968" data-name="Trazado 145968" d="M37.5,0A37.5,37.5,0,1,0,75,37.5,37.5,37.5,0,0,0,37.5,0Z" fill="#31313c" opacity="0.444" style="mix-blend-mode: multiply;isolation: isolate"/>
        <g id="Grupo_78276" data-name="Grupo 78276" transform="translate(13.513 15.504)">
          <g id="Grupo_53306" data-name="Grupo 53306" transform="translate(0)">
            <path id="Trazado_99200" data-name="Trazado 99200" d="M414.214,50.711a.51.51,0,1,0,.51-.487A.5.5,0,0,0,414.214,50.711Z" transform="translate(-368.383 -50.224)" fill="#fff"/>
            <path id="Trazado_99201" data-name="Trazado 99201" d="M422.66,50.711a.51.51,0,1,0,.509-.487A.5.5,0,0,0,422.66,50.711Z" transform="translate(-381.412 -50.224)" fill="#fff"/>
            <path id="Trazado_99202" data-name="Trazado 99202" d="M431.106,50.711a.51.51,0,1,0,.509-.487A.5.5,0,0,0,431.106,50.711Z" transform="translate(-394.441 -50.224)" fill="#fff"/>
            <path id="Trazado_99203" data-name="Trazado 99203" d="M439.553,50.711a.51.51,0,1,0,.509-.487A.5.5,0,0,0,439.553,50.711Z" transform="translate(-407.471 -50.224)" fill="#fff"/>
            <path id="Trazado_99204" data-name="Trazado 99204" d="M448,50.711a.51.51,0,1,0,.509-.487A.5.5,0,0,0,448,50.711Z" transform="translate(-420.5 -50.224)" fill="#fff"/>
            <path id="Trazado_99205" data-name="Trazado 99205" d="M456.445,50.711a.51.51,0,1,0,.509-.487A.5.5,0,0,0,456.445,50.711Z" transform="translate(-433.529 -50.224)" fill="#fff"/>
            <path id="Trazado_99206" data-name="Trazado 99206" d="M464.892,50.711a.51.51,0,1,0,.51-.487A.5.5,0,0,0,464.892,50.711Z" transform="translate(-446.56 -50.224)" fill="#fff"/>
            <path id="Trazado_99207" data-name="Trazado 99207" d="M473.338,50.711a.51.51,0,1,0,.509-.487A.5.5,0,0,0,473.338,50.711Z" transform="translate(-459.589 -50.224)" fill="#fff"/>
            <path id="Trazado_99208" data-name="Trazado 99208" d="M481.784,50.711a.51.51,0,1,0,.509-.487A.5.5,0,0,0,481.784,50.711Z" transform="translate(-472.618 -50.224)" fill="#fff"/>
            <path id="Trazado_99209" data-name="Trazado 99209" d="M490.231,50.711a.51.51,0,1,0,.51-.487A.5.5,0,0,0,490.231,50.711Z" transform="translate(-485.648 -50.224)" fill="#fff"/>
            <path id="Trazado_99210" data-name="Trazado 99210" d="M498.677,50.711a.51.51,0,1,0,.51-.487A.5.5,0,0,0,498.677,50.711Z" transform="translate(-498.677 -50.224)" fill="#fff"/>
          </g>
          <g id="Grupo_53307" data-name="Grupo 53307" transform="translate(0 3.896)">
            <path id="Trazado_99211" data-name="Trazado 99211" d="M414.214,58.219a.51.51,0,1,0,.51-.487A.5.5,0,0,0,414.214,58.219Z" transform="translate(-368.383 -57.732)" fill="#fff"/>
            <path id="Trazado_99212" data-name="Trazado 99212" d="M422.66,58.219a.51.51,0,1,0,.509-.487A.5.5,0,0,0,422.66,58.219Z" transform="translate(-381.412 -57.732)" fill="#fff"/>
            <path id="Trazado_99213" data-name="Trazado 99213" d="M431.106,58.219a.51.51,0,1,0,.509-.487A.5.5,0,0,0,431.106,58.219Z" transform="translate(-394.441 -57.732)" fill="#fff"/>
            <path id="Trazado_99214" data-name="Trazado 99214" d="M439.553,58.219a.51.51,0,1,0,.509-.487A.5.5,0,0,0,439.553,58.219Z" transform="translate(-407.471 -57.732)" fill="#fff"/>
            <path id="Trazado_99215" data-name="Trazado 99215" d="M448,58.219a.51.51,0,1,0,.509-.487A.5.5,0,0,0,448,58.219Z" transform="translate(-420.5 -57.732)" fill="#fff"/>
            <path id="Trazado_99216" data-name="Trazado 99216" d="M456.445,58.219a.51.51,0,1,0,.509-.487A.5.5,0,0,0,456.445,58.219Z" transform="translate(-433.529 -57.732)" fill="#fff"/>
            <path id="Trazado_99217" data-name="Trazado 99217" d="M464.892,58.219a.51.51,0,1,0,.51-.487A.5.5,0,0,0,464.892,58.219Z" transform="translate(-446.56 -57.732)" fill="#fff"/>
            <path id="Trazado_99218" data-name="Trazado 99218" d="M473.338,58.219a.51.51,0,1,0,.509-.487A.5.5,0,0,0,473.338,58.219Z" transform="translate(-459.589 -57.732)" fill="#fff"/>
            <path id="Trazado_99219" data-name="Trazado 99219" d="M481.784,58.219a.51.51,0,1,0,.509-.487A.5.5,0,0,0,481.784,58.219Z" transform="translate(-472.618 -57.732)" fill="#fff"/>
            <path id="Trazado_99220" data-name="Trazado 99220" d="M490.231,58.219a.51.51,0,1,0,.51-.487A.5.5,0,0,0,490.231,58.219Z" transform="translate(-485.648 -57.732)" fill="#fff"/>
            <path id="Trazado_99221" data-name="Trazado 99221" d="M498.677,58.219a.51.51,0,1,0,.51-.487A.5.5,0,0,0,498.677,58.219Z" transform="translate(-498.677 -57.732)" fill="#fff"/>
          </g>
          <g id="Grupo_53308" data-name="Grupo 53308" transform="translate(0 7.792)">
            <ellipse id="Elipse_3955" data-name="Elipse 3955" cx="0.509" cy="0.487" rx="0.509" ry="0.487" transform="translate(45.831)" fill="#fff"/>
            <path id="Trazado_99222" data-name="Trazado 99222" d="M422.66,65.727a.51.51,0,1,0,.509-.487A.5.5,0,0,0,422.66,65.727Z" transform="translate(-381.412 -65.24)" fill="#fff"/>
            <ellipse id="Elipse_3956" data-name="Elipse 3956" cx="0.509" cy="0.487" rx="0.509" ry="0.487" transform="translate(36.665)" fill="#fff"/>
            <path id="Trazado_99223" data-name="Trazado 99223" d="M439.553,65.727a.51.51,0,1,0,.509-.487A.5.5,0,0,0,439.553,65.727Z" transform="translate(-407.471 -65.24)" fill="#fff"/>
            <path id="Trazado_99224" data-name="Trazado 99224" d="M448,65.727a.51.51,0,1,0,.509-.487A.5.5,0,0,0,448,65.727Z" transform="translate(-420.5 -65.24)" fill="#fff"/>
            <ellipse id="Elipse_3957" data-name="Elipse 3957" cx="0.509" cy="0.487" rx="0.509" ry="0.487" transform="translate(22.916)" fill="#fff"/>
            <path id="Trazado_99225" data-name="Trazado 99225" d="M464.892,65.727a.51.51,0,1,0,.51-.487A.5.5,0,0,0,464.892,65.727Z" transform="translate(-446.56 -65.24)" fill="#fff"/>
            <ellipse id="Elipse_3958" data-name="Elipse 3958" cx="0.509" cy="0.487" rx="0.509" ry="0.487" transform="translate(13.749)" fill="#fff"/>
            <ellipse id="Elipse_3959" data-name="Elipse 3959" cx="0.509" cy="0.487" rx="0.509" ry="0.487" transform="translate(9.166)" fill="#fff"/>
            <path id="Trazado_99226" data-name="Trazado 99226" d="M490.231,65.727a.51.51,0,1,0,.51-.487A.5.5,0,0,0,490.231,65.727Z" transform="translate(-485.648 -65.24)" fill="#fff"/>
            <path id="Trazado_99227" data-name="Trazado 99227" d="M498.677,65.727a.51.51,0,1,0,.51-.487A.5.5,0,0,0,498.677,65.727Z" transform="translate(-498.677 -65.24)" fill="#fff"/>
          </g>
          <g id="Grupo_53309" data-name="Grupo 53309" transform="translate(0 11.688)">
            <ellipse id="Elipse_3960" data-name="Elipse 3960" cx="0.509" cy="0.487" rx="0.509" ry="0.487" transform="translate(45.831 0)" fill="#fff"/>
            <path id="Trazado_99228" data-name="Trazado 99228" d="M422.66,73.234a.51.51,0,1,0,.509-.487A.5.5,0,0,0,422.66,73.234Z" transform="translate(-381.412 -72.747)" fill="#fff"/>
            <ellipse id="Elipse_3961" data-name="Elipse 3961" cx="0.509" cy="0.487" rx="0.509" ry="0.487" transform="translate(36.665 0)" fill="#fff"/>
            <path id="Trazado_99229" data-name="Trazado 99229" d="M439.553,73.234a.51.51,0,1,0,.509-.487A.5.5,0,0,0,439.553,73.234Z" transform="translate(-407.471 -72.747)" fill="#fff"/>
            <path id="Trazado_99230" data-name="Trazado 99230" d="M448,73.234a.51.51,0,1,0,.509-.487A.5.5,0,0,0,448,73.234Z" transform="translate(-420.5 -72.747)" fill="#fff"/>
            <ellipse id="Elipse_3962" data-name="Elipse 3962" cx="0.509" cy="0.487" rx="0.509" ry="0.487" transform="translate(22.916 0)" fill="#fff"/>
            <path id="Trazado_99231" data-name="Trazado 99231" d="M464.892,73.234a.51.51,0,1,0,.51-.487A.5.5,0,0,0,464.892,73.234Z" transform="translate(-446.56 -72.747)" fill="#fff"/>
            <ellipse id="Elipse_3963" data-name="Elipse 3963" cx="0.509" cy="0.487" rx="0.509" ry="0.487" transform="translate(13.749 0)" fill="#fff"/>
            <ellipse id="Elipse_3964" data-name="Elipse 3964" cx="0.509" cy="0.487" rx="0.509" ry="0.487" transform="translate(9.166 0)" fill="#fff"/>
            <path id="Trazado_99232" data-name="Trazado 99232" d="M490.231,73.234a.51.51,0,1,0,.51-.487A.5.5,0,0,0,490.231,73.234Z" transform="translate(-485.648 -72.747)" fill="#fff"/>
            <path id="Trazado_99233" data-name="Trazado 99233" d="M498.677,73.234a.51.51,0,1,0,.51-.487A.5.5,0,0,0,498.677,73.234Z" transform="translate(-498.677 -72.747)" fill="#fff"/>
          </g>
          <g id="Grupo_53310" data-name="Grupo 53310" transform="translate(0 15.584)">
            <path id="Trazado_99234" data-name="Trazado 99234" d="M414.214,80.742a.51.51,0,1,0,.51-.487A.5.5,0,0,0,414.214,80.742Z" transform="translate(-368.383 -80.255)" fill="#fff"/>
            <path id="Trazado_99235" data-name="Trazado 99235" d="M422.66,80.742a.51.51,0,1,0,.509-.487A.5.5,0,0,0,422.66,80.742Z" transform="translate(-381.412 -80.255)" fill="#fff"/>
            <path id="Trazado_99236" data-name="Trazado 99236" d="M431.106,80.742a.51.51,0,1,0,.509-.487A.5.5,0,0,0,431.106,80.742Z" transform="translate(-394.441 -80.255)" fill="#fff"/>
            <path id="Trazado_99237" data-name="Trazado 99237" d="M439.553,80.742a.51.51,0,1,0,.509-.487A.5.5,0,0,0,439.553,80.742Z" transform="translate(-407.471 -80.255)" fill="#fff"/>
            <path id="Trazado_99238" data-name="Trazado 99238" d="M448,80.742a.51.51,0,1,0,.509-.487A.5.5,0,0,0,448,80.742Z" transform="translate(-420.5 -80.255)" fill="#fff"/>
            <path id="Trazado_99239" data-name="Trazado 99239" d="M456.445,80.742a.51.51,0,1,0,.509-.487A.5.5,0,0,0,456.445,80.742Z" transform="translate(-433.529 -80.255)" fill="#fff"/>
            <path id="Trazado_99240" data-name="Trazado 99240" d="M464.892,80.742a.51.51,0,1,0,.51-.487A.5.5,0,0,0,464.892,80.742Z" transform="translate(-446.56 -80.255)" fill="#fff"/>
            <path id="Trazado_99241" data-name="Trazado 99241" d="M473.338,80.742a.51.51,0,1,0,.509-.487A.5.5,0,0,0,473.338,80.742Z" transform="translate(-459.589 -80.255)" fill="#fff"/>
            <path id="Trazado_99242" data-name="Trazado 99242" d="M481.784,80.742a.51.51,0,1,0,.509-.487A.5.5,0,0,0,481.784,80.742Z" transform="translate(-472.618 -80.255)" fill="#fff"/>
            <path id="Trazado_99243" data-name="Trazado 99243" d="M490.231,80.742a.51.51,0,1,0,.51-.487A.5.5,0,0,0,490.231,80.742Z" transform="translate(-485.648 -80.255)" fill="#fff"/>
            <path id="Trazado_99244" data-name="Trazado 99244" d="M498.677,80.742a.51.51,0,1,0,.51-.487A.5.5,0,0,0,498.677,80.742Z" transform="translate(-498.677 -80.255)" fill="#fff"/>
          </g>
          <g id="Grupo_53311" data-name="Grupo 53311" transform="translate(0 19.48)">
            <ellipse id="Elipse_3965" data-name="Elipse 3965" cx="0.509" cy="0.487" rx="0.509" ry="0.487" transform="translate(45.831 0)" fill="#fff"/>
            <path id="Trazado_99245" data-name="Trazado 99245" d="M422.66,88.25a.51.51,0,1,0,.509-.487A.5.5,0,0,0,422.66,88.25Z" transform="translate(-381.412 -87.763)" fill="#fff"/>
            <ellipse id="Elipse_3966" data-name="Elipse 3966" cx="0.509" cy="0.487" rx="0.509" ry="0.487" transform="translate(36.665 0)" fill="#fff"/>
            <path id="Trazado_99246" data-name="Trazado 99246" d="M439.553,88.25a.51.51,0,1,0,.509-.487A.5.5,0,0,0,439.553,88.25Z" transform="translate(-407.471 -87.763)" fill="#fff"/>
            <path id="Trazado_99247" data-name="Trazado 99247" d="M448,88.25a.51.51,0,1,0,.509-.487A.5.5,0,0,0,448,88.25Z" transform="translate(-420.5 -87.763)" fill="#fff"/>
            <ellipse id="Elipse_3967" data-name="Elipse 3967" cx="0.509" cy="0.487" rx="0.509" ry="0.487" transform="translate(22.916 0)" fill="#fff"/>
            <path id="Trazado_99248" data-name="Trazado 99248" d="M464.892,88.25a.51.51,0,1,0,.51-.487A.5.5,0,0,0,464.892,88.25Z" transform="translate(-446.56 -87.763)" fill="#fff"/>
            <ellipse id="Elipse_3968" data-name="Elipse 3968" cx="0.509" cy="0.487" rx="0.509" ry="0.487" transform="translate(13.749 0)" fill="#fff"/>
            <ellipse id="Elipse_3969" data-name="Elipse 3969" cx="0.509" cy="0.487" rx="0.509" ry="0.487" transform="translate(9.166 0)" fill="#fff"/>
            <path id="Trazado_99249" data-name="Trazado 99249" d="M490.231,88.25a.51.51,0,1,0,.51-.487A.5.5,0,0,0,490.231,88.25Z" transform="translate(-485.648 -87.763)" fill="#fff"/>
            <path id="Trazado_99250" data-name="Trazado 99250" d="M498.677,88.25a.51.51,0,1,0,.51-.487A.5.5,0,0,0,498.677,88.25Z" transform="translate(-498.677 -87.763)" fill="#fff"/>
          </g>
          <g id="Grupo_53312" data-name="Grupo 53312" transform="translate(0 23.376)">
            <ellipse id="Elipse_3970" data-name="Elipse 3970" cx="0.509" cy="0.487" rx="0.509" ry="0.487" transform="translate(45.831)" fill="#fff"/>
            <path id="Trazado_99251" data-name="Trazado 99251" d="M422.66,95.758a.51.51,0,1,0,.509-.487A.5.5,0,0,0,422.66,95.758Z" transform="translate(-381.412 -95.271)" fill="#fff"/>
            <ellipse id="Elipse_3971" data-name="Elipse 3971" cx="0.509" cy="0.487" rx="0.509" ry="0.487" transform="translate(36.665)" fill="#fff"/>
            <path id="Trazado_99252" data-name="Trazado 99252" d="M439.553,95.758a.51.51,0,1,0,.509-.487A.5.5,0,0,0,439.553,95.758Z" transform="translate(-407.471 -95.271)" fill="#fff"/>
            <path id="Trazado_99253" data-name="Trazado 99253" d="M448,95.758a.51.51,0,1,0,.509-.487A.5.5,0,0,0,448,95.758Z" transform="translate(-420.5 -95.271)" fill="#fff"/>
            <ellipse id="Elipse_3972" data-name="Elipse 3972" cx="0.509" cy="0.487" rx="0.509" ry="0.487" transform="translate(22.916)" fill="#fff"/>
            <path id="Trazado_99254" data-name="Trazado 99254" d="M464.892,95.758a.51.51,0,1,0,.51-.487A.5.5,0,0,0,464.892,95.758Z" transform="translate(-446.56 -95.271)" fill="#fff"/>
            <ellipse id="Elipse_3973" data-name="Elipse 3973" cx="0.509" cy="0.487" rx="0.509" ry="0.487" transform="translate(13.749)" fill="#fff"/>
            <ellipse id="Elipse_3974" data-name="Elipse 3974" cx="0.509" cy="0.487" rx="0.509" ry="0.487" transform="translate(9.166)" fill="#fff"/>
            <path id="Trazado_99255" data-name="Trazado 99255" d="M490.231,95.758a.51.51,0,1,0,.51-.487A.5.5,0,0,0,490.231,95.758Z" transform="translate(-485.648 -95.271)" fill="#fff"/>
            <path id="Trazado_99256" data-name="Trazado 99256" d="M498.677,95.758a.51.51,0,1,0,.51-.487A.5.5,0,0,0,498.677,95.758Z" transform="translate(-498.677 -95.271)" fill="#fff"/>
          </g>
          <g id="Grupo_53313" data-name="Grupo 53313" transform="translate(0 27.272)">
            <path id="Trazado_99257" data-name="Trazado 99257" d="M414.214,103.266a.51.51,0,1,0,.51-.487A.5.5,0,0,0,414.214,103.266Z" transform="translate(-368.383 -102.779)" fill="#fff"/>
            <path id="Trazado_99258" data-name="Trazado 99258" d="M422.66,103.266a.51.51,0,1,0,.509-.487A.5.5,0,0,0,422.66,103.266Z" transform="translate(-381.412 -102.779)" fill="#fff"/>
            <path id="Trazado_99259" data-name="Trazado 99259" d="M431.106,103.266a.51.51,0,1,0,.509-.487A.5.5,0,0,0,431.106,103.266Z" transform="translate(-394.441 -102.779)" fill="#fff"/>
            <path id="Trazado_99260" data-name="Trazado 99260" d="M439.553,103.266a.51.51,0,1,0,.509-.487A.5.5,0,0,0,439.553,103.266Z" transform="translate(-407.471 -102.779)" fill="#fff"/>
            <path id="Trazado_99261" data-name="Trazado 99261" d="M448,103.266a.51.51,0,1,0,.509-.487A.5.5,0,0,0,448,103.266Z" transform="translate(-420.5 -102.779)" fill="#fff"/>
            <path id="Trazado_99262" data-name="Trazado 99262" d="M456.445,103.266a.51.51,0,1,0,.509-.487A.5.5,0,0,0,456.445,103.266Z" transform="translate(-433.529 -102.779)" fill="#fff"/>
            <path id="Trazado_99263" data-name="Trazado 99263" d="M464.892,103.266a.51.51,0,1,0,.51-.487A.5.5,0,0,0,464.892,103.266Z" transform="translate(-446.56 -102.779)" fill="#fff"/>
            <path id="Trazado_99264" data-name="Trazado 99264" d="M473.338,103.266a.51.51,0,1,0,.509-.487A.5.5,0,0,0,473.338,103.266Z" transform="translate(-459.589 -102.779)" fill="#fff"/>
            <path id="Trazado_99265" data-name="Trazado 99265" d="M481.784,103.266a.51.51,0,1,0,.509-.487A.5.5,0,0,0,481.784,103.266Z" transform="translate(-472.618 -102.779)" fill="#fff"/>
            <path id="Trazado_99266" data-name="Trazado 99266" d="M490.231,103.266a.51.51,0,1,0,.51-.487A.5.5,0,0,0,490.231,103.266Z" transform="translate(-485.648 -102.779)" fill="#fff"/>
            <path id="Trazado_99267" data-name="Trazado 99267" d="M498.677,103.266a.51.51,0,1,0,.51-.487A.5.5,0,0,0,498.677,103.266Z" transform="translate(-498.677 -102.779)" fill="#fff"/>
          </g>
          <g id="Grupo_53314" data-name="Grupo 53314" transform="translate(0 31.168)">
            <ellipse id="Elipse_3975" data-name="Elipse 3975" cx="0.509" cy="0.487" rx="0.509" ry="0.487" transform="translate(45.831)" fill="#fff"/>
            <path id="Trazado_99268" data-name="Trazado 99268" d="M422.66,110.774a.51.51,0,1,0,.509-.487A.5.5,0,0,0,422.66,110.774Z" transform="translate(-381.412 -110.287)" fill="#fff"/>
            <ellipse id="Elipse_3976" data-name="Elipse 3976" cx="0.509" cy="0.487" rx="0.509" ry="0.487" transform="translate(36.665)" fill="#fff"/>
            <path id="Trazado_99269" data-name="Trazado 99269" d="M439.553,110.774a.51.51,0,1,0,.509-.487A.5.5,0,0,0,439.553,110.774Z" transform="translate(-407.471 -110.287)" fill="#fff"/>
            <path id="Trazado_99270" data-name="Trazado 99270" d="M448,110.774a.51.51,0,1,0,.509-.487A.5.5,0,0,0,448,110.774Z" transform="translate(-420.5 -110.287)" fill="#fff"/>
            <ellipse id="Elipse_3977" data-name="Elipse 3977" cx="0.509" cy="0.487" rx="0.509" ry="0.487" transform="translate(22.916)" fill="#fff"/>
            <path id="Trazado_99271" data-name="Trazado 99271" d="M464.892,110.774a.51.51,0,1,0,.51-.487A.5.5,0,0,0,464.892,110.774Z" transform="translate(-446.56 -110.287)" fill="#fff"/>
            <ellipse id="Elipse_3978" data-name="Elipse 3978" cx="0.509" cy="0.487" rx="0.509" ry="0.487" transform="translate(13.749)" fill="#fff"/>
            <ellipse id="Elipse_3979" data-name="Elipse 3979" cx="0.509" cy="0.487" rx="0.509" ry="0.487" transform="translate(9.166)" fill="#fff"/>
            <path id="Trazado_99272" data-name="Trazado 99272" d="M490.231,110.774a.51.51,0,1,0,.51-.487A.5.5,0,0,0,490.231,110.774Z" transform="translate(-485.648 -110.287)" fill="#fff"/>
            <path id="Trazado_99273" data-name="Trazado 99273" d="M498.677,110.774a.51.51,0,1,0,.51-.487A.5.5,0,0,0,498.677,110.774Z" transform="translate(-498.677 -110.287)" fill="#fff"/>
          </g>
          <g id="Grupo_53315" data-name="Grupo 53315" transform="translate(0 35.063)">
            <path id="Trazado_99274" data-name="Trazado 99274" d="M414.214,118.281a.51.51,0,1,0,.51-.487A.5.5,0,0,0,414.214,118.281Z" transform="translate(-368.383 -117.794)" fill="#fff"/>
            <path id="Trazado_99275" data-name="Trazado 99275" d="M422.66,118.281a.51.51,0,1,0,.509-.487A.5.5,0,0,0,422.66,118.281Z" transform="translate(-381.412 -117.794)" fill="#fff"/>
            <path id="Trazado_99276" data-name="Trazado 99276" d="M431.106,118.281a.51.51,0,1,0,.509-.487A.5.5,0,0,0,431.106,118.281Z" transform="translate(-394.441 -117.794)" fill="#fff"/>
            <path id="Trazado_99277" data-name="Trazado 99277" d="M439.553,118.281a.51.51,0,1,0,.509-.487A.5.5,0,0,0,439.553,118.281Z" transform="translate(-407.471 -117.794)" fill="#fff"/>
            <path id="Trazado_99278" data-name="Trazado 99278" d="M448,118.281a.51.51,0,1,0,.509-.487A.5.5,0,0,0,448,118.281Z" transform="translate(-420.5 -117.794)" fill="#fff"/>
            <path id="Trazado_99279" data-name="Trazado 99279" d="M456.445,118.281a.51.51,0,1,0,.509-.487A.5.5,0,0,0,456.445,118.281Z" transform="translate(-433.529 -117.794)" fill="#fff"/>
            <path id="Trazado_99280" data-name="Trazado 99280" d="M464.892,118.281a.51.51,0,1,0,.51-.487A.5.5,0,0,0,464.892,118.281Z" transform="translate(-446.56 -117.794)" fill="#fff"/>
            <path id="Trazado_99281" data-name="Trazado 99281" d="M473.338,118.281a.51.51,0,1,0,.509-.487A.5.5,0,0,0,473.338,118.281Z" transform="translate(-459.589 -117.794)" fill="#fff"/>
            <path id="Trazado_99282" data-name="Trazado 99282" d="M481.784,118.281a.51.51,0,1,0,.509-.487A.5.5,0,0,0,481.784,118.281Z" transform="translate(-472.618 -117.794)" fill="#fff"/>
            <path id="Trazado_99283" data-name="Trazado 99283" d="M490.231,118.281a.51.51,0,1,0,.51-.487A.5.5,0,0,0,490.231,118.281Z" transform="translate(-485.648 -117.794)" fill="#fff"/>
            <path id="Trazado_99284" data-name="Trazado 99284" d="M498.677,118.281a.51.51,0,1,0,.51-.487A.5.5,0,0,0,498.677,118.281Z" transform="translate(-498.677 -117.794)" fill="#fff"/>
          </g>
          <g id="Grupo_53316" data-name="Grupo 53316" transform="translate(0 38.959)">
            <ellipse id="Elipse_3980" data-name="Elipse 3980" cx="0.509" cy="0.487" rx="0.509" ry="0.487" transform="translate(45.831 0)" fill="#fff"/>
            <path id="Trazado_99285" data-name="Trazado 99285" d="M422.66,125.789a.51.51,0,1,0,.509-.487A.5.5,0,0,0,422.66,125.789Z" transform="translate(-381.412 -125.302)" fill="#fff"/>
            <ellipse id="Elipse_3981" data-name="Elipse 3981" cx="0.509" cy="0.487" rx="0.509" ry="0.487" transform="translate(36.665 0)" fill="#fff"/>
            <path id="Trazado_99286" data-name="Trazado 99286" d="M439.553,125.789a.51.51,0,1,0,.509-.487A.5.5,0,0,0,439.553,125.789Z" transform="translate(-407.471 -125.302)" fill="#fff"/>
            <path id="Trazado_99287" data-name="Trazado 99287" d="M448,125.789a.51.51,0,1,0,.509-.487A.5.5,0,0,0,448,125.789Z" transform="translate(-420.5 -125.302)" fill="#fff"/>
            <ellipse id="Elipse_3982" data-name="Elipse 3982" cx="0.509" cy="0.487" rx="0.509" ry="0.487" transform="translate(22.916 0)" fill="#fff"/>
            <path id="Trazado_99288" data-name="Trazado 99288" d="M464.892,125.789a.51.51,0,1,0,.51-.487A.5.5,0,0,0,464.892,125.789Z" transform="translate(-446.56 -125.302)" fill="#fff"/>
            <ellipse id="Elipse_3983" data-name="Elipse 3983" cx="0.509" cy="0.487" rx="0.509" ry="0.487" transform="translate(13.749 0)" fill="#fff"/>
            <ellipse id="Elipse_3984" data-name="Elipse 3984" cx="0.509" cy="0.487" rx="0.509" ry="0.487" transform="translate(9.166 0)" fill="#fff"/>
            <path id="Trazado_99289" data-name="Trazado 99289" d="M490.231,125.789a.51.51,0,1,0,.51-.487A.5.5,0,0,0,490.231,125.789Z" transform="translate(-485.648 -125.302)" fill="#fff"/>
            <path id="Trazado_99290" data-name="Trazado 99290" d="M498.677,125.789a.51.51,0,1,0,.51-.487A.5.5,0,0,0,498.677,125.789Z" transform="translate(-498.677 -125.302)" fill="#fff"/>
          </g>
          <g id="Grupo_53317" data-name="Grupo 53317" transform="translate(0 42.856)">
            <ellipse id="Elipse_3985" data-name="Elipse 3985" cx="0.509" cy="0.487" rx="0.509" ry="0.487" transform="translate(45.831 0)" fill="#fff"/>
            <path id="Trazado_99291" data-name="Trazado 99291" d="M422.66,133.3a.51.51,0,1,0,.509-.487A.5.5,0,0,0,422.66,133.3Z" transform="translate(-381.412 -132.81)" fill="#fff"/>
            <ellipse id="Elipse_3986" data-name="Elipse 3986" cx="0.509" cy="0.487" rx="0.509" ry="0.487" transform="translate(36.665 0)" fill="#fff"/>
            <path id="Trazado_99292" data-name="Trazado 99292" d="M439.553,133.3a.51.51,0,1,0,.509-.487A.5.5,0,0,0,439.553,133.3Z" transform="translate(-407.471 -132.81)" fill="#fff"/>
            <path id="Trazado_99293" data-name="Trazado 99293" d="M448,133.3a.51.51,0,1,0,.509-.487A.5.5,0,0,0,448,133.3Z" transform="translate(-420.5 -132.81)" fill="#fff"/>
            <ellipse id="Elipse_3987" data-name="Elipse 3987" cx="0.509" cy="0.487" rx="0.509" ry="0.487" transform="translate(22.916 0)" fill="#fff"/>
            <path id="Trazado_99294" data-name="Trazado 99294" d="M464.892,133.3a.51.51,0,1,0,.51-.487A.5.5,0,0,0,464.892,133.3Z" transform="translate(-446.56 -132.81)" fill="#fff"/>
            <ellipse id="Elipse_3988" data-name="Elipse 3988" cx="0.509" cy="0.487" rx="0.509" ry="0.487" transform="translate(13.749 0)" fill="#fff"/>
            <ellipse id="Elipse_3989" data-name="Elipse 3989" cx="0.509" cy="0.487" rx="0.509" ry="0.487" transform="translate(9.166 0)" fill="#fff"/>
            <path id="Trazado_99295" data-name="Trazado 99295" d="M490.231,133.3a.51.51,0,1,0,.51-.487A.5.5,0,0,0,490.231,133.3Z" transform="translate(-485.648 -132.81)" fill="#fff"/>
            <path id="Trazado_99296" data-name="Trazado 99296" d="M498.677,133.3a.51.51,0,1,0,.51-.487A.5.5,0,0,0,498.677,133.3Z" transform="translate(-498.677 -132.81)" fill="#fff"/>
          </g>
        </g>
      </g>
      <line id="Línea_3052" data-name="Línea 3052" y2="107.182" transform="translate(365.519 131.436)" fill="none" stroke="#fff" stroke-linecap="round" stroke-width="4" stroke-dasharray="8"/>
    </g>
  </g>
</svg>
