<svg xmlns="http://www.w3.org/2000/svg" xmlns:xlink="http://www.w3.org/1999/xlink" width="141" height="141" viewBox="0 0 141 141">
  <defs>
    <clipPath id="clip-path">
      <rect id="Rectángulo_363845" data-name="Rectángulo 363845" width="75.615" height="75.561" fill="none"/>
    </clipPath>
    <linearGradient id="linear-gradient" x1="0.5" x2="0.5" y2="1" gradientUnits="objectBoundingBox">
      <stop offset="0" stop-color="#fff"/>
      <stop offset="0.463" stop-color="#e9fffe"/>
      <stop offset="1" stop-color="#fff"/>
    </linearGradient>
  </defs>
  <g id="Grupo_1043417" data-name="Grupo 1043417" transform="translate(-4280.491 10908.802)">
    <circle id="Elipse_8727" data-name="Elipse 8727" cx="70.5" cy="70.5" r="70.5" transform="translate(4280.491 -10908.802)" fill="#4adbd1" opacity="0.58"/>
    <circle id="Elipse_8728" data-name="Elipse 8728" cx="61.5" cy="61.5" r="61.5" transform="translate(4289.491 -10899.802)" fill="#fff"/>
    <g id="Grupo_1042535" data-name="Grupo 1042535" transform="translate(4313.192 -10303.082)">
      <g id="Grupo_1030482" data-name="Grupo 1030482" transform="translate(0 -573)" clip-path="url(#clip-path)">
        <path id="Trazado_771369" data-name="Trazado 771369" d="M3.1,102.542H2.8c-1.568-.665-2.715-1.661-2.737-3.524C.052,98.158.085,97.3.05,96.435a3.471,3.471,0,0,1,1.058-2.581l.166-.123a1.3,1.3,0,0,1,.291-.232c.616-.248,1.056-.565.945-1.36-.086-.617-.022-1.254-.052-1.881,0-.074-.176-.161-.285-.2a3.953,3.953,0,0,1-.9-.637l-.166-.123A2.937,2.937,0,0,1,.216,87.8a13.717,13.717,0,0,1-.071-4.431,2.343,2.343,0,0,1,1.233-1.937A1.659,1.659,0,0,0,2.5,79.4a2.083,2.083,0,0,1,0-.683.913.913,0,0,0-.66-1.1,2.907,2.907,0,0,1-1.618-2A11.841,11.841,0,0,1,.066,72.1a3.555,3.555,0,0,1,3.688-3.677c1.776-.013,3.554-.031,5.329.012.6.014.739-.15.737-.741C9.8,60.257,9.811,52.821,9.8,45.384a1.417,1.417,0,0,1,.459-1.115q5.965-5.932,11.893-11.9a1.587,1.587,0,0,1,1.244-.524q14.656.026,29.312.013c.974,0,.974,0,.974,1.007q0,9.517.008,19.034c0,.221-.177.54.146.667.685.27,1.221.845,1.978.961.016.1.033.21.157.2s.133-.119.148-.216c.31-.017.561-.043.628-.464a7.422,7.422,0,0,1,.405-1.223c.173-.1.2-.205.019-.324a3.887,3.887,0,0,0,.164-.633c.051-.558.287-.77.891-.75,1.545.051,3.094.017,4.641.017,1.581,0,1.608-.005,1.91,1.513a11.945,11.945,0,0,0,.311,1.21c.228.739.659.958,1.341.586.643-.35,1.266-.737,1.893-1.117a.7.7,0,0,1,1.027.124c1.3,1.355,2.629,2.679,3.978,3.984.333.321.277.539.07.877-.409.67-.767,1.37-1.155,2.054-.286.5-.066,1.15.279,1.208,1.067.18,2.041.657,3.1.834v6.855a14.281,14.281,0,0,0-2.552.6,1,1,0,0,0-.743,1.641c.379.6.77,1.2,1.145,1.807a.476.476,0,0,1-.072.7c-1.4,1.358-2.775,2.742-4.143,4.132a.531.531,0,0,1-.772.111c-.7-.41-1.428-.757-2.133-1.154a.806.806,0,0,0-1.247.476c-.229.8-.5,1.589-.7,2.4-.083.337-.21.42-.542.415-1.469-.021-2.939-.005-4.409-.011-.631,0-1.466.215-1.838-.1-.409-.348-.328-1.224-.582-1.818-.222-.519-.006-1.357-.912-1.456l-.159-.123c-.619.133-1.039.656-1.6.858-.644.234-.69.641-.689,1.206.012,7.154,0,14.308.021,21.461,0,.552-.106.713-.691.71-5.149-.027-10.3-.016-15.449-.016q-3.957,0-7.915,0c-.282,0-.64-.126-.777.27a3.8,3.8,0,0,1-2.6,2.164H3.561c-.152-.2-.3-.2-.457,0M29,88.055c-.083.024-.152.057-.117.165-.258.516-.5,1.162-1.027,1.335-1.189.394-.986,1.293-.983,2.158a7.044,7.044,0,0,1-.006.837.672.672,0,0,0,.491.8,2.372,2.372,0,0,1,1.075.857,4.84,4.84,0,0,1,.857,2.854c.02.506.156.614.638.613q10.356-.023,20.712,0c.507,0,.618-.142.617-.629q-.024-10.356,0-20.713a1.549,1.549,0,0,0-.507-1.19c-.708-.691-1.388-1.412-2.107-2.091a.563.563,0,0,1-.133-.833c.39-.628.744-1.28,1.1-1.928a.9.9,0,0,0-.6-1.429,16.862,16.862,0,0,0-2.134-.555c-.52-.064-.51-.3-.508-.673.01-1.726.062-3.455-.021-5.177-.039-.8.218-1.148.956-1.3.6-.126,1.171-.341,1.76-.5a.911.911,0,0,0,.616-1.33c-.376-.695-.756-1.389-1.178-2.056A.518.518,0,0,1,48.6,56.5c.713-.686,1.4-1.4,2.108-2.09a1.619,1.619,0,0,0,.539-1.254q-.021-9.1,0-18.2c0-.514-.1-.677-.649-.676q-12.755.029-25.509,0c-.622,0-.678.21-.675.729.02,3.579,0,7.158.024,10.737,0,.567-.1.761-.726.755-3.6-.034-7.209-.005-10.813-.029-.516,0-.676.1-.675.651q.032,10.318,0,20.637c0,.627.217.675.732.672,3.5-.02,7.005-.013,10.508-.009a18.9,18.9,0,0,1,2.932.139,3.839,3.839,0,0,1,2.753,2.7,11.375,11.375,0,0,1-.156,4.609c-.082.025-.153.059-.118.167-.257.517-.5,1.162-1.027,1.336-1.189.395-.989,1.292-.982,2.159,0,.3.018.611,0,.914a.579.579,0,0,0,.433.679,2.881,2.881,0,0,1,1.715,2.089A9.522,9.522,0,0,1,29,88.055M70.576,57.3c.04-.273-.131-.369-.252-.491-.392-.4-.824-.762-1.176-1.191a.862.862,0,0,0-1.4-.134c-.966.756-1.985,1.135-3.116.292-.131-.1-.342-.083-.487-.169-.54-.32-1.175-.525-1.211-1.35a10.051,10.051,0,0,0-.368-1.274c-.066-.356-.225-.424-.551-.413-.735.024-1.472.016-2.208,0-.312-.005-.444.024-.509.423-.236,1.459-.8,2.7-2.5,2.958a1.244,1.244,0,0,0-.593.275.612.612,0,0,1-.819.014c-.445-.269-.925-.488-1.343-.792a.754.754,0,0,0-1.2.154,8.2,8.2,0,0,1-1.185,1.181c-.428.345-.408.616-.11,1.047.68.986,1.413,2,.342,3.194a.721.721,0,0,0-.115.415c-.051,1.1-.881,1.281-1.692,1.5a1.844,1.844,0,0,1-.428.108c-.777.007-.967.441-.857,1.122a2.9,2.9,0,0,1,0,.456c0,1.96,0,1.961,1.948,2.272.1.016.215-.025.3.012.242.1.454.173.527.533a5.188,5.188,0,0,0,.611,1.642,1.31,1.31,0,0,1-.074,1.642c-1.007,1.465-.974,1.488.293,2.754a11.141,11.141,0,0,1,.8.813c.175.215.325.163.5.056.441-.269.884-.534,1.314-.82a1.165,1.165,0,0,1,1.471-.064,4.191,4.191,0,0,0,1.626.666c.552.117.685.361.76.893.274,1.934.3,1.93,2.258,1.93a3.219,3.219,0,0,1,.684.008c.566.126.782-.2.828-.654a2.8,2.8,0,0,1,2.244-2.67,2.409,2.409,0,0,1,2.421.12c.348.249.682.772,1.1.643.389-.122.673-.589,1-.911,1.282-1.278,1.291-1.286.279-2.825-.314-.478-.528-.854-.085-1.423a4.2,4.2,0,0,0,.656-1.558.944.944,0,0,1,.885-.806c2.045-.41,2.039-.438,2.039-2.551a1.541,1.541,0,0,1,0-.3c.12-.589-.146-.844-.713-.936-1.193-.194-2.347-.456-2.494-1.992a1.372,1.372,0,0,0-.314-.66c-.507-.642-.3-1.177.139-1.758a11.141,11.141,0,0,0,.772-1.373M14.568,100.1q5.44,0,10.881,0a1.247,1.247,0,0,0,1.415-1.372c.022-.582,0-1.167,0-1.75,0-1.3-.452-1.75-1.762-1.75H6.769c-1.015,0-2.029-.015-3.043.007-.882.019-1.216.371-1.227,1.245-.01.761-.009,1.522,0,2.283.01,1.038.306,1.338,1.343,1.339q5.364.006,10.728,0m.008-12.187q5.4,0,10.8,0c1.023,0,1.463-.435,1.486-1.456.012-.558,0-1.116,0-1.674,0-1.3-.454-1.743-1.77-1.743H5.772c-.71,0-1.421-.02-2.13.011A1.033,1.033,0,0,0,2.5,84.226c-.013.786-.011,1.572,0,2.359.01,1.032.309,1.33,1.351,1.331q5.364.006,10.728,0m.011-12.187q5.4,0,10.8,0c1.014,0,1.455-.443,1.476-1.467.011-.532,0-1.065,0-1.6,0-1.367-.434-1.808-1.78-1.808H4.316c-.228,0-.458-.01-.685.007A1.068,1.068,0,0,0,2.5,72.049c-.012.786-.011,1.573,0,2.359.01,1.024.312,1.32,1.361,1.321q5.364.006,10.728,0m.088,4.875h8.063c1.7,0,1.665,0,1.71-1.668.017-.633-.148-.789-.783-.786-5.679.027-11.359.016-17.038.016-1.7,0-1.678,0-1.709,1.744-.01.568.134.714.706.708,3.017-.031,6.034-.015,9.052-.015M14.6,92.793h8.139c1.7,0,1.667,0,1.712-1.666.017-.631-.143-.791-.782-.788-5.679.028-11.359.016-17.038.016-1.706,0-1.681,0-1.71,1.742-.01.564.128.716.7.71,2.992-.032,5.984-.015,8.976-.015m7.4-56.675L14.07,44.044c2.473,0,5,0,7.519,0,.276,0,.41-.061.408-.375-.01-2.5-.005-5-.005-7.556" transform="translate(0 -26.981)"/>
        <path id="Trazado_771370" data-name="Trazado 771370" d="M20.324,494c.152-.2.3-.2.457,0Z" transform="translate(-17.22 -418.437)" fill="#020202"/>
        <path id="Trazado_771371" data-name="Trazado 771371" d="M96.829,89.363a11.375,11.375,0,0,0,.156-4.609,3.839,3.839,0,0,0-2.753-2.7,18.919,18.919,0,0,0-2.932-.139c-3.5,0-7.006-.011-10.508.009-.514,0-.735-.045-.732-.672q.043-10.318,0-20.637c0-.551.158-.654.675-.651,3.6.024,7.209-.005,10.813.029.622.006.73-.188.726-.755-.025-3.579,0-7.158-.024-10.737,0-.519.053-.731.675-.729q12.755.039,25.509,0c.552,0,.651.161.649.676q-.028,9.1,0,18.2a1.62,1.62,0,0,1-.539,1.254c-.711.688-1.4,1.4-2.108,2.09a.518.518,0,0,0-.109.772c.422.667.8,1.361,1.178,2.056a.911.911,0,0,1-.616,1.33c-.589.16-1.165.375-1.76.5-.738.156-.994.505-.956,1.3.083,1.722.031,3.451.021,5.177,0,.374-.012.609.508.672a16.866,16.866,0,0,1,2.134.555.9.9,0,0,1,.6,1.429c-.358.648-.712,1.3-1.1,1.928a.563.563,0,0,0,.133.833c.719.679,1.4,1.4,2.107,2.091a1.55,1.55,0,0,1,.507,1.19q-.019,10.356,0,20.713c0,.487-.11.63-.617.629q-10.356-.027-20.712,0c-.482,0-.618-.107-.638-.613a4.841,4.841,0,0,0-.857-2.854,2.371,2.371,0,0,0-1.075-.857.672.672,0,0,1-.491-.8,7.079,7.079,0,0,0,.006-.837c0-.865-.206-1.764.983-2.158.524-.174.769-.82,1.027-1.335l.118-.165a9.524,9.524,0,0,0,.016-4.846,2.881,2.881,0,0,0-1.715-2.089.579.579,0,0,1-.433-.679c.022-.3.007-.609,0-.914-.007-.867-.207-1.764.982-2.159.524-.174.77-.819,1.027-1.336l.118-.167M99.578,100.2c0,2.64.014,5.28-.012,7.919,0,.5.131.623.625.622q7.919-.027,15.838,0c.5,0,.623-.131.622-.625q-.028-7.919,0-15.839c0-.5-.131-.623-.625-.622q-7.919.028-15.838,0c-.5,0-.627.13-.622.625.025,2.639.012,5.279.012,7.919m6.093-49.969c-3.452,0-6.9.01-10.356-.012-.5,0-.629.124-.624.623q.037,4.264,0,8.528c0,.5.13.623.625.622q10.356-.025,20.711,0c.5,0,.629-.124.624-.622-.025-2.817-.03-5.635,0-8.452.007-.572-.137-.706-.7-.7-3.426.029-6.853.015-10.279.015M98.437,72.167H84.2c-1.684,0-1.65,0-1.7,1.674-.018.637.15.781.782.779q14.582-.034,29.164-.016c1.766,0,1.738,0,1.773-1.75.011-.572-.136-.7-.7-.7-5.026.025-10.051.014-15.077.014m0-4.875H84.2c-1.683,0-1.649,0-1.7,1.675-.019.639.153.78.783.778q14.582-.034,29.164-.016c1.765,0,1.737,0,1.772-1.751.011-.574-.139-.7-.705-.7-5.026.025-10.051.014-15.077.014m3.576-4.875H89.067c-1.679,0-1.644,0-1.694,1.679-.019.645.164.776.787.774q13.363-.034,26.727-.015c1.762,0,1.733,0,1.769-1.755.012-.582-.151-.7-.709-.7-4.645.024-9.29.014-13.934.014M92.189,79.479h8.07c1.765,0,1.737,0,1.772-1.751.011-.573-.138-.7-.7-.7-5.659.024-11.319.014-16.978.014-1.855,0-1.835,0-1.845,1.827,0,.5.131.626.626.622,3.02-.024,6.04-.012,9.06-.012m14.7,7.312H101.33c-1.762,0-1.733,0-1.769,1.754-.012.579.147.7.708.7,4.034-.026,8.069-.014,12.1-.014,1.852,0,1.832,0,1.842-1.83,0-.5-.14-.625-.629-.619-2.233.026-4.466.012-6.7.012m-1.161-7.312c1.164,0,1.164,0,1.164-1.2,0-1.24,0-1.24-1.274-1.24-1.164,0-1.164,0-1.164,1.2,0,1.24,0,1.24,1.274,1.24m3.6-1.279c0,1.279,0,1.279,1.234,1.279,1.2,0,1.2,0,1.2-1.234,0-1.2,0-1.2-1.234-1.2-1.2,0-1.2,0-1.2,1.158M84.954,63.638c0-1.221,0-1.221-1.216-1.221s-1.221,0-1.221,1.216,0,1.221,1.216,1.221,1.221,0,1.221-1.216" transform="translate(-67.835 -40.479)" fill="#e6e8ed"/>
        <path id="Trazado_771372" data-name="Trazado 771372" d="M341.19,172.277a11.16,11.16,0,0,1-.772,1.373c-.434.581-.646,1.116-.138,1.758a1.374,1.374,0,0,1,.314.66c.148,1.536,1.3,1.8,2.494,1.992.567.092.834.347.713.936a1.552,1.552,0,0,0,0,.3c0,2.113.006,2.141-2.039,2.551a.944.944,0,0,0-.885.806,4.2,4.2,0,0,1-.656,1.558c-.443.569-.229.945.085,1.423,1.012,1.538,1,1.547-.279,2.825-.323.322-.607.79-1,.911-.415.13-.75-.394-1.1-.643a2.408,2.408,0,0,0-2.421-.12,2.8,2.8,0,0,0-2.245,2.67c-.046.458-.262.781-.828.654a3.207,3.207,0,0,0-.683-.008c-1.953,0-1.984,0-2.258-1.93-.075-.532-.208-.776-.76-.893a4.188,4.188,0,0,1-1.626-.666,1.164,1.164,0,0,0-1.471.064c-.429.286-.873.551-1.314.82-.175.107-.326.159-.5-.056a11.1,11.1,0,0,0-.8-.813c-1.267-1.266-1.3-1.289-.293-2.754a1.31,1.31,0,0,0,.074-1.642,5.193,5.193,0,0,1-.612-1.642c-.073-.36-.285-.431-.527-.533-.086-.036-.2,0-.3-.012-1.948-.311-1.948-.311-1.948-2.272a2.9,2.9,0,0,0,0-.456c-.11-.681.08-1.116.857-1.122a1.835,1.835,0,0,0,.428-.108c.812-.215,1.641-.4,1.692-1.5a.722.722,0,0,1,.115-.415c1.071-1.193.339-2.207-.342-3.194-.3-.432-.318-.7.11-1.047a8.216,8.216,0,0,0,1.185-1.181.754.754,0,0,1,1.2-.154c.419.3.9.524,1.343.792a.613.613,0,0,0,.819-.014,1.244,1.244,0,0,1,.593-.275c1.7-.261,2.259-1.5,2.5-2.958.064-.4.2-.429.509-.423.736.013,1.473.021,2.208,0,.326-.011.485.057.551.413a10.088,10.088,0,0,1,.368,1.274c.036.825.671,1.03,1.211,1.35.145.086.356.071.487.169,1.132.844,2.15.464,3.116-.292a.862.862,0,0,1,1.4.134c.352.43.783.794,1.176,1.191.121.122.292.218.252.491M324.3,179.72a7.286,7.286,0,0,0,7.727,7.337,7.2,7.2,0,0,0,6.824-7.32c-.047-4.5-3.268-7.313-7.6-7.271a7.111,7.111,0,0,0-6.952,7.255" transform="translate(-270.615 -141.96)" fill="#f4a338"/>
        <path id="Trazado_771373" data-name="Trazado 771373" d="M28.387,451.779q-5.364,0-10.728,0c-1.037,0-1.334-.3-1.343-1.339-.007-.761-.008-1.522,0-2.283.011-.873.345-1.226,1.227-1.245,1.014-.022,2.029-.007,3.043-.007H38.926c1.31,0,1.76.449,1.762,1.751,0,.583.018,1.167,0,1.75a1.247,1.247,0,0,1-1.415,1.372q-5.44.008-10.881,0" transform="translate(-13.82 -378.656)" fill="#4adbd1"/>
        <path id="Trazado_771374" data-name="Trazado 771374" d="M28.4,371.963q-5.364,0-10.728,0c-1.042,0-1.341-.3-1.351-1.331-.007-.786-.009-1.573,0-2.359a1.034,1.034,0,0,1,1.142-1.172c.709-.031,1.42-.011,2.13-.011H38.918c1.315,0,1.768.447,1.77,1.743,0,.558.01,1.116,0,1.674-.023,1.022-.463,1.455-1.486,1.456q-5.4.006-10.8,0" transform="translate(-13.82 -311.027)" fill="#4adbd1"/>
        <path id="Trazado_771375" data-name="Trazado 771375" d="M28.407,292.176q-5.364,0-10.728,0c-1.049,0-1.351-.3-1.361-1.321-.008-.786-.009-1.573,0-2.359a1.068,1.068,0,0,1,1.132-1.186c.227-.017.456-.007.685-.007H38.909c1.346,0,1.779.441,1.78,1.808,0,.533.009,1.066,0,1.6-.021,1.024-.461,1.466-1.476,1.467q-5.4.006-10.8,0" transform="translate(-13.821 -243.427)" fill="#4adbd1"/>
        <path id="Trazado_771376" data-name="Trazado 771376" d="M41.951,337.548c-3.017,0-6.035-.017-9.052.015-.572.006-.716-.141-.706-.708.031-1.743,0-1.744,1.709-1.744,5.679,0,11.359.011,17.038-.016.635,0,.8.153.784.786-.046,1.667-.013,1.668-1.71,1.668Z" transform="translate(-27.277 -283.924)" fill="url(#linear-gradient)"/>
        <path id="Trazado_771377" data-name="Trazado 771377" d="M41.875,417.357c-2.992,0-5.984-.017-8.976.015-.576.006-.714-.146-.7-.71.03-1.742,0-1.742,1.71-1.742,5.679,0,11.359.012,17.038-.016.638,0,.8.157.782.788-.045,1.665-.013,1.666-1.712,1.666H41.875" transform="translate(-27.279 -351.546)" fill="url(#linear-gradient)"/>
        <path id="Trazado_771378" data-name="Trazado 771378" d="M100.063,59.827c0,2.559,0,5.058.005,7.556,0,.314-.132.376-.408.375-2.523-.007-5.047,0-7.519,0l7.922-7.927" transform="translate(-78.071 -50.691)" fill="#5573c6"/>
        <path id="Trazado_771379" data-name="Trazado 771379" d="M372.8,160.908c-.119-.012-.268.007-.26-.176s.173-.123.28-.148c.178.119.154.226-.019.324" transform="translate(-315.654 -136.062)" fill="#040404"/>
        <path id="Trazado_771380" data-name="Trazado 771380" d="M365.485,173.772l.305-.012c-.014.1-.026.211-.148.217s-.141-.108-.157-.2" transform="translate(-309.674 -147.226)" fill="#020202"/>
        <path id="Trazado_771381" data-name="Trazado 771381" d="M189.167,320.12l-.118.167c-.035-.108.035-.142.118-.167" transform="translate(-160.173 -271.236)" fill="#e3e5ea"/>
        <path id="Trazado_771382" data-name="Trazado 771382" d="M366.591,320.377c-.109.031-.143-.034-.159-.123l.159.123" transform="translate(-310.476 -271.35)" fill="#020202"/>
        <path id="Trazado_771383" data-name="Trazado 771383" d="M189.174,399.944l-.118.165c-.034-.107.035-.141.118-.165" transform="translate(-160.179 -338.871)" fill="#e3e5ea"/>
        <path id="Trazado_771384" data-name="Trazado 771384" d="M7.424,408.185c-.108.03-.144-.037-.166-.123l.166.123" transform="translate(-6.15 -345.749)" fill="#020202"/>
        <path id="Trazado_771385" data-name="Trazado 771385" d="M7.256,437.2c.022-.085.058-.153.166-.123l-.166.123" transform="translate(-6.148 -370.324)" fill="#020202"/>
        <path id="Trazado_771386" data-name="Trazado 771386" d="M88.7,3.2c.288.889.924,1.716.48,2.733.711,3.045.028,6.137.365,9.249.738-1.083,1.519-2.133,2.184-3.251.27-.454.474-.317.747-.151,1.693,1.031,1.692,1.035.6,2.661-1.505,2.242-3.023,4.475-4.508,6.73-.285.432-.468.5-.76.052-1.746-2.654-3.48-5.317-5.259-7.95-.276-.408-.234-.54.18-.675a1.466,1.466,0,0,0,.19-.111c.513-.26.981-.98,1.459-.8.452.166.7.9,1.03,1.385.485.724.961,1.455,1.441,2.184.3-.157.182-.387.183-.562.009-2.613.041-5.227-.008-7.84A4.208,4.208,0,0,0,85.51,3.168l-.167-.115a6.137,6.137,0,0,0-3.008-.626q-21.887.023-43.774,0A3.827,3.827,0,0,0,34.7,5.16a2.3,2.3,0,0,0-.056.588c-.01,1.954-.026,3.908,0,5.862.006.461-.1.592-.578.591-1.87,0-1.871.018-1.87-1.876,0-1.5.063-3-.013-4.491A6.074,6.074,0,0,1,37.235.122C37.959.064,38.681,0,39.405,0Q61.14,0,82.875,0a6.982,6.982,0,0,1,4.286,1.364c.031.082.066.159.179.13l1.209,1.4c.028.113-.026.265.149.306" transform="translate(-27.264 0.001)"/>
        <path id="Trazado_771387" data-name="Trazado 771387" d="M33.44,130.135c-1.145,0-1.145,0-1.145-1.14,0-1.3,0-1.3,1.292-1.3,1.145,0,1.145,0,1.145,1.14,0,1.3,0,1.3-1.292,1.3" transform="translate(-27.363 -108.198)"/>
        <path id="Trazado_771388" data-name="Trazado 771388" d="M34.733,97.034c0,1.179,0,1.179-1.183,1.179-1.255,0-1.255,0-1.255-1.259,0-1.178,0-1.178,1.183-1.178,1.254,0,1.254,0,1.254,1.259" transform="translate(-27.364 -81.15)"/>
        <path id="Trazado_771389" data-name="Trazado 771389" d="M401.477,19.291c-.175-.041-.121-.193-.149-.306.2.029.4.057.149.306" transform="translate(-340.043 -16.086)" fill="#fcfcfc"/>
        <path id="Trazado_771390" data-name="Trazado 771390" d="M380.337,20l.167.115c-.11.04-.141-.033-.167-.115" transform="translate(-322.258 -16.944)" fill="#040404"/>
        <path id="Trazado_771391" data-name="Trazado 771391" d="M392.419,9.1c-.113.029-.147-.048-.179-.13l.179.13" transform="translate(-332.343 -7.599)" fill="#fcfcfc"/>
        <path id="Trazado_771392" data-name="Trazado 771392" d="M207.8,343.667c0-2.64.013-5.28-.012-7.919,0-.495.123-.627.622-.625q7.919.029,15.838,0c.494,0,.627.122.625.622q-.028,7.919,0,15.839c0,.494-.122.627-.622.625q-7.919-.028-15.838,0c-.494,0-.63-.122-.625-.622.026-2.64.012-5.28.012-7.919m8.531-6.095c-1.826,0-3.652.018-5.478-.012-.5-.008-.63.129-.627.627q.032,5.478,0,10.956c0,.5.129.63.627.627q5.478-.032,10.956,0c.5,0,.63-.129.627-.627q-.032-5.478,0-10.956c0-.5-.128-.636-.627-.628-1.826.03-3.652.012-5.478.012" transform="translate(-176.058 -283.948)"/>
        <path id="Trazado_771393" data-name="Trazado 771393" d="M186.847,63.769c3.427,0,6.853.015,10.279-.015.567,0,.711.129.7.7-.033,2.817-.028,5.635,0,8.452,0,.5-.129.623-.624.622q-10.356-.025-20.711,0c-.495,0-.629-.123-.625-.622q.037-4.264,0-8.528c0-.5.129-.626.624-.623,3.452.022,6.9.012,10.356.012m.009,7.312c2.636,0,5.272-.013,7.908.012.5,0,.639-.14.626-.633-.034-1.241-.031-2.484,0-3.726.011-.45-.154-.537-.565-.536q-7.984.018-15.968,0c-.437,0-.557.126-.548.554.027,1.241.037,2.485,0,3.725-.017.523.17.618.644.614,2.636-.021,5.272-.01,7.908-.01" transform="translate(-149.012 -54.019)"/>
        <path id="Trazado_771394" data-name="Trazado 771394" d="M111.958,207.426c5.026,0,10.051.01,15.077-.014.568,0,.715.13.7.7-.034,1.75-.007,1.75-1.773,1.75q-14.582,0-29.164.016c-.632,0-.8-.142-.782-.779.048-1.673.014-1.674,1.7-1.674Z" transform="translate(-81.357 -175.739)"/>
        <path id="Trazado_771395" data-name="Trazado 771395" d="M111.957,175.5c5.026,0,10.051.01,15.077-.014.566,0,.717.126.705.7-.035,1.751-.007,1.751-1.772,1.751q-14.582,0-29.164.016c-.63,0-.8-.14-.783-.778.048-1.674.015-1.675,1.7-1.675Z" transform="translate(-81.357 -148.692)"/>
        <path id="Trazado_771396" data-name="Trazado 771396" d="M142.579,143.583c4.645,0,9.29.011,13.934-.014.558,0,.721.115.709.7-.036,1.754-.007,1.755-1.769,1.755q-13.363,0-26.727.015c-.623,0-.806-.129-.787-.774.05-1.677.015-1.679,1.694-1.679Z" transform="translate(-108.402 -121.645)"/>
        <path id="Trazado_771397" data-name="Trazado 771397" d="M105.74,241.788c-3.02,0-6.04-.012-9.06.012-.495,0-.629-.123-.626-.622.011-1.827-.01-1.827,1.845-1.827,5.659,0,11.319.009,16.978-.014.566,0,.716.128.7.7-.035,1.75-.007,1.751-1.772,1.751Z" transform="translate(-81.386 -202.789)"/>
        <path id="Trazado_771398" data-name="Trazado 771398" d="M215.087,303.212c2.233,0,4.466.015,6.7-.012.49-.006.632.115.629.619-.011,1.83.01,1.83-1.842,1.83-4.035,0-8.069-.012-12.1.014-.561,0-.72-.119-.708-.7.035-1.753.007-1.754,1.769-1.754Z" transform="translate(-176.034 -256.9)"/>
        <path id="Trazado_771399" data-name="Trazado 771399" d="M241.066,241.867c-1.274,0-1.274,0-1.274-1.24,0-1.2,0-1.2,1.164-1.2,1.274,0,1.274,0,1.274,1.24,0,1.2,0,1.2-1.163,1.2" transform="translate(-203.175 -202.868)"/>
        <path id="Trazado_771400" data-name="Trazado 771400" d="M271.715,240.588c0-1.158,0-1.158,1.2-1.158,1.234,0,1.234,0,1.234,1.2,0,1.234,0,1.234-1.2,1.234-1.234,0-1.234,0-1.234-1.279" transform="translate(-230.223 -202.868)"/>
        <path id="Trazado_771401" data-name="Trazado 771401" d="M98.578,144.881c0,1.216,0,1.216-1.221,1.216s-1.216,0-1.216-1.221,0-1.216,1.221-1.216,1.216,0,1.216,1.221" transform="translate(-81.46 -121.722)"/>
        <path id="Trazado_771402" data-name="Trazado 771402" d="M351.482,207.018a7.111,7.111,0,0,1,6.952-7.255c4.33-.042,7.552,2.773,7.6,7.271a7.2,7.2,0,0,1-6.824,7.32,7.286,7.286,0,0,1-7.727-7.337m2.434-.015a4.847,4.847,0,1,0,9.694.044,4.715,4.715,0,0,0-5.08-4.852A4.661,4.661,0,0,0,353.916,207" transform="translate(-297.798 -169.258)" fill="#010101"/>
        <path id="Trazado_771403" data-name="Trazado 771403" d="M229.86,351.094c1.826,0,3.652.018,5.478-.012.5-.008.63.131.627.628q-.032,5.478,0,10.956c0,.5-.131.629-.627.627q-5.478-.032-10.956,0c-.5,0-.629-.131-.627-.627q.032-5.478,0-10.956c0-.5.13-.635.627-.627,1.826.03,3.652.012,5.478.012" transform="translate(-189.586 -297.47)" fill="#d2e1f1"/>
        <path id="Trazado_771404" data-name="Trazado 771404" d="M200.37,84.635c-2.636,0-5.272-.011-7.908.01-.474,0-.661-.092-.644-.614.04-1.241.03-2.484,0-3.725-.009-.428.111-.556.548-.554q7.984.022,15.968,0c.411,0,.576.086.565.536-.03,1.241-.033,2.484,0,3.726.013.493-.123.638-.626.633-2.636-.025-5.272-.012-7.908-.012" transform="translate(-162.526 -67.573)" fill="#f0dcc0"/>
      </g>
    </g>
  </g>
</svg>
