<svg id="Grupo_1041719" data-name="Grupo 1041719" xmlns="http://www.w3.org/2000/svg" xmlns:xlink="http://www.w3.org/1999/xlink" width="480" height="450.46" viewBox="0 0 480 450.46">
  <defs>
    <clipPath id="clip-path">
      <rect id="Rectángulo_370019" data-name="Rectángulo 370019" width="480" height="450.46" fill="none"/>
    </clipPath>
    <clipPath id="clip-path-5">
      <rect id="Rectángulo_370005" data-name="Rectángulo 370005" width="64.978" height="25.773" fill="none"/>
    </clipPath>
    <clipPath id="clip-path-6">
      <rect id="Rectángulo_370006" data-name="Rectángulo 370006" width="25.514" height="26.296" fill="none"/>
    </clipPath>
    <clipPath id="clip-path-7">
      <rect id="Rectángulo_370007" data-name="Rectángulo 370007" width="25.251" height="9.749" fill="none"/>
    </clipPath>
    <clipPath id="clip-path-8">
      <rect id="Rectángulo_370008" data-name="Rectángulo 370008" width="65.96" height="26.163" fill="#5573c6"/>
    </clipPath>
    <clipPath id="clip-path-9">
      <rect id="Rectángulo_370009" data-name="Rectángulo 370009" width="25.899" height="26.694" fill="none"/>
    </clipPath>
    <clipPath id="clip-path-10">
      <rect id="Rectángulo_370010" data-name="Rectángulo 370010" width="25.631" height="9.897" fill="none"/>
    </clipPath>
    <clipPath id="clip-path-14">
      <rect id="Rectángulo_370016" data-name="Rectángulo 370016" width="82.399" height="108.4" fill="none"/>
    </clipPath>
    <clipPath id="clip-path-15">
      <rect id="Rectángulo_370017" data-name="Rectángulo 370017" width="14.411" height="63.354" fill="none"/>
    </clipPath>
  </defs>
  <g id="Grupo_1041755" data-name="Grupo 1041755" clip-path="url(#clip-path)">
    <g id="Grupo_1041720" data-name="Grupo 1041720">
      <g id="Grupo_1041719-2" data-name="Grupo 1041719" clip-path="url(#clip-path)">
        <path id="Trazado_790708" data-name="Trazado 790708" d="M449.847,136.486l3.94-2.388,5.3,5.485-2.525,3.853a18.722,18.722,0,0,1,1.82,4.625l4.476,1.1-.133,7.623-4.512.939a18.7,18.7,0,0,1-1.981,4.56l2.388,3.939-5.485,5.3-3.853-2.525a18.7,18.7,0,0,1-4.625,1.82l-1.1,4.476-7.623-.133-.94-4.512a18.712,18.712,0,0,1-4.559-1.982l-3.939,2.389-5.3-5.486,2.525-3.853a18.7,18.7,0,0,1-1.82-4.625l-4.476-1.1.133-7.623,4.512-.939a18.661,18.661,0,0,1,1.982-4.56l-2.388-3.939,5.485-5.3L431,136.155a18.675,18.675,0,0,1,4.626-1.82l1.1-4.476,7.623.133.939,4.513a18.634,18.634,0,0,1,4.559,1.98m-15.63,9.953a8.18,8.18,0,1,0,11.566.2,8.181,8.181,0,0,0-11.566-.2" transform="translate(14.271 4.44)" fill="#f5f5f5"/>
        <path id="Trazado_790709" data-name="Trazado 790709" d="M194.253,12.886l3.354-2.033,4.508,4.669-2.15,3.28a15.892,15.892,0,0,1,1.549,3.937l3.81.934-.114,6.49-3.841.8a15.841,15.841,0,0,1-1.686,3.88l2.032,3.353L197.047,42.7l-3.279-2.15A15.89,15.89,0,0,1,189.83,42.1l-.934,3.811-6.49-.114-.8-3.841a15.883,15.883,0,0,1-3.88-1.687l-3.354,2.033-4.507-4.669,2.149-3.279a15.906,15.906,0,0,1-1.549-3.937l-3.81-.935L166.771,23l3.84-.8a15.871,15.871,0,0,1,1.687-3.881l-2.033-3.353,4.669-4.508,3.279,2.15a15.891,15.891,0,0,1,3.937-1.549l.935-3.81,6.488.114.8,3.841a15.881,15.881,0,0,1,3.88,1.686m-13.3,8.472a6.963,6.963,0,1,0,9.844.173,6.961,6.961,0,0,0-9.844-.173" transform="translate(5.698 0.248)" fill="#f5f5f5"/>
        <path id="Trazado_790710" data-name="Trazado 790710" d="M406.973,17.269l5.447-3.3,7.322,7.585-3.491,5.327a25.816,25.816,0,0,1,2.516,6.4l6.189,1.517-.184,10.54-6.239,1.3a25.812,25.812,0,0,1-2.739,6.3l3.3,5.445L411.511,65.7l-5.327-3.492a25.817,25.817,0,0,1-6.4,2.516l-1.517,6.19-10.54-.185-1.3-6.239a25.771,25.771,0,0,1-6.3-2.739l-5.446,3.3-7.322-7.584,3.491-5.328a25.866,25.866,0,0,1-2.516-6.394l-6.189-1.518.185-10.539,6.238-1.3a25.832,25.832,0,0,1,2.74-6.3l-3.3-5.445,7.584-7.323,5.327,3.492a25.784,25.784,0,0,1,6.4-2.516l1.517-6.189,10.54.184,1.3,6.239a25.835,25.835,0,0,1,6.3,2.739M385.363,31.03a11.309,11.309,0,1,0,15.991.281,11.309,11.309,0,0,0-15.991-.281" transform="translate(12.381 0.277)" fill="#f5f5f5"/>
        <path id="Trazado_790711" data-name="Trazado 790711" d="M242.172,191.706l3.94-2.388,5.3,5.485-2.525,3.853a18.724,18.724,0,0,1,1.82,4.625l4.476,1.1L255.045,212l-4.512.939a18.7,18.7,0,0,1-1.982,4.56l2.388,3.939-5.485,5.3-3.853-2.525a18.7,18.7,0,0,1-4.625,1.82l-1.1,4.476-7.623-.133-.94-4.513a18.67,18.67,0,0,1-4.559-1.98l-3.939,2.389-5.3-5.486,2.525-3.853a18.7,18.7,0,0,1-1.82-4.625l-4.476-1.1.133-7.623,4.512-.939a18.662,18.662,0,0,1,1.981-4.56l-2.389-3.939,5.486-5.3,3.852,2.525a18.7,18.7,0,0,1,4.626-1.82l1.1-4.476,7.624.133.939,4.512a18.678,18.678,0,0,1,4.559,1.982m-15.63,9.953a8.18,8.18,0,1,0,11.566.2,8.181,8.181,0,0,0-11.566-.2" transform="translate(7.171 6.328)" fill="#f5f5f5"/>
        <path id="Trazado_790712" data-name="Trazado 790712" d="M221.407,323.642l3.94-2.388,5.3,5.485-2.525,3.853a18.724,18.724,0,0,1,1.82,4.625l4.476,1.1-.133,7.624-4.512.939a18.7,18.7,0,0,1-1.982,4.56l2.388,3.939-5.485,5.3-3.853-2.525a18.7,18.7,0,0,1-4.625,1.82l-1.1,4.476-7.623-.133-.939-4.513a18.658,18.658,0,0,1-4.56-1.98l-3.939,2.389-5.3-5.486,2.525-3.853a18.7,18.7,0,0,1-1.82-4.625l-4.476-1.1.134-7.623,4.511-.939a18.661,18.661,0,0,1,1.982-4.56l-2.388-3.939,5.485-5.3,3.853,2.525a18.676,18.676,0,0,1,4.626-1.82l1.1-4.476,7.623.133.94,4.512a18.686,18.686,0,0,1,4.558,1.982m-15.63,9.953a8.18,8.18,0,1,0,11.566.2,8.181,8.181,0,0,0-11.566-.2" transform="translate(6.461 10.838)" fill="#f5f5f5"/>
        <path id="Trazado_790713" data-name="Trazado 790713" d="M398.047,241.01l2.656-1.61,3.571,3.7-1.7,2.6a12.612,12.612,0,0,1,1.227,3.119l3.019.74-.09,5.14-3.043.634a12.588,12.588,0,0,1-1.336,3.074l1.61,2.657-3.7,3.571-2.6-1.7a12.625,12.625,0,0,1-3.119,1.228l-.739,3.018-5.141-.09-.633-3.043a12.593,12.593,0,0,1-3.075-1.336l-2.656,1.611-3.571-3.7,1.7-2.6A12.612,12.612,0,0,1,379.2,254.9l-3.018-.74.09-5.14,3.043-.634a12.626,12.626,0,0,1,1.335-3.075l-1.61-2.656,3.7-3.571,2.6,1.7a12.583,12.583,0,0,1,3.119-1.228l.739-3.018,5.141.09.634,3.043a12.606,12.606,0,0,1,3.074,1.336m-10.539,6.711a5.515,5.515,0,1,0,7.8.138,5.516,5.516,0,0,0-7.8-.138" transform="translate(12.861 8.087)" fill="#f5f5f5"/>
        <path id="Trazado_790714" data-name="Trazado 790714" d="M391.26,279.435,396.1,276.5l6.51,6.743-3.1,4.736a22.988,22.988,0,0,1,2.237,5.686l5.5,1.349-.164,9.371-5.546,1.154a22.944,22.944,0,0,1-2.434,5.6l2.935,4.842-6.743,6.51-4.736-3.1a22.986,22.986,0,0,1-5.686,2.237l-1.349,5.5-9.371-.164L373,321.417a22.959,22.959,0,0,1-5.6-2.434l-4.842,2.935-6.509-6.742,3.1-4.737a22.988,22.988,0,0,1-2.237-5.686l-5.5-1.349.164-9.371,5.546-1.154a22.982,22.982,0,0,1,2.435-5.605l-2.935-4.841,6.743-6.51,4.736,3.1a22.948,22.948,0,0,1,5.686-2.237l1.349-5.5,9.371.164L385.657,277a23.013,23.013,0,0,1,5.6,2.435m-19.212,12.233a10.054,10.054,0,1,0,14.216.25,10.055,10.055,0,0,0-14.216-.25" transform="translate(12.014 9.275)" fill="#f5f5f5"/>
        <rect id="Rectángulo_369997" data-name="Rectángulo 369997" width="142.239" height="239.669" transform="translate(0.822 22.326)" fill="#e0e0e0"/>
        <rect id="Rectángulo_369998" data-name="Rectángulo 369998" width="134.09" height="231.227" transform="translate(5.14 26.828)" fill="#f5f5f5"/>
        <rect id="Rectángulo_369999" data-name="Rectángulo 369999" width="53.468" height="82.968" transform="translate(18.717 39.181)" fill="#fff"/>
        <path id="Trazado_790715" data-name="Trazado 790715" d="M41.2,45.045a2,2,0,1,0,2-2,2,2,0,0,0-2,2" transform="translate(1.409 1.472)" fill="#e0e0e0"/>
        <rect id="Rectángulo_370000" data-name="Rectángulo 370000" width="53.468" height="82.968" transform="translate(72.601 145.239)" fill="#fff"/>
        <path id="Trazado_790716" data-name="Trazado 790716" d="M93.3,147.6a2,2,0,1,0,2-2,2,2,0,0,0-2,2" transform="translate(3.19 4.978)" fill="#e0e0e0"/>
        <rect id="Rectángulo_370001" data-name="Rectángulo 370001" width="45.665" height="64.789" transform="translate(81.129 39.181)" fill="#fff"/>
        <path id="Trazado_790717" data-name="Trazado 790717" d="M98.922,43.631a1.658,1.658,0,1,0,1.657-1.658,1.657,1.657,0,0,0-1.657,1.658" transform="translate(3.382 1.435)" fill="#e0e0e0"/>
        <rect id="Rectángulo_370002" data-name="Rectángulo 370002" width="27.229" height="49.145" transform="matrix(0.112, -0.994, 0.994, 0.112, 13.907, 173.439)" fill="#fff"/>
        <path id="Trazado_790718" data-name="Trazado 790718" d="M37.814,149.222a1.691,1.691,0,1,0,1.691-1.691,1.691,1.691,0,0,0-1.691,1.691" transform="translate(1.293 5.044)" fill="#e0e0e0"/>
        <path id="Trazado_790719" data-name="Trazado 790719" d="M77.1,158.75c0,.22,8.4.4,18.751.4s18.752-.178,18.752-.4-8.395-.4-18.752-.4-18.751.178-18.751.4" transform="translate(2.636 5.414)" fill="#e0e0e0"/>
        <path id="Trazado_790720" data-name="Trazado 790720" d="M77.1,164.49c0,.22,8.4.4,18.751.4s18.752-.178,18.752-.4-8.395-.4-18.752-.4-18.751.178-18.751.4" transform="translate(2.636 5.61)" fill="#e0e0e0"/>
        <path id="Trazado_790721" data-name="Trazado 790721" d="M77.1,170.23c0,.22,8.4.4,18.751.4s18.752-.178,18.752-.4-8.395-.4-18.752-.4-18.751.178-18.751.4" transform="translate(2.636 5.806)" fill="#e0e0e0"/>
        <path id="Trazado_790722" data-name="Trazado 790722" d="M77.1,175.97c0,.22,8.4.4,18.751.4s18.752-.178,18.752-.4-8.395-.4-18.752-.4-18.751.177-18.751.4" transform="translate(2.636 6.003)" fill="#e0e0e0"/>
        <path id="Trazado_790723" data-name="Trazado 790723" d="M77.1,181.709c0,.22,8.4.4,18.751.4s18.752-.178,18.752-.4-8.395-.4-18.752-.4-18.751.178-18.751.4" transform="translate(2.636 6.199)" fill="#e0e0e0"/>
        <path id="Trazado_790724" data-name="Trazado 790724" d="M77.1,187.449c0,.22,8.4.4,18.751.4s18.752-.178,18.752-.4-8.395-.4-18.752-.4-18.751.178-18.751.4" transform="translate(2.636 6.395)" fill="#e0e0e0"/>
        <path id="Trazado_790725" data-name="Trazado 790725" d="M77.1,193.189c0,.22,8.4.4,18.751.4s18.752-.178,18.752-.4-8.395-.4-18.752-.4-18.751.178-18.751.4" transform="translate(2.636 6.591)" fill="#e0e0e0"/>
        <path id="Trazado_790726" data-name="Trazado 790726" d="M20.824,152.59c-.031.218,8.258,1.568,18.511,3.015s18.594,2.443,18.625,2.226-8.257-1.568-18.513-3.015-18.592-2.444-18.623-2.226" transform="translate(0.712 5.216)" fill="#e0e0e0"/>
        <path id="Trazado_790727" data-name="Trazado 790727" d="M20.1,156.179c-.031.218,8.258,1.568,18.511,3.015s18.594,2.444,18.624,2.226-8.256-1.567-18.512-3.015-18.592-2.444-18.623-2.226" transform="translate(0.687 5.339)" fill="#e0e0e0"/>
        <path id="Trazado_790728" data-name="Trazado 790728" d="M19.444,159.495c-.031.218,8.258,1.568,18.511,3.015s18.594,2.444,18.625,2.226-8.257-1.567-18.513-3.015-18.592-2.444-18.623-2.226" transform="translate(0.665 5.452)" fill="#e0e0e0"/>
        <path id="Trazado_790729" data-name="Trazado 790729" d="M22.644,54.682c0,.22,9.486.4,21.183.4s21.185-.178,21.185-.4-9.483-.4-21.185-.4-21.183.178-21.183.4" transform="translate(0.774 1.856)" fill="#e0e0e0"/>
        <path id="Trazado_790730" data-name="Trazado 790730" d="M22.644,58.1c0,.22,9.486.4,21.183.4s21.185-.178,21.185-.4-9.483-.4-21.185-.4-21.183.178-21.183.4" transform="translate(0.774 1.973)" fill="#e0e0e0"/>
        <path id="Trazado_790731" data-name="Trazado 790731" d="M22.644,61.508c0,.22,9.486.4,21.183.4s21.185-.178,21.185-.4-9.483-.4-21.185-.4-21.183.178-21.183.4" transform="translate(0.774 2.089)" fill="#e0e0e0"/>
        <path id="Trazado_790732" data-name="Trazado 790732" d="M22.644,64.92c0,.22,9.486.4,21.183.4s21.185-.178,21.185-.4-9.483-.4-21.185-.4-21.183.178-21.183.4" transform="translate(0.774 2.206)" fill="#e0e0e0"/>
        <path id="Trazado_790733" data-name="Trazado 790733" d="M22.644,68.333c0,.22,9.486.4,21.183.4s21.185-.178,21.185-.4-9.483-.4-21.185-.4-21.183.178-21.183.4" transform="translate(0.774 2.323)" fill="#e0e0e0"/>
        <path id="Trazado_790734" data-name="Trazado 790734" d="M22.644,71.746c0,.22,9.486.4,21.183.4s21.185-.178,21.185-.4-9.483-.4-21.185-.4-21.183.178-21.183.4" transform="translate(0.774 2.439)" fill="#e0e0e0"/>
        <path id="Trazado_790735" data-name="Trazado 790735" d="M22.644,75.159c0,.22,9.486.4,21.183.4s21.185-.178,21.185-.4-9.483-.4-21.185-.4-21.183.178-21.183.4" transform="translate(0.774 2.556)" fill="#e0e0e0"/>
        <path id="Trazado_790736" data-name="Trazado 790736" d="M22.644,85.287c0,.22,9.486.4,21.183.4s21.185-.178,21.185-.4-9.483-.4-21.185-.4-21.183.179-21.183.4" transform="translate(0.774 2.902)" fill="#e0e0e0"/>
        <path id="Trazado_790737" data-name="Trazado 790737" d="M22.356,88.892c0,.22,9.485.4,21.183.4s21.185-.178,21.185-.4-9.484-.4-21.185-.4-21.183.178-21.183.4" transform="translate(0.764 3.025)" fill="#e0e0e0"/>
        <path id="Trazado_790738" data-name="Trazado 790738" d="M22.067,92.5c0,.22,9.486.4,21.183.4s21.185-.178,21.185-.4-9.483-.4-21.185-.4-21.183.179-21.183.4" transform="translate(0.754 3.149)" fill="#e0e0e0"/>
        <path id="Trazado_790739" data-name="Trazado 790739" d="M21.779,96.1c0,.22,9.486.4,21.183.4s21.185-.178,21.185-.4-9.484-.4-21.185-.4-21.183.178-21.183.4" transform="translate(0.745 3.272)" fill="#e0e0e0"/>
        <path id="Trazado_790740" data-name="Trazado 790740" d="M21.491,99.706c0,.22,9.486.4,21.183.4s21.185-.178,21.185-.4-9.484-.4-21.185-.4-21.183.178-21.183.4" transform="translate(0.735 3.395)" fill="#e0e0e0"/>
        <path id="Trazado_790741" data-name="Trazado 790741" d="M21.2,103.31c0,.22,9.486.4,21.183.4s21.185-.178,21.185-.4-9.484-.4-21.185-.4-21.183.179-21.183.4" transform="translate(0.725 3.518)" fill="#e0e0e0"/>
        <path id="Trazado_790742" data-name="Trazado 790742" d="M300.157,50.093h-30.65a3.835,3.835,0,0,1-3.835-3.835V3.834A3.835,3.835,0,0,1,269.507,0h19.439l15.046,15.509V46.258a3.835,3.835,0,0,1-3.835,3.835" transform="translate(9.083 0)" fill="#f5f5f5"/>
        <path id="Trazado_790743" data-name="Trazado 790743" d="M299.308,48.939H270.355a4.684,4.684,0,0,1-4.684-4.684V33.74h38.321V44.256a4.684,4.684,0,0,1-4.684,4.684" transform="translate(9.083 1.154)" fill="#e0e0e0"/>
        <path id="Trazado_790744" data-name="Trazado 790744" d="M278.8,43.437l.964-1.157a1.722,1.722,0,0,0,1.393.825c.7,0,1.061-.418,1.061-1.243V38.294h-2.636V36.9h4.361v4.864c0,1.853-.932,2.764-2.7,2.764a3.015,3.015,0,0,1-2.443-1.093" transform="translate(9.532 1.262)" fill="#fafafa"/>
        <path id="Trazado_790745" data-name="Trazado 790745" d="M284.778,43.811l.557-1.2a3.943,3.943,0,0,0,2,.557c.772,0,1.061-.2,1.061-.525,0-.943-3.482.022-3.482-2.282,0-1.092.986-1.864,2.667-1.864a4.737,4.737,0,0,1,2.218.5l-.557,1.189a3.309,3.309,0,0,0-1.661-.429c-.75,0-1.071.236-1.071.536,0,.986,3.482.032,3.482,2.3,0,1.071-1,1.833-2.721,1.833a4.947,4.947,0,0,1-2.5-.622" transform="translate(9.736 1.316)" fill="#fafafa"/>
        <path id="Trazado_790746" data-name="Trazado 790746" d="M273.522,26.442l1.2-1.409a3.617,3.617,0,0,0,3.025,1.719c1.636,0,2.485-.994,2.485-2.941V15.669h-5.241v-1.8h7.292v9.841c0,3.232-1.574,4.827-4.536,4.827a5.054,5.054,0,0,1-4.227-2.092" transform="translate(9.351 0.474)" fill="#fafafa"/>
        <path id="Trazado_790747" data-name="Trazado 790747" d="M284.461,27.1l.828-1.574a7.058,7.058,0,0,0,3.853,1.139c1.844,0,2.61-.558,2.61-1.491,0-2.464-6.939-.331-6.939-4.7,0-1.968,1.76-3.294,4.578-3.294a8,8,0,0,1,4,.994l-.85,1.575a5.732,5.732,0,0,0-3.17-.87c-1.74,0-2.59.641-2.59,1.512,0,2.59,6.961.477,6.961,4.744,0,1.989-1.823,3.253-4.744,3.253a7.924,7.924,0,0,1-4.537-1.284" transform="translate(9.725 0.587)" fill="#fafafa"/>
        <path id="Trazado_790748" data-name="Trazado 790748" d="M288.175,0V11.94a3.566,3.566,0,0,0,3.567,3.566l11.48,0Z" transform="translate(9.852)" fill="#ebebeb"/>
        <path id="Trazado_790749" data-name="Trazado 790749" d="M288.327,12.558a3.966,3.966,0,0,0,3.146,3.848,3.838,3.838,0,0,0,.378.085c1.5.268,11.367,2.023,11.367,1.8V15.079H291.737s-2.867-.1-3.41-2.521" transform="translate(9.857 0.429)" fill="#e0e0e0"/>
      </g>
    </g>
    <path id="Trazado_790750" data-name="Trazado 790750" d="M474.556,422.226l-54.588-36.862L155.478,384.1,143.37,422.779Z" transform="translate(4.902 13.132)" fill="#12263f"/>
    <path id="Trazado_790751" data-name="Trazado 790751" d="M143.9,421.3l.146,14.789,331.04-.241V420.268Z" transform="translate(4.92 14.368)" fill="#12263f"/>
    <g id="Grupo_1041722" data-name="Grupo 1041722">
      <g id="Grupo_1041721" data-name="Grupo 1041721" clip-path="url(#clip-path)">
        <path id="Trazado_790752" data-name="Trazado 790752" d="M151.888,421.195c0,.149,71.484.235,159.644.193,88.19-.042,159.659-.2,159.659-.345s-71.47-.235-159.659-.193c-88.159.042-159.644.2-159.644.345" transform="translate(5.193 14.388)" fill="#263238"/>
      </g>
    </g>
    <g id="Grupo_1041742" data-name="Grupo 1041742">
      <g id="Grupo_1041741" data-name="Grupo 1041741" clip-path="url(#clip-path)">
        <path id="Trazado_790753" data-name="Trazado 790753" d="M248.515,96.446H196.543a6.5,6.5,0,0,1-6.5-6.5V18.007a6.5,6.5,0,0,1,6.5-6.5H229.5l25.514,26.3V89.943a6.5,6.5,0,0,1-6.5,6.5" transform="translate(6.497 0.393)" fill="#f4a338"/>
        <g id="Grupo_1041725" data-name="Grupo 1041725" transform="translate(196.537 71.066)" opacity="0.2">
          <g id="Grupo_1041724" data-name="Grupo 1041724">
            <g id="Grupo_1041723" data-name="Grupo 1041723" clip-path="url(#clip-path-5)">
              <path id="Trazado_790754" data-name="Trazado 790754" d="M248.318,94.49H196.739a6.7,6.7,0,0,1-6.7-6.7V70a1.282,1.282,0,0,1,1.281-1.281h62.415A1.282,1.282,0,0,1,255.018,70V87.79a6.7,6.7,0,0,1-6.7,6.7" transform="translate(-190.04 -68.717)"/>
            </g>
          </g>
        </g>
        <g id="Grupo_1041728" data-name="Grupo 1041728" transform="translate(236.001 11.898)" opacity="0.2">
          <g id="Grupo_1041727" data-name="Grupo 1041727">
            <g id="Grupo_1041726" data-name="Grupo 1041726" clip-path="url(#clip-path-6)">
              <path id="Trazado_790755" data-name="Trazado 790755" d="M228.2,11.505V31.75a6.049,6.049,0,0,0,6.047,6.049l19.468,0Z" transform="translate(-228.199 -11.505)" fill="#fff"/>
            </g>
          </g>
        </g>
        <g id="Grupo_1041731" data-name="Grupo 1041731" transform="translate(236.265 33.92)" opacity="0.2">
          <g id="Grupo_1041730" data-name="Grupo 1041730">
            <g id="Grupo_1041729" data-name="Grupo 1041729" clip-path="url(#clip-path-7)">
              <path id="Trazado_790756" data-name="Trazado 790756" d="M228.456,32.8s-.256,4.91,5.334,6.525a6.42,6.42,0,0,0,.639.145c2.542.454,19.275,3.43,19.275,3.046v-5.44H234.238s-4.861-.167-5.782-4.275" transform="translate(-228.454 -32.799)"/>
            </g>
          </g>
        </g>
        <path id="Trazado_790757" data-name="Trazado 790757" d="M208.026,79.749a5.564,5.564,0,0,1,9.644-3.436l-1.5,1.386a3.252,3.252,0,0,0-2.541-1.185,3.234,3.234,0,0,0,0,6.469,3.221,3.221,0,0,0,2.541-1.2l1.5,1.387a5.555,5.555,0,0,1-9.644-3.421" transform="translate(7.112 2.548)" fill="#fafafa"/>
        <path id="Trazado_790758" data-name="Trazado 790758" d="M218.015,83.806l.794-1.761a5.947,5.947,0,0,0,3.335,1.053c1.386,0,1.948-.462,1.948-1.082,0-1.892-5.875-.593-5.875-4.347,0-1.717,1.386-3.147,4.259-3.147a6.772,6.772,0,0,1,3.508.9l-.722,1.776a5.688,5.688,0,0,0-2.8-.794c-1.386,0-1.919.52-1.919,1.154,0,1.864,5.874.579,5.874,4.289,0,1.689-1.4,3.133-4.287,3.133a7.216,7.216,0,0,1-4.115-1.169" transform="translate(7.454 2.548)" fill="#fafafa"/>
        <path id="Trazado_790759" data-name="Trazado 790759" d="M226.918,83.806l.793-1.761a5.95,5.95,0,0,0,3.336,1.053c1.386,0,1.948-.462,1.948-1.082,0-1.892-5.876-.593-5.876-4.347,0-1.717,1.386-3.147,4.259-3.147a6.776,6.776,0,0,1,3.509.9l-.723,1.776a5.688,5.688,0,0,0-2.8-.794c-1.386,0-1.919.52-1.919,1.154,0,1.864,5.876.579,5.876,4.289,0,1.689-1.4,3.133-4.288,3.133a7.213,7.213,0,0,1-4.115-1.169" transform="translate(7.758 2.548)" fill="#fafafa"/>
        <path id="Trazado_790760" data-name="Trazado 790760" d="M211.344,48.31c1.068.325,1.555,1,1.555,2.6v3.715a1.528,1.528,0,0,0,1.7,1.718h.418v2.832h-1.347c-2.9,0-4.388-1.485-4.388-4.155v-4.2a.951.951,0,0,0-1.021-1.092h-.766V46.894h.766a.951.951,0,0,0,1.021-1.092V41.6c0-2.669,1.486-4.155,4.388-4.155h1.347v2.833h-.418A1.527,1.527,0,0,0,212.9,42V45.71c0,1.6-.487,2.275-1.555,2.6" transform="translate(7.094 1.28)" fill="#fafafa"/>
        <path id="Trazado_790761" data-name="Trazado 790761" d="M235.668,46.894v2.832H234.9a.951.951,0,0,0-1.021,1.092v4.2c0,2.67-1.486,4.155-4.388,4.155h-1.347V56.343h.417a1.529,1.529,0,0,0,1.7-1.718V50.91c0-1.6.487-2.275,1.555-2.6-1.068-.325-1.555-1-1.555-2.6V42a1.528,1.528,0,0,0-1.7-1.718h-.417V37.445h1.347c2.9,0,4.388,1.486,4.388,4.155v4.2a.951.951,0,0,0,1.021,1.092Z" transform="translate(7.8 1.28)" fill="#fafafa"/>
        <path id="Trazado_790762" data-name="Trazado 790762" d="M179.56,143.92H126.8a6.6,6.6,0,0,1-6.6-6.6V64.3a6.6,6.6,0,0,1,6.6-6.6h33.458l25.9,26.694v52.93a6.6,6.6,0,0,1-6.6,6.6" transform="translate(4.11 1.973)" fill="#373f51"/>
        <g id="Grupo_1041734" data-name="Grupo 1041734" transform="translate(124.311 119.73)" opacity="0.2">
          <g id="Grupo_1041733" data-name="Grupo 1041733">
            <g id="Grupo_1041732" data-name="Grupo 1041732" clip-path="url(#clip-path-8)">
              <path id="Trazado_790763" data-name="Trazado 790763" d="M179.029,141.935H127.334A7.133,7.133,0,0,1,120.2,134.8V115.773h65.961V134.8a7.133,7.133,0,0,1-7.133,7.133" transform="translate(-120.201 -115.772)" fill="#5573c6"/>
            </g>
          </g>
        </g>
        <g id="Grupo_1041737" data-name="Grupo 1041737" transform="translate(164.371 59.668)" opacity="0.2">
          <g id="Grupo_1041736" data-name="Grupo 1041736">
            <g id="Grupo_1041735" data-name="Grupo 1041735" clip-path="url(#clip-path-9)">
              <path id="Trazado_790764" data-name="Trazado 790764" d="M158.937,57.695V78.246a6.139,6.139,0,0,0,6.139,6.14l19.761,0Z" transform="translate(-158.937 -57.695)" fill="#fff"/>
            </g>
          </g>
        </g>
        <g id="Grupo_1041740" data-name="Grupo 1041740" transform="translate(164.639 82.023)" opacity="0.2">
          <g id="Grupo_1041739" data-name="Grupo 1041739">
            <g id="Grupo_1041738" data-name="Grupo 1041738" clip-path="url(#clip-path-10)">
              <path id="Trazado_790765" data-name="Trazado 790765" d="M159.2,79.311s-.26,4.985,5.415,6.623a6.276,6.276,0,0,0,.649.147c2.58.461,19.566,3.482,19.566,3.092V83.65H165.067s-4.934-.169-5.869-4.339" transform="translate(-159.196 -79.311)"/>
            </g>
          </g>
        </g>
        <path id="Trazado_790766" data-name="Trazado 790766" d="M146.768,94.98l-7.918,2.9,7.918,2.877v2.972l-11.318-4.3V96.335l11.318-4.3Z" transform="translate(4.631 3.146)" fill="#fafafa"/>
        <path id="Trazado_790767" data-name="Trazado 790767" d="M154.881,86.375h3.305l-7.847,22.4h-3.305Z" transform="translate(5.027 2.953)" fill="#fafafa"/>
        <path id="Trazado_790768" data-name="Trazado 790768" d="M169.547,96.335v3.091l-11.318,4.3v-2.972l7.918-2.877-7.918-2.9V92.031Z" transform="translate(5.41 3.146)" fill="#fafafa"/>
        <path id="Trazado_790769" data-name="Trazado 790769" d="M144.059,125.186v8.865h-2.051v-3.635H137.98v3.635h-2.051v-8.865h2.051v3.5h4.028v-3.5Z" transform="translate(4.647 4.28)" fill="#fafafa"/>
        <path id="Trazado_790770" data-name="Trazado 790770" d="M147.69,126.858h-2.837v-1.671h7.725v1.671h-2.837v7.194H147.69Z" transform="translate(4.952 4.28)" fill="#fafafa"/>
        <path id="Trazado_790771" data-name="Trazado 790771" d="M161.455,134.051l-.012-5.319-2.609,4.382h-.925l-2.6-4.268v5.205h-1.925v-8.865h1.7L158.4,130.7l3.267-5.509h1.685l.025,8.865Z" transform="translate(5.244 4.28)" fill="#fafafa"/>
        <path id="Trazado_790772" data-name="Trazado 790772" d="M165.08,125.186h2.051v7.194h4.446v1.671h-6.5Z" transform="translate(5.644 4.28)" fill="#fafafa"/>
      </g>
    </g>
    <g id="Grupo_1041744" data-name="Grupo 1041744">
      <g id="Grupo_1041743" data-name="Grupo 1041743" clip-path="url(#clip-path)">
        <path id="Trazado_790773" data-name="Trazado 790773" d="M340.877,248.465h95.788a3.162,3.162,0,0,0,3.163-3.163V87.037a3.162,3.162,0,0,0-3.163-3.163H340.877a3.162,3.162,0,0,0-3.163,3.163V245.3a3.162,3.162,0,0,0,3.163,3.163" transform="translate(11.546 2.868)" fill="#fff"/>
        <path id="Trazado_790774" data-name="Trazado 790774" d="M337.714,102.264H439.827V87.6a3.731,3.731,0,0,0-3.73-3.731H341.3a3.591,3.591,0,0,0-3.591,3.591Z" transform="translate(11.546 2.867)" fill="#e0e0e0"/>
        <path id="Trazado_790775" data-name="Trazado 790775" d="M341.148,248.474a3.954,3.954,0,0,1-1.317-.293,3.488,3.488,0,0,1-1.307-1,3.416,3.416,0,0,1-.747-2.116c.012-3.523.029-8.7.05-15.369.021-13.358.05-32.668.086-56.528.017-23.868.036-52.284.058-83.836V87.854a4.787,4.787,0,0,1,.121-1.406,3.178,3.178,0,0,1,1.749-2.031,3.143,3.143,0,0,1,1.352-.282h4.525l12.254,0,25.276.007,53.15.005a3.154,3.154,0,0,1,3.155,2.9c.027.522.007,1.12.013,1.675v6.767q0,6.745,0,13.4,0,13.3,0,26.193c.005,17.172.01,33.736.016,49.516s.018,30.772.025,44.806q0,5.262.008,10.341,0,2.539,0,5.03a3.258,3.258,0,0,1-2.543,3.419,17.5,17.5,0,0,1-2.383.073l-2.4,0-4.736,0-9.16.009-56.525.086-15.367.051-4,.026c-.9.009-1.362.028-1.362.028s.461.019,1.362.028l4,.026,15.367.051,56.525.086,9.16.009,4.736,0,2.4,0a17.557,17.557,0,0,0,2.469-.078,3.648,3.648,0,0,0,2.148-1.372,3.735,3.735,0,0,0,.733-2.454q0-2.491,0-5.03,0-5.077.007-10.341c.008-14.034.017-29.028.025-44.806s.01-32.344.016-49.516q0-12.88,0-26.193,0-6.652,0-13.4,0-3.372,0-6.767c-.007-.575.015-1.11-.016-1.72a3.694,3.694,0,0,0-3.692-3.392l-53.15.006-25.276.006-12.254,0h-4.525a3.682,3.682,0,0,0-3.58,2.682,5.3,5.3,0,0,0-.14,1.541v1.481c.022,31.552.041,59.968.058,83.836.036,23.86.065,43.17.086,56.528.022,6.666.039,11.846.052,15.369a3.492,3.492,0,0,0,.79,2.168,3.527,3.527,0,0,0,1.351,1,3.569,3.569,0,0,0,.993.238c.23.006.344,0,.344,0" transform="translate(11.538 2.859)" fill="#263238"/>
        <path id="Trazado_790776" data-name="Trazado 790776" d="M421.9,94.251a3.013,3.013,0,1,0,3.013-3.013,3.012,3.012,0,0,0-3.013,3.013" transform="translate(14.424 3.119)" fill="#fff"/>
        <path id="Trazado_790777" data-name="Trazado 790777" d="M412.935,94.251a3.013,3.013,0,1,0,3.013-3.013,3.012,3.012,0,0,0-3.013,3.013" transform="translate(14.118 3.119)" fill="#fff"/>
        <path id="Trazado_790778" data-name="Trazado 790778" d="M403.973,94.251a3.013,3.013,0,1,0,3.013-3.013,3.012,3.012,0,0,0-3.013,3.013" transform="translate(13.811 3.119)" fill="#fff"/>
        <path id="Trazado_790779" data-name="Trazado 790779" d="M393.554,125.9h18.8a2.04,2.04,0,1,0,0-4.081h-18.8a2.04,2.04,0,0,0,0,4.081" transform="translate(13.385 4.165)" fill="#263238"/>
        <path id="Trazado_790780" data-name="Trazado 790780" d="M393.554,136.231h18.8a2.04,2.04,0,1,0,0-4.081h-18.8a2.04,2.04,0,0,0,0,4.081" transform="translate(13.385 4.518)" fill="#e0e0e0"/>
        <path id="Trazado_790781" data-name="Trazado 790781" d="M393.034,164.518h18.8a2.04,2.04,0,0,0,0-4.081h-18.8a2.04,2.04,0,1,0,0,4.081" transform="translate(13.368 5.485)" fill="#e0e0e0"/>
        <path id="Trazado_790782" data-name="Trazado 790782" d="M393.554,146.9h18.8a2.04,2.04,0,1,0,0-4.081h-18.8a2.04,2.04,0,0,0,0,4.081" transform="translate(13.385 4.883)" fill="#f4a338"/>
        <path id="Trazado_790783" data-name="Trazado 790783" d="M393.554,206.415h18.8a2.04,2.04,0,1,0,0-4.081h-18.8a2.04,2.04,0,0,0,0,4.081" transform="translate(13.385 6.918)" fill="#f4a338"/>
        <path id="Trazado_790784" data-name="Trazado 790784" d="M364.423,125.9h18.8a2.04,2.04,0,0,0,0-4.081h-18.8a2.04,2.04,0,1,0,0,4.081" transform="translate(12.389 4.165)" fill="#455a64"/>
        <path id="Trazado_790785" data-name="Trazado 790785" d="M344.729,136.231h39.343a2.049,2.049,0,0,0,0-4.081H344.729a2.049,2.049,0,0,0,0,4.081" transform="translate(11.722 4.518)" fill="#263238"/>
        <path id="Trazado_790786" data-name="Trazado 790786" d="M345.753,146.9h39.615a2.044,2.044,0,0,0,0-4.081H345.753a2.044,2.044,0,0,0,0,4.081" transform="translate(11.755 4.883)" fill="#e0e0e0"/>
        <path id="Trazado_790787" data-name="Trazado 790787" d="M373.424,155.533h39.615a2.044,2.044,0,0,0,0-4.081H373.424a2.044,2.044,0,0,0,0,4.081" transform="translate(12.701 5.178)" fill="#e0e0e0"/>
        <path id="Trazado_790788" data-name="Trazado 790788" d="M420.584,123.865a2.073,2.073,0,1,0,2.073-2.073,2.072,2.072,0,0,0-2.073,2.073" transform="translate(14.379 4.164)" fill="#455a64"/>
        <path id="Trazado_790789" data-name="Trazado 790789" d="M420.584,113.983a2.073,2.073,0,1,0,2.073-2.073,2.072,2.072,0,0,0-2.073,2.073" transform="translate(14.379 3.826)" fill="#455a64"/>
        <path id="Trazado_790790" data-name="Trazado 790790" d="M420.584,134.161a2.073,2.073,0,1,0,2.073-2.073,2.072,2.072,0,0,0-2.073,2.073" transform="translate(14.379 4.516)" fill="#455a64"/>
        <path id="Trazado_790791" data-name="Trazado 790791" d="M420.584,144.863a2.073,2.073,0,1,0,2.073-2.073,2.072,2.072,0,0,0-2.073,2.073" transform="translate(14.379 4.882)" fill="#455a64"/>
        <path id="Trazado_790792" data-name="Trazado 790792" d="M393.034,193.4h18.8a2.04,2.04,0,0,0,0-4.081h-18.8a2.04,2.04,0,1,0,0,4.081" transform="translate(13.368 6.473)" fill="#e0e0e0"/>
        <path id="Trazado_790793" data-name="Trazado 790793" d="M393.554,175.784h18.8a2.04,2.04,0,1,0,0-4.081h-18.8a2.04,2.04,0,0,0,0,4.081" transform="translate(13.385 5.87)" fill="#f4a338"/>
        <path id="Trazado_790794" data-name="Trazado 790794" d="M345.753,175.784h39.615a2.044,2.044,0,0,0,0-4.081H345.753a2.044,2.044,0,0,0,0,4.081" transform="translate(11.755 5.87)" fill="#e0e0e0"/>
        <path id="Trazado_790795" data-name="Trazado 790795" d="M373.424,184.414h39.615a2.044,2.044,0,0,0,0-4.081H373.424a2.044,2.044,0,0,0,0,4.081" transform="translate(12.701 6.165)" fill="#e0e0e0"/>
        <path id="Trazado_790796" data-name="Trazado 790796" d="M420.584,173.746a2.073,2.073,0,1,0,2.073-2.073,2.072,2.072,0,0,0-2.073,2.073" transform="translate(14.379 5.869)" fill="#455a64"/>
        <path id="Trazado_790797" data-name="Trazado 790797" d="M401.227,116.427H413a.991.991,0,0,0,.991-.991v-1.955a.991.991,0,0,0-.991-.991H401.227a.991.991,0,0,0-.991.991v1.955a.991.991,0,0,0,.991.991" transform="translate(13.684 3.846)" fill="#455a64"/>
        <path id="Trazado_790798" data-name="Trazado 790798" d="M393.554,216.931h18.8a2.04,2.04,0,1,0,0-4.081h-18.8a2.04,2.04,0,0,0,0,4.081" transform="translate(13.385 7.277)" fill="#263238"/>
        <path id="Trazado_790799" data-name="Trazado 790799" d="M364.423,216.931h18.8a2.04,2.04,0,0,0,0-4.081h-18.8a2.04,2.04,0,1,0,0,4.081" transform="translate(12.389 7.277)" fill="#455a64"/>
        <path id="Trazado_790800" data-name="Trazado 790800" d="M420.584,214.892a2.073,2.073,0,1,0,2.073-2.073,2.072,2.072,0,0,0-2.073,2.073" transform="translate(14.379 7.276)" fill="#455a64"/>
        <path id="Trazado_790801" data-name="Trazado 790801" d="M420.584,224.395a2.073,2.073,0,1,0,2.073-2.073,2.072,2.072,0,0,0-2.073,2.073" transform="translate(14.379 7.601)" fill="#455a64"/>
        <path id="Trazado_790802" data-name="Trazado 790802" d="M401.227,226.839H413a.991.991,0,0,0,.991-.991v-1.955A.991.991,0,0,0,413,222.9H401.227a.991.991,0,0,0-.991.992v1.954a.991.991,0,0,0,.991.991" transform="translate(13.684 7.621)" fill="#455a64"/>
        <rect id="Rectángulo_370012" data-name="Rectángulo 370012" width="186.516" height="118.644" transform="translate(155.926 225.927)" fill="#fff"/>
        <rect id="Rectángulo_370013" data-name="Rectángulo 370013" width="33.593" height="118.644" transform="translate(308.849 225.927)" fill="#ebebeb"/>
        <path id="Trazado_790803" data-name="Trazado 790803" d="M316.976,230.866l.484-.293.649.673-.31.473a2.3,2.3,0,0,1,.223.568l.549.134-.017.935-.553.116a2.3,2.3,0,0,1-.243.558l.293.484-.672.649-.474-.31a2.231,2.231,0,0,1-.567.223l-.134.549-.936-.017-.115-.553a2.251,2.251,0,0,1-.56-.243l-.483.293-.651-.672.31-.473a2.331,2.331,0,0,1-.223-.568l-.549-.134.017-.936.553-.115a2.289,2.289,0,0,1,.243-.559l-.293-.483.673-.651.473.31a2.309,2.309,0,0,1,.567-.223l.135-.549.935.017.115.553a2.327,2.327,0,0,1,.56.243m-1.917,1.221a1,1,0,1,0,1.419.025,1,1,0,0,0-1.419-.025" transform="translate(10.701 7.865)" fill="#e0e0e0"/>
        <path id="Trazado_790804" data-name="Trazado 790804" d="M309.391,256.283h14.643a1.5,1.5,0,1,0,0-3.009H309.391a1.5,1.5,0,1,0,0,3.009" transform="translate(10.526 8.659)" fill="#e0e0e0"/>
        <path id="Trazado_790805" data-name="Trazado 790805" d="M309.391,248.869h14.643a1.5,1.5,0,1,0,0-3.009H309.391a1.5,1.5,0,1,0,0,3.009" transform="translate(10.526 8.406)" fill="#e0e0e0"/>
        <path id="Trazado_790806" data-name="Trazado 790806" d="M309.391,242.088h14.643a1.5,1.5,0,1,0,0-3.009H309.391a1.5,1.5,0,1,0,0,3.009" transform="translate(10.526 8.174)" fill="#e0e0e0"/>
        <path id="Trazado_790807" data-name="Trazado 790807" d="M271.347,235.506h13.871a1.5,1.5,0,0,0,0-3.009H271.347a1.5,1.5,0,0,0,0,3.009" transform="translate(9.226 7.949)" fill="#263238"/>
        <path id="Trazado_790808" data-name="Trazado 790808" d="M271.347,243.123h13.871a1.5,1.5,0,0,0,0-3.009H271.347a1.5,1.5,0,0,0,0,3.009" transform="translate(9.226 8.209)" fill="#e0e0e0"/>
        <path id="Trazado_790809" data-name="Trazado 790809" d="M271.347,251h13.871a1.5,1.5,0,0,0,0-3.009H271.347a1.5,1.5,0,0,0,0,3.009" transform="translate(9.226 8.478)" fill="#4adbd1"/>
        <path id="Trazado_790810" data-name="Trazado 790810" d="M277.068,266.214h7.954a1.5,1.5,0,0,0,0-3.009h-7.954a1.5,1.5,0,1,0,0,3.009" transform="translate(9.421 8.999)" fill="#263238"/>
        <path id="Trazado_790811" data-name="Trazado 790811" d="M277.068,274.1h7.954a1.5,1.5,0,0,0,0-3.009h-7.954a1.5,1.5,0,1,0,0,3.009" transform="translate(9.421 9.268)" fill="#263238"/>
        <path id="Trazado_790812" data-name="Trazado 790812" d="M254.212,274.1H268.8a1.5,1.5,0,0,0,0-3.009H254.212a1.5,1.5,0,0,0,0,3.009" transform="translate(8.64 9.268)" fill="#e0e0e0"/>
        <path id="Trazado_790813" data-name="Trazado 790813" d="M262.188,281.118h14.584a1.5,1.5,0,0,0,0-3.009H262.188a1.5,1.5,0,0,0,0,3.009" transform="translate(8.912 9.508)" fill="#4adbd1"/>
        <path id="Trazado_790814" data-name="Trazado 790814" d="M259.048,289.119h10.017a1.028,1.028,0,0,0,1.027-1.027v-.956a1.028,1.028,0,0,0-1.027-1.027H259.048a1.028,1.028,0,0,0-1.028,1.027v.955a1.028,1.028,0,0,0,1.028,1.028" transform="translate(8.821 9.782)" fill="#4adbd1"/>
        <path id="Trazado_790815" data-name="Trazado 790815" d="M259.526,304.8h9.063a1.5,1.5,0,0,0,0-3.009h-9.063a1.5,1.5,0,1,0,0,3.009" transform="translate(8.821 10.318)" fill="#4adbd1"/>
        <path id="Trazado_790816" data-name="Trazado 790816" d="M259.526,321.365h9.063a1.5,1.5,0,0,0,0-3.009h-9.063a1.5,1.5,0,1,0,0,3.009" transform="translate(8.821 10.884)" fill="#4adbd1"/>
        <path id="Trazado_790817" data-name="Trazado 790817" d="M237.985,321.365h15.887a1.5,1.5,0,1,0,0-3.009H237.985a1.5,1.5,0,1,0,0,3.009" transform="translate(8.085 10.884)" fill="#455a64"/>
        <path id="Trazado_790818" data-name="Trazado 790818" d="M227.232,321.365h2.289a1.5,1.5,0,1,0,0-3.009h-2.289a1.5,1.5,0,1,0,0,3.009" transform="translate(7.717 10.884)" fill="#e0e0e0"/>
        <path id="Trazado_790819" data-name="Trazado 790819" d="M238.9,304.8h13.426a1.5,1.5,0,1,0,0-3.009H238.9a1.5,1.5,0,1,0,0,3.009" transform="translate(8.116 10.318)" fill="#e0e0e0"/>
        <path id="Trazado_790820" data-name="Trazado 790820" d="M210.438,312.074H253.3a1.505,1.505,0,0,0,0-3.011H210.438a1.505,1.505,0,0,0,0,3.011" transform="translate(7.143 10.566)" fill="#e0e0e0"/>
        <path id="Trazado_790821" data-name="Trazado 790821" d="M205.649,304.8h27.369a1.5,1.5,0,1,0,0-3.009H205.649a1.5,1.5,0,1,0,0,3.009" transform="translate(6.979 10.318)" fill="#455a64"/>
        <path id="Trazado_790822" data-name="Trazado 790822" d="M241.362,289.119h12.293a1.028,1.028,0,0,0,1.028-1.027v-.956a1.028,1.028,0,0,0-1.028-1.027H241.362a1.027,1.027,0,0,0-1.027,1.027v.956a1.027,1.027,0,0,0,1.027,1.027" transform="translate(8.217 9.782)" fill="#455a64"/>
        <path id="Trazado_790823" data-name="Trazado 790823" d="M231.873,289.119h3.772a1.027,1.027,0,0,0,1.028-1.027v-.956a1.027,1.027,0,0,0-1.028-1.027h-3.772a1.027,1.027,0,0,0-1.027,1.027v.956a1.027,1.027,0,0,0,1.027,1.027" transform="translate(7.892 9.782)" fill="#e0e0e0"/>
        <path id="Trazado_790824" data-name="Trazado 790824" d="M210.968,289.119H226.1a1.028,1.028,0,0,0,1.028-1.027v-.956a1.028,1.028,0,0,0-1.028-1.027H210.968a1.027,1.027,0,0,0-1.027,1.027v.956a1.027,1.027,0,0,0,1.027,1.027" transform="translate(7.178 9.782)" fill="#e0e0e0"/>
        <path id="Trazado_790825" data-name="Trazado 790825" d="M252.636,281.118h3.249a1.5,1.5,0,1,0,0-3.009h-3.249a1.5,1.5,0,1,0,0,3.009" transform="translate(8.586 9.508)" fill="#263238"/>
        <path id="Trazado_790826" data-name="Trazado 790826" d="M226.014,281.118h20.692a1.5,1.5,0,0,0,0-3.009H226.014a1.5,1.5,0,0,0,0,3.009" transform="translate(7.676 9.508)" fill="#e0e0e0"/>
        <path id="Trazado_790827" data-name="Trazado 790827" d="M249.861,235.506h13.871a1.5,1.5,0,0,0,0-3.009H249.861a1.5,1.5,0,1,0,0,3.009" transform="translate(8.491 7.949)" fill="#455a64"/>
        <path id="Trazado_790828" data-name="Trazado 790828" d="M232.579,243.123h31.743a1.5,1.5,0,0,0,0-3.009H232.579a1.5,1.5,0,1,0,0,3.009" transform="translate(7.9 8.209)" fill="#263238"/>
        <path id="Trazado_790829" data-name="Trazado 790829" d="M199.535,251h65.917a1.5,1.5,0,1,0,0-3.009H199.535a1.5,1.5,0,0,0,0,3.009" transform="translate(6.77 8.478)" fill="#e0e0e0"/>
        <path id="Trazado_790830" data-name="Trazado 790830" d="M233.219,256.539H264.3a1.5,1.5,0,1,0,0-3.01h-31.08a1.5,1.5,0,0,0,0,3.01" transform="translate(7.922 8.668)" fill="#e0e0e0"/>
        <path id="Trazado_790831" data-name="Trazado 790831" d="M239.367,266.214h31.08a1.5,1.5,0,1,0,0-3.009h-31.08a1.5,1.5,0,1,0,0,3.009" transform="translate(8.132 8.999)" fill="#455a64"/>
        <path id="Trazado_790832" data-name="Trazado 790832" d="M222.542,266.214H232.96a1.5,1.5,0,1,0,0-3.009H222.542a1.5,1.5,0,1,0,0,3.009" transform="translate(7.557 8.999)" fill="#4adbd1"/>
        <path id="Trazado_790833" data-name="Trazado 790833" d="M196.787,266.166h19.679a1.5,1.5,0,1,0,0-3.009H196.787a1.5,1.5,0,1,0,0,3.009" transform="translate(6.676 8.997)" fill="#263238"/>
        <path id="Trazado_790834" data-name="Trazado 790834" d="M170.891,266.166h19.68a1.5,1.5,0,1,0,0-3.009h-19.68a1.5,1.5,0,1,0,0,3.009" transform="translate(5.791 8.997)" fill="#e0e0e0"/>
        <path id="Trazado_790835" data-name="Trazado 790835" d="M315.524,264.13h8.3a1.5,1.5,0,0,0,0-3.009h-8.3a1.5,1.5,0,0,0,0,3.009" transform="translate(10.736 8.927)" fill="#e0e0e0"/>
        <path id="Trazado_790836" data-name="Trazado 790836" d="M317.926,287.672h5.817a1.5,1.5,0,1,0,0-3.01h-5.817a1.5,1.5,0,1,0,0,3.01" transform="translate(10.818 9.732)" fill="#e0e0e0"/>
        <path id="Trazado_790837" data-name="Trazado 790837" d="M307.936,271.977h16.149a1.5,1.5,0,0,0,0-3.009H307.936a1.5,1.5,0,0,0,0,3.009" transform="translate(10.476 9.196)" fill="#e0e0e0"/>
        <path id="Trazado_790838" data-name="Trazado 790838" d="M310.676,279.826h13.315a1.5,1.5,0,0,0,0-3.009H310.676a1.5,1.5,0,1,0,0,3.009" transform="translate(10.57 9.464)" fill="#e0e0e0"/>
        <path id="Trazado_790839" data-name="Trazado 790839" d="M291.283,234a1.529,1.529,0,1,0,1.529-1.529A1.529,1.529,0,0,0,291.283,234" transform="translate(9.959 7.948)" fill="#455a64"/>
        <path id="Trazado_790840" data-name="Trazado 790840" d="M291.283,226.24a1.529,1.529,0,1,0,1.529-1.529,1.529,1.529,0,0,0-1.529,1.529" transform="translate(9.959 7.683)" fill="#455a64"/>
        <path id="Trazado_790841" data-name="Trazado 790841" d="M291.283,241.6a1.529,1.529,0,1,0,1.529-1.529,1.529,1.529,0,0,0-1.529,1.529" transform="translate(9.959 8.208)" fill="#455a64"/>
        <path id="Trazado_790842" data-name="Trazado 790842" d="M291.283,249.492a1.529,1.529,0,1,0,1.529-1.529,1.529,1.529,0,0,0-1.529,1.529" transform="translate(9.959 8.478)" fill="#455a64"/>
        <path id="Trazado_790843" data-name="Trazado 790843" d="M291.283,257.386a1.529,1.529,0,1,0,1.529-1.529,1.529,1.529,0,0,0-1.529,1.529" transform="translate(9.959 8.747)" fill="#455a64"/>
        <path id="Trazado_790844" data-name="Trazado 790844" d="M291.283,265.281a1.529,1.529,0,1,0,1.529-1.529,1.529,1.529,0,0,0-1.529,1.529" transform="translate(9.959 9.017)" fill="#455a64"/>
        <path id="Trazado_790845" data-name="Trazado 790845" d="M291.283,273.174a1.529,1.529,0,1,0,1.529-1.529,1.529,1.529,0,0,0-1.529,1.529" transform="translate(9.959 9.287)" fill="#455a64"/>
        <path id="Trazado_790846" data-name="Trazado 790846" d="M291.283,281.07a1.529,1.529,0,1,0,1.529-1.529,1.529,1.529,0,0,0-1.529,1.529" transform="translate(9.959 9.557)" fill="#455a64"/>
        <path id="Trazado_790847" data-name="Trazado 790847" d="M291.283,288.964a1.529,1.529,0,1,0,1.529-1.529,1.529,1.529,0,0,0-1.529,1.529" transform="translate(9.959 9.827)" fill="#455a64"/>
        <path id="Trazado_790848" data-name="Trazado 790848" d="M291.283,296.859a1.529,1.529,0,1,0,1.529-1.529,1.529,1.529,0,0,0-1.529,1.529" transform="translate(9.959 10.097)" fill="#455a64"/>
        <path id="Trazado_790849" data-name="Trazado 790849" d="M291.283,304.753a1.529,1.529,0,1,0,1.529-1.529,1.529,1.529,0,0,0-1.529,1.529" transform="translate(9.959 10.367)" fill="#455a64"/>
        <path id="Trazado_790850" data-name="Trazado 790850" d="M291.283,312.647a1.529,1.529,0,1,0,1.529-1.529,1.529,1.529,0,0,0-1.529,1.529" transform="translate(9.959 10.637)" fill="#455a64"/>
        <path id="Trazado_790851" data-name="Trazado 790851" d="M291.283,320.542a1.529,1.529,0,1,0,1.529-1.529,1.529,1.529,0,0,0-1.529,1.529" transform="translate(9.959 10.907)" fill="#455a64"/>
        <path id="Trazado_790852" data-name="Trazado 790852" d="M154.736,202.816H331.7a5.588,5.588,0,0,1,5.588,5.588v10.589H150.77V206.782a3.967,3.967,0,0,1,3.966-3.966" transform="translate(5.155 6.934)" fill="#e0e0e0"/>
        <path id="Trazado_790853" data-name="Trazado 790853" d="M319.652,211.184a2.222,2.222,0,1,0,2.221-2.221,2.22,2.22,0,0,0-2.221,2.221" transform="translate(10.928 7.144)" fill="#fff"/>
        <path id="Trazado_790854" data-name="Trazado 790854" d="M313.042,211.184a2.222,2.222,0,1,0,2.221-2.221,2.22,2.22,0,0,0-2.221,2.221" transform="translate(10.702 7.144)" fill="#fff"/>
        <path id="Trazado_790855" data-name="Trazado 790855" d="M306.431,211.184a2.222,2.222,0,1,0,2.221-2.221,2.22,2.22,0,0,0-2.221,2.221" transform="translate(10.476 7.144)" fill="#fff"/>
        <path id="Trazado_790856" data-name="Trazado 790856" d="M293.756,331.39l-15.765,17.043L263.68,331.39Z" transform="translate(9.015 11.33)" fill="#fff"/>
        <path id="Trazado_790857" data-name="Trazado 790857" d="M155.837,337.646a5.935,5.935,0,0,1-1.632-.3,5.046,5.046,0,0,1-3.187-3.422,5.512,5.512,0,0,1-.178-1.682q0-.9.006-1.9.006-2,.012-4.363c.007-3.154.016-6.793.025-10.888.021-16.393.05-40.1.086-69.392q.008-10.986.018-22.993,0-6,.008-12.231c.013-1.028-.028-2.107.031-3.107a4.857,4.857,0,0,1,3.814-4.211,21.911,21.911,0,0,1,3.163-.1l55,.025,60.773.016,32.145,0h24.746c.682.01,1.416-.025,2.056.024a4.742,4.742,0,0,1,1.869.6,4.819,4.819,0,0,1,2.307,3.08,14.617,14.617,0,0,1,.129,2.849V229.91q0,11.486,0,22.739c0,15,.005,29.653.008,43.891q0,10.679.005,21.032,0,5.174,0,10.26c-.006,1.688.017,3.4-.013,5.048a4.8,4.8,0,0,1-4.674,4.514l-2.473.007-4.922,0-9.7,0-18.776.008h-.1l-.067.071-14.438,15.2.324.01-12.767-15.184-.061-.072h-.1l-82.911.09-22.631.055-5.9.029c-1.329.009-2.01.03-2.01.03s.682.021,2.01.03l5.9.029,22.631.055,82.911.09-.156-.072q6.132,7.311,12.746,15.2l.156.186.169-.176L296.655,337.8l-.165.071,18.776.008,9.7,0,4.922,0,2.485-.005a5.293,5.293,0,0,0,5.156-4.974c.033-1.71.01-3.377.018-5.078q0-5.087,0-10.26,0-10.349.005-21.032c0-14.238.005-28.9.008-43.891q0-11.248,0-22.739V208.185a6.152,6.152,0,0,0-.143-1.512,5.356,5.356,0,0,0-2.567-3.426,5.269,5.269,0,0,0-2.08-.664c-.748-.054-1.4-.014-2.11-.027H305.918l-32.145,0L213,202.577l-55,.025a21.583,21.583,0,0,0-3.254.116,5.3,5.3,0,0,0-4.156,4.6c-.063,1.092-.017,2.1-.03,3.153q0,6.233.008,12.231.009,11.993.018,22.993c.036,29.292.065,53,.086,69.392.009,4.1.018,7.734.025,10.888q.006,2.366.012,4.363,0,1,.006,1.9a5.626,5.626,0,0,0,.2,1.711,5.044,5.044,0,0,0,1.5,2.407,5,5,0,0,0,3,1.282c.28.009.422.007.422.007" transform="translate(5.147 6.925)" fill="#263238"/>
        <path id="Trazado_790858" data-name="Trazado 790858" d="M181.463,182.061H321.724A3.278,3.278,0,0,0,325,178.783v-71.51A3.277,3.277,0,0,0,321.724,104h-140.9a3.277,3.277,0,0,0-3.277,3.277v70.869a3.918,3.918,0,0,0,3.919,3.919" transform="translate(6.07 3.555)" fill="#fff"/>
        <path id="Trazado_790859" data-name="Trazado 790859" d="M177.544,120.759H325V107.587A3.592,3.592,0,0,0,321.41,104H181.136a3.592,3.592,0,0,0-3.592,3.592Z" transform="translate(6.07 3.555)" fill="#e0e0e0"/>
        <path id="Trazado_790860" data-name="Trazado 790860" d="M181.7,182.07a6.085,6.085,0,0,1-1.125-.187,4.148,4.148,0,0,1-2.5-2.064,4.54,4.54,0,0,1-.454-2.38q.006-1.371.012-2.995c.007-2.167.016-4.664.025-7.474.02-11.258.05-27.528.087-47.631q0-3.771.007-7.718,0-1.975,0-3.99a3.15,3.15,0,0,1,1.792-3.129,4,4,0,0,1,1.936-.287l2.089,0,4.239,0,8.712.007,37.751.025,86.5.022a5.573,5.573,0,0,1,1.368.094,3.377,3.377,0,0,1,2.552,2.751,10.176,10.176,0,0,1,.047,1.384v4.272q0,5.684,0,11.289,0,11.208,0,22.071t.006,21.3q0,5.22.005,10.328a3.926,3.926,0,0,1-2.435,3.769,5.72,5.72,0,0,1-2.383.287h-2.5l-70.648.058-47.629.086-12.948.05-3.368.027c-.757.009-1.147.028-1.147.028s.39.019,1.147.028l3.368.026,12.948.051,47.629.086,70.648.058h2.5A6.2,6.2,0,0,0,322.51,182a4.429,4.429,0,0,0,2.751-4.233q0-5.107,0-10.328,0-10.44.008-21.3t0-22.071q0-5.6,0-11.289V108.5a10.2,10.2,0,0,0-.054-1.469,3.915,3.915,0,0,0-2.96-3.19,6.146,6.146,0,0,0-1.492-.109l-86.5.022-37.751.025-8.712.007-4.239,0-2.089,0a4.423,4.423,0,0,0-2.111.329,3.564,3.564,0,0,0-2.023,3.507q0,2.017,0,3.99,0,3.946.007,7.718c.037,20.1.066,36.372.086,47.631.009,2.81.019,5.307.025,7.474q.006,1.623.013,2.995a6.612,6.612,0,0,0,.089,1.312,4.523,4.523,0,0,0,.4,1.118,4.17,4.17,0,0,0,2.582,2.066,3.411,3.411,0,0,0,1.14.134" transform="translate(6.063 3.547)" fill="#263238"/>
        <path id="Trazado_790861" data-name="Trazado 790861" d="M306.861,113.455a2.746,2.746,0,1,0,2.746-2.746,2.746,2.746,0,0,0-2.746,2.746" transform="translate(10.491 3.785)" fill="#fff"/>
        <path id="Trazado_790862" data-name="Trazado 790862" d="M298.691,113.455a2.746,2.746,0,1,0,2.746-2.746,2.746,2.746,0,0,0-2.746,2.746" transform="translate(10.212 3.785)" fill="#fff"/>
        <path id="Trazado_790863" data-name="Trazado 790863" d="M290.521,113.455a2.746,2.746,0,1,0,2.746-2.746,2.746,2.746,0,0,0-2.746,2.746" transform="translate(9.932 3.785)" fill="#fff"/>
        <path id="Trazado_790864" data-name="Trazado 790864" d="M279.1,143.171h17.142a1.86,1.86,0,0,0,0-3.72H279.1a1.86,1.86,0,0,0,0,3.72" transform="translate(9.479 4.768)" fill="#263238"/>
        <path id="Trazado_790865" data-name="Trazado 790865" d="M279.1,152.585h17.142a1.86,1.86,0,0,0,0-3.72H279.1a1.86,1.86,0,0,0,0,3.72" transform="translate(9.479 5.089)" fill="#e0e0e0"/>
        <path id="Trazado_790866" data-name="Trazado 790866" d="M191.607,143.171h49.72a1.86,1.86,0,0,0,0-3.72h-49.72a1.86,1.86,0,0,0,0,3.72" transform="translate(6.487 4.768)" fill="#e0e0e0"/>
        <path id="Trazado_790867" data-name="Trazado 790867" d="M279.1,162.313h17.142a1.86,1.86,0,0,0,0-3.72H279.1a1.86,1.86,0,0,0,0,3.72" transform="translate(9.479 5.422)" fill="#5573c6"/>
        <path id="Trazado_790868" data-name="Trazado 790868" d="M203.075,152.585h17.142a1.86,1.86,0,1,0,0-3.72H203.075a1.86,1.86,0,0,0,0,3.72" transform="translate(6.879 5.089)" fill="#5573c6"/>
        <path id="Trazado_790869" data-name="Trazado 790869" d="M252.549,143.171h17.142a1.86,1.86,0,0,0,0-3.72H252.549a1.86,1.86,0,0,0,0,3.72" transform="translate(8.571 4.768)" fill="#455a64"/>
        <path id="Trazado_790870" data-name="Trazado 790870" d="M231.192,152.585h39.229a1.86,1.86,0,0,0,0-3.72H231.192a1.86,1.86,0,0,0,0,3.72" transform="translate(7.841 5.089)" fill="#263238"/>
        <path id="Trazado_790871" data-name="Trazado 790871" d="M193.985,162.313h77.79a1.862,1.862,0,0,0,0-3.72h-77.79a1.862,1.862,0,0,0,0,3.72" transform="translate(6.571 5.422)" fill="#e0e0e0"/>
        <path id="Trazado_790872" data-name="Trazado 790872" d="M231.983,169.165h38.411a1.86,1.86,0,1,0,0-3.72H231.983a1.86,1.86,0,0,0,0,3.72" transform="translate(7.868 5.656)" fill="#e0e0e0"/>
        <path id="Trazado_790873" data-name="Trazado 790873" d="M303.742,141.312a1.889,1.889,0,1,0,1.889-1.889,1.889,1.889,0,0,0-1.889,1.889" transform="translate(10.385 4.767)" fill="#455a64"/>
        <path id="Trazado_790874" data-name="Trazado 790874" d="M303.742,132.3a1.889,1.889,0,1,0,1.889-1.889,1.889,1.889,0,0,0-1.889,1.889" transform="translate(10.385 4.459)" fill="#455a64"/>
        <path id="Trazado_790875" data-name="Trazado 790875" d="M303.742,150.7a1.889,1.889,0,1,0,1.889-1.889,1.889,1.889,0,0,0-1.889,1.889" transform="translate(10.385 5.088)" fill="#455a64"/>
        <path id="Trazado_790876" data-name="Trazado 790876" d="M303.742,160.454a1.889,1.889,0,1,0,1.889-1.889,1.889,1.889,0,0,0-1.889,1.889" transform="translate(10.385 5.421)" fill="#455a64"/>
        <path id="Trazado_790877" data-name="Trazado 790877" d="M285.907,133.67h10.556a.992.992,0,0,0,.991-.992v-1.605a.991.991,0,0,0-.991-.991H285.907a.991.991,0,0,0-.992.991v1.605a.992.992,0,0,0,.992.992" transform="translate(9.741 4.447)" fill="#455a64"/>
      </g>
    </g>
    <g id="Grupo_1041746" data-name="Grupo 1041746">
      <g id="Grupo_1041745" data-name="Grupo 1041745" clip-path="url(#clip-path)">
        <path id="Trazado_790878" data-name="Trazado 790878" d="M373.461,295.669s5.9,1.272,6.93,5.464-8.224,104.448-8.6,106.891c-.583,3.836-3.819,8.709-11.108,8.447-6.352-.229-92.924-.027-114.723.024-2.9.007-4.637-2.46-5.019-5.394l107.186-6.327Z" transform="translate(8.238 10.109)" fill="#e0e0e0"/>
        <path id="Trazado_790879" data-name="Trazado 790879" d="M376.149,299.013l-9.285,108.12a3.5,3.5,0,0,1-3.424,3.148l-122.493.55,23.531-23.351,79.576-.561,8.51-84.706A2.657,2.657,0,0,1,354.6,299.9l17.826-4.154a3.046,3.046,0,0,1,3.721,3.263" transform="translate(8.238 10.108)" fill="#e0e0e0"/>
        <path id="Trazado_790880" data-name="Trazado 790880" d="M376.17,299.014a2.406,2.406,0,0,0,.02-.522,2.907,2.907,0,0,0-.477-1.462,3.083,3.083,0,0,0-2.083-1.371,3.687,3.687,0,0,0-1.629.133l-1.814.414-9.462,2.172-6,1.382a2.8,2.8,0,0,0-2.265,2.411q-.178,1.737-.368,3.574c-1.992,19.593-4.836,47.569-8.25,81.154l.228-.208c-23.882.158-50.816.337-79.576.526h-.108l-.078.077c-7.54,7.481-15.464,15.343-23.534,23.348l-.466.463.658,0,5.426-.024,89.8-.425,20.165-.1,4.866-.025c.81-.009,1.6,0,2.418-.023a3.713,3.713,0,0,0,3.447-3.173c.09-.8.14-1.569.211-2.351l.394-4.625c1.038-12.227,2.005-23.617,2.887-34.015,1.75-20.79,3.166-37.617,4.145-49.257.477-5.809.847-10.321,1.1-13.395.119-1.523.21-2.688.272-3.484s.074-1.189.074-1.189-.053.4-.129,1.184-.183,1.958-.326,3.479c-.275,3.072-.679,7.581-1.2,13.385L370.2,366.3c-.9,10.4-1.893,21.785-2.954,34.009q-.2,2.293-.4,4.624c-.07.771-.126,1.57-.211,2.328a3.255,3.255,0,0,1-3.023,2.775c-.776.022-1.595.011-2.394.019l-4.867.019-20.165.079-89.794.383-5.425.025.19.46,23.529-23.354-.185.078,79.575-.6h.209l.02-.207c3.335-33.594,6.113-61.576,8.058-81.173q.181-1.835.353-3.572a2.558,2.558,0,0,1,2.066-2.207l5.992-1.413,9.446-2.235,1.81-.431a3.61,3.61,0,0,1,1.584-.149,3.012,3.012,0,0,1,2.039,1.306,2.945,2.945,0,0,1,.5,1.425c.028.342,0,.519.017.519" transform="translate(8.216 10.107)" fill="#263238"/>
        <path id="Trazado_790881" data-name="Trazado 790881" d="M285.357,404.925H273.971l14.395-18.672h6.758Z" transform="translate(9.367 13.205)" fill="#263238"/>
        <path id="Trazado_790882" data-name="Trazado 790882" d="M368.432,303.678l-8.7,93.942-16.2-12.885,6.975-79.149a1.373,1.373,0,0,1,1.174-1.237l15.187-2.173a1.374,1.374,0,0,1,1.561,1.5" transform="translate(11.745 10.331)" fill="#263238"/>
        <path id="Trazado_790883" data-name="Trazado 790883" d="M351.569,404.925H339.816l-11.942-18.672h6.758Z" transform="translate(11.21 13.205)" fill="#263238"/>
        <path id="Trazado_790884" data-name="Trazado 790884" d="M337.421,404.925H326.034L319.8,386.253h6.758Z" transform="translate(10.933 13.205)" fill="#263238"/>
        <path id="Trazado_790885" data-name="Trazado 790885" d="M323.759,404.925H312.372l-.613-18.672h6.758Z" transform="translate(10.659 13.205)" fill="#263238"/>
        <path id="Trazado_790886" data-name="Trazado 790886" d="M311.243,404.925H299.857l4.2-18.672h6.757Z" transform="translate(10.252 13.205)" fill="#263238"/>
        <path id="Trazado_790887" data-name="Trazado 790887" d="M298.219,404.925H286.832l9.277-18.672h6.758Z" transform="translate(9.806 13.205)" fill="#263238"/>
        <path id="Trazado_790888" data-name="Trazado 790888" d="M274.526,400.794c0,.089,17.363.161,38.776.161s38.78-.072,38.78-.161-17.36-.161-38.78-.161-38.776.072-38.776.161" transform="translate(9.386 13.697)" fill="#e0e0e0"/>
        <path id="Trazado_790889" data-name="Trazado 790889" d="M276.522,397.483c0,.089,16.489.161,36.825.161s36.828-.072,36.828-.161-16.486-.161-36.828-.161-36.825.072-36.825.161" transform="translate(9.454 13.584)" fill="#e0e0e0"/>
        <path id="Trazado_790890" data-name="Trazado 790890" d="M276.522,394.485c0,.179,15.516.324,34.65.324s34.655-.145,34.655-.324-15.512-.323-34.655-.323-34.65.144-34.65.323" transform="translate(9.454 13.476)" fill="#e0e0e0"/>
        <path id="Trazado_790891" data-name="Trazado 790891" d="M276.06,391.743c0,.179,15.182.323,33.906.323s33.909-.144,33.909-.323-15.179-.324-33.909-.324-33.906.145-33.906.324" transform="translate(9.438 13.382)" fill="#e0e0e0"/>
        <path id="Trazado_790892" data-name="Trazado 790892" d="M274.526,389.741c0,.179,15.281.324,34.126.324s34.13-.145,34.13-.324-15.278-.323-34.13-.323-34.126.144-34.126.323" transform="translate(9.386 13.314)" fill="#e0e0e0"/>
        <path id="Trazado_790893" data-name="Trazado 790893" d="M272.9,387.65c0,.179,15.568.324,34.766.324s34.77-.145,34.77-.324-15.565-.323-34.77-.323-34.766.144-34.766.323" transform="translate(9.33 13.242)" fill="#e0e0e0"/>
        <path id="Trazado_790894" data-name="Trazado 790894" d="M361.748,404.1,340.526,384.25" transform="translate(11.642 13.137)" fill="#e0e0e0"/>
        <path id="Trazado_790895" data-name="Trazado 790895" d="M340.526,384.25c-.1.109,4.567,4.642,10.426,10.124s10.694,9.839,10.8,9.731-4.566-4.64-10.428-10.125-10.693-9.838-10.794-9.73" transform="translate(11.642 13.137)" fill="#263238"/>
      </g>
    </g>
    <g id="Grupo_1041754" data-name="Grupo 1041754">
      <g id="Grupo_1041753" data-name="Grupo 1041753" clip-path="url(#clip-path)">
        <path id="Trazado_790896" data-name="Trazado 790896" d="M.974,313.4s1.04-10.976,28.4-18c13.209-3.391,44.738-5.021,48.311,15.473.116.664,15.693,129.555,15.693,129.555H35.083Z" transform="translate(0.033 10.029)" fill="#12263f"/>
        <path id="Trazado_790897" data-name="Trazado 790897" d="M10.241,440.073H37.134l-8.982-126.28c-.658-6.145-7.017-10.576-14.2-9.9l-2.408.228c-7.187.679-11.739,7.6-11.533,15.49Z" transform="translate(0 10.388)" fill="#12263f"/>
        <path id="Trazado_790898" data-name="Trazado 790898" d="M34.254,434.845c.148-.012-1.751-24.887-4.242-55.552s-4.631-55.527-4.779-55.515,1.751,24.883,4.242,55.559,4.631,55.521,4.779,55.509" transform="translate(0.862 11.07)" fill="#263238"/>
        <path id="Trazado_790899" data-name="Trazado 790899" d="M5.966,307.023a27.891,27.891,0,0,1,3.78-.889,14.66,14.66,0,0,1,8.97,1.746,14.656,14.656,0,0,1,6.036,6.863,27.882,27.882,0,0,1,1.14,3.712,3.4,3.4,0,0,0-.053-1.058,12.471,12.471,0,0,0-.734-2.8,14.307,14.307,0,0,0-6.12-7.187,14.3,14.3,0,0,0-9.291-1.655,12.451,12.451,0,0,0-2.786.778,3.412,3.412,0,0,0-.94.488" transform="translate(0.204 10.447)" fill="#263238"/>
        <path id="Trazado_790900" data-name="Trazado 790900" d="M88.112,154.642c-.27-7.392,4.741-8.391,8.6-7.54a13.08,13.08,0,0,1,16.085.878A11.633,11.633,0,0,1,130,158.11a9.72,9.72,0,0,1,7.9,16.672,9.343,9.343,0,0,1-4.578,18.02L87.96,162.592c-2.72-2.864.3-4,.152-7.95" transform="translate(2.968 4.949)" fill="#263238"/>
        <path id="Trazado_790901" data-name="Trazado 790901" d="M135.477,193.778a39.643,39.643,0,0,0-38.2-37.837l-2.052-.072c-22.167.506-34.122,19.614-33,41.76l.584,73.78.145,14.009,50.684,12.049.515-29.2s21.385-2.55,22.4-23.8c.491-10.264-.215-31.484-1.079-50.68" transform="translate(2.125 5.329)" fill="#ae7461"/>
        <path id="Trazado_790902" data-name="Trazado 790902" d="M113.515,264.826a51.607,51.607,0,0,1-27.57-9.145s6.009,15.536,27.293,14.375Z" transform="translate(2.938 8.741)" fill="#6f4439"/>
        <path id="Trazado_790903" data-name="Trazado 790903" d="M127.269,213.355a3.039,3.039,0,0,1-3.036,2.96,2.906,2.906,0,0,1-3.033-2.849,3.042,3.042,0,0,1,3.034-2.962,2.909,2.909,0,0,1,3.035,2.851" transform="translate(4.144 7.197)" fill="#263238"/>
        <path id="Trazado_790904" data-name="Trazado 790904" d="M128.865,203.593c-.39.383-2.629-1.4-5.9-1.509-3.262-.155-5.72,1.442-6.059,1.029-.169-.184.241-.885,1.311-1.608a8.336,8.336,0,0,1,4.869-1.313,8,8,0,0,1,4.678,1.7c.977.807,1.292,1.535,1.1,1.705" transform="translate(3.996 6.844)" fill="#263238"/>
        <path id="Trazado_790905" data-name="Trazado 790905" d="M101.872,212.7a3.038,3.038,0,0,1-3.037,2.959,2.905,2.905,0,0,1-3.032-2.849,3.041,3.041,0,0,1,3.034-2.961,2.907,2.907,0,0,1,3.035,2.851" transform="translate(3.275 7.175)" fill="#263238"/>
        <path id="Trazado_790906" data-name="Trazado 790906" d="M98.655,202.078c-.391.383-2.634-1.4-5.9-1.508-3.261-.155-5.72,1.441-6.06,1.028-.168-.183.238-.884,1.313-1.607a8.335,8.335,0,0,1,4.869-1.314,8.016,8.016,0,0,1,4.678,1.7c.974.807,1.291,1.535,1.1,1.705" transform="translate(2.963 6.792)" fill="#263238"/>
        <path id="Trazado_790907" data-name="Trazado 790907" d="M107.851,226.653c-.008-.187,2.034-.466,5.341-.769.838-.056,1.633-.194,1.794-.759a4.254,4.254,0,0,0-.47-2.492q-1.069-3.07-2.241-6.441c-3.106-9.168-5.321-16.694-4.951-16.816s3.187,7.21,6.292,16.377q1.118,3.39,2.137,6.476a4.834,4.834,0,0,1,.316,3.29,2.1,2.1,0,0,1-1.416,1.171,5.6,5.6,0,0,1-1.424.147c-3.318.06-5.373,0-5.379-.183" transform="translate(3.668 6.816)" fill="#263238"/>
        <path id="Trazado_790908" data-name="Trazado 790908" d="M98.476,227.606c.533-.012.414,3.535,3.359,6.16s6.736,2.37,6.746,2.867c.041.224-.867.659-2.464.645a8.829,8.829,0,0,1-5.637-2.191,7.7,7.7,0,0,1-2.59-5.157c-.083-1.488.344-2.353.586-2.323" transform="translate(3.346 7.782)" fill="#263238"/>
        <path id="Trazado_790909" data-name="Trazado 790909" d="M99.057,193.055c-.419.835-3.206-.027-6.627-.092-3.419-.144-6.294.545-6.616-.312-.14-.409.46-1.16,1.686-1.841a10.226,10.226,0,0,1,5.12-1.157,9.81,9.81,0,0,1,4.968,1.466c1.144.752,1.655,1.538,1.469,1.936" transform="translate(2.933 6.484)" fill="#263238"/>
        <path id="Trazado_790910" data-name="Trazado 790910" d="M128.429,194.893c-.54.768-2.825.1-5.533.193-2.71-.005-4.973.731-5.536-.021-.249-.365.077-1.125,1.046-1.874a8.017,8.017,0,0,1,8.92-.14c.991.718,1.34,1.468,1.1,1.841" transform="translate(4.01 6.556)" fill="#263238"/>
        <path id="Trazado_790911" data-name="Trazado 790911" d="M133.946,184.037s-5.135-13.515-11.444-16.851c-7.64-4.037-11.289,4.376-18.624,2.041s-14.627-6.207-22.4-.75c-8.508,5.972-4.783,10.507-5.63,19.925-3.436,38.175-10.8,48.743-12.151,30.656-.148-1.982-5.57-3.747-6.085-12.114-.668-10.852-.617-24,2.068-31.585,2.265-6.4,6.112-10.734,12.9-15.426,10.716-7.406,25.063-7.063,34.766-5.737s28.079,13.2,26.6,29.84" transform="translate(1.957 5.246)" fill="#263238"/>
        <path id="Trazado_790912" data-name="Trazado 790912" d="M65.293,216.569a5.775,5.775,0,0,0-6.033-5.784c-3.979.237-8.472,2.331-8.5,10.535-.054,14.553,14.569,11.6,14.6,11.187.018-.283-.029-9.848-.061-15.938" transform="translate(1.735 7.206)" fill="#ae7461"/>
        <path id="Trazado_790913" data-name="Trazado 790913" d="M62.044,226.863c-.064-.047-.254.177-.684.371a2.529,2.529,0,0,1-1.9.032c-1.535-.57-2.82-3.015-2.882-5.638A8.368,8.368,0,0,1,57.307,218a2.926,2.926,0,0,1,1.913-1.939,1.29,1.29,0,0,1,1.493.7c.193.407.1.7.178.723.04.037.312-.243.2-.844a1.62,1.62,0,0,0-.569-.914,1.911,1.911,0,0,0-1.4-.375,3.562,3.562,0,0,0-2.657,2.247,8.6,8.6,0,0,0-.894,4.052c.083,2.934,1.574,5.683,3.676,6.3a2.716,2.716,0,0,0,2.32-.375c.452-.359.53-.684.48-.711" transform="translate(1.9 7.362)" fill="#6f4439"/>
        <path id="Trazado_790914" data-name="Trazado 790914" d="M66.508,190.534c1.842,1.356,3.789,2.755,6.056,3.061s4.914-.908,5.378-3.147c.209-1.006,0-2.188.7-2.947.827-.9,2.281-.561,3.495-.388A9.285,9.285,0,0,0,92,180.8c1.021,1.653,3.539,1.672,5.208.678s2.78-2.676,4.108-4.093,3.167-2.661,5.079-2.319c1.069.19,2.053.866,3.137.809,1.915-.1,2.927-2.3,3.283-4.188s.659-4.087,2.313-5.06c1.531-.9,3.454-.279,5.2.041s4.031-.01,4.542-1.713a3.457,3.457,0,0,0-.556-2.66,9.422,9.422,0,0,0-10.988-3.959,12.768,12.768,0,0,0-23.356-3.307,12.96,12.96,0,0,0-20.87,3.986,9.392,9.392,0,0,0-11.068,13.278c-2.667,1.4-5,3.916-5.157,6.924s2.664,6.109,5.595,5.421a5.2,5.2,0,0,0,8.807,5.5" transform="translate(1.808 5.086)" fill="#263238"/>
        <path id="Trazado_790915" data-name="Trazado 790915" d="M57.258,183.386a3.488,3.488,0,0,0,.806,2.826,4.678,4.678,0,0,0,2.852,1.841A5.037,5.037,0,0,0,65.1,187l-.611-.114a14.542,14.542,0,0,0,2.773,3.729,8.362,8.362,0,0,0,2.591,1.741,6.458,6.458,0,0,0,7.2-1.881,8.388,8.388,0,0,0,1.283-2.983,2.852,2.852,0,0,0,.154-1.171c-.062-.017-.2.38-.465,1.075a9.78,9.78,0,0,1-1.441,2.718c-1.452,2.035-5.98,2.94-8.743-.107a14.633,14.633,0,0,1-2.646-3.5l-.241-.437-.371.324a4.417,4.417,0,0,1-3.544.992,4.281,4.281,0,0,1-2.581-1.48,7.062,7.062,0,0,1-1.2-2.519" transform="translate(1.955 6.27)" fill="#455a64"/>
        <path id="Trazado_790916" data-name="Trazado 790916" d="M223.62,367.517s27.435-.822,29.078-1.336a17.261,17.261,0,0,1,7.6,0c1.953.617,9.762,3.391,9.762,3.391l16.574,4.418s16.655,10.9,16.306,13.074-2.157,3.674-5.137,2.544-18.018-8.94-18.018-8.94l-16.5-1.747s-22.572,8.108-27.129,7.707-16.235-2.379-16.235-2.379-1.643-11.7-.821-13.548,4.52-3.185,4.52-3.185" transform="translate(7.483 12.505)" fill="#ae7461"/>
        <path id="Trazado_790917" data-name="Trazado 790917" d="M301.752,396.539s-13.9-14.908-17.756-16.918-25.293-5.528-25.293-5.528-6.868-2.847-9.38-1.842-29.147,5.025-30.319,5.193,5.7,23.45,5.7,23.45a54.282,54.282,0,0,0,19.934-.838c10.72-2.512,14.405-5.863,14.405-5.863l10.7-2.81,6.547,2.5s1.176,9.694,5.867,9.191l2.177-1.508-1.674-10.72,6.867,2.848s5.36,8.04,9.381,6.867,2.847-4.02,2.847-4.02" transform="translate(7.483 12.719)" fill="#ae7461"/>
        <path id="Trazado_790918" data-name="Trazado 790918" d="M301.761,396.547a3.272,3.272,0,0,1,.107,1.163,2.578,2.578,0,0,1-.518,1.308,3.817,3.817,0,0,1-1.574,1.147,3.965,3.965,0,0,1-2.413.345,7.388,7.388,0,0,1-2.661-1.35,24.262,24.262,0,0,1-5.047-5.543l-.026-.037-.04-.017-6.858-2.871-.281-.117.047.3c.5,3.226,1.052,6.844,1.647,10.725l.084-.194-2.181,1.5.094-.035a3.136,3.136,0,0,1-2.416-.886,7.128,7.128,0,0,1-1.6-2.327,21.077,21.077,0,0,1-1.605-5.8l-.019-.137-.125-.049-6.544-2.507-.07-.027-.074.02-10.7,2.8-.049.012-.057.044a27.855,27.855,0,0,1-7.4,3.774,62.185,62.185,0,0,1-8.433,2.346,53.64,53.64,0,0,1-9,1.014,50.923,50.923,0,0,1-9.287-.514l.21.188c-.474-1.643-.984-3.41-1.5-5.186-1.47-5.267-2.95-10.453-4.024-15.577a17.73,17.73,0,0,1-.292-1.91,2.331,2.331,0,0,1,0-.433c-.01-.067.064-.107-.042-.02a.125.125,0,0,1-.059.016l.027-.005.06-.008.122-.019.966-.145,3.828-.586,7.494-1.18c4.92-.8,9.687-1.574,14.259-2.447,1.147-.239,2.265-.43,3.4-.778a6.258,6.258,0,0,1,3.217-.1,32.709,32.709,0,0,1,6.2,1.86l.026.01.025,0c7.495,1.26,14.35,2.493,20.33,3.928a36.954,36.954,0,0,1,4.26,1.247,12.965,12.965,0,0,1,3.38,2.286c2.024,1.717,3.782,3.415,5.367,4.945,3.161,3.072,5.567,5.559,7.216,7.241L301.1,395.9c.426.436.657.648.657.648s-.2-.246-.606-.7q-.641-.693-1.827-1.973c-1.617-1.715-3.994-4.232-7.132-7.334-1.574-1.546-3.32-3.259-5.345-5-.508-.434-1.031-.872-1.595-1.286a7.548,7.548,0,0,0-1.861-1.077,37.041,37.041,0,0,0-4.3-1.287c-6-1.472-12.845-2.731-20.347-4.017l.051.014a32.991,32.991,0,0,0-6.3-1.908,6.716,6.716,0,0,0-3.458.11c-1.046.317-2.2.52-3.33.751-4.561.859-9.329,1.63-14.248,2.417l-7.493,1.171-3.826.582-.963.144-.121.018-.06.008-.033.006a.449.449,0,0,0-.114.042.513.513,0,0,0-.229.412,2.825,2.825,0,0,0,0,.544,18.12,18.12,0,0,0,.3,1.976c1.08,5.17,2.557,10.345,4.028,15.622l1.5,5.192.047.163.163.025a51.323,51.323,0,0,0,9.4.518,54.051,54.051,0,0,0,9.085-1.033,62.524,62.524,0,0,0,8.506-2.378A40.4,40.4,0,0,0,255.6,396.6a18.915,18.915,0,0,0,3.609-2.213l-.1.057,10.7-2.823-.145-.007,6.552,2.487-.144-.184a21.432,21.432,0,0,0,1.663,5.931,7.553,7.553,0,0,0,1.707,2.455,3.554,3.554,0,0,0,2.742.981l.053-.006.042-.029,2.174-1.513.1-.071-.02-.123c-.615-3.876-1.19-7.493-1.7-10.715l-.235.184,6.877,2.824-.065-.054a24.276,24.276,0,0,0,5.155,5.563,7.538,7.538,0,0,0,2.757,1.355,4.115,4.115,0,0,0,2.514-.392,3.9,3.9,0,0,0,1.605-1.217,2.622,2.622,0,0,0,.5-1.372,2.219,2.219,0,0,0-.185-1.17" transform="translate(7.474 12.712)" fill="#6f4439"/>
        <path id="Trazado_790919" data-name="Trazado 790919" d="M258.3,383.578a3.982,3.982,0,0,0,1.056-.026c.675-.053,1.651-.145,2.854-.271l4.223-.47,1.22-.144a4.067,4.067,0,0,1,1.214.026,24.622,24.622,0,0,1,2.605.541c3.488,1.014,6.977,1.686,8.321,3.754a7.806,7.806,0,0,1,1.241,2.5,10.311,10.311,0,0,0,.275,1.01,2.513,2.513,0,0,0-.071-1.061,7.136,7.136,0,0,0-1.138-2.674,6.505,6.505,0,0,0-1.422-1.458,8.24,8.24,0,0,0-2.076-1.053c-1.514-.552-3.2-1.078-5-1.541a23.3,23.3,0,0,0-2.671-.542,4.5,4.5,0,0,0-1.338-.013l-1.218.161-4.213.584c-1.2.175-2.167.325-2.834.441a3.952,3.952,0,0,0-1.03.235" transform="translate(8.831 13.064)" fill="#6f4439"/>
        <path id="Trazado_790920" data-name="Trazado 790920" d="M295.635,391.435a8.49,8.49,0,0,0-1.15-1.158c-.771-.712-1.909-1.718-3.351-2.92s-3.185-2.6-5.2-4.063c-1.01-.725-2.086-1.466-3.251-2.169a17.372,17.372,0,0,0-1.852-.969,16.4,16.4,0,0,0-2.05-.657c-5.555-1.532-10.753-1.931-14.454-2.486l-4.407-.548a9.606,9.606,0,0,0-1.626-.128,9.413,9.413,0,0,0,1.6.336l4.381.717c3.689.653,8.87,1.112,14.368,2.629a16.316,16.316,0,0,1,1.98.631,17.163,17.163,0,0,1,1.793.93c1.148.684,2.221,1.41,3.232,2.118,2.015,1.429,3.776,2.8,5.245,3.956l3.453,2.782a10.521,10.521,0,0,0,1.288,1" transform="translate(8.831 12.866)" fill="#6f4439"/>
        <path id="Trazado_790921" data-name="Trazado 790921" d="M127.359,297.431a160.089,160.089,0,0,1,13.109,22.11c4.967,10.343,21.044,45.553,21.044,45.553L227,368.531l-.966,25.3s-63.255,22.535-77.415,18.188-29.244-20.673-29.244-20.673L112.6,284.62s5.619-1.059,14.755,12.812" transform="translate(3.85 9.73)" fill="#5573c6"/>
        <path id="Trazado_790922" data-name="Trazado 790922" d="M116.359,285.483s16.792,38.088,19.246,54.223c4.871,32.031,6.507,52.079,6.507,52.079l5.71,49.569H35.976s-3.7-91.868-1.325-122.671C36.433,295.6,54.109,281.23,61.34,273.335c.434-.475,2.426-6.936,2.426-6.936l52.12,13.348Z" transform="translate(1.157 9.108)" fill="#5573c6"/>
        <path id="Trazado_790923" data-name="Trazado 790923" d="M118.862,290.449a2.021,2.021,0,0,0,.129.362c.107.259.248.6.427,1.038l1.673,3.98c1.439,3.46,3.512,8.478,5.6,14.844a176.666,176.666,0,0,1,5.781,22.784c1.665,8.7,3.013,18.352,4.137,28.514,2.061,20.349,3.927,38.768,5.28,52.134.693,6.646,1.254,12.034,1.645,15.794.2,1.839.363,3.279.475,4.292.058.467.1.837.138,1.114a2.038,2.038,0,0,0,.063.378,1.872,1.872,0,0,0-.009-.383c-.022-.28-.049-.65-.083-1.121-.089-1.015-.214-2.458-.374-4.3-.352-3.764-.855-9.159-1.475-15.812-1.293-13.348-3-31.792-5.124-52.154-1.124-10.171-2.488-19.836-4.183-28.548a172.121,172.121,0,0,0-5.907-22.811c-2.139-6.365-4.268-11.368-5.768-14.8-.739-1.724-1.357-3.044-1.766-3.941-.2-.428-.358-.764-.477-1.018a1.961,1.961,0,0,0-.179-.339" transform="translate(4.064 9.93)" fill="#263238"/>
        <g id="Grupo_1041749" data-name="Grupo 1041749" transform="translate(64.553 334.148)" opacity="0.3">
          <g id="Grupo_1041748" data-name="Grupo 1041748">
            <g id="Grupo_1041747" data-name="Grupo 1041747" clip-path="url(#clip-path-14)">
              <path id="Trazado_790924" data-name="Trazado 790924" d="M62.684,349.291c1.029-10.147,5.589-20.327,13.937-26.188l68.2,97.385c-12.04,6.492-25.407,13.2-38.783,10.335-7.195-1.539-13.592-5.782-18.78-11C76.471,408.978,70.619,394.2,66.506,379.467c-2.742-9.825-4.851-20.028-3.822-30.177" transform="translate(-62.419 -323.102)"/>
            </g>
          </g>
        </g>
        <path id="Trazado_790925" data-name="Trazado 790925" d="M55.2,338.914c8.5,30.067,27.619,66.754,33.492,74.124a45.589,45.589,0,0,0,35.681,17.507c7.694,0,72.725-12.664,92-16.45a8.255,8.255,0,0,0,6.486-6.407l.168-.8,8.676-2.336-4.621-23.279-.921-1.291-93.008,2.926-27.056-75.356c-.511-.861-8.325-26.149-29.512-25" transform="translate(1.887 9.659)" fill="#5573c6"/>
        <path id="Trazado_790926" data-name="Trazado 790926" d="M76.581,282.555s.238.01.7.009a20.333,20.333,0,0,1,2.073.051,23.384,23.384,0,0,1,7.815,1.856,28.365,28.365,0,0,1,10.206,7.873,51.1,51.1,0,0,1,8.584,15.288l-.012-.026,26.979,75.385.057.16.172-.005,93.008-2.893-.226-.112.922,1.29-.046-.1c1.336,6.733,2.757,13.9,4.194,21.134.146.735.292,1.47.425,2.145l.194-.312-8.676,2.337-.169.046-.025.159a8.385,8.385,0,0,1-2.555,5.011,7.8,7.8,0,0,1-2.378,1.524,13.914,13.914,0,0,1-2.778.709L203.666,416.3l-22.236,4.278c-14.572,2.761-28.611,5.387-42,7.653-3.349.555-6.658,1.087-9.928,1.549-1.637.2-3.265.434-4.869.508a37.875,37.875,0,0,1-4.817-.241,45.671,45.671,0,0,1-17.578-5.638,46.74,46.74,0,0,1-13.118-11.189,61.682,61.682,0,0,1-4.512-6.807q-2.032-3.455-3.844-6.832A367.748,367.748,0,0,1,60.82,355.643c-1.969-5.337-3.368-9.523-4.26-12.377-.437-1.421-.773-2.507-1-3.249s-.359-1.1-.359-1.1.1.381.307,1.116.536,1.838.952,3.266c.858,2.866,2.228,7.065,4.169,12.416a360.032,360.032,0,0,0,19.806,44.049q1.81,3.38,3.835,6.854a62.021,62.021,0,0,0,4.532,6.865,47.134,47.134,0,0,0,13.217,11.313,46.125,46.125,0,0,0,17.746,5.721,38.494,38.494,0,0,0,4.873.249c1.655-.073,3.281-.3,4.927-.507,3.279-.459,6.592-.988,9.945-1.54,13.4-2.254,27.444-4.868,42.02-7.621l22.239-4.269,11.384-2.219a14.375,14.375,0,0,0,2.879-.739,8.362,8.362,0,0,0,2.538-1.627,8.933,8.933,0,0,0,2.717-5.294l-.192.2,8.675-2.336.244-.065-.05-.247c-.134-.676-.279-1.41-.425-2.145-1.438-7.239-2.86-14.4-4.2-21.134l-.011-.057-.034-.047-.921-1.29-.084-.117-.143,0-93.007,2.959.229.155c-10.929-30.339-20.263-56.248-27.135-75.328l-.012-.026a51.025,51.025,0,0,0-8.665-15.286,28.394,28.394,0,0,0-10.322-7.869,23.078,23.078,0,0,0-7.873-1.791,18.085,18.085,0,0,0-2.079-.009c-.466.014-.7.032-.7.032" transform="translate(1.887 9.658)" fill="#263238"/>
        <path id="Trazado_790927" data-name="Trazado 790927" d="M150.388,374.205a26.322,26.322,0,0,1,10.732-11.521,7.3,7.3,0,0,0-2.164.98,19.9,19.9,0,0,0-7.744,8.312,7.308,7.308,0,0,0-.824,2.229" transform="translate(5.141 12.399)" fill="#263238"/>
        <path id="Trazado_790928" data-name="Trazado 790928" d="M119.7,397.819c.092.013.273-1.192.813-3.068a28.331,28.331,0,0,1,7.838-12.839c1.422-1.337,2.412-2.049,2.358-2.124-.022-.031-.286.12-.75.422a17.271,17.271,0,0,0-1.863,1.42,25.055,25.055,0,0,0-7.952,13.025,17.493,17.493,0,0,0-.412,2.305,2.632,2.632,0,0,0-.033.86" transform="translate(4.092 12.984)" fill="#263238"/>
        <g id="Grupo_1041752" data-name="Grupo 1041752" transform="translate(134.188 328.831)" opacity="0.3">
          <g id="Grupo_1041751" data-name="Grupo 1041751">
            <g id="Grupo_1041750" data-name="Grupo 1041750" clip-path="url(#clip-path-15)">
              <path id="Trazado_790929" data-name="Trazado 790929" d="M144.163,381.114l-5.414.2c-.873-21.243-5.251-42.427-9-63.355,9.547,19.5,12.049,41.575,14.411,63.155" transform="translate(-129.752 -317.96)"/>
            </g>
          </g>
        </g>
        <path id="Trazado_790930" data-name="Trazado 790930" d="M62.187,273.106a2.039,2.039,0,0,0,.511.178l1.488.409,5.483,1.458c4.629,1.23,11.01,2.994,18.1,4.783s13.582,3.173,18.317,3.951c2.366.391,4.288.667,5.623.8l1.536.155a2.013,2.013,0,0,0,.541.018,2.067,2.067,0,0,0-.526-.125l-1.522-.255c-1.323-.2-3.233-.533-5.585-.971-4.707-.872-11.164-2.306-18.251-4.1s-13.483-3.492-18.14-4.629c-2.327-.575-4.217-1.011-5.528-1.293l-1.513-.31a2.016,2.016,0,0,0-.536-.072" transform="translate(2.126 9.337)" fill="#263238"/>
      </g>
    </g>
  </g>
</svg>
